<svg width="14" height="14" viewBox="0 0 14 14" fill="none" xmlns="http://www.w3.org/2000/svg">
<path d="M7 0C3.143 0 0 3.143 0 7C0 10.857 3.143 14 7 14C10.857 14 14 10.857 14 7C14 3.143 10.857 0 7 0ZM10.346 5.39L6.377 9.359C6.27856 9.45732 6.14513 9.51254 6.006 9.51254C5.86687 9.51254 5.73344 9.45732 5.635 9.359L3.654 7.378C3.55636 7.2792 3.50161 7.1459 3.50161 7.007C3.50161 6.8681 3.55636 6.7348 3.654 6.636C3.857 6.433 4.193 6.433 4.396 6.636L6.006 8.246L9.604 4.648C9.807 4.445 10.143 4.445 10.346 4.648C10.549 4.851 10.549 5.18 10.346 5.39Z" fill="#A2A2A2"/>
</svg>
