<svg width="20" height="20" viewBox="0 0 20 20" fill="none" xmlns="http://www.w3.org/2000/svg">
<path d="M10 0C15.51 0 20 4.49 20 10C20 15.51 15.51 20 10 20C4.49 20 0 15.51 0 10C0 4.49 4.49 0 10 0ZM8.21 13C7.92 13.29 7.92 13.77 8.21 14.06C8.36 14.21 8.55 14.28 8.74 14.28C8.93 14.28 9.12 14.21 9.27 14.06L12.8 10.53C12.9395 10.3889 13.0177 10.1984 13.0177 10C13.0177 9.80157 12.9395 9.61114 12.8 9.47L9.27 5.94C8.98 5.65 8.5 5.65 8.21 5.94C7.92 6.23 7.92 6.71 8.21 7L11.21 10L8.21 13Z" fill="black"/>
</svg>
