<svg width="8" height="8" viewBox="0 0 8 8" fill="none" xmlns="http://www.w3.org/2000/svg">
<path d="M3.99994 7.98902C2.93909 7.98902 1.92169 7.5676 1.17156 6.81746C0.421421 6.06733 0 5.04994 0 3.98909C0.00287764 2.93012 0.42557 1.9155 1.17539 1.16771C1.92522 0.419926 2.94097 -3.90981e-06 3.99994 0C5.05891 -3.90981e-06 6.07467 0.419926 6.82449 1.16771C7.57431 1.9155 7.99701 2.93012 7.99988 3.98909C7.99988 5.04994 7.57846 6.06733 6.82833 6.81746C6.07819 7.5676 5.06079 7.98902 3.99994 7.98902ZM3.99994 1.18476C3.25519 1.18476 2.54078 1.47987 2.01314 2.00547C1.48551 2.53107 1.18764 3.24434 1.18477 3.98909C1.18477 4.73572 1.48136 5.45175 2.00931 5.9797C2.53726 6.50765 3.25331 6.80426 3.99994 6.80426C4.74469 6.80138 5.45795 6.50352 5.98355 5.97588C6.50915 5.44825 6.80425 4.73384 6.80425 3.98909C6.80139 3.24622 6.50501 2.53458 5.97972 2.00929C5.45443 1.484 4.74281 1.18762 3.99994 1.18476Z" fill="black"/>
</svg>
