<svg width="132" height="130" viewBox="0 0 132 130" fill="none" xmlns="http://www.w3.org/2000/svg">
<path opacity="0.2" d="M14.082 100.044C-4.46723 82.8591 -2.13982 53.8568 6.51089 44.1259C15.1616 34.3951 30.0066 27.8557 37.0337 16.8494C44.0608 5.84309 52.7003 -2.45008 70.6495 0.66021C88.5986 3.7705 89.9446 17.2549 96.1361 24.9579C102.328 32.6609 126.064 34.5573 127.287 56.0608C128.51 77.5643 113.788 79.2761 107.703 85.3233C101.618 91.3704 93.9938 117.472 72.8395 120.236C46.9126 123.626 29.7795 114.586 14.082 100.044Z" fill="#F8AB74"/>
<path d="M103.475 17.8955H8.74305V112.387H103.475V17.8955Z" fill="#91C4FB"/>
<path d="M103.475 13.1516H8.74305V107.643H103.475V13.1516Z" fill="#E4E7FF"/>
<path d="M103.475 13.1516H8.74305V29.6037H103.475V13.1516Z" fill="#7371FC"/>
<path d="M17.3935 22.4966C19.0738 22.4966 20.436 21.1379 20.436 19.4619C20.436 17.7858 19.0738 16.4271 17.3935 16.4271C15.7132 16.4271 14.351 17.7858 14.351 19.4619C14.351 21.1379 15.7132 22.4966 17.3935 22.4966Z" fill="#443DC3"/>
<path d="M17.3882 20.5781C17.0215 20.5781 16.6699 20.4328 16.4106 20.1742C16.1514 19.9156 16.0057 19.5649 16.0057 19.1991V5.96643C16.0054 5.78524 16.0409 5.60576 16.1102 5.4383C16.1795 5.27083 16.2814 5.11867 16.4098 4.99055C16.5382 4.86243 16.6908 4.76088 16.8587 4.69171C17.0266 4.62254 17.2065 4.58713 17.3882 4.58749C17.5696 4.58749 17.7492 4.62318 17.9168 4.69251C18.0843 4.76185 18.2365 4.86346 18.3647 4.99154C18.4928 5.11963 18.5944 5.27166 18.6636 5.43894C18.7327 5.60623 18.7681 5.78547 18.7678 5.96643V19.1991C18.7678 19.5644 18.6225 19.9147 18.3639 20.1732C18.1052 20.4317 17.7543 20.5773 17.3882 20.5781Z" fill="#FE814B"/>
<path d="M27.0705 22.4966C28.7508 22.4966 30.113 21.1379 30.113 19.4619C30.113 17.7858 28.7508 16.4271 27.0705 16.4271C25.3902 16.4271 24.0281 17.7858 24.0281 19.4619C24.0281 21.1379 25.3902 22.4966 27.0705 22.4966Z" fill="#443DC3"/>
<path d="M27.0706 20.5781C26.889 20.5781 26.7093 20.5424 26.5415 20.4731C26.3738 20.4038 26.2214 20.3022 26.093 20.1742C25.9647 20.0461 25.8628 19.8941 25.7934 19.7268C25.7239 19.5595 25.6881 19.3802 25.6881 19.1991V5.96642C25.6881 5.78534 25.7239 5.60603 25.7934 5.43873C25.8628 5.27143 25.9647 5.11942 26.093 4.99137C26.2214 4.86333 26.3738 4.76175 26.5415 4.69246C26.7093 4.62316 26.889 4.58749 27.0706 4.58749C27.4372 4.58749 27.7888 4.73277 28.0481 4.99137C28.3073 5.24997 28.453 5.60071 28.453 5.96642V19.1991C28.453 19.5649 28.3073 19.9156 28.0481 20.1742C27.7888 20.4328 27.4372 20.5781 27.0706 20.5781Z" fill="#FE814B"/>
<path d="M36.7505 22.4966C38.4308 22.4966 39.793 21.1379 39.793 19.4619C39.793 17.7858 38.4308 16.4271 36.7505 16.4271C35.0702 16.4271 33.708 17.7858 33.708 19.4619C33.708 21.1379 35.0702 22.4966 36.7505 22.4966Z" fill="#443DC3"/>
<path d="M36.7505 20.5781C36.3839 20.5781 36.0323 20.4328 35.773 20.1742C35.5137 19.9156 35.3681 19.5649 35.3681 19.1991V5.96643C35.3681 5.60072 35.5137 5.24998 35.773 4.99138C36.0323 4.73278 36.3839 4.5875 36.7505 4.5875C36.9325 4.58677 37.1129 4.62189 37.2813 4.69086C37.4497 4.75983 37.6027 4.86128 37.7317 4.9894C37.8606 5.11752 37.963 5.26978 38.0328 5.43744C38.1026 5.60511 38.1386 5.78488 38.1386 5.96643V19.1991C38.1386 19.3807 38.1026 19.5605 38.0328 19.7281C37.963 19.8958 37.8606 20.0481 37.7317 20.1762C37.6027 20.3043 37.4497 20.4058 37.2813 20.4747C37.1129 20.5437 36.9325 20.5788 36.7505 20.5781Z" fill="#FE814B"/>
<path d="M46.4275 22.4966C48.1078 22.4966 49.47 21.1379 49.47 19.4619C49.47 17.7858 48.1078 16.4271 46.4275 16.4271C44.7472 16.4271 43.3851 17.7858 43.3851 19.4619C43.3851 21.1379 44.7472 22.4966 46.4275 22.4966Z" fill="#443DC3"/>
<path d="M46.4274 20.5781C46.0613 20.5773 45.7104 20.4317 45.4517 20.1732C45.1931 19.9147 45.0478 19.5644 45.0478 19.1991V5.96643C45.0475 5.78547 45.0829 5.60623 45.152 5.43894C45.2212 5.27166 45.3228 5.11963 45.4509 4.99154C45.5791 4.86346 45.7313 4.76185 45.8988 4.69251C46.0664 4.62318 46.246 4.58749 46.4274 4.58749C46.6091 4.58713 46.789 4.62254 46.9569 4.69171C47.1248 4.76088 47.2774 4.86243 47.4058 4.99055C47.5342 5.11867 47.6361 5.27083 47.7054 5.4383C47.7747 5.60576 47.8103 5.78524 47.8099 5.96643V19.1991C47.8099 19.5649 47.6642 19.9156 47.405 20.1742C47.1457 20.4328 46.7941 20.5781 46.4274 20.5781Z" fill="#FE814B"/>
<path d="M56.1072 22.4966C57.7876 22.4966 59.1497 21.1379 59.1497 19.4619C59.1497 17.7858 57.7876 16.4271 56.1072 16.4271C54.4269 16.4271 53.0648 17.7858 53.0648 19.4619C53.0648 21.1379 54.4269 22.4966 56.1072 22.4966Z" fill="#443DC3"/>
<path d="M56.1073 20.5781C55.7406 20.5781 55.389 20.4328 55.1297 20.1742C54.8705 19.9156 54.7248 19.5649 54.7248 19.1991V5.96642C54.7248 5.60071 54.8705 5.24997 55.1297 4.99137C55.389 4.73277 55.7406 4.58749 56.1073 4.58749C56.4734 4.58823 56.8243 4.73384 57.083 4.99236C57.3416 5.25088 57.4869 5.60119 57.4869 5.96642V19.1991C57.4869 19.5644 57.3416 19.9147 57.083 20.1732C56.8243 20.4317 56.4734 20.5773 56.1073 20.5781Z" fill="#FE814B"/>
<path d="M65.7872 22.4966C67.4675 22.4966 68.8297 21.1379 68.8297 19.4619C68.8297 17.7858 67.4675 16.4271 65.7872 16.4271C64.1069 16.4271 62.7447 17.7858 62.7447 19.4619C62.7447 21.1379 64.1069 22.4966 65.7872 22.4966Z" fill="#443DC3"/>
<path d="M65.7872 20.5781C65.4206 20.5781 65.069 20.4328 64.8097 20.1742C64.5505 19.9156 64.4048 19.5649 64.4048 19.1991V5.96643C64.4044 5.78524 64.4399 5.60576 64.5093 5.4383C64.5786 5.27083 64.6804 5.11867 64.8089 4.99055C64.9373 4.86243 65.0899 4.76088 65.2578 4.69171C65.4257 4.62254 65.6056 4.58713 65.7872 4.58749C66.1539 4.58749 66.5055 4.73277 66.7648 4.99137C67.024 5.24997 67.1697 5.60071 67.1697 5.96643V19.1991C67.1697 19.5649 67.024 19.9156 66.7648 20.1742C66.5055 20.4328 66.1539 20.5781 65.7872 20.5781Z" fill="#FE814B"/>
<path d="M75.464 22.4966C77.1443 22.4966 78.5064 21.1379 78.5064 19.4619C78.5064 17.7858 77.1443 16.4271 75.464 16.4271C73.7837 16.4271 72.4215 17.7858 72.4215 19.4619C72.4215 21.1379 73.7837 22.4966 75.464 22.4966Z" fill="#443DC3"/>
<path d="M75.464 20.5781C75.2825 20.5781 75.1027 20.5424 74.935 20.4731C74.7673 20.4038 74.6149 20.3022 74.4865 20.1742C74.3581 20.0461 74.2563 19.8941 74.1868 19.7268C74.1173 19.5595 74.0816 19.3802 74.0816 19.1991V5.96642C74.0816 5.78534 74.1173 5.60603 74.1868 5.43873C74.2563 5.27143 74.3581 5.11942 74.4865 4.99137C74.6149 4.86333 74.7673 4.76175 74.935 4.69246C75.1027 4.62316 75.2825 4.58749 75.464 4.58749C75.8287 4.59044 76.1775 4.73702 76.4343 4.99531C76.6911 5.25359 76.8352 5.60264 76.8352 5.96642V19.1991C76.8352 19.5629 76.6911 19.912 76.4343 20.1703C76.1775 20.4285 75.8287 20.5751 75.464 20.5781Z" fill="#FE814B"/>
<path d="M85.144 22.4966C86.8243 22.4966 88.1864 21.1379 88.1864 19.4619C88.1864 17.7858 86.8243 16.4271 85.144 16.4271C83.4636 16.4271 82.1015 17.7858 82.1015 19.4619C82.1015 21.1379 83.4636 22.4966 85.144 22.4966Z" fill="#443DC3"/>
<path d="M85.144 20.5781C84.7773 20.5781 84.4257 20.4328 84.1664 20.1742C83.9072 19.9156 83.7615 19.5649 83.7615 19.1991V5.96642C83.7615 5.60071 83.9072 5.24997 84.1664 4.99137C84.4257 4.73277 84.7773 4.58749 85.144 4.58749C85.5106 4.58749 85.8622 4.73277 86.1215 4.99137C86.3808 5.24997 86.5264 5.60071 86.5264 5.96642V19.1991C86.5264 19.5649 86.3808 19.9156 86.1215 20.1742C85.8622 20.4328 85.5106 20.5781 85.144 20.5781Z" fill="#FE814B"/>
<path d="M94.8239 22.4966C96.5042 22.4966 97.8664 21.1379 97.8664 19.4619C97.8664 17.7858 96.5042 16.4271 94.8239 16.4271C93.1436 16.4271 91.7814 17.7858 91.7814 19.4619C91.7814 21.1379 93.1436 22.4966 94.8239 22.4966Z" fill="#443DC3"/>
<path d="M94.8237 20.5781C94.4571 20.5781 94.1054 20.4328 93.8462 20.1742C93.5869 19.9156 93.4413 19.5649 93.4413 19.1991V5.96643C93.4409 5.78524 93.4764 5.60576 93.5458 5.4383C93.6151 5.27083 93.7169 5.11867 93.8453 4.99055C93.9738 4.86243 94.1263 4.76088 94.2942 4.69171C94.4621 4.62254 94.6421 4.58713 94.8237 4.58749C95.0051 4.58749 95.1847 4.62318 95.3523 4.69251C95.5199 4.76185 95.6721 4.86346 95.8002 4.99154C95.9284 5.11963 96.0299 5.27166 96.0991 5.43894C96.1683 5.60623 96.2037 5.78547 96.2033 5.96643V19.1991C96.2033 19.5644 96.0581 19.9147 95.7994 20.1732C95.5408 20.4317 95.1899 20.5773 94.8237 20.5781Z" fill="#FE814B"/>
<g style="mix-blend-mode:multiply">
<path d="M24.5272 44.1065H14.351V54.2569H24.5272V44.1065Z" fill="#E4E7FF"/>
</g>
<g style="mix-blend-mode:multiply">
<path d="M36.8571 44.1065H26.6809V54.2569H36.8571V44.1065Z" fill="#E4E7FF"/>
</g>
<g style="mix-blend-mode:multiply">
<path d="M49.1897 44.1065H39.0135V54.2569H49.1897V44.1065Z" fill="#E4E7FF"/>
</g>
<g style="mix-blend-mode:multiply">
<path d="M61.5191 44.1065H51.3429V54.2569H61.5191V44.1065Z" fill="#E4E7FF"/>
</g>
<g style="mix-blend-mode:multiply">
<path d="M73.8517 44.1065H63.6755V54.2569H73.8517V44.1065Z" fill="#E4E7FF"/>
</g>
<g style="mix-blend-mode:multiply">
<path d="M86.1845 44.1065H76.0084V54.2569H86.1845V44.1065Z" fill="#E4E7FF"/>
</g>
<g style="mix-blend-mode:multiply">
<path d="M98.5139 44.1065H88.3378V54.2569H98.5139V44.1065Z" fill="#E4E7FF"/>
</g>
<g style="mix-blend-mode:multiply">
<path d="M24.5272 56.5197H14.351V66.6701H24.5272V56.5197Z" fill="#E4E7FF"/>
</g>
<g style="mix-blend-mode:multiply">
<path d="M36.8571 56.5197H26.6809V66.6701H36.8571V56.5197Z" fill="#E4E7FF"/>
</g>
<g style="mix-blend-mode:multiply">
<path d="M49.1897 56.5197H39.0135V66.6701H49.1897V56.5197Z" fill="#E4E7FF"/>
</g>
<g style="mix-blend-mode:multiply">
<path d="M61.5191 56.5197H51.3429V66.6701H61.5191V56.5197Z" fill="#E4E7FF"/>
</g>
<g style="mix-blend-mode:multiply">
<path d="M73.8517 56.5197H63.6755V66.6701H73.8517V56.5197Z" fill="#E4E7FF"/>
</g>
<g style="mix-blend-mode:multiply">
<path d="M86.1845 56.5197H76.0084V66.6701H86.1845V56.5197Z" fill="#E4E7FF"/>
</g>
<g style="mix-blend-mode:multiply">
<path d="M98.5139 56.5197H88.3378V66.6701H98.5139V56.5197Z" fill="#E4E7FF"/>
</g>
<g style="mix-blend-mode:multiply">
<path d="M24.5272 68.93H14.351V79.0804H24.5272V68.93Z" fill="#E4E7FF"/>
</g>
<g style="mix-blend-mode:multiply">
<path d="M36.8571 68.93H26.6809V79.0804H36.8571V68.93Z" fill="#E4E7FF"/>
</g>
<g style="mix-blend-mode:multiply">
<path d="M49.1897 68.93H39.0135V79.0804H49.1897V68.93Z" fill="#E4E7FF"/>
</g>
<g style="mix-blend-mode:multiply">
<path d="M61.5191 68.93H51.3429V79.0804H61.5191V68.93Z" fill="#E4E7FF"/>
</g>
<g style="mix-blend-mode:multiply">
<path d="M73.8517 68.93H63.6755V79.0804H73.8517V68.93Z" fill="#E4E7FF"/>
</g>
<g style="mix-blend-mode:multiply">
<path d="M86.1845 68.93H76.0084V79.0804H86.1845V68.93Z" fill="#E4E7FF"/>
</g>
<g style="mix-blend-mode:multiply">
<path d="M98.5139 68.93H88.3378V79.0804H98.5139V68.93Z" fill="#E4E7FF"/>
</g>
<g style="mix-blend-mode:multiply">
<path d="M24.5272 81.3403H14.351V91.4907H24.5272V81.3403Z" fill="#E4E7FF"/>
</g>
<g style="mix-blend-mode:multiply">
<path d="M36.8571 81.3403H26.6809V91.4907H36.8571V81.3403Z" fill="#E4E7FF"/>
</g>
<g style="mix-blend-mode:multiply">
<path d="M49.1897 81.3403H39.0135V91.4907H49.1897V81.3403Z" fill="#E4E7FF"/>
</g>
<g style="mix-blend-mode:multiply">
<path d="M61.5191 81.3403H51.3429V91.4907H61.5191V81.3403Z" fill="#E4E7FF"/>
</g>
<g style="mix-blend-mode:multiply">
<path d="M73.8517 81.3403H63.6755V91.4907H73.8517V81.3403Z" fill="#E4E7FF"/>
</g>
<g style="mix-blend-mode:multiply">
<path d="M86.1845 81.3403H76.0084V91.4907H86.1845V81.3403Z" fill="#E4E7FF"/>
</g>
<g style="mix-blend-mode:multiply">
<path d="M98.5139 81.3403H88.3378V91.4907H98.5139V81.3403Z" fill="#E4E7FF"/>
</g>
<g style="mix-blend-mode:multiply">
<path d="M98.5141 34.5324H39.0135V35.6456H98.5141V34.5324Z" fill="#E4E7FF"/>
</g>
<g style="mix-blend-mode:multiply">
<path d="M98.5141 36.77H39.0135V37.8833H98.5141V36.77Z" fill="#E4E7FF"/>
</g>
<g style="mix-blend-mode:multiply">
<path d="M98.5141 39.0101H39.0135V40.1233H98.5141V39.0101Z" fill="#E4E7FF"/>
</g>
<g style="mix-blend-mode:multiply">
<path d="M98.5167 95.471H14.351V96.5842H98.5167V95.471Z" fill="#E4E7FF"/>
</g>
<g style="mix-blend-mode:multiply">
<path d="M98.5167 97.7086H14.351V98.8218H98.5167V97.7086Z" fill="#E4E7FF"/>
</g>
<g style="mix-blend-mode:multiply">
<path d="M98.5167 99.9492H14.351V101.062H98.5167V99.9492Z" fill="#E4E7FF"/>
</g>
<path d="M36.8599 34.5324H15.0494V40.1209H36.8599V34.5324Z" fill="#FE814B"/>
<path d="M8.74305 108.382H103.404" stroke="#E4E7FF" stroke-width="0.139636" stroke-miterlimit="10"/>
<path d="M8.74305 109.456H103.404" stroke="#E4E7FF" stroke-width="0.139636" stroke-miterlimit="10"/>
<path d="M8.74305 110.527H103.404" stroke="#E4E7FF" stroke-width="0.139636" stroke-miterlimit="10"/>
<path d="M8.74305 111.599H103.404" stroke="#E4E7FF" stroke-width="0.139636" stroke-miterlimit="10"/>
<path d="M41.6522 45.2168C41.9326 45.7482 42.2354 46.2601 42.5439 46.7719L43.4664 48.3019L45.3116 51.3562H44.2796C45.3003 49.169 46.422 47.0395 47.6446 44.9678C48.2615 43.9329 48.9036 42.9092 49.5934 41.9135C50.2715 40.9056 51.0103 39.9398 51.8059 39.0214C51.3572 40.157 50.8749 41.259 50.3674 42.3526C49.8598 43.4463 49.3383 44.5259 48.7943 45.5972C47.7035 47.7341 46.551 49.8403 45.306 51.8989L44.7451 52.8498L44.2853 51.9072C44.0189 51.3646 43.7637 50.8248 43.5169 50.2794C43.2702 49.734 43.0374 49.1802 42.8047 48.6263C42.5719 48.0725 42.3616 47.5075 42.1569 46.9481C41.9498 46.383 41.7811 45.8046 41.6522 45.2168Z" fill="#102E1E"/>
<path d="M41.181 70.4823C41.4614 71.0137 41.7643 71.5256 42.0755 72.0374L42.9981 73.5674L44.8404 76.6357H43.8113C44.832 74.4485 45.9536 72.319 47.1762 70.2473C47.7931 69.2124 48.4353 68.1887 49.1391 67.193C49.8171 66.1858 50.5549 65.22 51.3488 64.3009C50.9029 65.4365 50.4206 66.5385 49.9131 67.6321C49.4055 68.7258 48.8839 69.8054 48.3399 70.8767C47.2491 73.0136 46.0967 75.1198 44.8516 77.1784L44.2908 78.1293L43.8141 77.1951C43.5505 76.6525 43.2953 76.1127 43.0486 75.5673C42.8018 75.0219 42.5691 74.468 42.3363 73.9142C42.1036 73.3604 41.8933 72.7954 41.6886 72.236C41.4808 71.6632 41.3113 71.0774 41.181 70.4823Z" fill="#FE814B"/>
<path d="M16.7376 79.3881C17.6433 80.5069 18.4481 81.6257 19.2389 82.7753C20.0296 83.9248 20.7811 85.0772 21.5298 86.238C23.0272 88.5595 24.4685 90.9062 25.9547 93.2305C24.1937 91.1104 22.472 88.9567 20.7082 86.8449C19.8277 85.7821 18.9388 84.7472 18.0331 83.7123C17.1274 82.6774 16.202 81.6844 15.2458 80.767L16.7376 79.3881Z" fill="#7371FC"/>
<path d="M17.0346 89.6449C18.3132 87.3122 19.6975 85.0484 21.1875 82.8537C21.9352 81.7591 22.7054 80.686 23.4981 79.6343C24.2916 78.577 25.1216 77.5561 25.9376 76.5268C25.2618 77.6456 24.5692 78.7644 23.9215 79.9112C23.2737 81.058 22.654 82.2048 22.0651 83.3684C20.8818 85.6983 19.8219 88.0841 18.8797 90.5008L17.0346 89.6449Z" fill="#7371FC"/>
<path d="M32.5501 55.1435C30.9069 54.6456 29.0477 55.1435 27.7298 56.2315C26.4295 57.3765 25.5937 58.9562 25.38 60.6732C25.1897 61.7703 25.3212 62.8989 25.7585 63.9233C26.5577 65.6435 28.4056 66.6588 30.2451 67.0923C32.5305 67.6266 35.1383 67.372 36.8937 65.8113C38.649 64.2506 39.2127 61.6158 38.5509 59.3781C38.0181 57.5797 36.6777 55.9602 34.8803 55.4204C34.051 55.1922 33.1841 55.1333 32.3314 55.2469C30.4638 55.4483 28.6215 56.1951 27.3036 57.5321C25.9856 58.8691 25.2622 60.8158 25.5987 62.6507C25.7997 63.6898 26.2772 64.6558 26.9811 65.4477C29.1487 67.9286 33.2343 68.4489 35.9543 66.5889C38.6743 64.7289 39.6669 60.7403 38.1303 57.8286C37.3788 56.4077 36.002 55.2246 34.3952 55.1015C33.1782 55.0092 31.8939 55.5071 30.7723 55.0288" stroke="#102E1E" stroke-width="0.279272" stroke-miterlimit="10"/>
<path d="M30.8282 64.3039L31.2012 58.3323L35.5588 63.5683L28.3998 61.3167L35.5588 59.1238L30.8282 64.3039Z" fill="#102E1E"/>
<path d="M31.7563 67.2827C31.1169 72.2922 33.0041 77.4974 36.4812 81.1671C39.9583 84.8368 44.916 86.9905 49.9634 87.3681C55.0108 87.7457 59.9853 86.4759 64.3794 83.9669" stroke="#102E1E" stroke-width="0.558544" stroke-miterlimit="10"/>
<path d="M59.8536 83.2426C61.3538 83.5223 64.3794 83.9195 64.3794 83.9195L62.1165 87.4325" stroke="#102E1E" stroke-width="0.659082" stroke-miterlimit="10"/>
<path d="M83.8458 130H96.3718L95.9035 111.629L101.262 130H115.922C115.185 121.329 114.223 111.632 113.216 105.702C111.063 92.9872 106.206 90.4503 106.206 90.4503L88.523 89.8657C88.523 89.8657 81.981 98.5812 82.2586 110.315C82.3792 115.285 83.0774 122.887 83.8458 130Z" fill="#102E1E"/>
<path d="M83.6214 75.7967C82.5712 75.6495 81.5092 75.6026 80.45 75.6569C80.1954 75.6529 79.9436 75.7095 79.7153 75.8219C79.5489 75.9461 79.4123 76.1056 79.3153 76.289C79.2183 76.4723 79.1633 76.6748 79.1545 76.882C79.0143 77.942 79.2891 79.0133 79.6115 80.0342C79.6826 80.2524 79.7555 80.4705 79.8303 80.6887C80.4894 80.4299 81.0943 80.0504 81.6137 79.5699C82.6694 78.558 83.3729 77.2359 83.6214 75.7967Z" fill="#FE5228"/>
<path d="M93.5646 62.8885C93.4693 62.5053 93.2421 61.5515 92.7991 61.42C92.4177 61.3054 91.6634 61.8704 91.3549 62.0578C89.2743 63.3136 87.7096 65.3135 86.6496 67.47C85.3569 70.102 84.7316 72.9997 84.1259 75.8611C83.9633 75.8331 83.7951 75.8135 83.6296 75.7911C83.3847 77.2299 82.6851 78.553 81.6331 79.5671C81.1137 80.0477 80.5088 80.4271 79.8497 80.6859C81.2012 84.6186 83.5202 88.4057 87.2021 90.2993C87.8077 90.6098 88.5592 90.8587 89.1453 90.5175C89.7314 90.1762 89.8856 89.3679 89.9641 88.677C90.8053 81.2369 92.4878 73.9143 93.545 66.4994C93.7076 65.3191 93.8534 64.0632 93.5646 62.8885Z" fill="#FE814B"/>
<path d="M113.914 64.8549L102.462 59.6916C102.462 59.6916 93.0571 59.6077 90.5362 62.5194C88.0153 65.4311 86.0131 71.839 86.0131 71.839L88.5368 89.8658C88.5368 89.8658 89.5239 92.9593 94.8433 94.2879C100.163 95.6165 106.22 90.4504 106.22 90.4504L113.914 64.8549Z" fill="#7371FC"/>
<path d="M116.321 82.9567L113.904 81.6933L108.632 91.7267L111.049 92.9901L116.321 82.9567Z" fill="#E4E7FF"/>
<path d="M118.74 84.2197L116.323 82.9563L111.051 92.9896L113.468 94.253L118.74 84.2197Z" fill="#D0CDFF"/>
<path d="M121.176 85.4763L118.759 84.2133L113.489 94.2476L115.906 95.5106L121.176 85.4763Z" fill="#E4E7FF"/>
<path d="M124.451 86.6041L122.023 85.3522L116.799 95.4341L119.227 96.686L124.451 86.6041Z" fill="#D0CDFF"/>
<path d="M123.574 86.7481L130.059 90.1383C130.902 90.5799 131.535 91.3373 131.818 92.244C132.102 93.1507 132.013 94.1326 131.571 94.9738L129.635 98.6577C129.193 99.4993 128.433 100.131 127.524 100.415C126.614 100.698 125.63 100.609 124.786 100.168L118.303 96.7789L123.575 86.7456L123.574 86.7481Z" fill="#FE814B"/>
<path d="M53.2809 53.0067L45.177 52.1676L50.7292 58.6007C50.8946 58.3965 51.0741 58.2035 51.2283 57.991C52.3047 56.5186 53.0089 54.8087 53.2809 53.0067Z" fill="#102E1E"/>
<path d="M60.4818 53.7621L53.2809 53.0069C53.0093 54.8099 52.3051 56.5208 51.2282 57.994C51.074 58.2066 50.8946 58.3996 50.7291 58.6038L55.2017 63.795L60.4818 53.7621Z" fill="#FEC5B7"/>
<path d="M57.8378 58.8084L56.8615 60.6665L110.292 88.5999L111.269 86.7419L57.8378 58.8084Z" fill="#7355FC"/>
<path d="M55.8842 62.5269L55.2151 63.8003L108.646 91.7337L109.315 90.4603L55.8842 62.5269Z" fill="#7355FC"/>
<path d="M56.8609 60.6671L55.8846 62.5251L109.316 90.4585L110.292 88.6005L56.8609 60.6671Z" fill="#7371FC"/>
<path d="M58.805 56.9423L57.829 58.8005L111.265 86.7246L112.241 84.8664L58.805 56.9423Z" fill="#7371FC"/>
<path d="M59.7893 55.0941L58.813 56.9522L112.244 84.8856L113.22 83.0276L59.7893 55.0941Z" fill="#7355FC"/>
<path d="M60.4869 53.7661L59.7891 55.094L113.22 83.0274L113.918 81.6996L60.4869 53.7661Z" fill="#7371FC"/>
<path d="M106.335 77.7267L87.4938 67.8784L106.862 76.3142L106.335 77.7267Z" fill="#102E1E"/>
<path d="M92.7318 49.8964C92.0551 50.1666 91.3323 50.3034 90.6035 50.2992C90.2399 50.2926 89.8831 50.1993 89.5631 50.0271C89.243 49.8548 88.969 49.6086 88.764 49.309C88.2536 48.4559 88.5901 47.3092 89.2519 46.5679C87.8498 46.361 86.4478 45.2701 86.1309 43.894C85.9793 43.2015 86.0339 42.48 86.288 41.8181C86.542 41.1562 86.9845 40.5827 87.561 40.1684C87.6977 40.0945 87.8091 39.9815 87.8807 39.8439C87.9102 39.7037 87.8985 39.5581 87.847 39.4243C87.6008 38.5258 87.5957 37.5784 87.8323 36.6772C88.0688 35.7761 88.5387 34.9527 89.1948 34.2898C89.8509 33.6269 90.6702 33.1476 91.5705 32.9C92.4708 32.6525 93.4206 32.6453 94.3245 32.8793C94.4731 31.5088 95.4462 30.1634 96.5678 29.3802C97.7314 28.623 99.0902 28.2188 100.48 28.2167C101.523 28.1622 102.563 28.377 103.5 28.8404C103.965 29.0762 104.373 29.4099 104.696 29.8184C105.019 30.227 105.249 30.7007 105.37 31.2067C106.413 30.2249 108.211 30.1914 109.514 30.7871C110.629 31.2781 111.541 32.1375 112.094 33.2205C112.363 33.7619 112.508 34.3558 112.52 34.9598C112.532 35.5637 112.409 36.1628 112.162 36.714C113.718 36.7951 115.263 37.9419 115.883 39.3684C116.502 40.7949 116.056 42.6577 114.761 43.508C115.301 43.9006 115.745 44.4103 116.059 44.9988C116.338 45.5623 116.471 46.1863 116.446 46.8141C116.471 47.3663 116.397 47.9185 116.227 48.4447C116.023 48.9952 115.668 49.4778 115.204 49.838C114.739 50.1983 114.183 50.4219 113.597 50.4838C113.66 50.7488 113.67 51.0235 113.626 51.2923C113.582 51.5611 113.486 51.8186 113.342 52.0501C113.061 52.5279 112.678 52.9384 112.22 53.2528C111.862 53.5262 111.46 53.7371 111.031 53.8766C110.414 54.05 109.757 54.0241 109.155 53.8025C108.553 53.581 108.037 53.1751 107.681 52.6431L92.7318 49.8964Z" fill="#102E1E"/>
<path d="M103.082 59.1402C102.891 59.3435 102.684 59.5306 102.462 59.6997C101.69 60.2485 100.82 60.6453 99.8992 60.8688C99.227 61.0737 98.5203 61.1412 97.8214 61.0674C97.7429 61.0674 97.6671 61.0394 97.5914 61.0226C97.6048 61.1604 97.6448 61.2944 97.7092 61.417C97.9223 61.7946 98.3878 61.9457 98.8168 62.024C99.9758 62.2365 101.168 62.181 102.302 61.8617C102.429 61.8371 102.546 61.7747 102.636 61.6827C102.706 61.5727 102.742 61.444 102.737 61.3135C102.795 60.5812 102.91 59.8546 103.082 59.1402Z" fill="#FE814B"/>
<path d="M99.8993 60.8608C100.82 60.6373 101.69 60.2405 102.462 59.6917C102.684 59.5226 102.891 59.3355 103.082 59.1323C103.348 57.9687 103.696 56.8387 103.906 55.65C102.734 55.2137 100.626 56.2094 99.6834 56.9059C98.4692 57.7869 97.6 59.1994 97.5747 60.6958C97.5719 60.7996 97.5776 60.9034 97.5915 61.0063C97.6673 61.0231 97.743 61.0398 97.8215 61.051C98.5199 61.1276 99.2266 61.0629 99.8993 60.8608Z" fill="#FE5228"/>
<path d="M94.9303 43.7013C96.3044 43.1419 97.2297 41.7434 97.426 40.2805C97.7821 41.3658 98.0541 42.7167 99.1085 43.1587C99.7179 43.3781 100.381 43.4007 101.004 43.223C101.888 43.014 102.708 42.5957 103.396 42.0035C103.348 42.8873 103.096 44.2747 103.612 44.9935C103.818 45.2667 104.074 45.4991 104.366 45.6788C105.163 46.1927 106.102 46.4432 107.05 46.3948C106.009 47.5444 105.367 49.3233 105.886 50.7833C106.133 51.4657 106.548 52.0754 107.092 52.5566C107.196 52.372 107.305 52.1874 107.403 51.9972C108.169 50.6044 108.688 49.0906 108.94 47.522C109.187 45.9424 108.934 44.3252 108.216 42.8957C107.159 40.9378 105.106 39.654 102.975 38.9799C101.939 38.6191 100.844 38.4587 99.7478 38.5072C98.2925 38.6079 96.2623 39.1617 95.1939 40.2386C94.5138 40.9504 93.9584 41.7711 93.5507 42.6664C93.36 43.0691 93.1918 43.4803 93.0432 43.8915C93.6776 44.008 94.3321 43.942 94.9303 43.7013Z" fill="#102E1E"/>
<path d="M105.889 50.7832C105.376 49.3232 106.012 47.5443 107.053 46.3947C106.105 46.4431 105.166 46.1926 104.369 45.6787C104.077 45.4989 103.821 45.2665 103.615 44.9934C103.099 44.2745 103.351 42.8872 103.399 42.0034C102.711 42.5956 101.891 43.0139 101.007 43.2229C100.384 43.4005 99.7207 43.378 99.1113 43.1585C98.0541 42.7166 97.7821 41.3656 97.4288 40.2804C97.2325 41.7432 96.3072 43.1445 94.9332 43.7012C94.335 43.9386 93.6815 44.0016 93.0488 43.883C92.8806 44.3557 92.7347 44.8284 92.6198 45.2815C92.1905 47.1295 92.03 49.0295 92.1431 50.9231C92.2272 52.9873 92.5328 55.1186 93.6124 56.8723C94.692 58.6261 96.697 59.9491 98.7636 59.6973C99.5286 59.5771 100.265 59.3184 100.937 58.9337C103.446 57.594 105.423 55.4207 106.867 52.9649C106.949 52.8306 107.022 52.6852 107.097 52.5537C106.553 52.0736 106.137 51.4649 105.889 50.7832Z" fill="#FE814B"/>
<path d="M106.144 49.9436C105.761 50.7325 105.598 51.6098 105.673 52.4833C105.709 53.1545 105.889 53.8818 106.458 54.2566C106.677 54.3777 106.921 54.4461 107.17 54.4563C107.42 54.4665 107.669 54.4182 107.897 54.3153C108.35 54.105 108.75 53.7952 109.066 53.4091C109.586 52.863 109.964 52.1986 110.168 51.4735C110.267 51.1109 110.288 50.7312 110.227 50.3601C110.167 49.989 110.027 49.6352 109.817 49.3226C109.386 48.7296 108.558 48.2346 107.829 48.4639C107.097 48.722 106.494 49.2521 106.144 49.9436Z" fill="#FE814B"/>
<path d="M109.363 50.0639C109.271 49.9189 109.142 49.7999 108.991 49.7182C108.839 49.6365 108.669 49.5947 108.497 49.5968C108.33 49.5965 108.164 49.6295 108.01 49.6939C107.856 49.7582 107.716 49.8527 107.599 49.9716C107.351 50.2051 107.159 50.4921 107.039 50.8108C106.922 51.135 106.829 51.4667 106.758 51.8037L106.562 51.6918C106.681 51.5684 106.828 51.4747 106.99 51.4183C107.152 51.3619 107.325 51.3445 107.496 51.3674C107.672 51.4037 107.828 51.5032 107.936 51.6471C108.037 51.7861 108.098 51.9509 108.11 52.1226C108.123 52.2868 108.094 52.4517 108.028 52.6025C107.961 52.7533 107.858 52.8853 107.728 52.9868C107.479 53.1762 107.18 53.2906 106.867 53.3169C107.162 53.2516 107.434 53.1098 107.655 52.9057C107.761 52.8109 107.842 52.6917 107.891 52.5586C107.939 52.4255 107.955 52.2826 107.936 52.1421C107.925 52.0101 107.872 51.885 107.786 51.7845C107.699 51.6841 107.583 51.6135 107.454 51.5827C107.319 51.5723 107.183 51.592 107.057 51.6404C106.931 51.6888 106.817 51.7647 106.724 51.8624L106.444 52.1421L106.537 51.7506C106.614 51.4009 106.721 51.0585 106.856 50.7268C106.992 50.3836 107.209 50.0777 107.487 49.8346C107.627 49.7106 107.79 49.6157 107.968 49.5557C108.145 49.4956 108.332 49.4716 108.519 49.485C108.698 49.499 108.871 49.5599 109.019 49.6616C109.167 49.7632 109.286 49.902 109.363 50.0639Z" fill="#102E1E"/>
<path d="M95.9033 48.4249C95.8696 48.8781 95.6032 49.2277 95.3116 49.2053C95.02 49.1829 94.8097 48.7997 94.8433 48.3438C94.877 47.8879 95.1433 47.5411 95.435 47.5635C95.7266 47.5858 95.9285 47.969 95.9033 48.4249Z" fill="#32328C"/>
<path d="M101.792 49.2756C101.758 49.7287 101.492 50.0811 101.2 50.0587C100.909 50.0364 100.698 49.6504 100.732 49.1944C100.766 48.7385 101.032 48.3917 101.324 48.4141C101.615 48.4365 101.826 48.8224 101.792 49.2756Z" fill="#32328C"/>
<path d="M93.8649 46.3913C93.98 46.1216 94.1382 45.8722 94.3331 45.6529C94.5403 45.4241 94.7873 45.2345 95.0622 45.0935C95.2024 45.0208 95.3426 44.9425 95.5025 44.8809C95.6586 44.8207 95.8283 44.8042 95.9932 44.8334C96.1618 44.86 96.3226 44.923 96.4643 45.018C96.6182 45.113 96.7395 45.2525 96.812 45.418L96.7755 45.5075C96.6017 45.583 96.4643 45.6333 96.3381 45.6781C96.2262 45.7209 96.112 45.7573 95.996 45.7872C95.89 45.8152 95.7798 45.8238 95.6707 45.8123C95.5554 45.7955 95.4383 45.7955 95.323 45.8123C95.0815 45.8576 94.8468 45.9337 94.6248 46.0389C94.3828 46.1525 94.1534 46.2913 93.9406 46.4529L93.8649 46.3913Z" fill="#102E1E"/>
<path d="M103.004 47.5834C102.836 47.3783 102.648 47.1909 102.443 47.024C102.253 46.8668 102.044 46.7351 101.82 46.6324C101.712 46.5885 101.599 46.5594 101.484 46.5457C101.376 46.5299 101.271 46.4949 101.175 46.4422C101.07 46.3834 100.968 46.319 100.87 46.2492C100.76 46.1765 100.64 46.0954 100.488 45.9695L100.474 45.8744C100.587 45.7329 100.739 45.6279 100.912 45.5723C101.072 45.5137 101.244 45.4917 101.414 45.508C101.58 45.5218 101.74 45.5797 101.876 45.6758C102.008 45.7738 102.133 45.8794 102.252 45.9919C102.481 46.1991 102.671 46.4454 102.813 46.7191C102.951 46.9818 103.046 47.2652 103.093 47.5582L103.004 47.5834Z" fill="#102E1E"/>
<g style="mix-blend-mode:multiply" opacity="0.4">
<path d="M95.121 52.1953C95.0761 52.5533 94.5602 52.7855 93.9461 52.71C93.332 52.6345 92.8889 52.282 92.9338 51.9212C92.9786 51.5604 93.4946 51.3282 94.1087 51.4038C94.7228 51.4793 95.1658 51.8345 95.121 52.1953Z" fill="#F8AB74"/>
</g>
<g style="mix-blend-mode:multiply" opacity="0.4">
<path d="M102.701 53.1408C102.656 53.5017 102.14 53.731 101.526 53.6555C100.912 53.58 100.469 53.2276 100.513 52.8667C100.558 52.5059 101.074 52.2766 101.688 52.3521C102.302 52.4276 102.745 52.7828 102.701 53.1408Z" fill="#F8AB74"/>
</g>
<path d="M98.2589 47.7762C98.3266 48.4301 98.2451 49.0908 98.0206 49.7089C97.8843 50.0184 97.6768 50.2915 97.4149 50.5061C97.1631 50.7018 96.9378 50.9293 96.7447 51.183C96.5781 51.4297 96.512 51.7305 96.5599 52.0241C96.6079 52.3177 96.7662 52.582 97.0027 52.7633C97.2507 52.9489 97.5535 53.0473 97.8635 53.043C98.1828 53.0691 98.5007 52.9787 98.7581 52.7885C98.5162 53.0142 98.1976 53.1401 97.8664 53.1409C97.699 53.1487 97.5313 53.1356 97.3672 53.1017C97.1984 53.0648 97.0384 52.9954 96.8961 52.8975C96.7519 52.8014 96.6281 52.6778 96.5318 52.5338C96.4356 52.3898 96.3688 52.2282 96.3353 52.0584C96.2712 51.7074 96.3467 51.3453 96.5456 51.0487C96.7531 50.7878 96.9934 50.5547 97.2607 50.355C97.5026 50.1613 97.7012 49.9194 97.8439 49.6446C97.9821 49.3611 98.0766 49.0584 98.1243 48.7468C98.1972 48.4195 98.2225 48.1062 98.2589 47.7762Z" fill="#102E1E"/>
<path d="M95.4435 53.1069C95.687 53.4871 95.9688 53.8414 96.2848 54.1642C96.5905 54.4665 96.9821 54.6677 97.4064 54.7404C97.8426 54.7703 98.2792 54.6875 98.6739 54.4999C99.0908 54.321 99.4784 54.0806 99.8236 53.7866C99.5421 54.162 99.1799 54.4698 98.7636 54.6873C98.3397 54.9333 97.8506 55.0445 97.3616 55.0061C96.8773 54.9274 96.4364 54.6808 96.1165 54.3097C95.823 53.9514 95.5952 53.5442 95.4435 53.1069Z" fill="#102E1E"/>
<path d="M77.3175 76.7895C76.9227 75.978 76.7773 75.0681 76.8997 74.1743C76.995 73.1758 77.3007 72.1633 77.9849 71.4276C78.1531 71.2514 78.4363 71.0864 78.6186 71.2486C78.6689 71.3109 78.704 71.3841 78.721 71.4622C78.7381 71.5404 78.7366 71.6215 78.7167 71.699C78.6186 72.5101 78.4083 73.3072 78.3214 74.1212C78.1941 74.9354 78.3132 75.7691 78.6635 76.5154C78.7195 75.2763 78.8121 73.9981 79.4374 72.9185C79.6098 72.6013 79.8548 72.3291 80.1524 72.1241C80.2045 72.08 80.2683 72.052 80.336 72.0435C80.4038 72.0351 80.4725 72.0466 80.5338 72.0766C80.5725 72.112 80.603 72.1553 80.6233 72.2036C80.6437 72.2518 80.6533 72.3039 80.6516 72.3563C80.6829 72.6171 80.6876 72.8804 80.6656 73.1422C80.7725 72.8993 80.9314 72.6826 81.1311 72.5073C81.2317 72.4156 81.3597 72.3593 81.4955 72.3472C81.6312 72.3351 81.7672 72.3677 81.8826 72.4402C82.1294 72.6332 82.1097 72.9996 82.0677 73.3156C82.1625 73.1659 82.2997 73.0475 82.4618 72.9753C82.624 72.9032 82.8039 72.8805 82.979 72.9101C83.2258 73.3632 83.0856 73.9198 82.979 74.4233C82.8337 75.059 82.7399 75.7053 82.6986 76.356C82.7099 76.7442 82.6232 77.1289 82.4462 77.4748C82.32 77.6678 82.1854 78.4622 80.6544 78.451C80.0332 78.408 79.4223 78.2702 78.8429 78.0426C78.1922 77.8354 77.6461 77.3869 77.3175 76.7895Z" fill="#FE814B"/>
<path d="M80.6798 73.0474C80.5424 73.4837 80.4134 73.9172 80.3096 74.3564C80.2059 74.7955 80.1217 75.2402 80.0657 75.6877C80.0039 76.1339 79.9646 76.583 79.9479 77.0331C79.9311 77.4862 79.9479 77.9393 79.9479 78.3953C79.8441 77.9481 79.785 77.4919 79.7712 77.0331C79.7544 76.5733 79.7769 76.1129 79.8385 75.657C79.9005 75.2009 80.0009 74.7509 80.1386 74.3116C80.2774 73.8737 80.4586 73.4502 80.6798 73.0474Z" fill="#102E1E"/>
<path d="M82.0706 73.2793C81.9837 73.6848 81.9024 74.0876 81.8407 74.4932C81.779 74.8987 81.7285 75.3043 81.7033 75.7099C81.678 76.1154 81.664 76.5266 81.6668 76.9378C81.6696 77.3489 81.6977 77.7573 81.7257 78.1712C81.611 77.771 81.5349 77.3608 81.4986 76.9461C81.4603 76.5304 81.4556 76.1123 81.4846 75.6959C81.5143 75.2793 81.5781 74.8658 81.6752 74.4596C81.7697 74.0547 81.9021 73.6595 82.0706 73.2793Z" fill="#102E1E"/>
<path d="M104.316 83.8911C105.516 79.4914 109.879 67.6264 112.448 65.0727C113.146 64.3819 114.326 64.821 114.907 65.6154C115.487 66.4097 115.529 67.4642 115.485 68.4432C115.313 72.1828 114.287 75.8217 113.227 79.4131C111.845 84.0981 104.888 92.408 103.918 92.0752C100.415 90.8809 90.1493 75.0525 90.1493 75.0525L94.4144 74.4931L104.316 83.8911Z" fill="#FE814B"/>
<path d="M83.4279 78.56C83.742 78.9656 84.042 79.3767 84.3449 79.7851L85.2506 81.013L86.1591 82.2409C86.462 82.6492 86.7676 83.0576 87.062 83.4744C86.6975 83.1163 86.3582 82.7331 86.0273 82.3555C85.6964 81.9779 85.3824 81.564 85.0767 81.1528C84.7711 80.7417 84.4795 80.3137 84.2075 79.8914C83.9355 79.469 83.6663 79.0131 83.4279 78.56Z" fill="#102E1E"/>
<path d="M94.4032 74.4825L94.5742 69.5765C94.5774 69.4831 94.5586 69.3902 94.5193 69.3054C94.48 69.2206 94.4214 69.1461 94.3481 69.0879C94.2748 69.0297 94.1888 68.9894 94.0971 68.9704C94.0054 68.9513 93.9105 68.9539 93.8199 68.9779L93.6293 69.0283L92.8862 68.3318C92.8105 68.2602 92.7174 68.2097 92.616 68.1851C92.5147 68.1606 92.4087 68.1629 92.3085 68.192L91.7056 68.3654L90.8251 67.7472C90.7601 67.702 90.6867 67.67 90.6092 67.6532C90.5317 67.6364 90.4517 67.6351 90.3737 67.6493L89.8745 67.7388L89.7091 67.6661C89.6169 67.6257 89.5159 67.6091 89.4156 67.6179C89.3153 67.6266 89.2188 67.6604 89.135 67.7161C89.0512 67.7719 88.9828 67.8477 88.9361 67.9368C88.8894 68.0258 88.8659 68.1251 88.8679 68.2255V71.2379L90.1353 75.0531" fill="#FE814B"/>
<path d="M111.862 26.8096C112.617 25.0959 114.009 23.7413 115.745 23.0309L115.799 23.0085L115.563 22.905C113.936 22.1927 112.627 20.9086 111.887 19.2968L111.853 19.2241L111.679 19.5765C110.968 20.9629 109.827 22.0832 108.427 22.7707L107.925 23.0169H107.956C109.622 23.6924 110.977 24.9628 111.755 26.5803L111.862 26.8096Z" fill="#FE814B"/>
<path d="M116.814 29.1396C117.192 28.2833 117.889 27.6066 118.757 27.2516H118.782L118.664 27.1984C117.851 26.8396 117.198 26.1944 116.83 25.386L116.814 25.3496L116.724 25.5286C116.369 26.2225 115.799 26.7829 115.098 27.1257L114.845 27.2516H114.862C115.694 27.5902 116.371 28.2252 116.76 29.0333L116.814 29.1396Z" fill="#F8AB74"/>
<path d="M8.66455 61.2523C9.41879 59.5386 10.8115 58.1845 12.5483 57.4763L12.6015 57.4539L12.366 57.3476C10.7332 56.6253 9.42579 55.3263 8.6954 53.7003L8.66175 53.6276L8.47948 53.9856C7.76919 55.3726 6.62812 56.4931 5.2267 57.1798L4.72477 57.4288H4.75561C6.42228 58.1054 7.77675 59.3767 8.55519 60.995L8.66455 61.2523Z" fill="#FE814B"/>
<path d="M13.6167 63.5682C13.9953 62.7119 14.6918 62.0353 15.5599 61.6802H15.5851L15.4674 61.6271C14.6537 61.2694 14.0008 60.6251 13.6335 59.8174L13.6167 59.781L13.5269 59.96C13.1715 60.6533 12.601 61.2135 11.9005 61.5571L11.6482 61.6802H11.665C12.4981 62.0191 13.1749 62.6552 13.5634 63.4647L13.6167 63.5682Z" fill="#F8AB74"/>
<path d="M70.0298 122.887C69.4591 121.592 68.4065 120.568 67.0939 120.031L67.0518 120.015L67.2313 119.936C68.462 119.394 69.4493 118.418 70.0045 117.195L70.0298 117.142L70.1672 117.422C70.7038 118.471 71.5665 119.319 72.6264 119.838L73.0049 120.026H72.9825C71.7217 120.537 70.6963 121.497 70.1055 122.719L70.0298 122.887Z" fill="#FE814B"/>
<path d="M66.2835 124.649C65.9978 124.002 65.4723 123.49 64.8169 123.22H64.7973L64.8842 123.181C65.505 122.913 66.0046 122.426 66.2863 121.813V121.785L66.3564 121.919C66.6241 122.444 67.055 122.868 67.5846 123.128L67.7752 123.22C67.1455 123.476 66.6338 123.956 66.3395 124.568L66.2835 124.649Z" fill="#F8AB74"/>
</svg>
