<svg width="124" height="69" viewBox="0 0 124 69" fill="none" xmlns="http://www.w3.org/2000/svg">
<g clip-path="url(#clip0_1211_2848)">
<path d="M118.431 37.804C119.416 38.4357 120.534 39.0782 121.676 38.8641C122.702 38.6737 123.513 37.7932 123.82 36.798C124.128 35.8028 123.996 34.7103 123.665 33.7216C123.301 32.6311 122.708 31.6309 121.926 30.7882C121.145 29.9454 120.192 29.2795 119.131 28.8352C118.071 28.3908 116.928 28.1782 115.779 28.2117C114.63 28.2451 113.501 28.5238 112.469 29.0291C106.608 31.8956 115.876 36.1619 118.431 37.804Z" fill="#E5F7F9"/>
<path d="M38.066 42.7237C44.9392 47.4509 52.044 52.3359 59.8908 55.421C70.5825 59.6202 83.1868 60.7279 97.3551 58.7094C105.299 57.578 113.122 55.5746 120.8 53.2814C120.823 51.4458 120.572 49.6171 120.056 47.8554C114.344 49.7265 108.37 50.6794 102.359 50.6787C96.0908 50.6897 89.8663 49.6333 83.9526 47.5547C75.1431 44.435 67.2335 39.1173 59.5857 33.9618C56.8165 32.0991 53.9608 30.1714 51.092 28.3779C41.4431 22.3333 32.785 18.8956 24.8776 17.9934C23.8197 20.0227 22.6233 21.9136 21.0742 23.415C18.4781 25.9397 15.1204 27.1405 11.8774 28.5467C19.7675 30.8767 27.0216 35.2642 33.2955 39.4786C34.8965 40.5365 36.5126 41.6528 38.066 42.7237Z" fill="#E5F7F9"/>
<path d="M51.3213 28.0123C54.19 29.8079 57.0544 31.7377 59.8258 33.6026C67.4541 38.7365 75.3398 44.0434 84.0975 47.1458C95.5875 51.2174 108.378 51.2347 119.924 47.44C119.342 45.5844 118.363 43.8777 117.055 42.4381C113.953 39.1107 109.267 37.8949 106.597 34.137C104.252 30.8269 103.971 26.2274 102.032 22.6036C99.6094 18.0799 94.8585 15.6525 90.1746 14.9926C85.4907 14.3328 80.7614 15.17 76.0689 15.7347C71.3764 16.2994 66.5087 16.5633 62.052 14.8304C57.2729 12.972 53.4328 9.01072 49.1578 5.99056C44.8829 2.97039 39.4418 0.856701 34.8207 3.15428C29.7777 5.66171 27.8977 12.0677 25.0852 17.578C33.0186 18.5212 41.6831 21.9741 51.3213 28.0123Z" fill="#E5F7F9"/>
<path d="M97.4155 59.1422C93.0084 59.7829 88.5615 60.1112 84.1081 60.1244C75.1774 60.1244 67.0169 58.6901 59.7326 55.8278C51.8403 52.7254 44.714 47.8231 37.8212 43.0851C36.2635 42.0142 34.6539 40.9065 33.0616 39.84C26.6773 35.5585 19.2848 31.0953 11.2563 28.8215C9.32432 29.6869 7.45077 30.654 5.81737 32.0667C0.465005 36.6878 -1.13377 45.3892 0.772226 52.6389C2.48784 59.1552 6.57024 64.5768 11.3558 68.828H114.567C117.295 65.4097 119.53 61.4484 120.422 57.0026C120.635 55.933 120.758 54.8475 120.792 53.7574C113.139 56.0182 105.34 58.0086 97.4155 59.1422Z" fill="#E5F7F9"/>
<path d="M104.555 44.1647C104.987 44.1647 105.338 43.8141 105.338 43.3816C105.338 42.949 104.987 42.5984 104.555 42.5984C104.122 42.5984 103.772 42.949 103.772 43.3816C103.772 43.8141 104.122 44.1647 104.555 44.1647Z" fill="white"/>
<path d="M108.071 44.1647C108.503 44.1647 108.854 43.8141 108.854 43.3816C108.854 42.949 108.503 42.5984 108.071 42.5984C107.638 42.5984 107.287 42.949 107.287 43.3816C107.287 43.8141 107.638 44.1647 108.071 44.1647Z" fill="white"/>
<path d="M111.586 44.1647C112.019 44.1647 112.369 43.8141 112.369 43.3816C112.369 42.949 112.019 42.5984 111.586 42.5984C111.154 42.5984 110.803 42.949 110.803 43.3816C110.803 43.8141 111.154 44.1647 111.586 44.1647Z" fill="white"/>
<path d="M94.9254 39.4547C94.9254 39.4547 94.1444 35.2187 96.6561 31.4002C99.1679 27.5817 103.646 24.5421 104.114 25.2257C104.581 25.9094 98.4734 38.5201 94.9254 39.4547Z" fill="#B4EFFF"/>
<path d="M84.6902 49.941C84.6902 49.941 87.9051 48.3725 91.5224 49.5342C95.1396 50.696 98.5687 53.5972 98.1274 54.1251C97.686 54.653 86.2197 52.5717 84.6902 49.941Z" fill="#B4EFFF"/>
<path d="M92.5608 42.9618C92.5608 42.9618 94.2201 39.7923 93.1644 36.1426C92.1086 32.4929 89.307 28.9816 88.7661 29.4078C88.2253 29.834 89.9733 41.3543 92.5608 42.9618Z" fill="#B4EFFF"/>
<path d="M92.5154 43.0438C92.5154 43.0438 95.6307 44.4262 99.0338 43.1974C102.437 41.9686 103.737 39.6299 103.298 39.1431C102.859 38.6563 93.8827 40.4866 92.5154 43.0438Z" fill="#B4EFFF"/>
<path d="M88.9632 46.977C88.9632 46.977 86.2459 44.9196 85.6769 41.352C85.1079 37.7845 86.5272 35.5107 87.1654 35.66C87.8036 35.8093 90.5425 44.5453 88.9632 46.977Z" fill="#B4EFFF"/>
<path d="M84.9002 50.0556C84.9002 50.0556 82.263 47.8922 81.826 44.3073C81.389 40.7225 82.8926 38.5006 83.5243 38.6716C84.156 38.8425 86.5683 47.6866 84.9002 50.0556Z" fill="#B4EFFF"/>
<path d="M80.6944 52.3553C80.6944 52.3553 78.1264 50.1118 77.8083 46.514C77.4903 42.9162 79.0631 40.7441 79.6884 40.9366C80.3136 41.1292 82.4381 50.0382 80.6944 52.3553Z" fill="#B4EFFF"/>
<path d="M88.8052 46.8819C88.8052 46.8819 91.3343 49.1665 94.9515 49.0584C98.5688 48.9502 100.533 47.1329 100.267 46.5358C100.001 45.9387 90.9016 44.8786 88.8052 46.8819Z" fill="#B4EFFF"/>
<path d="M80.4543 52.2795C80.4543 52.2795 82.0899 55.2716 85.5384 56.362C88.987 57.4523 91.4425 56.3857 91.3797 55.7324C91.317 55.079 83.0937 51.0788 80.4543 52.2795Z" fill="#B4EFFF"/>
<path d="M98.281 33.7693L103.517 25.9635C103.525 25.9518 103.531 25.9385 103.534 25.9245C103.537 25.9105 103.537 25.896 103.534 25.8819C103.532 25.8679 103.526 25.8544 103.518 25.8424C103.51 25.8304 103.5 25.8201 103.488 25.8121C103.464 25.7963 103.435 25.7907 103.407 25.7963C103.378 25.802 103.353 25.8185 103.337 25.8424L98.1015 33.6503C97.3632 34.7593 96.7053 35.9197 96.1327 37.1226C95.1839 39.0922 94.0271 40.9547 92.682 42.6783C91.9638 40.7053 91.5116 38.611 91.0746 36.5817C90.6138 34.4356 90.1378 32.2159 89.3438 30.1303C89.3395 30.1161 89.3323 30.1029 89.3226 30.0916C89.313 30.0803 89.3011 30.0711 89.2877 30.0645C89.2743 30.058 89.2597 30.0543 89.2449 30.0537C89.23 30.0531 89.2152 30.0556 89.2013 30.0609C89.1874 30.0663 89.1748 30.0745 89.1642 30.0849C89.1536 30.0954 89.1453 30.108 89.1398 30.1218C89.1343 30.1356 89.1318 30.1504 89.1322 30.1653C89.1327 30.1802 89.1363 30.1948 89.1426 30.2082C89.9323 32.2765 90.4083 34.4897 90.8734 36.6272C91.3191 38.7062 91.782 40.8567 92.5327 42.8817C91.468 44.2277 90.2952 45.4845 89.0258 46.6396C87.4368 43.3482 86.755 39.6924 87.0506 36.0495C87.0518 36.0353 87.0501 36.021 87.0457 36.0074C87.0414 35.9938 87.0344 35.9813 87.0251 35.9704C87.0159 35.9595 87.0046 35.9506 86.9919 35.9442C86.9792 35.9377 86.9653 35.9338 86.9511 35.9327C86.9368 35.9312 86.9224 35.9326 86.9087 35.9369C86.895 35.9411 86.8823 35.9481 86.8713 35.9574C86.8604 35.9667 86.8515 35.9782 86.8451 35.991C86.8387 36.0039 86.835 36.0179 86.8342 36.0322C86.5348 39.7355 87.2333 43.4514 88.857 46.7932C87.6733 47.8537 86.4114 48.8235 85.0818 49.6944C84.4804 48.5889 84.2035 47.3384 83.9374 46.1269C83.4657 43.9634 82.9314 41.523 83.4333 39.2146C83.4385 39.1863 83.4327 39.1571 83.417 39.1329C83.4013 39.1088 83.3769 39.0916 83.3489 39.0848C83.335 39.082 83.3207 39.0819 83.3067 39.0846C83.2928 39.0873 83.2795 39.0927 83.2676 39.1006C83.2558 39.1084 83.2456 39.1185 83.2376 39.1303C83.2297 39.1421 83.2241 39.1553 83.2213 39.1692C82.7107 41.523 83.2516 43.9937 83.7275 46.1723C83.9958 47.4054 84.2771 48.6797 84.9001 49.8134C83.5882 50.6601 82.2141 51.4064 80.7896 52.046C79.623 48.7006 79.1806 45.1454 79.4915 41.6161C79.4939 41.5877 79.485 41.5595 79.4668 41.5377C79.4486 41.5158 79.4225 41.502 79.3941 41.4992C79.3655 41.4968 79.3371 41.5056 79.3149 41.5238C79.2927 41.542 79.2784 41.5681 79.2752 41.5966C78.9615 45.162 79.4092 48.7533 80.5884 52.1326C78.8996 52.8806 77.1456 53.4715 75.3485 53.8979C75.3207 53.9046 75.2967 53.922 75.2817 53.9463C75.2667 53.9707 75.262 53.9999 75.2685 54.0278C75.2739 54.0518 75.2874 54.0732 75.3066 54.0886C75.3259 54.1039 75.3498 54.1122 75.3745 54.1121H75.3983C77.185 53.6889 78.9294 53.1038 80.61 52.3641C81.8778 53.3268 83.4225 54.0732 85.3133 54.6422C87.0104 55.1128 88.7342 55.4812 90.4753 55.7455H90.4948C90.5235 55.7478 90.5519 55.7386 90.5738 55.72C90.5957 55.7013 90.6093 55.6747 90.6116 55.646C90.6139 55.6173 90.6047 55.5889 90.5861 55.567C90.5674 55.5451 90.5408 55.5315 90.5121 55.5292C88.7797 55.2667 87.0646 54.9004 85.3761 54.4323C83.7469 53.9822 82.2092 53.25 80.8328 52.2689C82.2754 51.6222 83.6668 50.8671 84.9953 50.0102C86.2177 50.6182 87.6044 50.7761 88.9458 50.9297L89.1621 50.9535C90.624 51.0922 92.0715 51.355 93.489 51.7388C94.9015 52.1216 96.2189 52.7943 97.3572 53.7141C97.3775 53.7301 97.4028 53.7385 97.4286 53.7378C97.4441 53.7377 97.4594 53.7344 97.4736 53.7281C97.4877 53.7217 97.5004 53.7125 97.5108 53.7011C97.5291 53.6788 97.5381 53.6503 97.5356 53.6216C97.5332 53.5929 97.5196 53.5663 97.4979 53.5475C96.3351 52.61 94.9908 51.9235 93.5496 51.5311C92.1209 51.1435 90.6618 50.8786 89.1881 50.7393L88.9717 50.7134C87.691 50.5684 86.3756 50.4148 85.2117 49.8696C86.5773 48.9682 87.8719 47.9636 89.0842 46.8646C92.5837 48.0957 96.3877 48.161 99.9274 47.0506C99.941 47.0467 99.9537 47.0401 99.9647 47.0311C99.9757 47.0222 99.9848 47.0112 99.9914 46.9986C99.9981 46.9861 100.002 46.9724 100.003 46.9583C100.005 46.9442 100.003 46.93 99.9988 46.9165C99.9946 46.9028 99.9878 46.8901 99.9786 46.8791C99.9695 46.8681 99.9582 46.859 99.9455 46.8524C99.9329 46.8457 99.919 46.8417 99.9047 46.8404C99.8905 46.8392 99.8761 46.8408 99.8625 46.8451C96.4035 47.9283 92.6887 47.876 89.2616 46.6958C90.506 45.5521 91.6577 44.3114 92.7058 42.9855C96.2844 42.6479 99.7352 41.482 102.785 39.5803C102.798 39.573 102.808 39.5632 102.817 39.5517C102.825 39.5401 102.831 39.527 102.835 39.513C102.838 39.4991 102.838 39.4846 102.836 39.4705C102.833 39.4564 102.828 39.443 102.82 39.431C102.813 39.4187 102.803 39.4081 102.792 39.3996C102.781 39.3912 102.768 39.3852 102.754 39.3819C102.74 39.3787 102.726 39.3783 102.712 39.3808C102.698 39.3833 102.685 39.3886 102.673 39.3964C99.7091 41.2429 96.3632 42.389 92.8897 42.7476C94.2233 41.0292 95.372 39.1749 96.3166 37.2156C96.8882 36.0213 97.5447 34.8696 98.281 33.7693Z" fill="#7EC5D9"/>
<path d="M12.7859 42.8059C12.7859 42.8059 8.6581 41.5792 6.39513 37.6136C4.13217 33.648 3.455 28.274 4.27495 28.168C5.09489 28.062 13.5799 39.2254 12.7859 42.8059Z" fill="#B4EFFF"/>
<path d="M16.8532 47.8554C16.8532 47.8554 12.905 49.5861 8.61485 47.9982C4.32474 46.4102 1.60528 43.2494 2.16345 42.6393C2.72161 42.0292 15.1463 44.6124 16.8532 47.8554Z" fill="#B4EFFF"/>
<path d="M16.9571 47.9138C16.9571 47.9138 19.1942 44.236 18.2033 39.7706C17.2124 35.3053 14.4411 32.1856 13.7617 32.6572C13.0824 33.1288 13.9738 45.7872 16.9571 47.9138Z" fill="#B4EFFF"/>
<path d="M20.4014 51.7257C20.4014 51.7257 23.1165 48.3832 22.7422 43.827C22.368 39.2708 20.0444 35.8006 19.3067 36.1749C18.569 36.5491 17.7339 49.214 20.4014 51.7257Z" fill="#B4EFFF"/>
<path d="M26.1538 56.0549C26.1538 56.0549 28.8711 52.7123 28.4947 48.1561C28.1182 43.5999 25.7969 40.1319 25.0591 40.5062C24.3214 40.8805 23.4863 53.5431 26.1538 56.0549Z" fill="#B4EFFF"/>
<path d="M20.4813 51.6501C20.4813 51.6501 17.3984 54.5059 13.1581 54.3415C8.9177 54.177 5.6747 52.0244 6.01869 51.2737C6.36267 50.523 18.1232 49.1124 20.4813 51.6501Z" fill="#B4EFFF"/>
<path d="M26.3659 55.9617C26.3659 55.9617 23.9385 59.3929 19.7566 60.109C15.5747 60.8251 11.9531 59.3886 12.1326 58.5816C12.3122 57.7747 23.5318 53.967 26.3659 55.9617Z" fill="#B4EFFF"/>
<path d="M40.5668 59.3585C38.7495 59.5392 36.9164 59.4788 35.1149 59.179C32.0645 58.6771 28.9881 57.4807 26.0285 55.6655C26.0285 55.6655 26.0285 55.6655 26.0285 55.6526C26.6607 50.8907 26.5255 46.0583 25.6282 41.3392C25.6231 41.3105 25.6067 41.2851 25.5828 41.2684C25.5588 41.2518 25.5293 41.2453 25.5006 41.2505C25.4719 41.2557 25.4464 41.272 25.4298 41.296C25.4132 41.3199 25.4067 41.3495 25.4119 41.3782C26.2998 46.047 26.4386 50.8275 25.8229 55.5401C24.125 54.4787 22.5224 53.272 21.0331 51.9336C20.7835 51.7115 20.5377 51.485 20.2953 51.2543C21.4325 46.6096 21.2784 41.7424 19.8497 37.1789C19.8454 37.1647 19.8384 37.1515 19.829 37.14C19.8196 37.1285 19.8081 37.1189 19.795 37.1119C19.782 37.1049 19.7677 37.1005 19.7529 37.099C19.7381 37.0975 19.7232 37.0989 19.709 37.1032C19.6948 37.1074 19.6816 37.1145 19.6701 37.1238C19.6586 37.1332 19.6491 37.1448 19.6421 37.1578C19.635 37.1709 19.6306 37.1852 19.6291 37.1999C19.6276 37.2147 19.6291 37.2296 19.6333 37.2438C21.0397 41.7316 21.2027 46.5168 20.105 51.0899C18.8378 49.8763 17.6334 48.5989 16.4963 47.2627C17.061 45.3935 17.0069 43.1781 16.3319 40.4955C16.0874 39.5262 15.7845 38.5484 15.4925 37.6159C15.1182 36.4174 14.7331 35.1799 14.467 33.9381C14.4603 33.9101 14.4431 33.8857 14.4189 33.87C14.3948 33.8543 14.3655 33.8485 14.3372 33.8537C14.3093 33.8604 14.2851 33.8777 14.2698 33.9019C14.2544 33.9262 14.2491 33.9554 14.255 33.9835C14.5233 35.2383 14.904 36.4823 15.287 37.6851C15.579 38.6219 15.8797 39.589 16.1221 40.5539C16.7711 43.1327 16.8382 45.2659 16.3384 47.068C14.5752 44.9889 13.0024 42.8644 11.6026 40.9022C11.0306 40.0985 10.4991 39.2667 10.0103 38.4099L4.67526 29.0573C4.66038 29.034 4.63716 29.0173 4.61032 29.0106C4.58348 29.0038 4.55509 29.0077 4.53099 29.0212C4.50688 29.0348 4.4889 29.0571 4.48073 29.0835C4.47256 29.11 4.47481 29.1385 4.48704 29.1633L9.8221 38.5159C10.314 39.38 10.8498 40.2184 11.4274 41.0277C12.8228 42.9856 14.3913 45.1036 16.1523 47.1827C11.521 46.5148 6.98786 45.287 2.65244 43.5265C2.62573 43.5156 2.59583 43.5156 2.56915 43.5265C2.54246 43.5375 2.5211 43.5584 2.50965 43.5849C2.50438 43.5981 2.50177 43.6122 2.50196 43.6264C2.50216 43.6406 2.50516 43.6547 2.51078 43.6677C2.51641 43.6808 2.52456 43.6926 2.53476 43.7025C2.54496 43.7124 2.55701 43.7202 2.57023 43.7255C6.99285 45.5242 11.621 46.769 16.3492 47.4315H16.3622C17.5253 48.797 18.7587 50.1012 20.0573 51.3386C19.4235 51.8022 18.7111 52.1475 17.9545 52.3576C16.7689 52.6886 15.4817 52.6757 14.3718 52.6367C11.6964 52.5456 9.0304 52.2695 6.39305 51.8103C6.37884 51.8079 6.36429 51.8083 6.35024 51.8115C6.33619 51.8147 6.32293 51.8206 6.31118 51.829C6.29943 51.8373 6.28943 51.8479 6.28176 51.8601C6.27409 51.8723 6.26888 51.8859 6.26647 51.9001C6.26405 51.9143 6.26448 51.9288 6.26768 51.9429C6.27089 51.9569 6.27683 51.9702 6.28517 51.9819C6.2935 51.9937 6.30408 52.0037 6.31628 52.0114C6.32848 52.019 6.34205 52.0242 6.35626 52.0266C9.00211 52.4881 11.6768 52.7657 14.361 52.8574C15.4882 52.8963 16.7949 52.9093 18.0086 52.5718C18.1319 52.5372 18.2531 52.5004 18.3742 52.4593C19.0337 52.2338 19.6546 51.9084 20.2153 51.4944C20.4316 51.7108 20.661 51.9076 20.8881 52.111C22.3687 53.4424 23.9611 54.6439 25.6477 55.7023C24.0061 56.6458 22.2283 57.3296 20.3776 57.7295C18.4795 58.1346 16.5549 58.4036 14.6185 58.5343C13.7942 58.6013 13.1041 58.6468 12.4031 58.6468C12.3744 58.6468 12.3469 58.6582 12.3266 58.6784C12.3063 58.6987 12.2949 58.7262 12.2949 58.7549C12.2949 58.7836 12.3063 58.8111 12.3266 58.8314C12.3469 58.8517 12.3744 58.8631 12.4031 58.8631C13.1084 58.8631 13.805 58.8177 14.6358 58.7506C16.5825 58.6195 18.5173 58.3484 20.4251 57.9393C21.1509 57.7743 21.8679 57.5729 22.5734 57.3357C23.7181 56.9543 24.8184 56.451 25.8554 55.8343C28.8647 57.6819 31.9866 58.8999 35.0825 59.4105C36.9025 59.7132 38.7546 59.7743 40.5906 59.5922H40.6144C40.6431 59.5862 40.6682 59.569 40.6843 59.5444C40.7003 59.5199 40.7059 59.49 40.6999 59.4613C40.6938 59.4326 40.6767 59.4075 40.6521 59.3915C40.6276 59.3754 40.5977 59.3698 40.569 59.3758L40.5668 59.3585Z" fill="#7EC5D9"/>
<path d="M92.3619 20.1049C92.3619 20.1049 90.6311 16.1588 92.2147 11.8687C93.7984 7.5786 97.4546 3.59786 98.056 4.15602C98.6575 4.71419 95.6027 18.398 92.3619 20.1049Z" fill="#8EE4FD"/>
<path d="M90.999 25.0527C90.999 25.0527 95.3021 25.2691 98.7507 22.2597C102.199 19.2504 103.618 15.3367 102.881 14.9603C102.143 14.5838 91.4447 21.4138 90.999 25.0527Z" fill="#8EE4FD"/>
<path d="M88.9823 31.6489C88.9823 31.6489 84.7009 31.188 81.7586 27.6897C78.8163 24.1915 78.0223 20.0917 78.8098 19.8386C79.5973 19.5855 89.1078 27.9883 88.9823 31.6489Z" fill="#8EE4FD"/>
<path d="M78.2215 49.242C78.2215 49.242 74.4225 47.2149 73.0033 42.8685C71.5841 38.5221 72.3802 34.4311 73.2045 34.4851C74.0288 34.5392 79.7078 45.893 78.2215 49.242Z" fill="#8EE4FD"/>
<path d="M82.2888 44.5864C82.2888 44.5864 86.2458 46.2825 90.5251 44.6751C94.8044 43.0677 97.5043 39.8809 96.9418 39.2665C96.3793 38.6521 83.972 41.3326 82.2888 44.5864Z" fill="#8EE4FD"/>
<path d="M88.8484 31.7116C88.8484 31.7116 92.1606 32.5164 95.289 30.7012C98.4173 28.8861 99.2784 26.3506 98.7505 25.9417C98.2226 25.5328 89.7332 28.9532 88.8484 31.7116Z" fill="#8EE4FD"/>
<path d="M91.1006 24.9336C91.1006 24.9336 87.8749 23.8302 86.2134 20.6175C84.5519 17.4048 85.1858 14.8044 85.8391 14.7459C86.4925 14.6875 91.8362 22.1276 91.1006 24.9336Z" fill="#8EE4FD"/>
<path d="M85.6876 39.3638C85.6876 39.3638 82.4619 38.2626 80.8003 35.0499C79.1388 31.8372 79.7727 29.2345 80.4261 29.1761C81.0794 29.1177 86.421 36.56 85.6876 39.3638Z" fill="#8EE4FD"/>
<path d="M82.6221 44.5562C82.6221 44.5562 79.3964 43.455 77.7349 40.2423C76.0733 37.0295 76.7094 34.4269 77.3606 34.3685C78.0118 34.3101 83.3577 41.7523 82.6221 44.5562Z" fill="#8EE4FD"/>
<path d="M85.4604 39.3637C87.8109 39.8402 90.2536 39.499 92.3835 38.3967C95.8883 36.5534 97.076 33.9357 96.5719 33.5138C96.0678 33.0919 86.7044 36.5102 85.4604 39.3637Z" fill="#8EE4FD"/>
<path d="M78.1567 49.3243C80.163 50.6348 82.5565 51.2209 84.9413 50.9858C88.8788 50.5682 90.9514 48.5736 90.6377 47.9959C90.324 47.4183 80.3635 47.1327 78.1567 49.3243Z" fill="#8EE4FD"/>
<path d="M102.442 15.7521C102.43 15.7436 102.417 15.7374 102.403 15.7339C102.39 15.7303 102.375 15.7295 102.361 15.7316C102.347 15.7336 102.334 15.7383 102.322 15.7456C102.309 15.7528 102.299 15.7624 102.29 15.7737C99.412 19.594 95.6172 22.6269 91.2565 24.5919V24.579C91.2652 24.5677 91.2716 24.5548 91.2753 24.5411C91.279 24.5274 91.28 24.513 91.2781 24.4989C91.8255 22.5518 92.3361 20.5636 92.8423 18.5667C93.1134 17.4901 93.4434 16.4291 93.831 15.3886L97.6538 5.13608C97.659 5.12274 97.6615 5.10849 97.6612 5.09417C97.6609 5.07985 97.6577 5.06573 97.6518 5.05265C97.646 5.03957 97.6376 5.02778 97.6272 5.01796C97.6167 5.00814 97.6045 5.00049 97.5911 4.99546C97.5638 4.98621 97.534 4.98778 97.5078 4.99986C97.4816 5.01193 97.4611 5.03359 97.4504 5.06036L93.6276 15.3129C93.2359 16.3609 92.903 17.4298 92.6303 18.5148C92.137 20.4619 91.6394 22.3896 91.1159 24.2977C88.7188 21.9398 86.9816 18.9949 86.0772 15.7564C86.0735 15.7429 86.0671 15.7302 86.0584 15.7191C86.0497 15.7081 86.0389 15.6989 86.0266 15.692C86.0143 15.6852 86.0008 15.6808 85.9869 15.6793C85.9729 15.6777 85.9587 15.6789 85.9452 15.6829C85.9178 15.6905 85.8944 15.7086 85.8802 15.7333C85.8661 15.758 85.8622 15.7873 85.8695 15.8148C86.7936 19.125 88.5785 22.1311 91.0423 24.527C90.4106 26.7857 89.7313 29.0075 88.9611 31.184C86.9803 30.233 85.2075 28.8992 83.745 27.2595C82.7907 26.1491 81.9228 24.9673 81.1489 23.7244C80.6167 22.9045 80.0909 22.065 79.5825 21.2299C79.575 21.2179 79.5652 21.2074 79.5536 21.1991C79.5421 21.1908 79.529 21.1849 79.5151 21.1816C79.5012 21.1784 79.4869 21.178 79.4728 21.1803C79.4588 21.1827 79.4453 21.1878 79.4333 21.1953C79.4211 21.2025 79.4104 21.212 79.402 21.2233C79.3935 21.2346 79.3873 21.2474 79.3839 21.2611C79.3805 21.2748 79.3798 21.2891 79.382 21.3031C79.3841 21.317 79.3891 21.3304 79.3965 21.3424C79.9071 22.1797 80.4349 23.0191 80.9671 23.8412C81.7414 25.0927 82.6093 26.2839 83.5633 27.4044C85.0517 29.0687 86.8546 30.4223 88.8681 31.3873C88.8605 31.4098 88.8605 31.4341 88.8681 31.4565C88.0045 33.9039 86.9856 36.2936 85.8176 38.6111C85.7635 38.7171 85.7051 38.8274 85.651 38.9334C84.1334 37.897 82.9109 36.4843 82.103 34.8337C81.3609 33.3885 80.8049 31.6967 80.3722 29.5116C80.3694 29.4977 80.3638 29.4845 80.3559 29.4727C80.3479 29.4609 80.3377 29.4508 80.3259 29.443C80.314 29.4351 80.3007 29.4297 80.2868 29.427C80.2728 29.4243 80.2585 29.4244 80.2446 29.4272C80.2305 29.4298 80.2171 29.4352 80.2052 29.4431C80.1933 29.4509 80.183 29.4611 80.1752 29.4731C80.1673 29.485 80.1619 29.4984 80.1593 29.5124C80.1567 29.5265 80.157 29.5409 80.1602 29.5549C80.608 31.7594 81.1662 33.4686 81.9169 34.9332C82.8429 36.7354 84.0998 38.1784 85.5558 39.1281C84.6958 40.7667 83.7341 42.3498 82.6763 43.8682C80.1423 41.3695 78.3124 38.2463 77.3715 34.8142C77.3678 34.8 77.3614 34.7867 77.3525 34.775C77.3437 34.7633 77.3326 34.7534 77.3199 34.746C77.3073 34.7385 77.2933 34.7337 77.2788 34.7316C77.2642 34.7296 77.2494 34.7305 77.2352 34.7342C77.221 34.7379 77.2077 34.7443 77.196 34.7532C77.1843 34.762 77.1744 34.7731 77.167 34.7857C77.1595 34.7984 77.1546 34.8124 77.1526 34.8269C77.1506 34.8415 77.1515 34.8563 77.1552 34.8705C78.1089 38.3522 79.9675 41.5194 82.5421 44.05C81.29 45.8314 79.8802 47.4968 78.3299 49.0259C76.6713 45.7583 75.2379 42.3813 74.0398 38.9183C73.6417 37.7673 73.2502 36.5385 73.2155 35.2988C73.2134 35.2705 73.2005 35.2441 73.1797 35.2248C73.1588 35.2056 73.1314 35.1949 73.103 35.195C73.0747 35.1961 73.048 35.2083 73.0286 35.2289C73.0091 35.2496 72.9986 35.277 72.9992 35.3053C73.0338 36.5753 73.4319 37.8214 73.8343 38.9832C75.0403 42.4775 76.486 45.8843 78.1612 49.1795C75.8329 51.4657 73.1242 53.3289 70.1564 54.6855C70.1277 54.6915 70.1026 54.7087 70.0866 54.7332C70.0706 54.7577 70.0649 54.7877 70.071 54.8163C70.077 54.845 70.0942 54.8702 70.1187 54.8862C70.1433 54.9022 70.1732 54.9078 70.2018 54.9018C70.2161 54.905 70.2309 54.905 70.2451 54.9018C73.2081 53.5438 75.9146 51.6848 78.2455 49.4067C79.7232 49.8276 81.2524 50.0402 82.7888 50.0384C85.4643 50.042 88.1017 49.4039 90.4798 48.1778C90.4924 48.1714 90.5037 48.1626 90.5128 48.1518C90.522 48.141 90.5289 48.1284 90.5331 48.1149C90.5374 48.1014 90.5388 48.0872 90.5375 48.0731C90.5361 48.059 90.532 48.0453 90.5253 48.0329C90.5115 48.0076 90.4884 47.9887 90.4609 47.9802C90.4334 47.9718 90.4037 47.9743 90.3781 47.9874C86.6929 49.8805 82.4322 50.3243 78.4359 49.2314C79.9775 47.7162 81.3813 46.0669 82.6309 44.3031C82.8409 44.3686 83.0598 44.4014 83.2799 44.4004C83.6845 44.3865 84.0861 44.3248 84.4762 44.2165C88.6906 43.1738 92.6974 41.324 96.5526 39.5349C96.5671 39.5301 96.5804 39.5222 96.5917 39.5119C96.6029 39.5016 96.6119 39.489 96.6179 39.475C96.624 39.461 96.627 39.4458 96.6268 39.4306C96.6265 39.4153 96.6231 39.4003 96.6166 39.3864C96.6102 39.3726 96.6009 39.3603 96.5893 39.3503C96.5777 39.3403 96.5642 39.3329 96.5496 39.3285C96.5349 39.3241 96.5196 39.3229 96.5044 39.3249C96.4893 39.3269 96.4747 39.3321 96.4617 39.3401C92.6065 41.1228 88.6192 42.9682 84.4243 44.0067C83.8683 44.143 83.2864 44.2598 82.7563 44.1149C83.8454 42.5622 84.834 40.9413 85.7159 39.2623H85.7397C90.0666 38.1091 93.5649 36.3027 96.1567 33.8926C96.1668 33.8825 96.1749 33.8706 96.1804 33.8574C96.1859 33.8442 96.1887 33.8301 96.1887 33.8158C96.1887 33.8015 96.1859 33.7874 96.1804 33.7742C96.1749 33.761 96.1668 33.749 96.1567 33.739C96.1468 33.7289 96.135 33.7209 96.122 33.7154C96.109 33.71 96.0951 33.7072 96.081 33.7072C96.0669 33.7072 96.0529 33.71 96.0399 33.7154C96.0269 33.7209 96.0151 33.7289 96.0053 33.739C93.474 36.0928 90.0558 37.8668 85.8371 39.0113L85.9928 38.7106C87.1765 36.3689 88.2091 33.9539 89.0844 31.4803C92.2941 30.0107 95.402 28.3281 98.3872 26.4438C98.4113 26.4283 98.4282 26.4039 98.4343 26.3759C98.4404 26.3479 98.4351 26.3187 98.4197 26.2946C98.4124 26.2823 98.4026 26.2715 98.3911 26.2631C98.3795 26.2546 98.3664 26.2486 98.3524 26.2454C98.3385 26.2421 98.324 26.2418 98.3099 26.2443C98.2958 26.2468 98.2824 26.2521 98.2704 26.26C95.3532 28.1026 92.3178 29.7511 89.1839 31.1948C89.9173 29.12 90.5685 27.002 91.1743 24.8537C91.1857 24.8558 91.1974 24.8558 91.2089 24.8537C95.6574 22.876 99.529 19.7981 102.459 15.91C102.468 15.8986 102.475 15.8854 102.48 15.8712C102.484 15.857 102.485 15.8421 102.484 15.8274C102.482 15.8126 102.478 15.7984 102.47 15.7854C102.463 15.7725 102.453 15.7612 102.442 15.7521Z" fill="#76D3ED"/>
<path d="M78.1156 7.86833L63.64 4.94551C63.5182 4.9209 63.3928 4.92051 63.2709 4.94437C63.149 4.96824 63.033 5.01589 62.9296 5.0846C62.8261 5.15331 62.7372 5.24174 62.6679 5.34483C62.5986 5.44792 62.5503 5.56365 62.5258 5.68541L60.5549 15.4404C60.5303 15.5621 60.5299 15.6875 60.5538 15.8094C60.5776 15.9313 60.6253 16.0473 60.694 16.1508C60.7627 16.2542 60.8511 16.3432 60.9542 16.4124C61.0573 16.4817 61.173 16.53 61.2948 16.5546L66.7748 17.6601L68.2394 19.4644L70.2882 18.3697L75.7682 19.4774C75.89 19.502 76.0154 19.5024 76.1373 19.4785C76.2592 19.4546 76.3752 19.407 76.4786 19.3383C76.5821 19.2696 76.671 19.1811 76.7403 19.0781C76.8096 18.975 76.8579 18.8592 76.8824 18.7375L78.8555 8.97601C78.9027 8.73116 78.8515 8.47757 78.713 8.27022C78.5745 8.06287 78.3598 7.91847 78.1156 7.86833Z" fill="#FD6E74"/>
<path d="M69.981 10.5769C69.981 10.5769 69.9962 9.13175 68.233 9.09713C67.8931 9.08271 67.5575 9.17769 67.2756 9.36811C66.9936 9.55853 66.7802 9.83436 66.6666 10.1551C66.4237 10.7321 66.4075 11.3795 66.6212 11.968C67.0798 13.22 67.8347 14.3424 68.8214 15.2392C68.8706 15.2861 68.9317 15.3186 68.9981 15.3331C69.0645 15.3476 69.1336 15.3436 69.1979 15.3214C69.9118 15.0812 72.244 14.1877 73.0921 12.537C73.0921 12.537 74.031 10.6115 72.0255 9.8392C72.0147 9.8392 70.4786 9.38271 69.981 10.5769Z" fill="white"/>
<path d="M55.2434 0.0216544L46.3495 2.45986C46.2747 2.48014 46.2046 2.51501 46.1433 2.56246C46.082 2.60991 46.0307 2.66901 45.9923 2.73635C45.9539 2.8037 45.9292 2.87797 45.9196 2.9549C45.91 3.03182 45.9157 3.10989 45.9363 3.18461L47.587 9.18384C47.6075 9.25847 47.6426 9.32832 47.6901 9.38939C47.7377 9.45046 47.7968 9.50154 47.8641 9.53973C47.9314 9.57791 48.0056 9.60244 48.0824 9.61191C48.1593 9.62137 48.2372 9.61559 48.3118 9.5949L51.6802 8.66894L53.0043 9.26389L53.8394 8.07616L57.2057 7.1502C57.3567 7.10825 57.4849 7.00823 57.5623 6.87202C57.6397 6.7358 57.6601 6.57447 57.6189 6.42329L55.9682 0.426221C55.9254 0.276695 55.8251 0.1502 55.6893 0.0743903C55.5535 -0.0014195 55.3932 -0.02038 55.2434 0.0216544Z" fill="#FD6E74"/>
<path d="M51.4726 3.82488C51.4726 3.82488 51.0745 3.01359 50.0815 3.49171C49.8877 3.57895 49.727 3.72606 49.623 3.91143C49.5191 4.0968 49.4773 4.31064 49.5039 4.52151C49.5319 4.91163 49.7057 5.27693 49.9907 5.54482C50.5981 6.11524 51.3355 6.52887 52.139 6.74986C52.1792 6.76183 52.222 6.76273 52.2627 6.75245C52.3035 6.74217 52.3407 6.7211 52.3705 6.69144C52.7015 6.35611 53.7507 5.20083 53.7507 4.04339C53.7507 4.04339 53.7334 2.70638 52.3986 2.84051C52.3986 2.84051 51.4121 3.02224 51.4726 3.82488Z" fill="white"/>
<path d="M18.0454 12.7901C18.0454 12.7901 17.6127 11.6933 16.2605 12.2211C15.9975 12.3167 15.7724 12.4947 15.6188 12.7287C15.4652 12.9626 15.3913 13.2399 15.4081 13.5192C15.4057 14.0315 15.5965 14.526 15.9425 14.9038C16.6823 15.7064 17.6058 16.3174 18.6338 16.6843C18.6854 16.7042 18.7415 16.7097 18.796 16.7002C18.8505 16.6906 18.9014 16.6665 18.9432 16.6302C19.4062 16.2235 20.8903 14.8173 21.0028 13.305C21.0028 13.305 21.1088 11.5548 19.3499 11.6002C19.3499 11.5937 18.0454 11.7387 18.0454 12.7901Z" fill="#E5F7F9"/>
<path d="M24.6634 8.90049C24.6634 8.90049 24.7348 8.18007 23.8586 8.08487C23.6898 8.06236 23.5183 8.09454 23.3692 8.1767C23.22 8.25886 23.1011 8.38667 23.03 8.54136C22.8842 8.81863 22.8471 9.14037 22.9261 9.44352C23.098 10.0892 23.4248 10.6833 23.8781 11.1743C23.9003 11.2001 23.9293 11.2192 23.9617 11.2295C23.9942 11.2398 24.0289 11.2409 24.0619 11.2327C24.4276 11.144 25.6304 10.8 26.1215 10.0168C26.1215 10.0168 26.6754 9.09953 25.7105 8.62574C25.7105 8.62357 24.9619 8.32934 24.6634 8.90049Z" fill="#E5F7F9"/>
<path d="M18.4348 3.35552C18.4348 3.35552 18.1211 2.70649 17.3228 3.08293C17.1673 3.15202 17.038 3.26913 16.9539 3.41708C16.8698 3.56504 16.8353 3.73605 16.8555 3.90503C16.876 4.21728 17.0126 4.51056 17.2384 4.72714C17.7233 5.18641 18.3118 5.52187 18.954 5.70502C18.9864 5.715 19.0209 5.71584 19.0538 5.70744C19.0866 5.69904 19.1165 5.68173 19.1401 5.65743C19.4083 5.39132 20.2543 4.47186 20.2607 3.54374C20.2607 3.54374 20.2607 2.46202 19.179 2.57235C19.1833 2.57235 18.3915 2.71514 18.4348 3.35552Z" fill="#E5F7F9"/>
<path d="M107.4 20.0896C107.4 20.0896 107.495 19.3735 106.621 19.2502C106.453 19.2223 106.28 19.2493 106.128 19.3272C105.976 19.4051 105.853 19.5298 105.777 19.6829C105.622 19.955 105.575 20.2755 105.645 20.5807C105.799 21.2299 106.107 21.8325 106.543 22.3374C106.565 22.3638 106.593 22.3838 106.625 22.3953C106.657 22.4067 106.692 22.4092 106.725 22.4023C107.095 22.3244 108.306 22.0216 108.821 21.2514C108.821 21.2514 109.405 20.3514 108.456 19.8473C108.456 19.8451 107.716 19.5293 107.4 20.0896Z" fill="#E5F7F9"/>
</g>
<defs>
<clipPath id="clip0_1211_2848">
<rect width="124" height="68.817" fill="white"/>
</clipPath>
</defs>
</svg>
