<svg width="128" height="147" viewBox="0 0 128 147" fill="none" xmlns="http://www.w3.org/2000/svg">
<g clip-path="url(#clip0_1251_2160)">
<path d="M73.7528 29.9507L72.917 29.634L69.0812 39.7585L69.917 40.0751L73.7528 29.9507Z" fill="#263238" stroke="#263238" stroke-width="0.361773" stroke-miterlimit="10"/>
<path d="M76.6347 28.3961L71.6065 26.491C71.2481 26.3552 70.8475 26.5357 70.7117 26.8941L70.1273 28.4365C69.9915 28.7949 70.172 29.1955 70.5304 29.3313L75.5586 31.2363C75.917 31.3721 76.3176 31.1917 76.4534 30.8333L77.0378 29.2908C77.1736 28.9324 76.9931 28.5318 76.6347 28.3961Z" fill="#263238" stroke="#263238" stroke-width="0.361773" stroke-miterlimit="10"/>
<path d="M79.8197 21.4464L76.8514 26.0023" stroke="#263238" stroke-width="0.361773" stroke-miterlimit="10"/>
<path d="M78.4101 20.3311L75.4382 24.8834" stroke="#263238" stroke-width="0.361773" stroke-miterlimit="10"/>
<path d="M117.419 44.6366L113.975 51.0854" stroke="#263238" stroke-width="0.361773" stroke-miterlimit="10"/>
<path d="M118.971 45.7702L115.526 52.219" stroke="#263238" stroke-width="0.361773" stroke-miterlimit="10"/>
<path d="M68.212 26.976L65.2765 20.2837" stroke="#263238" stroke-width="0.361773" stroke-miterlimit="10"/>
<path d="M66.3663 27.4956L63.4271 20.7997" stroke="#263238" stroke-width="0.361773" stroke-miterlimit="10"/>
<path d="M22.6597 40.9743L21.7369 33.7225" stroke="#263238" stroke-width="0.361773" stroke-miterlimit="10"/>
<path d="M20.7414 40.949L19.8186 33.6973" stroke="#263238" stroke-width="0.361773" stroke-miterlimit="10"/>
<path d="M116.129 123.654C121.349 116.531 124.942 108.349 126.653 99.6854C128.363 91.022 128.151 82.0886 126.03 73.5164" stroke="#263238" stroke-width="0.361773" stroke-miterlimit="10"/>
<path d="M113.35 127.207C113.986 126.447 114.607 125.674 115.207 124.889" stroke="#263238" stroke-width="0.361773" stroke-miterlimit="10"/>
<path d="M121.197 78.2976C120.955 76.9049 120.657 75.5292 120.304 74.1704" stroke="#263238" stroke-width="0.361773" stroke-miterlimit="10"/>
<path d="M113.898 116.801C120.456 106.083 123.175 93.4533 121.608 80.986" stroke="#263238" stroke-width="0.361773" stroke-miterlimit="10"/>
<path d="M104.165 128.838C107.419 125.745 110.311 122.293 112.787 118.549" stroke="#263238" stroke-width="0.361773" stroke-miterlimit="10"/>
<path d="M4.34537 61.9593C-0.524527 73.889 -1.13778 87.1318 2.60873 99.4605" stroke="#263238" stroke-width="0.361773" stroke-miterlimit="10"/>
<path d="M7.96733 54.693C6.95243 56.4004 6.03069 58.1614 5.20615 59.9683" stroke="#263238" stroke-width="0.361773" stroke-miterlimit="10"/>
<path d="M5.11176 89.9818C5.36214 91.8604 5.71753 93.7234 6.17626 95.5623" stroke="#263238" stroke-width="0.361773" stroke-miterlimit="10"/>
<path d="M9.432 61.498C5.68764 69.592 4.10303 78.5176 4.83246 87.4059" stroke="#263238" stroke-width="0.361773" stroke-miterlimit="10"/>
<path d="M39.2669 23.9677C39.0527 23.945 38.8522 23.8514 38.6972 23.7017C38.5423 23.552 38.4418 23.3549 38.4118 23.1415C38.3817 22.9282 38.4238 22.711 38.5313 22.5243C38.6389 22.3376 38.8057 22.1922 39.0053 22.1112C42.2534 20.8069 48.7712 18.1148 50.2099 17.2646C51.169 16.7015 52.1827 12.9521 52.8585 10.4743C53.2545 9.02105 53.625 7.6332 54.0247 6.55052C55.4271 2.73574 57.2945 1.01727 65.1457 0.257947C67.1815 0.0632033 69.2262 -0.021693 71.2711 0.00362786H71.3547L78.7372 0.708454H78.8244C81.0572 1.12319 83.2638 1.66788 85.4331 2.33973C92.9754 4.694 94.4396 6.75398 95.0318 10.7759C95.2789 12.4435 94.941 14.6088 94.6176 16.7051C94.3488 18.4345 93.891 21.3374 94.4323 21.8206C95.6676 22.9468 101.499 26.9069 104.409 28.8543C104.515 28.9247 104.605 29.0152 104.676 29.1206C104.747 29.2261 104.796 29.3444 104.821 29.4689C104.846 29.5934 104.846 29.7216 104.822 29.8462C104.797 29.9707 104.748 30.0892 104.678 30.1949C104.607 30.3006 104.517 30.3914 104.411 30.4621C104.306 30.5328 104.188 30.582 104.063 30.607C103.939 30.632 103.81 30.6322 103.686 30.6076C103.561 30.583 103.443 30.5341 103.337 30.4638C102.974 30.2312 94.7811 24.7525 93.1317 23.252C91.8274 22.0676 92.2343 19.4445 92.7066 16.4072C93.0082 14.4562 93.3206 12.4362 93.1208 11.0556C92.6957 8.19633 92.0999 6.45243 84.8554 4.19989C82.772 3.55372 80.6528 3.02966 78.5083 2.63038L71.2094 1.93645C69.247 1.91302 67.2847 1.99427 65.331 2.17987C57.7741 2.9065 56.8404 4.49054 55.8376 7.21902C55.4743 8.21813 55.111 9.55875 54.7222 10.9793C53.5778 15.201 52.7131 18.0348 51.1908 18.9322C49.2689 20.0621 40.1171 23.7461 39.7283 23.9023C39.5826 23.9629 39.4238 23.9854 39.2669 23.9677Z" fill="#263238"/>
<path d="M46.8472 42.2975C57.9179 39.5147 66.0367 33.8544 64.9811 29.655C63.9255 25.4556 54.0952 24.3072 43.0245 27.09C31.9538 29.8728 23.835 35.5331 24.8906 39.7325C25.9462 43.9319 35.7765 45.0803 46.8472 42.2975Z" fill="#F36430"/>
<path opacity="0.29" d="M46.8472 42.2975C57.9179 39.5147 66.0367 33.8544 64.9811 29.655C63.9255 25.4556 54.0952 24.3072 43.0245 27.09C31.9538 29.8728 23.835 35.5331 24.8906 39.7325C25.9462 43.9319 35.7765 45.0803 46.8472 42.2975Z" fill="black"/>
<path d="M46.8472 42.2975C57.9179 39.5147 66.0367 33.8544 64.9811 29.655C63.9255 25.4556 54.0952 24.3072 43.0245 27.09C31.9538 29.8728 23.835 35.5331 24.8906 39.7325C25.9462 43.9319 35.7765 45.0803 46.8472 42.2975Z" stroke="#263238" stroke-width="0.361773" stroke-miterlimit="10"/>
<path d="M48.2082 43.5977L44.9384 44.4805L39.3652 19.3102C39.2752 18.9764 39.3215 18.6204 39.4938 18.3206C39.6662 18.0209 39.9506 17.8018 40.2844 17.7116L41.0292 17.5118C41.195 17.467 41.368 17.4555 41.5383 17.4781C41.7086 17.5007 41.8727 17.5569 42.0211 17.6435C42.1694 17.73 42.2992 17.8451 42.4027 17.9822C42.5062 18.1193 42.5815 18.2755 42.6241 18.4419L48.2082 43.5977Z" fill="#263238" stroke="#263238" stroke-width="0.361773" stroke-miterlimit="10"/>
<path d="M24.8869 39.7282C23.8296 35.5283 31.9497 29.8715 43.0198 27.0849C54.0899 24.2983 63.9212 25.45 64.9784 29.6499C65.0858 30.0941 65.097 30.5562 65.0111 31.005C65.1667 30.6071 65.2421 30.1824 65.2327 29.7552C65.1346 28.6072 64.2918 26.1584 62.3262 23.2846C60.3607 20.4108 58.2208 19.7968 58.2208 19.7968L57.3634 19.5316C53.8429 18.0311 48.0117 17.8967 41.7736 19.4662C36.4802 20.7959 32.026 23.0666 29.3338 25.5481C28.4437 26.3074 25.0213 29.4501 24.4763 33.2503C23.8441 37.6101 24.7452 40.5638 25.8642 41.4648C25.9126 41.4804 25.9647 41.4804 26.0131 41.4648C25.4687 41.0149 25.0756 40.4087 24.8869 39.7282Z" fill="#F36430" stroke="#263238" stroke-width="0.361773" stroke-miterlimit="10"/>
<path d="M30.5658 27.5972C30.4147 27.5816 30.2715 27.5217 30.1541 27.4252C30.0367 27.3287 29.9503 27.1997 29.9058 27.0544C29.8612 26.9091 29.8604 26.7539 29.9035 26.6081C29.9466 26.4624 30.0316 26.3325 30.148 26.2348C33.5285 23.3795 37.5297 21.354 41.8322 20.3201C41.9309 20.2962 42.0334 20.2921 42.1338 20.3078C42.2342 20.3236 42.3305 20.3589 42.4172 20.4119C42.5039 20.4649 42.5793 20.5344 42.6391 20.6165C42.699 20.6986 42.742 20.7917 42.7659 20.8905C42.7897 20.9892 42.7939 21.0917 42.7782 21.1921C42.7624 21.2925 42.727 21.3888 42.6741 21.4755C42.6211 21.5622 42.5516 21.6376 42.4695 21.6974C42.3873 21.7573 42.2942 21.8003 42.1955 21.8242C38.1295 22.8034 34.3485 24.7194 31.1544 27.4192C31.0739 27.4879 30.9801 27.5392 30.8788 27.5698C30.7775 27.6005 30.6709 27.6098 30.5658 27.5972Z" fill="white"/>
<path d="M27.6554 30.4746C27.5103 30.4621 27.3724 30.4064 27.2594 30.3147C27.1785 30.2522 27.1109 30.1743 27.0605 30.0854C27.0101 29.9966 26.9779 29.8986 26.9657 29.7971C26.9536 29.6957 26.9617 29.5928 26.9896 29.4946C27.0176 29.3963 27.0648 29.3046 27.1286 29.2248C27.4923 28.7773 27.8791 28.3493 28.2875 27.9423C28.3564 27.8597 28.4417 27.7924 28.538 27.7446C28.6343 27.6968 28.7395 27.6697 28.8469 27.6648C28.9543 27.66 29.0616 27.6775 29.1618 27.7164C29.262 27.7553 29.353 27.8147 29.4291 27.8907C29.5051 27.9667 29.5644 28.0577 29.6033 28.158C29.6422 28.2582 29.6598 28.3654 29.6549 28.4728C29.6501 28.5802 29.6229 28.6854 29.5751 28.7817C29.5274 28.878 29.46 28.9633 29.3775 29.0322C28.6944 29.7261 28.3348 30.1803 28.3311 30.1839C28.2519 30.2851 28.1485 30.3648 28.0304 30.4156C27.9123 30.4664 27.7833 30.4867 27.6554 30.4746Z" fill="white"/>
<path d="M94.0567 87.0287C96.3971 64.3813 80.3897 44.1717 58.3031 41.8893C36.2166 39.6069 16.4146 56.1159 14.0743 78.7633C11.7339 101.411 27.7413 121.62 49.8279 123.903C71.9144 126.185 91.7163 109.676 94.0567 87.0287Z" fill="white" stroke="#263238" stroke-width="0.361773" stroke-miterlimit="10"/>
<path d="M73.6507 39.8772L59.3144 37.8499L58.4787 40.077C37.8644 43.7101 21.2537 60.8876 18.9612 83.0605C16.2 109.775 35.2703 133.63 61.5596 136.348C87.8489 139.065 111.395 119.621 114.156 92.9209C116.841 66.9077 98.8464 43.6193 73.6507 39.8772Z" fill="#A6A6A6" stroke="#263238" stroke-width="0.361773" stroke-miterlimit="10"/>
<path d="M71.4307 39.1506L60.2262 38.0025L56.2624 39.3504C35.6481 42.9836 19.0338 60.161 16.7449 82.334C13.9874 109.041 33.054 132.885 59.3397 135.617C85.6254 138.35 109.175 118.88 111.936 92.1688C114.625 66.1702 96.6301 42.8782 71.4307 39.1506Z" fill="#A6A6A6" stroke="#263238" stroke-width="0.361773" stroke-miterlimit="10"/>
<path d="M78.5265 40.7636C94.6612 49.9336 104.725 68.2482 102.669 88.1505C99.9074 114.865 76.3575 134.317 50.0718 131.599C46.9581 131.278 43.8839 130.649 40.8946 129.721C46.5678 132.944 52.8492 134.952 59.3399 135.617C85.6293 138.335 109.176 118.88 111.937 92.1688C114.364 68.6842 99.9147 47.4086 78.5265 40.7636Z" fill="#263238" stroke="#263238" stroke-width="0.361773" stroke-miterlimit="10"/>
<path d="M69.5745 124.358L69.9669 125.51L74.4138 138.589L78.9262 146.161C79.0931 146.44 79.3547 146.65 79.6634 146.753C79.9721 146.855 80.3074 146.844 80.6083 146.72C80.9041 146.597 81.1471 146.374 81.2946 146.09C81.4421 145.805 81.4847 145.478 81.4148 145.165L79.2749 135.792L73.6945 122.593" fill="#F36430"/>
<path d="M69.5745 124.358L69.9669 125.51L74.4138 138.589L78.9262 146.161C79.0931 146.44 79.3547 146.65 79.6634 146.753C79.9721 146.855 80.3074 146.844 80.6083 146.72C80.9041 146.597 81.1471 146.374 81.2946 146.09C81.4421 145.805 81.4847 145.478 81.4148 145.165L79.2749 135.792L73.6945 122.593" stroke="#263238" stroke-width="0.361773" stroke-miterlimit="10"/>
<path d="M28.8835 115.337L28.0879 116.26L19.0741 126.709L12.0549 132.032C11.7956 132.228 11.4741 132.325 11.1492 132.305C10.8243 132.284 10.5177 132.147 10.2855 131.919C10.0558 131.695 9.91288 131.397 9.88228 131.078C9.85168 130.758 9.93535 130.438 10.1184 130.175L15.6153 122.277L25.7409 112.133" fill="#F36430"/>
<path d="M28.8835 115.337L28.0879 116.26L19.0741 126.709L12.0549 132.032C11.7956 132.228 11.4741 132.325 11.1492 132.305C10.8243 132.284 10.5177 132.147 10.2855 131.919C10.0558 131.695 9.91288 131.397 9.88228 131.078C9.85168 130.758 9.93535 130.438 10.1184 130.175L15.6153 122.277L25.7409 112.133" stroke="#263238" stroke-width="0.361773" stroke-miterlimit="10"/>
<path d="M98.6688 87.5456C101.245 62.6149 83.6249 40.3679 59.313 37.8555C35.001 35.3431 13.2037 53.5167 10.6274 78.4474C8.05107 103.378 25.6713 125.625 49.9832 128.137C74.2952 130.65 96.0925 112.476 98.6688 87.5456Z" fill="#F36430" stroke="#263238" stroke-width="0.361773" stroke-miterlimit="10"/>
<path d="M94.2308 87.087C96.5473 64.6711 80.7033 44.6681 58.8423 42.409C36.9813 40.1498 17.3816 56.4901 15.0651 78.906C12.7486 101.322 28.5926 121.325 50.4536 123.584C72.3147 125.843 91.9144 109.503 94.2308 87.087Z" fill="white" stroke="#263238" stroke-width="0.361773" stroke-miterlimit="10"/>
<path d="M54.0502 81.4949L56.4335 61.7597L55.3399 81.4513L54.0502 81.4949Z" fill="#F36430" stroke="#263238" stroke-width="0.361773" stroke-miterlimit="10"/>
<path d="M53.6325 83.9362L23.9681 96.554L53.9632 81.9379L53.6325 83.9362Z" fill="#F36430" stroke="#263238" stroke-width="0.361773" stroke-miterlimit="10"/>
<path d="M56.368 83.1767C56.3247 83.5142 56.1829 83.8315 55.9602 84.0887C55.7374 84.3459 55.4438 84.5318 55.116 84.6229C54.7881 84.7141 54.4407 84.7065 54.1172 84.6011C53.7936 84.4958 53.5084 84.2973 53.2971 84.0306C53.0858 83.7639 52.9579 83.4408 52.9294 83.1017C52.9009 82.7626 52.973 82.4227 53.1368 82.1244C53.3006 81.8262 53.5487 81.5829 53.8501 81.4249C54.1515 81.267 54.4928 81.2015 54.8312 81.2366C55.2922 81.2904 55.7129 81.5249 56.0011 81.8887C56.2892 82.2524 56.4212 82.7157 56.368 83.1767Z" fill="#263238" stroke="#263238" stroke-width="0.361773" stroke-miterlimit="10"/>
<path d="M93.3531 87.0026L91.0643 86.7628" stroke="#263238" stroke-width="0.361773" stroke-miterlimit="10"/>
<path d="M18.2383 79.2385L15.9494 79.0024" stroke="#263238" stroke-width="0.361773" stroke-miterlimit="10"/>
<path d="M91.0753 68.7351L88.9135 69.5816" stroke="#263238" stroke-width="0.361773" stroke-miterlimit="10"/>
<path d="M20.3894 96.4161L18.2277 97.2626" stroke="#263238" stroke-width="0.361773" stroke-miterlimit="10"/>
<path d="M77.7528 50.7695L76.3831 52.6842" stroke="#263238" stroke-width="0.361773" stroke-miterlimit="10"/>
<path d="M32.9163 113.314L31.5466 115.225" stroke="#263238" stroke-width="0.361773" stroke-miterlimit="10"/>
<path d="M23.855 62.8566L21.9149 61.585" stroke="#263238" stroke-width="0.361773" stroke-miterlimit="10"/>
<path d="M87.3878 104.413L85.4477 103.141" stroke="#263238" stroke-width="0.361773" stroke-miterlimit="10"/>
<path d="M39.5758 48.8765L38.6239 46.7257" stroke="#263238" stroke-width="0.361773" stroke-miterlimit="10"/>
<path d="M70.6716 119.268L69.7233 117.118" stroke="#263238" stroke-width="0.361773" stroke-miterlimit="10"/>
<path d="M58.5117 45.6575L58.7515 43.3141" stroke="#263238" stroke-width="0.361773" stroke-miterlimit="10"/>
<path d="M50.5475 122.687L50.791 120.34" stroke="#263238" stroke-width="0.361773" stroke-miterlimit="10"/>
<path d="M88.7428 48.0735C89.009 48.2354 89.3274 48.2879 89.6315 48.2202C89.9356 48.1525 90.2017 47.9697 90.374 47.7102L103.7 27.5464L101.644 26.2893L88.3649 46.3805C88.2758 46.5156 88.2148 46.6673 88.1856 46.8265C88.1564 46.9857 88.1595 47.1492 88.1947 47.3072C88.23 47.4651 88.2967 47.6144 88.3908 47.7461C88.485 47.8777 88.6047 47.9891 88.7428 48.0735Z" fill="#263238" stroke="#263238" stroke-width="0.361773" stroke-miterlimit="10"/>
<path d="M76.9387 30.8236L110.992 51.5869L114.869 44.9637C115.273 44.3159 115.544 43.594 115.667 42.8401C115.789 42.0863 115.76 41.3156 115.581 40.5731C115.402 39.8307 115.077 39.1313 114.624 38.5159C114.172 37.9005 113.602 37.3815 112.947 36.989L88.9353 22.3439C87.6105 21.5327 86.0205 21.2732 84.5065 21.621C82.9925 21.9687 81.6751 22.8961 80.8371 24.204L76.9387 30.8236Z" fill="#F36430" stroke="#263238" stroke-width="0.361773" stroke-miterlimit="10"/>
<path d="M106.829 39.6992C106.717 39.6874 106.609 39.6514 106.513 39.5939L88.038 28.571C87.8617 28.4659 87.7343 28.2952 87.6839 28.0962C87.6335 27.8973 87.6642 27.6864 87.7692 27.5101C87.8742 27.3338 88.045 27.2064 88.244 27.1559C88.4429 27.1055 88.6537 27.1362 88.8301 27.2412L107.305 38.2641C107.456 38.3542 107.573 38.4935 107.634 38.6588C107.696 38.8242 107.7 39.0057 107.644 39.1732C107.589 39.3408 107.477 39.4843 107.329 39.5799C107.181 39.6756 107.004 39.7177 106.829 39.6992Z" fill="white"/>
<path d="M85.6326 27.0522C85.5209 27.0404 85.413 27.0044 85.3165 26.9469L82.7079 25.3883C82.6139 25.3399 82.5308 25.2728 82.4637 25.191C82.3966 25.1093 82.347 25.0147 82.3179 24.913C82.2888 24.8113 82.2809 24.7048 82.2946 24.5999C82.3083 24.495 82.3433 24.3941 82.3975 24.3033C82.4517 24.2125 82.524 24.1338 82.6098 24.072C82.6957 24.0103 82.7933 23.9667 82.8966 23.9441C82.9999 23.9215 83.1067 23.9204 83.2105 23.9407C83.3143 23.961 83.4128 24.0023 83.5 24.0622L86.1086 25.6172C86.273 25.701 86.4021 25.8408 86.4725 26.0114C86.5429 26.182 86.55 26.3721 86.4926 26.5475C86.4352 26.7229 86.3169 26.872 86.1592 26.9679C86.0015 27.0638 85.8148 27.1001 85.6326 27.0704V27.0522Z" fill="white"/>
<path d="M54.8273 53.6068L55.3796 48.2588C55.3111 48.29 55.2408 48.3167 55.1688 48.3387L54.9182 48.4187L54.6675 48.495L54.4422 48.5713L54.5476 47.5467L54.8128 47.4341C54.9254 47.3869 55.0489 47.336 55.1761 47.2742C55.3033 47.2125 55.4304 47.1543 55.5394 47.0926C55.6319 47.0442 55.7195 46.987 55.801 46.9218L56.8619 47.0308L56.168 53.7448L54.8273 53.6068Z" fill="#263238"/>
<path d="M57.2221 53.8538L57.3238 52.8765L59.1404 50.5694C59.2784 50.3987 59.4056 50.2315 59.5291 50.0717C59.6489 49.9174 59.7536 49.752 59.8416 49.5776C59.9275 49.4071 59.9816 49.2225 60.0014 49.0326C60.0276 48.8813 60.0033 48.7256 59.9324 48.5894C59.9014 48.5384 59.8584 48.4958 59.807 48.4654C59.7557 48.4349 59.6977 48.4176 59.6381 48.415C59.5746 48.4032 59.5092 48.4052 59.4466 48.4208C59.3839 48.4365 59.3253 48.4655 59.2748 48.5058C59.1799 48.5889 59.1106 48.6973 59.075 48.8182C59.0294 48.9686 58.999 49.1232 58.9841 49.2797L58.9514 49.6103L57.6399 49.4758L57.6762 49.1125C57.7088 48.7481 57.8099 48.3931 57.9741 48.0662C58.1305 47.7742 58.3762 47.54 58.6753 47.3977C59.0142 47.2356 59.3941 47.1799 59.7653 47.2378C60.0091 47.2443 60.2489 47.3013 60.4697 47.4051C60.6904 47.5089 60.8872 47.6573 61.0478 47.8409C61.1863 48.0352 61.2852 48.2549 61.3388 48.4874C61.3924 48.72 61.3997 48.9608 61.3602 49.1961C61.3357 49.4484 61.2668 49.6944 61.1567 49.9227C61.0476 50.15 60.9136 50.3645 60.7571 50.5622C60.5972 50.7656 60.4265 50.98 60.2448 51.2016L58.8606 52.9091L60.7753 53.1053L60.6626 54.1953L57.2221 53.8538Z" fill="#263238"/>
<path d="M73.3129 60.0919L73.8651 54.7476C73.8033 54.773 73.7307 54.8021 73.6508 54.8275L73.4037 54.9038L73.1494 54.9838L72.9241 55.0601L73.0331 54.0319L73.2947 53.9229L73.658 53.763C73.7823 53.7078 73.9036 53.6459 74.0213 53.5778C74.1141 53.5293 74.2028 53.4734 74.2866 53.4106L75.3438 53.5196L74.6608 60.2227L73.3129 60.0919Z" fill="#263238"/>
<path d="M83.1548 73.7381L83.2565 72.7608L85.0731 70.4538C85.2111 70.283 85.3419 70.1159 85.4654 69.956C85.5827 69.8 85.6872 69.6348 85.7779 69.4619C85.8626 69.2913 85.9155 69.1066 85.9341 68.917C85.9644 68.7657 85.9399 68.6086 85.8651 68.4737C85.8344 68.4232 85.792 68.381 85.7413 68.3506C85.6907 68.3202 85.6334 68.3026 85.5744 68.2993C85.5109 68.2875 85.4456 68.2895 85.3829 68.3052C85.3202 68.3209 85.2616 68.3499 85.2111 68.3902C85.1151 68.4723 85.0456 68.581 85.0113 68.7026C84.9644 68.8529 84.9328 69.0075 84.9168 69.164L84.8841 69.4946L83.5726 69.3602L83.6125 68.9969C83.6425 68.6325 83.7424 68.2772 83.9068 67.9506C84.0528 67.6605 84.2868 67.424 84.5753 67.2748C84.9142 67.1127 85.2941 67.057 85.6653 67.1149C85.9085 67.1215 86.1478 67.1785 86.368 67.2823C86.5881 67.3861 86.7843 67.5345 86.9441 67.718C87.2242 68.109 87.3379 68.595 87.2602 69.0696C87.2324 69.3212 87.1637 69.5667 87.0567 69.7962C86.9449 70.0228 86.8098 70.2371 86.6535 70.4356L86.1448 71.0751L84.757 72.7826L86.6753 72.9788L86.5626 74.0688L83.1548 73.7381Z" fill="#263238"/>
<path d="M87.5473 89.2878C87.168 89.2732 86.8014 89.1468 86.4937 88.9245C86.2505 88.7179 86.0819 88.437 86.0142 88.1252C85.9354 87.7588 85.9182 87.3818 85.9633 87.0098L85.9851 86.77L87.3366 86.9081V86.9989V87.1479C87.3193 87.3291 87.3193 87.5116 87.3366 87.6928C87.3392 87.8075 87.3787 87.9184 87.4492 88.0089C87.5251 88.0839 87.6261 88.1279 87.7326 88.1324C87.7826 88.1417 87.834 88.1403 87.8835 88.1284C87.9329 88.1165 87.9793 88.0944 88.0196 88.0634C88.1 87.9861 88.1546 87.8859 88.1759 87.7764C88.2186 87.6146 88.2466 87.4492 88.2594 87.2823C88.302 87.0248 88.2834 86.7609 88.2049 86.5121C88.1573 86.4131 88.0824 86.3298 87.9891 86.2719C87.8958 86.214 87.7879 86.1839 87.6781 86.1851H87.5909H87.4311L87.5292 85.2332H87.6418H87.7472C87.8542 85.258 87.9659 85.2542 88.0711 85.2224C88.1763 85.1905 88.2713 85.1316 88.3466 85.0515C88.4813 84.8322 88.5576 84.5821 88.5682 84.3249C88.5995 84.1222 88.5858 83.9151 88.5283 83.7182C88.5006 83.6446 88.4508 83.5813 88.3858 83.5371C88.3207 83.4929 88.2436 83.4698 88.165 83.4711C88.0912 83.4591 88.0156 83.4718 87.9499 83.5073C87.8841 83.5428 87.832 83.5991 87.8017 83.6673C87.72 83.8538 87.6708 84.0528 87.6563 84.2559V84.423C87.6563 84.4811 87.6563 84.5429 87.6382 84.601L86.2866 84.463L86.3302 84.0561C86.355 83.7022 86.4647 83.3595 86.65 83.057C86.8109 82.7993 87.0485 82.5986 87.3293 82.4829C87.6417 82.3637 87.9787 82.3238 88.3103 82.3667C88.6465 82.3922 88.9717 82.4981 89.2585 82.6755C89.5082 82.8383 89.7032 83.0725 89.818 83.3476C89.9407 83.6743 89.9794 84.0266 89.9307 84.3721C89.9075 84.7161 89.792 85.0474 89.5964 85.3313C89.4558 85.5514 89.2337 85.7068 88.9788 85.7636C89.1266 85.8364 89.2568 85.9406 89.3603 86.0688C89.4787 86.2224 89.5596 86.4016 89.5964 86.592C89.6454 86.8569 89.6528 87.1278 89.6182 87.3949C89.5892 87.7652 89.4931 88.1271 89.3348 88.4631C89.1974 88.7537 88.9709 88.993 88.6881 89.1461C88.3332 89.3156 87.9329 89.3653 87.5473 89.2878Z" fill="#263238"/>
<path d="M82.3518 102.992L82.508 101.484L80.4953 101.273L80.6007 100.256L82.7369 96.2598L84.3064 96.4232L83.8741 100.601L84.4808 100.663L84.3718 101.691L83.7687 101.63L83.6125 103.137L82.3518 102.992ZM81.6252 100.354L82.6134 100.456L82.9004 97.6621L81.6252 100.354Z" fill="#263238"/>
<path d="M68.0158 114.84C67.6337 114.828 67.264 114.701 66.9549 114.476C66.726 114.271 66.5767 113.992 66.5335 113.688C66.4868 113.326 66.4868 112.96 66.5335 112.598L67.8342 112.732C67.811 112.94 67.8025 113.149 67.8087 113.357C67.8077 113.488 67.8484 113.615 67.925 113.721C67.9638 113.761 68.0107 113.794 68.0625 113.816C68.1144 113.837 68.1702 113.848 68.2265 113.848C68.2871 113.855 68.3486 113.846 68.4044 113.821C68.4601 113.796 68.5079 113.756 68.5426 113.706C68.6277 113.563 68.6821 113.403 68.7025 113.237C68.7352 113.034 68.7679 112.783 68.8006 112.489C68.8215 112.294 68.8288 112.097 68.8224 111.9C68.8236 111.751 68.7887 111.604 68.7206 111.472C68.6894 111.416 68.6441 111.37 68.5892 111.337C68.5344 111.305 68.472 111.287 68.4082 111.286C68.3456 111.278 68.282 111.284 68.2222 111.305C68.1623 111.325 68.1079 111.358 68.063 111.403C67.9461 111.527 67.8645 111.68 67.8269 111.846L66.6643 111.726L67.1838 107.868L70.2393 108.184L70.1194 109.343L68.1502 109.139L67.9323 110.516C68.0235 110.428 68.1384 110.369 68.2629 110.345C68.424 110.302 68.5902 110.282 68.757 110.284C69.0565 110.267 69.3512 110.364 69.5817 110.556C69.8085 110.769 69.9634 111.047 70.0249 111.352C70.107 111.758 70.123 112.175 70.0722 112.587C70.0396 112.919 69.9838 113.248 69.905 113.572C69.8415 113.842 69.7295 114.098 69.5744 114.327C69.4249 114.533 69.2175 114.69 68.9786 114.778C68.6673 114.875 68.3371 114.897 68.0158 114.84Z" fill="#263238"/>
<path d="M51.5905 118.386C51.2208 118.365 50.8671 118.228 50.5805 117.993C50.3305 117.77 50.1543 117.476 50.0755 117.15C49.9832 116.772 49.9598 116.381 50.0065 115.995L50.2572 113.564C50.2912 113.169 50.383 112.781 50.5297 112.413C50.6486 112.102 50.8654 111.838 51.1473 111.661C51.5002 111.477 51.9035 111.415 52.2954 111.483C52.6399 111.501 52.9745 111.604 53.269 111.784C53.4925 111.933 53.655 112.157 53.7268 112.416C53.8062 112.731 53.8247 113.058 53.7813 113.379C53.7796 113.4 53.7796 113.42 53.7813 113.441C53.7831 113.459 53.7831 113.477 53.7813 113.495L52.5133 113.365C52.5414 113.162 52.5414 112.957 52.5133 112.754C52.4891 112.623 52.3838 112.547 52.1973 112.525C52.1454 112.518 52.0926 112.522 52.0424 112.537C51.9922 112.552 51.9459 112.578 51.9066 112.612C51.8185 112.728 51.761 112.865 51.7395 113.009C51.6995 113.197 51.6596 113.466 51.6232 113.815L51.5615 114.411C51.6522 114.293 51.7804 114.21 51.9248 114.175C52.0871 114.126 52.2573 114.109 52.4261 114.124C52.7257 114.128 53.013 114.244 53.2327 114.447C53.4242 114.656 53.5504 114.916 53.596 115.196C53.6583 115.527 53.6705 115.867 53.6323 116.202C53.5948 116.621 53.4969 117.032 53.3417 117.423C53.2172 117.743 52.9947 118.015 52.7059 118.2C52.3651 118.384 51.9726 118.45 51.5905 118.386ZM51.7104 117.368C51.7621 117.378 51.8153 117.374 51.865 117.356C51.9146 117.339 51.959 117.31 51.9938 117.27C52.0713 117.162 52.1234 117.038 52.1464 116.907C52.1895 116.7 52.221 116.492 52.2409 116.282C52.2627 116.064 52.2772 115.871 52.2808 115.708C52.2874 115.574 52.2625 115.441 52.2082 115.319C52.1793 115.269 52.1381 115.228 52.0885 115.198C52.0388 115.169 51.9824 115.153 51.9248 115.152C51.8598 115.145 51.794 115.152 51.7322 115.174C51.6245 115.214 51.5301 115.283 51.4597 115.374L51.3471 116.464C51.3345 116.605 51.3345 116.747 51.3471 116.889C51.351 117.008 51.3874 117.123 51.4525 117.223C51.4816 117.265 51.52 117.3 51.5647 117.325C51.6094 117.351 51.6592 117.365 51.7104 117.368Z" fill="#263238"/>
<path d="M33.6066 113.157L35.6157 107.642L33.8282 107.461L33.9372 106.407L37.0435 106.727L36.9454 107.682L34.9254 113.295L33.6066 113.157Z" fill="#263238"/>
<path d="M23.6335 97.8947C23.2612 97.878 22.9022 97.7516 22.6016 97.5314C22.3564 97.3223 22.1856 97.0393 22.1148 96.7249C22.0334 96.3614 22.0138 95.9868 22.0567 95.6168C22.0788 95.4543 22.1141 95.294 22.162 95.1372C22.2046 94.9885 22.2656 94.8456 22.3437 94.7121C22.4164 94.5881 22.5084 94.4765 22.6162 94.3815C22.7229 94.2872 22.8461 94.2133 22.9795 94.1635C22.8096 93.9929 22.6772 93.7887 22.5907 93.564C22.4814 93.2645 22.4429 92.9437 22.4781 92.6267C22.499 92.2936 22.5946 91.9695 22.7579 91.6784C22.9044 91.4278 23.1271 91.2305 23.3937 91.1153C23.6979 90.994 24.0281 90.9527 24.3528 90.9954C24.6816 91.0183 24.9986 91.1273 25.272 91.3115C25.5039 91.4813 25.6778 91.7186 25.7697 91.9909C25.8677 92.3095 25.8913 92.6463 25.8388 92.9755C25.8125 93.2953 25.7131 93.6049 25.5481 93.8801C25.4238 94.083 25.2532 94.2536 25.0504 94.3779C25.1691 94.455 25.2736 94.5521 25.3592 94.6649C25.4445 94.7808 25.5107 94.9096 25.5554 95.0464C25.6042 95.1938 25.637 95.3461 25.6535 95.5005C25.6698 95.6624 25.6698 95.8255 25.6535 95.9873C25.6337 96.3644 25.5425 96.7343 25.3846 97.0773C25.2472 97.3689 25.0208 97.6093 24.7379 97.7639C24.3914 97.918 24.0064 97.9636 23.6335 97.8947ZM23.7388 96.8738C23.8012 96.8856 23.8656 96.8796 23.9247 96.8565C23.9839 96.8334 24.0353 96.794 24.0731 96.743C24.1499 96.6337 24.2042 96.5102 24.2329 96.3797C24.2656 96.2271 24.2874 96.0891 24.302 95.9619C24.324 95.7969 24.3337 95.6306 24.331 95.4642C24.3352 95.3239 24.3066 95.1845 24.2475 95.0573C24.2156 95.0061 24.1725 94.9629 24.1214 94.931C24.0704 94.899 24.0127 94.8791 23.9528 94.8728C23.8929 94.8665 23.8323 94.874 23.7757 94.8946C23.7191 94.9152 23.668 94.9485 23.6262 94.9919C23.5448 95.0994 23.4878 95.2234 23.4591 95.3552C23.4236 95.5196 23.397 95.6857 23.3791 95.8529C23.3791 95.9801 23.3791 96.1218 23.3791 96.278C23.3765 96.4181 23.405 96.5571 23.4627 96.6849C23.4902 96.7362 23.5297 96.7802 23.5777 96.813C23.6258 96.8459 23.681 96.8668 23.7388 96.8738ZM24.0622 93.7602C24.1059 93.7647 24.1501 93.7588 24.1911 93.743C24.2321 93.7273 24.2689 93.702 24.2983 93.6694C24.3799 93.5766 24.4384 93.4658 24.4691 93.3461C24.5187 93.1665 24.5527 92.9829 24.5708 92.7975C24.5973 92.6134 24.5811 92.4257 24.5236 92.2489C24.5054 92.186 24.4686 92.1301 24.418 92.0886C24.3674 92.047 24.3054 92.0219 24.2402 92.0163C24.1752 92.012 24.1101 92.0252 24.052 92.0546C23.9938 92.084 23.9446 92.1285 23.9096 92.1835C23.812 92.34 23.7557 92.5188 23.7461 92.703C23.7287 92.8903 23.7287 93.0788 23.7461 93.2661C23.7496 93.3948 23.7872 93.5201 23.8551 93.6294C23.8787 93.6644 23.9093 93.694 23.9449 93.7165C23.9806 93.739 24.0205 93.7539 24.0622 93.7602Z" fill="#263238"/>
<path d="M20.716 82.3848C20.3717 82.3653 20.0374 82.2618 19.7423 82.0832C19.5183 81.9315 19.3559 81.7047 19.2845 81.4438C19.2051 81.128 19.1866 80.8 19.23 80.4774V80.4265V80.372L20.4907 80.5028C20.4582 80.7037 20.4582 80.9086 20.4907 81.1095C20.5198 81.244 20.6288 81.3203 20.8141 81.3384C20.8654 81.3485 20.9184 81.3458 20.9685 81.3306C21.0185 81.3154 21.064 81.2881 21.1011 81.2512C21.1871 81.1353 21.241 80.9987 21.2573 80.8552C21.2973 80.659 21.3336 80.3902 21.37 80.0487L21.4317 79.4528C21.3449 79.5657 21.2238 79.6473 21.0866 79.6854C20.9262 79.7316 20.7592 79.7513 20.5925 79.7435C20.2886 79.728 20.0018 79.5982 19.7895 79.3802C19.5942 79.1598 19.4679 78.8869 19.4262 78.5954C19.3674 78.2571 19.3564 77.9122 19.3935 77.5709C19.4274 77.1589 19.528 76.7552 19.6914 76.3756C19.8261 76.0696 20.0553 75.815 20.3454 75.649C20.6818 75.4792 21.0627 75.4182 21.4353 75.4746C21.8029 75.4924 22.1569 75.6188 22.4526 75.8379C22.6983 76.0461 22.8735 76.3253 22.954 76.6372C23.0439 77.0117 23.0661 77.3993 23.0194 77.7816L22.7578 80.2848C22.7235 80.6796 22.633 81.0674 22.489 81.4365C22.3719 81.7497 22.1531 82.0145 21.8677 82.1886C21.5153 82.3775 21.111 82.4463 20.716 82.3848ZM21.1084 78.7226C21.2031 78.7371 21.2997 78.7136 21.3772 78.6572C21.4407 78.6114 21.4981 78.5577 21.548 78.4973L21.6606 77.4074C21.6729 77.2647 21.6729 77.1213 21.6606 76.9787C21.6555 76.8642 21.6244 76.7524 21.5698 76.6517C21.5422 76.6068 21.5038 76.5697 21.4581 76.5436C21.4124 76.5176 21.3608 76.5035 21.3082 76.5027C21.2567 76.4937 21.2038 76.4983 21.1547 76.5162C21.1056 76.534 21.0621 76.5645 21.0284 76.6045C20.947 76.7107 20.8933 76.8356 20.8722 76.9678C20.8291 77.1742 20.7976 77.3828 20.7778 77.5927C20.756 77.807 20.7451 77.9959 20.7414 78.1594C20.7309 78.294 20.7547 78.429 20.8104 78.5518C20.84 78.6046 20.8833 78.6483 20.9358 78.6784C20.9883 78.7084 21.0479 78.7237 21.1084 78.7226Z" fill="#263238"/>
<path d="M25.6134 67.7942L26.1657 62.4499C26.0971 62.4798 26.0267 62.5053 25.9549 62.5262L25.7042 62.6061L25.4536 62.686L25.2501 62.7659L25.3555 61.7378L25.6207 61.6288L25.984 61.4689C26.1148 61.4108 26.2359 61.349 26.3473 61.2836C26.4401 61.2352 26.5288 61.1793 26.6125 61.1165L27.6698 61.2255L26.9758 67.9395L25.6134 67.7942Z" fill="#263238"/>
<path d="M29.8969 68.3645C29.549 68.338 29.216 68.2119 28.9378 68.0012C28.6932 67.8165 28.5087 67.5637 28.4074 67.2745C28.299 66.9458 28.2654 66.597 28.3093 66.2536L28.6253 63.2091C28.6531 62.8553 28.7546 62.5113 28.9233 62.1991C29.0698 61.9252 29.2985 61.7041 29.5772 61.5669C29.9055 61.4349 30.2609 61.3848 30.6128 61.4209C30.9648 61.4569 31.3026 61.5781 31.5972 61.774C31.8407 61.9658 32.0185 62.2286 32.1059 62.526C32.2055 62.8678 32.234 63.2264 32.1894 63.5796L31.877 66.6206C31.8473 66.9651 31.7419 67.2988 31.5682 67.5979C31.4135 67.8671 31.1803 68.0826 30.8997 68.2155C30.5863 68.3593 30.2385 68.411 29.8969 68.3645ZM30.0241 67.1292C30.0778 67.1395 30.1332 67.1355 30.1848 67.1176C30.2365 67.0998 30.2825 67.0687 30.3184 67.0275C30.3852 66.9437 30.4313 66.8454 30.4528 66.7405C30.4761 66.6448 30.4931 66.5477 30.5037 66.4498L30.8125 63.4743C30.8125 63.3798 30.8125 63.2745 30.8125 63.1509C30.8176 63.0394 30.7951 62.9284 30.7471 62.8276C30.7209 62.7778 30.6818 62.736 30.6338 62.7065C30.5859 62.6771 30.5309 62.6612 30.4746 62.6605C30.4192 62.6489 30.3616 62.6529 30.3084 62.6722C30.2551 62.6914 30.2083 62.7251 30.1731 62.7695C30.1046 62.8577 30.0585 62.9611 30.0386 63.071C30.0132 63.1909 29.9987 63.2963 29.9878 63.3907L29.6826 66.3663C29.6749 66.4654 29.6749 66.565 29.6826 66.6642C29.6841 66.772 29.7115 66.878 29.7625 66.973C29.7888 67.0192 29.8268 67.0577 29.8728 67.0845C29.9187 67.1113 29.9709 67.1255 30.0241 67.1256V67.1292Z" fill="#263238"/>
<path d="M39.9644 56.8657L40.5094 51.5214L40.295 51.5977L40.0443 51.6776L39.7936 51.7576L39.5684 51.8339L39.6737 50.8057L39.9389 50.6967L40.3023 50.5368C40.4331 50.4787 40.5542 50.4169 40.6656 50.3516C40.7584 50.3031 40.8471 50.2472 40.9308 50.1844L41.988 50.2934L41.2941 57.0074L39.9644 56.8657Z" fill="#263238"/>
<path d="M43.1107 57.1928L43.6629 51.8448C43.5942 51.8754 43.5239 51.9021 43.4522 51.9247L43.2015 52.0047L42.9472 52.081C42.8719 52.1036 42.798 52.1303 42.7256 52.1609L42.8309 51.1327L43.0961 51.0201C43.2088 50.9729 43.3323 50.922 43.4594 50.8602C43.5866 50.7985 43.7138 50.7403 43.8228 50.6786C43.9152 50.6302 44.0028 50.573 44.0843 50.5078L45.1452 50.6168L44.4622 57.3163L43.1107 57.1928Z" fill="#263238"/>
</g>
<defs>
<clipPath id="clip0_1251_2160">
<rect width="127.442" height="146.377" fill="white" transform="scale(1.00426)"/>
</clipPath>
</defs>
</svg>
