<svg width="14" height="14" viewBox="0 0 14 14" fill="none" xmlns="http://www.w3.org/2000/svg">
<path d="M7 4.2002C6.76794 4.2002 6.54538 4.10801 6.38128 3.94391C6.21719 3.77982 6.125 3.55726 6.125 3.3252C6.125 3.09313 6.21719 2.87057 6.38128 2.70648C6.54538 2.54238 6.76794 2.4502 7 2.4502C7.23206 2.4502 7.45462 2.54238 7.61872 2.70648C7.78281 2.87057 7.875 3.09313 7.875 3.3252C7.875 3.55726 7.78281 3.77982 7.61872 3.94391C7.45462 4.10801 7.23206 4.2002 7 4.2002Z" fill="#A8AEDF"/>
<path d="M7 7.875C6.76794 7.875 6.54538 7.78281 6.38128 7.61872C6.21719 7.45462 6.125 7.23206 6.125 7C6.125 6.76794 6.21719 6.54538 6.38128 6.38128C6.54538 6.21719 6.76794 6.125 7 6.125C7.23206 6.125 7.45462 6.21719 7.61872 6.38128C7.78281 6.54538 7.875 6.76794 7.875 7C7.875 7.23206 7.78281 7.45462 7.61872 7.61872C7.45462 7.78281 7.23206 7.875 7 7.875Z" fill="#A8AEDF"/>
<path d="M6.125 10.6753C6.125 10.9074 6.21719 11.1299 6.38128 11.294C6.54538 11.4581 6.76794 11.5503 7 11.5503C7.23206 11.5503 7.45462 11.4581 7.61872 11.294C7.78281 11.1299 7.875 10.9074 7.875 10.6753C7.875 10.4432 7.78281 10.2207 7.61872 10.0566C7.45462 9.89248 7.23206 9.80029 7 9.80029C6.76794 9.80029 6.54538 9.89248 6.38128 10.0566C6.21719 10.2207 6.125 10.4432 6.125 10.6753Z" fill="#A8AEDF"/>
</svg>
