<svg width="88" height="229" viewBox="0 0 88 229" fill="none" xmlns="http://www.w3.org/2000/svg">
<g clip-path="url(#clip0_1170_1073)">
<path d="M49.3978 134.371C49.5842 134.448 46.9122 137.872 44.3397 140.292C42.2518 142.912 40.3006 146.012 39.6202 149.393C38.598 154.535 39.4493 179.928 38.5576 181.736C30.8989 189.224 25.3498 208.018 23.7932 213.738C23.4904 214.857 22.8762 215.866 22.0222 216.65L22.364 223.128L26.1701 226.632C26.1701 226.632 25.325 221.35 27.0152 217.439C27.0152 217.439 46.3002 188.233 47.4435 185.999C49.6184 179.642 57.5971 147.069 57.5971 147.069L59.4613 139.581L49.3978 134.371Z" fill="#F7A491"/>
<path d="M17.8558 218.734C17.8558 218.734 20.2637 222.462 20.4688 223.895C20.6739 225.327 21.957 228.621 23.3769 228.829C23.6876 228.875 29.218 229.282 29.1776 228.593C29.1466 228.064 27.1488 227.312 26.2229 226.672C24.6197 225.563 22.131 216.544 22.131 216.544C22.131 216.544 17.9583 217.588 17.8558 218.734Z" fill="#F47458"/>
<path d="M65.8804 145.624C65.8804 145.624 78.3083 172.182 78.3829 176.852C78.4512 180.854 76.208 203.311 76.8294 222.012C76.8511 222.689 77.7087 223.587 78.9515 224.156C79.6536 224.467 83.0372 225.989 83.0372 225.989L83.5001 227.198L71.852 226.368L71.6842 223.19C71.6842 223.19 67.0486 195.227 67.5209 187.301C67.5955 186.058 68.1982 178.601 68.1982 178.601L54.192 151.571L63.0003 139.991L65.8804 145.624Z" fill="#F7A491"/>
<path d="M67.0487 86.0135C65.1659 80.9989 60.2476 77.9634 55.1273 78.9017C54.3441 77.6379 53.3176 76.5425 52.1073 75.6789C50.8971 74.8154 49.5273 74.201 48.0775 73.8715C42.457 72.666 34.8542 74.8874 35.0593 80.8404C32.8844 84.8391 32.7943 90.5559 36.1312 93.5977C34.9692 98.9758 40.0056 104.161 46.552 103.987C48.8325 107.747 53.1761 110.164 57.4948 109.648C58.5325 109.524 60.114 109.266 60.375 109.338C60.0456 109.275 67.3159 114.846 73.474 106.28C79.7687 97.5311 75.3506 86.9456 67.0487 86.0135Z" fill="#355389"/>
<path d="M66.3029 55.9286C66.6065 55.2105 66.9812 54.5245 67.4214 53.8811L67.9061 53.1727C67.9575 53.0726 68.0011 52.9688 68.0366 52.862C68.251 52.2406 68.0863 50.218 68.0863 50.218L63.8391 51.2681L62.907 53.7195C61.9593 53.2814 60.3437 49.9911 59.7565 50.7834C59.0574 51.7155 61.6828 55.7546 61.891 56.8545C62.0992 57.9543 59.6322 74.9402 58.9207 78.3144C58.2092 81.6885 53.4027 91.112 53.4027 91.112L57.7991 96.7046C57.7991 96.7046 64.855 82.3379 65.3149 77.9384C65.3615 77.4755 65.4174 76.7857 65.4764 75.9313L66.3029 55.9286Z" fill="#F7A491"/>
<path d="M37.0135 109.148L31.7907 104.708C31.7907 104.708 27.562 111.758 24.1754 117.506C20.8137 116.294 12.1328 110.633 11.7041 110.36C11.2753 110.086 10.3245 103.701 9.58819 104.043C8.85184 104.385 10.1537 107.417 9.2775 107.644C8.40133 107.871 1.69959 103.406 1.56288 104.003C1.305 105.118 5.55221 106.899 5.33783 107.396C5.12345 107.893 1.06886 105.115 0.422608 105.808C-0.223643 106.501 4.49588 108.07 4.52073 108.52C4.54559 108.971 -0.105593 107.66 0.0186858 108.635C0.0839324 109.167 4.17895 109.701 3.92107 110.263C3.66319 110.826 0.472309 110.919 0.605909 111.506C0.739509 112.093 3.2686 111.056 4.81277 111.733C6.35694 112.41 7.80788 112.078 9.96413 113.908C12.1204 115.738 22.7027 126.09 26.0117 125.202C28.8763 124.453 37.0135 109.148 37.0135 109.148Z" fill="#F7A491"/>
<path d="M55.1769 102.562C55.5124 100.52 58.6722 95.4155 59.1694 94.1572C59.1694 94.1572 55.5062 89.4967 52.5329 89.854C52.5329 89.854 48.5373 96.4781 46.263 96.6894C43.9887 96.9006 36.0099 97.258 34.5994 98.1093C33.1888 98.9606 27.2607 108.098 27.2607 108.098C27.2607 108.098 32.6047 113.554 34.7516 113.542C34.7516 113.542 35.895 111.292 36.3517 110.801C36.6624 111.845 41.6522 127.974 41.6336 131.618L41.6709 131.649C42.7701 132.544 44.0398 133.205 45.4027 133.594C46.7657 133.982 48.1934 134.09 49.5991 133.909C51.0048 133.729 52.3591 133.264 53.5797 132.544C54.8003 131.824 55.8617 130.863 56.6993 129.72C56.4524 126.505 56.3922 123.279 56.5191 120.057C56.895 112.787 58.3646 108.94 55.1769 102.562Z" fill="#F47458"/>
<path d="M81.0829 164.946L56.7025 129.725C55.2442 130.357 53.7267 130.842 52.1725 131.173C48.674 131.848 45.1756 131.739 41.6367 131.624C41.6367 131.757 41.6367 131.872 41.615 131.972C41.208 134.874 37.3553 139.37 36.563 148.181C35.662 158.185 36.2057 175.557 36.5102 176.7C52.7193 174.727 76.4846 169.771 81.0829 164.946Z" fill="#466EB6"/>
<path d="M66.8654 53.2878C66.8654 53.2878 65.3337 54.3162 64.0319 53.9838C63.352 53.839 62.7071 53.5625 62.1335 53.1698C62.1335 53.1698 62.8512 54.4809 63.9138 55.0526C65.7469 56.0375 66.8654 53.2878 66.8654 53.2878Z" fill="#F47458"/>
<path d="M36.6344 46.0234L50.8115 43.0967C51.1699 43.0239 51.5409 43.0427 51.8901 43.1514C52.2393 43.26 52.5554 43.4549 52.8093 43.7181L63.1742 54.2538C63.4732 54.5551 63.8525 54.7641 64.267 54.8561C64.6814 54.948 65.1135 54.9189 65.5118 54.7722C65.9102 54.6256 66.258 54.3676 66.514 54.0289C66.7699 53.6902 66.9231 53.2852 66.9554 52.8619L68.6456 37.8769C68.6852 37.506 68.8127 37.1499 69.0175 36.8381C69.2223 36.5263 69.4985 36.2679 69.8231 36.0842L82.6084 29.0687C82.9801 28.8544 83.2871 28.5437 83.4969 28.1694C83.7068 27.7951 83.8117 27.3711 83.8005 26.9422C83.7894 26.5133 83.6626 26.0953 83.4337 25.7324C83.2047 25.3695 82.882 25.0752 82.4996 24.8805L69.3695 18.5453C69.0354 18.3798 68.746 18.1365 68.5254 17.8359C68.3048 17.5353 68.1596 17.1862 68.1019 16.8179L65.638 1.94164C65.5846 1.52038 65.4111 1.12339 65.1381 0.798093C64.8652 0.472791 64.5044 0.23292 64.0988 0.10712C63.6932 -0.0186802 63.26 -0.0250924 62.8509 0.0886497C62.4418 0.202392 62.0741 0.431479 61.7916 0.74856L51.9829 11.8094C51.7432 12.085 51.4379 12.2958 51.0953 12.4223C50.7526 12.5488 50.3837 12.587 50.0224 12.5333L35.7303 10.3584C33.8941 10.0788 32.5518 12.1201 33.4591 13.8103L40.5275 26.987C40.7059 27.32 40.8038 27.6901 40.8136 28.0678C40.8233 28.4455 40.7444 28.8201 40.5834 29.1619L34.2047 42.6928C33.3721 44.4327 34.8168 46.3963 36.6344 46.0234Z" fill="#F7CC7F"/>
<path d="M42.1525 90.8295C42.1525 90.8295 43.01 95.4464 42.8391 97.2702C42.6682 99.094 43.4916 104.96 47.1889 104.982C50.8862 105.004 47.8911 97.525 47.5431 95.7323C47.1951 93.9396 47.1112 88.4216 47.1112 88.4216L42.1525 90.8295Z" fill="#F7A491"/>
<path d="M47.1951 91.193C47.1361 89.683 47.1174 88.4216 47.1174 88.4216L42.1463 90.8295C42.1463 90.8295 42.3202 91.7616 42.4973 92.9764C44.6784 93.4331 46.2537 92.5911 47.1951 91.193Z" fill="#F47458"/>
<path d="M40.3379 78.0845C39.0799 78.9056 38.1539 80.1464 37.725 81.5861C37.0259 83.9816 37.8213 90.1614 42.7645 91.6558C47.7077 93.1503 49.8484 88.2382 48.8293 84.4228C47.8102 80.6074 45.5918 75.7512 40.3379 78.0845Z" fill="#F7A491"/>
<path d="M49.4477 82.9406C49.3514 83.969 48.8077 84.7551 48.2329 84.696C47.6581 84.637 47.2697 83.764 47.366 82.7293C47.4623 81.6947 48.0061 80.9148 48.5808 80.9739C49.1556 81.0329 49.544 81.9122 49.4477 82.9406Z" fill="#F7A491"/>
<path d="M39.1481 86.9023C39.7291 87.8002 39.726 88.8597 39.1481 89.2698C38.5702 89.6799 37.6226 89.2698 37.0415 88.3812C36.4605 87.4926 36.4637 86.4238 37.0415 86.0168C37.6194 85.6098 38.5671 86.0044 39.1481 86.9023Z" fill="#F7A491"/>
<path d="M67.5862 47.6486C66.6261 47.4622 62.5715 50.6468 62.615 51.1222C62.6585 51.5976 66.6106 49.5687 66.7225 49.9043C66.8126 50.159 62.2919 51.3428 62.528 51.7964C62.6896 52.1071 66.7442 51.2527 66.8529 51.4516C67.0207 51.7623 63.4695 51.8927 63.6994 52.2376C63.9635 52.6353 67.347 52.4737 67.347 52.4737C67.347 52.4737 68.0274 51.377 68.0957 50.9669C68.1272 50.7352 68.1324 50.5007 68.1113 50.2678C68.1113 50.041 68.1983 49.8452 68.1672 49.5936C68.0305 48.5683 68.1144 47.7511 67.5862 47.6486Z" fill="#F7A491"/>
<path d="M62.18 50.0845L60.6669 51.9487L59.6727 51.2061C59.6474 51.1385 59.6374 51.0661 59.6433 50.9942C59.6492 50.9222 59.6709 50.8524 59.7069 50.7898C59.8218 50.5351 62.1458 49.4041 62.18 50.0845Z" fill="#F7A491"/>
<path d="M71.8178 228.586H86.5356C87.0793 228.537 87.2098 228.099 87.0234 227.828C86.635 227.269 84.9169 226.862 82.9843 225.964C79.6008 226.315 72.228 224.004 71.6936 223.227C71.3798 224.79 71.5165 228.521 71.8178 228.586Z" fill="#F47458"/>
<path d="M60.7757 51.8213C60.7757 51.8213 62.7735 53.0424 63.5999 54.4685C63.8427 54.852 64.0072 55.2798 64.0839 55.7272C64.1607 56.1745 64.1483 56.6327 64.0473 57.0752L60.6296 52.8653L60.7757 51.8213Z" fill="#F7A491"/>
</g>
<defs>
<clipPath id="clip0_1170_1073">
<rect width="87.0852" height="228.95" fill="white"/>
</clipPath>
</defs>
</svg>
