<svg width="22" height="23" viewBox="0 0 22 23" fill="none" xmlns="http://www.w3.org/2000/svg">
<path d="M5.87778 0.766667V3.83333M14.0556 0.766667V3.83333M4.85556 9.96667H10.9889M4.85556 15.0778H7.53378M19.1667 7.41111V12.6551C18.2228 11.9035 17.051 11.4961 15.8444 11.5C14.5871 11.5 13.4116 11.9396 12.4916 12.6858C11.8609 13.1844 11.352 13.82 11.0031 14.5443C10.6542 15.2686 10.4746 16.0627 10.4778 16.8667C10.4778 17.8684 10.764 18.8293 11.2547 19.6267C11.6329 20.2502 12.1236 20.792 12.7062 21.2111H5.87778C2.3 21.2111 0.766667 19.1667 0.766667 16.1V7.41111C0.766667 4.34444 2.3 2.3 5.87778 2.3H14.0556C17.6333 2.3 19.1667 4.34444 19.1667 7.41111Z" stroke="black" stroke-width="1.5" stroke-miterlimit="10" stroke-linecap="round" stroke-linejoin="round"/>
<path d="M21.2111 16.8667C21.2111 17.8684 20.9249 18.8293 20.4342 19.6267C20.148 20.1173 19.7902 20.5467 19.3711 20.8942C18.4307 21.7324 17.204 22.2333 15.8444 22.2333C14.6689 22.2333 13.5853 21.8551 12.7062 21.2111C12.1236 20.792 11.6329 20.2502 11.2547 19.6267C10.764 18.8293 10.4778 17.8684 10.4778 16.8667C10.4778 15.18 11.2547 13.6569 12.4916 12.6858C13.4116 11.9396 14.5871 11.5 15.8444 11.5C17.1018 11.5 18.2569 11.9293 19.1667 12.6551C20.4138 13.6364 21.2111 15.1596 21.2111 16.8667Z" stroke="black" stroke-width="1.5" stroke-miterlimit="10" stroke-linecap="round" stroke-linejoin="round"/>
<path d="M15.8444 19.4222C15.8444 18.7444 16.1137 18.0944 16.5929 17.6152C17.0722 17.1359 17.7222 16.8667 18.4 16.8667C17.7222 16.8667 17.0722 16.5974 16.5929 16.1182C16.1137 15.6389 15.8444 14.9889 15.8444 14.3111C15.8444 14.9889 15.5752 15.6389 15.0959 16.1182C14.6167 16.5974 13.9667 16.8667 13.2889 16.8667C13.9667 16.8667 14.6167 17.1359 15.0959 17.6152C15.5752 18.0944 15.8444 18.7444 15.8444 19.4222Z" stroke="black" stroke-width="1.5" stroke-linecap="round" stroke-linejoin="round"/>
</svg>
