<svg width="18" height="18" viewBox="0 0 18 18" fill="none" xmlns="http://www.w3.org/2000/svg">
<path d="M8.15357 0.534523H6.46051C2.22784 0.534523 0.534767 2.22759 0.534767 6.46026V11.5395C0.534767 15.7721 2.22784 17.4652 6.46051 17.4652H11.5397C15.7724 17.4652 17.4655 15.7721 17.4655 11.5395V9.8464" stroke="#F46532" stroke-width="1.06667" stroke-linecap="round" stroke-linejoin="round"/>
<path d="M17.3886 1.8553C16.3474 4.45416 13.7316 7.99267 11.5475 9.745L10.21 10.8116C10.0407 10.9386 9.87141 11.0402 9.67671 11.1164C9.67671 10.9894 9.66824 10.8624 9.65131 10.727C9.57512 10.1598 9.32116 9.62648 8.86404 9.17782C8.39844 8.71223 7.83973 8.4498 7.26409 8.37361C7.12864 8.36515 6.99319 8.35668 6.85775 8.36515C6.93394 8.15352 7.04399 7.95881 7.1879 7.79797L8.25453 6.46045C10.0069 4.27639 13.5538 1.64367 16.1442 0.602432C16.5421 0.450056 16.9315 0.568571 17.177 0.814065C17.431 1.06803 17.5495 1.45743 17.3886 1.8553Z" stroke="#F46532" stroke-width="1.06667" stroke-linecap="round" stroke-linejoin="round"/>
<path d="M12.2577 8.98238C12.2577 7.21313 10.8271 5.77402 9.04938 5.77402M9.68428 11.1072C9.68428 11.8521 9.39646 12.5632 8.86314 13.105C8.44834 13.5198 7.88963 13.8076 7.22087 13.8923L5.55319 14.0701C5.33897 14.0929 5.12233 14.0674 4.91928 13.9954C4.71622 13.9234 4.53193 13.8067 4.37999 13.654C4.22805 13.5012 4.11235 13.3163 4.04142 13.1129C3.97049 12.9094 3.94614 12.6927 3.97018 12.4786L4.14795 10.8109C4.30879 9.32946 5.54473 8.38134 6.86532 8.35595C7.00077 8.34748 7.13621 8.35595 7.27166 8.36441C7.8473 8.4406 8.40601 8.70303 8.87161 9.16862C9.32874 9.62575 9.5827 10.1506 9.65888 10.7178C9.67581 10.8532 9.68428 10.9887 9.68428 11.1072Z" stroke="#F46532" stroke-width="1.06667" stroke-linecap="round" stroke-linejoin="round"/>
</svg>
