<svg width="15" height="14" viewBox="0 0 15 14" fill="none" xmlns="http://www.w3.org/2000/svg">
<path d="M10.8301 0C9.47258 0 8.25757 0.660005 7.50006 1.67251C7.11316 1.15412 6.61075 0.733049 6.0327 0.442724C5.45465 0.1524 4.81689 0.000814171 4.17003 0C1.86752 0 0 1.87502 0 4.19253C0 5.08504 0.142501 5.91005 0.390003 6.67505C1.57501 10.4251 5.22754 12.6676 7.03506 13.2826C7.29006 13.3726 7.71006 13.3726 7.96507 13.2826C9.77258 12.6676 13.4251 10.4251 14.6101 6.67505C14.8576 5.91005 15.0001 5.08504 15.0001 4.19253C15.0001 1.87502 13.1326 0 10.8301 0Z" fill="#EB2727"/>
</svg>
