<svg width="40" height="34" viewBox="0 0 40 34" fill="none" xmlns="http://www.w3.org/2000/svg">
<path d="M23.5322 34C23.3859 34 23.2457 33.9419 23.1422 33.8385C23.0388 33.7351 22.9807 33.5948 22.9807 33.4485V0.551478C22.9807 0.479059 22.995 0.407346 23.0227 0.340439C23.0504 0.273533 23.091 0.212737 23.1422 0.16153C23.1935 0.110322 23.2542 0.0696946 23.3212 0.0419812C23.3881 0.0142678 23.4598 0 23.5322 0C23.6767 0.00262791 23.8144 0.0619133 23.9157 0.165049C24.0169 0.268184 24.0736 0.406942 24.0736 0.551478V33.4485C24.0736 33.5931 24.0169 33.7318 23.9157 33.835C23.8144 33.9381 23.6767 33.9973 23.5322 34Z" fill="black"/>
<path d="M8.17132 28.0141C8.09853 28.0154 8.02621 28.0021 7.95869 27.9749C7.89117 27.9476 7.82984 27.9071 7.77836 27.8556C7.72687 27.8041 7.6863 27.7428 7.65907 27.6753C7.63184 27.6077 7.61851 27.5354 7.61987 27.4626V6.52722C7.61985 6.45527 7.63419 6.38403 7.66202 6.31768C7.68985 6.25133 7.73063 6.1912 7.78198 6.14079C7.83332 6.09038 7.8942 6.0507 7.96105 6.02409C8.0279 5.99748 8.09938 5.98445 8.17132 5.98578C8.31492 5.98578 8.45264 6.04283 8.55418 6.14437C8.65572 6.24591 8.71276 6.38362 8.71276 6.52722V27.4927C8.70757 27.6328 8.64824 27.7654 8.54726 27.8627C8.44628 27.9599 8.31151 28.0142 8.17132 28.0141Z" fill="black"/>
<path d="M0.54143 19.4113C0.397833 19.4113 0.260119 19.3542 0.158581 19.2527C0.0570425 19.1512 7.54479e-09 19.0134 7.54479e-09 18.8698V15.13C-2.38845e-05 14.9854 0.0566973 14.8466 0.157957 14.7435C0.259217 14.6404 0.396918 14.5811 0.54143 14.5785C0.613848 14.5785 0.685558 14.5928 0.752464 14.6205C0.81937 14.6482 0.880162 14.6888 0.93137 14.74C0.982578 14.7912 1.0232 14.852 1.05091 14.9189C1.07863 14.9858 1.09289 15.0576 1.09289 15.13V18.8698C1.09026 19.0144 1.03101 19.1521 0.92787 19.2533C0.824735 19.3546 0.685965 19.4113 0.54143 19.4113Z" fill="black"/>
<path d="M15.792 23.6125C15.6457 23.6125 15.5055 23.5544 15.402 23.4509C15.2986 23.3475 15.2405 23.2072 15.2405 23.061V10.9389C15.2405 10.8665 15.2548 10.7948 15.2825 10.7279C15.3102 10.661 15.3508 10.6002 15.402 10.549C15.4532 10.4978 15.514 10.4572 15.581 10.4295C15.6479 10.4017 15.7196 10.3875 15.792 10.3875C15.8644 10.3875 15.9361 10.4017 16.003 10.4295C16.0699 10.4572 16.1307 10.4978 16.1819 10.549C16.2331 10.6002 16.2738 10.661 16.3015 10.7279C16.3292 10.7948 16.3434 10.8665 16.3434 10.9389V23.061C16.3434 23.2072 16.2853 23.3475 16.1819 23.4509C16.0785 23.5544 15.9382 23.6125 15.792 23.6125Z" fill="black"/>
<path d="M31.1224 28.0141C31.0505 28.0141 30.9793 27.9998 30.9129 27.9719C30.8466 27.9441 30.7864 27.9033 30.736 27.852C30.6856 27.8006 30.6459 27.7397 30.6193 27.6729C30.5927 27.606 30.5797 27.5346 30.581 27.4626V6.52722C30.581 6.38362 30.6381 6.24591 30.7396 6.14437C30.8411 6.04283 30.9788 5.98578 31.1224 5.98578C31.1944 5.98445 31.2659 5.99748 31.3327 6.02409C31.3996 6.0507 31.4604 6.09038 31.5118 6.14079C31.5631 6.1912 31.6039 6.25133 31.6318 6.31768C31.6596 6.38403 31.6739 6.45527 31.6739 6.52722V27.4927C31.6687 27.6345 31.6079 27.7687 31.5048 27.8662C31.4017 27.9637 31.2644 28.0168 31.1224 28.0141Z" fill="black"/>
<path d="M39.1836 25.0763C39.1108 25.0777 39.0384 25.0644 38.9709 25.0371C38.9034 25.0099 38.8421 24.9693 38.7906 24.9179C38.7391 24.8664 38.6985 24.805 38.6713 24.7375C38.6441 24.67 38.6307 24.5977 38.6321 24.5249V9.44498C38.6321 9.37302 38.6464 9.30179 38.6743 9.23544C38.7021 9.16909 38.7429 9.10896 38.7942 9.05855C38.8456 9.00814 38.9064 8.96846 38.9733 8.94184C39.0401 8.91523 39.1116 8.9022 39.1836 8.90353C39.2547 8.90353 39.3251 8.91754 39.3908 8.94475C39.4564 8.97196 39.5161 9.01185 39.5664 9.06213C39.6167 9.1124 39.6566 9.1721 39.6838 9.23779C39.711 9.30348 39.725 9.37387 39.725 9.44498V24.4848C39.732 24.56 39.7232 24.6358 39.6991 24.7074C39.6751 24.779 39.6363 24.8447 39.5853 24.9005C39.5343 24.9562 39.4722 25.0006 39.403 25.0309C39.3338 25.0612 39.2591 25.0767 39.1836 25.0763Z" fill="black"/>
</svg>
