<svg width="124" height="124" viewBox="0 0 124 124" fill="none" xmlns="http://www.w3.org/2000/svg">
<rect x="35.7119" y="61.3081" width="30.7474" height="30.7474" rx="8.7019" fill="#C4C4C4"/>
<g clip-path="url(#clip0_1211_4159)">
<path d="M7.4624 0V124" stroke="#DBA1BD" stroke-miterlimit="10"/>
<path d="M17.3774 0V124" stroke="#DBA1BD" stroke-miterlimit="10"/>
<path d="M27.2949 0V124" stroke="#DBA1BD" stroke-miterlimit="10"/>
<path d="M37.21 0V124" stroke="#DBA1BD" stroke-miterlimit="10"/>
<path d="M47.125 0V124" stroke="#DBA1BD" stroke-miterlimit="10"/>
<path d="M57.0425 0V124" stroke="#DBA1BD" stroke-miterlimit="10"/>
<path d="M66.9575 0V124" stroke="#DBA1BD" stroke-miterlimit="10"/>
<path d="M76.875 0V124" stroke="#DBA1BD" stroke-miterlimit="10"/>
<path d="M86.79 0V124" stroke="#DBA1BD" stroke-miterlimit="10"/>
<path d="M96.7051 0V124" stroke="#DBA1BD" stroke-miterlimit="10"/>
<path d="M106.623 0V124" stroke="#DBA1BD" stroke-miterlimit="10"/>
<path d="M116.538 0V124" stroke="#DBA1BD" stroke-miterlimit="10"/>
<path d="M124 7.4624H0" stroke="#DBA1BD" stroke-miterlimit="10"/>
<path d="M124 17.3774H0" stroke="#DBA1BD" stroke-miterlimit="10"/>
<path d="M124 27.2949H0" stroke="#DBA1BD" stroke-miterlimit="10"/>
<path d="M124 37.21H0" stroke="#DBA1BD" stroke-miterlimit="10"/>
<path d="M124 47.125H0" stroke="#DBA1BD" stroke-miterlimit="10"/>
<path d="M124 57.0425H0" stroke="#DBA1BD" stroke-miterlimit="10"/>
<path d="M124 66.9575H0" stroke="#DBA1BD" stroke-miterlimit="10"/>
<path d="M124 76.875H0" stroke="#DBA1BD" stroke-miterlimit="10"/>
<path d="M124 86.79H0" stroke="#DBA1BD" stroke-miterlimit="10"/>
<path d="M124 96.7051H0" stroke="#DBA1BD" stroke-miterlimit="10"/>
<path d="M124 106.623H0" stroke="#DBA1BD" stroke-miterlimit="10"/>
<path d="M124 116.538H0" stroke="#DBA1BD" stroke-miterlimit="10"/>
<path d="M109.953 58.9074C109.953 74.9505 105.648 89.28 98.8776 98.704C93.6696 105.978 86.9984 110.36 79.7295 110.36C74.9208 110.36 70.37 108.445 66.3375 105.043C56.3679 96.6381 49.5107 79.1368 49.5107 58.9148C49.5107 30.5015 63.0416 7.46973 79.7345 7.46973C96.4274 7.46973 109.953 30.504 109.953 58.9074Z" fill="#4F3A1F"/>
<path d="M28.205 96.0627C28.205 96.0627 22.8482 101.725 22.4663 112.21C22.0843 122.695 23.2276 124 23.2276 124H52.7917L54.9468 95.9214L28.205 96.0627Z" fill="#3E4259"/>
<path d="M108.554 58.9075C108.554 74.4249 104.529 88.3104 98.2029 97.5608C93.1735 104.909 86.6883 109.333 79.6029 109.333C74.0403 109.333 68.8472 106.605 64.4377 101.861C56.1694 92.9803 50.6638 77.0611 50.6638 58.9075C50.6762 31.0596 63.6317 8.48169 79.6079 8.48169C95.5841 8.48169 108.554 31.0596 108.554 58.9075Z" fill="#B5E2F4"/>
<mask id="mask0_1211_4159" style="mask-type:luminance" maskUnits="userSpaceOnUse" x="50" y="8" width="59" height="102">
<path d="M108.554 58.9075C108.554 74.4249 104.529 88.3104 98.2029 97.5608C93.1735 104.909 86.6883 109.333 79.6029 109.333C74.0403 109.333 68.8472 106.605 64.4377 101.861C56.1694 92.9803 50.6638 77.0611 50.6638 58.9075C50.6762 31.0596 63.6317 8.48169 79.6079 8.48169C95.5841 8.48169 108.554 31.0596 108.554 58.9075Z" fill="white"/>
</mask>
<g mask="url(#mask0_1211_4159)">
<path d="M99.6091 7.82451C81.4009 18.9382 63.5267 30.5752 45.9865 42.7355C41.0662 46.1546 36.1756 49.6133 31.3148 53.1118C30.4047 53.769 29.9632 54.9247 30.5708 55.9613C31.0966 56.8615 32.5028 57.3699 33.4204 56.7053C50.6547 44.2987 68.2528 32.4145 86.2146 21.0528C91.3532 17.7991 96.519 14.5883 101.712 11.4205C103.996 10.0267 101.906 6.42083 99.6091 7.82451Z" fill="#E6F9FF"/>
<path d="M106.122 13.4094C84.6613 27.0924 63.7904 41.6417 43.509 57.0574C37.8248 61.3891 32.1911 65.7878 26.6078 70.2534C25.7299 70.9578 25.8638 72.4681 26.6078 73.1997C27.4758 74.0702 28.6736 73.9065 29.554 73.1997C49.1659 57.5079 69.425 42.6742 90.3314 28.6986C96.252 24.7306 102.216 20.8337 108.225 17.0078C110.479 15.5694 108.391 11.9635 106.122 13.4094Z" fill="#E6F9FF"/>
<path d="M117.852 42.16L51.832 98.0692C45.67 103.287 39.508 108.506 33.3461 113.725C31.2951 115.461 34.2562 118.393 36.2898 116.669L102.312 60.76L120.798 45.1063C122.847 43.3703 119.888 40.4364 117.852 42.16Z" fill="#E6F9FF"/>
</g>
<path d="M51.088 23.4534C48.0804 22.4611 44.8051 22.6733 41.9507 24.0455C39.0963 25.4177 36.8849 27.843 35.7814 30.8116C35.3325 32.0194 35.0721 33.2916 34.5042 34.4597C33.9517 35.5878 33.1255 36.5598 32.1011 37.2869C30.5883 38.3582 28.5845 38.9708 27.7462 40.625C26.908 42.2791 27.4982 44.6798 26.0673 45.9074C25.3009 46.567 24.1924 46.6514 23.3145 47.1474C22.3051 47.7202 21.6801 48.8362 21.5016 49.9845C21.362 51.1418 21.4998 52.3157 21.9033 53.4094C22.2605 54.4906 22.7912 55.5694 23.7013 56.2539C24.4205 56.797 25.3158 57.0475 26.2012 57.2211C30.2079 58.0082 34.3626 57.4374 38.0086 55.5991C41.6547 53.7608 44.5841 50.7598 46.3338 47.0705C47.8913 43.787 48.4741 40.0446 50.4779 37.0141C51.7179 35.1615 53.4539 33.6016 54.1657 31.4986C55.2073 28.4606 53.5258 24.753 50.5523 23.5328" fill="#342A21"/>
<path d="M40.7192 36.5874C40.4513 35.9823 39.6751 35.8285 39.0154 35.774C38.8793 35.7508 38.7395 35.7619 38.6087 35.8062C38.4743 35.8752 38.3656 35.9856 38.2987 36.1212C37.7531 37.0859 38.2541 38.2986 38.8741 39.2162C39.2957 39.8437 39.8065 40.4562 40.5109 40.7265C41.2152 40.9969 42.1477 40.7984 42.4949 40.1214" fill="#935C44"/>
<path d="M42.4973 40.1462C42.7144 43.3884 42.5479 46.6449 42.0013 49.848C41.9629 49.9896 41.9698 50.1396 42.0211 50.277C42.0721 50.349 42.137 50.41 42.212 50.4564C42.2869 50.5028 42.3705 50.5338 42.4576 50.5474C43.7373 50.9119 45.0715 51.0235 46.3958 51.1326C47.0456 51.1847 47.7573 51.2219 48.2806 50.8326C49.0246 50.287 49.0246 49.2007 48.9353 48.2881L48.5633 43.8737C48.5137 43.2983 48.4517 42.6882 48.0971 42.2319" fill="#935C44"/>
<path d="M28.205 96.0627C28.3562 87.901 27.3717 79.4467 28.386 71.3396L29.3978 63.292C29.7897 60.1672 30.1914 56.9978 31.4091 54.0912C32.6268 51.1846 34.777 48.5286 37.7232 47.42C39.6278 46.7033 41.7086 46.676 43.7422 46.6586L49.275 46.6066C51.259 46.5892 52.7322 48.5906 53.8878 50.1976C55.0435 51.8046 55.7602 53.687 56.3232 55.5842C57.3375 58.9966 58.2675 62.4934 58.4014 66.0522C58.6842 73.4922 58.4486 78.0703 57.8856 86.5544C57.7393 88.7318 56.0975 94.0663 54.9468 95.9214C54.0639 97.3523 35.4466 98.2526 28.205 96.0627Z" fill="#F48D60"/>
<path d="M37.8498 47.3406C36.6098 46.924 35.4194 46.3486 34.1521 46.051C32.8848 45.7534 31.4836 45.7038 30.3304 46.3238C28.8647 47.11 28.0835 48.8038 27.9471 50.4704C27.8509 51.6967 28.0473 52.9283 28.52 54.0639C29.1474 55.5693 30.2362 56.8365 31.3869 57.9947C31.7638 58.3741 32.1507 58.7387 32.5475 59.1082C32.8749 59.4058 33.2146 59.6985 33.5569 59.9837C34.0529 55.4378 35.4913 50.9961 38.5442 47.5489C38.3086 47.4869 38.0779 47.4175 37.8498 47.3406Z" fill="#935C44"/>
<path d="M78.5194 67.6742C76.6197 60.4252 74.0554 53.2654 69.9262 47.0108C69.2045 45.9147 68.4208 44.8359 67.3866 44.0348C66.7126 43.51 65.9476 43.114 65.1298 42.8668L64.495 42.7601C61.6901 41.8252 58.595 42.5964 55.8894 43.7893C53.1837 44.9822 50.6566 46.6016 47.8269 47.4746C44.8035 48.3945 41.5793 48.4246 38.5393 47.5614C35.4864 51.0086 34.0455 55.4503 33.552 59.9961C36.3445 62.3174 39.5908 64.1377 43.0554 64.8941C44.3478 65.1801 45.6704 65.3066 46.9936 65.2711C48.7098 69.311 50.669 73.274 52.7348 77.1751C54.017 79.598 55.3388 81.9962 56.6656 84.3795L57.8858 86.5569C59.1878 88.8807 60.5592 91.2144 62.4837 93.057C66.6203 93.305 70.6677 92.809 74.4918 91.1896C78.316 89.5701 83.5761 85.2872 87.1002 83.1097C85.6866 81.0116 79.4816 71.352 78.5194 67.6742Z" fill="#F48D60"/>
<path d="M43.0552 64.8867C39.164 64.0386 35.5482 61.8487 32.5424 59.1133C31.8456 60.4227 31.5752 62.057 31.5256 63.5773C31.3967 67.2973 32.0539 70.9974 33.0558 74.6034C36.9568 72.6764 41.2398 71.8754 45.5327 71.1438C44.7887 69.0159 43.9628 66.9302 43.0552 64.8867Z" fill="#F48D60"/>
<path d="M69.5441 66.7591C70.2236 65.3307 70.9031 63.9022 71.5826 62.4737C71.8306 61.9331 72.0985 61.3428 71.967 60.7625C71.6049 60.5963 71.223 60.9535 70.9899 61.2709C70.112 62.434 69.2837 63.0863 68.4057 64.2469C69.1778 62.6233 69.95 60.9989 70.7221 59.3737C71.037 58.714 71.3495 57.9328 71.0147 57.2855C70.2459 57.4616 69.7747 58.2007 69.363 58.8777C68.4801 60.3657 67.5749 61.7446 66.6921 63.2351C67.2641 61.0477 67.8386 58.8636 68.4157 56.6829C68.5099 56.3208 68.5545 55.8372 68.2247 55.6611C67.7287 55.8248 67.4187 56.2861 67.1558 56.73C66.4465 57.9502 65.9158 59.2695 65.2239 60.5046C64.532 61.7396 63.6441 62.9077 62.4215 63.617C62.1735 63.7608 61.985 63.7931 61.7742 63.5971C61.489 63.6988 61.2559 63.3615 61.1617 63.0763C60.5144 61.1519 60.5913 58.652 58.823 57.6575C58.0989 61.5883 60.6582 65.7274 59.3984 69.5218C58.8404 71.2082 57.5954 72.5673 56.3257 73.8098C55.1576 74.9555 53.9647 76.0914 52.7346 77.1702C51.3157 78.4328 49.8181 79.6041 48.2508 80.6769C47.5333 77.4433 46.6224 74.2557 45.5228 71.1314C41.22 71.8555 36.9469 72.664 33.0459 74.591C33.4576 76.079 33.9238 77.5323 34.4223 78.9756C35.5854 82.3608 36.937 85.7287 39.0822 88.5931C40.1962 90.0877 41.5096 91.4228 42.9857 92.5611C44.4117 93.6547 46.242 94.5946 47.9457 94.0193C49.0047 93.6597 49.7884 92.7793 50.5125 91.9212C52.6189 89.4561 54.6665 86.9439 56.6555 84.3845C58.2063 82.4005 59.7216 80.3859 61.2013 78.3407C61.9008 77.3112 62.6856 76.3422 63.5474 75.4441C64.6585 74.3603 65.9927 73.5394 67.1806 72.545C69.8368 70.3119 71.7073 67.2863 72.5176 63.9121C71.3321 64.5147 70.0921 65.5315 69.5441 66.7591Z" fill="#935C44"/>
<path d="M85.1532 57.5855C84.1984 56.1967 82.6434 55.2072 82.1995 53.5481C81.8994 52.4271 82.1846 51.2367 82.3309 50.0761C82.5516 48.3401 82.4252 46.4503 81.5324 44.9698C80.0915 42.5766 77.0684 41.649 75.9474 38.9905C74.8041 36.2922 74.2734 33.2865 73.2814 30.5262C72.2076 27.5354 70.355 25.4001 67.0814 25.0355C62.7439 24.5519 59.2545 26.4144 56.7919 29.9211C55.5519 31.6794 55.1873 33.9511 55.0212 36.1385C54.8773 38.0134 55.0063 39.8238 55.6635 41.4258L55.604 41.4457C55.7192 41.7013 55.8569 41.9461 56.0156 42.1773C56.4669 43.0086 57.072 43.7467 57.7988 44.3522C59.8249 46.0585 62.6744 47.1497 63.8301 49.6991C64.5295 51.2342 64.4005 53.005 64.2492 54.6864C64.1624 55.6387 64.15 56.7746 64.9188 57.3474C66.139 58.2576 68.118 56.8663 69.3357 57.7839C69.6535 58.0566 69.8939 58.4081 70.0326 58.8032C70.9254 60.9484 70.7766 63.4309 71.7314 65.5438C72.8995 68.1082 75.7416 69.7598 78.5588 69.6557C81.3761 69.5515 84.0148 67.7213 85.2548 65.1917C85.5882 64.514 85.795 63.7811 85.8649 63.0291C86.1605 62.1262 86.25 61.1686 86.1268 60.2265C86.0036 59.2845 85.6709 58.3821 85.1532 57.5855Z" fill="#342A21"/>
<path d="M57.1541 38.8591C57.1689 41.0911 56.7746 43.4347 55.0436 44.7516C54.2822 45.3319 53.3448 45.632 52.4098 45.8452C51.4432 46.0813 50.4475 46.1765 49.4537 46.128C46.6909 45.937 44.2457 44.144 42.6039 41.912C41.4097 40.2579 40.5877 38.3651 40.1943 36.3633C39.8009 34.3616 39.8454 32.2984 40.3248 30.3155C40.7315 28.6712 41.4606 27.0915 42.6337 25.8515C43.8067 24.6115 45.4584 23.8204 47.1497 23.8675C49.2949 23.9394 51.5393 23.674 53.1985 25.0356C54.8576 26.3971 55.862 28.4356 56.3307 30.5312C56.5826 31.7238 56.7171 32.9382 56.7325 34.157C56.904 35.1418 57.0207 36.1353 57.0821 37.133C57.097 37.3587 57.1119 37.5794 57.1243 37.8026C57.1392 38.1672 57.1541 38.5119 57.1541 38.8591Z" fill="#935C44"/>
<path d="M40.161 36.2079C41.3862 35.7665 41.7606 35.2953 42.7229 35.0026C43.7744 34.6827 44.4316 33.6659 45.3219 33.0186C46.7206 32.0266 48.598 32.0018 50.153 31.2628C51.2602 30.7018 52.1552 29.7962 52.7031 28.6825C53.2511 27.5687 53.4223 26.3071 53.191 25.0876C53.6099 27.6778 54.8231 30.074 56.663 31.9448C56.7745 32.0729 56.9171 32.1703 57.0771 32.2275C57.4218 32.3168 57.7715 32.0093 57.8534 31.6621C57.9073 31.308 57.8564 30.9459 57.707 30.6205C56.7919 28.0859 55.1303 25.7919 52.8586 24.3237C50.587 22.8556 47.6903 22.3397 45.1086 23.1135C42.527 23.8873 40.3594 26.0895 39.8262 28.7257C39.5336 30.1691 39.0822 32.1407 39.2732 33.6039C39.3774 34.4471 39.6799 35.578 40.161 36.2079Z" fill="#342A21"/>
<path d="M44.4539 23.5178C39.4939 23.9692 34.9506 27.4858 33.2939 32.1978C32.8649 33.4056 32.5251 34.7944 31.4339 35.464C30.6899 35.9129 29.7872 35.9203 28.9688 36.1906C28.3182 36.4146 27.7355 36.8009 27.2759 37.313C26.8163 37.8251 26.495 38.446 26.3425 39.117C26.1094 40.1958 26.3425 41.3118 26.3276 42.4154C26.3127 43.519 25.9928 44.7466 25.0331 45.2897C24.4081 45.6444 23.6368 45.6345 22.9871 45.9445C22.1687 46.3338 21.6578 47.1845 21.3478 48.0301C20.388 50.6788 21.2957 54.1508 23.8848 55.2643" stroke="#342A21" stroke-width="1.13" stroke-miterlimit="10" stroke-linecap="round"/>
<path d="M53.32 25.3555C53.3001 26.7889 53.2084 28.2521 52.6528 29.5715C52.0973 30.8908 50.9962 32.0515 49.5925 32.3441C48.6948 32.5251 47.7127 32.3441 46.8968 32.7682C46.1354 33.1576 45.7064 33.9685 45.1037 34.5761C44.4818 35.1754 43.6889 35.5664 42.8348 35.6948C41.9807 35.8233 41.1078 35.6828 40.3372 35.2928" stroke="#342A21" stroke-width="1.13" stroke-miterlimit="10" stroke-linecap="round"/>
<path d="M63.0266 25.6977C65.8042 25.2537 68.743 25.4794 71.2652 26.7169C73.7873 27.9545 75.8432 30.2807 76.3963 33.0385C76.6071 34.09 76.6021 35.1762 76.8204 36.2253C77.0324 37.3494 77.5596 38.3901 78.3406 39.2261C79.3177 40.2305 80.6569 40.7711 81.8622 41.4829C83.0675 42.1946 84.2381 43.2189 84.4464 44.6077C84.6324 45.8477 83.9975 47.0529 83.4891 48.2061C82.9807 49.3593 82.5963 50.7457 83.2411 51.8319C84.052 53.2182 85.9815 53.3199 87.4025 54.0639C88.7442 54.7781 89.694 56.2959 89.5328 57.7839C89.3716 59.2719 87.9456 60.6285 86.4328 60.4846" stroke="#342A21" stroke-width="1.13" stroke-miterlimit="10" stroke-linecap="round"/>
<path d="M57.0252 42.8196C56.6297 43.6015 56.5342 44.5012 56.7567 45.3488C56.9792 46.1964 57.5044 46.9332 58.233 47.42C59.2448 48.0499 60.713 48.3004 61.0503 49.4412C61.4347 50.7283 59.974 51.9212 60.0856 53.2728C60.1773 54.3863 61.3132 55.1154 62.392 55.3907C63.4708 55.666 64.6413 55.6809 65.616 56.2041" stroke="#342A21" stroke-width="1.13" stroke-miterlimit="10" stroke-linecap="round"/>
<path d="M53.072 34.854C53.0999 35.8464 53.2566 36.8309 53.5383 37.7829C53.5587 37.9166 53.6143 38.0424 53.6995 38.1474C53.9475 38.3954 54.4435 38.2714 54.6146 38.574C54.6511 38.6626 54.6611 38.7599 54.6435 38.854C54.6259 38.9482 54.5814 39.0353 54.5154 39.1047C54.425 39.2155 54.3117 39.3055 54.1833 39.3684C54.0548 39.4313 53.9143 39.4657 53.7714 39.4693" stroke="#342A21" stroke-width="1.13" stroke-miterlimit="10" stroke-linecap="round"/>
<path d="M55.5346 41.0217C55.1407 41.4845 54.584 41.7784 53.9797 41.8426C53.3789 41.9021 52.7726 41.817 52.2114 41.5946" stroke="#342A21" stroke-width="1.13" stroke-miterlimit="10" stroke-linecap="round"/>
<path d="M48.0574 35.8113C48.1729 36.0289 48.333 36.2196 48.5272 36.3712C48.7215 36.5227 48.9454 36.6317 49.1846 36.6909C49.4237 36.7501 49.6726 36.7582 49.9151 36.7148C50.1576 36.6713 50.3882 36.5773 50.5919 36.4387C50.7892 36.3011 50.9641 36.1338 51.1103 35.9427" stroke="#342A21" stroke-width="1.13" stroke-miterlimit="10" stroke-linecap="round"/>
<path d="M54.6716 35.0524C54.7821 35.24 54.9592 35.379 55.1676 35.4418C55.4261 35.5213 55.7031 35.516 55.9584 35.4268C56.2136 35.3375 56.4336 35.169 56.5862 34.9458" stroke="#342A21" stroke-width="1.13" stroke-miterlimit="10" stroke-linecap="round"/>
<path d="M56.2688 32.8502C56.4042 32.8882 56.5197 32.9771 56.5912 33.0982C56.6222 33.1993 56.6139 33.3083 56.5679 33.4035C56.5219 33.4987 56.4417 33.573 56.3432 33.6116C56.1455 33.6862 55.9315 33.7067 55.7232 33.6711L54.7585 33.5967C54.5839 33.5988 54.4122 33.5525 54.2625 33.4627C53.7516 33.0932 54.4708 32.8229 54.7585 32.756C55.2602 32.6381 55.7856 32.6708 56.2688 32.8502Z" fill="#342A21"/>
<path d="M48.8138 33.6511C48.5655 33.7298 48.3435 33.8747 48.1715 34.0702C48.1272 34.1214 48.0951 34.1818 48.0775 34.2471C48.0599 34.3124 48.0573 34.3808 48.0698 34.4472C48.1343 34.6952 48.4517 34.7498 48.7072 34.7398C49.3585 34.7125 50.0003 34.5732 50.6044 34.3282C50.7629 34.2743 50.9095 34.1901 51.0359 34.0802C51.0969 34.0236 51.1428 33.9527 51.1692 33.8738C51.1956 33.7949 51.2018 33.7107 51.1872 33.6288C50.9764 32.8451 49.2701 33.48 48.8138 33.6511Z" fill="#342A21"/>
<path d="M98.208 97.5608C92.7197 105.378 86.552 109.331 79.288 109.331C74.4768 109.331 69.5367 106.945 65.4472 102.883C64.4552 98.4338 64.0484 94.3418 63.3044 92.4421C71.5889 90.7822 79.5114 87.6599 86.7008 83.2214C89.957 85.7362 94.8872 92.0825 98.208 97.5608Z" fill="#3E4259"/>
<path d="M40.315 37.0065C40.2963 36.8954 40.2463 36.7919 40.1709 36.7083C40.0955 36.6246 39.9979 36.5641 39.8894 36.5339C39.7808 36.5037 39.666 36.5051 39.5582 36.5378C39.4504 36.5706 39.3542 36.6333 39.2808 36.7188C39.1529 36.8886 39.0857 37.0964 39.0899 37.309C39.0615 37.8926 39.2371 38.4678 39.5864 38.9361C39.9357 39.4044 40.437 39.7366 41.0044 39.8758" stroke="#342A21" stroke-width="1.13" stroke-miterlimit="10" stroke-linecap="round"/>
<path d="M45.4114 44.4985C45.5408 44.6685 45.7115 44.8025 45.9074 44.8879C46.8048 45.3471 47.7551 45.6944 48.7371 45.9221" stroke="#7C4735" stroke-width="1.13" stroke-miterlimit="10"/>
<path d="M39.1443 37.2C39.3022 37.5557 39.5417 37.8692 39.8433 38.1152C40.1449 38.3612 40.5001 38.5328 40.8803 38.616" stroke="#342A21" stroke-width="1.13" stroke-miterlimit="10" stroke-linecap="round"/>
<path d="M51.1129 39.3625C51.16 39.8287 50.6689 40.2603 50.0167 40.3247C49.3644 40.3892 48.799 40.0619 48.7519 39.5931C48.7048 39.1244 49.1983 38.6954 49.8505 38.6309C50.5028 38.5664 51.0682 38.8938 51.1129 39.3625Z" fill="#EF8273"/>
<path d="M57.154 38.8591C56.539 38.8914 56.0182 38.5714 55.9735 38.1151C55.9289 37.6588 56.4199 37.2149 57.0722 37.1504C57.087 37.3761 57.1019 37.5968 57.1143 37.82C57.1391 38.1672 57.154 38.5119 57.154 38.8591Z" fill="#EF8273"/>
<path d="M33.5991 60.3633C37.75 63.0527 42.3694 64.938 47.2168 65.921C49.0322 69.2516 50.6194 72.5252 52.5265 75.8062" stroke="#D86E4A" stroke-width="1.13" stroke-miterlimit="10"/>
<path d="M38.5913 47.5416C39.8487 47.6284 41.0713 48.0153 42.2964 48.2707C44.2685 48.6777 46.2955 48.7465 48.2906 48.4741C49.1115 48.3625 49.5529 47.4002 50.2324 46.9241" stroke="#D86E4A" stroke-width="1.13" stroke-miterlimit="10"/>
<path d="M30.0352 62.2332L32.4879 74.09" stroke="#D86E4A" stroke-width="1.13" stroke-miterlimit="10"/>
<path d="M45.4981 71.0221C45.3212 69.6995 45.1162 68.3834 44.8831 67.074" stroke="#D86E4A" stroke-width="1.13" stroke-miterlimit="10"/>
<path d="M52.1618 26.3276C51.8158 27.4403 51.1633 28.433 50.279 29.1919C49.3947 29.9507 48.3144 30.445 47.1621 30.618" stroke="#544436" stroke-width="1.13" stroke-miterlimit="10" stroke-linecap="round"/>
<path d="M50.9914 26.6353C50.371 27.7614 49.3561 28.6182 48.1418 29.0409" stroke="#544436" stroke-width="1.13" stroke-miterlimit="10" stroke-linecap="round"/>
<path d="M34.9357 36.2749C34.1741 37.6083 33.0328 38.6849 31.6572 39.3675C31.0396 39.67 30.375 39.8982 29.8492 40.3396C27.7189 42.1327 29.0531 46.2098 26.8335 47.8912C26.4078 48.1647 25.9664 48.4132 25.5117 48.6352C24.622 49.1888 23.9421 50.0231 23.5797 51.0062C23.2172 51.9894 23.1928 53.0653 23.5104 54.0639" stroke="#544436" stroke-width="1.13" stroke-miterlimit="10" stroke-linecap="round"/>
<path d="M43.9803 32.5376C42.8851 33.6281 41.5348 34.4277 40.052 34.8638" stroke="#544436" stroke-width="1.13" stroke-miterlimit="10" stroke-linecap="round"/>
<path d="M57.6277 41.6838C58.4473 43.0694 59.545 44.2701 60.8517 45.2104C62.0272 46.0586 63.3615 46.686 64.4675 47.6259C65.5736 48.5658 66.4515 49.9447 66.2854 51.3831C66.1192 52.7645 65.0131 54.059 65.395 55.3958C65.5461 55.8705 65.8703 56.2711 66.3031 56.5178C66.7359 56.7645 67.2457 56.8394 67.7312 56.7275" stroke="#544436" stroke-width="1.13" stroke-miterlimit="10" stroke-linecap="round"/>
<path d="M77.2048 42.9661L78.0976 43.8043C78.8416 44.5061 79.6055 45.2204 80.1412 46.0983C80.6768 46.9762 80.9645 48.055 80.6892 49.047" stroke="#544436" stroke-width="1.13" stroke-miterlimit="10" stroke-linecap="round"/>
<path d="M78.3357 45.6768C78.7701 46.0502 79.107 46.5237 79.3174 47.0564C79.5278 47.5892 79.6054 48.1652 79.5435 48.7346" stroke="#544436" stroke-width="1.13" stroke-miterlimit="10" stroke-linecap="round"/>
<path d="M81.4532 54.6592C81.2276 55.6016 81.7955 56.5514 82.4452 57.2632C83.095 57.9749 83.9035 58.5974 84.3052 59.4778C84.4923 59.9227 84.6102 60.3935 84.6549 60.8741C84.8025 61.8983 84.7263 62.9424 84.4317 63.9344C84.1287 64.9317 83.4704 65.7832 82.5816 66.3276" stroke="#544436" stroke-width="1.13" stroke-miterlimit="10" stroke-linecap="round"/>
<path d="M64.1401 25.9581C65.7323 25.529 67.4807 25.9977 68.8249 26.9501C70.169 27.9024 71.1511 29.2961 71.8777 30.7767C72.7685 32.5994 73.3054 34.5745 73.46 36.5973" stroke="#544436" stroke-width="1.13" stroke-miterlimit="10" stroke-linecap="round"/>
<path d="M64.8916 27.2429C65.1325 27.159 65.3891 27.1306 65.6425 27.1598C65.8958 27.189 66.1393 27.2751 66.3548 27.4115C66.7845 27.6874 67.1608 28.0386 67.4658 28.4481" stroke="#544436" stroke-width="1.13" stroke-miterlimit="10" stroke-linecap="round"/>
<path d="M76.6693 18.4463C76.1322 18.82 75.709 19.335 75.4467 19.9343C75.4216 19.2958 75.1822 18.6842 74.7671 18.1983C74.5191 17.9503 74.1893 17.7023 73.8247 17.7495C73.6404 17.7927 73.4709 17.8845 73.334 18.0154C73.1971 18.1462 73.0976 18.3113 73.046 18.4935C72.7534 19.4086 73.046 20.6213 73.3387 21.5042C73.6628 22.4984 74.1935 23.4129 74.8961 24.1875C74.8812 24.2049 74.8688 24.2223 74.8539 24.2371C74.6258 24.505 75.03 24.8671 75.2631 24.6017C76.0664 23.6909 76.7744 22.7004 77.3761 21.6455C77.6588 21.1495 77.9068 20.6213 78.1424 20.0931C78.3392 19.7344 78.4528 19.336 78.4747 18.9275C78.4301 17.9776 77.2571 18.0743 76.6693 18.4463ZM77.639 19.8971C76.9834 21.3398 76.1367 22.6878 75.1218 23.9048C74.1886 22.672 73.6275 21.1979 73.5048 19.6566C73.48 19.3044 73.418 18.8357 73.609 18.5183C73.8843 18.0619 74.3009 18.4166 74.5191 18.7241C75.0151 19.416 74.9507 20.408 74.968 21.2041C74.968 21.5265 75.4119 21.5091 75.4963 21.2388C75.7443 20.4328 76.1634 19.4631 76.8702 18.9473C77.1182 18.7588 77.8622 18.4513 77.9366 18.9473C77.9862 19.2523 77.7531 19.6442 77.639 19.8971Z" fill="#D34654"/>
<path d="M70.5187 23.2649C70.1306 23.1878 69.7364 23.1447 69.3407 23.1359C69.2614 23.1359 68.9167 23.1235 68.9167 23.1235C68.9167 23.1235 69.0828 22.0968 69.1647 21.6579C69.2465 21.2189 69.3035 20.7998 69.3531 20.3658C69.4488 19.5028 69.496 18.6351 69.4945 17.7667C69.9118 17.8601 70.3341 17.9296 70.7593 17.9751C70.7968 17.9793 70.8346 17.9705 70.8663 17.9501C70.8981 17.9297 70.9218 17.8989 70.9335 17.8631C70.9451 17.8272 70.9441 17.7884 70.9304 17.7532C70.9167 17.718 70.8913 17.6886 70.8585 17.67C70.4172 17.4516 69.9323 17.3355 69.4399 17.3303C68.9342 17.2884 68.4255 17.3 67.9222 17.365C67.6444 17.3997 67.7535 17.7816 68.0313 17.7543C68.3609 17.7217 68.6925 17.7134 69.0233 17.7295C68.9886 18.5752 68.9142 19.4184 68.7976 20.2542C68.7356 20.713 68.6637 21.1718 68.5744 21.6256C68.4851 22.0795 68.4331 22.5209 68.3264 22.9648C68.314 23.0268 67.6221 22.9127 67.2476 22.8135C66.9996 22.7491 66.893 23.1731 67.1435 23.2426C67.7189 23.4022 68.3048 23.5216 68.8968 23.5997C69.3779 23.6592 70.1046 23.8105 70.5311 23.5997C70.6626 23.5377 70.6403 23.2922 70.5187 23.2649Z" fill="#D34654"/>
<path d="M84.2529 20.2592C84.2821 20.1313 84.278 19.9981 84.2411 19.8722C84.2042 19.7463 84.1357 19.632 84.0421 19.54C83.4668 19.0837 82.9857 19.9319 82.7699 20.3311C82.5127 20.8146 82.285 21.3132 82.0879 21.8241C82.1127 21.3901 82.1301 20.9561 82.1201 20.5271C82.1201 20.165 81.9242 19.7409 81.4853 19.912C81.2664 20.0336 81.0964 20.2273 81.0041 20.4601C80.8429 20.7627 80.7016 21.0751 80.5701 21.3901C80.6197 20.7329 80.6644 20.0782 80.7189 19.4259C80.7388 19.1779 80.3643 19.1779 80.3321 19.4111C80.1337 21.0156 79.8658 22.6351 79.7815 24.2595C79.7926 24.3138 79.8215 24.3628 79.8637 24.3988C79.9059 24.4347 79.9589 24.4555 80.0143 24.4578C80.0697 24.46 80.1242 24.4437 80.1692 24.4114C80.2142 24.379 80.2471 24.3325 80.2626 24.2793C80.2949 24.0784 80.3246 23.8751 80.3494 23.6692C80.5401 22.6684 80.8742 21.7003 81.3414 20.7949C81.3736 20.7279 81.4332 20.5469 81.4977 20.4998C81.6613 20.4055 81.639 20.5395 81.6564 20.6957C81.6646 20.9797 81.653 21.2639 81.6216 21.5463C81.5944 22.144 81.5696 22.7417 81.5423 23.3419C81.5423 23.5899 81.9316 23.6767 81.9837 23.4212C82.145 22.7003 82.3828 21.9986 82.693 21.3281C82.7972 21.095 82.8542 20.9933 82.9708 20.7676C83.1043 20.506 83.2612 20.257 83.4395 20.0236C83.5461 19.9046 83.6652 19.8302 83.809 19.8971C83.9529 19.9641 83.9107 20.0261 83.9033 20.1451C83.8998 20.2287 83.8881 20.3118 83.8685 20.3931C83.6205 21.8489 83.1543 23.2476 82.7823 24.6711C82.7662 24.7208 82.7705 24.7748 82.7942 24.8213C82.8179 24.8678 82.8591 24.903 82.9088 24.9191C82.9584 24.9353 83.0125 24.931 83.059 24.9073C83.1055 24.8835 83.1407 24.8423 83.1568 24.7927C83.5048 23.7599 83.784 22.7053 83.9925 21.6356C84.1036 21.1817 84.1905 20.7223 84.2529 20.2592Z" fill="#D34654"/>
<path d="M86.3388 19.8624C86.1737 20.0714 86.053 20.3119 85.9841 20.5692C85.8899 20.8916 85.8527 21.3603 85.5799 21.5934C85.1211 21.9878 84.9301 21.4769 84.9376 21.0974C84.9496 20.7008 85.0198 20.3081 85.1459 19.9318C85.1557 19.8868 85.1484 19.8396 85.1254 19.7996C85.1024 19.7596 85.0654 19.7296 85.0215 19.7154C84.9776 19.7011 84.9299 19.7037 84.8878 19.7227C84.8458 19.7416 84.8122 19.7755 84.7937 19.8178C84.568 20.4179 84.0497 22.0274 85.0888 22.206C85.2327 22.2418 85.3835 22.2376 85.5251 22.1939C85.6667 22.1502 85.7937 22.0686 85.8924 21.958C85.8056 22.3052 85.7088 22.6524 85.5948 22.9946C85.4316 23.4972 85.2206 23.9831 84.9648 24.4454C84.8359 24.6761 84.5656 25.1225 84.3225 24.8199C84.1762 24.6389 84.2506 24.2818 84.263 24.0586C84.263 23.8874 84.015 23.7734 83.9183 23.947C83.6951 24.4082 83.5909 25.053 84.0944 25.3878C84.5978 25.7226 85.0244 25.3457 85.2823 24.9489C86.2098 23.5105 86.4826 21.6703 86.7504 20.0162C86.8 19.7533 86.4603 19.7111 86.3388 19.8624Z" fill="#D34654"/>
<path d="M88.288 22.4787C88.169 22.0646 87.9606 21.6802 87.859 21.261C87.7623 20.9689 87.7791 20.651 87.9061 20.3707C88.0871 20.0558 88.5112 19.8747 88.7865 20.207C88.9427 20.3955 89.2081 20.1475 89.0667 19.959C88.9212 19.7769 88.7108 19.6581 88.4797 19.6276C88.2485 19.5971 88.0145 19.6572 87.8267 19.7954C87.3158 20.1574 87.2861 20.8816 87.4299 21.4346C87.6308 22.1985 87.9681 22.8606 87.9854 23.6666C88.0058 24.0661 87.958 24.4662 87.8441 24.8496C87.8024 25.0091 87.7164 25.1536 87.5961 25.2662C87.2423 25.4316 87.0339 25.3489 86.9711 25.0182C86.9116 24.7529 87.0406 24.4702 87.0902 24.2098C87.1298 23.999 86.8422 23.7956 86.7107 24.0287C86.4206 24.5743 86.3015 25.477 86.991 25.792C87.6804 26.107 88.2136 25.425 88.3599 24.8372C88.5392 24.0579 88.5145 23.2456 88.288 22.4787Z" fill="#D34654"/>
<path d="M90.7679 24.0039C90.5423 24.1775 90.2 24.4826 89.8776 24.4156C89.5552 24.3487 89.4957 23.9816 89.5205 23.6915C89.5439 23.4291 89.5903 23.1694 89.6594 22.9152C89.8469 22.961 90.0418 22.9682 90.2322 22.9363C90.4226 22.9044 90.6045 22.8342 90.7669 22.7298C90.9293 22.6254 91.0687 22.4891 91.1768 22.3291C91.2848 22.1691 91.3592 21.9888 91.3954 21.7992C91.5591 20.9015 90.6216 20.1872 89.952 20.9709C89.6048 21.3751 89.4163 21.9852 89.2651 22.4837C89.079 22.9863 88.9931 23.5204 89.0121 24.056C89.0218 24.2688 89.1038 24.472 89.2444 24.6321C89.3851 24.7921 89.576 24.8994 89.7859 24.9364C90.3017 25.0282 90.7481 24.7157 91.1226 24.4007C91.3855 24.1775 91.0383 23.808 90.7679 24.0039ZM89.9371 22.072C89.999 21.8045 90.1128 21.5517 90.2719 21.328C90.3265 21.2164 90.4282 21.1792 90.5795 21.2164C90.8076 21.08 90.9391 21.142 90.9713 21.4074C91.0024 21.5435 90.9973 21.6855 90.9564 21.8191C90.886 22.0674 90.7239 22.2797 90.5029 22.4132C90.282 22.5467 90.0186 22.5914 89.766 22.5383C89.8206 22.3795 89.8776 22.2159 89.9371 22.072Z" fill="#D34654"/>
<path d="M92.3304 26.2484C91.0532 26.0674 92.0377 24.2049 92.2832 23.5526C92.6767 22.5143 93.0628 21.4719 93.4414 20.4254C93.5332 20.1774 93.1537 20.0608 93.052 20.3014C92.4544 21.7224 91.7972 23.1459 91.2912 24.6066C91.1201 25.1026 91.0284 25.6557 91.2912 26.1393C91.3843 26.3424 91.54 26.5102 91.7355 26.6183C91.931 26.7263 92.156 26.7688 92.3775 26.7394C92.6676 26.6874 92.5908 26.2881 92.3304 26.2484Z" fill="#D34654"/>
<path d="M95.8097 23.7782C95.5419 23.4409 95.0459 23.2598 94.6193 23.1582C94.9318 22.4414 95.3956 21.6131 95.7973 22.0347C95.8318 22.0653 95.8762 22.0822 95.9223 22.0822C95.9684 22.0822 96.0128 22.0654 96.0473 22.0349C96.0818 22.0044 96.1039 21.9623 96.1095 21.9165C96.1151 21.8708 96.1037 21.8246 96.0776 21.7867C95.4774 21.0849 94.7458 21.8438 94.4705 22.4241C94.1953 23.0044 93.9621 23.5376 93.7117 24.0956C93.4132 24.6718 93.1563 25.2685 92.9429 25.8812C92.9288 25.9312 92.9327 25.9845 92.9541 26.0319C92.9755 26.0792 93.0128 26.1175 93.0596 26.14C93.1064 26.1625 93.1597 26.1678 93.21 26.155C93.2603 26.1421 93.3044 26.1119 93.3347 26.0697C93.7315 25.4323 93.982 24.6784 94.2845 23.9914C94.3193 23.9096 94.3887 23.7236 94.4805 23.4954C94.6627 23.5553 94.8388 23.6325 95.0062 23.7261C95.1922 23.8352 95.3609 23.9741 95.5543 24.0758C95.5945 24.1008 95.6424 24.1106 95.6893 24.1034C95.7361 24.0962 95.7788 24.0725 95.8097 24.0366C95.8406 24.0006 95.8575 23.9548 95.8575 23.9074C95.8576 23.86 95.8406 23.8141 95.8097 23.7782Z" fill="#D34654"/>
</g>
<defs>
<clipPath id="clip0_1211_4159">
<rect width="124" height="124" fill="white"/>
</clipPath>
</defs>
</svg>
