<svg width="119" height="107" viewBox="0 0 119 107" fill="none" xmlns="http://www.w3.org/2000/svg">
<g clip-path="url(#clip0_1211_3785)">
<path d="M3.16794 66.8865L0 95.0053H1.58547L4.93024 66.8865H3.16794Z" fill="#EBEBEB"/>
<path d="M13.0613 66.8865L9.89331 95.0053H11.4788L14.8235 66.8865H13.0613Z" fill="#EBEBEB"/>
<path d="M6.19502 87.7134L5.41577 95.0053H6.40781L7.95432 87.7134H6.19502Z" fill="#F0F0F0"/>
<path d="M15.3122 87.7134L16.0915 95.0053H15.0994L13.5559 87.7134H15.3122Z" fill="#F0F0F0"/>
<path d="M10.8705 90.4616C11.7969 90.4618 12.7132 90.2693 13.5613 89.8963C14.4093 89.5234 15.1705 88.9781 15.7965 88.2952C16.4225 87.6122 16.8996 86.8066 17.1975 85.9293C17.4954 85.0521 17.6076 84.1225 17.527 83.1996L14.9495 53.7351C14.804 52.0701 14.0397 50.52 12.8074 49.3909C11.5751 48.2618 9.96431 47.6356 8.29294 47.636C7.36676 47.6362 6.45075 47.829 5.60306 48.2022C4.75538 48.5753 3.99456 49.1206 3.36888 49.8035C2.74321 50.4864 2.26635 51.2919 1.96862 52.1689C1.67088 53.046 1.55876 53.9753 1.63936 54.898L4.21688 84.3535C4.36018 86.0196 5.12313 87.5714 6.35503 88.7023C7.58693 89.8332 9.19818 90.461 10.8705 90.4616Z" fill="#E0E0E0"/>
<path d="M16.7297 83.7721C16.7091 84.0809 16.664 84.3876 16.5948 84.6892C16.4624 85.2589 16.243 85.8048 15.9444 86.3076C15.8935 86.4005 15.8365 86.4905 15.7766 86.5804C15.5853 86.8679 15.3686 87.1377 15.1292 87.3866L14.9853 87.5305C14.5448 87.9616 14.0391 88.3206 13.4868 88.5944C12.6403 89.005 11.7067 89.2037 10.7664 89.1735C9.82612 89.1432 8.90725 88.8849 8.08892 88.4207C7.2706 87.9566 6.57735 87.3005 6.06884 86.509C5.56033 85.7175 5.2518 84.8142 5.16982 83.877L2.86205 54.9909C2.86205 54.8171 2.84106 54.6462 2.84106 54.4784C2.8424 53.4113 3.13799 52.3652 3.6953 51.4552C4.25262 50.5452 5.05009 49.8065 6.00002 49.3204C6.13681 49.2461 6.27792 49.18 6.42261 49.1226C7.03251 48.866 7.68281 48.7189 8.34374 48.688C8.44265 48.688 8.53855 48.688 8.64345 48.688C8.88792 48.6877 9.13216 48.7027 9.37475 48.7329L9.61153 48.7719C9.97111 48.8286 10.3237 48.9231 10.6635 49.0536C10.7175 49.0716 10.7714 49.0896 10.8254 49.1136C11.8149 49.5167 12.6742 50.1849 13.3087 51.0446C13.9432 51.9044 14.3284 52.9224 14.4219 53.9869L16.7267 82.873C16.7528 83.1721 16.7538 83.4728 16.7297 83.7721Z" fill="#FAFAFA"/>
<path d="M15.1294 87.3895L14.9856 87.5334C14.545 87.9645 14.0393 88.3236 13.487 88.5974C13.3102 88.6825 13.1291 88.7585 12.9445 88.8251L6.00024 49.3233C6.13703 49.249 6.27814 49.1829 6.42283 49.1255C7.03273 48.869 7.68303 48.7219 8.34396 48.6909L15.1294 87.3895Z" fill="white"/>
<path d="M16.73 83.7722C16.7095 84.081 16.6644 84.3877 16.5952 84.6893C16.4628 85.259 16.2434 85.8049 15.9448 86.3077L9.36914 48.7271L9.60591 48.766C9.96548 48.8227 10.3181 48.9172 10.6579 49.0477L16.73 83.7722Z" fill="white"/>
<path d="M108.423 54.0828L107.848 53.6092C105 51.2655 104.371 48.4213 104.317 48.1455C104.258 47.9635 104.242 47.7703 104.271 47.5811C104.299 47.3919 104.37 47.2117 104.479 47.0546C104.569 46.9373 104.686 46.8427 104.819 46.7782C104.952 46.7137 105.098 46.6811 105.246 46.6829C105.489 46.6818 105.726 46.7573 105.924 46.8987C106.28 47.1655 107.167 47.7979 107.356 47.9237C109.035 48.4842 108.615 52.5303 108.516 53.3425L108.423 54.0828ZM105.246 47.4892C105.224 47.487 105.203 47.4906 105.183 47.4995C105.163 47.5085 105.145 47.5225 105.132 47.5401C105.101 47.6003 105.083 47.6666 105.08 47.7344C105.077 47.8022 105.089 47.8699 105.114 47.9327V47.9657C105.562 49.6753 106.482 51.2242 107.77 52.4344C107.875 50.8159 107.743 48.8798 107.077 48.685C106.507 48.3352 105.956 47.955 105.426 47.5461C105.372 47.5125 105.309 47.4968 105.246 47.5011V47.4892Z" fill="#F0F0F0"/>
<path d="M113.659 54.0828L113.566 53.3425C113.464 52.5303 113.048 48.4842 114.723 47.9238C114.912 47.8069 115.799 47.1685 116.159 46.8987C116.355 46.757 116.591 46.6814 116.833 46.683C116.981 46.6809 117.128 46.7134 117.261 46.7779C117.394 46.8424 117.51 46.9372 117.6 47.0546C117.711 47.2111 117.783 47.3913 117.811 47.5808C117.839 47.7703 117.823 47.9637 117.762 48.1455C117.708 48.4213 117.082 51.2655 114.235 53.6093L113.659 54.0828ZM116.656 47.5581C116.126 47.9663 115.575 48.3465 115.005 48.697C114.34 48.8918 114.205 50.828 114.313 52.4464C115.599 51.2352 116.519 49.6867 116.968 47.9777V47.9447C116.993 47.8817 117.004 47.8142 117.001 47.7465C116.998 47.6788 116.981 47.6126 116.95 47.5521C116.936 47.5348 116.918 47.5212 116.898 47.5123C116.877 47.5034 116.855 47.4996 116.833 47.5012C116.768 47.4996 116.703 47.5196 116.65 47.5581H116.656Z" fill="#F0F0F0"/>
<path d="M111.037 58.0152C108.939 58.0152 107.257 51.0619 107.257 48.9729V46.824H114.816V48.9729C114.816 51.0619 113.123 58.0152 111.037 58.0152Z" fill="#F5F5F5"/>
<path d="M111.678 57.6763H110.452V63.7214H111.678V57.6763Z" fill="#F5F5F5"/>
<path d="M114.268 66.8924H107.74L107.224 64.9893H114.783L114.268 66.8924Z" fill="#E6E6E6"/>
<path d="M111.702 61.9263L110.446 61.9443L109.835 63.0052H112.28L111.702 61.9263Z" fill="#F0F0F0"/>
<path d="M112.08 62.5496H110.033L109.106 63.7694H113.03L112.08 62.5496Z" fill="#EBEBEB"/>
<path d="M109.125 63.6074H113L114.783 64.9891H107.224L109.125 63.6074Z" fill="#F5F5F5"/>
<path d="M110.446 58.6745L111.702 58.6565L112.277 57.3228H109.832L110.446 58.6745Z" fill="#F0F0F0"/>
<path d="M116.174 68.6428H97.6877V91.8854H116.174V68.6428Z" fill="#E0E0E0"/>
<path d="M118.997 66.9133H116.674V94.9003H118.997V66.9133Z" fill="#E6E6E6"/>
<path d="M102.144 70.4709H100.631V79.1565H102.144V70.4709Z" fill="#FAFAFA"/>
<path d="M108.426 70.4709H106.913V79.1565H108.426V70.4709Z" fill="#F5F5F5"/>
<path d="M103.661 71.0823H102.147V79.1565H103.661V71.0823Z" fill="#F5F5F5"/>
<path d="M106.91 71.0823H105.396V79.1565H106.91V71.0823Z" fill="#FAFAFA"/>
<path d="M105.399 70.4709H104.419V79.1565H105.399V70.4709Z" fill="#EBEBEB"/>
<path d="M104.419 71.0823H103.661V79.1565H104.419V71.0823Z" fill="#FAFAFA"/>
<path d="M109.94 70.4709H108.426V79.1565H109.94V70.4709Z" fill="#EBEBEB"/>
<path d="M111.456 71.0823H109.943V79.1565H111.456V71.0823Z" fill="#E6E6E6"/>
<path d="M114.705 71.0823H113.192V79.1565H114.705V71.0823Z" fill="#E6E6E6"/>
<path d="M113.194 70.4709H112.214V79.1565H113.194V70.4709Z" fill="#FAFAFA"/>
<path d="M112.215 71.0823H111.456V79.1565H112.215V71.0823Z" fill="#EBEBEB"/>
<path d="M115.467 70.6777H114.708V79.1565H115.467V70.6777Z" fill="#FAFAFA"/>
<path d="M113.953 90.7974H115.466V82.1118H113.953V90.7974Z" fill="#FAFAFA"/>
<path d="M107.671 90.7974H109.184V82.1118H107.671V90.7974Z" fill="#FAFAFA"/>
<path d="M112.436 90.7974H113.95V82.7232H112.436V90.7974Z" fill="#F0F0F0"/>
<path d="M109.188 90.7974H110.701V82.7232H109.188V90.7974Z" fill="#EBEBEB"/>
<path d="M110.698 90.7974H111.678V82.1118H110.698V90.7974Z" fill="#FAFAFA"/>
<path d="M111.678 90.7974H112.436V82.7232H111.678V90.7974Z" fill="#F5F5F5"/>
<path d="M106.157 90.7974H107.671V82.1118H106.157V90.7974Z" fill="#EBEBEB"/>
<path d="M104.641 90.7974H106.154V82.7232H104.641V90.7974Z" fill="#F5F5F5"/>
<path d="M101.392 90.7974H102.906V82.7232H101.392V90.7974Z" fill="#E6E6E6"/>
<path d="M102.903 90.7974H103.883V82.1118H102.903V90.7974Z" fill="#FAFAFA"/>
<path d="M99.6508 90.7974H100.631V82.1118H99.6508V90.7974Z" fill="#FAFAFA"/>
<path d="M103.883 90.7974H104.641V82.7232H103.883V90.7974Z" fill="#EBEBEB"/>
<path d="M100.631 90.7974H101.389V82.3186H100.631V90.7974Z" fill="#F0F0F0"/>
<path d="M116.099 66.9224H97.1033V93.3418H115.464V94.9123H116.698V66.9224H116.099ZM115.479 90.8093H98.2721V80.6191H115.464L115.479 90.8093ZM115.479 79.1775H98.2721V69.4459H115.464L115.479 79.1775Z" fill="#E6E6E6"/>
<path d="M79.1716 91.8853H97.6577V68.6427H79.1716V91.8853Z" fill="#E0E0E0"/>
<path d="M79.885 94.8975H82.2078V93.0453H79.885V94.8975Z" fill="#E6E6E6"/>
<path d="M95.5236 79.1565H97.0371V70.4709H95.5236V79.1565Z" fill="#FAFAFA"/>
<path d="M89.2389 79.1565H90.7524V70.4709H89.2389V79.1565Z" fill="#F5F5F5"/>
<path d="M94.0072 79.1565H95.5208V71.0823H94.0072V79.1565Z" fill="#F5F5F5"/>
<path d="M90.7553 79.1565H92.2688V71.0823H90.7553V79.1565Z" fill="#FAFAFA"/>
<path d="M92.2687 79.1565H93.2488V70.4709H92.2687V79.1565Z" fill="#EBEBEB"/>
<path d="M93.2488 79.1565H94.0071V71.0823H93.2488V79.1565Z" fill="#FAFAFA"/>
<path d="M88.7264 79.1565H90.24V70.4709H88.7264V79.1565Z" fill="#EBEBEB"/>
<path d="M87.2099 79.1565H88.7234V71.0823H87.2099V79.1565Z" fill="#E6E6E6"/>
<path d="M83.9608 79.1565H85.4744V71.0823H83.9608V79.1565Z" fill="#E6E6E6"/>
<path d="M85.4714 79.1565H86.4514V70.4709H85.4714V79.1565Z" fill="#FAFAFA"/>
<path d="M86.4512 79.1565H87.2095V71.0823H86.4512V79.1565Z" fill="#EBEBEB"/>
<path d="M83.1997 79.1565H83.958V70.6777H83.1997V79.1565Z" fill="#F5F5F5"/>
<path d="M84.0028 82.1116H82.4893V90.7972H84.0028V82.1116Z" fill="#FAFAFA"/>
<path d="M90.2819 82.1116H88.7683V90.7972H90.2819V82.1116Z" fill="#FAFAFA"/>
<path d="M85.5165 82.7231H84.0029V90.7973H85.5165V82.7231Z" fill="#F5F5F5"/>
<path d="M88.7682 82.7231H87.2546V90.7973H88.7682V82.7231Z" fill="#EBEBEB"/>
<path d="M87.2545 82.1116H86.2744V90.7972H87.2545V82.1116Z" fill="#FAFAFA"/>
<path d="M86.2776 82.7231H85.5193V90.7973H86.2776V82.7231Z" fill="#F5F5F5"/>
<path d="M90.8002 82.1116H89.2866V90.7972H90.8002V82.1116Z" fill="#EBEBEB"/>
<path d="M92.3138 82.7231H90.8003V90.7973H92.3138V82.7231Z" fill="#F5F5F5"/>
<path d="M95.5655 82.7231H94.052V90.7973H95.5655V82.7231Z" fill="#E6E6E6"/>
<path d="M94.0521 82.1116H93.072V90.7972H94.0521V82.1116Z" fill="#FAFAFA"/>
<path d="M97.1031 82.1116H96.123V90.7972H97.1031V82.1116Z" fill="#FAFAFA"/>
<path d="M93.0749 82.7231H92.3167V90.7973H93.0749V82.7231Z" fill="#EBEBEB"/>
<path d="M96.3239 82.3186H95.5657V90.7974H96.3239V82.3186Z" fill="#EBEBEB"/>
<path d="M78.635 66.9224V94.9123H79.8758V93.3418H98.2361V66.9224H78.635ZM79.8758 80.6251H97.0672V90.8153H79.8848L79.8758 80.6251ZM79.8758 69.4579H97.0672V79.1775H79.8848L79.8758 69.4579Z" fill="#E6E6E6"/>
<path d="M59.7591 23.4523L67.2818 0L67.1889 24.6302L81.593 4.64851L73.8934 28.0469L93.7642 13.493L79.2133 33.3668L102.609 25.6672L82.627 40.0683L107.257 39.9754L83.8049 47.4981L107.257 55.0238L82.627 54.9309L102.609 69.332L79.2133 61.6324L93.7642 81.5032L73.8934 66.9523L81.593 90.3477L67.1889 70.369L67.2818 94.9992L59.7591 71.5439L52.2364 94.9992L52.3293 70.369L37.9252 90.3477L45.6247 66.9523L25.7539 81.5032L40.3049 61.6324L16.9095 69.332L36.8912 54.9309L12.261 55.0238L35.7133 47.4981L12.261 39.9754L36.8912 40.0683L16.9095 25.6672L40.3049 33.3668L25.7539 13.493L45.6247 28.0469L37.9252 4.64851L52.3293 24.6302L52.2364 0L59.7591 23.4523Z" fill="#F5F5F5"/>
<path d="M64.8483 37.5718C63.7723 36.8765 63.3498 35.2461 63.2329 33.5347C63.162 32.2339 63.2152 30.9292 63.3917 29.6385C63.4247 29.3088 63.4726 28.9911 63.5296 28.6914C63.5774 28.3885 63.6414 28.0883 63.7214 27.7923L53.9329 23.7642C55.0088 25.3826 55.824 30.5646 55.5993 32.231C55.3475 34.1012 55.2756 36.7266 54.3015 37.404L64.8483 37.5718Z" fill="#407BFF"/>
<g opacity="0.7">
<path d="M64.8483 37.5718C63.7723 36.8765 63.3498 35.2461 63.2329 33.5347C63.162 32.2339 63.2152 30.9292 63.3917 29.6385C63.4247 29.3088 63.4726 28.9911 63.5296 28.6914C63.5774 28.3885 63.6414 28.0883 63.7214 27.7923L53.9329 23.7642C55.0088 25.3826 55.824 30.5646 55.5993 32.231C55.3475 34.1012 55.2756 36.7266 54.3015 37.404L64.8483 37.5718Z" fill="white"/>
</g>
<path d="M54.3014 37.395C52.2034 38.8936 53.1025 41.2493 54.8079 43.1704C55.4592 43.9087 56.1602 44.6017 56.9059 45.2444C60.1727 48.0377 65.3128 46.8539 66.8233 42.8467C67.4917 41.0485 67.2609 39.1513 64.8182 37.5868L54.3014 37.395Z" fill="#FFB573"/>
<path opacity="0.2" d="M63.2177 33.5346C63.1468 32.2338 63.2 30.9292 63.3766 29.6384C63.4095 29.3087 63.4575 28.991 63.5144 28.6913L55.9587 27.2407C57.5442 28.8112 59.7531 32.0241 63.2177 33.5346Z" fill="black"/>
<path d="M73.1863 16.0105C72.9465 17.635 70.7227 20.2754 70.8276 20.1166C70.9173 19.9443 70.9488 19.7477 70.9175 19.5561C70.8687 18.8247 70.689 18.108 70.387 17.4401C70.1982 18.3393 69.9105 20.2245 69.0143 20.2394C68.6577 19.5681 68.2231 18.9567 68.283 18.1954C68.0762 18.9747 67.8874 19.7599 67.6836 20.5391C65.9453 19.4692 64.8454 16.9996 65.208 14.9376C65.2876 14.4378 65.4616 13.9577 65.7205 13.5229C66.0426 13.0491 66.4336 12.6258 66.8804 12.2671C68.0163 11.2721 68.4779 10.8105 69.9704 10.8105C73.2403 10.8105 73.4261 14.3861 73.1863 16.0105Z" fill="#407BFF"/>
<path opacity="0.3" d="M73.1863 16.0105C72.9465 17.635 70.7227 20.2754 70.8276 20.1166C70.9173 19.9443 70.9488 19.7477 70.9175 19.5561C70.8687 18.8247 70.689 18.108 70.387 17.4401C70.1982 18.3393 69.9105 20.2245 69.0143 20.2394C68.6577 19.5681 68.2231 18.9567 68.283 18.1954C68.0762 18.9747 67.8874 19.7599 67.6836 20.5391C65.9453 19.4692 64.8454 16.9996 65.208 14.9376C65.2876 14.4378 65.4616 13.9577 65.7205 13.5229C66.0426 13.0491 66.4336 12.6258 66.8804 12.2671C68.0163 11.2721 68.4779 10.8105 69.9704 10.8105C73.2403 10.8105 73.4261 14.3861 73.1863 16.0105Z" fill="black"/>
<path d="M71.4989 23.9648C70.285 30.5794 62.3667 34.0651 57.1397 29.3267C54.1217 26.5993 53.6421 23.3324 53.0906 18.2643C53.0037 17.4941 52.9198 16.6849 52.8209 15.8217C52.6593 14.4836 52.7964 13.1263 53.2225 11.8475C53.3987 11.3156 53.6276 10.8025 53.9058 10.316C54.9275 8.47722 56.5616 7.05484 58.5237 6.2964C60.4858 5.53796 62.6517 5.49148 64.6445 6.16504C71.1991 8.37391 72.5988 18.0126 71.4989 23.9648Z" fill="#407BFF"/>
<path opacity="0.7" d="M71.4989 23.9648C70.285 30.5794 62.3667 34.0651 57.1397 29.3267C54.1217 26.5993 53.6421 23.3324 53.0906 18.2643C53.0037 17.4941 52.9198 16.6849 52.8209 15.8217C52.6593 14.4836 52.7964 13.1263 53.2225 11.8475C53.3987 11.3156 53.6276 10.8025 53.9058 10.316C54.9275 8.47722 56.5616 7.05484 58.5237 6.2964C60.4858 5.53796 62.6517 5.49148 64.6445 6.16504C71.1991 8.37391 72.5988 18.0126 71.4989 23.9648Z" fill="white"/>
<path d="M63.3229 16.0195C63.6705 15.9956 63.9732 16.4152 64.0032 16.9456C64.0332 17.4761 63.8204 17.9257 63.4278 17.9467C63.0351 17.9677 62.7324 17.5541 62.7025 17.0176C62.6725 16.4811 62.9782 16.0405 63.3229 16.0195Z" fill="#407BFF"/>
<path opacity="0.3" d="M63.3229 16.0195C63.6705 15.9956 63.9732 16.4152 64.0032 16.9456C64.0332 17.4761 63.8204 17.9257 63.4278 17.9467C63.0351 17.9677 62.7324 17.5541 62.7025 17.0176C62.6725 16.4811 62.9782 16.0405 63.3229 16.0195Z" fill="black"/>
<path d="M69.2601 15.9717C69.6047 15.9477 69.9074 16.3613 69.9374 16.8918C69.9674 17.4223 69.7156 17.8689 69.362 17.8928C69.0083 17.9168 68.7056 17.5032 68.6756 16.9727C68.6457 16.4422 68.9124 15.9867 69.2601 15.9717Z" fill="#407BFF"/>
<path opacity="0.3" d="M69.2601 15.9717C69.6047 15.9477 69.9074 16.3613 69.9374 16.8918C69.9674 17.4223 69.7156 17.8689 69.362 17.8928C69.0083 17.9168 68.7056 17.5032 68.6756 16.9727C68.6457 16.4422 68.9124 15.9867 69.2601 15.9717Z" fill="black"/>
<path d="M66.7604 22.1967C67.6595 22.2866 69.299 21.7441 69.9493 21.1027C68.7115 19.8799 67.3329 18.5012 66.4817 16.9817L66.7604 22.1967Z" fill="#407BFF"/>
<path opacity="0.5" d="M66.7604 22.1967C67.6595 22.2866 69.299 21.7441 69.9493 21.1027C68.7115 19.8799 67.3329 18.5012 66.4817 16.9817L66.7604 22.1967Z" fill="white"/>
<path d="M62.3309 13.9337C62.7196 13.8595 63.1204 13.8782 63.5005 13.988C63.8807 14.0979 64.2296 14.296 64.5188 14.5661C64.5365 14.5937 64.5576 14.6189 64.5817 14.6411C64.6124 14.668 64.6481 14.6887 64.6868 14.7018C64.7255 14.715 64.7664 14.7204 64.8072 14.7178C64.8479 14.7151 64.8878 14.7045 64.9244 14.6864C64.9611 14.6684 64.9938 14.6433 65.0208 14.6126C65.0478 14.5819 65.0684 14.5462 65.0816 14.5075C65.0947 14.4688 65.1001 14.4279 65.0975 14.3871C65.0949 14.3464 65.0842 14.3065 65.0662 14.2699C65.0481 14.2332 65.023 14.2005 64.9923 14.1735C64.638 13.8266 64.2058 13.5695 63.7319 13.4235C63.258 13.2775 62.7561 13.2469 62.268 13.3343C62.2267 13.3386 62.1868 13.3513 62.1507 13.3718C62.1147 13.3923 62.0833 13.42 62.0585 13.4533C62.0337 13.4865 62.0161 13.5245 62.0067 13.5649C61.9974 13.6053 61.9965 13.6472 62.0042 13.688C62.0109 13.7424 62.0339 13.7936 62.0701 13.8348C62.1034 13.8699 62.1441 13.897 62.1892 13.9141C62.2344 13.9312 62.2828 13.9379 62.3309 13.9337Z" fill="#407BFF"/>
<path opacity="0.3" d="M62.3309 13.9337C62.7196 13.8595 63.1204 13.8782 63.5005 13.988C63.8807 14.0979 64.2296 14.296 64.5188 14.5661C64.5365 14.5937 64.5576 14.6189 64.5817 14.6411C64.6124 14.668 64.6481 14.6887 64.6868 14.7018C64.7255 14.715 64.7664 14.7204 64.8072 14.7178C64.8479 14.7151 64.8878 14.7045 64.9244 14.6864C64.9611 14.6684 64.9938 14.6433 65.0208 14.6126C65.0478 14.5819 65.0684 14.5462 65.0816 14.5075C65.0947 14.4688 65.1001 14.4279 65.0975 14.3871C65.0949 14.3464 65.0842 14.3065 65.0662 14.2699C65.0481 14.2332 65.023 14.2005 64.9923 14.1735C64.638 13.8266 64.2058 13.5695 63.7319 13.4235C63.258 13.2775 62.7561 13.2469 62.268 13.3343C62.2267 13.3386 62.1868 13.3513 62.1507 13.3718C62.1147 13.3923 62.0833 13.42 62.0585 13.4533C62.0337 13.4865 62.0161 13.5245 62.0067 13.5649C61.9974 13.6053 61.9965 13.6472 62.0042 13.688C62.0109 13.7424 62.0339 13.7936 62.0701 13.8348C62.1034 13.8699 62.1441 13.897 62.1892 13.9141C62.2344 13.9312 62.2828 13.9379 62.3309 13.9337Z" fill="black"/>
<path d="M71.424 13.2983C71.4241 13.2577 71.4159 13.2175 71.3999 13.1801C71.3839 13.1427 71.3604 13.109 71.331 13.0809C71.3016 13.0529 71.2668 13.0312 71.2286 13.017C71.1905 13.0029 71.1499 12.9966 71.1093 12.9986C70.6138 12.9855 70.1225 13.0929 69.6777 13.3117C69.2329 13.5304 68.8479 13.8539 68.5558 14.2544C68.5333 14.288 68.5178 14.3258 68.5103 14.3655C68.5028 14.4052 68.5034 14.4461 68.5121 14.4855C68.5208 14.525 68.5374 14.5623 68.5608 14.5952C68.5843 14.6281 68.6142 14.656 68.6487 14.677H68.6697C68.7377 14.7178 68.8191 14.73 68.896 14.7109C68.973 14.6918 69.0393 14.643 69.0803 14.5751C69.3184 14.2637 69.627 14.0133 69.9808 13.8444C70.3346 13.6756 70.7235 13.5932 71.1153 13.6041C71.1667 13.6058 71.2177 13.5943 71.2633 13.5707C71.309 13.5471 71.3478 13.5121 71.3761 13.4692C71.4059 13.417 71.4223 13.3584 71.424 13.2983Z" fill="#407BFF"/>
<path opacity="0.3" d="M71.424 13.2983C71.4241 13.2577 71.4159 13.2175 71.3999 13.1801C71.3839 13.1427 71.3604 13.109 71.331 13.0809C71.3016 13.0529 71.2668 13.0312 71.2286 13.017C71.1905 13.0029 71.1499 12.9966 71.1093 12.9986C70.6138 12.9855 70.1225 13.0929 69.6777 13.3117C69.2329 13.5304 68.8479 13.8539 68.5558 14.2544C68.5333 14.288 68.5178 14.3258 68.5103 14.3655C68.5028 14.4052 68.5034 14.4461 68.5121 14.4855C68.5208 14.525 68.5374 14.5623 68.5608 14.5952C68.5843 14.6281 68.6142 14.656 68.6487 14.677H68.6697C68.7377 14.7178 68.8191 14.73 68.896 14.7109C68.973 14.6918 69.0393 14.643 69.0803 14.5751C69.3184 14.2637 69.627 14.0133 69.9808 13.8444C70.3346 13.6756 70.7235 13.5932 71.1153 13.6041C71.1667 13.6058 71.2177 13.5943 71.2633 13.5707C71.309 13.5471 71.3478 13.5121 71.3761 13.4692C71.4059 13.417 71.4223 13.3584 71.424 13.2983Z" fill="black"/>
<path d="M56.5433 27.912C55.7428 27.7602 54.9874 27.4281 54.3344 26.9409C54.3344 27.8191 53.735 29.3386 53.735 29.3386C50.9447 28.4185 48.6399 22.8319 48.3402 20.9797C46.7847 23.8659 46.9196 22.2055 46.7997 20.9797C46.6259 19.2144 46.5809 17.3832 47.1833 15.7198C47.7857 14.0564 49.1614 12.5668 50.9087 12.2791C51.2343 12.2493 51.562 12.3073 51.8577 12.4469C52.1534 12.5866 52.4063 12.8029 52.5901 13.0733C52.8896 13.6106 53.0858 14.1992 53.1685 14.8087C53.9837 19.1784 53.9478 24.2915 56.5433 27.912Z" fill="#407BFF"/>
<path opacity="0.3" d="M56.5433 27.912C55.7428 27.7602 54.9874 27.4281 54.3344 26.9409C54.3344 27.8191 53.735 29.3386 53.735 29.3386C50.9447 28.4185 48.6399 22.8319 48.3402 20.9797C46.7847 23.8659 46.9196 22.2055 46.7997 20.9797C46.6259 19.2144 46.5809 17.3832 47.1833 15.7198C47.7857 14.0564 49.1614 12.5668 50.9087 12.2791C51.2343 12.2493 51.562 12.3073 51.8577 12.4469C52.1534 12.5866 52.4063 12.8029 52.5901 13.0733C52.8896 13.6106 53.0858 14.1992 53.1685 14.8087C53.9837 19.1784 53.9478 24.2915 56.5433 27.912Z" fill="black"/>
<path d="M52.5843 17.8718C54.7213 17.9198 56.025 20.6142 56.2528 22.4574C56.5195 24.5104 55.1409 26.1978 53.1598 25.2897C52.4211 24.947 51.7583 24.4604 51.2102 23.8582C50.6621 23.2561 50.2397 22.5506 49.9679 21.783C49.3085 19.8679 50.4444 17.8269 52.5843 17.8718Z" fill="#407BFF"/>
<path opacity="0.7" d="M52.5843 17.8718C54.7213 17.9198 56.025 20.6142 56.2528 22.4574C56.5195 24.5104 55.1409 26.1978 53.1598 25.2897C52.4211 24.947 51.7583 24.4604 51.2102 23.8582C50.6621 23.2561 50.2397 22.5506 49.9679 21.783C49.3085 19.8679 50.4444 17.8269 52.5843 17.8718Z" fill="white"/>
<path d="M56.864 11.5868C57.4248 12.1902 57.8434 12.9114 58.0892 13.6976C58.335 14.4838 58.4018 15.315 58.2846 16.1304C58.0388 17.7518 55.7371 20.3923 55.845 20.2334C55.9384 20.0625 55.9722 19.8652 55.9409 19.673C55.8877 18.9399 55.7008 18.2228 55.3894 17.557C55.1946 18.4561 54.8979 20.3413 53.9718 20.3533C53.6031 19.6849 53.1506 19.0735 53.2135 18.3093C53.0007 19.0915 52.8059 19.8768 52.5901 20.656C50.7919 19.583 49.653 17.1134 50.0246 15.0514C50.1064 14.5495 50.2867 14.0688 50.5551 13.6368C50.8903 13.1611 51.2943 12.7379 51.7539 12.381C52.9258 11.386 54.4813 10.3939 55.8989 10.9874C56.1057 11.0743 56.9209 11.371 56.864 11.5868Z" fill="#407BFF"/>
<path opacity="0.3" d="M56.864 11.5868C57.4248 12.1902 57.8434 12.9114 58.0892 13.6976C58.335 14.4838 58.4018 15.315 58.2846 16.1304C58.0388 17.7518 55.7371 20.3923 55.845 20.2334C55.9384 20.0625 55.9722 19.8652 55.9409 19.673C55.8877 18.9399 55.7008 18.2228 55.3894 17.557C55.1946 18.4561 54.8979 20.3413 53.9718 20.3533C53.6031 19.6849 53.1506 19.0735 53.2135 18.3093C53.0007 19.0915 52.8059 19.8768 52.5901 20.656C50.7919 19.583 49.653 17.1134 50.0246 15.0514C50.1064 14.5495 50.2867 14.0688 50.5551 13.6368C50.8903 13.1611 51.2943 12.7379 51.7539 12.381C52.9258 11.386 54.4813 10.3939 55.8989 10.9874C56.1057 11.0743 56.9209 11.371 56.864 11.5868Z" fill="black"/>
<path d="M68.4448 24.0129C68.4448 24.0129 66.6136 23.2696 61.2158 22.6252C61.5155 24.5853 62.7144 25.4126 65.4747 25.7123C68.235 26.012 68.4448 24.0129 68.4448 24.0129Z" fill="#263238"/>
<path d="M68.2051 23.9439C68.122 24.1586 67.9848 24.3483 67.8068 24.4943C67.6287 24.6403 67.4159 24.7377 67.189 24.7771C65.5953 24.5832 64.0243 24.2339 62.4986 23.7341C62.2404 23.6752 62.0042 23.5442 61.8174 23.3564C61.6307 23.1686 61.5011 22.9316 61.4436 22.6731C63.7316 22.889 65.9949 23.3143 68.2051 23.9439Z" fill="white"/>
<path d="M67.0812 24.6122C65.7201 24.0638 64.2826 23.7282 62.8193 23.6172C62.4083 23.6592 62.017 23.8148 61.6895 24.0668C62.2889 25.0378 63.4877 25.5203 65.4598 25.7421C66.2 25.8715 66.9621 25.7323 67.6087 25.3495C67.4669 25.0811 67.2894 24.8331 67.0812 24.6122Z" fill="white"/>
<path d="M71.9755 36.9513C71.7417 39.1244 70.9281 41.1947 69.6198 42.9455C69.5238 43.0744 69.4279 43.2032 69.32 43.3291C66.4069 47.0186 61.1709 48.1634 56.8161 46.2243C55.4371 45.6262 54.1133 44.9082 52.86 44.0784C50.3903 42.418 48.2594 40.1102 47.2554 37.4008L54.913 36.4148L60.1609 35.7524L63.7394 36.1181L71.9755 36.9513Z" fill="#FFB573"/>
<path d="M34.113 41.8547C33.8133 64.333 17.2214 83.8142 15.51 106.241H97.8434C89.66 88.7079 84.5312 69.9055 82.6781 50.6452L81.4043 37.395H39.2681C39.2681 37.395 34.14 39.6488 34.113 41.8547Z" fill="#407BFF"/>
<path opacity="0.6" d="M34.113 41.8547C33.8133 64.333 17.2214 83.8142 15.51 106.241H97.8434C89.66 88.7079 84.5312 69.9055 82.6781 50.6452L81.4043 37.395H39.2681C39.2681 37.395 34.14 39.6488 34.113 41.8547Z" fill="white"/>
<path opacity="0.2" d="M25.754 106.208C25.754 106.208 25.2744 83.0648 32.947 59.1179C40.6196 35.1711 30.9929 66.311 32.4705 94.0432C32.8961 102.042 34.994 106.331 34.994 106.331L25.754 106.208Z" fill="white"/>
<path opacity="0.2" d="M90.2909 106.331C90.2909 106.331 80.2296 83.0048 78.4223 52.2156C78.4223 52.2156 75.9587 79.4622 84.4585 106.241L90.2909 106.331Z" fill="white"/>
<path d="M87.5994 33.5556C87.64 33.5355 87.6821 33.5185 87.7253 33.5046L87.6773 33.5256L87.5994 33.5556Z" fill="#407BFF"/>
<path d="M88.2618 33.3098L88.052 33.3877L87.8752 33.4507H87.8482L87.7253 33.4956C87.8962 33.4327 88.076 33.3728 88.2618 33.3098Z" fill="#407BFF"/>
<path d="M109.757 34.5028C109.757 42.7268 94.9992 47.9028 88.4146 49.803C82.1686 51.9009 78.4222 52.2156 78.4222 52.2156C78.1944 50.0397 73.48 37.2901 73.48 37.2901C73.48 37.2901 76.2973 36.0912 78.3173 36.271H78.3683C80.7326 36.4578 83.0975 35.916 85.1447 34.7185C85.8891 34.2887 86.6645 33.915 87.4645 33.6006L87.5993 33.5497L87.6773 33.5197L87.8481 33.4538H87.8751L88.0519 33.3908L88.2617 33.3129L88.5105 33.232L88.5854 33.208L88.6633 33.184H88.7203H88.7412C89.3242 33.0083 89.9166 32.8653 90.5155 32.7554C92.2701 32.4112 94.0882 32.6206 95.7185 33.3549C96.0281 33.5063 96.3705 33.5782 96.7148 33.564C97.0591 33.5499 97.3945 33.4502 97.6906 33.2739C97.9903 33.0791 98.1162 32.8753 97.8284 32.7135L83.814 16.691L88.0849 14.3442C88.0849 14.3442 109.757 25.7872 109.757 34.5028Z" fill="#407BFF"/>
<path d="M109.757 34.5028C109.757 42.7268 94.9992 47.9028 88.4146 49.803C82.1686 51.9009 78.4222 52.2156 78.4222 52.2156C78.1944 50.0397 73.48 37.2901 73.48 37.2901C73.48 37.2901 76.2973 36.0912 78.3173 36.271H78.3683C80.7326 36.4578 83.0975 35.916 85.1447 34.7185C85.8891 34.2887 86.6645 33.915 87.4645 33.6006L87.5993 33.5497L87.6773 33.5197L87.8481 33.4538H87.8751L88.0519 33.3908L88.2617 33.3129L88.5105 33.232L88.5854 33.208L88.6633 33.184H88.7203H88.7412C89.3242 33.0083 89.9166 32.8653 90.5155 32.7554C92.2701 32.4112 94.0882 32.6206 95.7185 33.3549C96.0281 33.5063 96.3705 33.5782 96.7148 33.564C97.0591 33.5499 97.3945 33.4502 97.6906 33.2739C97.9903 33.0791 98.1162 32.8753 97.8284 32.7135L83.814 16.691L88.0849 14.3442C88.0849 14.3442 109.757 25.7872 109.757 34.5028Z" fill="#407BFF"/>
<g opacity="0.3">
<path d="M109.757 34.5028C109.757 42.7268 94.9992 47.9028 88.4146 49.803C82.1686 51.9009 78.4222 52.2156 78.4222 52.2156C78.1944 50.0397 73.48 37.2901 73.48 37.2901C73.48 37.2901 76.2973 36.0912 78.3173 36.271H78.3683C80.7326 36.4578 83.0975 35.916 85.1447 34.7185C85.8891 34.2887 86.6645 33.915 87.4645 33.6006L87.5993 33.5497L87.6773 33.5197L87.8481 33.4538H87.8751L88.0519 33.3908L88.2617 33.3129L88.5105 33.232L88.5854 33.208L88.6633 33.184H88.7203H88.7412C89.3242 33.0083 89.9166 32.8653 90.5155 32.7554C92.2701 32.4112 94.0882 32.6206 95.7185 33.3549C96.0281 33.5063 96.3705 33.5782 96.7148 33.564C97.0591 33.5499 97.3945 33.4502 97.6906 33.2739C97.9903 33.0791 98.1162 32.8753 97.8284 32.7135L83.814 16.691L88.0849 14.3442C88.0849 14.3442 109.757 25.7872 109.757 34.5028Z" fill="white"/>
</g>
<path d="M84.9679 17.0985L78.9976 14.7338L75.4011 9.93844L80.5651 8.77856L85.4504 11.3111L88.3816 14.497C88.5181 14.6451 88.6151 14.8252 88.6636 15.0206C88.7121 15.2161 88.7106 15.4206 88.6592 15.6153C88.6079 15.8101 88.5083 15.9887 88.3697 16.1348C88.231 16.2809 88.0578 16.3897 87.8661 16.4511L85.7681 17.1195C85.5068 17.2044 85.2243 17.197 84.9679 17.0985Z" fill="#407BFF"/>
<path opacity="0.7" d="M84.9679 17.0985L78.9976 14.7338L75.4011 9.93844L80.5651 8.77856L85.4504 11.3111L88.3816 14.497C88.5181 14.6451 88.6151 14.8252 88.6636 15.0206C88.7121 15.2161 88.7106 15.4206 88.6592 15.6153C88.6079 15.8101 88.5083 15.9887 88.3697 16.1348C88.231 16.2809 88.0578 16.3897 87.8661 16.4511L85.7681 17.1195C85.5068 17.2044 85.2243 17.197 84.9679 17.0985Z" fill="white"/>
<path opacity="0.2" d="M81.0596 45.6609L81.659 51.724C81.659 51.724 90.4974 49.671 95.4966 47.3872L91.4805 47.606C88.1588 47.8324 84.8345 47.2051 81.8238 45.7838L81.0596 45.6609Z" fill="black"/>
<path d="M82.1177 51.5831C82.0308 70.8815 78.4853 72.7037 78.6531 89.3137C78.6531 89.3137 45.2384 89.4486 44.1055 89.4785C41.4081 67.1261 38.6597 66.1011 39.385 48.9367C39.0344 43.2991 42.2323 38.3419 45.4512 37.6976L60.161 35.7524L74.3133 37.251C77.9128 37.7545 81.1617 40.5898 82.1177 51.5831Z" fill="#407BFF"/>
<path opacity="0.3" d="M82.1177 51.5831C82.0308 70.8815 78.4853 72.7037 78.6531 89.3137C78.6531 89.3137 45.2384 89.4486 44.1055 89.4785C41.4081 67.1261 38.6597 66.1011 39.385 48.9367C39.0344 43.2991 42.2323 38.3419 45.4512 37.6976L60.161 35.7524L74.3133 37.251C77.9128 37.7545 81.1617 40.5898 82.1177 51.5831Z" fill="white"/>
<path d="M57.988 13.8947C57.0889 11.9166 55.89 10.9605 56.5853 11.0654C58.4615 11.3651 59.6094 9.71674 60.9881 10.6458C61.6594 11.4131 60.8862 12.8397 60.8562 12.7618C61.5426 13.0885 62.4027 12.8307 62.9692 12.3272C63.5356 11.8237 63.7334 10.9426 64.0122 10.2292C64.2207 10.9963 64.202 11.8074 63.9582 12.564C64.4528 12.9566 65.4718 12.2193 65.9363 11.7907C66.3969 11.2973 66.7419 10.7076 66.9463 10.0644C67.1202 10.7537 67.246 11.4551 66.7635 12.2853C67.4648 12.3242 68.3879 12.1084 68.8615 11.5839C69.1027 11.3107 69.2813 10.9881 69.3848 10.6387C69.4884 10.2892 69.5143 9.92141 69.4609 9.56089C69.6198 9.91455 69.6437 11.3592 69.329 11.6019C70.5279 11.2093 71.6398 9.71075 71.5769 8.46095C71.5209 7.83344 71.3136 7.22887 70.9727 6.69904C70.6319 6.16922 70.1676 5.72995 69.6197 5.41889C69.0833 5.0982 68.4868 4.88841 67.9234 4.61267C67.0572 4.18708 61.5545 0.0810528 53.4773 4.76253C48.4602 7.66972 49.4403 13.4541 50.0367 14.0835C50.777 14.8598 51.9428 15.1205 53.0338 15.0126C54.1247 14.9047 58.2188 14.4192 57.988 13.8947Z" fill="#407BFF"/>
<path opacity="0.3" d="M57.988 13.8947C57.0889 11.9166 55.89 10.9605 56.5853 11.0654C58.4615 11.3651 59.6094 9.71674 60.9881 10.6458C61.6594 11.4131 60.8862 12.8397 60.8562 12.7618C61.5426 13.0885 62.4027 12.8307 62.9692 12.3272C63.5356 11.8237 63.7334 10.9426 64.0122 10.2292C64.2207 10.9963 64.202 11.8074 63.9582 12.564C64.4528 12.9566 65.4718 12.2193 65.9363 11.7907C66.3969 11.2973 66.7419 10.7076 66.9463 10.0644C67.1202 10.7537 67.246 11.4551 66.7635 12.2853C67.4648 12.3242 68.3879 12.1084 68.8615 11.5839C69.1027 11.3107 69.2813 10.9881 69.3848 10.6387C69.4884 10.2892 69.5143 9.92141 69.4609 9.56089C69.6198 9.91455 69.6437 11.3592 69.329 11.6019C70.5279 11.2093 71.6398 9.71075 71.5769 8.46095C71.5209 7.83344 71.3136 7.22887 70.9727 6.69904C70.6319 6.16922 70.1676 5.72995 69.6197 5.41889C69.0833 5.0982 68.4868 4.88841 67.9234 4.61267C67.0572 4.18708 61.5545 0.0810528 53.4773 4.76253C48.4602 7.66972 49.4403 13.4541 50.0367 14.0835C50.777 14.8598 51.9428 15.1205 53.0338 15.0126C54.1247 14.9047 58.2188 14.4192 57.988 13.8947Z" fill="black"/>
<path d="M68.4448 24.0129C68.4448 24.0129 66.6136 23.2696 61.2158 22.6252C61.5155 24.5853 62.7144 25.4126 65.4747 25.7123C68.235 26.012 68.4448 24.0129 68.4448 24.0129Z" fill="#407BFF"/>
<path opacity="0.3" d="M68.4448 24.0129C68.4448 24.0129 66.6136 23.2696 61.2158 22.6252C61.5155 24.5853 62.7144 25.4126 65.4747 25.7123C68.235 26.012 68.4448 24.0129 68.4448 24.0129Z" fill="black"/>
<path d="M68.2051 23.9439C68.122 24.1586 67.9848 24.3483 67.8068 24.4943C67.6287 24.6403 67.4159 24.7377 67.189 24.7771C65.5953 24.5832 64.0243 24.2339 62.4986 23.7341C62.2404 23.6752 62.0042 23.5442 61.8174 23.3564C61.6307 23.1686 61.5011 22.9316 61.4436 22.6731C63.7316 22.889 65.9949 23.3143 68.2051 23.9439Z" fill="white"/>
<path d="M67.0812 24.6122C65.7201 24.0638 64.2826 23.7282 62.8193 23.6172C62.4083 23.6592 62.017 23.8148 61.6895 24.0668C62.2889 25.0378 63.4877 25.5203 65.4598 25.7421C66.2 25.8715 66.9621 25.7323 67.6087 25.3495C67.4669 25.0811 67.2894 24.8331 67.0812 24.6122Z" fill="white"/>
<path d="M42.3701 80.9667C42.3701 80.9667 49.4343 77.2203 49.3953 77.6279C49.3563 78.0355 49.5422 85.9689 49.5422 85.9689L41.8396 85.804L42.3701 80.9667Z" fill="#407BFF"/>
<path d="M49.3982 77.6282C49.3982 77.6282 55.9049 77.844 55.8689 78.5663C55.833 79.2886 55.1317 85.3487 55.1317 85.3487L49.545 85.9691L49.3982 77.6282Z" fill="#407BFF"/>
<g opacity="0.7">
<path d="M55.8571 78.5661C55.8211 79.2914 55.1228 85.3486 55.1228 85.3486L49.5362 85.969L41.8396 85.8041L42.3701 80.9788C42.3701 80.9788 49.4373 77.2324 49.3983 77.643C49.3983 77.631 55.905 77.8438 55.8571 78.5661Z" fill="white"/>
</g>
<path d="M71.9755 36.9513C71.7417 39.1244 70.9281 41.1947 69.6198 42.9455C69.5238 43.0744 69.4279 43.2032 69.32 43.3291C66.4069 47.0186 61.1709 48.1634 56.8161 46.2243C55.4371 45.6262 54.1133 44.9082 52.86 44.0784C50.3903 42.418 48.2594 40.1102 47.2554 37.4008L54.913 36.4148L60.1609 35.7524L63.7394 36.1181L71.9755 36.9513Z" fill="#407BFF"/>
<path opacity="0.7" d="M71.9755 36.9513C71.7417 39.1244 70.9281 41.1947 69.6198 42.9455C69.5238 43.0744 69.4279 43.2032 69.32 43.3291C66.4069 47.0186 61.1709 48.1634 56.8161 46.2243C55.4371 45.6262 54.1133 44.9082 52.86 44.0784C50.3903 42.418 48.2594 40.1102 47.2554 37.4008L54.913 36.4148L60.1609 35.7524L63.7394 36.1181L71.9755 36.9513Z" fill="white"/>
<path opacity="0.2" d="M39.4329 56.4085C39.4454 59.7787 39.7462 63.1418 40.332 66.4608L42.8346 50.8398L39.4329 56.4085Z" fill="black"/>
<path d="M25.8681 67.7105L42.6069 79.537L41.8396 86.4933C41.8396 86.4933 16.7209 80.7089 12.9146 72.8805C11.1403 69.224 13.1394 64.7523 16.2324 60.6163C16.2338 60.6114 16.2338 60.6062 16.2324 60.6013C19.9098 54.5861 23.2516 51.0106 25.7722 48.9126C28.2444 46.9003 30.3924 44.5197 32.141 41.8544C36.4778 35.042 46.2274 37.8024 46.2274 37.8024C44.0066 42.9993 43.9826 52.8838 43.9826 52.8838C43.9826 52.8838 41.8037 54.5262 39.424 56.4234C39.4 58.0268 38.4259 59.9899 36.5438 62.2078C34.0682 65.124 26.7133 66.7844 25.8681 67.7105Z" fill="#407BFF"/>
<path opacity="0.3" d="M25.8681 67.7105L42.6069 79.537L41.8396 86.4933C41.8396 86.4933 16.7209 80.7089 12.9146 72.8805C11.1403 69.224 13.1394 64.7523 16.2324 60.6163C16.2338 60.6114 16.2338 60.6062 16.2324 60.6013C19.9098 54.5861 23.2516 51.0106 25.7722 48.9126C28.2444 46.9003 30.3924 44.5197 32.141 41.8544C36.4778 35.042 46.2274 37.8024 46.2274 37.8024C44.0066 42.9993 43.9826 52.8838 43.9826 52.8838C43.9826 52.8838 41.8037 54.5262 39.424 56.4234C39.4 58.0268 38.4259 59.9899 36.5438 62.2078C34.0682 65.124 26.7133 66.7844 25.8681 67.7105Z" fill="white"/>
<path d="M38.5129 35.7735C43.8048 40.1748 49.8176 43.6283 56.2858 45.9817C56.2858 43.9496 55.6384 39.8526 54.4875 37.311C54.1608 36.5977 53.7472 35.8814 53.0788 35.4678C52.4105 35.0542 51.4304 35.0632 50.9329 35.6716C49.0328 34.3289 45.9068 34.266 44.0636 35.6716C42.637 35.1771 40.6109 34.3919 39.1243 34.6586C37.6378 34.9253 35.8036 36.9064 36.0283 38.402C37.3985 37.7457 38.8842 37.3649 40.4011 37.2811C39.9935 36.7955 40.3921 37.296 38.5129 35.7735Z" fill="#407BFF"/>
<path opacity="0.6" d="M38.5129 35.7735C43.8048 40.1748 49.8176 43.6283 56.2858 45.9817C56.2858 43.9496 55.6384 39.8526 54.4875 37.311C54.1608 36.5977 53.7472 35.8814 53.0788 35.4678C52.4105 35.0542 51.4304 35.0632 50.9329 35.6716C49.0328 34.3289 45.9068 34.266 44.0636 35.6716C42.637 35.1771 40.6109 34.3919 39.1243 34.6586C37.6378 34.9253 35.8036 36.9064 36.0283 38.402C37.3985 37.7457 38.8842 37.3649 40.4011 37.2811C39.9935 36.7955 40.3921 37.296 38.5129 35.7735Z" fill="white"/>
<path d="M76.9715 36.2859C76.1125 35.8962 75.18 35.6946 74.2367 35.6946C73.2934 35.6946 72.3609 35.8962 71.5018 36.2859C70.327 35.4257 68.5047 35.2429 67.3059 36.0671C67.1149 35.8387 66.8786 35.6526 66.6118 35.5205C66.3451 35.3884 66.0538 35.3133 65.7564 35.2998C65.157 35.2789 64.7733 35.6925 64.3657 36.121C65.2289 36.5556 65.6665 37.5237 65.9722 38.4408C66.7504 40.7643 67.0809 43.2142 66.9462 45.6608C71.0912 43.6408 74.5978 40.2481 76.9715 36.2859Z" fill="#407BFF"/>
<path opacity="0.6" d="M76.9715 36.2859C76.1125 35.8962 75.18 35.6946 74.2367 35.6946C73.2934 35.6946 72.3609 35.8962 71.5018 36.2859C70.327 35.4257 68.5047 35.2429 67.3059 36.0671C67.1149 35.8387 66.8786 35.6526 66.6118 35.5205C66.3451 35.3884 66.0538 35.3133 65.7564 35.2998C65.157 35.2789 64.7733 35.6925 64.3657 36.121C65.2289 36.5556 65.6665 37.5237 65.9722 38.4408C66.7504 40.7643 67.0809 43.2142 66.9462 45.6608C71.0912 43.6408 74.5978 40.2481 76.9715 36.2859Z" fill="white"/>
<path opacity="0.5" d="M76.1623 59.6423C76.1623 64.1949 69.6826 72.332 61.6893 72.332C53.6961 72.332 47.2163 64.1949 47.2163 59.6423C47.2163 55.0897 53.6961 51.3972 61.6893 51.3972C69.6826 51.3972 76.1623 55.0867 76.1623 59.6423Z" fill="white"/>
<path d="M74.2172 60.029C74.2172 63.7814 68.8793 70.4829 62.2947 70.4829C55.7101 70.4829 50.3752 63.7844 50.3752 60.029C50.3752 56.2736 55.7131 53.2375 62.2947 53.2375C68.8764 53.2375 74.2172 56.2826 74.2172 60.029Z" fill="#407BFF"/>
<path opacity="0.5" d="M74.2172 60.029C74.2172 63.7814 68.8793 70.4829 62.2947 70.4829C55.7101 70.4829 50.3752 63.7844 50.3752 60.029C50.3752 56.2736 55.7131 53.2375 62.2947 53.2375C68.8764 53.2375 74.2172 56.2826 74.2172 60.029Z" fill="white"/>
<path d="M78.6591 89.4814H44.1055V95.119H78.6591V89.4814Z" fill="white"/>
<path d="M44.1054 95.1162L40.7996 106.244H79.7769L78.659 95.1162H44.1054Z" fill="#407BFF"/>
<path opacity="0.2" d="M44.1054 95.1162L40.7996 106.244H79.7769L78.659 95.1162H44.1054Z" fill="white"/>
<path d="M69.7158 89.1189H59.3848V95.2959H69.7158V89.1189Z" fill="#263238"/>
<path opacity="0.7" d="M69.7158 89.1189H59.3848V95.2959H69.7158V89.1189Z" fill="white"/>
<path opacity="0.7" d="M63.7095 89.1189L60.6675 95.2959H62.9183L66.0593 89.1189H63.7095Z" fill="white"/>
<path opacity="0.7" d="M67.0242 89.1189L63.9822 95.2959H65.5916L68.7296 89.1189H67.0242Z" fill="white"/>
<path opacity="0.2" d="M73.1893 15.9956C73.0634 16.8438 72.401 17.9647 71.8076 18.8219C71.904 20.537 71.8034 22.2576 71.5079 23.9499C71.1484 25.943 70.141 27.7617 68.642 29.1236C67.143 30.4855 65.2363 31.3144 63.2179 31.4816C63.1805 32.1605 63.1805 32.8408 63.2179 33.5197C63.2601 34.3978 63.4338 35.2646 63.7334 36.0912L71.9665 36.9304C71.7352 39.1036 70.9224 41.1742 69.6137 42.9246C69.5178 43.0534 69.4189 43.1823 69.314 43.3082C66.4008 46.9976 61.1649 48.1425 56.8101 46.2034C55.433 45.604 54.1112 44.885 52.8599 44.0545C50.3903 42.3941 48.2594 40.0863 47.2553 37.3769L54.9129 36.3909C55.3085 35.27 55.3985 33.5436 55.5783 32.1949C55.7042 31.2748 55.5124 29.2847 55.1347 27.4176C54.8473 27.2748 54.5735 27.1063 54.3165 26.914C54.3165 27.7922 53.7171 29.3117 53.7171 29.3117C50.9238 28.3916 48.622 22.805 48.3223 20.9528C46.7668 23.839 46.9047 22.1786 46.7848 20.9528C46.611 19.1875 46.566 17.3563 47.1684 15.6929C47.5983 14.4559 48.4462 13.4076 49.5661 12.7287C49.2664 10.6967 49.68 6.91736 53.4264 4.74446C61.5186 0.0629861 67.0092 4.16902 67.8754 4.59461C68.4389 4.87034 69.0323 5.08014 69.5718 5.40083C70.1185 5.71326 70.5818 6.15288 70.9225 6.68243C71.2632 7.21198 71.4712 7.81586 71.5289 8.44289C71.5678 9.2581 71.1123 10.1752 70.4589 10.8406C73.2402 11.1912 73.4171 14.4731 73.1893 15.9956Z" fill="white"/>
<path opacity="0.2" d="M67.4349 10.403L67.333 10.2321C67.3721 10.0101 67.3721 9.78287 67.333 9.56079C67.4117 9.83429 67.4461 10.1186 67.4349 10.403Z" fill="white"/>
<path d="M44.8157 97.286C43.9734 97.5587 43.1145 97.7769 42.2442 97.9394H42.2292C42.0944 97.9633 41.9625 97.9873 41.8336 98.0053C41.4363 98.0654 41.0361 98.1054 40.6348 98.1252C34.8354 98.4249 34.6855 93.5816 34.5417 91.115C34.3988 87.8164 34.481 84.5119 34.7874 81.2245C35.189 76.6479 35.9503 71.8915 37.0562 68.337C38.6567 63.2059 41.2522 62.6425 43.455 62.6035C43.8806 62.6035 44.2972 62.6035 44.6868 62.6035C44.6868 62.6035 44.4051 64.0571 44.2703 65.4598L43.3951 71.6728L42.1783 80.3014L41.9894 81.6471V81.722L41.3331 86.4035L41.1802 87.4795C41.1113 88.1958 41.0603 89.2058 41.8426 89.7812C41.9528 89.8665 42.0737 89.9371 42.2022 89.9911C42.7118 90.2158 43.464 90.3117 44.558 90.1829L44.6689 93.2459L44.6898 93.7974L44.7258 94.7505L44.7858 96.4828L44.8157 97.286Z" fill="#FFB573"/>
<path d="M31.6315 79.4772C33.2919 81.3744 34.6286 81.1436 36.9244 81.5033C39.2202 81.8629 41.1983 81.7371 43.518 81.5243C43.9916 75.0715 44.7828 68.6367 44.7169 62.1899C42.8347 62.3308 40.8206 62.2529 39.2771 63.188C37.2211 64.4378 37.0833 67.6477 35.6986 69.9105C34.0622 72.5839 31.9672 74.7748 29.8872 76.9387C30.6425 78.2544 30.6814 78.3833 31.6315 79.4772Z" fill="#407BFF"/>
<g opacity="0.6">
<path d="M31.6315 79.4772C33.2919 81.3744 34.6286 81.1436 36.9244 81.5033C39.2202 81.8629 41.1983 81.7371 43.518 81.5243C43.9916 75.0715 44.7828 68.6367 44.7169 62.1899C42.8347 62.3308 40.8206 62.2529 39.2771 63.188C37.2211 64.4378 37.0833 67.6477 35.6986 69.9105C34.0622 72.5839 31.9672 74.7748 29.8872 76.9387C30.6425 78.2544 30.6814 78.3833 31.6315 79.4772Z" fill="black"/>
</g>
<path opacity="0.2" d="M43.407 71.6729L40.2061 81.7311H44.2462L43.407 71.6729Z" fill="black"/>
<path d="M74.3313 83.1397C73.9656 84.7881 73.5221 86.4036 73.0725 88.4626C72.9766 88.9031 72.8777 89.3617 72.7728 89.8532C72.6379 90.5336 72.506 91.2619 72.3742 92.0531C72.2303 92.9522 72.0895 93.9113 71.9546 94.9783C71.8347 95.9014 71.7238 96.8964 71.6189 97.9754C71.574 98.4459 71.526 98.9315 71.484 99.441C71.4001 100.433 71.3192 101.491 71.2503 102.621C71.1813 103.751 71.1094 105.004 71.0495 106.316C70.0724 106.292 41.1953 106.316 41.1953 106.316C41.3572 104.395 41.495 102.588 41.6269 100.844C41.6958 99.8755 41.7648 98.9285 41.8217 97.9934C41.8228 97.9864 41.8228 97.9793 41.8217 97.9724C41.8397 97.6727 41.8577 97.4029 41.8756 97.1212C41.9176 96.4079 41.9566 95.7036 41.9925 94.9993C42.0795 93.3239 42.1484 91.6635 42.1874 89.9701C42.1874 89.8952 42.1874 89.8263 42.1874 89.7543C42.2113 88.7113 42.2263 87.6564 42.2323 86.5714C42.2323 85.0129 42.2323 83.4035 42.1993 81.7131C42.2009 81.6831 42.2009 81.6531 42.1993 81.6232C42.1993 81.1856 42.1993 80.742 42.1724 80.2925C42.1364 78.9138 42.0885 77.4752 42.0225 75.9617C41.9416 74.0735 41.8367 72.0654 41.7228 69.9255C41.564 67.3929 41.7438 64.0272 43.4611 62.5976C43.6316 62.4553 43.8176 62.3326 44.0156 62.2319C44.3097 62.0812 44.6267 61.98 44.9537 61.9322L54.0199 60.5206L57.1879 60.0291L61.8453 60.9282L72.0655 62.9362C72.1879 62.9595 72.309 62.9895 72.4281 63.0262C73.089 63.2184 73.6683 63.6229 74.0765 64.177C75.1315 65.5887 75.3503 68.0733 75.1405 71.418C75.3863 77.1995 74.9787 80.2205 74.3313 83.1397Z" fill="#407BFF"/>
<path opacity="0.6" d="M74.3313 83.1397C73.9656 84.7881 73.5221 86.4036 73.0725 88.4626C72.9766 88.9031 72.8777 89.3617 72.7728 89.8532C72.6379 90.5336 72.506 91.2619 72.3742 92.0531C72.2303 92.9522 72.0895 93.9113 71.9546 94.9783C71.8347 95.9014 71.7238 96.8964 71.6189 97.9754C71.574 98.4459 71.526 98.9315 71.484 99.441C71.4001 100.433 71.3192 101.491 71.2503 102.621C71.1813 103.751 71.1094 105.004 71.0495 106.316C70.0724 106.292 41.1953 106.316 41.1953 106.316C41.3572 104.395 41.495 102.588 41.6269 100.844C41.6958 99.8755 41.7648 98.9285 41.8217 97.9934C41.8228 97.9864 41.8228 97.9793 41.8217 97.9724C41.8397 97.6727 41.8577 97.4029 41.8756 97.1212C41.9176 96.4079 41.9566 95.7036 41.9925 94.9993C42.0795 93.3239 42.1484 91.6635 42.1874 89.9701C42.1874 89.8952 42.1874 89.8263 42.1874 89.7543C42.2113 88.7113 42.2263 87.6564 42.2323 86.5714C42.2323 85.0129 42.2323 83.4035 42.1993 81.7131C42.2009 81.6831 42.2009 81.6531 42.1993 81.6232C42.1993 81.1856 42.1993 80.742 42.1724 80.2925C42.1364 78.9138 42.0885 77.4752 42.0225 75.9617C41.9416 74.0735 41.8367 72.0654 41.7228 69.9255C41.564 67.3929 41.7438 64.0272 43.4611 62.5976C43.6316 62.4553 43.8176 62.3326 44.0156 62.2319C44.3097 62.0812 44.6267 61.98 44.9537 61.9322L54.0199 60.5206L57.1879 60.0291L61.8453 60.9282L72.0655 62.9362C72.1879 62.9595 72.309 62.9895 72.4281 63.0262C73.089 63.2184 73.6683 63.6229 74.0765 64.177C75.1315 65.5887 75.3503 68.0733 75.1405 71.418C75.3863 77.1995 74.9787 80.2205 74.3313 83.1397Z" fill="black"/>
<path d="M62.25 61.4677C64.0663 62.7625 63.296 64.7975 61.8154 66.4609C58.7314 69.9225 55.5215 70.9985 55.5215 70.9985C55.4736 70.9775 47.5103 65.2231 53.1388 61.6236C54.0679 61.0241 54.4306 59.6095 54.5355 58.1349C54.5964 57.0062 54.5502 55.8742 54.3976 54.7542C54.3706 54.4725 54.3257 54.1967 54.2777 53.936C54.2374 53.6763 54.1823 53.4192 54.1129 53.1657L62.5587 49.6831C61.6296 51.0798 60.9223 55.5574 61.1201 56.999C61.3479 58.6145 61.4108 60.8713 62.25 61.4677Z" fill="#FFB573"/>
<path opacity="0.2" d="M54.5473 58.1348C54.6082 57.0061 54.562 55.8741 54.4094 54.7541C54.3825 54.4724 54.3375 54.1966 54.2896 53.9359L60.8202 52.6831C59.4536 54.0528 57.5294 56.8281 54.5473 58.1348Z" fill="black"/>
<path d="M45.6941 43.3441C45.9069 44.7468 47.8939 47.0276 47.792 46.8897C47.7125 46.7422 47.684 46.5726 47.7111 46.4072C47.7564 45.7727 47.9179 45.152 48.1876 44.576C48.3555 45.3612 48.6102 46.9736 49.4105 46.9946C49.7311 46.4162 50.1208 45.8887 50.0668 45.2293C50.2526 45.9037 50.4205 46.581 50.6063 47.2554C51.397 46.7414 52.0252 46.0131 52.4174 45.1555C52.8096 44.2978 52.9496 43.3463 52.8212 42.412C52.7503 41.9787 52.5956 41.5633 52.3656 41.1892C52.0755 40.7792 51.726 40.4145 51.3286 40.1073C50.3156 39.2471 49.0268 38.5428 47.7321 38.9084C45.3014 39.5918 45.4813 41.9415 45.6941 43.3441Z" fill="#263238"/>
<path d="M47.3903 49.8627C48.4392 55.5782 55.2816 58.5933 59.7983 54.4992C62.4057 52.1405 62.8223 49.3262 63.2959 44.9385C63.3738 44.2731 63.4457 43.5748 63.5326 42.8405C63.6708 41.6828 63.551 40.5088 63.182 39.4028C63.0297 38.9422 62.8288 38.4991 62.5826 38.0811C61.701 36.4877 60.2877 35.2547 58.5895 34.5973C56.8913 33.94 55.0162 33.9001 53.2916 34.4846C47.651 36.3907 46.4402 44.7197 47.3903 49.8627Z" fill="#FFB573"/>
<path d="M52.9409 41.7469C52.899 41.7319 52.8624 41.7047 52.836 41.669C52.7941 41.6124 52.7764 41.5416 52.7865 41.472C52.7966 41.4024 52.8337 41.3396 52.8899 41.2973C53.2271 41.0411 53.6214 40.8704 54.039 40.7999C54.4565 40.7295 54.885 40.7613 55.2876 40.8927C55.3525 40.9193 55.4042 40.9704 55.4317 41.0349C55.4592 41.0994 55.4602 41.1722 55.4345 41.2374C55.4072 41.3032 55.3552 41.3558 55.2897 41.3838C55.2241 41.4118 55.1502 41.413 55.0838 41.3872C54.7645 41.2825 54.4243 41.2575 54.0931 41.3144C53.7619 41.3714 53.4496 41.5085 53.1836 41.7139C53.1496 41.7402 53.1093 41.757 53.0667 41.7628C53.0241 41.7686 52.9807 41.7631 52.9409 41.7469Z" fill="#263238"/>
<path d="M50.0458 42.1573C50.0174 42.1235 49.9815 42.0969 49.9408 42.0797C49.9002 42.0625 49.856 42.0552 49.812 42.0584C49.4691 42.1017 49.1208 42.0646 48.7947 41.9502C48.4686 41.8358 48.1735 41.6471 47.9328 41.3991C47.8862 41.3442 47.82 41.3097 47.7483 41.303C47.6767 41.2962 47.6052 41.3178 47.5492 41.3631C47.4954 41.4096 47.4613 41.4749 47.4541 41.5457C47.4468 41.6164 47.4669 41.6873 47.5102 41.7437C47.8065 42.062 48.1747 42.3047 48.5841 42.4512C48.9935 42.5977 49.432 42.6439 49.863 42.5859C49.8994 42.5833 49.9349 42.5734 49.9674 42.5568C49.9999 42.5402 50.0287 42.5173 50.0522 42.4893C50.0757 42.4614 50.0933 42.429 50.1041 42.3941C50.1148 42.3592 50.1184 42.3225 50.1147 42.2862C50.1018 42.2386 50.0782 42.1945 50.0458 42.1573Z" fill="#263238"/>
<path d="M51.0618 48.2024C50.239 48.2108 49.4382 47.9368 48.793 47.4261C49.6711 46.5539 50.6542 45.5739 51.2596 44.4919L51.0618 48.2024Z" fill="#ED893E"/>
<path d="M49.0237 44.8187C48.7993 44.8009 48.5807 44.7388 48.3806 44.6359C48.1804 44.533 48.0027 44.3914 47.8578 44.2193C47.8442 44.2049 47.8336 44.188 47.8265 44.1695C47.8195 44.1511 47.8162 44.1314 47.8167 44.1116C47.8173 44.0919 47.8217 44.0724 47.8298 44.0544C47.8378 44.0363 47.8494 44.02 47.8638 44.0065C47.8781 43.9929 47.895 43.9823 47.9135 43.9752C47.932 43.9682 47.9517 43.9648 47.9714 43.9654C47.9912 43.9659 48.0106 43.9704 48.0287 43.9785C48.0467 43.9865 48.063 43.9981 48.0766 44.0125C48.4092 44.3631 48.9307 44.7108 49.5212 44.3661C49.5381 44.3538 49.5575 44.3451 49.578 44.3408C49.5985 44.3364 49.6197 44.3364 49.6402 44.3407C49.6607 44.345 49.6801 44.3536 49.6971 44.3659C49.7141 44.3782 49.7283 44.3939 49.7389 44.412C49.7494 44.4301 49.756 44.4503 49.7583 44.4711C49.7605 44.4919 49.7584 44.513 49.752 44.533C49.7456 44.553 49.7351 44.5714 49.7212 44.587C49.7072 44.6027 49.6901 44.6152 49.671 44.6239C49.4767 44.7458 49.253 44.8131 49.0237 44.8187Z" fill="#263238"/>
<path d="M54.2387 49.5871C53.8166 49.9109 53.334 50.1469 52.8193 50.2812C52.3045 50.4156 51.7681 50.4455 51.2416 50.3693C51.2064 50.3643 51.1742 50.3466 51.1511 50.3196C51.1279 50.2925 51.1154 50.258 51.1157 50.2225C51.118 50.188 51.1338 50.1558 51.1596 50.1329C51.1853 50.1099 51.2191 50.0979 51.2536 50.0996C51.8277 50.1809 52.4127 50.1291 52.9636 49.9482C53.5144 49.7674 54.0163 49.4623 54.4305 49.0566C54.4551 49.033 54.4879 49.0198 54.5219 49.0198C54.556 49.0198 54.5888 49.033 54.6133 49.0566C54.6369 49.083 54.65 49.1171 54.65 49.1525C54.65 49.1879 54.6369 49.222 54.6133 49.2484C54.4995 49.3703 54.3746 49.4832 54.2387 49.5871Z" fill="#263238"/>
<path d="M60.3137 53.2735C61.0056 53.144 61.6586 52.858 62.2229 52.4373C62.2229 53.1955 62.7324 54.4963 62.7324 54.4963C65.1301 53.702 67.1321 48.8737 67.3989 47.2733C68.7416 49.7668 68.6247 48.3342 68.7296 47.2733C68.8794 45.7477 68.9184 44.1683 68.3969 42.7296C67.8754 41.291 66.6886 40.0053 65.178 39.7565C64.8972 39.7299 64.6144 39.7793 64.3592 39.8995C64.104 40.0198 63.8858 40.2064 63.7274 40.4399C63.4667 40.903 63.2969 41.4116 63.2269 41.9384C62.5256 45.7267 62.5556 50.1385 60.3137 53.2735Z" fill="#263238"/>
<path d="M63.7363 44.5999C61.8901 44.6388 60.7632 46.9676 60.5654 48.562C60.3346 50.3333 61.5275 51.7929 63.2388 51.0077C63.8769 50.7114 64.4495 50.2909 64.9229 49.7706C65.3964 49.2503 65.7613 48.6407 65.9962 47.9776C66.5686 46.3292 65.5826 44.5579 63.7363 44.5999Z" fill="#FFB573"/>
<path opacity="0.2" d="M68.8585 74.0017C68.8585 74.0017 66.6167 84.1469 68.1722 90.27C69.7277 96.3931 72.8327 99.4801 72.8327 99.4801L73.3871 74.0047L68.8585 74.0017Z" fill="black"/>
<path opacity="0.2" d="M72.8326 99.4799C72.3919 99.5851 71.9315 99.5748 71.4959 99.4499C71.412 100.442 71.3311 101.5 71.2622 102.63C69.4639 103.586 61.5246 100.778 54.5503 97.9753C53.0128 97.3549 51.5232 96.7375 50.1595 96.1591C49.674 95.9583 49.2095 95.7575 48.7629 95.5597C47.8368 95.164 46.9916 94.7954 46.2543 94.4717C45.6549 94.211 45.1274 93.9772 44.6898 93.7794C43.7907 93.3748 43.2512 93.135 43.2512 93.135L44.6688 93.2279L55.875 93.9412L58.7672 94.1301L59.3487 94.163L62.9452 94.3938L65.3908 94.5496H65.5197L67.8904 94.7025L69.8235 94.8254L71.9815 94.9632L72.8476 95.0202C72.8476 95.0202 72.8956 95.6196 72.9106 96.6236V96.6596C72.9046 97.4179 72.8956 98.374 72.8326 99.4799Z" fill="black"/>
<path d="M77.4362 83.1788C76.9926 87.8663 76.3393 92.4968 75.7998 95.5358C75.4251 97.6518 74.2293 99.1324 72.8267 99.486C72.3859 99.5913 71.9255 99.581 71.4899 99.4561C71.424 99.4381 71.3611 99.4171 71.2951 99.3931L60.5655 96.6268L60.4756 96.5998L59.3247 96.3001L59.3427 94.1722V94.0013V93.1591L59.3667 90.5007L60.8173 90.5786L67.9054 90.9563C68.0489 90.997 68.2001 91.0022 68.346 90.9713C68.9454 90.8574 69.4699 90.1381 69.5448 89.191L69.6827 87.135L69.9824 82.6003L70.5608 73.9957L71.1003 66.0234C71.1573 65.1638 71.2917 64.3112 71.5019 63.4758C72.4025 63.5146 73.2817 63.7618 74.0705 64.1981C75.7398 65.0973 77.5531 67.0064 77.8468 70.9206C78.0956 74.1755 77.8678 78.7011 77.4362 83.1788Z" fill="#FFB573"/>
<path d="M64.5697 97.3971L48.8229 94.358C48.3937 94.223 47.9383 94.1932 47.4952 94.2711L43.0595 95.0324C42.5832 95.1147 42.0937 95.0736 41.6377 94.9131C41.1818 94.7525 40.7746 94.4779 40.455 94.1152L38.357 91.7355C38.1044 91.4492 37.912 91.1149 37.7913 90.7526C37.6706 90.3902 37.6241 90.0073 37.6546 89.6267C37.6851 89.246 37.7919 88.8754 37.9687 88.5369C38.1455 88.1984 38.3887 87.899 38.6837 87.6565L39.436 87.0421C39.9246 86.6406 40.5336 86.4142 41.1658 86.399C41.7981 86.3838 42.4172 86.5806 42.9246 86.9582C43.437 87.3395 44.0635 87.536 44.7019 87.5156H44.9626C45.5551 87.4972 46.1385 87.6652 46.6305 87.9959C47.1224 88.3265 47.4983 88.8033 47.705 89.3588L47.9507 90.0152L60.7873 90.5067L64.5697 97.3971Z" fill="#FFB573"/>
<path opacity="0.1" d="M45.6938 90.3897C46.4461 90.2429 47.1924 90.123 47.9476 90.0001L47.7049 89.3527C47.4981 88.7971 47.1223 88.3204 46.6303 87.9898C46.1384 87.6591 45.555 87.4911 44.9625 87.5095H44.7018C44.0634 87.5299 43.4369 87.3334 42.9245 86.952C42.4171 86.5745 41.798 86.3777 41.1657 86.3929C40.5335 86.4081 39.9245 86.6345 39.4359 87.036L38.6836 87.6504C38.1973 88.0505 37.8575 88.6007 37.7176 89.2147C37.5777 89.8287 37.6454 90.4718 37.9103 91.0431C39.3459 91.181 44.498 90.6205 45.6938 90.3897Z" fill="black"/>
<path opacity="0.2" d="M69.5059 94.1689C68.9776 94.3931 68.4337 94.5784 67.8784 94.7233C66.8325 95.023 65.3909 95.4007 63.7095 95.8203C62.7084 96.069 61.6115 96.3298 60.4876 96.5995C58.6054 97.0491 56.5914 97.5196 54.5713 97.9782C49.2994 99.177 44.0964 100.325 41.6598 100.855C41.7287 99.8873 41.7977 98.9403 41.8546 98.0052C41.4573 98.0653 41.0571 98.1053 40.6558 98.125V98.0531L40.7487 97.3908L41.8906 97.133L44.7858 96.4736L48.7629 95.5745L51.6761 94.9122L55.872 93.9561L59.3547 93.1648L61.9262 92.5804L63.8533 92.1428C63.8533 92.1428 67.3689 92.5055 69.0593 93.0989C69.9434 93.3986 70.3241 93.7613 69.5059 94.1689Z" fill="black"/>
<path d="M36.4299 89.8773L60.5956 89.4277C61.0432 89.3927 61.4759 89.2509 61.8574 89.0141L65.6877 86.6434C66.0982 86.3884 66.5672 86.243 67.0499 86.221C67.5326 86.1989 68.013 86.301 68.445 86.5175L71.2803 87.9351C71.6208 88.106 71.9235 88.3435 72.1704 88.6336C72.4174 88.9236 72.6036 89.2604 72.7179 89.6238C72.8322 89.9872 72.8724 90.3699 72.836 90.7491C72.7996 91.1283 72.6874 91.4964 72.5061 91.8314L72.0415 92.6975C71.7384 93.2526 71.2584 93.6904 70.6779 93.9413C70.0973 94.1922 69.4496 94.2418 68.8376 94.0822C68.2202 93.9204 64.342 94.5528 63.5088 93.6566L63.0502 93.1351L43.8268 97.6608C42.4627 97.9818 41.0604 98.1099 39.6608 98.0414L36.4299 89.8773Z" fill="#FFB573"/>
<path d="M83.8559 81.809C83.1996 82.2818 82.4424 82.5958 81.6441 82.7261C76.4321 83.5923 73.1323 83.1547 68.9333 82.4264C68.1931 75.4581 68.3789 70.0663 69.7156 66.1821C70.1622 64.8874 71.4389 63.0022 72.8086 63.0591C78.614 63.3019 79.6 69.1402 80.2624 71.8346C81.0861 75.2826 82.2914 78.628 83.8559 81.809Z" fill="#407BFF"/>
<path opacity="0.6" d="M83.8559 81.809C83.1996 82.2818 82.4424 82.5958 81.6441 82.7261C76.4321 83.5923 73.1323 83.1547 68.9333 82.4264C68.1931 75.4581 68.3789 70.0663 69.7156 66.1821C70.1622 64.8874 71.4389 63.0022 72.8086 63.0591C78.614 63.3019 79.6 69.1402 80.2624 71.8346C81.0861 75.2826 82.2914 78.628 83.8559 81.809Z" fill="black"/>
<path d="M59.0459 41.8276C59.7592 39.9814 60.8082 39.0553 60.1878 39.1812C58.5094 39.5258 57.4095 38.0722 56.2046 38.9804C55.6322 39.7087 56.3875 40.9824 56.4145 40.9105C55.815 41.2372 55.0208 41.0364 54.4903 40.6108C53.9598 40.1852 53.759 39.364 53.4593 38.7496C53.3066 39.4606 53.3575 40.2002 53.6062 40.8835C53.1776 41.2642 52.2305 40.6288 51.8079 40.2571C51.3721 39.8189 51.0384 39.2898 50.8308 38.7076C50.705 39.346 50.6061 39.9964 51.0886 40.7337C50.4562 40.7966 49.62 40.6378 49.1824 40.1762C48.9533 39.9354 48.7789 39.6479 48.6713 39.3333C48.5637 39.0188 48.5254 38.6847 48.5591 38.354C48.4302 38.6837 48.4691 40.0174 48.7629 40.2152C47.6599 39.9155 46.6019 38.5788 46.6079 37.4339C46.6286 36.8588 46.7868 36.2972 47.0695 35.796C47.3522 35.2948 47.7509 34.8688 48.2324 34.5537C48.6999 34.2539 49.2304 34.0202 49.7309 33.7444C50.4922 33.3218 55.2786 29.3327 62.7503 33.2829C67.3898 35.7375 66.7515 41.0753 66.239 41.6748C65.6066 42.4151 64.5636 42.7028 63.5925 42.6488C62.6215 42.5949 58.8541 42.3161 59.0459 41.8276Z" fill="#263238"/>
<path d="M60.053 39.1661C59.5683 39.6874 59.2063 40.3106 58.9937 40.99C58.7811 41.6693 58.7232 42.3877 58.8242 43.0923C59.037 44.495 61.0271 46.7757 60.9222 46.6379C60.8426 46.4904 60.8141 46.3207 60.8412 46.1553C60.8865 45.5209 61.0481 44.9002 61.3178 44.3241C61.4856 45.1094 61.7404 46.7218 62.5436 46.7428C62.8613 46.1643 63.2509 45.6368 63.1969 44.9775C63.3828 45.6518 63.5506 46.3292 63.7364 47.0035C64.5272 46.4902 65.1556 45.7625 65.5483 44.9055C65.941 44.0484 66.0818 43.0973 65.9543 42.1632C65.8829 41.7286 65.7271 41.3122 65.4957 40.9374C65.2064 40.5267 64.8568 40.1619 64.4587 39.8554C63.4457 38.9953 62.103 38.1351 60.8772 38.6566C60.6914 38.7255 59.99 38.9803 60.053 39.1661Z" fill="#263238"/>
<path d="M55.0477 43.7218C55.0477 44.1894 54.7959 44.564 54.4962 44.573C54.1965 44.582 53.9507 44.2104 53.9267 43.7308C53.9028 43.2513 54.1785 42.8886 54.4782 42.8826C54.7779 42.8766 55.0477 43.2603 55.0477 43.7218Z" fill="#263238"/>
<path d="M8.90133 86.9729C9.04627 86.2969 9.14639 85.6121 9.20104 84.9229C9.50075 82.6061 10.8614 80.8139 12.5908 80.4602L13.8406 80.2055C13.8406 80.2055 11.8804 80.2055 11.0622 79.633C9.32991 78.4342 8.9313 74.8376 8.9313 74.8376C8.9313 74.8376 8.44577 78.4342 6.71045 79.633C5.89524 80.2055 3.93213 80.2055 3.93213 80.2055L5.18192 80.4602C6.91424 80.8139 8.28692 82.6061 8.57464 84.9229C8.63908 85.6126 8.74821 86.2974 8.90133 86.9729Z" fill="#407BFF"/>
<g opacity="0.7">
<path d="M8.90133 86.9729C9.04627 86.2969 9.14639 85.6121 9.20104 84.9229C9.50075 82.6061 10.8614 80.8139 12.5908 80.4602L13.8406 80.2055C13.8406 80.2055 11.8804 80.2055 11.0622 79.633C9.32991 78.4342 8.9313 74.8376 8.9313 74.8376C8.9313 74.8376 8.44577 78.4342 6.71045 79.633C5.89524 80.2055 3.93213 80.2055 3.93213 80.2055L5.18192 80.4602C6.91424 80.8139 8.28692 82.6061 8.57464 84.9229C8.63908 85.6126 8.74821 86.2974 8.90133 86.9729Z" fill="white"/>
</g>
<path d="M94.5197 60.9883C94.6494 60.4055 94.7405 59.8148 94.7925 59.22C95.0382 57.2239 96.2221 55.6804 97.7146 55.3747L98.7906 55.1559C98.7906 55.1559 97.1002 55.1559 96.3929 54.6614C94.8944 53.6154 94.5557 50.5254 94.5557 50.5254C94.5557 50.5254 94.1361 53.6154 92.6435 54.6614C91.9392 55.1559 90.2458 55.1559 90.2458 55.1559L91.3218 55.3747C92.8204 55.6744 93.9982 57.2239 94.244 59.22C94.2995 59.8145 94.3916 60.4051 94.5197 60.9883Z" fill="#407BFF"/>
<g opacity="0.7">
<path d="M94.5197 60.9883C94.6494 60.4055 94.7405 59.8148 94.7925 59.22C95.0382 57.2239 96.2221 55.6804 97.7146 55.3747L98.7906 55.1559C98.7906 55.1559 97.1002 55.1559 96.3929 54.6614C94.8944 53.6154 94.5557 50.5254 94.5557 50.5254C94.5557 50.5254 94.1361 53.6154 92.6435 54.6614C91.9392 55.1559 90.2458 55.1559 90.2458 55.1559L91.3218 55.3747C92.8204 55.6744 93.9982 57.2239 94.244 59.22C94.2995 59.8145 94.3916 60.4051 94.5197 60.9883Z" fill="white"/>
</g>
<path d="M34.4756 29.2038C34.5355 29.1798 34.6974 28.005 34.8712 26.6083C35.2338 23.6741 36.9692 21.4053 39.166 20.9588L40.7485 20.6351C40.7485 20.6351 38.2639 20.6351 37.2299 19.9098C35.036 18.3753 34.5325 13.8376 34.5325 13.8376C34.5325 13.8376 33.9151 18.3693 31.7212 19.9098C30.6842 20.6351 28.2026 20.6351 28.2026 20.6351L29.7821 20.9588C31.973 21.4053 33.7143 23.6741 34.077 26.6083C34.2538 28.0169 34.4156 29.1798 34.4756 29.2038Z" fill="#407BFF"/>
<g opacity="0.7">
<path d="M34.4756 29.2038C34.5355 29.1798 34.6974 28.005 34.8712 26.6083C35.2338 23.6741 36.9692 21.4053 39.166 20.9588L40.7485 20.6351C40.7485 20.6351 38.2639 20.6351 37.2299 19.9098C35.036 18.3753 34.5325 13.8376 34.5325 13.8376C34.5325 13.8376 33.9151 18.3693 31.7212 19.9098C30.6842 20.6351 28.2026 20.6351 28.2026 20.6351L29.7821 20.9588C31.973 21.4053 33.7143 23.6741 34.077 26.6083C34.2538 28.0169 34.4156 29.1798 34.4756 29.2038Z" fill="white"/>
</g>
<path d="M103.322 94.1392C103.382 94.1152 103.544 92.9403 103.718 91.5437C104.08 88.6095 105.816 86.3407 108.012 85.8941L109.595 85.5704C109.595 85.5704 107.11 85.5704 106.076 84.8451C103.879 83.3076 103.379 78.77 103.379 78.77C103.379 78.77 102.78 83.3076 100.571 84.8451C99.5337 85.5704 97.0491 85.5704 97.0491 85.5704L98.6315 85.8941C100.825 86.3407 102.564 88.6095 102.926 91.5437C103.097 92.9523 103.259 94.1152 103.322 94.1392Z" fill="#407BFF"/>
<g opacity="0.7">
<path d="M103.322 94.1392C103.382 94.1152 103.544 92.9403 103.718 91.5437C104.08 88.6095 105.816 86.3407 108.012 85.8941L109.595 85.5704C109.595 85.5704 107.11 85.5704 106.076 84.8451C103.879 83.3076 103.379 78.77 103.379 78.77C103.379 78.77 102.78 83.3076 100.571 84.8451C99.5337 85.5704 97.0491 85.5704 97.0491 85.5704L98.6315 85.8941C100.825 86.3407 102.564 88.6095 102.926 91.5437C103.097 92.9523 103.259 94.1152 103.322 94.1392Z" fill="white"/>
</g>
<path d="M78.0894 29.914C78.1872 29.4817 78.2542 29.043 78.2902 28.6013C78.473 27.1027 79.3542 25.9728 80.4601 25.745L81.2603 25.5832C81.2603 25.5832 80.0046 25.5832 79.4831 25.2175C78.3741 24.4413 78.1194 22.1455 78.1194 22.1455C78.1194 22.1455 77.8197 24.4413 76.6987 25.2175C76.1742 25.5832 74.9185 25.5832 74.9185 25.5832L75.7187 25.745C76.8276 25.9728 77.7058 27.1177 77.8886 28.6013C77.928 29.0426 77.9951 29.4811 78.0894 29.914Z" fill="#407BFF"/>
<g opacity="0.7">
<path d="M78.0894 29.914C78.1872 29.4817 78.2542 29.043 78.2902 28.6013C78.473 27.1027 79.3542 25.9728 80.4601 25.745L81.2603 25.5832C81.2603 25.5832 80.0046 25.5832 79.4831 25.2175C78.3741 24.4413 78.1194 22.1455 78.1194 22.1455C78.1194 22.1455 77.8197 24.4413 76.6987 25.2175C76.1742 25.5832 74.9185 25.5832 74.9185 25.5832L75.7187 25.745C76.8276 25.9728 77.7058 27.1177 77.8886 28.6013C77.928 29.0426 77.9951 29.4811 78.0894 29.914Z" fill="white"/>
</g>
<path d="M9.45578 48.3403C9.55354 47.908 9.62063 47.4693 9.65658 47.0275C9.83941 45.547 10.7206 44.3991 11.8265 44.1713L12.6267 44.0095C12.6267 44.0095 11.3709 44.0095 10.8494 43.6438C9.74051 42.8676 9.48576 40.5718 9.48576 40.5718C9.48576 40.5718 9.18604 42.8676 8.06512 43.6438C7.54063 44.0095 6.28784 44.0095 6.28784 44.0095L7.08508 44.1713C8.19401 44.3991 9.07216 45.547 9.25798 47.0275C9.29558 47.4689 9.36165 47.9074 9.45578 48.3403Z" fill="#407BFF"/>
<g opacity="0.7">
<path d="M9.45578 48.3403C9.55354 47.908 9.62063 47.4693 9.65658 47.0275C9.83941 45.547 10.7206 44.3991 11.8265 44.1713L12.6267 44.0095C12.6267 44.0095 11.3709 44.0095 10.8494 43.6438C9.74051 42.8676 9.48576 40.5718 9.48576 40.5718C9.48576 40.5718 9.18604 42.8676 8.06512 43.6438C7.54063 44.0095 6.28784 44.0095 6.28784 44.0095L7.08508 44.1713C8.19401 44.3991 9.07216 45.547 9.25798 47.0275C9.29558 47.4689 9.36165 47.9074 9.45578 48.3403Z" fill="white"/>
</g>
</g>
<defs>
<clipPath id="clip0_1211_3785">
<rect width="119" height="106.331" fill="white"/>
</clipPath>
</defs>
</svg>
