<svg width="131" height="175" viewBox="0 0 131 175" fill="none" xmlns="http://www.w3.org/2000/svg">
<g clip-path="url(#clip0_1169_976)">
<path d="M75.5934 41.3997C75.0868 43.4696 74.1784 46.7418 74.1784 46.7418C74.2527 47.6434 74.5162 51.3849 74.8336 55.974L68.08 53.2725C68.08 53.2725 68.161 45.7963 67.8571 45.337C67.6038 44.9521 67.1817 45.4349 65.1083 42.4769C64.514 41.6225 64.4026 40.0962 64.4026 40.0962C64.4026 40.0962 64.2777 38.2187 64.6998 38.0431C64.8981 37.9763 65.1138 37.9828 65.3078 38.0615C65.5017 38.1402 65.661 38.2858 65.7567 38.472C65.912 38.8096 65.8715 39.5525 66.0235 39.8767C66.1754 40.2009 67.1513 40.5926 67.5633 40.5723C67.9753 40.5521 67.5126 35.0175 67.5126 35.0175C67.5126 35.0175 67.283 33.4506 67.1749 32.934C67.077 32.4984 66.6786 31.2152 66.6786 31.2152C66.6786 31.2152 66.2092 29.3512 66.79 29.2094C67.1277 29.1249 67.9989 30.6378 68.5932 32.2485C69.2348 33.9774 69.6063 35.811 69.7819 35.7874C70.2141 35.73 69.9845 32.6942 69.9845 32.6942C69.7719 32.0291 69.6315 31.3431 69.5658 30.6479C69.1605 29.8442 68.8904 28.355 69.6063 28.2301C69.738 28.2098 70.6767 30.1008 70.6767 30.1008C70.6767 30.1008 71.0481 31.4347 71.2643 32.0594C71.6425 33.1569 71.6999 34.8925 71.8991 35.6591C72.0646 36.2973 72.2131 36.0339 72.2807 36.0609C72.2753 35.3708 72.2268 34.6817 72.1355 33.9977C72.1389 33.3272 72.0881 32.6575 71.9835 31.9952C71.8347 31.2987 71.7376 30.5922 71.6931 29.8813C71.5783 28.3111 72.5677 28.4732 72.9088 29.9084C73.0371 30.452 73.1756 31.0497 73.3106 31.6542C73.8442 34.0179 73.8273 36.2737 74.0805 36.2939C74.4182 36.3176 74.192 32.1911 74.192 32.1911C74.192 32.1911 74.6985 29.905 75.205 32.0256C75.5629 33.5172 75.7353 35.0472 75.7183 36.5809C75.6744 37.182 76.0965 39.3297 75.5934 41.3997Z" fill="#F8A492"/>
<path d="M75.1544 50.4428C75.1544 50.4428 67.5532 48.6227 67.4823 49.2339C65.885 62.6027 65.1691 67.4349 64.8956 67.5733C63.9771 68.0495 51.77 56.8857 49.5919 56.1293C48.5519 55.768 47.4172 55.8288 46.3299 55.8592C43.7433 55.9369 43.23 55.947 43.23 55.947H43.1355V58.385C46.053 61.0088 52.7323 100.764 53.2963 100.74C53.9244 100.71 67.1412 104.033 66.8913 102.918C66.8542 102.739 57.9428 95.4455 55.4102 84.9234C54.5626 81.3879 54.1439 77.5856 53.6846 74.2561C56.6157 75.725 68.0732 81.3474 69.8933 80.618C75.5528 78.3048 75.1544 50.4428 75.1544 50.4428Z" fill="#3C8F7C"/>
<path d="M97.8836 121.032C97.8836 121.032 110.165 130.652 110.577 132.357C111.168 134.816 122.413 131.584 119.694 131.084C119.07 130.97 117.074 130.463 116.909 130.375C116.031 129.906 105.09 116.736 105.09 116.736L97.8836 121.032Z" fill="#F7A491"/>
<path d="M124.976 131.084L117.131 130.446C117.131 130.446 114.893 132.3 110.584 132.388C110.158 133.768 110.035 135.224 110.222 136.656C110.28 137.051 110.344 138.25 110.746 138.223C112.194 138.125 116.054 137.166 120.451 136.285C120.451 136.285 126.364 135.035 129.778 132.992C133.191 130.949 124.976 131.084 124.976 131.084Z" fill="#B75742"/>
<path d="M42.8585 96.9009C49.1694 97.7537 55.5817 97.477 61.7956 96.0837C73.3072 93.3822 86.0344 90.9037 89.7624 93.0716C92.7643 94.814 111.506 123.125 111.506 123.125L104.269 128.41L83.6301 105.299C83.6301 105.299 57.2909 115.014 51.3883 113.937C37.9182 111.495 37.7291 100.74 42.8585 96.9009Z" fill="#13375B"/>
<path d="M52.6885 91.1875L61.6877 101.882L44.9927 106.967L42.8552 96.901L52.6885 91.1875Z" fill="#13375B"/>
<path d="M70.9772 140.033C70.9772 140.033 70.4302 154.891 70.0891 157.403C69.7481 159.915 76.3936 167.449 75.5461 164.832C75.3502 164.228 74.8471 162.232 74.8471 162.046C74.8471 161.05 77.3087 144.105 77.3087 144.105L70.9772 140.033Z" fill="#F7A491"/>
<path d="M79.7906 170.238L74.8875 162.262C74.8875 162.262 72.1861 161.172 70.0654 157.423C68.6496 157.704 67.3111 158.286 66.1416 159.132C65.8039 159.372 63.6225 160.979 63.7778 161.347C64.3418 162.698 67.3336 165.632 70.6023 168.827C70.6023 168.827 75.2387 172.565 78.656 174.598C82.0734 176.631 79.7906 170.238 79.7906 170.238Z" fill="#B75742"/>
<path d="M85.5549 110.749C82.4077 106.555 57.0276 102.57 57.0276 102.57L49.9363 88.9687L34.2881 98.6196C34.2881 98.6196 35.8516 111.073 37.0268 114.399C38.5902 118.833 49.109 119.059 55.5317 118.992C61.4411 118.931 72.2367 120.137 72.2367 120.137L68.5864 152.348C68.5864 152.348 75.7621 153.982 77.7815 153.719C78.0381 153.689 89.4652 115.963 85.5549 110.749Z" fill="#355389"/>
<path d="M43.2232 55.991L34.3929 56.484C34.3929 56.484 34.1902 56.5448 34.1295 56.5583C33.4102 56.69 34.0653 82.4213 34.7069 92.0148C35.3485 101.608 36.6486 105.66 36.6486 105.66C36.6486 105.66 48.6227 103.536 52.2967 102.108C53.823 101.517 57.5139 96.901 57.5139 96.901C57.5139 96.901 53.742 91.8358 51.8442 83.5964C50.3787 77.2446 48.5721 65.9863 47.5388 63.6361C45.1649 58.2365 43.2232 55.991 43.2232 55.991Z" fill="#9BC1F9"/>
<path d="M34.646 48.67L34.3927 56.4671C34.3927 56.4671 40.1097 66.3139 43.0441 64.9429C45.5058 63.7914 43.321 56.2982 43.321 56.2982C43.321 56.2982 42.8955 54.5828 42.308 52.6074C41.8926 51.2297 41.5516 49.7371 41.5752 48.6396C41.6326 45.9753 34.646 48.67 34.646 48.67Z" fill="#F7A491"/>
<path d="M41.5686 48.6396C41.6294 45.9753 34.6428 48.67 34.6428 48.67L34.6158 49.4332C34.831 49.7668 35.0951 50.0661 35.3992 50.3213C37.3361 51.8148 39.7689 52.515 42.2035 52.2798C41.8252 51.1015 41.6115 49.8765 41.5686 48.6396Z" fill="#F47458"/>
<path d="M41.4741 30.8912C41.4741 30.8912 44.3849 35.281 44.6044 38.9753C44.7565 41.0646 44.5649 43.1647 44.0371 45.192L34.6935 34.0215L41.4741 30.8912Z" fill="#184655"/>
<path d="M45.5701 38.2185C45.7018 39.5152 45.1987 40.6262 44.4491 40.7005C43.6994 40.7748 42.9802 39.7921 42.8485 38.4988C42.7168 37.2055 43.2199 36.0945 43.9729 36.0169C44.7259 35.9392 45.4384 36.9252 45.5701 38.2185Z" fill="#F48C7F"/>
<path d="M31.6678 35.8113C31.455 35.764 31.4753 46.5192 34.5921 49.0518C37.7089 51.5844 43.1354 51.8039 44.7225 49.2544C46.4751 46.4347 44.8103 35.1021 40.1739 32.708C35.5376 30.3138 31.6678 35.8113 31.6678 35.8113Z" fill="#F7A491"/>
<path d="M30.8776 29.1419C28.5138 31.2287 27.3455 32.7517 25.7347 36.4628C23.7559 41.0249 27.6832 45.749 30.9789 47.6265C34.2747 49.504 34.5448 51.7766 34.5448 51.7766L34.6799 50.3752C34.747 49.9476 34.7333 49.5112 34.6394 49.0887C34.5223 48.6954 34.365 48.3152 34.17 47.9541C33.8897 47.353 32.9881 45.2999 32.6369 44.7596C31.7117 43.3278 31.5293 43.0206 31.9852 41.6597C32.3229 40.6163 31.9312 38.3099 32.4748 36.5945L36.9086 35.6389C36.9086 35.6389 39.6843 34.9635 41.0857 33.3561C45.1075 28.7029 37.1551 23.5296 30.8776 29.1419Z" fill="#184655"/>
<path d="M33.0422 42.8381C33.5859 44.0166 33.4744 45.2322 32.7889 45.5395C32.1035 45.8468 31.1005 45.1579 30.5569 43.9761C30.0132 42.7942 30.1246 41.5819 30.8101 41.2746C31.4956 40.9673 32.4952 41.6562 33.0422 42.8381Z" fill="#F7A491"/>
<path d="M2.82641 13.1662C3.32955 15.2395 4.24127 18.5116 4.24127 18.5116C4.16698 19.4099 3.90361 23.1548 3.58619 27.7405L10.3398 25.039C10.3398 25.039 10.2588 17.5628 10.5593 17.1069C10.8159 16.7186 11.2347 17.2014 13.308 14.2434C13.9057 13.389 14.0172 11.8627 14.0172 11.8627C14.0172 11.8627 14.1421 9.9852 13.72 9.8096C13.5207 9.74429 13.3047 9.75189 13.1105 9.83106C12.9163 9.91023 12.7565 10.0558 12.6597 10.2418C12.5077 10.5795 12.5482 11.3224 12.3963 11.6466C12.2443 11.9708 11.2684 12.3625 10.8565 12.3422C10.4445 12.322 10.9071 6.78737 10.9071 6.78737C10.9071 6.78737 11.1367 5.21714 11.2448 4.70387C11.3461 4.26488 11.7446 2.98169 11.7446 2.98169C11.7446 2.98169 12.2105 1.12107 11.6331 0.975867C11.2954 0.891447 10.4242 2.40763 9.82991 4.015C9.18831 5.74392 8.81686 7.58091 8.64126 7.5539C8.20903 7.49649 8.43866 4.46412 8.43866 4.46412C8.65079 3.79888 8.79116 3.11286 8.85738 2.41777C9.2626 1.61409 9.53275 0.12154 8.81686 -2.56015e-05C8.68517 -0.0236633 7.74302 1.87073 7.74302 1.87073C7.74302 1.87073 7.37495 3.20456 7.15884 3.8259C6.78064 4.92674 6.72323 6.66242 6.524 7.42896C6.35853 8.0638 6.20995 7.80378 6.14241 7.82742C6.07488 7.85106 6.17958 6.96971 6.28764 5.76419C6.28255 5.09365 6.33337 4.42384 6.43958 3.76174C6.58737 3.06517 6.6833 2.35861 6.7266 1.64786C6.84478 0.0776426 5.85539 0.239725 5.51433 1.67487C5.38264 2.22191 5.24758 2.81961 5.10913 3.42405C4.57897 5.78782 4.59585 8.04353 4.34259 8.06042C4.00491 8.08743 4.22779 3.9576 4.22779 3.9576C4.22779 3.9576 3.72464 1.67487 3.21475 3.79551C2.85299 5.28521 2.68054 6.81459 2.70146 8.34745C2.75887 8.94852 2.32326 11.0962 2.82641 13.1662Z" fill="#F8A492"/>
<path d="M34.3929 56.4669C34.3929 56.4669 25.6402 56.0583 23.3811 55.0385C22.0135 54.4172 10.7654 45.3538 10.7654 45.3538L10.8903 21.0881L2.98179 20.487C2.98179 20.487 -1.12102 47.309 0.300621 50.2434C1.76616 53.2826 18.2315 65.7599 21.5239 71.1797C23.4216 74.2998 27.3759 116.736 27.9769 117.104C32.2351 119.323 45.3912 121.538 45.0805 120.191C36.5034 83.0357 34.3929 56.4669 34.3929 56.4669Z" fill="#3C8F7C"/>
</g>
<defs>
<clipPath id="clip0_1169_976">
<rect width="130.156" height="174.398" fill="white" transform="scale(1.00345)"/>
</clipPath>
</defs>
</svg>
