<svg width="270" height="50" viewBox="0 0 270 50" fill="none" xmlns="http://www.w3.org/2000/svg">
<path fill-rule="evenodd" clip-rule="evenodd" d="M2.3999 26.713C2.3999 21.082 3.0139 21.475 6.3189 18.41C7.7649 17.246 10.0149 15 11.9579 15C13.8999 15 16.1949 17.235 17.6539 18.41C20.9589 21.475 21.5719 21.082 21.5719 26.713C21.5719 35 19.6129 35 11.9859 35C4.3589 35 2.3999 35 2.3999 26.713Z" fill="#F56737"/>
<path d="M9.07861 29.1357H14.8936" stroke="white" stroke-width="1.5" stroke-linecap="round" stroke-linejoin="round"/>
<circle cx="12" cy="42" r="2" fill="#F56737"/>
<path d="M203.917 27.8539L206.91 23.9649L210.324 26.6449L213.253 22.8649" stroke="#C6CEDD" stroke-width="1.5" stroke-linecap="round" stroke-linejoin="round"/>
<path fill-rule="evenodd" clip-rule="evenodd" d="M216.667 15.35C217.729 15.35 218.589 16.21 218.589 17.272C218.589 18.333 217.729 19.194 216.667 19.194C215.605 19.194 214.745 18.333 214.745 17.272C214.745 16.21 215.605 15.35 216.667 15.35Z" stroke="#C6CEDD" stroke-width="1.5" stroke-linecap="round" stroke-linejoin="round"/>
<path d="M217.755 22.269C217.888 23.164 217.949 24.172 217.949 25.303C217.949 32.241 215.637 34.553 208.699 34.553C201.762 34.553 199.449 32.241 199.449 25.303C199.449 18.366 201.762 16.053 208.699 16.053C209.809 16.053 210.8 16.112 211.682 16.24" stroke="#C6CEDD" stroke-width="1.5" stroke-linecap="round" stroke-linejoin="round"/>
<circle cx="138" cy="25" r="25" fill="#F56737"/>
<path d="M138 18C138.232 18 138.455 18.0922 138.619 18.2563C138.783 18.4204 138.875 18.6429 138.875 18.875V24.125H144.125C144.357 24.125 144.58 24.2172 144.744 24.3813C144.908 24.5454 145 24.7679 145 25C145 25.2321 144.908 25.4546 144.744 25.6187C144.58 25.7828 144.357 25.875 144.125 25.875H138.875V31.125C138.875 31.3571 138.783 31.5796 138.619 31.7437C138.455 31.9078 138.232 32 138 32C137.768 32 137.545 31.9078 137.381 31.7437C137.217 31.5796 137.125 31.3571 137.125 31.125V25.875H131.875C131.643 25.875 131.42 25.7828 131.256 25.6187C131.092 25.4546 131 25.2321 131 25C131 24.7679 131.092 24.5454 131.256 24.3813C131.42 24.2172 131.643 24.125 131.875 24.125H137.125V18.875C137.125 18.6429 137.217 18.4204 137.381 18.2563C137.545 18.0922 137.768 18 138 18Z" fill="white"/>
<path fill-rule="evenodd" clip-rule="evenodd" d="M58.6101 25.0001C58.6101 31.9371 60.7081 34.2501 67.0011 34.2501C73.2951 34.2501 75.3921 31.9371 75.3921 25.0001C75.3921 18.0631 73.2951 15.7501 67.0011 15.7501C60.7081 15.7501 58.6101 18.0631 58.6101 25.0001Z" stroke="#C6CEDD" stroke-linecap="round" stroke-linejoin="round"/>
<path d="M70.596 28.6964H63.376" stroke="#C6CEDD" stroke-width="1.5" stroke-linecap="round" stroke-linejoin="round"/>
<path d="M70.596 24.9366H63.376" stroke="#C6CEDD" stroke-width="1.5" stroke-linecap="round" stroke-linejoin="round"/>
<path d="M66.1312 21.1774H63.3762" stroke="#C6CEDD" stroke-width="1.5" stroke-linecap="round" stroke-linejoin="round"/>
<path d="M261.815 23.8707C261.715 23.8607 261.595 23.8607 261.485 23.8707C260.337 23.8318 259.25 23.3476 258.453 22.5207C257.656 21.6938 257.212 20.5892 257.215 19.4407C257.215 16.9907 259.195 15.0007 261.655 15.0007C262.237 14.9902 262.816 15.0945 263.358 15.3077C263.9 15.5209 264.395 15.8387 264.814 16.2431C265.234 16.6475 265.569 17.1306 265.802 17.6646C266.034 18.1987 266.159 18.7733 266.17 19.3557C266.181 19.9381 266.076 20.5169 265.863 21.059C265.65 21.6011 265.332 22.0959 264.928 22.5152C264.523 22.9344 264.04 23.2699 263.506 23.5025C262.972 23.7351 262.397 23.8602 261.815 23.8707ZM256.815 27.5607C254.395 29.1807 254.395 31.8207 256.815 33.4307C259.565 35.2707 264.075 35.2707 266.825 33.4307C269.245 31.8107 269.245 29.1707 266.825 27.5607C264.085 25.7307 259.575 25.7307 256.815 27.5607Z" stroke="#C6CEDD" stroke-width="1.5" stroke-linecap="round" stroke-linejoin="round"/>
</svg>
