<svg width="7" height="7" viewBox="0 0 7 7" fill="none" xmlns="http://www.w3.org/2000/svg">
<path d="M0 3.48891C0 2.56362 0.367573 1.6762 1.02186 1.02192C1.67614 0.367635 2.56354 7.12381e-05 3.48884 7.12381e-05C3.94887 -0.00286833 4.40494 0.0851931 4.8308 0.259207C5.25667 0.433221 5.64391 0.689732 5.97024 1.01399C6.29658 1.33826 6.55556 1.72386 6.73228 2.14861C6.909 2.57335 6.99998 3.02887 6.99997 3.48891C6.99997 4.41524 6.63276 5.30377 5.97879 5.95982C5.32482 6.61588 4.43745 6.98593 3.51113 6.98888C3.05057 6.99035 2.59425 6.9009 2.16832 6.72566C1.7424 6.55043 1.35524 6.29286 1.02906 5.96771C0.702874 5.64256 0.44407 5.25622 0.267483 4.83085C0.0908953 4.40549 -2.33557e-06 3.94948 0 3.48891Z" fill="black"/>
</svg>
