<svg width="310" height="57" viewBox="0 0 310 57" fill="none" xmlns="http://www.w3.org/2000/svg">
<path fill-rule="evenodd" clip-rule="evenodd" d="M2.69565 30.0036C2.69565 23.6789 3.38529 24.1204 7.09743 20.6778C8.72156 19.3704 11.2487 16.8477 13.4311 16.8477C15.6123 16.8477 18.19 19.358 19.8288 20.6778C23.5409 24.1204 24.2294 23.6789 24.2294 30.0036C24.2294 39.3115 22.0291 39.3115 13.4625 39.3115C4.89598 39.3115 2.69565 39.3115 2.69565 30.0036Z" stroke="#C6CEDD" stroke-width="1.68243" stroke-linecap="round" stroke-linejoin="round"/>
<path d="M10.1971 32.7251H16.7284" stroke="#C6CEDD" stroke-width="1.68243" stroke-linecap="round" stroke-linejoin="round"/>
<path d="M291.249 30.9713H302.024" stroke="#C6CEDD" stroke-width="1.68243" stroke-linecap="round" stroke-linejoin="round"/>
<path fill-rule="evenodd" clip-rule="evenodd" d="M285.852 23.3606C285.852 20.6179 287.256 18.2624 289.92 17.7158C292.583 17.1681 294.607 17.3574 296.288 18.2645C297.971 19.1716 297.489 20.5109 299.218 21.494C300.947 22.4781 303.729 20.9998 305.547 22.9605C307.449 25.0133 307.439 28.1646 307.439 30.1735C307.439 37.8069 303.163 38.4124 296.645 38.4124C290.128 38.4124 285.852 37.884 285.852 30.1735V23.3606Z" stroke="#C6CEDD" stroke-width="1.68243" stroke-linecap="round" stroke-linejoin="round"/>
<path fill-rule="evenodd" clip-rule="evenodd" d="M245.911 24.6065C246.081 25.7482 246.159 27.0342 246.159 28.477C246.159 37.3279 243.209 40.2774 234.358 40.2774C225.509 40.2774 222.558 37.3279 222.558 28.477C222.558 19.6273 225.509 16.6766 234.358 16.6766C235.774 16.6766 237.039 16.7518 238.164 16.9151" fill="#F56737"/>
<path d="M228.257 31.7315L232.076 26.7702L236.431 30.1891L240.167 25.3669" stroke="white" stroke-width="1.91091" stroke-linecap="round" stroke-linejoin="round"/>
<path fill-rule="evenodd" clip-rule="evenodd" d="M245.524 14.7789C246.879 14.7789 247.976 15.876 247.976 17.2308C247.976 18.5844 246.879 19.6828 245.524 19.6828C244.17 19.6828 243.072 18.5844 243.072 17.2308C243.072 15.876 244.17 14.7789 245.524 14.7789Z" fill="#F56737"/>
<circle cx="155" cy="28.0797" r="28.0797" fill="#F56737"/>
<path d="M155 20.2172C155.261 20.2172 155.511 20.3207 155.695 20.505C155.879 20.6893 155.983 20.9393 155.983 21.2V27.0967H161.879C162.14 27.0967 162.39 27.2002 162.574 27.3845C162.759 27.5689 162.862 27.8188 162.862 28.0795C162.862 28.3401 162.759 28.5901 162.574 28.7744C162.39 28.9587 162.14 29.0623 161.879 29.0623H155.983V34.959C155.983 35.2197 155.879 35.4696 155.695 35.6539C155.511 35.8383 155.261 35.9418 155 35.9418C154.739 35.9418 154.489 35.8383 154.305 35.6539C154.121 35.4696 154.017 35.2197 154.017 34.959V29.0623H148.12C147.86 29.0623 147.61 28.9587 147.425 28.7744C147.241 28.5901 147.138 28.3401 147.138 28.0795C147.138 27.8188 147.241 27.5689 147.425 27.3845C147.61 27.2002 147.86 27.0967 148.12 27.0967H154.017V21.2C154.017 20.9393 154.121 20.6893 154.305 20.505C154.489 20.3207 154.739 20.2172 155 20.2172Z" fill="white"/>
<path fill-rule="evenodd" clip-rule="evenodd" d="M65.8303 28.0797C65.8303 35.8712 68.1868 38.4692 75.255 38.4692C82.3244 38.4692 84.6797 35.8712 84.6797 28.0797C84.6797 20.2881 82.3244 17.6902 75.255 17.6902C68.1868 17.6902 65.8303 20.2881 65.8303 28.0797Z" stroke="#C6CEDD" stroke-width="1.68" stroke-linecap="round" stroke-linejoin="round"/>
<path d="M79.2927 32.2313H71.1833" stroke="#C6CEDD" stroke-width="1.68243" stroke-linecap="round" stroke-linejoin="round"/>
<path d="M79.2927 28.0086H71.1833" stroke="#C6CEDD" stroke-width="1.68243" stroke-linecap="round" stroke-linejoin="round"/>
<path d="M74.2779 23.7859H71.1835" stroke="#C6CEDD" stroke-width="1.68243" stroke-linecap="round" stroke-linejoin="round"/>
<circle cx="75.2537" cy="47.1738" r="2.24638" fill="#C6CEDD"/>
</svg>
