<svg width="20" height="21" viewBox="0 0 20 21" fill="none" xmlns="http://www.w3.org/2000/svg">
<path d="M10.89 3.87988H3.11C2.28599 3.88252 1.49648 4.21103 0.913811 4.79369C0.331143 5.37636 0.00263686 6.16587 0 6.98988V18.3499C0 19.7999 1.04 20.4199 2.31 19.7099L6.24 17.5199C6.66 17.2899 7.34 17.2899 7.75 17.5199L11.68 19.7099C12.95 20.4199 13.99 19.7999 13.99 18.3499V6.98988C13.9907 6.58213 13.911 6.17824 13.7556 5.80127C13.6001 5.4243 13.372 5.08164 13.0841 4.79285C12.7962 4.50406 12.4543 4.2748 12.0779 4.11815C11.7014 3.9615 11.2978 3.88054 10.89 3.87988Z" fill="#F56737"/>
<path d="M14 6.98988V18.3499C14 19.7999 12.96 20.4099 11.69 19.7099L7.76 17.5199C7.34 17.2899 6.66 17.2899 6.24 17.5199L2.31 19.7099C1.04 20.4099 0 19.7999 0 18.3499V6.98988C0 5.27988 1.4 3.87988 3.11 3.87988H10.89C12.6 3.87988 14 5.27988 14 6.98988Z" fill="#F56737"/>
<path d="M20 3.11V14.47C20 15.92 18.96 16.53 17.69 15.83L14 13.77V6.99C14 5.28 12.6 3.88 10.89 3.88H6V3.11C6 1.4 7.4 0 9.11 0H16.89C18.6 0 20 1.4 20 3.11Z" fill="#F56737"/>
</svg>
