<svg width="129" height="127" viewBox="0 0 129 127" fill="none" xmlns="http://www.w3.org/2000/svg">
<g clip-path="url(#clip0_1209_1074)">
<path d="M103.006 101.869C103.006 102.103 102.913 102.327 102.748 102.493C102.582 102.658 102.358 102.751 102.124 102.751C101.89 102.751 101.666 102.658 101.501 102.493C101.335 102.327 101.242 102.103 101.242 101.869C101.242 101.635 101.335 101.411 101.501 101.246C101.666 101.08 101.89 100.987 102.124 100.987C102.358 100.987 102.582 101.08 102.748 101.246C102.913 101.411 103.006 101.635 103.006 101.869Z" fill="#02DBF3"/>
<path d="M103.145 96.5319C103.14 96.6717 103.082 96.8041 102.983 96.903C102.884 97.0019 102.752 97.0599 102.612 97.0657C102.47 97.0657 102.334 97.0094 102.234 96.9093C102.134 96.8092 102.078 96.6735 102.078 96.5319C102.078 96.3904 102.134 96.2547 102.234 96.1546C102.334 96.0545 102.47 95.9982 102.612 95.9982C102.753 95.9982 102.889 96.0545 102.989 96.1546C103.089 96.2547 103.145 96.3904 103.145 96.5319Z" fill="#02DBF3"/>
<path d="M109.852 109.271C109.852 109.413 109.795 109.549 109.695 109.649C109.595 109.749 109.459 109.805 109.318 109.805C109.176 109.805 109.041 109.749 108.94 109.649C108.84 109.549 108.784 109.413 108.784 109.271C108.784 109.13 108.84 108.994 108.94 108.894C109.041 108.794 109.176 108.738 109.318 108.738C109.458 108.743 109.59 108.802 109.689 108.9C109.788 108.999 109.846 109.132 109.852 109.271Z" fill="#02DBF3"/>
<path d="M114.237 103.285C114.24 103.405 114.219 103.526 114.175 103.638C114.131 103.751 114.065 103.853 113.981 103.94C113.896 104.026 113.795 104.095 113.684 104.142C113.573 104.189 113.453 104.213 113.332 104.213C113.21 104.216 113.087 104.194 112.973 104.149C112.859 104.103 112.756 104.035 112.669 103.948C112.582 103.861 112.514 103.758 112.468 103.644C112.423 103.53 112.401 103.407 112.404 103.285C112.404 103.164 112.428 103.044 112.475 102.933C112.522 102.822 112.591 102.721 112.677 102.636C112.764 102.552 112.866 102.486 112.979 102.442C113.091 102.398 113.211 102.377 113.332 102.38C113.452 102.377 113.571 102.398 113.682 102.442C113.794 102.486 113.895 102.553 113.979 102.638C114.064 102.722 114.13 102.823 114.175 102.935C114.219 103.046 114.24 103.165 114.237 103.285Z" fill="#02DBF3"/>
<path d="M107.786 97.9011C107.786 97.958 107.775 98.0143 107.752 98.0665C107.73 98.1188 107.697 98.1659 107.656 98.205C107.615 98.2441 107.566 98.2744 107.512 98.2939C107.459 98.3135 107.402 98.322 107.345 98.3188C107.235 98.3188 107.128 98.2748 107.05 98.1965C106.972 98.1181 106.928 98.0119 106.928 97.9011C106.925 97.8443 106.933 97.7875 106.953 97.7341C106.972 97.6807 107.002 97.6319 107.042 97.5906C107.081 97.5494 107.128 97.5165 107.18 97.4941C107.232 97.4717 107.289 97.4601 107.345 97.4602C107.404 97.4569 107.463 97.4659 107.518 97.4869C107.573 97.5079 107.623 97.5402 107.665 97.5819C107.706 97.6235 107.739 97.6735 107.76 97.7285C107.781 97.7835 107.79 97.8423 107.786 97.9011Z" fill="#02DBF3"/>
<path d="M69.9857 107.438C69.9888 107.556 69.9683 107.673 69.9254 107.783C69.8824 107.893 69.818 107.993 69.7358 108.077C69.6536 108.161 69.5554 108.228 69.4469 108.274C69.3383 108.32 69.2217 108.343 69.104 108.343C68.9862 108.343 68.8696 108.32 68.7611 108.274C68.6526 108.228 68.5543 108.161 68.4721 108.077C68.3899 107.993 68.3254 107.893 68.2825 107.783C68.2396 107.673 68.2191 107.556 68.2222 107.438C68.2281 107.206 68.3228 106.985 68.487 106.821C68.6511 106.657 68.872 106.562 69.104 106.557C69.336 106.562 69.5569 106.657 69.721 106.821C69.8851 106.985 69.9798 107.206 69.9857 107.438Z" fill="#02DBF3"/>
<path d="M70.1249 102.101C70.1249 102.243 70.0687 102.378 69.9686 102.478C69.8685 102.579 69.7327 102.635 69.5912 102.635C69.4496 102.635 69.3139 102.579 69.2138 102.478C69.1137 102.378 69.0575 102.243 69.0575 102.101C69.0575 101.959 69.1137 101.824 69.2138 101.724C69.3139 101.624 69.4496 101.567 69.5912 101.567C69.7327 101.567 69.8685 101.624 69.9686 101.724C70.0687 101.824 70.1249 101.959 70.1249 102.101Z" fill="#02DBF3"/>
<path d="M76.8311 114.887C76.8311 114.957 76.8173 115.027 76.7905 115.091C76.7637 115.156 76.7244 115.215 76.6748 115.264C76.6253 115.314 76.5664 115.353 76.5017 115.38C76.4369 115.407 76.3675 115.421 76.2974 115.421C76.2273 115.421 76.1579 115.407 76.0932 115.38C76.0284 115.353 75.9696 115.314 75.92 115.264C75.8705 115.215 75.8311 115.156 75.8043 115.091C75.7775 115.027 75.7637 114.957 75.7637 114.887C75.7636 114.818 75.7776 114.75 75.8047 114.686C75.8317 114.623 75.8715 114.565 75.9214 114.518C75.9712 114.47 76.0303 114.433 76.0949 114.409C76.1596 114.384 76.2284 114.373 76.2974 114.377C76.435 114.376 76.5674 114.429 76.6668 114.525C76.7663 114.62 76.8251 114.75 76.8311 114.887Z" fill="#02DBF3"/>
<path d="M81.2169 108.946C81.22 109.067 81.1988 109.187 81.1547 109.3C81.1106 109.412 81.0444 109.515 80.9601 109.601C80.8757 109.688 80.7749 109.757 80.6636 109.804C80.5523 109.851 80.4327 109.875 80.3119 109.875C80.1891 109.878 80.0669 109.856 79.9529 109.811C79.8388 109.765 79.7353 109.697 79.6485 109.61C79.5616 109.523 79.4933 109.419 79.4478 109.305C79.4023 109.191 79.3805 109.069 79.3837 108.946C79.3836 108.826 79.4078 108.706 79.4547 108.595C79.5016 108.483 79.5704 108.383 79.6569 108.298C79.7434 108.214 79.8459 108.148 79.9584 108.104C80.0709 108.059 80.1911 108.038 80.3119 108.041C80.4316 108.038 80.5506 108.06 80.6619 108.104C80.7731 108.148 80.8742 108.215 80.9589 108.299C81.0436 108.384 81.1101 108.485 81.1545 108.596C81.1988 108.708 81.2201 108.827 81.2169 108.946Z" fill="#02DBF3"/>
<path d="M74.7658 103.47C74.7658 103.525 74.755 103.579 74.734 103.63C74.713 103.681 74.6822 103.727 74.6435 103.766C74.6047 103.804 74.5586 103.835 74.5079 103.856C74.4572 103.877 74.4029 103.888 74.3481 103.888C74.2351 103.888 74.1263 103.845 74.0443 103.767C73.9622 103.689 73.9131 103.583 73.9072 103.47C73.9072 103.353 73.9537 103.241 74.0364 103.159C74.119 103.076 74.2312 103.029 74.3481 103.029C74.4049 103.029 74.4613 103.041 74.5135 103.063C74.5658 103.086 74.6129 103.119 74.652 103.16C74.6911 103.201 74.7213 103.25 74.7409 103.303C74.7605 103.357 74.769 103.413 74.7658 103.47Z" fill="#02DBF3"/>
<path d="M38.3343 107.113C38.4445 107.152 38.5459 107.213 38.6326 107.291C38.7192 107.37 38.7894 107.464 38.8391 107.57C38.8887 107.676 38.9169 107.791 38.9219 107.907C38.9268 108.024 38.9085 108.141 38.868 108.25C38.7844 108.469 38.6192 108.647 38.4072 108.747C38.1951 108.846 37.9527 108.86 37.731 108.784C37.5121 108.701 37.3343 108.535 37.2348 108.323C37.1352 108.111 37.1218 107.869 37.1973 107.647C37.2809 107.428 37.446 107.25 37.6581 107.151C37.8701 107.051 38.1126 107.038 38.3343 107.113Z" fill="#02DBF3"/>
<path d="M33.3684 105.118C33.5016 105.17 33.6096 105.271 33.6701 105.401C33.7306 105.53 33.7389 105.678 33.6933 105.814C33.6677 105.88 33.6293 105.94 33.5804 105.99C33.5314 106.041 33.4729 106.082 33.4081 106.11C33.3434 106.138 33.2737 106.153 33.2032 106.154C33.1326 106.155 33.0627 106.142 32.9972 106.116C32.9323 106.092 32.8727 106.056 32.8221 106.01C32.7715 105.963 32.7309 105.906 32.7027 105.843C32.6745 105.781 32.6593 105.713 32.6581 105.644C32.6568 105.575 32.6696 105.506 32.6955 105.443C32.7428 105.311 32.8398 105.203 32.9656 105.143C33.0914 105.082 33.236 105.073 33.3684 105.118Z" fill="#02DBF3"/>
<path d="M47.6627 103.285C47.7285 103.31 47.7885 103.349 47.8394 103.398C47.8902 103.447 47.9308 103.505 47.9588 103.57C47.9869 103.635 48.0018 103.704 48.0028 103.775C48.0038 103.845 47.9907 103.915 47.9644 103.981C47.9443 104.048 47.9101 104.11 47.8639 104.162C47.8178 104.215 47.7608 104.257 47.6969 104.286C47.6331 104.314 47.5639 104.329 47.4939 104.328C47.424 104.328 47.3549 104.312 47.2915 104.283C47.2244 104.262 47.1626 104.228 47.11 104.182C47.0574 104.136 47.0154 104.079 46.9867 104.015C46.9581 103.951 46.9436 103.882 46.9441 103.812C46.9446 103.742 46.9603 103.673 46.9899 103.61C47.0372 103.478 47.1341 103.37 47.2599 103.31C47.3858 103.249 47.5304 103.24 47.6627 103.285Z" fill="#02DBF3"/>
<path d="M43.6946 97.112C43.9249 97.1958 44.1126 97.3673 44.217 97.589C44.3213 97.8107 44.3337 98.0646 44.2515 98.2954C44.1628 98.5274 43.987 98.7155 43.7615 98.8195C43.5361 98.9236 43.2789 98.9353 43.0449 98.8524C42.8172 98.7592 42.6344 98.5816 42.5349 98.3566C42.4354 98.1316 42.4269 97.8768 42.5112 97.6457C42.5995 97.4197 42.7728 97.2373 42.994 97.1375C43.2152 97.0378 43.4667 97.0286 43.6946 97.112Z" fill="#02DBF3"/>
<path d="M36.2691 101.243C36.3756 101.284 36.4617 101.366 36.5093 101.47C36.5569 101.573 36.5623 101.692 36.5244 101.8C36.4784 101.902 36.3965 101.985 36.2941 102.032C36.1916 102.079 36.0755 102.087 35.9675 102.055C35.9149 102.034 35.867 102.004 35.8266 101.964C35.7862 101.925 35.7542 101.878 35.7326 101.826C35.7109 101.774 35.7 101.718 35.7005 101.662C35.701 101.605 35.7129 101.55 35.7355 101.498C35.7769 101.397 35.8545 101.315 35.9531 101.267C36.0518 101.22 36.1643 101.211 36.2691 101.243Z" fill="#02DBF3"/>
<path d="M24.5275 111.522C24.7121 111.522 24.8892 111.596 25.0197 111.726C25.1503 111.857 25.2237 112.034 25.2237 112.218C25.2179 112.401 25.1427 112.575 25.0133 112.704C24.884 112.834 24.7103 112.909 24.5275 112.915C24.3447 112.909 24.171 112.834 24.0417 112.704C23.9124 112.575 23.8372 112.401 23.8314 112.218C23.8314 112.034 23.9047 111.857 24.0352 111.726C24.1658 111.596 24.3429 111.522 24.5275 111.522Z" fill="#02DBF3"/>
<path d="M20.3506 111.453C20.4596 111.458 20.5626 111.504 20.6398 111.581C20.7169 111.658 20.7627 111.761 20.7683 111.87C20.7683 111.981 20.7243 112.087 20.646 112.166C20.5677 112.244 20.4614 112.288 20.3506 112.288C20.2398 112.288 20.1336 112.244 20.0552 112.166C19.9769 112.087 19.9329 111.981 19.9329 111.87C19.9329 111.76 19.9769 111.653 20.0552 111.575C20.1336 111.497 20.2398 111.453 20.3506 111.453Z" fill="#02DBF3"/>
<path d="M30.259 106.139C30.3659 106.139 30.4687 106.179 30.5464 106.253C30.6241 106.326 30.6708 106.427 30.6767 106.533C30.6769 106.64 30.636 106.743 30.5626 106.821C30.4893 106.898 30.3889 106.945 30.2822 106.951C30.2285 106.954 30.1747 106.946 30.1241 106.928C30.0735 106.909 30.0272 106.881 29.9881 106.844C29.949 106.807 29.9179 106.762 29.8966 106.713C29.8754 106.664 29.8645 106.61 29.8645 106.556C29.8614 106.503 29.8692 106.449 29.8876 106.398C29.906 106.348 29.9346 106.302 29.9715 106.262C30.0085 106.223 30.053 106.192 30.1025 106.171C30.1519 106.15 30.2052 106.139 30.259 106.139Z" fill="#02DBF3"/>
<path d="M25.6181 102.728C25.7145 102.725 25.8106 102.741 25.9005 102.776C25.9905 102.81 26.0726 102.863 26.1419 102.93C26.2112 102.997 26.2662 103.077 26.3038 103.166C26.3414 103.255 26.3608 103.351 26.3607 103.447C26.3607 103.638 26.2849 103.821 26.15 103.956C26.0151 104.091 25.8321 104.166 25.6414 104.166C25.548 104.169 25.455 104.154 25.3678 104.12C25.2806 104.087 25.2012 104.036 25.134 103.971C25.0669 103.906 25.0135 103.828 24.9771 103.742C24.9407 103.656 24.922 103.564 24.922 103.47C24.9157 103.375 24.9289 103.279 24.961 103.19C24.9932 103.1 25.0435 103.017 25.1088 102.948C25.174 102.878 25.253 102.823 25.3406 102.785C25.4282 102.747 25.5227 102.727 25.6181 102.728Z" fill="#02DBF3"/>
<path d="M21.3717 107.925C21.464 107.925 21.5525 107.962 21.6178 108.027C21.6831 108.093 21.7198 108.181 21.7198 108.274C21.7139 108.362 21.6747 108.444 21.61 108.505C21.5454 108.565 21.4601 108.599 21.3717 108.598C21.2856 108.598 21.2029 108.564 21.142 108.503C21.0811 108.442 21.0468 108.36 21.0468 108.274C21.0466 108.185 21.0801 108.1 21.1404 108.035C21.2008 107.971 21.2835 107.931 21.3717 107.925Z" fill="#02DBF3"/>
<path d="M21.7892 84.4191C21.8795 84.416 21.9695 84.4311 22.0538 84.4635C22.1382 84.4959 22.2151 84.545 22.2801 84.6078C22.3451 84.6706 22.3967 84.7459 22.432 84.8291C22.4672 84.9122 22.4854 85.0017 22.4853 85.0921C22.4885 85.1844 22.4728 85.2763 22.4389 85.3622C22.4051 85.4482 22.354 85.5262 22.2887 85.5915C22.2234 85.6568 22.1453 85.708 22.0594 85.7418C21.9734 85.7756 21.8815 85.7914 21.7892 85.7882C21.6085 85.7883 21.4349 85.7181 21.305 85.5926C21.1751 85.467 21.0991 85.2958 21.0931 85.1153C21.0898 85.023 21.1056 84.931 21.1395 84.8451C21.1733 84.7591 21.2244 84.6811 21.2897 84.6158C21.355 84.5505 21.4331 84.4993 21.519 84.4655C21.605 84.4317 21.6969 84.4159 21.7892 84.4191Z" fill="#02DBF3"/>
<path d="M17.5892 84.3496C17.6961 84.3494 17.7989 84.3902 17.8766 84.4636C17.9543 84.537 18.0009 84.6374 18.0069 84.7441C18.01 84.7978 18.0022 84.8516 17.9838 84.9022C17.9654 84.9527 17.9368 84.999 17.8999 85.0381C17.8629 85.0772 17.8184 85.1084 17.7689 85.1296C17.7195 85.1509 17.6662 85.1618 17.6124 85.1617C17.5587 85.1649 17.5049 85.157 17.4543 85.1386C17.4037 85.1202 17.3574 85.0917 17.3183 85.0547C17.2792 85.0178 17.2481 84.9732 17.2268 84.9238C17.2056 84.8743 17.1946 84.8211 17.1947 84.7673C17.1915 84.7135 17.1994 84.6597 17.2178 84.6092C17.2362 84.5586 17.2647 84.5123 17.3017 84.4732C17.3386 84.4341 17.3832 84.4029 17.4327 84.3817C17.4821 84.3604 17.5354 84.3495 17.5892 84.3496Z" fill="#02DBF3"/>
<path d="M27.4514 79.0124C27.5622 79.0124 27.6684 79.0564 27.7467 79.1347C27.8251 79.2131 27.869 79.3193 27.869 79.4301C27.869 79.5409 27.8251 79.6471 27.7467 79.7254C27.6684 79.8038 27.5622 79.8478 27.4514 79.8478C27.3406 79.8478 27.2343 79.8038 27.156 79.7254C27.0777 79.6471 27.0337 79.5409 27.0337 79.4301C27.0337 79.3193 27.0777 79.2131 27.156 79.1347C27.2343 79.0564 27.3406 79.0124 27.4514 79.0124Z" fill="#02DBF3"/>
<path d="M22.8104 75.6244C22.9049 75.6213 22.999 75.6368 23.0875 75.6701C23.176 75.7034 23.257 75.7539 23.3259 75.8185C23.3949 75.8832 23.4505 75.9608 23.4894 76.0469C23.5284 76.133 23.55 76.226 23.553 76.3205C23.5561 76.4169 23.5398 76.5129 23.505 76.6029C23.4703 76.6929 23.4178 76.7749 23.3506 76.8442C23.2835 76.9135 23.2032 76.9686 23.1143 77.0062C23.0255 77.0437 22.9301 77.0631 22.8336 77.063C22.6406 77.0631 22.4552 76.9881 22.3166 76.8538C22.178 76.7196 22.0971 76.5366 22.0911 76.3437C22.0911 76.1529 22.1668 75.9699 22.3017 75.835C22.4366 75.7001 22.6196 75.6244 22.8104 75.6244Z" fill="#02DBF3"/>
<path d="M18.6335 80.7064C18.7197 80.7064 18.8022 80.7406 18.8632 80.8015C18.9241 80.8625 18.9583 80.9451 18.9583 81.0313C18.9585 81.1197 18.9251 81.2049 18.8647 81.2695C18.8044 81.3342 18.7217 81.3734 18.6335 81.3793C18.5453 81.3734 18.4626 81.3342 18.4022 81.2695C18.3419 81.2049 18.3084 81.1197 18.3086 81.0313C18.3086 80.9451 18.3429 80.8625 18.4038 80.8015C18.4647 80.7406 18.5473 80.7064 18.6335 80.7064Z" fill="#02DBF3"/>
<path d="M20.4899 56.8749C20.6175 57.005 20.6889 57.18 20.6889 57.3622C20.6889 57.5444 20.6175 57.7194 20.4899 57.8495C20.3598 57.9771 20.1849 58.0485 20.0026 58.0485C19.8204 58.0485 19.6454 57.9771 19.5153 57.8495C19.3877 57.7194 19.3163 57.5444 19.3163 57.3622C19.3163 57.18 19.3877 57.005 19.5153 56.8749C19.6454 56.7474 19.8204 56.6759 20.0026 56.6759C20.1849 56.6759 20.3598 56.7474 20.4899 56.8749Z" fill="#02DBF3"/>
<path d="M17.8677 53.6726C17.9429 53.7505 17.9848 53.8545 17.9848 53.9627C17.9848 54.0709 17.9429 54.1749 17.8677 54.2527C17.8308 54.2928 17.7859 54.3248 17.736 54.3467C17.6861 54.3686 17.6322 54.3799 17.5776 54.3799C17.5231 54.3799 17.4692 54.3686 17.4193 54.3467C17.3694 54.3248 17.3245 54.2928 17.2876 54.2527C17.2124 54.1749 17.1705 54.0709 17.1705 53.9627C17.1705 53.8545 17.2124 53.7505 17.2876 53.6726C17.3654 53.5975 17.4694 53.5555 17.5776 53.5555C17.6859 53.5555 17.7898 53.5975 17.8677 53.6726Z" fill="#02DBF3"/>
<path d="M28.2867 57.9657C28.3569 58.0461 28.3956 58.1491 28.3956 58.2558C28.3956 58.3624 28.3569 58.4655 28.2867 58.5458C28.2089 58.621 28.1049 58.663 27.9967 58.663C27.8885 58.663 27.7845 58.621 27.7066 58.5458C27.6665 58.5089 27.6346 58.464 27.6127 58.4141C27.5908 58.3642 27.5795 58.3103 27.5795 58.2558C27.5795 58.2013 27.5908 58.1474 27.6127 58.0974C27.6346 58.0475 27.6665 58.0027 27.7066 57.9657C27.7435 57.9256 27.7884 57.8936 27.8383 57.8718C27.8882 57.8499 27.9422 57.8386 27.9967 57.8386C28.0512 57.8386 28.1052 57.8499 28.1551 57.8718C28.205 57.8936 28.2498 57.9256 28.2867 57.9657Z" fill="#02DBF3"/>
<path d="M27.9617 52.234C28.0291 52.3008 28.0825 52.3804 28.119 52.468C28.1555 52.5556 28.1743 52.6496 28.1743 52.7445C28.1743 52.8394 28.1555 52.9333 28.119 53.0209C28.0825 53.1086 28.0291 53.1881 27.9617 53.255C27.8966 53.3253 27.8176 53.3813 27.7298 53.4197C27.6419 53.458 27.5471 53.4778 27.4512 53.4778C27.3554 53.4778 27.2606 53.458 27.1727 53.4197C27.0849 53.3813 27.0059 53.3253 26.9407 53.255C26.8734 53.1881 26.8199 53.1086 26.7834 53.0209C26.747 52.9333 26.7282 52.8394 26.7282 52.7445C26.7282 52.6496 26.747 52.5556 26.7834 52.468C26.8199 52.3804 26.8734 52.3008 26.9407 52.234C27.0056 52.1673 27.0831 52.1143 27.1688 52.0781C27.2545 52.042 27.3466 52.0233 27.4396 52.0233C27.5326 52.0233 27.6247 52.042 27.7104 52.0781C27.7961 52.1143 27.8736 52.1673 27.9385 52.234H27.9617Z" fill="#02DBF3"/>
<path d="M21.3484 52.2341C21.3792 52.2644 21.4038 52.3005 21.4205 52.3403C21.4373 52.3802 21.4459 52.4229 21.4459 52.4662C21.4459 52.5094 21.4373 52.5522 21.4205 52.592C21.4038 52.6319 21.3792 52.6679 21.3484 52.6982C21.3201 52.7323 21.2846 52.7597 21.2445 52.7785C21.2044 52.7974 21.1606 52.8071 21.1163 52.8071C21.072 52.8071 21.0282 52.7974 20.9881 52.7785C20.948 52.7597 20.9126 52.7323 20.8843 52.6982C20.8502 52.6699 20.8228 52.6344 20.8039 52.5943C20.7851 52.5542 20.7754 52.5105 20.7754 52.4662C20.7754 52.4218 20.7851 52.3781 20.8039 52.338C20.8228 52.2979 20.8502 52.2624 20.8843 52.2341C20.9146 52.2032 20.9506 52.1787 20.9905 52.162C21.0303 52.1452 21.0731 52.1366 21.1163 52.1366C21.1595 52.1366 21.2024 52.1452 21.2422 52.162C21.2821 52.1787 21.3181 52.2032 21.3484 52.2341Z" fill="#02DBF3"/>
<path d="M21.7894 32.9509C21.8554 33.0137 21.908 33.0893 21.9439 33.1731C21.9798 33.2569 21.9982 33.3471 21.9982 33.4382C21.9982 33.5293 21.9798 33.6195 21.9439 33.7033C21.908 33.787 21.8554 33.8626 21.7894 33.9255C21.6593 34.053 21.4843 34.1245 21.3021 34.1245C21.1199 34.1245 20.945 34.053 20.8148 33.9255C20.6873 33.7954 20.6158 33.6204 20.6158 33.4382C20.6158 33.256 20.6873 33.081 20.8148 32.9509C20.945 32.8233 21.1199 32.7519 21.3021 32.7519C21.4843 32.7519 21.6593 32.8233 21.7894 32.9509Z" fill="#02DBF3"/>
<path d="M19.1904 29.679C19.2656 29.7568 19.3075 29.8608 19.3075 29.969C19.3075 30.0772 19.2656 30.1812 19.1904 30.2591C19.1535 30.2992 19.1086 30.3312 19.0587 30.3531C19.0088 30.3749 18.9549 30.3862 18.9003 30.3862C18.8458 30.3862 18.7919 30.3749 18.742 30.3531C18.6921 30.3312 18.6472 30.2992 18.6103 30.2591C18.5702 30.2222 18.5382 30.1773 18.5163 30.1274C18.4944 30.0775 18.4832 30.0235 18.4832 29.969C18.4832 29.9145 18.4944 29.8606 18.5163 29.8107C18.5382 29.7608 18.5702 29.7159 18.6103 29.679C18.6906 29.6088 18.7937 29.5701 18.9003 29.5701C19.007 29.5701 19.1101 29.6088 19.1904 29.679Z" fill="#02DBF3"/>
<path d="M29.6093 33.9719C29.6845 34.0497 29.7264 34.1537 29.7264 34.2619C29.7264 34.3701 29.6845 34.4741 29.6093 34.552C29.5314 34.6271 29.4275 34.6691 29.3192 34.6691C29.211 34.6691 29.1071 34.6271 29.0292 34.552C28.954 34.4741 28.9121 34.3701 28.9121 34.2619C28.9121 34.1537 28.954 34.0497 29.0292 33.9719C29.1109 33.8952 29.2188 33.8525 29.3309 33.8525C29.4429 33.8525 29.5508 33.8952 29.6325 33.9719H29.6093Z" fill="#02DBF3"/>
<path d="M29.2844 28.2403C29.4149 28.3782 29.4877 28.5609 29.4877 28.7508C29.4877 28.9407 29.4149 29.1234 29.2844 29.2613C29.2175 29.3287 29.138 29.3822 29.0503 29.4186C28.9627 29.4551 28.8688 29.4739 28.7739 29.4739C28.679 29.4739 28.585 29.4551 28.4973 29.4186C28.4097 29.3822 28.3302 29.3287 28.2634 29.2613C28.1967 29.1965 28.1437 29.1189 28.1075 29.0332C28.0713 28.9475 28.0527 28.8555 28.0527 28.7624C28.0527 28.6694 28.0713 28.5773 28.1075 28.4917C28.1437 28.406 28.1967 28.3284 28.2634 28.2635C28.3302 28.1962 28.4097 28.1427 28.4973 28.1062C28.585 28.0698 28.679 28.051 28.7739 28.051C28.8688 28.051 28.9627 28.0698 29.0503 28.1062C29.138 28.1427 29.2175 28.1962 29.2844 28.2635V28.2403Z" fill="#02DBF3"/>
<path d="M22.6479 28.1707C22.6788 28.2009 22.7033 28.2371 22.7201 28.2769C22.7368 28.3167 22.7454 28.3595 22.7454 28.4028C22.7454 28.446 22.7368 28.4888 22.7201 28.5286C22.7033 28.5684 22.6788 28.6046 22.6479 28.6348C22.5828 28.6986 22.4954 28.7343 22.4043 28.7343C22.3132 28.7343 22.2257 28.6986 22.1606 28.6348C22.1018 28.5672 22.0695 28.4807 22.0695 28.3911C22.0695 28.3016 22.1018 28.2151 22.1606 28.1475C22.1909 28.1166 22.227 28.0921 22.2668 28.0754C22.3067 28.0586 22.3495 28.05 22.3927 28.05C22.4359 28.05 22.4787 28.0586 22.5185 28.0754C22.5584 28.0921 22.5945 28.1166 22.6247 28.1475L22.6479 28.1707Z" fill="#02DBF3"/>
<path d="M31.1409 19.4456C31.1112 19.5619 31.0588 19.6711 30.9865 19.7669C30.9143 19.8627 30.8236 19.9432 30.72 20.0036C30.6163 20.0641 30.5017 20.1033 30.3828 20.1191C30.2638 20.1348 30.1429 20.1268 30.0271 20.0953C29.9117 20.0683 29.8029 20.0183 29.7073 19.9484C29.6117 19.8784 29.5312 19.7899 29.4705 19.6881C29.4099 19.5863 29.3704 19.4733 29.3544 19.3559C29.3384 19.2385 29.3461 19.119 29.3773 19.0047C29.4046 18.8888 29.4545 18.7795 29.5241 18.6829C29.5937 18.5863 29.6817 18.5045 29.783 18.4419C29.8843 18.3794 29.997 18.3375 30.1145 18.3186C30.232 18.2997 30.3521 18.3042 30.4679 18.3318C30.7038 18.3921 30.9065 18.5427 31.0323 18.751C31.1582 18.9594 31.1972 19.2088 31.1409 19.4456Z" fill="#02DBF3"/>
<path d="M32.6261 14.1085C32.5879 14.2492 32.496 14.3694 32.3702 14.4432C32.2443 14.517 32.0946 14.5384 31.9531 14.5029C31.8123 14.4648 31.6921 14.3729 31.6184 14.2471C31.5446 14.1212 31.5231 13.9715 31.5586 13.83C31.5968 13.6942 31.6852 13.5779 31.8058 13.5047C31.9264 13.4315 32.0702 13.4067 32.2083 13.4355C32.2802 13.4519 32.3481 13.4824 32.408 13.5252C32.468 13.5679 32.5188 13.6222 32.5577 13.6848C32.5965 13.7474 32.6226 13.8171 32.6343 13.8898C32.646 13.9625 32.6433 14.0368 32.6261 14.1085Z" fill="#02DBF3"/>
<path d="M36.13 28.5884C36.0918 28.7242 36.0035 28.8405 35.8829 28.9137C35.7623 28.9869 35.6184 29.0117 35.4802 28.9829C35.3383 28.9445 35.2162 28.8537 35.1387 28.7288C35.0611 28.6038 35.0339 28.4541 35.0626 28.3099C35.1007 28.1691 35.1926 28.0489 35.3184 27.9752C35.4442 27.9014 35.594 27.88 35.7355 27.9154C35.8763 27.9536 35.9965 28.0455 36.0703 28.1713C36.144 28.2971 36.1654 28.4469 36.13 28.5884Z" fill="#02DBF3"/>
<path d="M42.0238 23.7849C41.9582 24.0285 41.8006 24.2373 41.5842 24.3671C41.3678 24.4969 41.1094 24.5378 40.8635 24.481C40.6199 24.4154 40.4111 24.2578 40.2813 24.0414C40.1515 23.825 40.1107 23.5667 40.1674 23.3208C40.1973 23.1985 40.251 23.0834 40.3256 22.9821C40.4003 22.8807 40.4943 22.7952 40.6022 22.7305C40.7101 22.6658 40.8298 22.623 40.9543 22.6049C41.0789 22.5867 41.2058 22.5934 41.3277 22.6246C41.4499 22.6545 41.5651 22.7083 41.6664 22.7829C41.7677 22.8575 41.8532 22.9515 41.9179 23.0594C41.9827 23.1673 42.0254 23.287 42.0435 23.4115C42.0617 23.5361 42.055 23.663 42.0238 23.7849Z" fill="#02DBF3"/>
<path d="M36.9188 16.6378C36.9079 16.6934 36.8859 16.7461 36.854 16.7928C36.8221 16.8396 36.781 16.8793 36.7332 16.9097C36.6855 16.9401 36.6321 16.9604 36.5762 16.9696C36.5204 16.9787 36.4632 16.9763 36.4083 16.9627C36.3502 16.9522 36.295 16.9295 36.2464 16.8961C36.1977 16.8627 36.1567 16.8193 36.126 16.7689C36.0953 16.7184 36.0756 16.6621 36.0683 16.6035C36.0609 16.5449 36.0661 16.4854 36.0835 16.429C36.0971 16.3725 36.1217 16.3193 36.1559 16.2724C36.1902 16.2255 36.2333 16.1859 36.2828 16.1557C36.3324 16.1255 36.3875 16.1054 36.4449 16.0966C36.5022 16.0877 36.5609 16.0903 36.6172 16.1041C36.7269 16.1366 36.8197 16.2104 36.876 16.31C36.9323 16.4095 36.9476 16.5271 36.9188 16.6378Z" fill="#02DBF3"/>
<path d="M61.3304 20.9771C61.3007 21.0933 61.2482 21.2026 61.1759 21.2984C61.1037 21.3942 61.0131 21.4746 60.9095 21.5351C60.8058 21.5956 60.6912 21.6348 60.5722 21.6505C60.4533 21.6663 60.3324 21.6582 60.2165 21.6268C60.1003 21.5971 59.9911 21.5447 59.8953 21.4724C59.7995 21.4001 59.719 21.3095 59.6585 21.2059C59.5981 21.1022 59.5588 20.9876 59.5431 20.8687C59.5273 20.7497 59.5354 20.6288 59.5668 20.513C59.5938 20.3976 59.6438 20.2888 59.7138 20.1932C59.7837 20.0976 59.8723 20.0171 59.9741 19.9564C60.0759 19.8958 60.1889 19.8563 60.3063 19.8403C60.4237 19.8242 60.5431 19.8321 60.6574 19.8633C60.8932 19.9236 61.0959 20.0741 61.2218 20.2825C61.3476 20.4908 61.3867 20.7403 61.3304 20.9771Z" fill="#02DBF3"/>
<path d="M62.8155 15.64C62.7773 15.7808 62.6855 15.9009 62.5596 15.9747C62.4338 16.0485 62.2841 16.0699 62.1426 16.0345C62.0018 15.9963 61.8816 15.9044 61.8078 15.7786C61.7341 15.6527 61.7126 15.503 61.7481 15.3615C61.7862 15.2207 61.8781 15.1006 62.0039 15.0268C62.1298 14.953 62.2796 14.9316 62.421 14.967C62.5618 15.0052 62.682 15.0971 62.7558 15.2229C62.8295 15.3487 62.851 15.4985 62.8155 15.64Z" fill="#02DBF3"/>
<path d="M66.3194 30.0966C66.3062 30.1671 66.2783 30.234 66.2375 30.293C66.1967 30.352 66.1439 30.4017 66.0826 30.4389C66.0213 30.4761 65.9529 30.5 65.8817 30.509C65.8106 30.518 65.7383 30.5119 65.6697 30.4911C65.5988 30.4775 65.5314 30.4496 65.4716 30.4091C65.4118 30.3686 65.3608 30.3164 65.3218 30.2557C65.2827 30.1949 65.2564 30.1269 65.2444 30.0557C65.2324 29.9845 65.235 29.9116 65.252 29.8414C65.2681 29.77 65.2986 29.7027 65.3418 29.6437C65.3849 29.5846 65.4397 29.535 65.5028 29.498C65.5659 29.461 65.636 29.4374 65.7086 29.4286C65.7812 29.4198 65.8548 29.4261 65.9249 29.4469C65.9937 29.4632 66.0587 29.493 66.1158 29.5346C66.173 29.5762 66.2214 29.6288 66.2581 29.6893C66.2948 29.7497 66.3191 29.8169 66.3296 29.8868C66.3402 29.9567 66.3367 30.0281 66.3194 30.0966Z" fill="#02DBF3"/>
<path d="M72.2133 25.2933C72.1835 25.4156 72.1297 25.5307 72.055 25.632C71.9804 25.7333 71.8864 25.8188 71.7785 25.8836C71.6706 25.9483 71.5509 25.991 71.4264 26.0092C71.3019 26.0274 71.175 26.0207 71.0531 25.9895C70.8094 25.9238 70.6007 25.7662 70.4708 25.5498C70.341 25.3334 70.3001 25.0751 70.3569 24.8292C70.4222 24.5866 70.5809 24.3796 70.7983 24.2535C71.0157 24.1274 71.2741 24.0925 71.5171 24.1563C71.6385 24.1834 71.7531 24.2347 71.8543 24.3071C71.9554 24.3794 72.041 24.4713 72.106 24.5774C72.1709 24.6834 72.2139 24.8015 72.2323 24.9244C72.2507 25.0474 72.2443 25.1729 72.2133 25.2933Z" fill="#02DBF3"/>
<path d="M67.1083 18.1695C67.0974 18.225 67.0753 18.2777 67.0434 18.3245C67.0115 18.3712 66.9704 18.411 66.9227 18.4414C66.875 18.4717 66.8215 18.4921 66.7657 18.5012C66.7098 18.5103 66.6527 18.508 66.5978 18.4944C66.5397 18.4838 66.4845 18.4611 66.4358 18.4277C66.3872 18.3943 66.3461 18.3509 66.3154 18.3005C66.2847 18.2501 66.2651 18.1937 66.2577 18.1351C66.2504 18.0766 66.2556 18.0171 66.273 17.9607C66.2866 17.9042 66.3111 17.851 66.3453 17.8041C66.3795 17.7572 66.4227 17.7175 66.4723 17.6874C66.5219 17.6572 66.577 17.6371 66.6343 17.6282C66.6917 17.6194 66.7502 17.6219 66.8066 17.6358C66.8626 17.649 66.9153 17.6737 66.9614 17.7083C67.0074 17.7429 67.0458 17.7866 67.0741 17.8367C67.1024 17.8868 67.1201 17.9423 67.126 17.9995C67.1319 18.0568 67.1258 18.1147 67.1083 18.1695Z" fill="#02DBF3"/>
<path d="M94.1884 27.1031C94.4269 27.0754 94.6672 27.1389 94.8608 27.2809C95.0545 27.4229 95.1873 27.633 95.2325 27.8689C95.2656 28.1118 95.2013 28.358 95.0535 28.5537C94.9056 28.7493 94.6864 28.8785 94.4436 28.9131C94.2068 28.9462 93.9665 28.8843 93.7752 28.7408C93.5839 28.5973 93.4571 28.384 93.4226 28.1473C93.3994 28.0279 93.4012 27.905 93.4277 27.7864C93.4543 27.6677 93.5052 27.5558 93.5771 27.4577C93.649 27.3597 93.7404 27.2776 93.8456 27.2165C93.9508 27.1555 94.0675 27.1169 94.1884 27.1031Z" fill="#02DBF3"/>
<path d="M88.6887 27.753C88.8331 27.7329 88.9795 27.7703 89.0967 27.8571C89.2138 27.9439 89.2923 28.0731 89.3152 28.2171C89.3352 28.3615 89.2979 28.508 89.2111 28.6251C89.1243 28.7422 88.9951 28.8207 88.8511 28.8436C88.7067 28.8636 88.5602 28.8263 88.4431 28.7395C88.3259 28.6527 88.2475 28.5235 88.2246 28.3795C88.2046 28.2351 88.2419 28.0886 88.3287 27.9715C88.4155 27.8543 88.5447 27.7759 88.6887 27.753Z" fill="#02DBF3"/>
<path d="M100.732 19.0048C100.876 18.9848 101.023 19.0222 101.14 19.1089C101.257 19.1957 101.336 19.3249 101.359 19.4689C101.379 19.6133 101.341 19.7598 101.255 19.8769C101.168 19.9941 101.039 20.0725 100.895 20.0954C100.75 20.1155 100.604 20.0781 100.486 19.9913C100.369 19.9046 100.291 19.7753 100.268 19.6313C100.254 19.4879 100.293 19.3443 100.379 19.2285C100.465 19.1127 100.591 19.0329 100.732 19.0048Z" fill="#02DBF3"/>
<path d="M94.0723 15.3847C94.3214 15.3517 94.5735 15.4185 94.7735 15.5707C94.9735 15.7229 95.1052 15.948 95.1398 16.1969C95.1594 16.3207 95.1537 16.4472 95.1231 16.5687C95.0925 16.6902 95.0376 16.8043 94.9617 16.9041C94.8858 17.0038 94.7904 17.0871 94.6815 17.1491C94.5725 17.211 94.4521 17.2502 94.3276 17.2643C94.2055 17.284 94.0807 17.2791 93.9606 17.25C93.8404 17.2208 93.7273 17.1679 93.6279 17.0944C93.5284 17.0209 93.4446 16.9283 93.3815 16.822C93.3184 16.7157 93.2771 16.5978 93.2601 16.4753C93.237 16.3498 93.2401 16.2209 93.2691 16.0966C93.2981 15.9724 93.3524 15.8554 93.4286 15.753C93.5048 15.6507 93.6013 15.5652 93.7121 15.5018C93.8228 15.4384 93.9454 15.3986 94.0723 15.3847Z" fill="#02DBF3"/>
<path d="M89.4081 22.8103C89.5205 22.8025 89.632 22.8358 89.7216 22.9041C89.8113 22.9725 89.8731 23.0711 89.8954 23.1816C89.9052 23.2383 89.9033 23.2963 89.8896 23.3522C89.876 23.4081 89.8509 23.4605 89.816 23.5063C89.7812 23.552 89.7373 23.5901 89.687 23.6181C89.6368 23.6461 89.5813 23.6634 89.5241 23.6689C89.4674 23.6788 89.4093 23.6768 89.3535 23.6632C89.2976 23.6495 89.2451 23.6245 89.1994 23.5896C89.1536 23.5548 89.1155 23.5109 89.0876 23.4606C89.0596 23.4104 89.0423 23.3549 89.0368 23.2976C89.0269 23.241 89.0289 23.1829 89.0425 23.127C89.0562 23.0711 89.0812 23.0187 89.116 22.9729C89.1509 22.9272 89.1948 22.8891 89.2451 22.8612C89.2953 22.8332 89.3508 22.8159 89.4081 22.8103Z" fill="#02DBF3"/>
<path d="M111.87 23.5296C112.061 23.5025 112.254 23.5503 112.41 23.6628C112.566 23.7753 112.672 23.9438 112.706 24.1329C112.719 24.2275 112.713 24.3237 112.688 24.416C112.664 24.5083 112.621 24.5947 112.563 24.6703C112.504 24.7459 112.432 24.8091 112.349 24.8563C112.266 24.9035 112.174 24.9337 112.079 24.9451C111.986 24.9615 111.89 24.9588 111.798 24.937C111.706 24.9152 111.619 24.8748 111.543 24.8183C111.467 24.7619 111.404 24.6905 111.356 24.6085C111.309 24.5266 111.278 24.4358 111.267 24.3418C111.24 24.1542 111.289 23.9637 111.402 23.8117C111.515 23.6596 111.683 23.5583 111.87 23.5296Z" fill="#02DBF3"/>
<path d="M107.531 24.0401C107.645 24.0267 107.759 24.058 107.85 24.1273C107.941 24.1965 108.001 24.2984 108.018 24.4114C108.028 24.468 108.026 24.5261 108.013 24.582C107.999 24.6379 107.974 24.6903 107.939 24.7361C107.904 24.7818 107.86 24.8199 107.81 24.8478C107.76 24.8758 107.704 24.8931 107.647 24.8987C107.535 24.9065 107.423 24.8732 107.333 24.8049C107.244 24.7365 107.182 24.6379 107.16 24.5274C107.146 24.4139 107.178 24.2996 107.247 24.2087C107.316 24.1178 107.418 24.0574 107.531 24.0401Z" fill="#02DBF3"/>
<path d="M117.068 17.1252C117.123 17.1152 117.18 17.1164 117.234 17.1286C117.289 17.1408 117.34 17.1638 117.385 17.1963C117.431 17.2287 117.469 17.27 117.499 17.3175C117.528 17.3651 117.547 17.418 117.556 17.4732C117.569 17.5895 117.539 17.7067 117.47 17.8013C117.401 17.896 117.299 17.9611 117.184 17.9837C117.071 17.9971 116.957 17.9658 116.866 17.8966C116.775 17.8273 116.714 17.7254 116.697 17.6125C116.684 17.499 116.715 17.3847 116.784 17.2938C116.853 17.2029 116.955 17.1424 117.068 17.1252Z" fill="#02DBF3"/>
<path d="M111.778 14.2477C111.974 14.2207 112.173 14.2709 112.333 14.3877C112.493 14.5046 112.602 14.6789 112.636 14.8742C112.652 14.9736 112.648 15.0752 112.624 15.173C112.6 15.2708 112.556 15.3626 112.496 15.4429C112.435 15.5233 112.358 15.5904 112.271 15.6402C112.183 15.69 112.086 15.7215 111.986 15.7328C111.889 15.7492 111.789 15.746 111.692 15.7233C111.596 15.7006 111.505 15.6588 111.425 15.6004C111.345 15.542 111.278 15.4682 111.227 15.3834C111.175 15.2985 111.142 15.2043 111.128 15.1062C111.101 14.9064 111.155 14.7042 111.276 14.5435C111.398 14.3827 111.578 14.2764 111.778 14.2477Z" fill="#02DBF3"/>
<path d="M108.088 20.1185C108.179 20.1112 108.27 20.138 108.343 20.1937C108.416 20.2494 108.466 20.33 108.483 20.4202C108.49 20.5116 108.463 20.6024 108.407 20.6753C108.352 20.7481 108.271 20.7977 108.181 20.8146C108.089 20.8219 107.999 20.7952 107.926 20.7395C107.853 20.6838 107.803 20.6031 107.786 20.513C107.779 20.4216 107.806 20.3307 107.862 20.2579C107.917 20.185 107.998 20.1354 108.088 20.1185Z" fill="#02DBF3"/>
<path d="M112.149 43.7179C112.243 43.7014 112.34 43.704 112.434 43.7255C112.527 43.7471 112.616 43.7871 112.694 43.8434C112.772 43.8996 112.837 43.9708 112.887 44.0529C112.937 44.135 112.97 44.2262 112.984 44.3212C112.997 44.4158 112.991 44.512 112.967 44.6043C112.942 44.6966 112.899 44.783 112.841 44.8586C112.783 44.9342 112.71 44.9974 112.627 45.0446C112.544 45.0918 112.452 45.122 112.358 45.1334C112.17 45.16 111.98 45.1116 111.827 44.9986C111.675 44.8857 111.574 44.7173 111.545 44.5301C111.519 44.3425 111.567 44.1521 111.68 44C111.793 43.8479 111.961 43.7466 112.149 43.7179Z" fill="#02DBF3"/>
<path d="M107.809 44.2283C107.923 44.2149 108.037 44.2462 108.128 44.3154C108.219 44.3847 108.279 44.4866 108.297 44.5995C108.307 44.6545 108.305 44.7108 108.293 44.7653C108.281 44.8198 108.258 44.8713 108.226 44.9167C108.193 44.9621 108.152 45.0006 108.104 45.0298C108.057 45.059 108.004 45.0784 107.949 45.0868C107.892 45.0967 107.834 45.0947 107.778 45.0811C107.722 45.0675 107.67 45.0424 107.624 45.0076C107.578 44.9727 107.54 44.9288 107.512 44.8785C107.484 44.8283 107.467 44.7728 107.461 44.7156C107.451 44.6606 107.453 44.6043 107.465 44.5498C107.477 44.4953 107.5 44.4438 107.532 44.3984C107.565 44.353 107.606 44.3145 107.654 44.2853C107.701 44.2561 107.754 44.2367 107.809 44.2283Z" fill="#02DBF3"/>
<path d="M117.347 37.3133C117.403 37.3035 117.462 37.3054 117.517 37.3191C117.573 37.3327 117.626 37.3577 117.671 37.3926C117.717 37.4275 117.755 37.4714 117.783 37.5216C117.811 37.5719 117.829 37.6274 117.834 37.6846C117.847 37.7981 117.816 37.9124 117.747 38.0033C117.678 38.0942 117.576 38.1546 117.463 38.1719C117.35 38.1798 117.239 38.1464 117.149 38.0781C117.06 38.0098 116.998 37.9111 116.975 37.8006C116.962 37.6871 116.993 37.5729 117.063 37.482C117.132 37.391 117.234 37.3306 117.347 37.3133Z" fill="#02DBF3"/>
<path d="M112.056 34.4358C112.256 34.4093 112.458 34.4627 112.619 34.5843C112.779 34.706 112.886 34.8861 112.914 35.0856C112.941 35.2819 112.891 35.4811 112.774 35.6413C112.658 35.8014 112.483 35.91 112.288 35.9441C112.088 35.9706 111.886 35.9173 111.725 35.7956C111.564 35.674 111.458 35.4939 111.429 35.2944C111.402 35.098 111.453 34.8988 111.569 34.7387C111.686 34.5786 111.861 34.47 112.056 34.4358Z" fill="#02DBF3"/>
<path d="M108.366 40.3067C108.447 40.3174 108.521 40.3556 108.576 40.4149C108.631 40.4742 108.663 40.5508 108.668 40.6316C108.682 40.7206 108.66 40.8114 108.608 40.885C108.556 40.9585 108.478 41.0091 108.39 41.0261C108.344 41.0326 108.297 41.0299 108.253 41.0182C108.208 41.0065 108.166 40.986 108.129 40.958C108.092 40.9299 108.062 40.8948 108.039 40.8547C108.016 40.8146 108.001 40.7703 107.995 40.7244C107.982 40.6354 108.003 40.5446 108.055 40.471C108.107 40.3975 108.185 40.3469 108.274 40.3299L108.366 40.3067Z" fill="#02DBF3"/>
<path d="M110.78 66.3657C110.874 66.3527 110.97 66.3586 111.063 66.3832C111.155 66.4078 111.241 66.4504 111.317 66.5087C111.393 66.5671 111.456 66.6398 111.503 66.7228C111.55 66.8058 111.58 66.8974 111.592 66.9922C111.618 67.1797 111.57 67.3702 111.457 67.5223C111.344 67.6743 111.176 67.7757 110.988 67.8044C110.801 67.831 110.61 67.7826 110.458 67.6696C110.306 67.5567 110.205 67.3883 110.176 67.201C110.149 67.0108 110.197 66.8175 110.309 66.6617C110.422 66.5059 110.591 66.3998 110.78 66.3657Z" fill="#02DBF3"/>
<path d="M106.348 66.8994C106.404 66.8895 106.462 66.8915 106.518 66.9051C106.574 66.9188 106.627 66.9438 106.672 66.9787C106.718 67.0135 106.756 67.0575 106.784 67.1077C106.812 67.1579 106.829 67.2134 106.835 67.2707C106.843 67.3831 106.809 67.4946 106.741 67.5843C106.673 67.674 106.574 67.7357 106.464 67.758C106.35 67.7713 106.236 67.7401 106.145 67.6708C106.054 67.6015 105.994 67.4997 105.976 67.3867C105.966 67.33 105.968 67.272 105.982 67.2161C105.996 67.1602 106.021 67.1078 106.056 67.062C106.09 67.0163 106.134 66.9782 106.185 66.9502C106.235 66.9222 106.29 66.9049 106.348 66.8994Z" fill="#02DBF3"/>
<path d="M115.954 59.9844C116.01 59.9707 116.067 59.9693 116.123 59.98C116.179 59.9907 116.232 60.0133 116.278 60.0464C116.324 60.0795 116.363 60.1221 116.391 60.1715C116.419 60.2209 116.437 60.2758 116.442 60.3324C116.455 60.3877 116.457 60.4452 116.446 60.5011C116.435 60.5569 116.413 60.6098 116.38 60.6561C116.347 60.7024 116.304 60.741 116.254 60.7692C116.205 60.7975 116.15 60.8147 116.094 60.8197C116.038 60.8333 115.981 60.8348 115.925 60.8241C115.869 60.8134 115.816 60.7908 115.77 60.7577C115.724 60.7247 115.685 60.682 115.657 60.6326C115.629 60.5832 115.611 60.5283 115.606 60.4717C115.593 60.4164 115.591 60.3589 115.602 60.303C115.613 60.2472 115.635 60.1943 115.668 60.148C115.701 60.1017 115.744 60.0631 115.793 60.0349C115.843 60.0066 115.898 59.9894 115.954 59.9844Z" fill="#02DBF3"/>
<path d="M110.687 57.107C110.883 57.08 111.083 57.1302 111.243 57.247C111.403 57.3639 111.511 57.5383 111.546 57.7335C111.572 57.9333 111.519 58.1355 111.397 58.2963C111.275 58.457 111.095 58.5633 110.896 58.5921C110.798 58.6086 110.698 58.6054 110.602 58.5826C110.505 58.5599 110.415 58.5181 110.335 58.4597C110.255 58.4013 110.187 58.3276 110.136 58.2427C110.085 58.1578 110.051 58.0636 110.037 57.9656C110.021 57.8662 110.025 57.7645 110.049 57.6667C110.073 57.569 110.117 57.4771 110.178 57.3968C110.239 57.3165 110.315 57.2494 110.403 57.1996C110.49 57.1497 110.587 57.1182 110.687 57.107Z" fill="#02DBF3"/>
<path d="M106.997 62.9778C107.089 62.9705 107.179 62.9973 107.252 63.053C107.325 63.1087 107.375 63.1894 107.392 63.2795C107.399 63.3709 107.372 63.4618 107.317 63.5346C107.261 63.6074 107.18 63.6571 107.09 63.674C106.999 63.6813 106.908 63.6545 106.835 63.5988C106.762 63.5431 106.712 63.4624 106.696 63.3723C106.688 63.2809 106.715 63.1901 106.771 63.1172C106.826 63.0444 106.907 62.9947 106.997 62.9778Z" fill="#02DBF3"/>
<path d="M107.044 85.1151C107.105 85.2148 107.146 85.3259 107.162 85.4417C107.179 85.5575 107.172 85.6756 107.142 85.7886C107.111 85.9016 107.058 86.0072 106.985 86.0989C106.913 86.1906 106.822 86.2664 106.719 86.3218C106.62 86.3794 106.511 86.4167 106.398 86.4316C106.284 86.4464 106.169 86.4384 106.059 86.4082C105.949 86.3779 105.846 86.326 105.756 86.2553C105.666 86.1847 105.591 86.0969 105.535 85.9969C105.473 85.8987 105.432 85.7888 105.413 85.674C105.394 85.5592 105.399 85.4418 105.428 85.3289C105.456 85.2161 105.507 85.1101 105.577 85.0175C105.648 84.9249 105.736 84.8476 105.837 84.7903C105.938 84.7321 106.049 84.6944 106.164 84.6793C106.279 84.6641 106.396 84.6719 106.508 84.7021C106.62 84.7322 106.725 84.7843 106.817 84.8552C106.909 84.926 106.986 85.0144 107.044 85.1151Z" fill="#02DBF3"/>
<path d="M104.491 80.4048C104.528 80.4636 104.553 80.5295 104.564 80.5982C104.575 80.6669 104.571 80.7371 104.554 80.8045C104.536 80.8719 104.505 80.935 104.463 80.9899C104.42 81.0449 104.367 81.0906 104.306 81.1241C104.247 81.1612 104.181 81.1859 104.112 81.1966C104.044 81.2074 103.973 81.2039 103.906 81.1865C103.839 81.1692 103.776 81.1382 103.721 81.0955C103.666 81.0529 103.62 80.9994 103.586 80.9385C103.518 80.818 103.499 80.6755 103.533 80.5412C103.568 80.407 103.654 80.2914 103.772 80.2191C103.893 80.1506 104.035 80.1316 104.169 80.1663C104.304 80.2009 104.419 80.2864 104.491 80.4048Z" fill="#02DBF3"/>
<path d="M116.674 88.1086C116.737 88.2304 116.753 88.3711 116.719 88.5038C116.684 88.6365 116.602 88.7519 116.488 88.828C116.364 88.8978 116.218 88.9175 116.08 88.883C115.942 88.8484 115.822 88.7623 115.746 88.6424C115.679 88.5191 115.664 88.3745 115.703 88.2399C115.742 88.1053 115.832 87.9915 115.955 87.923C116.013 87.8859 116.079 87.8613 116.148 87.8505C116.217 87.8398 116.287 87.8432 116.354 87.8606C116.422 87.878 116.485 87.909 116.54 87.9516C116.595 87.9943 116.64 88.0477 116.674 88.1086Z" fill="#02DBF3"/>
<path d="M117.555 80.7992C117.674 81.0155 117.705 81.2696 117.64 81.5077C117.575 81.7459 117.42 81.9494 117.207 82.0755C116.995 82.1932 116.744 82.2227 116.51 82.1576C116.275 82.0925 116.076 81.938 115.954 81.7274C115.889 81.6251 115.845 81.5103 115.826 81.3903C115.807 81.2702 115.812 81.1475 115.843 81.0299C115.873 80.9122 115.928 80.8021 116.003 80.7065C116.078 80.6109 116.172 80.5318 116.279 80.4743C116.384 80.4115 116.501 80.37 116.622 80.3523C116.743 80.3346 116.866 80.341 116.985 80.3712C117.104 80.4014 117.215 80.4548 117.313 80.5282C117.411 80.6017 117.493 80.6938 117.555 80.7992Z" fill="#02DBF3"/>
<path d="M109.202 79.2677C109.23 79.3162 109.249 79.3699 109.256 79.4257C109.264 79.4815 109.259 79.5382 109.244 79.5924C109.229 79.6466 109.203 79.6971 109.168 79.741C109.133 79.7849 109.089 79.8213 109.039 79.8478C108.991 79.8764 108.937 79.8949 108.881 79.9022C108.826 79.9094 108.769 79.9054 108.715 79.8902C108.661 79.875 108.61 79.8491 108.566 79.8139C108.522 79.7787 108.486 79.735 108.459 79.6854C108.408 79.5862 108.396 79.471 108.426 79.3633C108.456 79.2556 108.526 79.1633 108.622 79.1053C108.67 79.0767 108.724 79.0583 108.78 79.051C108.836 79.0437 108.892 79.0478 108.946 79.0629C109.001 79.0781 109.051 79.1041 109.095 79.1392C109.139 79.1744 109.175 79.2181 109.202 79.2677Z" fill="#02DBF3"/>
<path d="M41.6758 21.4413L41.9775 21.6734L42.8128 22.3463C43.1609 22.6248 43.6018 22.9728 44.0659 23.4137C44.53 23.8546 45.0869 24.2955 45.6438 24.806L47.4306 26.5464C48.0339 27.1497 48.7069 27.8226 49.3334 28.5188C49.9599 29.2149 50.6329 29.9343 51.2594 30.6768L53.1854 32.9973C53.7887 33.7863 54.4152 34.552 54.9954 35.3178C55.5755 36.0835 56.1092 36.8957 56.6429 37.6383C57.1766 38.3808 57.6639 39.1466 58.128 39.9587C58.5921 40.7709 58.9866 41.351 59.3579 41.9776C59.7292 42.6041 60.0772 43.1842 60.3557 43.6947C60.6341 44.2052 60.8894 44.6693 61.075 45.0406L61.5159 45.9224L61.6784 46.2472L61.4463 45.9688L60.7733 45.1566L59.7756 43.9036C59.3811 43.4395 58.9634 42.9058 58.4993 42.3024C58.0352 41.6991 57.5015 41.0726 56.9678 40.3996L55.2738 38.288C54.6937 37.5454 54.0672 36.8261 53.4638 35.9675L51.5843 33.647L49.7047 31.3265L47.8947 29.0061C47.2914 28.3099 46.7344 27.6138 46.2007 26.9641C45.667 26.3143 45.1565 25.6878 44.6924 25.1077C44.2283 24.5275 43.8107 24.0402 43.4394 23.5762C43.0681 23.1121 42.7432 22.6944 42.4648 22.3695C42.1863 22.0446 42.0239 21.7662 41.8614 21.5805L41.6758 21.4413Z" fill="#F5E400"/>
<path d="M66.737 20.745V21.1395C66.737 21.3947 66.737 21.7892 66.737 22.2765C66.737 23.2511 66.737 24.597 66.737 26.3141C66.737 27.1495 66.737 28.0545 66.737 29.0291C66.737 29.9805 66.737 31.0015 66.737 32.0457C66.737 33.09 66.737 34.1806 66.5978 35.2712L66.4586 38.5895C66.4586 39.7033 66.3426 40.91 66.273 41.931C66.2034 42.952 66.1569 44.089 66.1105 45.1564C65.9713 47.2449 65.8553 49.1941 65.7392 50.8648C65.6232 52.5356 65.5072 53.9279 65.4376 54.9025C65.4376 55.3898 65.4376 55.761 65.4376 56.0395C65.4376 56.318 65.4376 56.434 65.4376 56.434V56.0395C65.4376 55.761 65.4376 55.3898 65.4376 54.9025V50.8648C65.4376 49.1709 65.4376 47.2217 65.4376 45.1332C65.4376 44.089 65.4376 42.9984 65.4376 41.9078L65.5768 38.5895C65.5768 37.4757 65.5768 36.269 65.7392 35.248C65.9017 34.227 65.8552 33.0667 65.9248 32.0225C65.9945 30.9783 66.0641 29.9805 66.1338 29.0059C66.2034 28.0313 66.273 27.1495 66.3426 26.3141C66.4818 24.6434 66.6442 23.2511 66.737 22.2765C66.737 21.7892 66.737 21.3947 66.8763 21.1395C67.0155 20.8842 66.737 20.745 66.737 20.745Z" fill="#009CB1"/>
<path d="M89.7329 19.7473L89.5936 19.9562C89.4839 20.1508 89.3598 20.3369 89.2224 20.5131L87.8069 22.4623C87.1804 23.2513 86.4378 24.1795 85.6256 25.1541C85.2312 25.6646 84.8135 26.1519 84.3726 26.6624C83.9317 27.1729 83.4676 27.7066 83.0267 28.2171L81.6808 29.795L80.3349 31.2801L77.8752 33.9487C77.1559 34.7144 76.5294 35.3642 76.0653 35.8051C75.6012 36.246 75.6476 36.1996 75.5315 36.3388L75.3459 36.5012C75.3536 36.4318 75.3536 36.3618 75.3459 36.2924L75.6475 35.689C75.926 35.1785 76.3205 34.4592 76.8542 33.6006C77.3879 32.742 78.0376 31.7674 78.7802 30.7232C79.1515 30.2127 79.546 29.679 79.9637 29.1453C80.3813 28.6116 80.8222 28.1011 81.2631 27.5674C81.704 27.0337 82.1681 26.4999 82.6554 26.0126L84.0477 24.5275C84.9759 23.5761 85.9041 22.7408 86.7163 22.0214C87.5284 21.3021 88.271 20.7452 88.7815 20.3507L89.408 19.9098L89.7329 19.7473Z" fill="#F5E400"/>
<path d="M92.9119 32.301L92.6567 32.5098L91.9141 33.1132L89.2688 35.248L85.4632 38.311L83.3283 40.0514L81.1239 41.8614L78.9427 43.7178L76.8543 45.5277L73.1415 48.7996L70.4961 51.1201C70.1944 51.4217 69.9392 51.6306 69.7536 51.793L69.4983 52.0251L69.684 51.7466C69.8232 51.5842 69.9856 51.3057 70.2409 51.0041C70.7282 50.3543 71.4475 49.4493 72.3525 48.3819C73.2575 47.3145 74.3713 46.0614 75.6244 44.8548L77.5968 42.952C78.2929 42.3255 79.0123 41.6757 79.7316 41.0724C80.451 40.4691 81.2167 39.8193 82.0521 39.2392L84.3726 37.5221C85.8577 36.4546 87.2964 35.5032 88.5959 34.7143C89.8953 33.9253 90.9163 33.322 91.7749 32.9043L92.7031 32.4402L92.9119 32.301Z" fill="#74A32D"/>
<path d="M113.68 35.4105H113.355L112.427 35.6657L109.039 36.5939L104.259 37.963L101.544 38.7984L98.7596 39.6801L95.9982 40.6315L93.3297 41.583L88.6887 43.3465L85.324 44.6692L84.3958 45.0405H84.0477L84.3262 44.8548L85.0919 44.3443C85.7881 43.9266 86.7859 43.3233 88.0157 42.6504C89.2456 41.9774 90.7539 41.2349 92.4014 40.5155C93.2136 40.1442 94.0722 39.7962 94.9772 39.4481C95.8822 39.1 96.7871 38.752 97.7153 38.4503C98.6435 38.1486 99.5949 37.8238 100.546 37.5685C101.498 37.3133 102.426 37.0348 103.331 36.8028C105.187 36.3619 106.951 36.0138 108.482 35.7585C110.014 35.5033 111.36 35.3641 112.288 35.2944H113.402L113.68 35.4105Z" fill="#F5E400"/>
<path d="M128.74 57.4552H128.299L127 57.1535L124.981 56.6894L122.359 56.1325L119.273 55.5292C118.182 55.3204 116.952 55.1347 115.838 54.9491C114.725 54.7634 113.518 54.601 112.172 54.4154L108.413 54.0209C107.16 54.0209 105.884 53.812 104.654 53.7424L101.034 53.5568H97.6691H94.7453H92.216H90.2435H88.9905H88.5496H88.9673L90.1275 53.348L91.9839 53.0231L94.4204 52.7214C95.3254 52.7214 96.3 52.5358 97.3442 52.4894C98.3884 52.443 99.5023 52.3501 100.639 52.3501C101.776 52.3501 102.96 52.3501 104.236 52.3501C105.512 52.3501 106.742 52.3501 107.995 52.559C109.248 52.7678 110.548 52.8142 111.824 52.9999C113.1 53.1855 114.33 53.3711 115.537 53.6032C116.743 53.8352 117.857 54.0905 119.064 54.3458C120.271 54.601 121.245 54.8795 122.22 55.1579C123.194 55.4364 124.123 55.7148 124.912 55.9933C125.7 56.2718 126.443 56.4806 127 56.6894L128.369 57.1999L128.74 57.4552Z" fill="#74A32D"/>
<path d="M77.1561 60.1934L77.6434 60.0541L79.0125 59.7525L81.1705 59.3348C82.0059 59.1723 82.9573 59.0331 84.0015 58.8939C85.0457 58.7547 86.206 58.6154 87.4358 58.5226C88.6657 58.4298 89.942 58.337 91.2878 58.3138C92.6337 58.2906 94.026 58.3138 95.4647 58.3138C96.9034 58.3138 98.3653 58.3138 99.8504 58.5458C101.336 58.7779 102.797 58.8475 104.259 59.0563C105.721 59.2652 107.183 59.5204 108.575 59.7989C109.968 60.0773 111.36 60.4022 112.659 60.7271L116.303 61.7713C117.44 62.1194 118.484 62.4674 119.412 62.8155L121.733 63.6973L123.287 64.347L123.821 64.5791L123.287 64.4166L121.779 63.9525L119.458 63.3028L116.419 62.4906L112.822 61.6785C111.546 61.4 110.2 61.1448 108.807 60.8895L104.538 60.2398C103.099 60.0541 101.614 59.8917 100.175 59.7525C98.7365 59.6132 97.2282 59.5204 95.8127 59.4508C94.3972 59.3812 92.9585 59.4508 91.6127 59.4508C90.2668 59.4508 88.9441 59.4508 87.7143 59.4508L84.2336 59.6132L81.333 59.8221L79.0125 60.0541L77.5738 60.1934H77.1561Z" fill="#F5E400"/>
<path d="M73.2807 62.8386H73.7913L75.2532 63.0243C76.483 63.2331 78.293 63.5116 80.4046 63.9756L83.8157 64.7878C85.0224 65.1127 86.2987 65.484 87.5981 65.9017C88.8976 66.3193 90.2434 66.7602 91.6125 67.2707C92.9816 67.7812 94.3275 68.3382 95.6966 68.9183C97.0657 69.4984 98.3884 70.1481 99.7111 70.7979C101.034 71.4476 102.31 72.1438 103.54 72.8167C106 74.209 108.181 75.6245 110.153 76.9239C112.126 78.2234 113.611 79.3837 114.794 80.1958L116.024 81.1936L116.465 81.5417L116.001 81.2168L114.724 80.2886C113.634 79.4997 112.056 78.4322 110.084 77.1792C108.111 75.9261 105.884 74.6034 103.401 73.2576C102.171 72.5846 100.871 71.9349 99.5718 71.2852C98.2723 70.6354 96.9033 70.0321 95.5574 69.4288C94.2115 68.8255 92.8424 68.2917 91.4965 67.7812C90.1507 67.2707 88.828 66.7834 87.5285 66.3657C86.2291 65.9481 84.9759 65.5304 83.7693 65.1823C82.5626 64.8342 81.4488 64.5326 80.3814 64.2773C78.2698 63.7668 76.5062 63.3723 75.2763 63.1403L73.8376 62.8618L73.2807 62.8386Z" fill="#F5E400"/>
<path d="M94.0723 64.0452H94.374L95.1862 64.1844C95.9055 64.1844 96.9265 64.4861 98.1332 64.7877C99.3398 65.0894 100.779 65.4607 102.287 65.948C103.053 66.18 103.818 66.4585 104.607 66.7369L106.928 67.6651C107.74 67.99 108.529 68.3381 109.248 68.7093L111.569 69.8C113.054 70.5425 114.423 71.3083 115.583 72.1204C116.743 72.9326 117.695 73.4431 118.345 73.884L119.134 74.4409L119.389 74.6266L119.11 74.4873L118.298 74.1161L115.444 72.747C114.237 72.1901 112.868 71.5403 111.383 70.8906L109.063 69.8928L106.742 68.895C105.953 68.5469 105.141 68.2452 104.422 67.9204L102.101 67.0386L98.0172 65.5303L95.1166 64.5093L94.3044 64.2308L94.0723 64.0452Z" fill="#74A32D"/>
<path d="M76.576 67.2012H76.9705L78.0379 67.4796C78.966 67.7349 80.3583 68.1062 81.8203 68.6167C83.2822 69.1272 85.1386 69.8233 87.0182 70.6587C87.9464 71.0454 88.8977 71.4863 89.8723 71.9814C90.8237 72.4455 91.7984 72.956 92.7498 73.4897C93.7012 74.0234 94.6757 74.5803 95.5807 75.1372C96.4857 75.6941 97.4139 76.2743 98.2725 76.8544C99.9896 78.0146 101.544 79.1749 102.913 80.1959C104.282 81.2169 105.234 82.1683 106 82.818L106.835 83.5838L107.137 83.8622L106.812 83.6302L105.884 82.9804L102.565 80.66C101.196 79.7318 99.5719 78.6876 97.9244 77.5969L95.2095 75.9726C94.2813 75.4389 93.3531 74.9052 92.3785 74.3947C91.4039 73.8842 90.4757 73.3504 89.5243 72.8631L86.7397 71.4709C84.9065 70.5891 83.1894 69.8001 81.7043 69.1504C80.2191 68.5006 78.9893 67.9669 78.1307 67.6189L77.1097 67.2012H76.576Z" fill="#74A32D"/>
<path d="M88.8048 75.0907L89.1065 75.2763C89.4188 75.4181 89.7212 75.5809 90.0114 75.7636C90.8004 76.1813 91.891 76.8079 93.1673 77.62C94.4436 78.4322 95.9054 79.43 97.4138 80.567C98.1563 81.1239 98.9453 81.7273 99.7342 82.377C100.523 83.0267 101.266 83.6533 102.055 84.3262C102.844 84.9992 103.563 85.6953 104.375 86.3914C105.187 87.0876 105.791 87.7837 106.44 88.4799C107.763 89.8722 108.947 91.1948 109.921 92.4015C110.896 93.6081 111.685 94.722 112.242 95.3253C112.52 95.6734 112.706 95.975 112.845 96.1607C112.913 96.2679 112.991 96.3688 113.077 96.4623L112.799 96.2071L112.079 95.4413L109.503 92.7728C108.436 91.6821 107.183 90.4523 105.791 89.1064L103.679 87.1108L101.359 85.092L99.0381 83.1428C98.2956 82.493 97.553 81.8665 96.7176 81.2864C95.2789 80.1029 93.8866 78.9659 92.7032 78.1073L89.8258 75.9261L89.0136 75.3227L88.8048 75.0907Z" fill="#74A32D"/>
<path d="M78.8035 71.1459L79.1516 71.4012L80.1262 72.0741C80.9384 72.7007 82.1218 73.5592 83.4677 74.6731C84.1406 75.23 84.8832 75.8333 85.6257 76.483C86.3683 77.1328 87.1572 77.8521 87.9462 78.5947C88.7352 79.3372 89.5473 80.1262 90.2667 80.9152C90.986 81.7041 91.8678 82.5859 92.5872 83.4213C93.3065 84.2567 94.1187 85.1616 94.9076 86.0202C95.6966 86.8788 96.3231 87.7606 96.9961 88.6191C98.3187 90.3131 99.479 91.9374 100.43 93.2601C101.382 94.5828 102.124 95.8823 102.751 96.7408C103.006 97.1585 103.192 97.5066 103.331 97.7154L103.54 98.0867L103.308 97.7386L102.658 96.7872C102.101 95.9519 101.266 94.7916 100.338 93.3993C99.4094 92.007 98.017 90.4291 96.7408 88.7584C96.091 87.923 95.3718 87.0876 94.6292 86.2291C93.8866 85.3705 93.1441 84.4887 92.3087 83.6533C91.4733 82.8179 90.754 81.9594 89.9882 81.1472C89.2225 80.335 88.4335 79.5461 87.6678 78.8267C86.902 78.1074 86.1362 77.3648 85.3473 76.6919C84.5583 76.0189 83.9317 75.3924 83.2588 74.8123C81.9593 73.6753 80.9383 72.7238 80.0797 72.0973L79.1748 71.3548L78.8035 71.1459Z" fill="#009CB1"/>
<path d="M69.7768 66.6211L70.125 66.9227C70.3802 67.1084 70.7282 67.3868 71.1691 67.7813L72.7007 69.1504C73.2808 69.6841 73.9537 70.3106 74.6266 70.9836C75.2996 71.6565 76.0653 72.4223 76.8079 73.3041C77.5504 74.1858 78.3394 74.9748 79.1284 75.903C79.9173 76.8312 80.6831 77.7826 81.4488 78.7804C82.2146 79.7782 82.9804 80.776 83.7693 81.8202C84.5583 82.8644 85.208 83.9087 85.881 84.9529C86.5539 85.9971 87.1804 87.0181 87.7606 88.0391C88.3407 89.0601 88.8976 90.0347 89.4081 90.9861L90.754 93.6779C91.1485 94.5133 91.4966 95.279 91.7982 95.9984C92.0999 96.7177 92.3551 97.2978 92.564 97.8083C92.7728 98.3188 92.9121 98.6901 93.0281 98.9454C93.0733 99.0879 93.1275 99.2274 93.1905 99.3631L92.9585 98.9686C92.8425 98.7133 92.6336 98.342 92.3784 97.8779L91.427 96.1608L90.1739 93.9563C89.7098 93.1442 89.1993 92.2624 88.6423 91.3574C88.0854 90.4524 87.4821 89.4778 86.8556 88.48L84.8832 85.4634C84.187 84.4424 83.4677 83.3981 82.7251 82.3771C81.9826 81.3561 81.2632 80.3351 80.4047 79.3605C79.5461 78.3859 78.9196 77.3881 78.0842 76.4599C77.2488 75.5317 76.5991 74.6499 75.9029 73.8146L73.9073 71.4941L72.1901 69.5449C71.6564 68.9648 71.2156 68.4543 70.8211 68.0598L69.9625 67.0852L69.7768 66.6211Z" fill="#F5E400"/>
<path d="M67.5491 67.1082L67.7579 67.4331C67.8739 67.6652 68.0828 67.9668 68.3148 68.3845C68.5469 68.8022 68.8486 69.2895 69.1502 69.8696C69.4519 70.4497 69.8232 71.0995 70.1945 71.8188C70.5657 72.5382 70.9602 73.3039 71.3315 74.1393C71.7028 74.9747 72.1436 75.8564 72.5381 76.7614C72.9326 77.6664 73.3271 78.641 73.6983 79.6156C74.0696 80.5902 74.4641 81.5648 74.8122 82.5626C75.1603 83.5604 75.5084 84.5583 75.8332 85.5561C76.1581 86.5539 76.4366 87.5053 76.715 88.4567C76.9935 89.4081 77.2255 90.313 77.4344 91.1716C77.6432 92.0302 77.852 92.8888 78.0376 93.6545C78.2233 94.4203 78.3625 95.1164 78.4785 95.7198C78.5946 96.3231 78.7106 96.9032 78.7802 97.3441C78.8498 97.785 78.9195 98.1563 78.9659 98.3883C79.0123 98.6204 78.9659 98.7596 78.9659 98.7596L78.8498 98.3883L78.525 97.3905L78.0376 95.8126C77.852 95.2093 77.6199 94.5363 77.3879 93.7706C77.1559 93.0048 76.8774 92.2158 76.5989 91.4501C76.3205 90.6843 75.9957 89.7097 75.694 88.7815C75.3923 87.8533 75.021 86.8787 74.6961 85.9041C74.3713 84.9295 74 83.9317 73.6287 82.9571C73.2575 81.9825 72.9094 80.9615 72.5149 80.0101C72.1205 79.0587 71.7956 78.0609 71.4243 77.1559C71.053 76.2509 70.7281 75.3459 70.3801 74.4874C70.032 73.6288 69.7303 72.863 69.4287 72.1669C69.127 71.4707 68.8718 70.7514 68.6397 70.1481C68.4077 69.5447 68.1988 69.0342 68.0132 68.5934L67.6187 67.5955L67.5491 67.1082Z" fill="#009CB1"/>
<path d="M79.5462 84.2799L79.755 84.5816C79.755 84.7904 80.0798 85.0689 80.3119 85.4634C80.5439 85.8579 80.8456 86.2988 81.1473 86.8325C81.449 87.3662 81.8202 87.9463 82.1915 88.6192C82.5628 89.2922 82.934 90.0115 83.3285 90.7773C83.723 91.543 84.1175 92.3552 84.512 93.0978C84.9064 93.8403 85.3009 94.8149 85.6722 95.7199C86.0435 96.6249 86.4148 97.5531 86.7861 98.4581C87.1573 99.3631 87.459 100.314 87.7606 101.243C88.0623 102.171 88.3639 103.053 88.6192 103.934C88.8744 104.816 89.1298 105.675 89.3386 106.464C89.5474 107.253 89.7331 108.042 89.8955 108.784C90.0579 109.527 90.1971 110.153 90.3132 110.71C90.4292 111.267 90.522 111.801 90.5916 112.219C90.6612 112.636 90.7076 112.961 90.7541 113.193C90.8005 113.425 90.7541 113.518 90.7541 113.518L90.6381 113.193C90.6381 112.984 90.4756 112.659 90.3595 112.265C90.2435 111.87 90.0811 111.383 89.8955 110.803C89.7099 110.223 89.5242 109.62 89.2921 108.923C89.0601 108.227 88.8281 107.485 88.5728 106.603L87.7142 104.12L86.7628 101.451C86.4148 100.547 86.0899 99.6415 85.7186 98.7133C85.3473 97.7851 85.0225 96.8801 84.6512 95.9752C84.2799 95.0702 83.9318 94.1884 83.5606 93.3298L82.4932 90.8701C82.1451 90.0811 81.8434 89.3386 81.5417 88.5496C81.2401 87.7607 80.9385 87.2269 80.7064 86.67L80.0567 85.2545L79.6389 84.3263L79.5462 84.2799Z" fill="#74A32D"/>
<path d="M69.3593 85.6025L69.4753 86.0666C69.4753 86.345 69.6842 86.7859 69.8234 87.3428C70.1019 88.4798 70.5428 90.081 70.9836 91.9838C71.2157 92.9352 71.4477 93.9794 71.6798 95.0932C71.9118 96.2071 72.1671 97.4137 72.3991 98.5739C72.6311 99.7342 72.8632 101.034 73.0953 102.31C73.3273 103.586 73.5362 104.862 73.745 106.162C73.9539 107.461 74.1395 108.761 74.3251 110.037C74.5108 111.313 74.6732 112.566 74.8124 113.796C75.1373 116.117 75.3694 118.437 75.555 120.456C75.7406 122.475 75.8567 124.03 75.9263 125.097C75.9263 125.677 75.9263 126.118 75.9263 126.443C75.9263 126.768 75.9263 126.907 75.9263 126.907V126.443C75.9263 126.141 75.9263 125.7 75.7638 125.12L75.0909 120.479C74.8356 118.553 74.4875 116.279 74.1395 113.843C73.9538 112.636 73.745 111.383 73.5593 110.107L72.9328 106.255C72.724 104.955 72.4919 103.656 72.2831 102.38C72.0743 101.103 71.8654 99.8734 71.6334 98.6436C71.4013 97.4137 71.2156 96.3231 71.0068 95.1628C70.798 94.0026 70.6355 93.0048 70.4499 92.0302C70.1018 90.081 69.8234 88.4567 69.6146 87.3892C69.6146 86.8091 69.4289 86.3682 69.3825 86.0666L69.3593 85.6025Z" fill="#74A32D"/>
<path d="M64.9271 65.4376C64.9271 65.4376 64.9271 65.5768 64.9271 65.8553C64.9271 66.1337 64.9271 66.5746 65.0663 67.0851C65.2055 67.5956 65.0663 68.2685 65.2288 68.9879C65.3912 69.7072 65.368 70.5658 65.4144 71.4708C65.4608 72.3758 65.5304 73.3736 65.6001 74.4178C65.6697 75.462 65.6 76.5295 65.7393 77.6665C65.8785 78.8035 65.7392 79.987 65.8553 81.1704V84.7904C65.8553 85.997 65.8553 87.1108 65.8553 88.4103C65.8553 89.7098 65.8553 90.7308 65.8553 91.9142C65.8553 93.0977 65.8553 94.2347 65.8553 95.1861C65.8553 96.1375 65.8553 97.2049 65.8553 98.1099C65.8553 99.0149 65.8553 99.8503 65.8553 100.593C65.8553 101.335 65.8553 101.985 65.8553 102.496C65.8553 103.006 65.8553 103.447 65.8553 103.725C65.8553 104.004 65.8553 104.166 65.8553 104.166C65.8553 104.166 65.8553 104.027 65.8553 103.749C65.8553 103.47 65.8553 103.053 65.8553 102.519C65.8553 101.985 65.8553 101.335 65.7393 100.616C65.6233 99.8967 65.6232 99.0381 65.5768 98.1331C65.5304 97.2281 65.5768 96.2303 65.4376 95.2093C65.2984 94.1883 65.3216 93.0745 65.2751 91.9374C65.2287 90.8004 65.2752 89.617 65.1359 88.4335C64.9967 87.2501 65.1359 86.113 65.1359 84.8136C65.1359 83.5141 65.1359 82.4931 65.1359 81.1936C65.1359 79.8942 65.1359 78.8731 65.1359 77.7129C65.1359 76.5527 65.1359 75.3924 65.1359 74.4178C65.1359 73.4432 65.1359 72.399 65.1359 71.494C65.1359 70.589 65.1359 69.7537 65.1359 69.0111C65.1359 68.2686 65.1359 67.642 65.1359 67.1083C65.1359 66.5746 65.1359 66.1569 65.1359 65.8784C65.1359 65.6 64.9271 65.4376 64.9271 65.4376Z" fill="#F5E400"/>
<path d="M62.2585 72.8399C62.254 72.894 62.254 72.9483 62.2585 73.0023C62.2585 73.0023 62.2585 73.2808 62.2585 73.4664C62.2585 73.6521 62.2585 74.441 62.2585 75.114C62.2585 75.7869 62.2585 76.5759 62.1425 77.4345C62.1425 77.8754 62.1425 78.293 62.0033 78.7339L61.864 80.0798C61.864 80.5207 61.7247 80.9848 61.6551 81.4025C61.5855 81.8202 61.5159 82.2843 61.4463 82.7019C61.2839 83.5373 61.1215 84.3263 60.9822 85.0224C60.843 85.7186 60.6805 86.2523 60.5645 86.6236C60.5312 86.7819 60.4846 86.9371 60.4253 87.0877V87.2501C60.4312 87.1961 60.4312 87.1416 60.4253 87.0877C60.4253 87.0877 60.4253 86.8092 60.4253 86.6236C60.4253 86.4379 60.4253 85.649 60.4253 84.976C60.4253 84.3031 60.4253 83.5141 60.4253 82.6555C60.4253 82.2379 60.4253 81.797 60.4253 81.3561L60.5645 80.0102C60.5645 79.5693 60.6806 79.1284 60.7502 78.6875C60.8198 78.2466 60.8894 77.8057 60.9822 77.388C61.1121 76.6062 61.2825 75.8317 61.4927 75.0676C61.6552 74.4178 61.8408 73.8609 61.98 73.4664C62.1193 73.072 62.096 73.1184 62.1193 73.0255L62.2585 72.8399Z" fill="#74A32D"/>
<path d="M59.938 97.5529C59.9469 97.6145 59.9469 97.677 59.938 97.7386C59.938 97.8778 59.938 98.0867 59.938 98.3419C59.938 98.5972 60.054 99.5486 60.1236 100.407C60.1932 101.266 60.2397 102.287 60.2629 103.354C60.2629 103.888 60.2629 104.445 60.2629 105.025V106.719C60.2629 107.299 60.2629 107.879 60.2629 108.436C60.2629 108.993 60.2629 109.573 60.2629 110.107C60.2629 111.174 60.1468 112.195 60.0772 113.054C60.0076 113.912 59.9612 114.632 59.8916 115.142C59.822 115.653 59.8916 115.583 59.8916 115.722C59.8916 115.583 59.8916 115.397 59.8916 115.142C59.8916 114.887 59.7523 113.912 59.7059 113.054C59.6595 112.195 59.5667 111.197 59.5203 110.107C59.5203 109.573 59.5203 109.016 59.5203 108.459C59.5203 107.902 59.5203 107.322 59.5203 106.742C59.5203 106.162 59.5203 105.605 59.5203 105.025C59.5203 104.445 59.5203 103.911 59.5203 103.377C59.5203 102.287 59.5203 101.289 59.7059 100.43C59.8915 99.5718 59.8684 98.8292 59.938 98.3419C60.0076 97.8546 59.938 97.8778 59.938 97.7386C59.9435 97.6768 59.9435 97.6147 59.938 97.5529Z" fill="#74A32D"/>
<path d="M58.7778 76.6224L58.6618 76.9704L58.2905 77.9682C57.9424 78.8268 57.5015 80.0567 56.9446 81.5186C56.6893 82.2611 56.3877 83.0501 56.086 83.839C55.7844 84.628 55.4827 85.5794 55.1578 86.5076L54.2064 89.3618L53.2783 92.3088C52.9766 93.3066 52.6749 94.3044 52.3965 95.279C52.118 96.2536 51.8395 97.2282 51.5843 98.1564C51.0738 100.036 50.6097 101.776 50.2384 103.285L49.3799 106.905C49.3799 107.322 49.2174 107.67 49.1478 107.902V108.274C49.1478 108.274 49.1478 108.134 49.1478 107.902C49.1478 107.67 49.1478 107.322 49.3103 106.881C49.4495 106 49.6583 104.747 49.9831 103.215C50.308 101.684 50.6561 99.9432 51.1202 98.0636C51.3523 97.1354 51.6075 96.1608 51.886 95.1862C52.1644 94.2116 52.4429 93.1906 52.7445 92.1928C53.0462 91.195 53.371 90.2204 53.6727 89.2458L54.6706 86.3916L55.6683 83.723C55.9932 82.8876 56.3181 82.0987 56.6198 81.4025C57.2463 79.9406 57.8032 78.734 58.1744 77.8986L58.6386 76.924L58.7778 76.6224Z" fill="#009CB1"/>
<path d="M55.2972 97.4137C55.3023 97.5064 55.3023 97.5994 55.2972 97.6921C55.2972 97.8546 55.2972 98.1098 55.2972 98.4579C55.2972 98.806 55.1115 100.036 54.9491 101.15C54.7867 102.263 54.6242 103.47 54.4154 104.978C54.2993 105.675 54.2066 106.394 54.0905 107.113L53.7424 109.434L53.3943 111.754C53.2783 112.497 53.1855 113.193 53.0695 113.889C52.8375 115.281 52.6286 116.581 52.4429 117.671C52.2573 118.762 52.1181 119.714 52.002 120.363C51.886 121.013 52.002 120.92 51.8628 121.106C51.7236 121.291 51.8628 121.361 51.8628 121.361V120.34C51.8628 119.667 51.8628 118.739 51.8628 117.625C51.8628 116.511 52.0021 115.305 52.1413 113.796C52.1413 113.1 52.2805 112.381 52.3733 111.638C52.4661 110.896 52.559 110.153 52.675 109.318C52.791 108.482 52.8838 107.833 53.0231 106.997C53.1623 106.162 53.2783 105.535 53.4176 104.862C53.696 103.47 53.9977 102.171 54.2761 101.08C54.5546 99.9894 54.8331 99.0612 55.0187 98.4115C55.2043 97.7618 55.2043 97.8546 55.2739 97.6689L55.2972 97.4137Z" fill="#74A32D"/>
<path d="M57.3855 68.4774L57.0838 68.8254L56.2252 69.8464L54.8794 71.4244L53.1854 73.4896L51.213 75.9493L49.0782 78.7571C48.3588 79.7317 47.6395 80.7759 46.8969 81.8201C46.1544 82.8643 45.435 83.9318 44.7157 84.9992C43.9963 86.0666 43.3001 87.1804 42.6504 88.2478C42.0007 89.3153 41.3278 90.4059 40.7244 91.4501L39.0537 94.4667C38.52 95.4413 38.0327 96.3463 37.5918 97.2049L36.3851 99.5254C36.0603 100.222 35.7586 100.802 35.5034 101.312C35.2481 101.823 35.0625 102.194 34.9465 102.472L34.7376 102.89L34.8768 102.449C34.8768 102.171 35.1089 101.776 35.3177 101.243C35.5266 100.709 35.7354 100.106 36.0139 99.3862C36.2923 98.6668 36.6404 97.8778 37.0117 97.0657C37.3829 96.2535 37.8239 95.2557 38.288 94.2579C38.7521 93.2601 39.2857 92.2391 39.8659 91.1716C40.446 90.1042 41.0261 89.0136 41.6758 87.923C42.3256 86.8323 42.9985 85.7185 43.7179 84.6279C44.4372 83.5373 45.1566 82.4699 45.8991 81.4256C46.6417 80.3814 47.4306 79.3604 48.2196 78.3858C49.0086 77.4112 49.7279 76.5062 50.5401 75.6476C51.3523 74.7891 52.002 73.9769 52.6981 73.3271C53.3943 72.6774 54.0208 71.9349 54.6009 71.378L56.1324 69.8928L57.1302 68.9647L57.3855 68.4774Z" fill="#F5E400"/>
<path d="M50.6561 66.8763L50.308 67.0852L49.3102 67.7349L47.7787 68.7327L45.783 70.0554L43.4626 71.6565L40.91 73.4897L38.2183 75.5317C37.3133 76.2278 36.4083 76.9704 35.5033 77.713L32.8348 80.0334C31.953 80.7992 31.0944 81.5418 30.2822 82.3539L27.9618 84.512L25.9197 86.5308C25.2932 87.1573 24.7131 87.7142 24.2026 88.2479L22.8799 89.5938L22.0446 90.4524L21.7429 90.7773L21.9981 90.4292C22.1605 90.1971 22.3926 89.8723 22.7175 89.4778L23.8777 87.9927L25.4324 86.1363L27.3584 84.0247C28.0546 83.2821 28.8203 82.4931 29.6789 81.7042C30.5375 80.9152 31.3032 80.1262 32.1618 79.3837C33.0204 78.6411 33.9254 77.829 34.8304 77.0632C35.7354 76.2975 36.6635 75.5781 37.5917 74.882C38.5199 74.1858 39.4481 73.5129 40.3531 72.8864C41.2581 72.2598 42.1631 71.6797 43.0449 71.146C43.9267 70.6123 44.7156 70.1018 45.4814 69.6609C46.2471 69.22 46.9665 68.8487 47.6162 68.5006L49.287 67.6653L50.3776 67.1548L50.6561 66.8763Z" fill="#74A32D"/>
<path d="M26.4303 95.7894C26.4303 95.7894 27.3121 94.2579 28.7508 92.0999C29.1221 91.5429 29.5398 90.9628 30.0039 90.3363C30.468 89.7098 30.9321 89.0832 31.4426 88.4335L33.0437 86.4379L34.7608 84.4191L36.7333 82.4002C37.3134 81.7737 37.9399 81.1472 38.52 80.5671C39.7034 79.3836 40.8405 78.2466 41.8615 77.4344C43.8803 75.6709 45.3191 74.5802 45.3191 74.5802C45.3191 74.5802 44.0196 75.7869 42.1168 77.6433C41.1654 78.5714 40.0515 79.6621 38.9145 80.8455L37.1509 82.7251L35.3874 84.6743C34.7841 85.3473 34.204 85.997 33.647 86.6699L31.9995 88.6423L30.4912 90.4987L29.1685 92.1927C27.4513 94.3507 26.4303 95.7894 26.4303 95.7894Z" fill="#009CB1"/>
<path d="M12.1361 81.0313L12.6234 80.6832L13.9925 79.6622C15.176 78.8268 16.8699 77.6202 18.9583 76.3207C20.0025 75.671 21.1396 74.998 22.3462 74.3251C23.5529 73.6522 24.8524 72.9328 26.1751 72.2599C27.4977 71.5869 28.9132 70.9372 30.3287 70.3107C31.7442 69.6841 33.206 69.0808 34.668 68.5239C36.1299 67.967 37.5918 67.4797 39.0537 67.0156C40.5156 66.5515 41.9311 66.157 43.3234 65.7857C46.1079 65.0896 48.7301 64.5791 50.981 64.231C53.2319 63.8829 55.1114 63.6973 56.4341 63.5813H57.9656L56.4341 63.7669C55.1346 63.9294 53.255 64.2078 51.0274 64.6255C48.7997 65.0432 46.1776 65.6001 43.4162 66.3427C42.0239 66.7139 40.6084 67.1548 39.1465 67.6189C37.6846 68.083 36.2459 68.5935 34.784 69.1272C33.3221 69.6609 31.8834 70.2643 30.4679 70.8908C29.0524 71.5173 27.6602 72.1439 26.3143 72.7936C24.9684 73.4433 23.6921 74.0931 22.4623 74.766C21.2324 75.4389 20.1418 76.0655 19.0744 76.692C16.9627 77.9219 15.2456 79.0125 14.0389 79.8246C13.4356 80.2423 12.9483 80.544 12.6466 80.7761L12.1361 81.0313Z" fill="#74A32D"/>
<path d="M7.84318 71.9349L8.26092 71.7028L9.46755 71.0067L11.3471 70.0089L13.7836 68.8022C14.6886 68.3845 15.6632 67.9436 16.7074 67.5259C17.7517 67.1083 18.8191 66.6442 19.9561 66.2497C21.0931 65.8552 22.2766 65.4143 23.4368 65.0662C24.5971 64.7182 25.7573 64.3469 27.0336 64.022L30.6303 63.1867C31.8138 62.9546 32.9508 62.7458 34.0878 62.5833C35.2248 62.4209 36.2923 62.2585 37.3133 62.1424C38.3343 62.0264 39.3089 61.9568 40.1907 61.9104C41.0725 61.864 41.9079 61.9104 42.6272 61.9104C43.3466 61.9104 43.9499 61.9104 44.4604 61.9104H46.0847H45.6438L44.4372 62.0496L42.5344 62.2585L40.0979 62.6065C39.1929 62.7226 38.2415 62.8618 37.1973 63.0474L33.9718 63.6276C32.858 63.8364 31.6514 64.0916 30.5143 64.3701C29.3773 64.6486 28.1938 64.927 26.9408 65.2287L23.3904 66.2265L19.9329 67.3171L16.7074 68.4309L13.8068 69.4984L11.3704 70.4962L9.49077 71.2619L8.28408 71.7956L7.84318 71.9349Z" fill="#F5E400"/>
<path d="M9.32826 61.3535L9.83877 61.1911L11.3471 60.727C12.6233 60.3557 14.4565 59.8684 16.6378 59.3811L20.1649 58.6849C21.3947 58.4761 22.7174 58.2905 24.0633 58.1048C25.4092 57.9192 26.7783 57.8032 28.1705 57.7103C29.5628 57.6175 31.0016 57.5479 32.3938 57.5015C33.7861 57.4551 35.2016 57.5015 36.5475 57.5015C37.8934 57.5015 39.2393 57.6407 40.5388 57.7336C43.0913 57.9424 45.435 58.2673 47.5002 58.6153C49.5654 58.9634 51.0969 59.3347 52.1412 59.5899L53.4406 59.9148L53.9047 60.054H53.4406L52.0947 59.7988C50.9345 59.5667 49.2637 59.2883 47.2449 59.033C45.2261 58.7778 42.8592 58.4993 40.2835 58.3369C39.0072 58.3369 37.6613 58.1976 36.2922 58.1744C34.9231 58.1512 33.5308 58.1744 32.1386 58.1744C30.7463 58.1744 29.3308 58.1744 27.9385 58.3833C26.5462 58.5921 25.1772 58.5921 23.8545 58.7314C22.5318 58.8706 21.2091 59.0562 19.9793 59.2419C18.7494 59.4275 17.6588 59.6131 16.5218 59.822C14.3637 60.2165 12.5537 60.6109 11.2775 60.9358L9.81554 61.2839L9.32826 61.3535Z" fill="#009CB1"/>
<path d="M15.0599 49.3798H15.3151H16.0577C16.7074 49.3798 17.5893 49.3798 18.6335 49.3798C19.6777 49.3798 20.9539 49.3798 22.1374 49.5655L24.0402 49.7743L25.9894 50.0992C26.6159 50.0992 27.2424 50.3312 27.8689 50.4704L29.6558 50.8881C30.7928 51.1898 31.837 51.5379 32.6956 51.8395C33.5542 52.1412 34.2503 52.4661 34.7376 52.6749C35.2249 52.8838 35.1553 52.8838 35.2945 52.9302H35.4801H35.2481H34.5519L32.2315 52.5589L28.89 52.002L27.0336 51.6771L25.1308 51.3522L23.228 51.0274L21.3949 50.7257L18.1694 49.9135L15.8489 49.4726L15.2455 49.3334L15.0599 49.3798Z" fill="#74A32D"/>
<path d="M31.6049 44.6693H31.9762L32.9972 44.8781C33.879 45.0406 35.1088 45.2958 36.5475 45.6903C37.9862 46.0848 39.6106 46.5489 41.3045 47.129L43.8802 48.0804L46.456 49.171C47.3146 49.5423 48.1499 49.9368 48.9621 50.3313C49.7742 50.7257 50.5632 51.1202 51.2825 51.5379C52.7677 52.3501 54.1136 53.139 55.2274 53.8584C56.3412 54.5777 57.223 55.2275 57.8263 55.6684L58.5225 56.2021L58.7545 56.3877L58.4528 56.2485L57.6175 55.8076L54.624 54.2993L50.3776 52.2341L48.0571 51.1202C47.2217 50.7489 46.3864 50.3545 45.5278 50.0064L42.9753 48.9158L40.4923 47.918C38.868 47.2682 37.3365 46.7113 36.037 46.224L32.8811 45.0638L32.0226 44.7389L31.6049 44.6693Z" fill="#F5E400"/>
<path d="M23.8081 34.1342L24.2954 34.2735L25.6413 34.6679C26.7783 35.0392 28.4258 35.5729 30.2822 36.2923L33.3221 37.5221C34.3895 37.963 35.4801 38.4735 36.6172 39.0073C37.7542 39.541 38.9376 40.1211 40.0514 40.7244C41.1653 41.3277 42.3719 41.9775 43.4858 42.6272C44.5996 43.2769 45.8062 43.9731 46.804 44.6692C47.8019 45.3654 48.9157 46.0615 49.9135 46.7576C51.8859 48.1499 53.6727 49.519 55.1578 50.7489C56.6429 51.9787 57.8031 53.0694 58.6385 53.7655L59.5667 54.6241L59.8916 54.9489L59.5203 54.6473L58.4993 53.8351C57.6407 53.1158 56.3412 52.1412 54.7865 50.9809C53.2318 49.8207 51.3986 48.498 49.3566 47.1521C48.3588 46.4792 47.2913 45.8063 46.2007 45.1101C45.1101 44.414 43.8803 43.7642 42.8593 43.1145C41.8383 42.4648 40.5388 41.815 39.4482 41.2117C38.3575 40.6084 37.1276 40.0051 36.0602 39.4713C34.9928 38.9376 33.8789 38.4039 32.8579 37.9398L29.9109 36.6171C28.0778 35.8282 26.5694 35.2017 25.4788 34.784C24.9219 34.5983 24.5042 34.4127 24.2257 34.2967L23.8081 34.1342Z" fill="#009CB1"/>
<path d="M38.5201 32.3476H38.6825L39.1466 32.5332C39.5411 32.7189 40.098 32.9741 40.7013 33.299C41.3047 33.6238 42.0008 34.0647 42.697 34.5288L43.7412 35.2714L44.7854 36.0835L45.7368 36.9189L46.6418 37.7775C47.1481 38.2784 47.6284 38.8051 48.0805 39.3554C48.475 39.8427 48.7766 40.2604 48.9855 40.5621L49.1943 40.9102H49.0318L48.6142 40.6549L47.1755 39.7731C46.5954 39.4018 45.9456 38.9609 45.2727 38.4504L44.2749 37.7079L43.2306 36.8957L42.2561 36.0835L41.3279 35.2714C40.7246 34.7377 40.214 34.2272 39.7732 33.7863C39.4293 33.4321 39.104 33.0603 38.7986 32.6724L38.5433 32.3476H38.5201Z" fill="#74A32D"/>
<path d="M52.3035 80.0797C52.3001 80.1415 52.3001 80.2035 52.3035 80.2653L52.0947 80.8222C51.9323 81.3095 51.677 82.0057 51.3754 82.8179C51.0737 83.63 50.6792 84.6046 50.2615 85.6256C50.0527 86.1361 49.8438 86.6699 49.6118 87.2036C49.3797 87.7373 49.1709 88.271 48.9389 88.8279C48.7068 89.3848 48.4748 89.8953 48.2659 90.429L47.593 92.007C47.1521 93.0048 46.7576 93.9562 46.3863 94.7451C46.0151 95.5341 45.7134 96.2302 45.5045 96.6943L45.2261 97.228C45.2533 97.0326 45.292 96.8388 45.3421 96.6479C45.3421 96.1606 45.5974 95.4413 45.8294 94.6059C46.0615 93.7705 46.3399 92.7959 46.688 91.7517C46.8504 91.2412 47.0361 90.6843 47.2449 90.1506C47.4537 89.6169 47.6626 89.0599 47.8946 88.5262C48.1267 87.9925 48.3355 87.4356 48.5907 86.9019C48.846 86.3682 49.0781 85.8345 49.3102 85.3472C49.7975 84.3494 50.308 83.4212 50.7488 82.6322C51.1897 81.8433 51.6306 81.2167 51.9091 80.7526L52.2804 80.2421L52.3035 80.0797Z" fill="#74A32D"/>
<path d="M79.6622 17.0555C79.6622 17.0555 68.663 32.7651 68.1757 50.5168C68.1757 50.5168 66.4818 28.7043 79.6622 17.0555Z" fill="#F5E400"/>
<path d="M37.0117 6.03323C43.5447 10.0966 49.1309 15.513 53.3939 21.9175C57.6569 28.322 60.4977 35.5658 61.7248 43.1609C61.7248 43.1609 59.0099 14.9207 37.0117 6.03323Z" fill="#74A32D"/>
<path d="M39.6339 83.9318C39.6339 83.9318 27.1497 96.8568 26.4303 112.683C26.4303 112.683 31.7442 91.6822 39.6339 83.9318Z" fill="#74A32D"/>
<path d="M105.072 78.7572C113.108 82.783 119.557 89.3951 123.38 97.5298C117.957 90.6438 111.82 84.3512 105.072 78.7572Z" fill="#009CB1"/>
<path d="M26.4302 78.7572C26.4302 78.7572 11.0222 88.0391 9.32826 106.208C9.32826 106.208 13.041 89.3618 26.4302 78.7572Z" fill="#F5E400"/>
<path d="M9.28194 99.4789V95.8822L10.2101 99.4789L11.5328 96.2534L10.9527 100.245C10.9527 100.245 13.8069 98.3187 14.0389 98.0634C14.2709 97.8082 11.5328 101.823 11.5328 101.823L16.6378 100.337L11.9969 103.076L16.6378 104.073H11.9969L14.1085 106.812L11.6024 105.141L14.1085 110.408L10.2797 106.115V108.436L9.35155 105.953L7.54158 112.172L8.07525 106.092L6.14928 108.413L7.98241 105.048L2.34366 108.274L8.07525 104.375L0.0696322 105.327L7.54158 103.725L2.90062 102.635L6.63656 102.983L5.47632 100.662L7.95925 102.217L5.17465 95.4645L8.84104 101.173L8.37692 98.5507L9.28194 99.4789Z" fill="#F3E97C"/>
<path d="M90.4755 17.4269V14.6423L91.1716 17.4269L92.1926 14.9207L91.7517 18.0302C91.7517 18.0302 94.0722 16.5219 94.0722 16.3362C94.0722 16.1506 92.123 19.2368 92.123 19.2368L96.091 18.0998L92.5175 20.2114L96.091 20.9772H92.4246L94.049 23.0888L92.0997 21.8126L94.049 25.8966L91.0788 22.5551V24.3883L90.3826 22.4391L88.9903 27.2657L89.3848 22.6247L87.8997 24.3883L89.3152 21.7894L84.9527 24.2723L89.3848 21.2789L83.1891 22.0214L88.9903 20.7684L85.4632 19.7473L88.3406 20.0258L87.4356 18.3318L89.3616 19.5153L87.2268 14.2942L90.1042 18.7263L89.7329 16.6843L90.4755 17.4269Z" fill="#F3E97C"/>
<path d="M7.19341 9.02658V6.26522L7.8896 9.02658L8.91062 6.54366L8.46972 9.65312C8.46972 9.65312 10.6742 8.1448 10.7902 7.95916C10.9062 7.77352 8.841 10.8598 8.841 10.8598L12.809 9.72273L9.23545 11.8344L12.809 12.6001H9.16584L10.7902 14.7118L8.841 13.4355L10.7902 17.4963L7.81999 14.178V15.988L7.1238 14.062L5.70834 18.8886L6.12601 14.2477L4.64094 16.0112L6.0564 13.3891L1.69389 15.8952L6.12601 12.8786L-0.0696322 13.6211L5.70834 12.3681L2.15801 11.5327L5.03538 11.8112L4.13043 10.1172L6.0564 11.3007L3.89837 6.07957L6.79897 10.4653L6.45091 8.42327L7.19341 9.02658Z" fill="#F3E97C"/>
<path d="M6.86871 44.7619V43.2072L7.26315 44.7619L7.82011 43.3697L7.56482 45.0868C7.56482 45.0868 8.79469 44.2514 8.88751 44.1586C8.98033 44.0658 7.82011 45.7598 7.82011 45.7598L10.0014 45.1332L8.02895 46.2935L10.0014 46.7112H7.98249L8.88751 47.8946L7.82011 47.1752L8.88751 49.4957L7.26315 47.6393V48.6604L6.86871 47.5929L6.07975 50.2615L6.31181 47.6393L5.49963 48.614L6.28859 47.1752L3.85204 48.5675L6.31181 46.8968L2.87748 47.2913L6.07975 46.6183L4.10733 46.1542L5.70846 46.2935L5.22118 45.3653L6.28859 46.015L5.08189 43.1376L6.65987 45.4581L6.45104 44.321L6.86871 44.7619Z" fill="#02DBF3"/>
<path d="M92.5639 96.4392V93.6778L93.2832 96.4392L94.3042 93.9563L93.8633 97.0657C93.8633 97.0657 96.0678 95.5574 96.1838 95.3718C96.2998 95.1861 94.2346 98.2724 94.2346 98.2724L98.2026 97.1354L94.6291 99.247L98.2026 100.013H94.5363L96.1838 102.124L94.2346 100.825L96.1838 104.909L93.2136 101.591V103.401L92.4942 101.475L91.1019 106.301L91.4965 101.66L90.1041 103.285L91.5196 100.662L87.1572 103.285L91.5661 100.268L85.4632 100.964L91.2412 99.7111L87.6677 98.8757L90.5683 99.1542L89.6633 97.4602L91.5893 98.6437L89.4312 93.4226L92.2622 97.8547L91.8909 95.8127L92.5639 96.4392Z" fill="#F3E97C"/>
<path d="M122.382 95.1628V93.3528L122.846 95.1628L123.519 93.5385L123.241 95.5805C123.241 95.5805 124.703 94.5827 124.819 94.4666C124.935 94.3506 123.519 96.3694 123.519 96.3694L126.141 95.6269L123.821 97.0192L126.141 97.5065H123.821L124.911 98.8988L123.612 98.0634L124.911 100.732L122.939 98.5507V99.7574L122.475 98.4811L121.57 101.637L121.825 98.5507L120.851 99.7109L121.779 97.9938L118.925 99.6413L121.825 97.6689L117.764 98.133L121.57 97.3208L119.249 96.7639L121.176 96.9496L120.572 95.8357L121.825 96.6015L120.41 93.1904L122.289 96.091L122.034 94.7451L122.382 95.1628Z" fill="#69C6EA"/>
<path d="M24.2954 31.8834V30.0502L24.7827 31.8834L25.4324 30.2591L25.154 32.3011C25.154 32.3011 26.6159 31.3033 26.7319 31.1873C26.8479 31.0712 25.4324 33.0901 25.4324 33.0901L28.0546 32.3475L25.7341 33.7398L28.0546 34.2271H25.7341L26.8247 35.6194L25.5253 34.784L26.8247 37.4526L24.8755 35.2713V36.4548L24.3882 35.2017L23.3904 38.3111L23.6456 35.2249L22.6711 36.3851L23.5992 34.668L20.745 36.3155L23.6456 34.3431L19.5848 34.8072L23.3904 33.9951L21.0699 33.4381L22.9727 33.6238L22.3694 32.5099L23.6225 33.2757L22.2302 29.8646L24.0865 32.7652L23.8313 31.4193L24.2954 31.8834Z" fill="#69C6EA"/>
<path d="M49.1246 107.392V105.814L49.5191 107.392L50.0992 105.976L49.8439 107.717C49.8439 107.717 51.0738 106.881 51.1666 106.765C51.2594 106.649 50.0992 108.39 50.0992 108.39L52.3036 107.763L50.308 108.946L52.3036 109.364H50.2616L51.1666 110.548L50.0992 109.828L51.1666 112.149L49.5191 110.292V111.313L49.1246 110.223L48.3356 112.938L48.5677 110.292L47.7323 111.29L48.5212 109.828L46.0848 111.221L48.5677 109.527L45.1101 109.944L48.3356 109.248L46.34 108.784L47.9643 108.946L47.4538 107.995L48.5212 108.645L47.3146 105.721L48.9157 108.204L48.7069 107.067L49.1246 107.392Z" fill="#69C6EA"/>
<path d="M91.8213 50.5168C91.8213 50.5168 112.404 45.7366 123.38 50.5168C123.38 50.5168 107.415 42.9521 91.8213 50.5168Z" fill="#74A32D"/>
<path d="M66.4585 62.7458C66.4585 62.7458 66.8994 53.4639 83.0035 48.0339C78.9683 48.1894 75.1123 49.7415 72.0946 52.4249C69.0768 55.1082 67.0846 58.7564 66.4585 62.7458Z" fill="#F5E400"/>
<path d="M63.4187 35.4106C63.4187 35.4106 60.8894 16.2435 55.2507 11.9738C55.2971 11.9738 64.3933 16.6844 63.4187 35.4106Z" fill="#F5E400"/>
<path d="M71.9349 59.4274C71.9349 59.4274 85.6257 44.0194 102.937 44.6692C91.3451 46.3308 80.533 51.4779 71.9349 59.4274Z" fill="#009CB1"/>
<path d="M58.4992 61.3535C53.0742 57.0686 46.5189 54.4562 39.6337 53.8352C39.6337 53.8352 51.6306 52.4661 58.4992 61.3535Z" fill="#F5E400"/>
<path d="M55.297 47.1523C59.2038 50.1389 61.7659 54.5538 62.4209 59.4276C62.4209 59.4276 61.7247 48.034 55.297 47.1523Z" fill="#F5E400"/>
<path d="M120.108 72.7238V70.4034L120.688 72.7238L121.547 70.6354L121.176 73.2111C121.176 73.2111 123.032 71.9813 123.171 71.8189C123.31 71.6564 121.547 74.1393 121.547 74.1393L124.865 73.1879L121.872 74.9515L124.865 75.6012H121.802L123.171 77.3648L121.547 76.2742L123.171 79.6853L120.688 76.9239V78.4322L120.108 76.8311L118.948 80.8455L119.273 76.9239L118.043 78.3858L119.226 76.2046L115.583 78.293L119.273 75.7869L114.121 76.3902L118.948 75.346L115.954 74.6499L118.275 74.8819L117.532 73.4664L119.133 74.4642L117.347 70.1017L119.667 73.7913L119.365 72.0973L120.108 72.7238Z" fill="#8BBC22"/>
<path d="M14.1317 77.8754V76.019L14.5957 77.8754L15.2687 76.2046L14.9902 78.2931C14.9902 78.2931 16.4521 77.2952 16.5914 77.156C16.7306 77.0168 15.2687 79.1052 15.2687 79.1052L17.9372 78.3395L15.6167 79.7549L17.9372 80.2655H15.4775L16.5914 81.681L15.2687 80.8224L16.5914 83.5373L14.5957 81.2168V82.4467L14.1317 81.1472L13.1803 84.3727L13.4587 81.2168L12.4609 82.4003L13.4123 80.6599L10.4885 82.3307L13.4587 80.3119L9.32826 80.7992L13.1803 79.9638L10.8598 79.4069L12.809 79.5925L12.2056 78.4555L13.4819 79.2444L12.0432 75.7637L13.946 78.7339L13.6908 77.3649L14.1317 77.8754Z" fill="#8BBC22"/>
<path d="M37.847 3.36479V0.278547L38.6127 3.36479L39.7497 0.603413L39.2624 4.03773C39.2624 4.03773 41.7221 2.36697 41.931 2.15813C42.1398 1.94929 39.7497 5.3836 39.7497 5.3836L44.1587 4.13053L40.1906 6.45102L44.1587 7.28639H40.0978L41.931 9.60687L39.7497 8.14497L41.931 12.7859L38.6127 9.07317V11.092L37.847 8.95714L36.2922 14.2943L36.7331 9.07317L35.0856 11.0224L36.7331 8.14497L31.8833 10.9064L36.7331 7.56485L29.7717 8.37702L36.1994 7.00794L32.2314 6.05654L35.4337 6.35821L34.4359 4.47861L36.7331 5.82449L34.4126 0.0232925L37.5685 4.94272L37.1508 2.62224L37.847 3.36479Z" fill="#8BBC22"/>
<path d="M108.25 113.17V111.383L108.691 113.17L109.341 111.569L109.063 113.541C109.063 113.541 110.478 112.59 110.594 112.474C110.71 112.358 109.341 114.33 109.341 114.33L111.87 113.587L109.55 114.957L111.87 115.421H109.55L110.594 116.79L109.341 115.954L110.594 118.553L108.691 116.442V117.602L108.25 116.372L107.345 119.435L107.601 116.442L106.672 117.555L107.577 115.908L104.793 117.486L107.601 115.583L103.656 116.047L107.345 115.258L105.025 114.701L106.858 114.887L106.301 113.796L107.531 114.562L106.139 111.244L107.949 114.052L107.717 112.752L108.25 113.17Z" fill="#69C6EA"/>
</g>
<defs>
<clipPath id="clip0_1209_1074">
<rect width="128.193" height="126.46" fill="white" transform="scale(1.00427)"/>
</clipPath>
</defs>
</svg>
