<svg width="21" height="21" viewBox="0 0 21 21" fill="none" xmlns="http://www.w3.org/2000/svg">
<path d="M20.6712 15.3823L17.5035 7.97402C16.9266 6.61786 16.0664 5.8487 15.0847 5.79809C14.1131 5.74749 13.1719 6.42557 12.4533 7.72101L10.5304 11.1721C10.1256 11.9008 9.54871 12.336 8.92123 12.3866C8.28363 12.4473 7.64604 12.1133 7.12989 11.4555L6.90723 11.1721C6.18867 10.2714 5.29806 9.83621 4.3872 9.9273C3.47635 10.0184 2.69706 10.6459 2.18091 11.668L0.430048 15.1596C-0.19743 16.4247 -0.136706 17.8922 0.602098 19.0864C1.3409 20.2807 2.62622 20.9992 4.03298 20.9992H16.9469C18.303 20.9992 19.5681 20.3212 20.317 19.1876C21.0862 18.0541 21.2076 16.6271 20.6712 15.3823ZM5.44076 6.84153C6.348 6.84153 7.21808 6.48113 7.8596 5.83961C8.50112 5.19809 8.86152 4.32801 8.86152 3.42076C8.86152 2.51352 8.50112 1.64344 7.8596 1.00192C7.21808 0.360401 6.348 0 5.44076 0C4.53351 0 3.66343 0.360401 3.02191 1.00192C2.38039 1.64344 2.01999 2.51352 2.01999 3.42076C2.01999 4.32801 2.38039 5.19809 3.02191 5.83961C3.66343 6.48113 4.53351 6.84153 5.44076 6.84153Z" fill="#737070"/>
</svg>
