<svg width="147" height="147" viewBox="0 0 147 147" fill="none" xmlns="http://www.w3.org/2000/svg">
<path d="M146.997 0H0V146.997H146.997V0Z" fill="#FFF4EA"/>
<mask id="mask0_1211_3986" style="mask-type:luminance" maskUnits="userSpaceOnUse" x="0" y="0" width="147" height="147">
<path d="M147 0H0.00268555V146.997H147V0Z" fill="white"/>
</mask>
<g mask="url(#mask0_1211_3986)">
<path d="M93.6194 228.39C104.438 220.099 104.912 194.257 94.3338 179.107C80.8394 159.786 57.5845 169.614 43.4727 150.155C29.361 130.695 44.4282 109.633 30.1459 92.5817C16.9162 76.7795 -5.03344 84.0382 -13.3506 68.58C-17.9192 60.0865 -12.6185 55.4238 -17.8222 44.9987C-23.6433 33.3448 -37.9667 23.7605 -47.7332 25.0071C-65.4082 27.2591 -64.2204 64.4729 -64.1146 67.0483C-61.8009 122.481 -3.55171 174.597 9.78388 186.513C21.6201 197.088 73.6895 243.663 93.6194 228.39Z" fill="#F3E1D1"/>
<path d="M67.9715 -67.2661C56.3558 -60.1338 53.2188 -34.4769 62.1827 -18.3189C73.6103 2.29007 97.7561 -5.0892 109.778 15.7227C121.799 36.5346 104.674 55.9294 117.11 74.3629C128.631 91.441 151.213 86.4872 157.901 102.719C161.571 111.638 155.817 115.731 159.918 126.635C164.508 138.83 177.767 149.837 187.61 149.605C205.423 149.19 208.075 112.05 208.233 109.489C211.647 54.1154 159.066 -3.728 147.033 -16.9548C136.361 -28.7087 89.3714 -80.4018 67.9715 -67.2661Z" fill="#F3E1D1"/>
<path d="M-74.5101 58.8577C-59.1342 47.4213 -31.1342 49.4939 -21.2324 63.0236C-8.59067 80.281 -33.0922 105.682 -20.6709 123.628C-8.24964 141.573 23.3401 126.665 33.0742 144.572C42.0911 161.165 21.1439 185.34 32.7332 196.335C39.1041 202.377 47.283 196.832 55.3414 203.788C64.3523 211.567 66.0369 228.778 58.8488 239.738C45.8395 259.559 6.64412 254.455 3.95701 254.073C-54.101 245.841 -75.0599 174.503 -79.852 158.187C-84.1091 143.69 -102.839 79.9253 -74.5101 58.8577Z" fill="#E6D5C6"/>
</g>
<path d="M42.6114 74.019C42.0124 73.4611 41.4598 72.8555 40.9592 72.2079C39.4274 70.1764 38.3308 66.3281 41.162 64.814C42.7643 63.9585 44.884 64.6582 45.7807 66.2046L46.1981 66.9249L46.892 66.5427C47.538 66.1791 48.2766 66.0131 49.0161 66.0654C49.7556 66.1176 50.4635 66.3858 51.052 66.8367C52.522 68.0567 52.3367 70.0471 51.346 71.5112C49.6526 74.016 47.0654 74.8274 44.2078 75.1744C44.102 75.1861 42.9348 74.3276 42.6114 74.019Z" fill="#D67891"/>
<path d="M113.326 108.566C112.728 108.008 112.175 107.402 111.674 106.755C110.142 104.724 109.046 100.875 111.877 99.3583C113.479 98.5028 115.599 99.2055 116.495 100.752L116.913 101.472L117.607 101.09C118.253 100.726 118.991 100.56 119.731 100.613C120.47 100.665 121.178 100.933 121.767 101.384C123.237 102.601 123.051 104.591 122.061 106.056C120.367 108.563 117.78 109.375 114.923 109.722C114.817 109.73 113.65 108.875 113.326 108.566Z" fill="#D67891"/>
<path d="M21.2353 134.582C20.5182 134.376 19.8191 134.111 19.145 133.791C17.0518 132.774 14.5528 130.093 16.2315 127.682C17.1811 126.318 19.2009 126.006 20.5738 126.894L21.203 127.3L21.6116 126.712C21.9856 126.146 22.5177 125.702 23.1419 125.436C23.766 125.17 24.4545 125.093 25.1219 125.215C26.8359 125.592 27.5033 127.297 27.3063 128.902C26.9711 131.651 25.1984 133.388 23.014 134.861C22.4131 134.829 21.817 134.736 21.2353 134.582Z" fill="#D67891"/>
<path d="M35.3147 99.6434C35.3147 99.6434 32.6041 91.8231 35.5881 88.7185L36.6494 87.6014C39.1278 84.976 43.5583 86.8046 43.4466 90.4149C43.3525 93.5048 41.518 96.9916 35.3147 99.6434Z" fill="#C9A677"/>
<path d="M39.4951 86.3666C39.4951 86.3666 37.0697 91.635 34.2032 93.5754C34.1944 93.5754 33.477 87.0369 39.4951 86.3666Z" fill="#242424"/>
<path d="M34.1385 103.11C34.1385 103.11 36.3434 95.266 38.4573 92.132" stroke="#191919" stroke-width="2" stroke-miterlimit="10" stroke-linecap="round"/>
<path d="M33.5183 91.8027C33.5183 91.8027 27.7149 83.7413 29.9904 79.1227C30.0903 78.9228 30.1903 78.7228 30.2844 78.5347C32.5452 73.9366 39.5482 75.2772 39.8069 80.3957C39.9803 83.6325 38.5045 87.528 33.5183 91.8027Z" fill="#C9A677"/>
<path d="M23.3078 77.2616C24.7984 73.5278 30.1491 73.7189 31.3574 77.5556C32.0101 79.6282 32.2953 81.8185 31.6014 83.6354C29.6493 88.7391 28.2911 92.7992 28.2911 92.7992C28.2911 92.7992 19.3948 87.0634 23.3078 77.2616Z" fill="#C9A677"/>
<path d="M56.0826 128.617C56.0826 128.617 50.1821 130.969 37.7785 115.928C25.4483 100.981 27.4504 83.4328 27.4504 83.4328" stroke="#191919" stroke-width="2" stroke-miterlimit="10" stroke-linecap="round"/>
<path d="M34.4326 83.6942C34.4326 83.6942 31.625 101.143 36.4436 114.12" stroke="#191919" stroke-width="2" stroke-miterlimit="10" stroke-linecap="round"/>
<path d="M42.1911 107.896C42.1911 107.896 37.5812 100.722 39.6245 96.7769C39.6568 96.7093 39.6921 96.6446 39.7274 96.577C41.8118 92.5346 47.9593 94.1427 47.7593 98.6908C47.6359 101.39 46.21 104.541 42.1911 107.896Z" fill="#C9A677"/>
<path d="M41.7031 100.793C41.7031 100.793 41.3592 114.837 46.0807 124.327" stroke="#191919" stroke-width="2" stroke-miterlimit="10" stroke-linecap="round"/>
<path d="M33.3979 113.279C33.3979 113.279 28.3735 110.633 27.759 106.946C27.759 106.908 27.759 106.873 27.7385 106.835C27.1505 103.307 31.9661 101.619 33.6448 104.777C34.665 106.688 34.1652 109.325 33.3979 113.279Z" fill="#C9A677"/>
<path d="M34.2796 115.469C34.2796 115.469 32.1247 110.218 31.1163 107.064" stroke="#191919" stroke-width="2" stroke-miterlimit="10" stroke-linecap="round"/>
<path d="M36.7845 118.715C36.7845 118.715 32.063 122.487 28.6409 120.876L28.5527 120.832C24.8601 119.094 27.0827 113.408 30.9252 114.755C32.6039 115.337 34.559 116.554 36.7845 118.715Z" fill="#C9A677"/>
<path d="M39.9596 118.774C39.9596 118.774 33.1801 118.879 30.0667 117.939" stroke="#191919" stroke-width="2" stroke-miterlimit="10" stroke-linecap="round"/>
<path d="M27.8383 109.566C27.8383 109.566 20.1768 107.957 18.4746 103.78C18.4746 103.739 18.4423 103.697 18.4246 103.656C16.793 99.6845 22.0525 96.4682 24.7867 99.7697C26.4272 101.751 27.6708 104.823 27.8383 109.566Z" fill="#C9A677"/>
<path d="M22.7906 103.207C22.7906 103.207 29.8464 114.417 39.9598 118.771" stroke="#191919" stroke-width="2" stroke-miterlimit="10" stroke-linecap="round"/>
<path d="M108.411 74.5422C108.411 74.5422 110.939 67.257 108.158 64.3641C107.817 64.0084 107.487 63.6586 107.17 63.3234C104.859 60.8774 100.731 62.5825 100.834 65.9458C100.925 68.824 102.639 72.0697 108.411 74.5422Z" fill="#C9A677"/>
<path d="M104.521 62.1739C104.521 62.1739 106.779 67.0807 109.457 68.8888C109.457 68.8888 110.124 62.7972 104.521 62.1739Z" fill="#242424"/>
<path d="M109.507 77.7704C109.507 77.7704 107.449 70.4617 105.485 67.5423" stroke="#191919" stroke-width="2" stroke-miterlimit="10" stroke-linecap="round"/>
<path d="M110.089 67.2363C110.089 67.2363 115.496 59.7277 113.361 55.4236L113.088 54.868C110.983 50.5845 104.459 51.8339 104.218 56.6025C104.068 59.6248 105.444 63.2556 110.089 67.2363Z" fill="#C9A677"/>
<path d="M119.6 53.6923C118.212 50.2114 113.226 50.3908 112.1 53.9628C111.491 55.8943 111.218 57.9376 111.874 59.6281C113.694 64.3849 114.958 68.1539 114.958 68.1539C114.958 68.1539 123.245 62.8208 119.6 53.6923Z" fill="#C9A677"/>
<path d="M89.0658 101.534C89.0658 101.534 94.5635 103.724 106.118 89.7122C117.604 75.7886 115.74 59.4308 115.74 59.4308" stroke="#191919" stroke-width="2" stroke-miterlimit="10" stroke-linecap="round"/>
<path d="M109.236 59.6808C109.236 59.6808 111.853 75.9357 107.364 88.0248" stroke="#191919" stroke-width="2" stroke-miterlimit="10" stroke-linecap="round"/>
<path d="M102.01 82.2215C102.01 82.2215 106.302 75.539 104.4 71.8641L104.303 71.6789C102.36 67.9098 96.6271 69.4092 96.8211 73.6457C96.9358 76.1711 98.2646 79.1052 102.01 82.2215Z" fill="#C9A677"/>
<path d="M102.463 75.6124C102.463 75.6124 102.783 88.6981 98.3852 97.5385" stroke="#191919" stroke-width="2" stroke-miterlimit="10" stroke-linecap="round"/>
<path d="M110.201 87.2428C110.201 87.2428 114.881 84.7909 115.455 81.3453L115.472 81.2424C116.019 77.9643 111.533 76.3827 109.972 79.3167C109.019 81.1042 109.484 83.562 110.201 87.2428Z" fill="#C9A677"/>
<path d="M109.378 89.286C109.378 89.286 111.386 84.3939 112.318 81.454" stroke="#191919" stroke-width="2" stroke-miterlimit="10" stroke-linecap="round"/>
<path d="M107.049 92.3141C107.049 92.3141 111.459 95.8273 114.637 94.325L114.731 94.278C118.171 92.661 116.11 87.3632 112.52 88.6157C110.939 89.1595 109.107 90.2944 107.049 92.3141Z" fill="#C9A677"/>
<path d="M104.086 92.3613C104.086 92.3613 110.404 92.4612 113.303 91.5851" stroke="#191919" stroke-width="2" stroke-miterlimit="10" stroke-linecap="round"/>
<path d="M115.378 83.7884C115.378 83.7884 122.516 82.2891 124.101 78.3995C124.119 78.3613 124.133 78.3231 124.148 78.2819C125.659 74.5805 120.77 71.5818 118.221 74.6746C116.695 76.5062 115.537 79.3785 115.378 83.7884Z" fill="#C9A677"/>
<path d="M120.082 77.8615C120.082 77.8615 113.517 88.3041 104.086 92.3613" stroke="#191919" stroke-width="2" stroke-miterlimit="10" stroke-linecap="round"/>
<mask id="mask1_1211_3986" style="mask-type:luminance" maskUnits="userSpaceOnUse" x="24" y="34" width="99" height="113">
<path d="M122.269 34.368H24.7337V146.997H122.269V34.368Z" fill="white"/>
</mask>
<g mask="url(#mask1_1211_3986)">
<path d="M53.4305 86.6312C53.4305 86.6312 40.4948 86.9635 36.4964 104.23C32.4334 121.837 25.3746 121.331 33.5095 131.789C33.5095 131.789 39.4864 131.457 45.4633 116.848L53.7627 103.068C53.7627 103.068 54.4242 93.937 53.4305 86.6312Z" fill="#CC8765"/>
<path d="M96.098 88.2924C96.098 88.2924 101.91 88.7334 106.006 92.9404C109.828 96.8682 112.865 109.454 114.955 113.505C117.601 118.65 117.515 126.476 113.697 129.969C113.697 129.969 104.897 128.087 98.2589 111.982C98.2589 111.977 91.6175 99.5818 96.098 88.2924Z" fill="#CC8765"/>
<path d="M67.0985 64.2877C67.0985 64.2877 60.7071 58.8841 61.004 53.1159C61.301 47.3478 66.6517 35.8232 79.5816 45.1781C79.5816 45.1781 90.43 48.2415 89.6861 54.5447C88.8483 61.6653 84.7882 63.8173 84.7882 63.8173L67.0985 64.2877Z" fill="#242424"/>
<path d="M84.3002 64.8726C84.2979 65.6041 84.5125 66.3198 84.917 66.9293C85.3214 67.5388 85.8975 68.0147 86.5725 68.2968C87.2474 68.5788 87.9908 68.6544 88.7086 68.514C89.4265 68.3736 90.0866 68.0234 90.6055 67.5078C91.1244 66.9923 91.4787 66.3344 91.6237 65.6174C91.7687 64.9004 91.6978 64.1566 91.4201 63.4799C91.1423 62.8032 90.6701 62.2241 90.0632 61.8158C89.4563 61.4074 88.7419 61.1882 88.0104 61.1859C87.5247 61.1844 87.0435 61.2785 86.5942 61.4629C86.1449 61.6474 85.7363 61.9185 85.3918 62.2608C85.0472 62.6032 84.7735 63.01 84.5862 63.4582C84.3989 63.9063 84.3017 64.3869 84.3002 64.8726Z" fill="#CC8765"/>
<path d="M62.7709 58.0698C62.7709 58.0698 62.9502 61.3889 62.8591 63.8085C62.668 69.0269 62.0535 78.1525 73.8868 78.3319C85.7201 78.5112 87.6898 72.0551 86.4374 64.8845C85.3849 58.8694 85.7201 55.562 85.7201 55.562C85.7201 55.562 78.1879 53.7686 72.8108 48.3885C72.8108 48.3885 64.3849 52.331 62.7709 58.0698Z" fill="#CC8765"/>
<path d="M81.7392 80.3986V73.184H68.6241V80.8896C68.627 81.5558 68.4295 82.2076 68.0573 82.7601C67.6851 83.3127 67.1553 83.7406 66.5367 83.9883C62.8148 85.4582 57.5052 86.0462 57.5052 86.0462C75.9181 97.1886 90.3209 86.0991 90.3209 86.0991C87.4692 85.0172 85.2671 84.1117 83.7736 83.4738C83.1703 83.2172 82.6558 82.7888 82.2941 82.2421C81.9323 81.6953 81.7394 81.0542 81.7392 80.3986Z" fill="#CC8765"/>
<path d="M98.1151 112.012C104.718 113.62 114.955 111.879 114.955 111.879C114.955 111.879 112.262 98.5173 107.52 93.6693C103.075 89.1095 93.2318 87.0221 92.0206 86.781C91.4473 86.5576 90.8769 86.3283 90.3213 86.1019C87.4519 88.0158 81.2074 89.3359 73.9516 89.3359C66.6341 89.3359 60.3397 87.9835 57.5056 86.0402C55.4476 86.4165 53.8983 86.5782 53.522 86.6135C51.6786 86.5106 42.6118 88.7802 37.7991 98.6026C31.4929 111.512 31.0108 114.452 31.0108 114.452C31.0108 114.452 39.7454 118.274 47.5539 114.872C47.5304 117.953 44.9373 146.818 43.2116 152.565C43.2116 152.565 72.5434 163.955 107.302 152.565C107.314 152.565 97.7564 113.89 98.1151 112.012Z" fill="#476E5D"/>
<path d="M67.4335 107.411C67.4335 107.411 70.0647 100.437 70.3969 96.6181C70.5743 94.4385 70.9212 92.276 71.4347 90.1502C71.4347 90.1502 71.8787 86.8751 73.1987 86.8751C74.5187 86.8751 73.5838 90.1502 73.7485 94.6307C73.9131 99.1112 73.916 108.742 73.7485 109.574C73.5809 110.406 71.2671 112.629 71.2671 112.629L67.4335 107.411Z" fill="#CC8765"/>
<path d="M80.0018 106.888C80.0018 106.888 77.0266 100.599 76.6944 96.78C76.3622 92.9611 76.1799 90.2857 76.1799 90.2857C76.1799 90.2857 76.3034 87.0224 74.9745 87.0224C73.6457 87.0224 74.0337 90.2975 73.8662 94.7779C73.6986 99.2584 73.7015 108.89 73.8662 109.722C74.0308 110.554 76.4474 112.559 76.4474 112.559L80.0018 106.888Z" fill="#CC8765"/>
<path d="M79.5432 60.3244C79.4688 60.3039 79.401 60.2644 79.3465 60.2097C79.2921 60.155 79.2528 60.087 79.2326 60.0125C79.2124 59.938 79.212 59.8595 79.2314 59.7848C79.2508 59.7101 79.2894 59.6418 79.3433 59.5865C79.5347 59.378 79.7791 59.2255 80.0504 59.1453C80.3218 59.065 80.6098 59.06 80.8838 59.1308C82.2626 59.4395 82.4655 60.3244 82.1597 60.686C81.9422 60.9418 80.4075 60.5626 79.5432 60.3244Z" fill="black"/>
<path d="M65.9548 61.1182C65.8779 61.1263 65.8003 61.1143 65.7295 61.0833C65.6588 61.0522 65.5974 61.0032 65.5513 60.9412C65.5053 60.8791 65.4763 60.8061 65.4671 60.7294C65.4579 60.6527 65.469 60.5749 65.4991 60.5037C65.6025 60.2402 65.775 60.0093 65.9985 59.8355C66.222 59.6617 66.4882 59.5513 66.7691 59.5159C68.1656 59.3013 68.6742 60.051 68.5331 60.4979C68.4155 60.8183 66.8485 61.0271 65.9548 61.1182Z" fill="black"/>
<g style="mix-blend-mode:multiply" opacity="0.25">
<path d="M74.2692 76.9206C70.1532 77.1382 66.1931 74.7333 63.6295 72.4195C64.1734 74.2982 66.2931 76.6795 68.6274 77.438V80.8248C74.716 82.4418 79.1877 81.5304 81.7425 80.5602V77.0264C84.0151 75.7681 85.4233 74.748 86.4023 71.3053C84.2209 73.9542 79.8874 76.6207 74.2692 76.9206Z" fill="#D67891"/>
</g>
<path d="M68.6241 77.3968C68.6241 77.3968 72.6901 80.7601 81.7392 76.9852" stroke="#191919" stroke-width="2" stroke-miterlimit="10" stroke-linecap="round"/>
<path d="M33.5097 131.789C33.5097 131.789 60.7512 139.453 71.5291 112.2L67.5425 106.887C67.5425 106.887 57.8054 113.088 53.1015 114.69C51.0523 115.387 27.5328 118.674 33.5097 131.789Z" fill="#CC8765"/>
<path d="M113.697 129.963C113.697 129.963 97.6063 138.159 75.7714 111.868C75.7714 111.868 78.9259 108.463 79.755 106.637C79.755 106.637 94.3695 112.776 98.1885 112.944C102.007 113.111 120.838 114.19 113.697 129.963Z" fill="#CC8765"/>
<path d="M99.5849 112.973C99.5849 112.973 108.22 111.7 111.706 119.006" stroke="#191919" stroke-width="2" stroke-miterlimit="10" stroke-linecap="round"/>
<path d="M34.2474 119.838C34.2474 119.838 40.3566 113.605 47.5477 117.318" stroke="#191919" stroke-width="2" stroke-miterlimit="10" stroke-linecap="round"/>
<path d="M89.2805 63.5702C89.2805 63.5702 87.5019 63.6907 86.7963 65.3047C86.7963 65.3047 89.1747 65.7928 88.0781 66.8306" stroke="#191919" stroke-width="2" stroke-miterlimit="10" stroke-linecap="round"/>
<path d="M65.511 64.8726C65.5133 65.6042 65.2986 66.3201 64.894 66.9296C64.4894 67.5392 63.9132 68.0151 63.2381 68.2971C62.563 68.579 61.8194 68.6545 61.1015 68.5138C60.3835 68.3732 59.7234 68.0227 59.2047 67.5068C58.6859 66.9909 58.3318 66.3328 58.1871 65.6156C58.0425 64.8985 58.1138 64.1545 58.392 63.4779C58.6702 62.8012 59.1429 62.2223 59.7502 61.8143C60.3575 61.4064 61.0721 61.1877 61.8037 61.1859C62.2894 61.184 62.7706 61.2779 63.22 61.4622C63.6693 61.6466 64.0778 61.9177 64.4222 62.2602C64.7666 62.6026 65.04 63.0096 65.2268 63.4579C65.4137 63.9062 65.5102 64.387 65.511 64.8726Z" fill="#CC8765"/>
<path d="M60.5335 63.5702C60.5335 63.5702 62.3122 63.6907 63.0149 65.3047C63.0149 65.3047 60.6394 65.7928 61.736 66.8306" stroke="#191919" stroke-width="2" stroke-miterlimit="10" stroke-linecap="round"/>
<path d="M78.6583 69.1385C78.0479 69.9859 77.1626 70.5955 76.1533 70.8635C75.1439 71.1315 74.0728 71.0414 73.1224 70.6085" stroke="#191919" stroke-width="2" stroke-miterlimit="10" stroke-linecap="round"/>
<path d="M81.4042 64.0907C81.4042 64.0907 79.7079 65.9164 77.6088 64.2818" stroke="#191919" stroke-width="2" stroke-miterlimit="10" stroke-linecap="round"/>
<path d="M70.4472 64.0907C70.4472 64.0907 68.7538 65.9164 66.6517 64.2818" stroke="#191919" stroke-width="2" stroke-miterlimit="10" stroke-linecap="round"/>
<path d="M72.5433 66.6043C72.5433 66.6043 73.5135 67.4481 74.7659 66.4808" stroke="#191919" stroke-width="2" stroke-miterlimit="10" stroke-linecap="round"/>
<path d="M73.7428 95.7128C73.7428 95.7128 73.534 99.6641 73.4752 100.346C73.4164 101.028 74.8864 105.914 73.8662 109.71" stroke="#191919" stroke-width="2" stroke-miterlimit="10" stroke-linecap="round"/>
<path d="M87.3283 80.3455C86.5845 79.1019 85.0704 76.5647 83.7445 75.7621C83.1004 76.2882 82.3884 76.7253 81.6278 77.0615C80.59 80.2602 81.0809 87.7923 84.2384 94.0779C84.8852 95.3686 87.6253 100.822 89.3863 100.369C91.7353 99.7667 92.2998 88.6773 87.3283 80.3455Z" fill="#242424"/>
<path d="M62.4357 80.4986C63.1765 79.252 64.6906 76.7148 66.0194 75.9122C66.6624 76.44 67.3746 76.8772 68.1362 77.2117C69.174 80.4015 68.6801 87.9425 65.5226 94.2281C64.8758 95.5187 62.1358 100.972 60.3748 100.52C58.0257 99.9169 57.4642 88.8274 62.4357 80.4986Z" fill="#242424"/>
<path d="M88.1867 77.2264C88.7696 77.2264 89.2421 75.5508 89.2421 73.4839C89.2421 71.4169 88.7696 69.7413 88.1867 69.7413C87.6038 69.7413 87.1312 71.4169 87.1312 73.4839C87.1312 75.5508 87.6038 77.2264 88.1867 77.2264Z" fill="#C9A677"/>
<path d="M89.1745 68.7533C89.1745 68.9488 89.1165 69.1399 89.0078 69.3024C88.8992 69.4649 88.7447 69.5915 88.564 69.6662C88.3834 69.7409 88.1846 69.7603 87.9929 69.7219C87.8012 69.6836 87.6252 69.5892 87.4872 69.4508C87.3491 69.3123 87.2553 69.136 87.2175 68.9442C87.1797 68.7524 87.1997 68.5537 87.2749 68.3733C87.3501 68.1928 87.4772 68.0387 87.64 67.9305C87.8029 67.8224 87.9941 67.7649 88.1896 67.7655C88.3192 67.7655 88.4475 67.7911 88.5672 67.8407C88.6869 67.8904 88.7956 67.9632 88.8871 68.055C88.9786 68.1468 89.0511 68.2557 89.1004 68.3755C89.1497 68.4953 89.1749 68.6237 89.1745 68.7533Z" fill="#C9A677"/>
<path d="M62.3622 73.4983C62.3622 75.5563 61.8918 77.2408 61.3068 77.2408C60.7217 77.2408 60.2543 75.5651 60.2543 73.4983C60.2543 71.4315 60.7246 69.7528 61.3068 69.7528C61.8889 69.7528 62.3622 71.4168 62.3622 73.4983Z" fill="#C9A677"/>
<path d="M62.2797 68.7533C62.2797 68.9487 62.2218 69.1397 62.1132 69.3021C62.0047 69.4646 61.8504 69.5912 61.6699 69.6659C61.4894 69.7407 61.2908 69.7603 61.0992 69.7222C60.9075 69.684 60.7315 69.59 60.5934 69.4518C60.4552 69.3137 60.3612 69.1377 60.323 68.946C60.2849 68.7544 60.3045 68.5558 60.3793 68.3753C60.454 68.1948 60.5806 68.0405 60.7431 67.932C60.9055 67.8234 61.0965 67.7655 61.2919 67.7655C61.4217 67.7651 61.5503 67.7904 61.6704 67.8399C61.7904 67.8894 61.8994 67.9622 61.9912 68.054C62.083 68.1458 62.1558 68.2548 62.2053 68.3748C62.2548 68.4949 62.2801 68.6235 62.2797 68.7533Z" fill="#C9A677"/>
<path d="M61.3304 45.9013C67.2691 31.7249 80.3431 45.9013 80.3431 45.9013C80.3431 45.9013 80.8458 43.4288 84.6354 44.8017" stroke="#242424" stroke-width="2" stroke-miterlimit="10" stroke-linecap="round"/>
<path d="M65.7461 77.2262C65.5962 77.3732 58.0023 82.9591 57.5143 90.5794" stroke="#242424" stroke-width="2" stroke-miterlimit="10" stroke-linecap="round"/>
<path d="M81.9952 79.0314C81.9952 79.0314 77.1326 89.9621 84.4119 97.1267" stroke="#242424" stroke-width="2" stroke-miterlimit="10" stroke-linecap="round"/>
</g>
</svg>
