<svg width="20" height="18" viewBox="0 0 20 18" fill="none" xmlns="http://www.w3.org/2000/svg">
<path d="M17.3688 5.30269C17.3688 5.69644 17.3406 6.08081 17.2938 6.44644C16.5742 6.13241 15.7696 6.0708 15.0106 6.27162C14.2515 6.47243 13.5827 6.92388 13.1125 7.55268C12.787 7.11924 12.3652 6.76741 11.8803 6.52499C11.3955 6.28256 10.8609 6.15618 10.3188 6.15581C8.39694 6.15581 6.84069 7.72143 6.84069 9.66205C6.84069 12.1745 8.17194 14.0964 9.65318 15.3995C9.60631 15.4276 9.55943 15.437 9.51256 15.4558C9.23131 15.5589 8.76256 15.5589 8.48131 15.4558C6.0532 14.6214 0.625095 11.1714 0.625095 5.30269C0.625095 2.7152 2.70634 0.624587 5.27508 0.624587C6.80319 0.624587 8.15319 1.35583 8.99693 2.4902C9.42952 1.91124 9.99117 1.44116 10.6373 1.1173C11.2834 0.793436 11.9961 0.624731 12.7188 0.624587C15.2875 0.624587 17.3688 2.7152 17.3688 5.30269Z" stroke="#F46532" stroke-width="1.2" stroke-linecap="round" stroke-linejoin="round"/>
<path d="M19.375 9.66158C19.375 14.0491 15.3157 16.6366 13.4969 17.2553C13.2813 17.3303 12.9344 17.3303 12.7188 17.2553C11.9407 16.9928 10.7501 16.3647 9.65319 15.3991C8.17194 14.0959 6.8407 12.1741 6.8407 9.66158C6.8407 7.72097 8.39694 6.15535 10.3188 6.15535C11.4626 6.15535 12.4751 6.70847 13.1125 7.55222C13.5827 6.92342 14.2516 6.47197 15.0106 6.27115C15.7696 6.07034 16.5742 6.13194 17.2938 6.44597C18.5219 6.98972 19.375 8.21784 19.375 9.66158Z" stroke="#F46532" stroke-width="1.2" stroke-linecap="round" stroke-linejoin="round"/>
</svg>
