<svg width="227" height="87" viewBox="0 0 227 87" fill="none" xmlns="http://www.w3.org/2000/svg">
<g clip-path="url(#clip0_1251_2933)">
<path d="M113.5 0L124.306 21.6776L148.262 25.2568L130.986 42.2333L134.984 66.1227L113.5 54.9372L92.0152 66.1227L96.0135 42.2333L78.7371 25.2568L102.693 21.6776L113.5 0Z" fill="#F2BD27"/>
<path d="M130.986 42.2333L134.985 66.122L113.5 54.9372L92.0161 66.122L94.2591 52.7215C94.517 52.7449 128.755 55.7506 124.306 21.676L148.262 25.2599L130.986 42.2333Z" fill="#EDAC29"/>
<path d="M60.3355 26.2369L68.0276 41.6662L85.0797 44.2146L72.7816 56.2984L75.6284 73.303L60.3355 65.3414L45.0427 73.303L47.8887 56.2984L35.5914 44.2146L52.6427 41.6662L60.3355 26.2369Z" fill="#F2BD27"/>
<path d="M72.7825 56.2982L75.6285 73.302L60.3356 65.3412L45.0427 73.302L46.6399 63.7643C46.8237 63.7807 71.1939 65.9201 68.0284 41.666L85.0797 44.2137L72.7825 56.2982Z" fill="#EDAC29"/>
<path d="M19.1798 49.7695L25.1422 61.7302L38.3596 63.7045L28.8274 73.0715L31.0338 86.2523L19.1798 80.0811L7.32585 86.2523L9.53225 73.0715L0 63.7045L13.2174 61.7302L19.1798 49.7695Z" fill="#F2BD27"/>
<path d="M28.8282 73.0715L31.0338 86.2514L19.1806 80.081L7.32666 86.2514L8.56386 78.8586C8.70643 78.8711 27.5972 80.5298 25.143 61.7294L38.3604 63.7044L28.8282 73.0715Z" fill="#EDAC29"/>
<path d="M166.664 26.2369L174.356 41.6662L191.409 44.2146L179.111 56.2984L181.957 73.303L166.664 65.3414L151.372 73.303L154.218 56.2984L141.92 44.2146L158.972 41.6662L166.664 26.2369Z" fill="#F2BD27"/>
<path d="M179.111 56.2982L181.957 73.302L166.664 65.3412L151.375 73.302L152.972 63.7643C153.156 63.7807 177.527 65.9201 174.36 41.666L191.412 44.2137L179.111 56.2982Z" fill="#EDAC29"/>
<path d="M207.82 49.7695L213.783 61.7302L227 63.7045L217.468 73.0715L219.673 86.2523L207.82 80.0811L195.966 86.2523L198.172 73.0715L188.64 63.7045L201.857 61.7302L207.82 49.7695Z" fill="#F2BD27"/>
<path d="M217.468 73.0715L219.674 86.2514L207.82 80.081L195.966 86.2514L197.204 78.8586C197.347 78.8711 216.237 80.5298 213.783 61.7294L227 63.7044L217.468 73.0715Z" fill="#EDAC29"/>
</g>
<defs>
<clipPath id="clip0_1251_2933">
<rect width="227" height="86.2523" fill="white"/>
</clipPath>
</defs>
</svg>
