<svg width="17" height="17" viewBox="0 0 17 17" fill="none" xmlns="http://www.w3.org/2000/svg">
<path d="M16.1496 8.07503C16.1525 9.1969 15.8904 10.3036 15.3846 11.305C14.7849 12.5049 13.8629 13.5142 12.722 14.2198C11.5811 14.9254 10.2662 15.2994 8.92474 15.2999C7.80288 15.3028 6.69618 15.0407 5.69481 14.5349L0.8499 16.1499L2.46487 11.305C1.95907 10.3036 1.69696 9.1969 1.69988 8.07503C1.7004 6.73355 2.0744 5.41871 2.77997 4.27777C3.48555 3.13684 4.49485 2.21488 5.69481 1.61516C6.69618 1.10936 7.80288 0.847249 8.92474 0.850174H9.34973C11.1214 0.947915 12.7948 1.6957 14.0494 2.95036C15.3041 4.20502 16.0519 5.87838 16.1496 7.65004V8.07503Z" stroke="#9597A1" stroke-width="1.66667" stroke-linecap="round" stroke-linejoin="round"/>
</svg>
