<svg width="10" height="10" viewBox="0 0 10 10" fill="none" xmlns="http://www.w3.org/2000/svg">
<g clip-path="url(#clip0_1206_664)">
<path d="M5.00016 0.833374C2.70433 0.833374 0.833496 2.70421 0.833496 5.00004C0.833496 7.29587 2.70433 9.16671 5.00016 9.16671C7.296 9.16671 9.16683 7.29587 9.16683 5.00004C9.16683 2.70421 7.296 0.833374 5.00016 0.833374ZM6.81266 6.48754C6.7918 6.52305 6.76409 6.55406 6.73114 6.57876C6.6982 6.60347 6.66067 6.62139 6.62074 6.63147C6.58081 6.64154 6.53927 6.64359 6.49854 6.63748C6.45782 6.63137 6.41871 6.61723 6.3835 6.59587L5.09183 5.82504C4.771 5.63337 4.5335 5.21254 4.5335 4.84171V3.13337C4.5335 2.96254 4.67516 2.82087 4.846 2.82087C5.01683 2.82087 5.1585 2.96254 5.1585 3.13337V4.84171C5.1585 4.99171 5.2835 5.21254 5.41266 5.28754L6.70433 6.05837C6.85433 6.14587 6.90433 6.33754 6.81266 6.48754Z" fill="#ADAEAD"/>
</g>
<defs>
<clipPath id="clip0_1206_664">
<rect width="10" height="10" fill="white"/>
</clipPath>
</defs>
</svg>
