<svg width="25" height="22" viewBox="0 0 25 22" fill="none" xmlns="http://www.w3.org/2000/svg">
<path d="M23.6585 3.65C23.1585 3.375 22.1097 3.0875 20.6829 4.1125L18.8902 5.4125C18.7561 1.525 17.1097 0 13.1097 0H5.79268C1.62195 0 0 1.6625 0 5.93749V15.9375C0 18.8125 1.52439 21.875 5.79268 21.875H13.1097C17.1097 21.875 18.7561 20.35 18.8902 16.4625L20.6829 17.7625C21.439 18.3125 22.0975 18.4875 22.6219 18.4875C23.0731 18.4875 23.4268 18.35 23.6585 18.225C24.1585 17.9625 25 17.25 25 15.4625V6.41249C25 4.625 24.1585 3.9125 23.6585 3.65ZM11.2805 10.1625C10.0244 10.1625 8.9878 9.11249 8.9878 7.81249C8.9878 6.51249 10.0244 5.46249 11.2805 5.46249C12.5366 5.46249 13.5732 6.51249 13.5732 7.81249C13.5732 9.11249 12.5366 10.1625 11.2805 10.1625Z" fill="white"/>
</svg>
