<svg width="90" height="86" viewBox="0 0 90 86" fill="none" xmlns="http://www.w3.org/2000/svg">
<path d="M72.8817 0.540771C67.8136 2.43344 63.3158 5.59494 59.8188 9.72282C55.5578 14.5439 43.2851 35.3686 43.2851 35.3686L44.9055 48.6816C44.9055 48.6816 47.6761 51.0321 48.2862 50.1919C51.0768 46.3611 55.6279 38.7893 55.6279 38.7893C55.6279 38.7893 53.9875 35.9187 55.1578 33.2481C58.7986 24.9363 68.3907 7.89242 72.8817 0.540771Z" fill="white"/>
<path d="M47.886 50.9221C46.7757 50.9221 45.0653 49.5419 44.5552 49.1018C44.4488 49.0142 44.3806 48.8886 44.3652 48.7517L42.7448 35.4287C42.7268 35.3106 42.7516 35.19 42.8148 35.0886C43.3149 34.2384 55.1576 14.1639 59.4085 9.36284C62.9722 5.17495 67.5434 1.96335 72.6915 0.0307255C72.7971 -0.00613325 72.9115 -0.00992262 73.0193 0.0198588C73.1271 0.0496403 73.2233 0.11158 73.295 0.197419C73.3667 0.283258 73.4105 0.388919 73.4207 0.500313C73.4308 0.611707 73.4067 0.723546 73.3517 0.820911C69.1607 7.69245 59.3485 24.9663 55.6577 33.4682C54.6575 35.8488 56.0878 38.4694 56.0978 38.4694C56.1471 38.5527 56.1731 38.6476 56.1731 38.7444C56.1731 38.8412 56.1471 38.9362 56.0978 39.0195C56.0978 39.0995 51.4968 46.6612 48.7261 50.4621C48.6436 50.5737 48.5387 50.6669 48.4182 50.7358C48.2976 50.8047 48.1641 50.8477 48.026 50.8621L47.886 50.9221ZM45.4254 48.4016C46.1229 49.0585 46.961 49.5476 47.876 49.8319C50.3265 46.4511 54.1774 40.1297 54.9976 38.7694C54.5472 37.8879 54.2844 36.9226 54.2259 35.9344C54.1673 34.9462 54.3143 33.9567 54.6575 33.0281C58.1683 25.0264 67.0102 9.28281 71.5713 1.67111C67.1793 3.56004 63.2836 6.439 60.1887 10.083C56.1878 14.584 44.9553 33.5382 43.805 35.4787L45.4254 48.4016Z" fill="black"/>
<path d="M44.6747 63.895C43.5344 60.3742 48.8756 51.3722 48.8756 51.3722L43.6145 47.9815C43.6145 47.9815 34.6124 61.7846 30.4615 68.366C25.8105 75.6677 26.2406 81.3089 32.9421 84.7397C37.123 86.8802 41.784 83.9796 44.7847 79.3285C50.0159 71.1867 45.1848 65.3354 44.6747 63.895ZM34.9325 80.3588C31.9318 79.4485 30.6516 75.5577 33.2421 70.9266C34.7625 68.206 37.173 65.7855 39.3335 66.6457C42.6242 67.976 42.9443 70.7466 42.3342 73.4372C41.7841 75.8377 39.2535 81.679 34.9325 80.3588Z" fill="#F56737"/>
<path d="M35.8831 86C34.7735 85.9997 33.6799 85.7358 32.6924 85.2298C29.6917 83.6795 27.7913 81.639 27.1211 79.1484C26.2909 76.1478 27.2612 72.3769 30.0018 68.066C34.1827 61.5645 43.0647 47.8214 43.1847 47.6814C43.2662 47.5616 43.3908 47.478 43.5326 47.4482C43.6743 47.4184 43.8221 47.4446 43.9449 47.5214L49.1861 50.9121C49.3041 50.99 49.3876 51.1103 49.4193 51.2481C49.451 51.386 49.4283 51.5307 49.3561 51.6523C47.9058 54.1028 44.355 61.0344 45.2052 63.725C45.3313 64.0233 45.4749 64.3139 45.6353 64.5952C46.9056 66.9457 49.8662 72.467 45.2552 79.5986C42.5846 83.7395 39.1838 86 35.8831 86ZM43.7749 48.7416C42.1845 51.1822 34.6428 62.8248 30.922 68.6561C28.3514 72.657 27.4312 76.1278 28.1714 78.8584C28.7615 81.0389 30.4519 82.8593 33.1725 84.2496C37.4835 86.4601 41.8644 82.8193 44.305 79.0284C48.5659 72.4169 45.9153 67.4759 44.6451 65.1053C44.4533 64.7834 44.2829 64.4493 44.1349 64.1051C43.0747 60.8244 47.0356 53.5127 48.1358 51.5923L43.7749 48.7416ZM36.1832 81.0989C35.7078 81.0985 35.2354 81.0242 34.7828 80.8788C34.1001 80.6669 33.4747 80.3017 32.9547 79.8111C32.4346 79.3205 32.0336 78.7175 31.7822 78.0482C30.952 75.9877 31.3221 73.2971 32.7824 70.6566C34.3828 67.7959 36.9933 65.1153 39.5539 66.1356C41.6544 66.9857 43.9349 68.9562 42.8847 73.5572C42.4846 75.2976 41.0543 78.9684 38.4737 80.4587C37.7824 80.8759 36.9906 81.0972 36.1832 81.0989ZM35.1029 79.8386C35.5689 79.9915 36.0625 80.0411 36.5496 79.9841C37.0366 79.9271 37.5055 79.7648 37.9236 79.5085C40.014 78.3083 41.3943 75.1476 41.8044 73.3172C42.5246 70.1764 41.6544 68.166 39.1338 67.1558C37.3534 66.4356 35.1329 68.6661 33.7326 71.1567C32.4223 73.5072 32.0722 75.8577 32.7324 77.6181C32.9304 78.1354 33.2429 78.6012 33.6465 78.9805C34.0501 79.3599 34.5344 79.643 35.0629 79.8086L35.1029 79.8386Z" fill="black"/>
<path d="M89.1048 19.3651C86.6481 24.1885 82.9983 28.3032 78.5024 31.3178C73.2412 35.0086 51.1863 44.8508 51.1863 44.8508L38.1833 41.7401C38.1833 41.7401 36.1829 38.7394 37.0631 38.2093C41.114 35.8788 49.1858 32.1779 49.1858 32.1779C49.1858 32.1779 51.8564 34.1784 54.637 33.2682C63.279 30.6176 81.283 22.9959 89.1048 19.3651Z" fill="white"/>
<path d="M51.1862 45.401H51.0562L37.9833 42.2703C37.8481 42.238 37.7302 42.1558 37.6532 42.0402C37.2631 41.4601 35.9928 39.4596 36.2529 38.3894C36.2808 38.2526 36.3371 38.1233 36.4181 38.0096C36.499 37.8959 36.6029 37.8004 36.723 37.7292C40.8139 35.4187 48.8457 31.7279 48.9257 31.7279C49.0145 31.6884 49.1122 31.6731 49.2089 31.6837C49.3055 31.6942 49.3976 31.7302 49.4758 31.7879C49.4758 31.7879 51.9564 33.5583 54.477 32.7881C63.349 30.0375 81.6131 22.2758 88.9147 18.885C89.0162 18.8346 89.1313 18.8181 89.2429 18.8379C89.3545 18.8577 89.4568 18.9128 89.5348 18.995C89.6133 19.0778 89.6641 19.1829 89.6802 19.2958C89.6964 19.4087 89.677 19.5238 89.6248 19.6252C87.1259 24.5262 83.4182 28.709 78.8524 31.7779C73.6113 35.4587 52.3265 44.9609 51.4263 45.3609C51.3499 45.3908 51.2682 45.4044 51.1862 45.401ZM38.4634 41.26L51.1262 44.2607C53.1867 43.3405 73.2912 34.2585 78.2123 30.8477C82.1803 28.1976 85.4806 24.6645 87.8545 20.5254C79.7726 24.2062 63.1389 31.2178 54.777 33.7984C53.8156 34.0336 52.8158 34.0662 51.8411 33.894C50.8665 33.7218 49.9383 33.3486 49.1158 32.7981C47.6754 33.4583 40.9539 36.579 37.3231 38.6295C37.4904 39.5805 37.8736 40.4804 38.4434 41.26H38.4634Z" fill="black"/>
<path d="M22.9701 40.2498C26.3408 41.7801 35.883 37.4892 35.883 37.4892L38.6636 43.1004C38.6636 43.1004 23.9403 50.4421 16.9287 53.8728C9.14696 57.6737 3.58572 56.6135 0.925118 49.5619C-0.725252 45.1709 2.67551 40.8599 7.63662 38.4094C16.3086 34.1184 21.5898 39.6196 22.9701 40.2498ZM5.51615 48.0815C6.07627 51.0822 9.80711 52.8726 14.6982 50.8222C17.5689 49.6219 20.2495 47.4914 19.6293 45.2509C18.6891 41.8301 15.9685 41.2 13.2279 41.51C10.7773 41.7801 4.68596 43.6405 5.51615 48.0815Z" fill="#F56737"/>
<path d="M9.17702 56.5734C8.04581 56.5908 6.92181 56.3905 5.86628 55.9833C3.46574 54.9831 1.64533 52.9326 0.455065 49.7519C-1.1553 45.4609 1.58532 40.8199 7.45664 37.9192C15.0883 34.1384 20.2395 37.7092 22.46 39.2295C22.7199 39.4233 22.9941 39.5972 23.2802 39.7497C25.8608 40.9199 33.1524 38.1593 35.743 36.989C35.8718 36.9308 36.0184 36.9254 36.1512 36.974C36.284 37.0227 36.3924 37.1214 36.4531 37.2491L39.1838 42.8603C39.2462 42.9905 39.255 43.14 39.2083 43.2766C39.1615 43.4132 39.0629 43.526 38.9337 43.5905C38.7937 43.6605 24.1304 50.9722 17.1988 54.3629C14.7231 55.6886 11.9823 56.4439 9.17702 56.5734ZM14.0881 37.3191C11.9361 37.3586 9.8229 37.8997 7.91674 38.8995C3.91584 40.8999 -0.225087 44.8408 1.47529 49.3718C2.55554 52.2525 4.1759 54.1329 6.26637 54.9631C8.90696 56.0133 12.4177 55.4832 16.7187 53.3827C22.9301 50.382 35.3529 44.1606 37.9635 42.8603L35.623 38.1793C33.6225 39.0495 25.8908 42.1802 22.7501 40.7299C22.4024 40.5472 22.0681 40.3399 21.7498 40.1097C19.5502 38.3811 16.8544 37.403 14.0581 37.3191H14.0881ZM10.6874 52.2525C9.57135 52.2737 8.4677 52.0158 7.47664 51.5023C6.83497 51.1751 6.27628 50.706 5.84301 50.1306C5.40973 49.5552 5.11325 48.8886 4.97608 48.1815C4.85204 47.5536 4.86187 46.9065 5.00492 46.2826C5.14797 45.6587 5.42103 45.0719 5.80627 44.5607C7.58666 42.1702 11.3975 41.16 13.1679 40.9599C17.859 40.4298 19.5593 42.9604 20.1695 45.1108C20.8996 47.7614 17.939 50.062 14.9183 51.3223C13.5743 51.9135 12.1255 52.2298 10.6574 52.2525H10.6874ZM14.4382 41.9801C14.0638 41.9848 13.69 42.0081 13.3179 42.0502C11.4475 42.2602 8.15679 43.2804 6.71647 45.2109C6.41546 45.5986 6.20306 46.0477 6.09419 46.5263C5.98533 47.005 5.98264 47.5017 6.08633 47.9815C6.18984 48.5252 6.41562 49.0382 6.74659 49.4818C7.07756 49.9255 7.50506 50.288 7.99676 50.5421C9.65713 51.4323 11.9977 51.3523 14.5182 50.312C17.1888 49.2018 19.6494 47.2513 19.1393 45.4009C18.4791 43.1104 16.9288 41.9801 14.4082 41.9801H14.4382Z" fill="black"/>
<path d="M49.186 37.7691C49.4151 37.6571 49.6722 37.6155 49.9249 37.6495C50.1776 37.6835 50.4146 37.7916 50.6059 37.9602C50.7972 38.1288 50.9342 38.3502 50.9998 38.5967C51.0653 38.8431 51.0563 39.1034 50.974 39.3447C50.8917 39.5861 50.7398 39.7976 50.5373 39.9526C50.3349 40.1077 50.0911 40.1992 49.8366 40.2158C49.5822 40.2324 49.3285 40.1732 49.1077 40.0457C48.8869 39.9182 48.7088 39.7281 48.5959 39.4995C48.5207 39.3472 48.4763 39.1815 48.4653 39.012C48.4542 38.8425 48.4768 38.6725 48.5316 38.5118C48.5864 38.351 48.6725 38.2026 48.7848 38.0752C48.8971 37.9477 49.0334 37.8437 49.186 37.7691Z" fill="black"/>
</svg>
