<svg width="20" height="20" viewBox="0 0 20 20" fill="none" xmlns="http://www.w3.org/2000/svg">
<path d="M12.2498 7.74911H7.74987M12.2498 7.74911V12.2491M12.2498 7.74911H13.9373C14.8654 7.74911 15.6248 6.98974 15.6248 6.06162C15.6248 5.13351 14.8654 4.37414 13.9373 4.37414C13.0092 4.37414 12.2498 5.13351 12.2498 6.06162V7.74911ZM7.74987 7.74911V12.2491M7.74987 7.74911H6.06239C5.13427 7.74911 4.3749 6.98974 4.3749 6.06162C4.3749 5.13351 5.13427 4.37414 6.06239 4.37414C6.9905 4.37414 7.74987 5.13351 7.74987 6.06162V7.74911ZM7.74987 12.2491H12.2498M7.74987 12.2491V13.9365C7.74987 14.8647 6.9905 15.624 6.06239 15.624C5.13427 15.624 4.3749 14.8647 4.3749 13.9365C4.3749 13.0084 5.13427 12.2491 6.06239 12.2491H7.74987ZM12.2498 12.2491H13.9373C14.8654 12.2491 15.6248 13.0084 15.6248 13.9365C15.6248 14.8647 14.8654 15.624 13.9373 15.624C13.0092 15.624 12.2498 14.8647 12.2498 13.9365V12.2491Z" stroke="#F46532" stroke-width="1.2" stroke-linecap="round" stroke-linejoin="round"/>
<path d="M7.18753 19.3744H12.8125C17.4999 19.3744 19.3749 17.4994 19.3749 12.812V7.18702C19.3749 2.49957 17.4999 0.624587 12.8125 0.624587H7.18753C2.50008 0.624587 0.625095 2.49957 0.625095 7.18702V12.812C0.625095 17.4994 2.50008 19.3744 7.18753 19.3744Z" stroke="#F46532" stroke-width="1.2" stroke-linecap="round" stroke-linejoin="round"/>
</svg>
