<svg width="58" height="58" viewBox="0 0 58 58" fill="none" xmlns="http://www.w3.org/2000/svg">
<path d="M29 0C12.992 0 0 12.992 0 29C0 45.008 12.992 58 29 58C45.008 58 58 45.008 58 29C58 12.992 45.037 0 29 0ZM37.7 35.467L29.29 40.31C28.2776 40.9 27.1268 41.2109 25.955 41.2109C24.7832 41.2109 23.6324 40.9 22.62 40.31C21.5995 39.726 20.7528 38.8811 20.1668 37.8618C19.5807 36.8425 19.2764 35.6857 19.285 34.51V24.795C19.285 22.388 20.532 20.213 22.62 18.995C24.708 17.777 27.202 17.777 29.319 18.995L37.729 23.838C39.817 25.056 41.064 27.202 41.064 29.638C41.064 32.074 39.817 34.249 37.7 35.467Z" fill="white" fill-opacity="0.7"/>
</svg>
