<svg width="276" height="50" viewBox="0 0 276 50" fill="none" xmlns="http://www.w3.org/2000/svg">
<path fill-rule="evenodd" clip-rule="evenodd" d="M2.3999 26.713C2.3999 21.082 3.0139 21.475 6.3189 18.41C7.7649 17.246 10.0149 15 11.9579 15C13.8999 15 16.1949 17.235 17.6539 18.41C20.9589 21.475 21.5719 21.082 21.5719 26.713C21.5719 35 19.6129 35 11.9859 35C4.3589 35 2.3999 35 2.3999 26.713Z" fill="#F56737"/>
<path d="M9.07861 29.1357H14.8936" stroke="white" stroke-width="1.5" stroke-linecap="round" stroke-linejoin="round"/>
<circle cx="12" cy="42" r="2" fill="#F56737"/>
<path d="M259.306 27.5743H268.899" stroke="#C6CEDD" stroke-width="1.5" stroke-linecap="round" stroke-linejoin="round"/>
<path fill-rule="evenodd" clip-rule="evenodd" d="M254.5 20.7984C254.5 18.3565 255.75 16.2593 258.122 15.7727C260.493 15.285 262.295 15.4536 263.792 16.2612C265.29 17.0688 264.861 18.2612 266.4 19.1365C267.94 20.0127 270.417 18.6965 272.035 20.4422C273.729 22.2698 273.72 25.0755 273.72 26.8641C273.72 33.6603 269.913 34.1993 264.11 34.1993C258.307 34.1993 254.5 33.7288 254.5 26.8641V20.7984Z" stroke="#C6CEDD" stroke-width="1.5" stroke-linecap="round" stroke-linejoin="round"/>
<path d="M203.917 27.854L206.91 23.965L210.324 26.645L213.253 22.865" stroke="#C6CEDD" stroke-width="1.5" stroke-linecap="round" stroke-linejoin="round"/>
<path fill-rule="evenodd" clip-rule="evenodd" d="M216.667 15.3501C217.729 15.3501 218.589 16.2101 218.589 17.2721C218.589 18.3331 217.729 19.1941 216.667 19.1941C215.605 19.1941 214.745 18.3331 214.745 17.2721C214.745 16.2101 215.605 15.3501 216.667 15.3501Z" stroke="#C6CEDD" stroke-width="1.5" stroke-linecap="round" stroke-linejoin="round"/>
<path d="M217.755 22.269C217.888 23.164 217.949 24.172 217.949 25.303C217.949 32.241 215.637 34.553 208.699 34.553C201.762 34.553 199.449 32.241 199.449 25.303C199.449 18.366 201.762 16.053 208.699 16.053C209.809 16.053 210.8 16.112 211.682 16.24" stroke="#C6CEDD" stroke-width="1.5" stroke-linecap="round" stroke-linejoin="round"/>
<circle cx="138" cy="25" r="25" fill="#F56737"/>
<path d="M138 18C138.232 18 138.455 18.0922 138.619 18.2563C138.783 18.4204 138.875 18.6429 138.875 18.875V24.125H144.125C144.357 24.125 144.58 24.2172 144.744 24.3813C144.908 24.5454 145 24.7679 145 25C145 25.2321 144.908 25.4546 144.744 25.6187C144.58 25.7828 144.357 25.875 144.125 25.875H138.875V31.125C138.875 31.3571 138.783 31.5796 138.619 31.7437C138.455 31.9078 138.232 32 138 32C137.768 32 137.545 31.9078 137.381 31.7437C137.217 31.5796 137.125 31.3571 137.125 31.125V25.875H131.875C131.643 25.875 131.42 25.7828 131.256 25.6187C131.092 25.4546 131 25.2321 131 25C131 24.7679 131.092 24.5454 131.256 24.3813C131.42 24.2172 131.643 24.125 131.875 24.125H137.125V18.875C137.125 18.6429 137.217 18.4204 137.381 18.2563C137.545 18.0922 137.768 18 138 18Z" fill="white"/>
<path fill-rule="evenodd" clip-rule="evenodd" d="M58.6101 25C58.6101 31.937 60.7081 34.25 67.0011 34.25C73.2951 34.25 75.3921 31.937 75.3921 25C75.3921 18.063 73.2951 15.75 67.0011 15.75C60.7081 15.75 58.6101 18.063 58.6101 25Z" stroke="#C6CEDD" stroke-linecap="round" stroke-linejoin="round"/>
<path d="M70.596 28.6963H63.376" stroke="#C6CEDD" stroke-width="1.5" stroke-linecap="round" stroke-linejoin="round"/>
<path d="M70.596 24.9365H63.376" stroke="#C6CEDD" stroke-width="1.5" stroke-linecap="round" stroke-linejoin="round"/>
<path d="M66.1312 21.1772H63.3762" stroke="#C6CEDD" stroke-width="1.5" stroke-linecap="round" stroke-linejoin="round"/>
</svg>
