<svg width="271" height="293" viewBox="0 0 271 293" fill="none" xmlns="http://www.w3.org/2000/svg">
<path d="M125.218 293C198.269 293 257.775 266.457 269.515 192.407C281.256 118.358 179.728 152.842 181.616 85.7065C183.503 18.5985 161.133 -20.4113 99.8776 11.0742C38.6226 42.5597 47.8927 108.863 38.8446 139.626C21.248 199.321 -75.7553 293 125.218 293Z" fill="#F36430" fill-opacity="0.5"/>
<path d="M31.3221 146.014C37.7481 128.169 36.9134 111.524 29.4577 108.838C22.0019 106.151 10.7485 118.439 4.3225 136.285C-2.10354 154.13 -1.26882 170.775 6.18691 173.462C13.6426 176.148 24.896 163.86 31.3221 146.014Z" fill="#F36430" fill-opacity="0.5"/>
<path d="M244.665 110.454C254.222 102.098 252.761 84.7845 241.402 71.783C230.044 58.7815 213.088 55.0153 203.531 63.371C193.974 71.7267 195.434 89.0401 206.793 102.042C218.152 115.043 235.107 118.809 244.665 110.454Z" fill="#F36430" fill-opacity="0.5"/>
</svg>
