<svg width="119" height="111" viewBox="0 0 119 111" fill="none" xmlns="http://www.w3.org/2000/svg">
<g clip-path="url(#clip0_1209_942)">
<path d="M4.50284 59.9716V58.2197L4.93627 59.9716L5.5864 58.4117L5.29746 60.3556C5.29746 60.3556 6.69406 59.4437 6.81445 59.2997C6.93485 59.1557 5.56234 61.1235 5.56234 61.1235L7.97027 60.4276L5.70681 61.7235L7.94618 62.2275H5.53825L6.91077 63.5474L5.70681 62.7314L6.88669 65.2752L5.05667 63.1874V64.3153L4.50284 63.1154L3.58783 66.1152L3.85271 63.1874L2.9136 64.2673L3.82862 62.6354L1.08358 64.1713L3.87677 62.3235L0 62.7554L3.63598 62.0115L1.39661 61.4595L3.20255 61.6515L2.64874 60.5716L3.85271 61.3395L2.52834 58.0518L4.28613 60.8356L4.06941 59.5637L4.50284 59.9716Z" fill="#FFA89E"/>
<path d="M113.221 58.7478V55.94L113.919 58.7718L114.979 56.252L114.497 59.3958C114.497 59.3958 116.761 57.8839 116.905 57.6919C117.05 57.4999 114.907 60.5957 114.907 60.5957L118.928 59.4918L115.268 61.6276L118.88 62.4195H115.268L116.881 64.5794L114.931 63.2595L116.857 67.4112L113.871 64.0274V65.8753L113.173 63.9074L111.704 68.7071L112.162 63.9074L110.645 65.6833L112.113 63.0675L107.659 65.4673L112.162 62.5635L105.901 63.2595L111.776 62.0356L108.164 61.1476L111.078 61.4596L110.187 59.7317L112.113 60.9557L109.994 55.676L112.86 60.1637L112.523 58.0999L113.221 58.7478Z" fill="#6DDDFF"/>
<path d="M108.501 72.4027V70.9148L108.863 72.4027L109.416 71.0588L109.176 72.7387C109.176 72.7387 110.356 71.9468 110.476 71.8268C110.596 71.7068 109.392 73.3867 109.392 73.3867L111.535 72.7867L109.609 73.9146L111.511 74.3466H109.561L110.428 75.4745L109.392 74.7786L110.404 76.9864L108.839 75.1865V76.0265L108.477 74.9946L107.707 77.5864L107.948 75.0665L107.129 75.9785L107.899 74.6106L105.636 76.0265L108.044 74.4426L104.721 74.8026L107.827 74.1786L105.925 73.6986L107.466 73.8666L106.984 72.9547L108.044 73.6266L106.912 70.8188L108.405 73.2187L108.044 72.0428L108.501 72.4027Z" fill="#FFA89E"/>
<path d="M97.5213 11.0633V8.23146L98.1955 11.0633L99.255 8.54343L98.7734 11.6872C98.7734 11.6872 101.037 10.1993 101.181 9.98333C101.326 9.76735 99.1587 12.9111 99.1587 12.9111L103.204 11.8072L99.5439 13.8951L103.156 14.711H99.4717L101.109 16.8708L99.1346 15.5509L101.085 19.7026L98.0992 16.2949V18.1428L97.4009 16.1749L95.932 20.9746L96.3895 16.1749L94.8725 17.9268L96.3414 15.311L91.8867 17.7108L96.4136 14.711L90.1289 15.4069L96.0043 14.207L92.3924 13.3191L95.33 13.6311L94.415 11.9032L96.3654 13.1271L94.2224 7.82349L97.0638 12.3112L96.7026 10.2473L97.5213 11.0633Z" fill="#6DDDFF"/>
<path d="M74.3328 100.601V98.3449L74.8866 100.601L75.7294 98.6089L75.3441 101.009C75.3441 101.009 77.15 99.8088 77.2945 99.6648C77.439 99.5208 75.7053 102.065 75.7053 102.065L78.9078 101.177L75.9943 102.857L78.9078 103.505H75.9461L77.2464 105.232L75.6812 104.176L77.2223 107.488L74.8144 104.776V106.24L74.2605 104.68L73.0806 108.568L73.4419 104.752L72.2379 106.168L73.4177 104.056L69.854 106.048L73.4659 103.649L68.4333 104.2L73.2492 103.241L70.3356 102.521L72.7435 102.785L72.0211 101.393L73.5622 102.377L71.8767 98.1289L74.1401 101.729L73.8512 100.073L74.3328 100.601Z" fill="#88D0FF"/>
<path d="M41.9943 99.161V98.201L42.235 99.161L42.5962 98.297L42.4277 99.3529L43.2705 98.777L42.5721 99.7849L43.9687 99.4009L42.7166 100.121L43.9447 100.385H42.6925L43.2464 101.129L42.5721 100.673L43.2223 102.089L42.211 100.937V101.561L41.9702 100.889L41.4645 102.545L41.633 100.937L41.1033 101.513L41.609 100.625L40.092 101.489L41.633 100.457L39.49 100.697L41.4886 100.289L40.2605 99.9769H41.2478L40.9588 99.4009L41.609 99.8089L40.8866 98.009L41.8498 99.5449V98.825L41.9943 99.161Z" fill="#88D0FF"/>
<path d="M41.9462 65.2513V64.5554L42.1147 65.2513L42.4037 64.6274L42.2833 65.4193L42.8853 64.9873L42.3796 65.7313L43.3909 65.4433L42.4759 65.9713L43.3909 66.1873H42.4518L42.8611 66.7392L42.3796 66.4032L42.8611 67.4592L42.1147 66.5952V67.0752L41.9221 66.5712L41.5609 67.7951L41.6813 66.5952L41.296 67.0512L41.6572 66.3792L40.5255 67.0032L41.6813 66.2592L40.092 66.4272L41.5849 66.1153L40.6218 65.8753H41.3682L41.1275 65.4433L41.609 65.7553L41.0793 64.4114L41.8017 65.5393V65.0113L41.9462 65.2513Z" fill="#88D0FF"/>
<path d="M40.6218 35.8056V35.2296L40.7904 35.9496L41.0552 35.3016V36.0935L41.6813 35.6616L41.1756 36.4055L42.1869 36.1175L41.2719 36.6455L42.1869 36.8615H41.2478L41.6572 37.4135L41.1515 37.0775L41.6572 38.1334L40.8867 37.2695V37.7494L40.7181 37.2455L40.3329 38.4694L40.4532 37.2695L40.068 37.7254L40.4532 37.0535L39.3215 37.6774L40.4532 36.9335L38.864 37.1015L40.3569 36.7895L39.4419 36.5735H40.1884L39.9476 36.1415L40.4532 36.4535L39.8994 35.1096L40.6218 36.2375V35.7096V35.8056Z" fill="#88D0FF"/>
<path d="M67.7351 29.6139V28.894L67.9037 29.6139L68.1685 28.966L68.0481 29.7579L68.6742 29.35L68.1685 30.0699L69.1799 29.8059L68.2648 30.3339L69.1799 30.5259H68.2408L68.6501 31.0778L68.1685 30.7419L68.6501 31.7738L67.9037 30.9098V31.3898L67.711 30.8858L67.3498 32.1098V30.9098L66.9886 31.3658L67.3498 30.6939L66.2181 31.3178L67.3739 30.5739L65.7847 30.7419L67.2535 30.4539L66.3385 30.2139H67.085L66.8682 29.7819L67.3498 30.0939L66.8201 28.75L67.5424 29.8779V29.374L67.7351 29.6139Z" fill="#88D0FF"/>
<path d="M68.3611 49.1964V48.5004L68.5297 49.1964L68.7945 48.5724L68.6741 49.3644L69.3002 48.9324L68.7945 49.6764L69.8059 49.3884L68.8909 49.9163L69.8059 50.1323H68.8668L69.2761 50.6843L68.7705 50.3483L69.2761 51.4042L68.5056 50.5403V50.9963L68.337 50.5163L67.9518 51.7402V50.5403L67.5665 50.9723L67.9518 50.3243L66.8201 50.9483L67.9518 50.1803L66.3625 50.3483L67.8555 50.0603L66.9404 49.8203H67.6869L67.4461 49.3884L67.9518 49.7004L67.3979 48.3564L68.1203 49.4844V48.9564L68.3611 49.1964Z" fill="#FF524B"/>
<path d="M25.3555 48.7885V48.0686L25.524 48.7885L25.7889 48.1405V48.9325L26.415 48.5005L25.8852 49.2445L26.9206 48.9565L26.0056 49.5084L26.8965 49.7004H25.9815L26.3908 50.2284L25.8852 49.9164L26.3908 50.9483L25.6203 50.1084V50.5644L25.4518 50.0604L25.0665 51.2843L25.1869 50.0844L24.8016 50.5404L25.1628 49.8684L24.0552 50.4924L25.1869 49.7484L23.5977 49.9164L25.0906 49.6044L24.1756 49.3885H24.922L24.6812 48.9565L25.1869 49.2685L24.6331 47.9246L25.3555 49.0525V48.5485V48.7885Z" fill="#FF524B"/>
<path d="M25.5482 73.0748V72.3548L25.7167 73.0748L25.9816 72.4268V73.2188C26.1992 73.0881 26.4083 72.9438 26.6077 72.7868L26.102 73.5307L27.1134 73.2668L26.1983 73.7947L27.1134 73.9867H26.1743L26.5836 74.5387L26.102 74.2027L26.5836 75.2346L25.8131 74.3947V74.8507L25.6445 74.3467L25.2833 75.5946V74.3707L24.8981 74.8267L25.2833 74.1547L24.1516 74.8027L25.2833 74.0347L23.6941 74.2027L25.187 73.8907L24.2479 73.6267H24.9944L24.7777 73.1948L25.2592 73.5067L24.7295 72.1628L25.4278 73.3148V72.7868L25.5482 73.0748Z" fill="#FF524B"/>
<path d="M87.0948 56.156V55.436L87.2634 56.156L87.5524 55.508L87.4319 56.2999C87.6414 56.1685 87.8424 56.0243 88.0339 55.868L87.5283 56.6119L88.5396 56.3479L87.6246 56.8759L88.5396 57.0679H87.6005L88.0098 57.6199L87.5283 57.2839L88.0098 58.3158L87.2634 57.4519V57.9318L87.0707 57.4279L86.7096 58.6758L86.83 57.4519L86.4447 57.9078L86.8059 57.2359L85.6742 57.8598L86.83 57.1159L85.2407 57.2839L86.7336 56.9719L85.8186 56.8279H86.541L86.3725 56.3959L86.854 56.7079L86.3725 55.364L87.0948 56.4919V55.988V56.156Z" fill="#FF524B"/>
<path d="M21.0935 90.5937V89.1778L21.4547 90.5937L21.9845 89.3457L21.7437 90.9056C21.7437 90.9056 22.8754 90.1617 22.9717 90.0657C23.068 89.9697 21.9604 91.5296 21.9604 91.5296L24.0071 90.9776L22.153 92.0336L23.983 92.4415H22.1048L22.9476 93.5214L21.9604 92.8735L22.9235 94.9613L21.4306 93.2575V94.1694L21.0935 93.1855L20.3471 95.5853L20.5638 93.1855L19.8173 94.0734L20.5397 92.7535L18.3003 94.0014L20.7083 92.4895L17.5298 92.8495L20.4915 92.2255L18.6856 91.7696L20.1544 91.9376L19.6969 91.0736L20.6842 91.6736L19.6006 89.0098L21.0213 91.2896L20.8527 90.2337L21.0935 90.5937Z" fill="#FF524B"/>
<path d="M24.296 14.951V12.9591L24.7775 14.951L25.524 13.1751L25.1869 15.3829C25.1869 15.3829 26.7761 14.327 26.8965 14.183C27.0169 14.039 25.4999 16.2469 25.4999 16.2469L28.3413 15.4789L25.7648 16.9668L28.3172 17.5188H25.6926L26.8484 19.0307L25.4759 18.1188L26.8484 21.0465L24.7294 18.6467V19.9426L24.2478 18.4307L23.2124 21.8625L23.5254 18.5027L22.4659 19.7506L23.5013 17.9028L20.3469 19.6546L23.5495 17.5428L19.1189 18.0228L23.2605 17.1828L20.7081 16.5349L22.7789 16.7748L22.1529 15.5509L23.5254 16.4149L22.0084 12.6711L24.007 16.0309L23.7662 14.567L24.296 14.951Z" fill="#6DDDFF"/>
<path d="M91.1883 23.5182V21.4784L91.6699 23.5182L92.4404 21.7184L92.1033 23.9742C92.1033 23.9742 93.7166 22.8943 93.8611 22.7503C94.0056 22.6063 92.4163 24.8622 92.4163 24.8622L95.33 24.0702L92.6812 25.5821L95.3059 26.1581H92.6331L93.8129 27.7179L92.3923 26.758L93.7889 29.7578L91.6458 27.358V28.6779L91.1401 27.262L90.0806 30.7657L90.4178 27.334L89.3101 28.6059L90.3696 26.71L87.1671 28.5099L90.4178 26.35L85.8909 26.83L90.1288 25.9661L87.5282 25.3181L89.6472 25.5581L88.973 24.3102L90.3937 25.1741L88.8526 21.3584L90.8994 24.5982L90.6345 23.1103L91.1883 23.5182Z" fill="#FF524B"/>
<path d="M72.7437 41.085C71.1735 40.8197 69.5604 41.1447 68.2168 41.997C66.4451 42.881 64.8595 44.0948 63.5454 45.5727C61.3315 48.2902 59.6194 51.3779 58.4888 54.6921C59.691 51.6612 61.7801 49.0608 64.4845 47.2286C65.833 46.3407 67.1332 45.3807 68.5298 44.5648C69.9264 43.7489 71.5398 43.5809 72.7678 42.4769C73.129 42.189 73.4661 41.277 72.7437 41.085Z" fill="#F18535"/>
<path d="M83.9645 27.046C83.4593 26.5981 82.829 26.3145 82.1578 26.233C81.4866 26.1516 80.8065 26.2761 80.2082 26.59C78.7904 27.0228 77.4378 27.6443 76.1869 28.4379C73.7266 29.9845 71.4628 31.8217 69.4447 33.9095C67.5458 35.8685 65.7914 37.9618 64.1954 40.173C62.7411 42.4542 61.4069 44.8092 60.1982 47.2285C60.8484 46.2206 61.3781 45.1887 62.0283 44.2288C62.8333 43.1336 63.7272 42.1062 64.7011 41.157C68.4861 37.115 73.2067 34.0582 78.4504 32.2536C79.8951 31.7256 86.7096 29.7818 83.9645 27.046Z" fill="#EB5C31"/>
<path d="M73.1048 11.3752C70.0949 11.3752 67.5906 14.423 65.881 16.6309C64.1398 19.2195 62.9211 22.1213 62.2931 25.1743C60.447 31.1488 59.5691 37.3787 59.6926 43.629C60.3631 37.5585 62.1854 31.6704 65.0623 26.2782C66.2187 23.8195 67.6657 21.5073 69.3725 19.3907C71.0099 17.3508 73.466 15.6709 74.1883 13.1031C74.2504 12.9184 74.2707 12.7224 74.2477 12.5289C74.2248 12.3355 74.1592 12.1496 74.0556 11.9844C73.952 11.8192 73.8131 11.679 73.6487 11.5736C73.4843 11.4683 73.2985 11.4006 73.1048 11.3752Z" fill="#FAB839"/>
<path d="M85.4092 16.3188C83.9163 14.9509 81.7973 15.9349 80.2803 16.7268C78.3556 17.7374 76.6008 19.041 75.0792 20.5905C73.7932 21.9067 72.6399 23.3455 71.6359 24.8862C71.1543 25.6062 70.7209 26.3741 70.3115 27.0941C69.8143 27.7965 69.3561 28.5255 68.939 29.2779C69.9126 27.9552 71.1008 26.8035 72.4546 25.8702C73.825 24.8996 75.2567 24.0178 76.7407 23.2304C78.2577 22.3664 79.8469 21.5505 81.5565 20.8305C83.2662 20.1106 84.7832 19.6306 85.7223 17.9507C85.875 17.6865 85.9275 17.3763 85.87 17.0768C85.8126 16.7773 85.6491 16.5083 85.4092 16.3188Z" fill="#E8442F"/>
<path d="M105.467 32.8296C104.498 32.0462 103.38 31.466 102.18 31.1237C100.98 30.7815 99.7229 30.6842 98.4843 30.8378C95.5757 30.9272 92.6889 31.3705 89.888 32.1577C87.1413 32.9631 84.4736 34.0154 81.9177 35.3015C81.0268 35.6854 80.16 36.1174 79.3172 36.5734L79.0282 36.7654C78.5466 37.1493 78.041 37.5093 77.5835 37.9173C78.0658 37.824 78.5406 37.6957 79.0042 37.5333C80.1841 37.1253 81.4121 36.8613 82.5679 36.5734C86.0721 35.7699 89.6427 35.2879 93.2351 35.1335C97.1672 35.2803 101.103 34.9662 104.962 34.1975C105.636 34.1015 105.973 33.3816 105.467 32.8296Z" fill="#E8442F"/>
<path d="M111.102 44.3008C107.538 42.5911 103.728 41.4493 99.8089 40.917C95.6793 40.6251 91.5294 40.8509 87.4562 41.589C83.5313 42.1349 79.719 43.3015 76.163 45.0447C72.7163 46.9525 69.3947 49.0766 66.2183 51.4043C66.2183 51.4043 66.2183 51.5483 66.2183 51.4043C70.1455 49.1728 74.3926 47.5541 78.8117 46.6046C85.4285 45.2817 92.1709 44.6861 98.918 44.8287C102.867 44.8287 106.768 45.1407 110.693 45.5007C111.271 45.5007 111.704 44.5888 111.102 44.3008Z" fill="#FAB839"/>
<path d="M53.4562 25.6301C52.8958 21.9308 51.8178 18.328 50.2536 14.9269C48.6376 11.4287 46.5028 8.19273 43.9208 5.32758C42.7423 4.053 41.4352 2.90299 40.0199 1.89582C38.6 0.786396 36.8628 0.156028 35.0596 0.0959473C34.3613 0.0959473 33.7352 1.03188 34.3372 1.53584C35.5171 2.54377 36.6247 3.5997 37.8287 4.58363C39.2444 5.67065 40.5581 6.88354 41.7536 8.20737C44.0154 10.9586 45.9618 13.953 47.5568 17.1347C51.1257 23.1961 53.4273 29.9144 54.323 36.8853C54.4671 33.1129 54.1762 29.3365 53.4562 25.6301Z" fill="#E8442F"/>
<path d="M58.6573 10.3912C58.4125 10.3251 58.1535 10.3332 57.9133 10.4144C57.6731 10.4956 57.4627 10.6463 57.3088 10.8472C55.9122 12.5511 56.3938 15.0229 56.4901 17.0388C56.4901 17.5187 56.6828 17.9507 56.7068 18.4307C56.7309 18.9106 56.7068 19.6066 56.7068 20.2065C56.7068 21.2625 56.9236 22.2944 56.9958 23.3503C57.3691 27.7421 57.3691 32.1576 56.9958 36.5494C56.9958 36.5494 57.1644 36.5494 57.1885 36.5494C58.2239 31.9897 58.9703 27.334 59.789 22.7264C59.9817 21.6704 60.1261 20.5905 60.2224 19.5106C60.2224 19.0546 60.2224 18.5986 60.3428 18.1427C60.4507 17.5072 60.523 16.8663 60.5595 16.2228C60.6559 14.375 60.68 11.2312 58.6573 10.3912Z" fill="#F18535"/>
<path d="M64.7011 12.839C64.866 12.5822 65.0032 12.3087 65.1104 12.023C65.1525 11.8115 65.2088 11.6031 65.279 11.3991C65.5679 10.2472 65.9532 9.14325 66.2421 8.01533C66.6756 6.26346 67.1331 3.21567 64.5566 2.95169C64.3114 2.94651 64.0703 3.01461 63.8643 3.1472C63.6583 3.27979 63.4969 3.4708 63.4008 3.69564C63.0391 5.14376 63.166 6.67031 63.762 8.03933C64.419 9.5529 64.7393 11.1903 64.7011 12.839Z" fill="#FAB839"/>
<path d="M53.6006 40.4132C53.4561 39.3813 53.3839 38.3493 53.1912 37.3174C52.6828 34.9374 51.8737 32.6312 50.7833 30.4539C49.7739 28.3464 48.5559 26.3446 47.1473 24.4783C45.8237 22.5041 44.0602 20.8614 41.9944 19.6787C41.4165 19.3667 40.9349 20.2786 41.1516 20.7346C43.0779 24.7423 46.3527 27.9341 48.3754 31.8698C49.3386 33.7657 50.2536 35.6855 51.1927 37.6054C52.3462 39.429 53.2074 41.4208 53.7451 43.509H53.9136C53.8893 42.4706 53.7846 41.4356 53.6006 40.4132Z" fill="#FAB839"/>
<path d="M44.3541 14.6631C43.5595 13.6551 42.7407 12.5032 41.3201 12.6712C41.0406 12.7399 40.7978 12.9121 40.6413 13.1529C40.4847 13.3936 40.4261 13.6848 40.4773 13.9671C40.8385 16.367 44.3541 16.223 45.5339 17.9028C45.4402 16.7368 45.0326 15.6176 44.3541 14.6631Z" fill="#FAB839"/>
<path d="M41.4645 33.6936C40.8144 33.3816 40.3087 34.3895 40.718 34.8695C43.336 37.5548 45.8115 40.3744 48.1345 43.3169C49.285 44.855 50.3463 46.4575 51.313 48.1166C52.3908 49.7495 53.364 51.4488 54.2265 53.2042C54.2265 53.3482 54.4433 53.2042 54.4433 53.2042C54.1799 49.1052 52.843 45.1466 50.5657 41.7232C48.2884 38.2998 45.1503 35.5312 41.4645 33.6936Z" fill="#FAB839"/>
<path d="M46.5935 33.6216C45.2832 29.8665 42.9585 26.5448 39.8753 24.0222C36.8654 21.3824 32.6515 17.5907 28.3173 18.7666C28.1363 18.8073 27.9667 18.8876 27.8207 19.0016C27.6747 19.1156 27.556 19.2605 27.473 19.4258C27.3901 19.5912 27.345 19.7728 27.3411 19.9576C27.3372 20.1424 27.3745 20.3258 27.4504 20.4945C28.5437 21.9559 30.108 22.9982 31.881 23.4463C33.7525 24.3159 35.5279 25.3775 37.1785 26.614C38.7918 27.718 40.4533 28.7979 41.9943 29.9258C43.6682 30.9522 45.1443 32.2689 46.3527 33.8135C46.3527 33.8135 46.6175 33.6935 46.5935 33.6216Z" fill="#F18535"/>
<path d="M57.8384 43.3889C57.8384 42.8609 56.9956 43.0769 56.8752 43.3889C56.3411 44.8671 56.0643 46.4254 56.0565 47.9965C56.0407 48.8009 56.1052 49.6048 56.2492 50.3964C56.4815 51.175 56.5951 51.9839 56.5863 52.7962C56.5863 52.9642 56.7549 53.0602 56.8512 52.9162C57.0414 52.6041 57.149 52.2491 57.1642 51.8843C57.1642 50.8523 57.429 49.8204 57.5735 48.7885C57.9397 47.0129 58.029 45.1916 57.8384 43.3889Z" fill="#E8442F"/>
<path d="M52.4207 53.7802C52.0836 53.1322 51.7706 52.4603 51.4335 51.7883C50.9962 51.0572 50.5052 50.3594 49.9646 49.7005C49.0737 48.4046 48.1827 47.1327 47.1714 45.9328C44.9862 43.3621 42.4958 41.0655 39.755 39.0932C34.6742 35.3255 28.4859 31.1978 21.9122 31.3418C21.4306 31.3418 20.6601 32.2297 21.2861 32.6137C22.4419 33.2857 23.6941 33.7896 24.874 34.3656C26.0539 34.9415 27.7153 35.8055 29.2082 36.4294C32.2279 37.8526 35.12 39.5306 37.8527 41.4451C40.493 43.1706 43.0259 45.0539 45.4377 47.0847C46.6176 48.0926 47.8456 49.1485 48.9292 50.1565C50.192 51.2782 51.3375 52.5245 52.3484 53.8762C52.3484 53.8762 52.4448 53.8522 52.4207 53.7802Z" fill="#EB5C31"/>
<path d="M36.8895 32.0617C35.8146 30.8469 34.6026 29.7598 33.2776 28.8219C31.657 27.5118 29.9517 26.3093 28.1728 25.2222C26.4411 24.1296 24.6393 23.1515 22.779 22.2944C21.0133 21.2214 18.9209 20.8128 16.8796 21.1425C16.3498 21.2865 15.6997 22.1984 16.3498 22.6304C17.8689 23.5031 19.4851 24.1957 21.1657 24.6942C22.9957 25.3902 24.8016 26.1821 26.6076 26.9501C28.4135 27.718 30.1472 28.558 31.881 29.3499C33.5867 30.1031 35.2022 31.0449 36.6968 32.1577C36.7691 32.3977 36.9858 32.1817 36.8895 32.0617Z" fill="#E8442F"/>
<path d="M50.6869 54.4282C50.0358 53.3551 49.1563 52.4376 48.1105 51.7404C46.6421 50.7578 45.123 49.8526 43.5595 49.0286C41.8555 48.2196 40.061 47.6154 38.2139 47.2287C36.8379 46.6347 35.2981 46.5329 33.8555 46.9407C33.3258 47.2047 32.8442 48.1166 33.4462 48.5486C34.0481 48.9806 36.0227 49.0766 37.1785 49.3646C38.8399 49.7965 40.5014 50.2285 42.1388 50.7565C43.6375 51.1596 45.0963 51.6978 46.4972 52.3643C47.1544 52.7259 47.8295 53.0543 48.5198 53.3483C49.263 53.6011 49.9741 53.9394 50.6388 54.3562C50.6388 54.3562 50.711 54.4282 50.6869 54.4282Z" fill="#E8442F"/>
<path d="M29.6899 46.4846C27.6673 46.1487 25.6927 45.5727 23.646 45.2607C21.5993 44.9488 19.5044 44.7088 17.4095 44.5168C13.2398 43.9499 8.99994 44.795 5.36981 46.9166C4.71967 47.3486 4.62336 48.7885 5.65877 48.8125C7.55599 48.6765 9.42656 48.2891 11.2211 47.6606C13.1956 47.1359 15.2084 46.7668 17.2409 46.5566C19.3117 46.3647 21.3826 46.3647 23.4534 46.3407C25.5242 46.3167 27.6191 46.5566 29.714 46.6046C29.714 46.5566 29.7381 46.4846 29.6899 46.4846Z" fill="#F18535"/>
<path d="M36.6968 43.6768C35.0594 42.8369 33.5664 41.781 31.8809 41.109C30.1953 40.437 28.4135 39.5251 26.6075 38.9012C24.9626 38.4053 23.2903 38.0047 21.599 37.7012C19.8003 37.1657 17.8836 37.1657 16.0849 37.7012C15.5792 37.8932 15.2662 38.9012 15.9404 39.0931C17.4698 39.478 19.022 39.7665 20.5877 39.9571C22.4177 40.2691 24.2477 40.605 26.0537 41.013C29.6174 41.8769 33.133 42.8849 36.6727 43.7248C36.6968 43.7488 36.7208 43.7008 36.6968 43.6768Z" fill="#E8442F"/>
<path d="M40.9348 52.7963C39.7549 52.6043 38.5268 52.2204 37.4433 52.0284C35.9022 51.7884 34.3852 51.4044 32.82 51.1644C29.892 50.6697 26.9286 50.4129 23.9589 50.3965C18.5892 50.3965 10.7875 50.6605 7.34412 55.5561C6.86253 56.2761 6.9107 57.284 7.89795 57.428C10.4504 57.86 13.2436 56.2761 15.6274 55.6041C18.3895 54.8648 21.1966 54.3037 24.0311 53.9242C26.8725 53.5163 29.762 53.1563 32.6274 52.8923C34.1685 52.7483 35.7577 52.6763 37.2988 52.6763C38.8399 52.6763 39.7067 52.8683 40.9107 52.8683C40.9588 52.8683 40.9829 52.7963 40.9348 52.7963Z" fill="#FAB839"/>
<path d="M40.2846 55.436C38.2037 54.8083 36.0188 54.5963 33.8555 54.812C31.0208 54.9638 28.3179 56.0532 26.1742 57.9078C25.4999 58.5557 25.4759 59.9237 26.7039 59.7797C28.9929 59.2406 31.2322 58.5101 33.3979 57.5958C35.5964 56.7169 37.8688 56.0343 40.1883 55.556C40.1883 55.556 40.3328 55.46 40.2846 55.436Z" fill="#E8442F"/>
<path d="M36.0709 60.1156C32.8399 61.3112 29.6732 62.6729 26.5837 64.1953C23.2433 65.9734 20.1374 68.158 17.3372 70.6989C14.617 73.1547 12.3012 76.0215 10.4746 79.1943C9.61367 80.7251 8.89626 82.3318 8.33152 83.9939C7.62826 85.66 7.41127 87.49 7.70547 89.2736C7.78531 89.4861 7.91697 89.6756 8.0886 89.8248C8.26023 89.974 8.46642 90.0783 8.68858 90.1283C8.91074 90.1783 9.14191 90.1724 9.36122 90.1112C9.58053 90.05 9.7811 89.9353 9.94485 89.7775C11.0845 88.6384 11.9562 87.2614 12.4973 85.7458C13.0992 84.3059 13.6771 82.842 14.3514 81.4501C15.854 78.5456 17.6882 75.8238 19.8174 73.3387C24.4106 67.9879 29.9224 63.4943 36.095 60.0676C36.095 60.0676 36.1191 60.0916 36.0709 60.1156Z" fill="#EB5C31"/>
<path d="M49.796 61.1716C44.7184 64.8084 40.2419 69.2132 36.5283 74.2267C34.5966 77.0243 32.9815 80.0264 31.7124 83.1781C30.2688 86.0735 29.5735 89.2823 29.6898 92.5134C29.7101 92.6768 29.781 92.8299 29.8926 92.9512C30.0043 93.0726 30.1511 93.1563 30.3127 93.1906C30.4743 93.2249 30.6426 93.2082 30.7942 93.1427C30.9458 93.0773 31.0732 92.9663 31.1586 92.8254C32.7956 90.3703 34.1296 87.7274 35.1317 84.9539C36.3573 81.9912 37.7315 79.0918 39.2492 76.2666C40.6217 73.6267 42.2832 71.2269 43.8243 68.8271C45.5079 66.0677 47.5301 63.5283 49.8441 61.2676C49.8441 61.2676 49.8682 61.1476 49.796 61.1716Z" fill="#E8442F"/>
<path d="M35.6374 69.043C32.3592 71.1088 29.3155 73.5227 26.5595 76.2425C23.6038 79.2216 21.4647 82.907 20.3471 86.9458C19.9377 88.6977 22.2012 88.7696 22.755 87.4737C24.5128 84.138 26.1983 80.8742 28.2451 77.7064C30.3459 74.5155 32.8917 71.6389 35.806 69.163C35.806 69.163 35.806 68.9951 35.6374 69.043Z" fill="#F18535"/>
<path d="M27.4744 86.0099C26.151 87.815 25.0363 89.7632 24.1515 91.8175C23.3189 94.2354 22.8878 96.7726 22.8752 99.329C22.8752 100.505 24.4163 100.073 24.633 99.209C25.7166 94.8173 26.2945 90.3776 27.5467 86.0339C27.5707 85.9859 27.4985 85.9859 27.4744 86.0099Z" fill="#E8442F"/>
<path d="M47.8457 58.8918C41.4165 60.1398 33.0851 61.5317 29.7621 67.9872C29.6715 68.1283 29.6297 68.295 29.6431 68.462C29.6564 68.629 29.7241 68.787 29.8359 68.9121C29.9478 69.0371 30.0975 69.1223 30.2625 69.1546C30.4274 69.1869 30.5983 69.1646 30.7494 69.0911C32.1875 68.3973 33.5176 67.5001 34.6984 66.4273C35.9264 65.3954 37.2749 64.3875 38.5992 63.4515C41.4866 61.6047 44.5924 60.1215 47.8457 59.0358C47.8457 59.0358 47.9902 58.8918 47.8457 58.8918Z" fill="#FAB839"/>
<path d="M20.8526 64.2434C17.2831 64.8874 13.873 66.2159 10.8115 68.1551C9.19667 69.2767 7.725 70.5903 6.42908 72.0669C5.0753 73.3088 4.27014 75.0345 4.1897 76.8665C4.18931 77.0268 4.23131 77.1843 4.31146 77.3232C4.39162 77.4622 4.50709 77.5776 4.64626 77.6579C4.78542 77.7382 4.94335 77.7805 5.10416 77.7806C5.26496 77.7807 5.42296 77.7386 5.56222 77.6585C6.93108 76.9619 8.09949 75.9296 8.9574 74.6587C10.0632 73.3054 11.2535 72.023 12.5211 70.8189C14.972 68.2653 17.7777 66.0751 20.8526 64.3154C20.8526 64.3154 20.8767 64.2434 20.8526 64.2434Z" fill="#E8442F"/>
<path d="M54.4435 64.0273C54.4435 64.0273 54.2749 64.0273 54.2267 64.0273C51.7728 68.9344 50.4172 74.3139 50.2537 79.7942C50.2537 81.3061 52.2041 80.7302 52.5171 79.6262C53.8602 74.5366 54.5082 69.2897 54.4435 64.0273Z" fill="#FAB839"/>
<path d="M57.3087 59.7078H57.1883C56.8753 61.8196 56.4418 63.8595 56.2492 65.9953C56.0566 68.1312 55.7195 70.627 55.5991 72.9548C55.037 77.7357 54.9886 82.5627 55.4546 87.3538C55.6231 88.2897 56.8753 87.6418 57.0197 87.0418C57.5125 84.7454 57.7787 82.4064 57.8144 80.0583C57.9588 77.6585 58.1033 75.4027 58.1033 73.0508C58.1082 68.5912 57.8428 64.1355 57.3087 59.7078Z" fill="#E8442F"/>
<path d="M49.5553 70.2431C47.8697 73.5069 45.8952 76.5067 44.5227 79.8424C43.8686 81.51 43.3217 83.2173 42.8853 84.9541C42.449 86.7041 42.2386 88.5025 42.2592 90.3057C42.2592 91.5296 43.8725 91.3136 44.2578 90.3057C45.4913 87.0412 46.4733 83.6877 47.1955 80.2744C47.6771 78.5225 47.8938 76.6987 48.3031 74.8988C48.7125 73.0989 49.2181 71.683 49.6034 70.0991C49.6275 70.2191 49.5553 70.2191 49.5553 70.2431Z" fill="#F18535"/>
<path d="M37.1061 86.8978C36.7931 87.4737 36.4801 88.0497 36.2152 88.6497C34.8908 91.3375 33.109 95.1292 34.1444 98.249C34.4093 99.0889 35.4447 99.0169 35.9503 98.393C37.9971 95.8011 38.2138 92.0094 39.1047 88.9136C39.5622 87.3777 39.9475 85.7939 40.3809 84.114C40.6217 83.298 41.1033 82.3141 41.32 81.3782C39.9957 83.226 38.5027 85.0259 37.1061 86.8978Z" fill="#FAB839"/>
<path d="M51.6262 93.3535C51.6262 90.9537 51.4576 88.5538 51.3613 86.346C51.3613 86.202 51.1687 86.346 51.1205 86.346C49.748 91.1456 48.1106 96.0893 48.9052 101.057C49.1219 102.377 50.8797 101.441 51.0965 100.601C51.5953 98.2193 51.7735 95.782 51.6262 93.3535Z" fill="#E8442F"/>
<path d="M54.2025 59.3479C52.7577 60.7638 51.0963 61.7477 49.7719 63.3076C48.4422 64.773 47.448 66.509 46.8583 68.3953C46.6656 69.0912 47.6048 69.3552 47.9659 68.8032C48.9532 67.3633 49.7237 65.7794 50.6388 64.2915C51.5538 62.8037 53.1911 61.1238 54.2988 59.4919L54.2025 59.3479Z" fill="#FAB839"/>
<path d="M19.2876 59.5637C17.0008 59.7776 14.7556 60.3108 12.6177 61.1476C9.9498 61.9382 7.57252 63.4899 5.77914 65.6113C5.24939 66.2832 5.51426 67.3872 6.52559 67.2432C8.87505 66.6189 11.0284 65.4138 12.7862 63.7394C14.7577 62.1049 16.9454 60.7483 19.2876 59.7077C19.2876 59.7077 19.3599 59.5637 19.2876 59.5637Z" fill="#FAB839"/>
<path d="M68.3131 78.5943C67.5907 76.0745 66.8201 73.5786 65.9051 71.1308C65.049 68.6738 63.9774 66.2968 62.7026 64.0273C62.0813 62.987 61.3638 62.0068 60.5595 61.0995C60.2224 60.6916 59.9335 60.2356 59.5964 59.8276C59.2593 59.4197 58.7295 59.1557 58.5369 58.6997C58.5978 58.9578 58.7219 59.1969 58.898 59.3957C59.2365 59.9503 59.5189 60.5372 59.7408 61.1475C60.1983 62.2755 60.5354 63.5474 60.8966 64.6033C61.7153 67.1471 62.7507 69.6189 63.5694 72.1627C64.3881 74.7066 65.0383 76.9624 65.7847 79.2182C66.5312 81.4741 67.1091 84.0179 68.0482 86.4177C68.3612 87.1377 69.2762 86.6337 69.3003 86.0098C69.34 83.5029 69.0074 81.0041 68.3131 78.5943Z" fill="#F18535"/>
<path d="M79.1486 90.8094C78.2971 88.5199 77.3245 86.2769 76.235 84.0899C75.2478 82.0741 74.2124 80.0102 73.0566 78.0903C72.4482 77.1128 71.7892 76.1676 71.082 75.2585C71.8285 77.6584 72.2138 80.3462 72.888 82.818C73.1288 83.61 73.3455 84.4019 73.6104 85.2178C74.3327 87.4497 75.1514 89.6335 76.0183 91.8414C76.5458 93.9249 77.4695 95.8883 78.7393 97.625C78.8311 97.7224 78.9491 97.7914 79.0792 97.8238C79.2094 97.8562 79.3461 97.8505 79.4731 97.8075C79.6001 97.7644 79.7119 97.6859 79.7953 97.5812C79.8787 97.4764 79.9301 97.35 79.9432 97.217C80.2707 95.0489 79.9959 92.8328 79.1486 90.8094Z" fill="#E8442F"/>
<path d="M63.4732 111.256C64.027 112.024 64.7975 112.6 65.5922 111.616C65.8366 111.321 66.0466 110.999 66.2182 110.656C66.5655 108.272 66.6382 105.857 66.4349 103.457C66.3834 99.1602 66.0536 94.8716 65.4477 90.6176C64.6027 86.6081 63.4269 82.675 61.9321 78.8584C62.2698 80.9538 62.3184 83.0854 62.0766 85.1939C62.0766 87.4018 62.0766 89.6096 62.0766 91.8175C62.0362 95.9436 62.2131 100.069 62.6063 104.177C62.7749 105.856 62.8953 107.56 63.0157 109.24C63.063 109.932 63.2173 110.612 63.4732 111.256Z" fill="#FAB839"/>
<path d="M83.9647 86.9217C83.3758 83.958 82.1789 81.1474 80.4491 78.6663C78.7876 76.2665 77.078 73.8666 75.3202 71.5868C73.4564 69.1579 71.3859 66.8937 69.1318 64.8193C66.9929 62.6875 64.4574 60.992 61.6672 59.8276C63.9398 61.7146 65.9054 63.9408 67.4944 66.4272C69.4208 68.827 71.1545 71.4908 73.0086 74.0106C74.5737 76.1225 76.0666 78.2343 77.5596 80.3942C79.0525 82.554 80.6899 85.4578 82.3754 87.8816C83.0256 88.5776 83.9647 87.6897 83.9647 86.9217Z" fill="#E8442F"/>
<path d="M95.4504 92.8254C94.7948 89.9508 93.7241 87.1862 92.2719 84.618C90.0784 80.8508 87.4256 77.3686 84.3739 74.2508C81.4763 71.4644 78.1821 69.1193 74.5977 67.2913C74.5977 67.2913 74.4773 67.2913 74.5977 67.4113C75.4164 68.2992 76.4037 68.9951 77.1983 69.8111C81.7697 75.0704 85.9087 80.6882 89.575 86.6099C90.9785 89.051 92.6503 91.3289 94.5594 93.4014C94.9206 94.0494 95.5708 93.2814 95.4504 92.8254Z" fill="#FAB839"/>
<path d="M108.887 56.8281C105.996 54.4463 102.523 52.8727 98.8216 52.2684C91.2658 50.4431 83.4147 50.1817 75.7536 51.5004C72.0141 52.0965 68.3807 53.2281 64.9661 54.8602C72.1425 52.7756 79.7187 52.4545 87.0468 53.9243C90.5383 54.4522 94.0057 55.1242 97.4491 55.8921C100.936 56.9067 104.483 57.7081 108.068 58.292C108.863 58.5079 109.513 57.38 108.887 56.8281Z" fill="#E8442F"/>
<path d="M113.173 69.259C113.004 67.0272 110.933 65.9713 109.2 64.9873C106.955 63.7346 104.612 62.6671 102.193 61.7956C99.9316 60.9536 97.6243 60.2405 95.2819 59.6597C92.874 59.0838 90.466 58.4598 88.0581 58.0278C92.4594 59.5286 96.728 61.3908 100.82 63.5954C102.738 64.5541 104.595 65.628 106.382 66.8112C106.96 67.2432 113.414 72.4268 113.173 69.259Z" fill="#E8442F"/>
<path d="M99.2791 68.4671C94.7273 64.2234 89.2688 61.0643 83.3145 59.2278C80.4482 58.2946 77.5193 57.5649 74.5496 57.0439C73.0596 56.7393 71.5437 56.5786 70.0227 56.5639C69.0436 56.453 68.0521 56.5428 67.1091 56.8279C68.4162 56.8007 69.7138 57.0545 70.9137 57.5719C72.2621 58.0038 73.5865 58.4118 74.9108 58.9398C77.5596 60.0197 80.2805 60.9316 82.9052 62.1075C88.2267 64.5074 93.4519 66.9072 98.7975 69.307C99.2069 69.499 99.6162 68.8271 99.2791 68.4671Z" fill="#FAB839"/>
<path d="M99.0864 78.2585C97.5606 75.5415 95.343 73.2735 92.6573 71.683C90.3088 69.9127 87.8386 68.3089 85.2649 66.8833C79.9895 63.6094 74.1657 61.3088 68.0723 60.0918C70.6603 61.3256 73.1766 62.7037 75.6091 64.2195C78.2578 65.6354 80.8102 67.1953 83.4349 68.6832C85.9521 70.1134 88.3659 71.7172 90.6587 73.4828C91.9108 74.4188 93.187 75.3307 94.3669 76.3626C95.4621 77.5198 96.77 78.4567 98.2196 79.1224C98.653 79.3864 99.3032 78.7625 99.0864 78.2585Z" fill="#EB5C31"/>
<path d="M112.161 88.6497C111.961 87.2438 111.486 85.8905 110.765 84.666C109.461 82.0446 107.791 79.6207 105.804 77.4665C103.084 74.1912 99.4189 71.8286 95.3059 70.699C95.3059 70.699 95.3059 70.699 95.3059 70.819C97.3687 72.5037 99.1772 74.4758 100.676 76.6746C103.084 79.3864 105.491 81.9782 107.49 84.834C108.236 85.8659 110.259 89.3936 111.728 89.2017C111.993 89.1777 112.137 88.9617 112.161 88.6497Z" fill="#FAB839"/>
<path d="M100.555 88.7696C99.2718 86.9994 97.8721 85.3159 96.3654 83.73C94.8631 82.217 93.2536 80.8135 91.5496 79.5303C92.8928 80.9985 94.1471 82.5452 95.306 84.1619C96.4406 85.9941 97.4774 87.8846 98.4122 89.8255C100.411 93.4973 102.193 97.313 104.432 100.841C104.914 101.609 106.069 100.841 105.997 100.097C105.636 95.9211 102.963 92.0814 100.555 88.7696Z" fill="#E8442F"/>
<path d="M56.9235 100.025C56.7751 99.0133 56.566 98.0116 56.2974 97.025C56.0807 96.2331 56.0567 95.3932 55.8159 94.6252C55.8159 94.3852 55.4306 94.6252 55.4306 94.6252C55.3424 95.501 55.1813 96.3679 54.949 97.217C54.7564 98.249 54.7082 99.3289 54.5397 100.385C54.1301 102.244 54.2468 104.18 54.8768 105.976C55.2139 106.744 56.3938 106.192 56.6105 105.64C57.2017 103.827 57.3096 101.892 56.9235 100.025Z" fill="#F18535"/>
<path d="M118.374 54.1403C118.061 51.1645 114.305 50.0366 111.848 49.3406C110.225 48.9684 108.574 48.7276 106.912 48.6207C105.393 48.4409 103.857 48.4409 102.337 48.6207C102.337 48.6207 102.193 48.7887 102.337 48.8127C104.988 49.7454 107.57 50.86 110.067 52.1484C111.295 52.7004 112.475 53.2523 113.679 53.9243C114.712 54.7369 115.975 55.2068 117.29 55.2682C117.582 55.2558 117.858 55.1315 118.06 54.9213C118.262 54.7111 118.374 54.4313 118.374 54.1403Z" fill="#EB5C31"/>
<path d="M88.7805 38.0612C87.7055 37.8689 86.6047 37.8689 85.5297 38.0612C83.7997 38.5837 82.1712 39.3952 80.7139 40.4611C83.3385 39.7891 86.1077 40.1011 88.6842 39.2852C89.238 39.0452 89.551 38.2052 88.7805 38.0612Z" fill="#E8442F"/>
</g>
<defs>
<clipPath id="clip0_1209_942">
<rect width="119" height="110.675" fill="white"/>
</clipPath>
</defs>
</svg>
