<svg width="21" height="21" viewBox="0 0 21 21" fill="none" xmlns="http://www.w3.org/2000/svg">
<path d="M10.4998 0C4.69952 0 0 4.69952 0 10.4998C0 16.3001 4.69952 20.9997 10.4998 20.9997C16.3001 20.9997 20.9997 16.3001 20.9997 10.4998C20.9997 4.69952 16.3001 0 10.4998 0ZM16.5965 11.6853C16.5965 11.9647 16.3679 12.1934 16.0885 12.1934H12.1934V16.0885C12.1934 16.3679 11.9647 16.5965 11.6853 16.5965H9.31437C9.03494 16.5965 8.80631 16.3679 8.80631 16.0885V12.1934H4.91121C4.63178 12.1934 4.40316 11.9647 4.40316 11.6853V9.31437C4.40316 9.03494 4.63178 8.80631 4.91121 8.80631H8.80631V4.91121C8.80631 4.63178 9.03494 4.40316 9.31437 4.40316H11.6853C11.9647 4.40316 12.1934 4.63178 12.1934 4.91121V8.80631H16.0885C16.3679 8.80631 16.5965 9.03494 16.5965 9.31437V11.6853Z" fill="#716767"/>
</svg>
