<svg width="161" height="166" viewBox="0 0 161 166" fill="none" xmlns="http://www.w3.org/2000/svg">
<path d="M45.7377 3.89283C35.388 8.35903 27.5618 15.843 20.3267 24.4643C13.9082 32.1796 8.5424 40.713 4.37006 49.8408C0.149292 58.9737 -2.229 70.0839 4.00018 78.878C7.85798 84.3363 13.5755 86.8079 18.8956 90.441C19.8773 91.1116 21.2566 91.7961 21.2462 93.1304C21.2289 95.1595 17.5129 97.3201 16.2338 98.4781C13.0847 101.333 10.0358 104.32 7.41205 107.677C3.57153 112.592 0.640161 118.393 0.093985 124.615C-0.504043 131.383 1.79818 138.214 5.68018 143.787C11.3321 151.9 20.2852 158.222 29.6463 161.278C34.6517 162.913 39.9614 163.4 45.2019 163.235C50.5203 163.056 55.8072 162.341 60.9822 161.102C68.9778 159.204 77.3088 156.172 85.6086 157.991C94.5064 159.926 103.197 162.218 112.226 163.58C123.81 165.333 140.427 167.566 149.905 159.045C156.705 152.919 159.885 143.033 160.735 134.18C161.24 128.933 161.14 123.021 159.391 117.985C157.019 111.165 152.698 104.887 149.3 98.5507C147.199 94.6376 145.346 90.4825 144.599 86.0751C143.78 81.2148 145.239 78.0553 147.606 73.8691C156.069 58.9218 162.982 37.3962 154.002 21.2253C151.181 16.1472 145.705 13.7793 140.001 13.5892C134.989 13.4198 130.056 14.8302 125.352 16.5759C116.512 19.8598 102.537 28.2357 93.2032 22.6391C87.8175 19.4139 85.7607 12.7215 81.972 8.02026C77.8964 2.9664 71.6016 0.415279 65.2272 0.0488571C58.6766 -0.307194 51.7145 1.31405 45.7377 3.89283Z" fill="#F36430"/>
<path opacity="0.7" d="M45.7377 3.89283C35.388 8.35903 27.5618 15.843 20.3267 24.4643C13.9082 32.1796 8.5424 40.713 4.37006 49.8408C0.149292 58.9737 -2.229 70.0839 4.00018 78.878C7.85798 84.3363 13.5755 86.8079 18.8956 90.441C19.8773 91.1116 21.2566 91.7961 21.2462 93.1304C21.2289 95.1595 17.5129 97.3201 16.2338 98.4781C13.0847 101.333 10.0358 104.32 7.41205 107.677C3.57153 112.592 0.640161 118.393 0.093985 124.615C-0.504043 131.383 1.79818 138.214 5.68018 143.787C11.3321 151.9 20.2852 158.222 29.6463 161.278C34.6517 162.913 39.9614 163.4 45.2019 163.235C50.5203 163.056 55.8072 162.341 60.9822 161.102C68.9778 159.204 77.3088 156.172 85.6086 157.991C94.5064 159.926 103.197 162.218 112.226 163.58C123.81 165.333 140.427 167.566 149.905 159.045C156.705 152.919 159.885 143.033 160.735 134.18C161.24 128.933 161.14 123.021 159.391 117.985C157.019 111.165 152.698 104.887 149.3 98.5507C147.199 94.6376 145.346 90.4825 144.599 86.0751C143.78 81.2148 145.239 78.0553 147.606 73.8691C156.069 58.9218 162.982 37.3962 154.002 21.2253C151.181 16.1472 145.705 13.7793 140.001 13.5892C134.989 13.4198 130.056 14.8302 125.352 16.5759C116.512 19.8598 102.537 28.2357 93.2032 22.6391C87.8175 19.4139 85.7607 12.7215 81.972 8.02026C77.8964 2.9664 71.6016 0.415279 65.2272 0.0488571C58.6766 -0.307194 51.7145 1.31405 45.7377 3.89283Z" fill="white"/>
</svg>
