<svg width="276" height="50" viewBox="0 0 276 50" fill="none" xmlns="http://www.w3.org/2000/svg">
<path fill-rule="evenodd" clip-rule="evenodd" d="M2.3999 26.713C2.3999 21.082 3.0139 21.475 6.3189 18.41C7.7649 17.246 10.0149 15 11.9579 15C13.8999 15 16.1949 17.235 17.6539 18.41C20.9589 21.475 21.5719 21.082 21.5719 26.713C21.5719 35 19.6129 35 11.9859 35C4.3589 35 2.3999 35 2.3999 26.713Z" fill="#F56737"/>
<path d="M9.07861 29.1357H14.8936" stroke="white" stroke-width="1.5" stroke-linecap="round" stroke-linejoin="round"/>
<circle cx="12" cy="42" r="2" fill="#F56737"/>
<path d="M259.306 27.5743H268.899" stroke="#C6CEDD" stroke-width="1.5" stroke-linecap="round" stroke-linejoin="round"/>
<path fill-rule="evenodd" clip-rule="evenodd" d="M254.5 20.7984C254.5 18.3565 255.75 16.2593 258.122 15.7727C260.493 15.285 262.295 15.4536 263.792 16.2612C265.29 17.0688 264.861 18.2612 266.4 19.1365C267.94 20.0127 270.417 18.6965 272.035 20.4422C273.729 22.2698 273.72 25.0755 273.72 26.8641C273.72 33.6603 269.913 34.1993 264.11 34.1993C258.307 34.1993 254.5 33.7288 254.5 26.8641V20.7984Z" stroke="#C6CEDD" stroke-width="1.5" stroke-linecap="round" stroke-linejoin="round"/>
<path d="M203.917 27.8542L206.91 23.9652L210.324 26.6452L213.253 22.8652" stroke="#C6CEDD" stroke-width="1.5" stroke-linecap="round" stroke-linejoin="round"/>
<path fill-rule="evenodd" clip-rule="evenodd" d="M216.667 15.3501C217.729 15.3501 218.589 16.2101 218.589 17.2721C218.589 18.3331 217.729 19.1941 216.667 19.1941C215.605 19.1941 214.745 18.3331 214.745 17.2721C214.745 16.2101 215.605 15.3501 216.667 15.3501Z" stroke="#C6CEDD" stroke-width="1.5" stroke-linecap="round" stroke-linejoin="round"/>
<path d="M217.755 22.2692C217.888 23.1642 217.949 24.1722 217.949 25.3032C217.949 32.2412 215.637 34.5532 208.699 34.5532C201.762 34.5532 199.449 32.2412 199.449 25.3032C199.449 18.3662 201.762 16.0532 208.699 16.0532C209.809 16.0532 210.8 16.1122 211.682 16.2402" stroke="#C6CEDD" stroke-width="1.5" stroke-linecap="round" stroke-linejoin="round"/>
<circle cx="138" cy="25" r="25" fill="#F56737"/>
<path d="M143.128 20.236C143.286 20.406 143.37 20.6318 143.362 20.8637C143.353 21.0956 143.253 21.3147 143.083 21.4726L139.236 25.0458L142.81 28.8922C142.968 29.0622 143.052 29.288 143.043 29.5199C143.034 29.7518 142.934 29.9708 142.764 30.1288C142.594 30.2867 142.368 30.3707 142.136 30.3621C141.904 30.3536 141.685 30.2533 141.527 30.0832L137.954 26.2368L134.108 29.81C133.938 29.9679 133.712 30.0518 133.48 30.0433C133.248 30.0348 133.029 29.9344 132.871 29.7644C132.713 29.5944 132.629 29.3686 132.638 29.1367C132.647 28.9048 132.747 28.6858 132.917 28.5278L136.763 24.9547L133.19 21.1082C133.032 20.9382 132.948 20.7124 132.957 20.4805C132.965 20.2486 133.066 20.0296 133.236 19.8716C133.406 19.7137 133.632 19.6298 133.863 19.6383C134.095 19.6468 134.314 19.7472 134.472 19.9172L138.045 23.7636L141.892 20.1905C142.062 20.0325 142.288 19.9486 142.52 19.9571C142.752 19.9657 142.971 20.066 143.128 20.236Z" fill="white"/>
<path fill-rule="evenodd" clip-rule="evenodd" d="M58.6101 25C58.6101 31.937 60.7081 34.25 67.0011 34.25C73.2951 34.25 75.3921 31.937 75.3921 25C75.3921 18.063 73.2951 15.75 67.0011 15.75C60.7081 15.75 58.6101 18.063 58.6101 25Z" stroke="#C6CEDD" stroke-linecap="round" stroke-linejoin="round"/>
<path d="M70.596 28.6963H63.376" stroke="#C6CEDD" stroke-width="1.5" stroke-linecap="round" stroke-linejoin="round"/>
<path d="M70.596 24.9365H63.376" stroke="#C6CEDD" stroke-width="1.5" stroke-linecap="round" stroke-linejoin="round"/>
<path d="M66.1312 21.1772H63.3762" stroke="#C6CEDD" stroke-width="1.5" stroke-linecap="round" stroke-linejoin="round"/>
</svg>
