<svg width="17" height="16" viewBox="0 0 17 16" fill="none" xmlns="http://www.w3.org/2000/svg">
<path d="M11.5112 0.33609L3.85824 2.87859C-1.28608 4.59901 -1.28608 7.40424 3.85824 9.11619L6.12954 9.87046L6.88382 12.1418C8.59576 17.2861 11.4095 17.2861 13.1214 12.1418L15.6724 4.49731C16.808 1.06494 14.9435 -0.808035 11.5112 0.33609ZM11.7824 4.89564L8.56186 8.13309C8.43474 8.26021 8.27372 8.31954 8.11269 8.31954C7.95166 8.31954 7.79064 8.26021 7.66352 8.13309C7.54531 8.01347 7.47901 7.85208 7.47901 7.68391C7.47901 7.51574 7.54531 7.35435 7.66352 7.23474L10.884 3.99729C11.1298 3.75151 11.5366 3.75151 11.7824 3.99729C12.0281 4.24306 12.0281 4.64986 11.7824 4.89564Z" fill="#676767"/>
</svg>
