<svg width="216" height="290" viewBox="0 0 216 290" fill="none" xmlns="http://www.w3.org/2000/svg">
<g clip-path="url(#clip0_1169_951)">
<path d="M184.396 8.5399C184.103 9.91055 183.841 11.3271 183.122 12.4735C181.898 13.9546 180.737 15.4832 179.642 17.0593C180.406 17.0058 181.158 16.9702 181.935 16.9702C189.491 16.9702 196.523 19.6325 201.735 24.4655C206.395 28.7838 208.958 34.3199 208.958 40.0522C208.958 45.7844 206.395 51.3205 201.735 55.6414C196.523 60.482 189.491 63.1342 181.935 63.1342C174.378 63.1342 167.38 60.4871 162.175 55.6771C161.795 56.8006 161.411 57.9165 161.039 59.0375C158.491 60.3292 156.708 63.3685 156.708 66.9175C156.708 71.6358 159.875 75.4624 163.78 75.4624C166.853 75.4624 169.461 73.0905 170.437 69.7861C174.147 71.0199 178.032 71.6471 181.943 71.6434C200.757 71.6434 216.013 57.4987 216.013 40.0522C216.002 23.3623 202.062 9.71183 184.396 8.5399Z" fill="#E0973F"/>
<path d="M31.6065 8.5399C31.8969 9.91055 32.1619 11.3271 32.8803 12.4735C34.1032 13.9546 35.2633 15.4832 36.3605 17.0593C35.5962 17.0058 34.8319 16.9702 34.0676 16.9702C26.5111 16.9702 19.477 19.6325 14.267 24.4655C9.60728 28.7838 7.04176 34.3199 7.04176 40.0522C7.04176 45.7844 9.60982 51.3078 14.2593 55.6287C19.4693 60.4693 26.5035 63.1214 34.0599 63.1214C41.6163 63.1214 48.6123 60.4744 53.8197 55.6644C54.1993 56.7879 54.584 57.9038 54.9534 59.0247C57.5011 60.3164 59.2845 63.3558 59.2845 66.9047C59.2845 71.623 56.1177 75.4496 52.2096 75.4496C49.1371 75.4496 46.5308 73.0777 45.555 69.7734C41.8448 71.0072 37.9598 71.6343 34.0497 71.6307C15.2351 71.6307 -0.0204047 57.4859 -0.0204047 40.0394C-0.00766625 23.3623 13.9409 9.71183 31.6065 8.5399Z" fill="#E0973F"/>
<path d="M189.298 4.94257V13.6658C189.298 53.081 157.337 85.0416 117.922 85.0416C99.7671 84.7869 87.3115 86.6773 70.0739 79.0469C45.2365 68.1556 27.3569 43.1985 27.3569 13.6658V4.94257H189.298Z" fill="#F7CC7F"/>
<path d="M70.0739 79.052L70.1274 79.0749L95.7851 4.93744H69.0752L48.5103 64.3646C54.7366 70.5414 62.0461 75.52 70.0739 79.052Z" fill="#FAE0B2"/>
<path d="M86.7664 84.048L113.841 4.94257H100.422L74.456 80.8354C78.4443 82.3069 82.5676 83.383 86.7664 84.048Z" fill="#FAE0B2"/>
<path d="M45.9091 61.6539L66.1555 4.94257H59.7863L41.4685 56.2529C42.8612 58.128 44.3414 59.9283 45.9091 61.6539Z" fill="#FAE0B2"/>
<path d="M182.228 0H34.8344C29.4562 0 25.0691 2.99352 24.7609 6.76409H192.301C191.991 2.99352 187.606 0 182.228 0Z" fill="#F7CC7F"/>
<path d="M80.9602 82.9526L89.3013 125.764H125.766L136.1 82.9526H80.9602Z" fill="#F7CC7F"/>
<path d="M136.102 82.9575L133.771 92.6158H82.848L80.9627 82.9575H136.102Z" fill="#B75742"/>
<path d="M136.102 178.725H80.9627L85.0951 157.477L89.2962 135.914H125.771L130.976 157.477L136.102 178.725Z" fill="#F7CC7F"/>
<path d="M136.102 178.725H80.9627L85.0951 157.477H130.976L136.102 178.725Z" fill="#B75742"/>
<path d="M82.9041 125.764H132.166C133.209 125.764 134.21 126.178 134.948 126.916C135.685 127.654 136.1 128.654 136.1 129.697V131.97C136.1 133.014 135.685 134.015 134.947 134.753C134.209 135.491 133.207 135.906 132.163 135.906H82.9041C81.8619 135.903 80.8633 135.488 80.1274 134.75C79.3914 134.012 78.9781 133.012 78.9781 131.97V129.69C78.9801 128.649 79.3944 127.652 80.1302 126.916C80.8661 126.18 81.8635 125.766 82.9041 125.764Z" fill="#FAE0B2"/>
<path d="M77.3196 161.849H137.883C138.491 161.849 139.074 162.091 139.504 162.521C139.934 162.951 140.176 163.534 140.176 164.142V175.841H75.0368V164.129C75.0402 163.525 75.2818 162.947 75.7093 162.52C76.1367 162.093 76.7154 161.852 77.3196 161.849Z" fill="#F7CC7F"/>
<path d="M161.689 184.184V188.439H53.514V184.184C53.514 179.285 56.5049 175.306 60.1889 175.306H155.014C158.698 175.306 161.689 179.285 161.689 184.184Z" fill="#F7CC7F"/>
<path d="M78.9805 175.308L75.559 188.439H71.0445L74.466 175.308H78.9805Z" fill="#FAE0B2"/>
<path d="M72.5172 175.308L69.0957 188.439H64.5761L68.0027 175.308H72.5172Z" fill="#FAE0B2"/>
<path d="M84.7282 175.308L81.3067 188.439H76.7845L80.2137 175.308H84.7282Z" fill="#FAE0B2"/>
<path d="M201.967 285.595V289.847H20.6973V285.595C20.6973 280.693 25.7086 276.716 31.8841 276.716H190.778C196.953 276.716 201.967 280.693 201.967 285.595Z" fill="#F7CC7F"/>
<path d="M63.3735 276.716L57.6387 289.847H50.0746L55.8094 276.716H63.3735Z" fill="#FAE0B2"/>
<path d="M52.5433 276.716L46.8085 289.847H39.2342L44.9767 276.716H52.5433Z" fill="#FAE0B2"/>
<path d="M73.0038 276.716L67.269 289.847H59.6947L65.4397 276.716H73.0038Z" fill="#FAE0B2"/>
<path d="M154.708 74.8636V78.0736C154.708 79.3941 154.449 80.7017 153.944 81.9218C153.44 83.1419 152.699 84.2507 151.766 85.1847C150.833 86.1187 149.725 86.8597 148.505 87.3654C147.285 87.8711 145.978 88.1316 144.657 88.1319H72.0483C70.7273 88.1322 69.4193 87.8723 68.1988 87.3669C66.9783 86.8616 65.8694 86.1207 64.9353 85.1867C64.0013 84.2526 63.2604 83.1436 62.755 81.9232C62.2497 80.7027 61.9897 79.3946 61.9901 78.0736V74.8636H154.708Z" fill="#F7CC7F"/>
<path d="M176.814 276.716H40.4035L42.0672 188.441H174.985L176.814 276.716Z" fill="#3C8F7C"/>
<path d="M144.374 276.716H72.8433L73.7171 188.441H143.417L144.374 276.716Z" fill="#50BFA5"/>
</g>
<defs>
<clipPath id="clip0_1169_951">
<rect width="215.8" height="289.578" fill="white" transform="scale(1.00093)"/>
</clipPath>
</defs>
</svg>
