<svg width="26" height="28" viewBox="0 0 26 28" fill="none" xmlns="http://www.w3.org/2000/svg">
<path d="M20.636 23.0882H19.6286C18.5682 23.0882 17.5608 23.4991 16.8185 24.2414L14.5518 26.4816C13.5179 27.5022 11.8345 27.5022 10.8006 26.4816L8.53397 24.2414C7.79167 23.4991 6.77102 23.0882 5.72386 23.0882H4.72971C2.52934 23.0882 0.753139 21.3253 0.753139 19.1514V4.68995C0.753139 2.51609 2.52934 0.753139 4.72971 0.753139H20.636C22.8364 0.753139 24.6126 2.51609 24.6126 4.68995V19.1514C24.6126 21.312 22.8364 23.0882 20.636 23.0882Z" stroke="black" stroke-width="1.5" stroke-miterlimit="10" stroke-linecap="round" stroke-linejoin="round"/>
<path d="M13.0539 17.9188C12.8551 17.9851 12.5237 17.9851 12.3117 17.9188C10.5885 17.3223 6.71794 14.8701 6.71794 10.6947C6.71794 8.85221 8.20253 7.36762 10.0318 7.36762C11.1187 7.36762 12.0731 7.88458 12.6828 8.69315C13.2925 7.88458 14.2469 7.36762 15.3338 7.36762C17.1631 7.36762 18.6477 8.85221 18.6477 10.6947C18.6344 14.8701 14.7771 17.3223 13.0539 17.9188Z" stroke="black" stroke-width="1.5" stroke-linecap="round" stroke-linejoin="round"/>
</svg>
