<svg width="104" height="57" viewBox="0 0 104 57" fill="none" xmlns="http://www.w3.org/2000/svg">
<path d="M61.8066 56.4282C61.7004 56.4261 61.5968 56.394 61.5081 56.3354C61.4194 56.2769 61.3491 56.1943 61.3055 56.0974C57.5769 47.5377 47.614 40.9024 36.5285 39.5193C35.1854 39.3489 33.7922 39.2587 32.4491 39.1685C30.0405 39.0609 27.6441 38.7627 25.2826 38.2764C17.0637 36.342 3.68293 25.066 0.0646035 18.3706C-0.00340632 18.2428 -0.0184008 18.0934 0.0228586 17.9546C0.064118 17.8158 0.15832 17.6988 0.285112 17.6289C0.347766 17.5925 0.417216 17.5692 0.489189 17.5606C0.561162 17.552 0.634133 17.5582 0.703612 17.5789C0.773092 17.5996 0.837609 17.6342 0.893193 17.6807C0.948777 17.7272 0.994252 17.7847 1.02682 17.8494C4.50482 24.2842 17.7653 35.3898 25.5332 37.214C27.8458 37.6844 30.1917 37.9726 32.5493 38.0759C33.9125 38.1661 35.3157 38.2664 36.6889 38.4268C47.9147 39.8099 58.058 46.5054 62.0672 55.1653C67.7804 52.7197 71.0178 48.8107 74.1551 45.0119C74.9369 44.0697 75.7487 43.0975 76.5706 42.1553C82.3339 35.6804 90.6029 29.8871 102.41 23.9735C88.3176 11.9458 79.8381 11.7153 73.0024 11.5449C70.1084 11.6359 67.2193 11.2464 64.4527 10.3923C59.3209 8.53799 56.1737 4.09778 53.8684 0.870352C53.7878 0.749291 53.7564 0.602058 53.7806 0.458654C53.8048 0.315249 53.8828 0.186465 53.9987 0.0985726C54.1174 0.0160849 54.2637 -0.0164768 54.4062 0.00789462C54.5487 0.032266 54.6759 0.111625 54.7604 0.228877C57.637 4.2381 60.3733 7.75619 64.7835 9.35988C67.4718 10.1898 70.2811 10.5592 73.0926 10.4524C80.199 10.6228 89.0493 10.8333 103.813 23.6828C103.882 23.7406 103.935 23.8153 103.967 23.8996C103.999 23.9839 104.008 24.075 103.994 24.1639C103.986 24.2545 103.953 24.3413 103.901 24.4153C103.848 24.4893 103.776 24.5478 103.693 24.5849C91.5751 30.5987 83.2359 36.382 77.4526 42.887C76.6307 43.8091 75.8389 44.7713 75.0571 45.7135C71.7495 49.7227 68.3317 53.8523 62.0271 56.3881C61.9562 56.413 61.8818 56.4265 61.8066 56.4282Z" fill="black"/>
<path d="M64.3829 51.0457C64.2971 51.0474 64.2121 51.0282 64.1353 50.9898C64.0585 50.9514 63.9921 50.8949 63.9419 50.8252C63.0983 49.6659 62.1704 48.5705 61.1655 47.5477C61.1143 47.4973 61.0737 47.4373 61.0459 47.371C61.0181 47.3048 61.0038 47.2336 61.0038 47.1618C61.0038 47.09 61.0181 47.0189 61.0459 46.9526C61.0737 46.8864 61.1143 46.8263 61.1655 46.7759C61.2686 46.6749 61.4071 46.6184 61.5514 46.6184C61.6957 46.6184 61.8343 46.6749 61.9373 46.7759C62.9842 47.8374 63.9491 48.9766 64.824 50.1838C64.9064 50.3025 64.939 50.4488 64.9146 50.5913C64.8903 50.7338 64.8109 50.861 64.6937 50.9455C64.6032 51.0107 64.4945 51.0458 64.3829 51.0457ZM58.2889 44.8014C58.1681 44.8009 58.0511 44.7583 57.9582 44.6811C56.8238 43.7931 55.6355 42.9763 54.4 42.2355C54.2805 42.1572 54.1961 42.0355 54.1646 41.8962C54.133 41.7569 54.1568 41.6108 54.2309 41.4886C54.3049 41.3665 54.4235 41.2779 54.5616 41.2414C54.6997 41.205 54.8466 41.2236 54.9713 41.2933C56.2382 42.0644 57.4597 42.9078 58.6297 43.8191C58.6872 43.8632 58.7353 43.9184 58.7711 43.9814C58.8069 44.0444 58.8297 44.114 58.8381 44.1859C58.8465 44.2579 58.8404 44.3308 58.8201 44.4004C58.7998 44.47 58.7657 44.5347 58.7199 44.5909C58.6672 44.6546 58.6015 44.7064 58.5271 44.7427C58.4528 44.779 58.3716 44.799 58.2889 44.8014ZM50.8318 40.2509C50.751 40.2514 50.6715 40.2307 50.6012 40.1908C49.3083 39.5894 47.9552 39.0481 46.592 38.567C46.5078 38.5599 46.4264 38.5335 46.354 38.4898C46.2817 38.4462 46.2203 38.3865 46.1747 38.3153C46.1291 38.2442 46.1004 38.1635 46.0909 38.0795C46.0815 37.9956 46.0914 37.9105 46.12 37.831C46.1487 37.7515 46.1952 37.6797 46.256 37.621C46.3168 37.5623 46.3903 37.5184 46.4708 37.4927C46.5513 37.4669 46.6367 37.46 46.7202 37.4725C46.8038 37.485 46.8834 37.5166 46.9528 37.5647C48.3461 38.0559 49.7292 38.6172 51.0623 39.2286C51.1935 39.2915 51.2945 39.4037 51.3433 39.5407C51.3922 39.6778 51.3848 39.8286 51.3229 39.9602C51.2762 40.0496 51.2055 40.1242 51.1188 40.1756C51.032 40.2269 50.9326 40.253 50.8318 40.2509ZM42.5728 37.3743H42.4425C41.0392 37.0435 39.616 36.7729 38.1927 36.5825C38.0491 36.5639 37.9189 36.489 37.8305 36.3743C37.7422 36.2597 37.703 36.1146 37.7216 35.9711C37.7402 35.8275 37.8151 35.6972 37.9297 35.6089C38.0444 35.5206 38.1895 35.4814 38.333 35.5C39.7964 35.7005 41.2597 35.9711 42.693 36.3119C42.833 36.3453 42.9544 36.4322 43.0312 36.5539C43.108 36.6757 43.1341 36.8226 43.104 36.9634C43.0731 37.0808 43.0042 37.1848 42.9082 37.2591C42.8121 37.3334 42.6942 37.3739 42.5728 37.3743ZM33.9028 36.2116H33.4718C32.1588 36.1515 30.8057 36.0913 29.4626 35.921C29.3915 35.9117 29.323 35.8886 29.2608 35.8529C29.1987 35.8172 29.1442 35.7696 29.1004 35.7128C29.0121 35.5982 28.9729 35.4531 28.9915 35.3095C29.0101 35.166 29.085 35.0357 29.1997 34.9474C29.3143 34.859 29.4594 34.8199 29.6029 34.8385C30.8759 34.9988 32.1989 35.059 33.4919 35.1191H33.9229C34.0673 35.1269 34.2029 35.1912 34.3005 35.298C34.398 35.4049 34.4495 35.5459 34.4441 35.6904C34.4428 35.7602 34.4277 35.829 34.3998 35.893C34.3719 35.9569 34.3317 36.0147 34.2814 36.0631C34.2312 36.1115 34.1719 36.1496 34.1069 36.1751C34.0419 36.2005 33.9726 36.213 33.9028 36.2116ZM25.303 34.8084C25.2332 34.8179 25.1624 34.8179 25.0926 34.8084C23.7235 34.2145 22.4117 33.4966 21.1735 32.6635C21.1059 32.6284 21.0464 32.5794 20.999 32.5198C20.9516 32.4602 20.9173 32.3912 20.8984 32.3174C20.8795 32.2436 20.8764 32.1666 20.8892 32.0916C20.9021 32.0165 20.9307 31.945 20.9731 31.8817C21.0528 31.7623 21.176 31.6788 21.3164 31.6489C21.4568 31.6189 21.6033 31.6449 21.7248 31.7213C22.9072 32.5221 24.1623 33.2101 25.4734 33.776C25.6068 33.8316 25.7131 33.9373 25.7693 34.0704C25.8255 34.2034 25.8273 34.3533 25.7741 34.4877C25.7323 34.579 25.6663 34.6571 25.5832 34.7136C25.5002 34.7701 25.4033 34.8029 25.303 34.8084ZM17.886 30.1878C17.77 30.1863 17.6576 30.1477 17.5652 30.0775C16.3825 29.1855 15.2299 28.2533 14.1173 27.3112C14.0079 27.2162 13.9402 27.082 13.929 26.9376C13.9177 26.7932 13.9638 26.6501 14.0572 26.5394C14.1034 26.484 14.1603 26.4385 14.2244 26.4055C14.2884 26.3724 14.3585 26.3525 14.4304 26.3469C14.5023 26.3413 14.5746 26.3501 14.643 26.3728C14.7115 26.3956 14.7747 26.4317 14.8289 26.4792C15.9215 27.4114 17.0641 28.3235 18.2167 29.1955C18.2747 29.2389 18.3234 29.2933 18.3603 29.3556C18.3972 29.4179 18.4215 29.4869 18.4317 29.5585C18.4419 29.6302 18.438 29.7032 18.42 29.7733C18.402 29.8434 18.3704 29.9093 18.327 29.9673C18.2751 30.0352 18.2084 30.0903 18.132 30.1285C18.0556 30.1667 17.9714 30.187 17.886 30.1878ZM11.2407 24.4947C11.1695 24.4959 11.0989 24.4823 11.0333 24.4547C10.9677 24.4271 10.9086 24.3861 10.8598 24.3343C9.79737 23.332 8.76499 22.2395 7.79276 21.157C7.69111 21.0523 7.63426 20.912 7.63426 20.7661C7.63426 20.6201 7.69111 20.4799 7.79276 20.3752C7.84399 20.3237 7.9049 20.2828 7.97198 20.2549C8.03906 20.227 8.111 20.2126 8.18366 20.2126C8.25631 20.2126 8.32825 20.227 8.39533 20.2549C8.46242 20.2828 8.52333 20.3237 8.57455 20.3752C9.52675 21.4376 10.5792 22.4901 11.5815 23.5024C11.6825 23.6054 11.7391 23.744 11.7391 23.8883C11.7391 24.0326 11.6825 24.1711 11.5815 24.2742C11.4994 24.3876 11.3778 24.4663 11.2407 24.4947Z" fill="black"/>
<path d="M96.2958 24.6951C96.1541 24.6968 96.0173 24.6428 95.915 24.5448C94.8704 23.554 93.7729 22.6205 92.6274 21.7484C92.5706 21.7051 92.5229 21.651 92.4871 21.5892C92.4512 21.5274 92.428 21.4592 92.4187 21.3884C92.4094 21.3175 92.4142 21.2456 92.4328 21.1766C92.4514 21.1077 92.4835 21.0431 92.5272 20.9866C92.5688 20.9279 92.6219 20.8782 92.6834 20.8407C92.7448 20.8031 92.8132 20.7784 92.8844 20.7681C92.9556 20.7578 93.0282 20.7621 93.0978 20.7807C93.1673 20.7993 93.2323 20.8319 93.2889 20.8764C94.467 21.7723 95.5946 22.7326 96.6667 23.753C96.7179 23.8033 96.7586 23.8634 96.7863 23.9297C96.8141 23.9959 96.8284 24.067 96.8284 24.1389C96.8284 24.2107 96.8141 24.2818 96.7863 24.3481C96.7586 24.4143 96.7179 24.4744 96.6667 24.5247C96.6195 24.5766 96.5624 24.6185 96.4986 24.6477C96.4349 24.677 96.3659 24.6931 96.2958 24.6951ZM89.2797 19.4431C89.1849 19.4438 89.0916 19.4196 89.0091 19.3729C87.7656 18.6656 86.4726 18.0492 85.1402 17.5286C85.0585 17.5162 84.9806 17.4855 84.9124 17.4389C84.8441 17.3923 84.7873 17.331 84.7459 17.2594C84.7046 17.1879 84.6799 17.1079 84.6736 17.0255C84.6673 16.9431 84.6797 16.8604 84.7097 16.7834C84.7397 16.7064 84.7867 16.6371 84.8471 16.5807C84.9075 16.5243 84.9798 16.4823 85.0586 16.4576C85.1375 16.4329 85.2209 16.4263 85.3027 16.4382C85.3845 16.4501 85.4625 16.4802 85.5311 16.5263C86.912 17.0666 88.252 17.7064 89.5403 18.4407C89.6045 18.4752 89.6612 18.5223 89.7068 18.5792C89.7524 18.6361 89.786 18.7016 89.8057 18.7718C89.8253 18.842 89.8306 18.9154 89.8212 18.9877C89.8117 19.06 89.7878 19.1297 89.7508 19.1925C89.7021 19.2659 89.6368 19.3269 89.5602 19.3704C89.4836 19.414 89.3978 19.4388 89.3098 19.4431H89.2797ZM81.151 16.2858H81.1109C79.7103 15.9724 78.2907 15.7514 76.8611 15.6243C76.7891 15.6192 76.7187 15.5998 76.6543 15.5672C76.5898 15.5346 76.5326 15.4894 76.4859 15.4343C76.4392 15.3791 76.404 15.3152 76.3823 15.2463C76.3607 15.1774 76.3531 15.1048 76.36 15.0329C76.3752 14.8894 76.4451 14.7572 76.5553 14.6639C76.6654 14.5705 76.8072 14.5232 76.9513 14.5318C78.4311 14.6649 79.9008 14.8925 81.3515 15.2133C81.4936 15.2467 81.6167 15.3351 81.6937 15.4591C81.7708 15.5831 81.7955 15.7326 81.7624 15.8748C81.7316 16.0021 81.6557 16.1138 81.5488 16.1893C81.4419 16.2649 81.3113 16.2992 81.1811 16.2858H81.151ZM68.3315 15.4639H68.0809C67.9364 15.4639 67.7977 15.4072 67.6946 15.306C67.5915 15.2048 67.5323 15.0671 67.5297 14.9227C67.5297 14.7765 67.5877 14.6362 67.6911 14.5328C67.7945 14.4295 67.9347 14.3714 68.0809 14.3714H70.0855H72.1703H72.4109C72.4888 14.3608 72.5681 14.367 72.6435 14.3896C72.7188 14.4122 72.7885 14.4507 72.8477 14.5024C72.9069 14.5542 72.9544 14.618 72.987 14.6896C73.0195 14.7612 73.0363 14.839 73.0363 14.9176C73.0363 14.9963 73.0195 15.074 72.987 15.1457C72.9544 15.2173 72.9069 15.2811 72.8477 15.3328C72.7885 15.3846 72.7188 15.423 72.6435 15.4456C72.5681 15.4683 72.4888 15.4745 72.4109 15.4639H72.1703H70.1056H68.3315ZM63.7209 15.053C63.6746 15.0621 63.6269 15.0621 63.5806 15.053C63.0883 14.9279 62.6111 14.7498 62.1573 14.5217C61.2584 14.0579 60.3851 13.546 59.5413 12.9882C59.4704 12.9541 59.4076 12.9053 59.3571 12.8449C59.3067 12.7846 59.2697 12.7142 59.2488 12.6383C59.2278 12.5625 59.2233 12.4831 59.2355 12.4054C59.2478 12.3277 59.2765 12.2535 59.3198 12.1879C59.3631 12.1222 59.42 12.0666 59.4866 12.0247C59.5531 11.9828 59.6279 11.9557 59.7059 11.9451C59.7838 11.9345 59.8631 11.9407 59.9384 11.9633C60.0138 11.9859 60.0834 12.0244 60.1427 12.0761C60.9531 12.6138 61.793 13.1057 62.6585 13.5495C63.0429 13.7407 63.4459 13.8918 63.8612 14.0005C63.9305 14.0181 63.9956 14.0491 64.0527 14.0919C64.1099 14.1347 64.1581 14.1884 64.1944 14.2499C64.2308 14.3114 64.2546 14.3795 64.2645 14.4502C64.2744 14.521 64.2702 14.593 64.2521 14.6621C64.2191 14.771 64.1533 14.867 64.0636 14.937C63.9738 15.007 63.8646 15.0475 63.751 15.053H63.7209ZM56.354 10.4123C56.2251 10.4128 56.1004 10.3665 56.0031 10.282C54.9307 9.35985 53.8883 8.35755 52.7958 7.21492C52.6961 7.10992 52.6422 6.96962 52.6459 6.82488C52.6497 6.68014 52.7108 6.54283 52.8158 6.44314C52.9208 6.34346 53.0611 6.28958 53.2059 6.29334C53.3506 6.2971 53.4879 6.35819 53.5876 6.46319C54.65 7.57575 55.6724 8.54799 56.7148 9.47011C56.7701 9.51636 56.8156 9.57321 56.8487 9.6373C56.8818 9.7014 56.9017 9.77145 56.9073 9.84334C56.9129 9.91524 56.9041 9.98754 56.8813 10.056C56.8586 10.1244 56.8224 10.1876 56.7749 10.2419C56.6715 10.347 56.5314 10.4081 56.384 10.4123H56.354ZM50.28 4.1178C50.2001 4.11909 50.1209 4.10269 50.0482 4.06976C49.9754 4.03684 49.9108 3.9882 49.859 3.92736C49.3779 3.35605 48.9269 2.79475 48.4758 2.24348C48.4002 2.12928 48.3699 1.99104 48.3906 1.85568C48.4114 1.72032 48.4818 1.59754 48.5881 1.51123C48.6944 1.42493 48.8291 1.38127 48.9658 1.38879C49.1025 1.39631 49.2316 1.45446 49.3278 1.5519C49.7688 2.10317 50.2299 2.66445 50.6909 3.21572C50.761 3.29407 50.8068 3.39114 50.8226 3.49508C50.8385 3.59901 50.8237 3.70531 50.7801 3.80099C50.7365 3.89666 50.666 3.97758 50.5772 4.03384C50.4884 4.0901 50.3851 4.11927 50.28 4.1178Z" fill="black"/>
</svg>
