<svg width="206" height="158" viewBox="0 0 206 158" fill="none" xmlns="http://www.w3.org/2000/svg">
<mask id="mask0_1285_2225" style="mask-type:luminance" maskUnits="userSpaceOnUse" x="-12" y="-66" width="225" height="224">
<path d="M212.284 -65.9636H-11.1755V157.746H212.284V-65.9636Z" fill="white"/>
</mask>
<g mask="url(#mask0_1285_2225)">
<path d="M73.7568 79.627C77.3769 80.2221 81.055 80.3831 83.4282 77.5152C85.6985 74.7814 86.4493 71.0947 86.3599 67.5019C86.2706 63.9091 85.8192 60.4103 85.1041 55.0905C82.4226 55.6498 79.035 56.2046 76.6127 57.511C74.1904 58.8175 72.0899 60.992 71.4642 63.7212C70.9234 66.0791 71.5357 68.5399 72.1882 70.8799C72.9837 73.6897 72.8451 76.8843 73.7568 79.627Z" fill="#FCC59F"/>
<path d="M87.0303 54.4102C86.9304 54.7652 86.7585 55.0957 86.5253 55.3811C85.123 56.9467 83.2848 58.0562 81.2472 58.5668C81.2785 60.4459 81.2919 62.6472 81.274 64.9738C81.2427 69.9312 81.0908 75.43 80.7466 79.4165C71.2318 81.7386 60.394 81.8415 51.4154 77.8506C47.7775 72.5755 43.0044 64.5577 39.371 59.2782C39.7262 57.4904 40.2763 55.7469 41.0112 54.0792C41.8424 52.1552 42.9106 50.3029 44.0949 49.1844C40.3497 50.0792 39.2593 47.1665 39.7553 45.7303C41.1899 41.5693 49.1406 40.4463 50.6333 40.4194C50.8498 38.4262 51.5866 36.5251 52.7696 34.9072C53.8937 33.3322 55.4119 32.0808 57.1717 31.2786C58.2667 30.791 59.5404 30.4957 60.6353 30.9878C61.7303 31.48 62.423 33.0236 61.6811 33.999C65.3369 31.5918 69.596 30.6657 73.9311 30.867C75.501 30.8854 77.0472 31.2521 78.4584 31.9408C79.1706 32.2981 79.7998 32.8014 80.3049 33.4181C80.81 34.0348 81.1798 34.751 81.3902 35.5202C81.7611 37.0817 81.1802 38.9161 79.8349 39.7304C82.9008 39.3635 84.903 40.0168 86.3599 41.8064C87.5711 43.3053 88.885 48.0703 85.3097 49.6542C87.1867 50.3611 87.5443 52.804 87.0303 54.4102Z" fill="#560829"/>
<path d="M87.0302 54.4106C87.0035 54.2461 86.9677 54.0833 86.9229 53.9229C86.5118 52.2853 85.2738 50.3435 83.7006 49.8961C84.2068 49.1988 84.5155 48.3776 84.5942 47.5192C84.6728 46.6608 84.5185 45.7971 84.1476 45.0192C83.7681 44.2582 83.2251 43.5908 82.5575 43.0648C81.8899 42.5388 81.1142 42.1672 80.2862 41.9768C78.655 41.5875 76.8583 41.3235 75.3344 42.0304C76.6751 39.7218 75.6114 36.4914 73.4618 34.9612C71.3121 33.431 68.425 33.3729 65.9312 34.1603C63.3645 35.0077 60.9391 36.2354 58.7358 37.8023C58.9358 37.2414 58.9573 36.6321 58.7972 36.0584C58.6372 35.4847 58.3034 34.9748 57.842 34.5988C57.3741 34.2488 56.8303 34.0145 56.2547 33.9149C55.6792 33.8154 55.0883 33.8535 54.5303 34.0261C53.8943 34.2087 53.2994 34.5125 52.7784 34.921C53.9025 33.3459 55.4207 32.0945 57.1805 31.2924C58.2755 30.8047 59.5492 30.5094 60.6442 31.0016C61.7391 31.4937 62.4318 33.0373 61.6899 34.0127C65.3457 31.6056 69.6049 30.6794 73.94 30.8808C75.5098 30.8991 77.0561 31.2658 78.4673 31.9546C79.1795 32.3118 79.8086 32.8151 80.3137 33.4318C80.8188 34.0485 81.1886 34.7647 81.399 35.5339C81.77 37.0954 81.189 38.9298 79.8438 39.7441C82.9096 39.3773 84.9118 40.0305 86.3688 41.8202C87.5799 43.319 88.8939 48.084 85.3185 49.6679C87.1866 50.3614 87.5442 52.8043 87.0302 54.4106Z" fill="#7F1833"/>
<path d="M81.274 64.9737C81.2427 69.9311 81.0908 75.4299 80.7466 79.4164C71.2318 81.7385 60.394 81.8414 51.4154 77.8504C47.7775 72.5754 43.0044 64.5576 39.371 59.278C39.7262 57.4902 40.2763 55.7468 41.0112 54.079C47.0205 59.9149 54.5864 63.8878 62.7984 65.5196C68.9227 66.6932 75.2296 66.5068 81.274 64.9737Z" fill="#470626"/>
<path d="M78.2573 68.1999C78.2573 70.607 79.4148 72.5533 80.8449 72.5533C82.2751 72.5533 83.4281 70.607 83.4281 68.1999C83.4281 65.7927 82.2706 63.8465 80.8449 63.8465C79.4193 63.8465 78.2573 65.7972 78.2573 68.1999Z" fill="#FCC59F"/>
<path d="M151.99 60.1019C151.771 61.3274 151.193 62.46 150.328 63.3549C149.464 64.2498 148.353 64.8666 147.136 65.1264C149.313 67.1398 149.818 71.4484 148.169 73.8914C146.52 76.3343 143.311 77.5692 140.571 76.4014C141.389 79.1709 139.677 82.4192 136.92 83.399C134.162 84.3789 130.086 83.0903 128.902 80.4505C128.527 81.7132 127.763 82.8253 126.72 83.6286C125.677 84.4318 124.408 84.8854 123.092 84.9247C120.437 84.965 116.75 82.7368 116 80.2537C115.242 81.2584 114.171 81.9805 112.956 82.3049C111.741 82.6292 110.452 82.5371 109.296 82.0433C107.008 81.0098 106.293 78.0568 106.967 75.681C105.853 76.3098 104.558 76.5415 103.295 76.3383C102.032 76.1352 100.875 75.5091 100.013 74.5625C98.3776 72.6386 97.9262 69.1442 99.6424 67.283C98.0335 67.6454 96.2994 66.7058 95.495 65.292C94.9571 64.305 94.7607 63.1676 94.9363 62.0571C95.0009 61.5586 95.1223 61.0693 95.2983 60.5985C95.9287 59.1182 96.8833 57.7986 98.0916 56.7373C97.3761 56.3836 96.7557 55.8635 96.2821 55.2206C95.8086 54.5776 95.4958 53.8304 95.3699 53.0416C95.2686 52.4361 95.293 51.8163 95.4414 51.2206C95.7541 50.1469 96.4109 49.2059 97.3107 48.5429C98.2104 47.8799 99.303 47.5316 100.42 47.5518C98.7083 45.0865 98.5743 41.176 100.322 38.7331C101.236 37.5184 102.483 36.5945 103.91 36.0729C105.337 35.5513 106.885 35.4543 108.366 35.7936C108.496 32.778 110.359 30.3172 113.148 29.0241C114.561 28.3939 116.113 28.1425 117.652 28.2947C119.191 28.4469 120.664 28.9974 121.926 29.8921C123.039 27.306 126.623 26.3128 129.412 26.966C130.787 27.3105 132.003 28.1175 132.856 29.252C133.708 30.3865 134.146 31.7797 134.095 33.1985C136.106 31.3239 140.29 31.3194 142.627 32.778C143.768 33.5012 144.636 34.5842 145.094 35.8562C145.589 37.1473 145.622 38.5702 145.188 39.883C147.154 40.0843 149.483 41.7711 150.815 43.6637C151.27 44.274 151.606 44.9646 151.807 45.6994C152.093 46.9877 151.979 48.3327 151.481 49.5545C150.982 50.7762 150.123 51.8165 149.018 52.536C151.221 53.7217 152.347 57.6769 151.99 60.1019Z" fill="#3A4141"/>
<path d="M151.99 60.1011C151.771 61.3266 151.193 62.4591 150.328 63.3541C149.464 64.249 148.353 64.8658 147.136 65.1256C149.313 67.139 149.818 71.4476 148.169 73.8905C146.52 76.3334 143.311 77.5683 140.571 76.4006C141.389 79.1701 139.677 82.4184 136.92 83.3982C134.162 84.3781 130.086 83.0895 128.902 80.4497C128.527 81.7124 127.763 82.8245 126.72 83.6277C125.677 84.431 124.408 84.8845 123.092 84.9239C120.437 84.9642 116.75 82.736 116 80.2528C115.242 81.2576 114.171 81.9797 112.956 82.304C111.741 82.6284 110.452 82.5363 109.296 82.0425C107.008 81.009 106.293 78.056 106.967 75.6802C105.853 76.309 104.558 76.5407 103.295 76.3375C102.032 76.1343 100.875 75.5083 100.013 74.5617C98.3776 72.6378 97.9262 69.1434 99.6424 67.2822C98.0335 67.6446 96.2994 66.705 95.495 65.2911C94.9571 64.3042 94.7607 63.1667 94.9363 62.0563C95.1984 62.3951 95.4983 62.7028 95.8302 62.9735C96.5814 63.5486 97.4408 63.9662 98.3568 64.2014C99.2729 64.4367 100.227 64.4847 101.162 64.3426C103.026 64.0965 105.184 63.0003 106.695 61.8505C106.764 62.9868 107.206 64.0684 107.953 64.9269C108.7 65.7855 109.709 66.3728 110.824 66.5976C113.028 66.96 115.146 65.4164 115.941 63.2733C116.449 64.7029 117.416 65.9237 118.69 66.7446C119.965 67.5655 121.475 67.9403 122.985 67.8101C125.957 67.4522 128.527 64.28 128.84 61.2151C129.024 61.9171 129.386 62.5594 129.891 63.08C130.396 63.6005 131.027 63.9815 131.722 64.186C132.416 64.3667 133.14 64.3934 133.845 64.2643C134.55 64.1353 135.218 63.8535 135.803 63.4388C137.04 62.4539 137.942 61.1098 138.386 59.591C139.04 60.1445 139.847 60.4871 140.699 60.5742C141.552 60.6612 142.41 60.4885 143.163 60.0787C143.913 59.6367 144.54 59.0145 144.989 58.2683C145.438 57.5222 145.694 56.6758 145.733 55.8058C145.812 53.9584 145.156 52.155 143.91 50.7903C145.666 51.0453 147.601 50.9334 149.004 49.8194C150.408 48.7053 151.029 46.6606 150.94 44.7859C150.922 44.4154 150.881 44.0464 150.819 43.6808C151.274 44.291 151.611 44.9816 151.811 45.7165C152.097 47.0048 151.983 48.3498 151.485 49.5715C150.987 50.7933 150.127 51.8335 149.022 52.5531C151.221 53.7209 152.347 57.676 151.99 60.1011Z" fill="#1C2C2F"/>
<path d="M145.08 35.8601C144.178 35.4965 143.228 35.263 142.26 35.1666C139.396 34.8892 136.187 35.7259 133.984 37.6319C133.414 35.9334 132.389 34.4242 131.02 33.2696C130.343 32.7063 129.557 32.2883 128.711 32.0412C127.866 31.7942 126.978 31.7234 126.104 31.8334C124.379 32.0929 122.122 32.6566 121.497 34.3344C120.513 33.5685 119.334 33.0961 118.094 32.9719C116.854 32.8476 115.605 33.0764 114.489 33.632C113.404 34.1836 112.499 35.0325 111.877 36.0798C111.256 37.127 110.945 38.3294 110.981 39.5469C108.978 39.435 106.744 39.3948 105.238 40.7594C104.134 41.7571 103.66 43.341 103.665 44.8488C103.658 46.3039 103.863 47.7523 104.272 49.1485C101.998 49.2693 99.6379 49.4885 97.6669 50.6563C96.697 51.2371 95.8945 52.0604 95.3385 53.0455C95.2373 52.44 95.2616 51.8202 95.41 51.2245C95.7227 50.1508 96.3796 49.2099 97.2793 48.5468C98.179 47.8838 99.2717 47.5355 100.389 47.5557C98.677 45.0904 98.5429 41.18 100.29 38.737C101.205 37.5223 102.451 36.5984 103.879 36.0768C105.306 35.5552 106.854 35.4582 108.335 35.7975C108.464 32.7819 110.328 30.3211 113.117 29.028C114.529 28.3978 116.081 28.1465 117.62 28.2987C119.159 28.4509 120.632 29.0013 121.894 29.896C123.007 27.31 126.591 26.3167 129.38 26.9699C130.756 27.3145 131.972 28.1215 132.824 29.256C133.677 30.3905 134.115 31.7837 134.064 33.2025C136.075 31.3278 140.258 31.3233 142.596 32.7819C143.743 33.5021 144.618 34.5855 145.08 35.8601Z" fill="#474F4F"/>
<path d="M29.5477 68.7231L19.8451 94.0291C19.8451 94.0291 16.1491 89.2597 12.5783 84.4902C11.6576 83.2687 10.7504 82.0428 9.89674 80.9108C8.31465 78.7408 6.99176 76.884 6.36608 75.8326C4.13149 72.1056 2.82202 26.2361 2.82202 26.2361L14.9827 24.1243C14.9827 24.1243 22.6562 59.985 23.6261 62.3295C24.19 63.4179 24.9266 64.4076 25.807 65.2601L26.0528 65.5151C27.7154 67.2108 29.5477 68.7231 29.5477 68.7231Z" fill="#FCC59F"/>
<path d="M29.5476 68.7234L19.8451 94.0294C19.8451 94.0294 16.1491 89.2599 12.5782 84.4904C12.9475 81.4971 13.856 78.5956 15.2597 75.9268C17.6661 71.3839 21.4626 67.7321 26.093 65.5064C27.7153 67.2111 29.5476 68.7234 29.5476 68.7234Z" fill="#E09377"/>
<path d="M14.8396 24.7417C15.9732 24.4986 17.0474 24.0329 18.0001 23.3717C18.9528 22.7105 19.7652 21.8668 20.3903 20.8894C21.6623 18.8941 22.4137 16.6111 22.5757 14.2497C22.7275 13.2255 22.6278 12.1797 22.2852 11.2028C21.8875 10.2587 21.0026 9.4623 20.0015 9.47125C20.2802 8.1609 20.3301 6.81213 20.149 5.48473C19.9345 4.14248 19.1613 2.80022 17.9144 2.3528C16.6675 1.90538 15.0318 2.58993 14.786 3.92772C14.303 3.53762 13.7326 3.27072 13.1239 3.14993C12.5151 3.02914 11.8862 3.05806 11.2911 3.23422C10.723 3.42726 10.2116 3.75846 9.8029 4.1981C9.39417 4.63775 9.10084 5.17209 8.94922 5.75319C8.46526 5.34464 7.87354 5.08501 7.24548 5.00562C6.61741 4.92623 5.97981 5.03047 5.40961 5.30577C4.85668 5.61225 4.40143 6.06879 4.09624 6.62286C3.79105 7.17693 3.64834 7.80602 3.68451 8.43771C3.38954 7.92317 2.53593 7.99029 2.06667 8.3527C1.62443 8.74688 1.31265 9.26659 1.17283 9.8426C-0.847239 15.8649 -0.328827 22.1377 3.28227 27.292" fill="#FCC59F"/>
<path d="M19.912 10.152C19.5568 12.4284 19.0203 14.6726 18.3076 16.8633" stroke="#CC524C" stroke-width="2" stroke-linecap="round" stroke-linejoin="round"/>
<path d="M19.6217 12.9078C20.2653 13.8698 20.5155 14.872 20.9625 15.9547" stroke="#CC524C" stroke-width="2" stroke-linecap="round" stroke-linejoin="round"/>
<path d="M52.1214 82.7095C43.7694 77.7072 35.952 71.8601 28.7923 65.2602C28.7923 65.2602 13.5479 69.3854 17.0964 100.405L34.343 116.821" fill="#60335B"/>
<path d="M71.9557 91.0272C71.9557 91.0272 67.0843 89.5507 61.0554 87.6357C52.85 85.0273 42.4993 81.609 39.3665 79.9983C34.3297 77.4032 30.875 76.9871 30.1197 69.5421C29.5789 64.3028 31.7376 57.9405 37.2436 57.9405C42.1284 57.9405 45.2523 63.0948 47.3931 64.3028C49.0333 65.2245 62.1414 68.6517 68.215 70.2087L71.263 70.9872L71.9557 91.0272Z" fill="#AF483A"/>
<path d="M71.9557 91.0271C71.9557 91.0271 67.0843 89.5506 61.0554 87.6356C62.0671 81.9331 64.2098 76.4913 67.3569 71.6314C67.6295 71.2153 67.9111 70.7366 68.215 70.2086L71.263 70.9872L71.9557 91.0271Z" fill="#9E332E"/>
<path d="M202.121 25.4895C202.121 25.4895 196.069 70.9562 193.464 74.4148C192.735 75.3768 191.229 77.0993 189.442 79.0769C184.789 84.1954 178.21 91.0409 178.21 91.0409L171.18 64.8176C172.59 63.8782 173.946 62.861 175.243 61.7707C176.206 61.017 177.04 60.1102 177.71 59.0862C178.917 56.8491 190.264 22.0533 190.264 22.0533L202.121 25.4895Z" fill="#AF483A"/>
<path d="M189.428 79.063C184.776 84.1815 178.197 91.027 178.197 91.027L171.167 64.8037C172.577 63.8643 173.933 62.8471 175.23 61.7568C181.431 66.142 186.336 72.1208 189.428 79.063Z" fill="#9E332E"/>
<path d="M190.344 22.6838C189.239 22.3181 188.217 21.7379 187.335 20.9763C186.454 20.2147 185.732 19.2867 185.209 18.2454C184.153 16.1225 183.642 13.77 183.721 11.3999C183.68 10.3677 183.889 9.34104 184.329 8.40666C184.82 7.51182 185.781 6.81384 186.778 6.93464C186.638 5.60173 186.729 4.25468 187.046 2.95261C187.399 1.64614 188.302 0.406789 189.58 0.0712245C190.858 -0.26434 192.422 0.621548 192.516 1.97723C193.038 1.64262 193.633 1.44009 194.251 1.38709C194.868 1.33408 195.489 1.4322 196.06 1.67298C196.605 1.92725 197.079 2.31221 197.44 2.79375C197.801 3.27529 198.038 3.83854 198.13 4.43357C198.653 4.07324 199.271 3.87406 199.906 3.86054C200.541 3.84703 201.166 4.01977 201.705 4.3575C202.225 4.7216 202.632 5.22581 202.878 5.81177C203.124 6.39773 203.199 7.04145 203.095 7.66841C203.439 7.18967 204.284 7.36416 204.713 7.75789C205.109 8.20107 205.364 8.75255 205.446 9.34176C206.827 15.5475 205.665 21.7263 201.54 26.4735" fill="#AF483A"/>
<path d="M186.814 7.61892C186.926 9.92569 187.225 12.2195 187.707 14.4779" stroke="#751A21" stroke-width="2" stroke-linecap="round" stroke-linejoin="round"/>
<path d="M186.814 10.3934C186.076 11.2882 185.714 12.2502 185.182 13.2792" stroke="#751A21" stroke-width="2" stroke-linecap="round" stroke-linejoin="round"/>
<path d="M161.59 133.022L163.824 163.384L93.7072 165.621L96.3038 123.944L96.5586 119.877L92.5363 118.615L88.4917 117.344L63.4643 109.474C63.1783 94.0828 64.5995 79.1659 68.9122 69.5419C69.7435 69.6134 108.554 80.969 125.604 79.9981C142.654 79.0272 172.941 61.5017 172.941 61.5017C172.941 61.5017 186.081 73.0854 185.835 96.5526L160.276 115.21L161.59 133.022Z" fill="#DC4561"/>
<path d="M158.354 111.071C156.121 101.011 152.91 91.1944 148.768 81.7606C155.36 90.0961 158.738 102.033 158.354 111.071Z" fill="#C63461"/>
<path d="M160.226 111.604C161.759 101.624 161.697 91.4627 160.043 81.5016C162.085 85.7743 163.245 90.4157 163.452 95.1478C163.659 99.8798 162.91 104.605 161.25 109.04" fill="#C63461"/>
<path d="M97.1307 112.991C97.2348 102.475 98.4998 92.0031 100.903 81.7655C96.4961 91.0942 94.9274 102.893 97.1307 112.991Z" fill="#C63461"/>
<path d="M95.8212 116.029C91.531 104.653 88.795 92.748 87.6873 80.6383C85.8192 93.1168 88.3219 106.025 95.8212 116.029Z" fill="#C63461"/>
<path d="M163.851 163.384L93.734 165.621L96.3306 123.944C100.487 128.146 106.494 130.785 112.25 132.445C128.358 137.007 145.387 137.208 161.599 133.027L163.851 163.384Z" fill="#C63461"/>
<path d="M153.469 80.9331C153.469 80.9331 130.842 122.57 123.266 123.438C120.379 123.685 117.474 123.637 114.596 123.295C110.736 122.879 106.902 122.252 103.11 121.416L101.448 97.9217C105.277 98.4308 109.13 98.7295 112.992 98.8165C115.517 98.8657 117.586 98.7628 118.091 98.3467C119.494 97.1924 141.197 76.4992 141.197 76.4992L153.469 80.9331Z" fill="#FCC59F"/>
<path d="M114.596 123.295C110.736 122.879 106.902 122.252 103.11 121.416L101.448 97.9217C105.277 98.4308 109.13 98.7295 112.992 98.8165C115.656 106.695 116.209 115.135 114.596 123.295Z" fill="#E09377"/>
<path d="M141.268 79.0053C141.085 74.4909 140.911 69.9317 141.715 65.4978C141.997 63.9497 142.453 62.33 143.597 61.3054C144.741 60.2808 146.765 60.2003 147.597 61.5157C147.757 60.9087 148.087 60.3602 148.549 59.9353C149.011 59.5103 149.584 59.2266 150.202 59.1176C150.804 59.0378 151.416 59.1405 151.96 59.4125C152.503 59.6844 152.952 60.1131 153.25 60.6433C153.934 59.641 155.565 59.3681 156.665 59.82C157.218 60.0713 157.678 60.4914 157.978 61.0202C158.278 61.5491 158.403 62.1595 158.336 62.764C158.953 62.6365 159.591 62.6403 160.207 62.7752C160.823 62.9101 161.403 63.1731 161.911 63.547C162.43 63.9098 162.869 64.3746 163.202 64.9132C163.534 65.4517 163.754 66.0525 163.846 66.6789C163.085 67.3024 162.211 67.7733 161.272 68.0659C161.111 74.209 157.313 80.3252 151.932 82.8308C148.249 82.1552 144.741 80.4237 141.268 79.0053Z" fill="#FCC59F"/>
<path d="M109.184 128.521L93.095 126.942L93.2961 129.698L95.9776 165.76L29.5388 163.97L30.9153 145.989L33.3242 114.611L48.7473 83.6139C54.3964 85.5557 61.5739 87.8196 67.9425 89.7525C89.8414 96.4101 111.562 96.7769 111.562 96.7769C114.927 108.106 112.764 119.94 109.184 128.521Z" fill="#60335B"/>
<path d="M95.9864 165.76L29.5476 163.97L30.9241 145.989C41.8818 147.553 53.0407 146.92 63.7517 144.126C74.4626 141.332 84.5116 136.434 93.3139 129.716L95.9864 165.76Z" fill="#512A51"/>
<path d="M92.0983 126.226C87.9062 117.277 84.8046 105.116 84.3756 95.1835C82.5119 105.192 86.0068 118.194 92.0983 126.226Z" fill="#512A51"/>
<path d="M92.9744 126.225C92.6495 118.228 92.7987 110.219 93.4213 102.239C95.2045 110.736 95.0258 117.796 92.9744 126.225Z" fill="#512A51"/>
<path d="M35.3798 114.428C34.805 103.995 36.5735 93.5669 40.5551 83.9092C34.3698 91.8732 32.1218 104.804 35.3798 114.428Z" fill="#512A51"/>
<path d="M33.418 111.394C29.5072 102.722 28.1789 93.1037 29.5924 83.6943C26.2315 92.6875 27.4918 103.886 33.418 111.394Z" fill="#512A51"/>
</g>
</svg>
