<svg width="342" height="283" viewBox="0 0 342 283" fill="none" xmlns="http://www.w3.org/2000/svg">
<g clip-path="url(#clip0_1170_1051)">
<path d="M225.104 199.343C225.104 199.343 216.026 200.742 209.322 207.428C202.618 214.114 198.615 224.852 198.615 224.852L212.342 228.855C212.342 228.855 206.855 216.054 225.104 199.343Z" fill="#FAE0B2"/>
<path d="M227.62 205.929L226.636 198.193L219.708 194.621C219.53 194.529 219.381 194.39 219.279 194.218C219.176 194.046 219.124 193.85 219.127 193.65C219.131 193.45 219.19 193.255 219.299 193.087C219.407 192.919 219.56 192.785 219.741 192.7L226.791 189.361L228.051 181.668C228.085 181.473 228.172 181.292 228.302 181.144C228.433 180.997 228.601 180.888 228.79 180.83C228.978 180.772 229.179 180.768 229.37 180.817C229.561 180.866 229.735 180.967 229.872 181.109L235.213 186.784L242.919 185.604C243.117 185.573 243.319 185.599 243.503 185.678C243.687 185.756 243.845 185.885 243.96 186.049C244.074 186.213 244.141 186.405 244.152 186.605C244.162 186.805 244.117 187.004 244.021 187.179L240.269 194.014L243.775 200.976C243.865 201.154 243.903 201.355 243.886 201.554C243.868 201.753 243.795 201.944 243.674 202.103C243.554 202.263 243.391 202.386 243.205 202.458C243.018 202.53 242.815 202.549 242.618 202.511L234.958 201.058L229.42 206.542C229.278 206.677 229.102 206.771 228.91 206.814C228.719 206.856 228.519 206.845 228.334 206.782C228.148 206.719 227.983 206.606 227.857 206.455C227.731 206.305 227.649 206.123 227.62 205.929Z" fill="#F7CC7F"/>
<path d="M68.6956 253.447C68.6956 253.447 77.7731 254.846 84.4772 261.532C91.1814 268.218 95.1845 278.955 95.1845 278.955L81.4575 282.958C81.4575 282.958 86.9446 270.157 68.6956 253.447Z" fill="#FAE0B2"/>
<path d="M66.1857 260.032L67.169 252.296L74.0978 248.724C74.2755 248.633 74.424 248.493 74.5266 248.322C74.6292 248.15 74.6817 247.953 74.6782 247.753C74.6747 247.553 74.6154 247.359 74.5069 247.191C74.3985 247.023 74.2452 246.889 74.0644 246.803L67.0143 243.465L65.7548 235.771C65.7199 235.578 65.6323 235.397 65.5018 235.25C65.3712 235.103 65.2026 234.995 65.0145 234.937C64.8264 234.879 64.6261 234.874 64.4354 234.923C64.2448 234.972 64.0712 235.072 63.9338 235.213L58.5923 240.888L50.8866 239.708C50.6889 239.677 50.4867 239.703 50.3027 239.781C50.1187 239.86 49.9605 239.988 49.8458 240.152C49.7311 240.316 49.6647 240.509 49.6539 240.709C49.6432 240.909 49.6886 241.107 49.785 241.283L53.5331 248.117L50.0308 255.079C49.9406 255.258 49.9021 255.458 49.9199 255.658C49.9376 255.857 50.0108 256.047 50.1311 256.207C50.2515 256.367 50.4142 256.49 50.6008 256.562C50.7875 256.634 50.9905 256.652 51.1871 256.615L58.8443 255.161L64.3648 260.658C64.5066 260.8 64.6854 260.899 64.8809 260.944C65.0764 260.989 65.2807 260.979 65.4705 260.914C65.6602 260.848 65.8279 260.731 65.9544 260.576C66.0808 260.42 66.161 260.232 66.1857 260.032Z" fill="#F7CC7F"/>
<path d="M286.521 206.099L288.646 202.512L286.895 198.73C286.85 198.633 286.833 198.525 286.846 198.419C286.859 198.312 286.901 198.212 286.969 198.128C287.036 198.045 287.125 197.982 287.226 197.947C287.328 197.912 287.437 197.905 287.541 197.929L291.608 198.84L294.664 196.005C294.743 195.933 294.84 195.884 294.945 195.864C295.049 195.844 295.158 195.853 295.257 195.892C295.357 195.93 295.444 195.995 295.509 196.08C295.573 196.165 295.613 196.266 295.623 196.372L296.012 200.521L299.654 202.551C299.748 202.603 299.825 202.68 299.878 202.773C299.93 202.867 299.955 202.973 299.949 203.08C299.944 203.187 299.908 203.291 299.847 203.379C299.786 203.467 299.701 203.535 299.602 203.577L295.778 205.231L294.971 209.319C294.95 209.424 294.9 209.521 294.827 209.599C294.754 209.677 294.661 209.733 294.557 209.76C294.454 209.788 294.345 209.787 294.243 209.756C294.141 209.725 294.049 209.666 293.978 209.586L291.226 206.46L287.086 206.955C286.98 206.967 286.873 206.95 286.777 206.906C286.68 206.861 286.598 206.79 286.54 206.701C286.481 206.612 286.448 206.509 286.445 206.403C286.442 206.296 286.468 206.191 286.521 206.099Z" fill="#466EB6"/>
<path d="M164.062 56.7987L166.742 52.2736L164.533 47.5027C164.477 47.3802 164.456 47.2446 164.472 47.111C164.489 46.9774 164.543 46.851 164.627 46.7461C164.712 46.6412 164.823 46.5619 164.95 46.517C165.077 46.4722 165.214 46.4635 165.346 46.4921L170.478 47.6423L174.332 44.0671C174.431 43.9744 174.554 43.9113 174.687 43.885C174.819 43.8587 174.957 43.8703 175.084 43.9184C175.21 43.9665 175.321 44.0492 175.402 44.157C175.484 44.2649 175.534 44.3936 175.546 44.5285L176.041 49.7637L180.633 52.3252C180.75 52.3915 180.847 52.4892 180.911 52.6073C180.976 52.7254 181.007 52.8592 181 52.9938C180.993 53.1283 180.949 53.2583 180.872 53.3691C180.796 53.4799 180.69 53.5672 180.566 53.6211L175.741 55.7061L174.721 60.8655C174.695 60.9978 174.633 61.1203 174.541 61.2191C174.449 61.3178 174.331 61.3889 174.201 61.4243C174.071 61.4597 173.934 61.4579 173.805 61.4192C173.675 61.3805 173.56 61.3065 173.47 61.2054L169.995 57.26L164.775 57.8882C164.641 57.9049 164.504 57.8835 164.381 57.8265C164.258 57.7694 164.154 57.6791 164.079 57.5656C164.005 57.4522 163.964 57.3202 163.961 57.1846C163.958 57.0491 163.993 56.9153 164.062 56.7987Z" fill="#F79C8D"/>
<path d="M278.251 55.1021L271.18 59.8214L275.135 66.6895L268.373 71.6455L271.344 78.6744L266.889 83.2146L269.186 85.4696L275.144 79.3997L272.327 72.7381L279.362 67.5817L275.471 60.826L281.881 56.5498L278.251 55.1021Z" fill="#F48C7F"/>
<path d="M289.116 168.873L284.112 161.999L277.414 166.229L272.184 159.674L265.28 162.927L260.567 158.66L258.406 161.049L264.712 166.754L271.253 163.671L276.691 170.49L283.283 166.329L287.817 172.56L289.116 168.873Z" fill="#F48C7F"/>
<path d="M137.033 39.3962L138.733 31.0653L131.088 28.9743L132.399 20.6919L125.34 17.7905L125.306 11.4324L122.089 11.4506L122.132 19.9545L128.821 22.7011L127.458 31.3172L134.975 33.3749L133.437 40.9228L137.033 39.3962Z" fill="#F48C7F"/>
<path d="M70.9112 50.4768L74.1464 56.5224L81.1298 56.1339L84.277 63.1659L91.5851 60.4557L95.4971 68.2524L102.535 66.5893L107.528 73.4755L104.921 75.3632L101.188 70.213L93.7611 71.9702L90.0009 64.4769L82.5714 67.2327L79.0964 59.4693L72.2769 59.8517L69.2784 54.2492L64.8534 55.4359L64.0188 52.3281L70.9112 50.4768Z" fill="#F7CC7F"/>
<path d="M40.7925 98.2102L35.6392 98.7323L33.882 90.5349L26.2522 90.368L23.9335 84.4499L20.935 85.6214L24.0367 93.5395L31.2659 93.6973L33.0959 102.225L40.8502 101.439L40.7925 98.2102Z" fill="#50BFA5"/>
<path d="M31.5207 187.104L29.5936 191.911L21.5146 189.662L17.8271 196.342L11.5084 195.647L11.1564 198.849L19.6087 199.777L23.1049 193.443L31.5086 195.783L34.41 188.548L31.5207 187.104Z" fill="#50BFA5"/>
<path d="M45.2144 133.33C47.9598 135.965 49.5466 139.582 49.6257 143.386C49.7048 147.19 48.2698 150.87 45.6362 153.616C43.0019 156.361 39.3849 157.948 35.5808 158.027C31.7767 158.106 28.097 156.671 25.3507 154.038C22.6053 151.403 21.0185 147.786 20.9394 143.982C20.8603 140.178 22.2953 136.498 24.9289 133.752C27.5633 131.007 31.1802 129.42 34.9843 129.341C38.7884 129.262 42.4682 130.697 45.2144 133.33Z" fill="#FFF3D9"/>
<path d="M44.9018 145.324L38.7955 147.2L36.8804 153.294C36.8506 153.409 36.7879 153.512 36.6999 153.592C36.612 153.671 36.5027 153.723 36.3855 153.741C36.2683 153.759 36.1484 153.743 36.0406 153.693C35.9328 153.644 35.8418 153.564 35.7788 153.464L32.1065 148.229L25.7331 148.292C25.6197 148.292 25.5084 148.262 25.4112 148.203C25.3139 148.145 25.2344 148.061 25.1811 147.961C25.1278 147.861 25.1027 147.748 25.1085 147.635C25.1143 147.522 25.1509 147.412 25.2142 147.318L29.0503 142.213L27.0169 136.144C26.9792 136.033 26.9733 135.915 26.9998 135.801C27.0262 135.688 27.0841 135.584 27.1666 135.502C27.2492 135.42 27.3532 135.362 27.4667 135.336C27.5803 135.31 27.6989 135.316 27.8091 135.355L33.8516 137.424L38.9806 133.622C39.0742 133.553 39.185 133.511 39.3008 133.502C39.4165 133.493 39.5326 133.516 39.6359 133.569C39.7392 133.622 39.8258 133.702 39.8859 133.802C39.946 133.901 39.9772 134.015 39.9761 134.131L39.8729 140.505L45.0747 144.21C45.1791 144.272 45.2626 144.364 45.3144 144.474C45.3662 144.583 45.3839 144.706 45.3653 144.826C45.3467 144.946 45.2926 145.057 45.21 145.146C45.1273 145.235 45.02 145.297 44.9018 145.324Z" fill="#FED333"/>
<path d="M337.584 144.284C340.33 146.918 341.916 150.535 341.995 154.339C342.075 158.143 340.639 161.823 338.006 164.569C335.372 167.315 331.755 168.902 327.951 168.982C324.147 169.062 320.467 167.627 317.72 164.994C314.975 162.36 313.388 158.743 313.309 154.939C313.23 151.135 314.665 147.455 317.299 144.709C319.933 141.963 323.549 140.375 327.353 140.296C331.157 140.216 334.837 141.65 337.584 144.284Z" fill="#FFF3D9"/>
<path d="M337.271 156.269L331.165 158.144L329.25 164.235C329.221 164.35 329.158 164.454 329.071 164.534C328.983 164.614 328.873 164.666 328.756 164.684C328.639 164.703 328.519 164.687 328.411 164.637C328.303 164.588 328.212 164.509 328.148 164.408L324.476 159.182L318.103 159.243C317.984 159.25 317.866 159.223 317.763 159.164C317.66 159.105 317.577 159.017 317.523 158.911C317.469 158.805 317.448 158.686 317.461 158.568C317.475 158.45 317.523 158.338 317.599 158.247L321.423 153.14L319.39 147.085C319.353 146.975 319.348 146.857 319.374 146.744C319.401 146.631 319.459 146.527 319.541 146.446C319.624 146.364 319.727 146.307 319.841 146.281C319.954 146.255 320.072 146.261 320.182 146.299L326.224 148.369L331.353 144.566C331.447 144.496 331.558 144.454 331.674 144.444C331.79 144.434 331.907 144.457 332.01 144.51C332.114 144.563 332.201 144.644 332.261 144.744C332.321 144.844 332.351 144.959 332.349 145.076L332.246 151.449L337.448 155.152C337.546 155.218 337.622 155.312 337.67 155.42C337.717 155.529 337.732 155.649 337.713 155.766C337.695 155.883 337.644 155.992 337.565 156.081C337.487 156.17 337.385 156.235 337.271 156.269Z" fill="#FED333"/>
<path d="M272.837 126.274L275.344 130.441C275.405 130.543 275.494 130.625 275.599 130.68C275.705 130.734 275.824 130.757 275.942 130.747C276.06 130.737 276.174 130.695 276.269 130.624C276.365 130.553 276.438 130.458 276.482 130.347L278.264 125.822L282.998 124.723C283.114 124.697 283.221 124.639 283.305 124.555C283.39 124.471 283.449 124.366 283.476 124.25C283.503 124.134 283.497 124.013 283.459 123.9C283.421 123.787 283.351 123.688 283.259 123.613L279.508 120.52L279.927 115.664C279.94 115.545 279.918 115.425 279.866 115.317C279.814 115.209 279.732 115.118 279.63 115.055C279.528 114.992 279.411 114.958 279.291 114.959C279.171 114.959 279.054 114.993 278.952 115.057L274.852 117.673L270.373 115.777C270.264 115.73 270.144 115.715 270.027 115.734C269.91 115.752 269.8 115.803 269.71 115.88C269.621 115.957 269.554 116.058 269.519 116.172C269.484 116.285 269.481 116.405 269.511 116.52L270.725 121.227L267.538 124.9C267.46 124.989 267.409 125.099 267.391 125.217C267.372 125.334 267.387 125.454 267.433 125.564C267.479 125.673 267.555 125.768 267.651 125.836C267.748 125.905 267.863 125.945 267.981 125.953L272.837 126.274Z" fill="#F47458"/>
<path d="M264.033 221.708C264.033 222.089 263.958 222.467 263.812 222.82C263.667 223.173 263.453 223.493 263.183 223.763C262.913 224.033 262.593 224.248 262.24 224.394C261.888 224.54 261.51 224.615 261.128 224.615C260.357 224.615 259.618 224.309 259.072 223.763C258.527 223.218 258.221 222.479 258.221 221.708C258.221 220.936 258.527 220.197 259.072 219.652C259.618 219.106 260.357 218.8 261.128 218.8C261.51 218.8 261.888 218.875 262.24 219.022C262.593 219.168 262.913 219.382 263.183 219.652C263.453 219.922 263.667 220.242 263.812 220.595C263.958 220.948 264.033 221.326 264.033 221.708Z" fill="#50BFA5"/>
<path d="M6.29748 146.539C6.29748 148.144 4.88623 149.446 3.14722 149.446C1.40821 149.446 0 148.144 0 146.539C0 144.933 1.40821 143.631 3.14722 143.631C4.88623 143.631 6.29748 144.933 6.29748 146.539Z" fill="#50BFA5"/>
<path d="M170.942 7.50512L174.757 8.25778C174.757 8.25778 180.336 5.65078 180.76 4.39736C181.185 3.14393 180.991 0.24557 181.807 0.066509C182.129 -0.0164219 182.464 -0.0350714 182.792 0.0116232C183.121 0.0583178 183.437 0.169444 183.723 0.338623C184.008 0.507801 184.258 0.731705 184.457 0.997493C184.656 1.26328 184.8 1.56572 184.882 1.88747C185.334 3.2805 183.756 7.65383 184.138 8.06658C184.378 8.31544 186.566 8.81013 188.156 9.14701C188.675 9.25815 189.152 9.51024 189.536 9.87547C189.92 10.2407 190.196 10.7049 190.333 11.2168C190.429 11.5631 190.405 11.9319 190.264 12.2626C190.123 12.5934 189.875 12.8667 189.559 13.0378L188.554 13.575L189.028 14.622C189.195 14.9982 189.211 15.4247 189.07 15.8119C188.93 16.1991 188.645 16.5167 188.275 16.6979L187.492 17.0712L187.835 17.7025C187.939 17.8949 188.003 18.1069 188.021 18.3252C188.039 18.5434 188.012 18.763 187.941 18.9702C187.87 19.1773 187.757 19.3674 187.608 19.5285C187.46 19.6896 187.28 19.8181 187.079 19.9058L186.393 20.2093L186.445 20.3945C186.552 20.7695 186.517 21.171 186.346 21.5218C186.175 21.8725 185.881 22.1476 185.519 22.2943L184.836 22.5675L174.675 20.5584C173.721 20.3711 172.817 19.9865 172.02 19.4293L168.566 18.1213C168.385 18.0512 168.236 17.9186 168.144 17.7477C168.053 17.5767 168.026 17.3787 168.068 17.1896L169.999 8.16066C170.017 8.05532 170.056 7.95468 170.113 7.86454C170.171 7.7744 170.246 7.69657 170.333 7.63559C170.421 7.5746 170.52 7.53167 170.625 7.50927C170.729 7.48687 170.837 7.48546 170.942 7.50512Z" fill="#96D9C9"/>
</g>
<defs>
<clipPath id="clip0_1170_1051">
<rect width="341.401" height="282.463" fill="white" transform="scale(1.00175)"/>
</clipPath>
</defs>
</svg>
