<svg width="276" height="291" viewBox="0 0 276 291" fill="none" xmlns="http://www.w3.org/2000/svg">
<path d="M222.068 72.7463C219.99 84.2927 225.235 97.195 235.581 102.752C241.227 105.763 247.806 106.486 253.662 109.03C259.519 111.575 265.031 117.154 264.086 123.477C263.453 127.678 259.586 136.813 271.277 144.348C280.912 150.56 274.61 175.042 240.849 180.488C230.525 182.154 238.115 175.087 228.147 171.919C218.178 168.752 210.044 161.662 204.254 153.116C198.464 144.57 194.963 134.635 192.596 124.589C189.884 113.009 188.673 100.496 193.185 89.4825C197.697 78.4695 209.388 69.7013 222.068 72.7463Z" fill="black"/>
<path d="M238.171 181.354C235.07 181.354 234.359 179.976 233.726 177.92C233.126 176.042 232.448 173.909 228.003 172.497C218.701 169.552 210.099 162.784 203.776 153.449C198.642 145.859 194.797 136.469 192.041 124.722C188.584 109.975 188.773 98.7064 192.663 89.2603C195.002 83.5328 199.059 78.6717 204.276 75.3467C206.896 73.623 209.839 72.4512 212.927 71.9028C216.015 71.3544 219.182 71.441 222.235 72.1572C222.387 72.1919 222.521 72.2839 222.608 72.4142C222.695 72.5445 222.728 72.7031 222.702 72.8573C220.579 84.6594 226.136 97.0061 235.904 102.229C239.063 103.767 242.379 104.959 245.795 105.785C248.567 106.503 251.288 107.405 253.94 108.486C259.83 111.053 265.72 116.865 264.72 123.566C264.631 124.111 264.498 124.744 264.353 125.4C263.387 129.923 261.764 137.48 271.632 143.837C275.222 146.148 276.756 150.882 275.644 156.194C273.711 165.407 263.487 177.454 240.983 181.088C240.054 181.251 239.114 181.341 238.171 181.354ZM217.056 72.7573C206.388 72.7573 197.386 80.8143 193.719 89.7048C189.94 98.9175 189.762 109.953 193.163 124.433C195.875 136.024 199.664 145.292 204.721 152.76C210.888 161.873 219.268 168.463 228.303 171.33C233.337 172.931 234.192 175.598 234.815 177.531C235.437 179.465 235.826 180.676 240.727 179.876C262.62 176.387 272.621 164.774 274.422 155.939C275.422 151.138 274.1 146.893 270.943 144.826C260.375 138.013 262.053 129.934 263.164 125.111C263.298 124.444 263.431 123.866 263.509 123.355C264.409 117.287 258.919 111.953 253.44 109.564C250.844 108.505 248.178 107.625 245.461 106.93C241.961 106.074 238.563 104.845 235.326 103.263C225.258 97.8951 219.457 85.3151 221.39 73.1796C219.964 72.8899 218.512 72.7483 217.056 72.7573Z" fill="black"/>
<path d="M181.494 44.8079C184.917 61.4775 166.225 85.0927 159.39 100.684C157.168 105.752 153.956 110.364 152.122 115.587C149.966 121.788 149.9 128.534 150.489 135.079C151.6 147.459 155.323 160.162 164.024 169.03C172.726 177.898 187.284 181.765 198.03 175.509C207.443 170.019 211.744 158.217 211.155 147.326C210.566 136.435 205.921 126.211 201.009 116.487C189.273 93.0386 197.53 64.9892 181.494 44.8079Z" fill="black"/>
<path d="M186.184 179.154C177.674 179.027 169.56 175.539 163.613 169.452C155.834 161.551 151.244 150.004 149.899 135.135C149.166 127.034 149.699 120.755 151.577 115.387C152.73 112.356 154.12 109.42 155.734 106.608C156.845 104.607 157.956 102.54 158.857 100.44C160.824 95.9948 163.769 90.805 166.869 85.3707C174.582 71.8905 183.316 56.5989 180.927 44.9302C180.861 44.7828 180.856 44.6151 180.913 44.464C180.97 44.3129 181.085 44.1908 181.233 44.1245C181.38 44.0582 181.548 44.0531 181.699 44.1104C181.85 44.1677 181.972 44.2827 182.038 44.4301C190.929 55.6654 192.396 69.0122 193.929 83.1369C195.13 94.25 196.374 105.785 201.62 116.209C206.454 125.811 211.221 136.113 211.833 147.326C212.499 159.639 207.221 170.919 198.397 176.064C194.672 178.161 190.457 179.227 186.184 179.154ZM182.461 47.075C183.461 58.7993 175.237 73.1796 167.925 85.9708C164.835 91.3828 161.913 96.4949 159.968 100.929C159.034 103.074 157.901 105.163 156.801 107.186C155.217 109.941 153.853 112.817 152.722 115.787C150.911 120.988 150.399 127.1 151.111 135.035C152.433 149.615 156.934 160.906 164.446 168.608C173.615 177.954 187.917 180.688 197.708 174.987C206.143 170.063 211.188 159.228 210.532 147.359C209.943 136.413 205.231 126.245 200.464 116.754C195.107 106.13 193.796 94.5278 192.685 83.2592C191.251 70.1124 189.906 57.6435 182.461 47.075Z" fill="black"/>
<path d="M204.409 130.701C204.109 121.81 204.254 113.053 204.609 106.408C201.013 104.61 197.165 103.37 193.196 102.729C191.418 102.44 189.407 102.329 188.04 103.407C187.184 104.074 183.116 100.496 182.694 101.474C179.805 108.264 176.86 124.6 173.97 131.379C173.737 131.901 160.146 133.768 159.924 134.29C158.979 136.513 165.936 145.403 166.591 145.881C203.676 170.541 223.69 133.657 223.69 133.657C223.69 133.657 214.833 132.701 204.409 130.701Z" fill="#FFEDE5"/>
<path d="M191.218 154.983C183.239 154.983 174.893 152.105 166.291 146.392C165.491 145.859 158.223 136.724 159.368 134.057C159.568 133.579 159.835 133.446 166.858 132.234C169.347 131.812 172.703 131.223 173.526 130.956C175.243 126.158 176.664 121.259 177.782 116.287C179.227 110.575 180.716 104.674 182.227 101.24C182.276 101.125 182.349 101.022 182.441 100.937C182.533 100.853 182.642 100.789 182.761 100.751C183.405 100.54 184.228 100.996 185.639 101.862C186.325 102.333 187.073 102.707 187.862 102.974C189.462 101.762 191.673 101.929 193.418 102.218C197.449 102.867 201.358 104.126 205.009 105.952C205.114 106.007 205.201 106.09 205.26 106.193C205.319 106.295 205.348 106.412 205.343 106.53C204.954 113.831 204.876 122.455 205.12 130.29C215.211 132.19 223.835 133.09 223.924 133.101C224.022 133.112 224.116 133.148 224.197 133.204C224.279 133.26 224.345 133.335 224.39 133.424C224.439 133.51 224.465 133.608 224.465 133.707C224.465 133.806 224.439 133.904 224.39 133.99C224.301 134.157 215.5 150.049 199.175 154.116C196.568 154.731 193.896 155.022 191.218 154.983ZM160.435 134.702C160.179 136.68 165.991 144.614 166.98 145.392C178.093 152.805 188.817 155.316 198.753 152.849C212.499 149.437 220.745 137.291 222.735 134.113C220.178 133.824 212.733 132.912 204.298 131.301C204.162 131.275 204.04 131.204 203.951 131.099C203.862 130.994 203.812 130.861 203.809 130.723C203.531 122.877 203.598 114.176 203.987 106.774C200.545 105.098 196.876 103.937 193.096 103.329C191.562 103.074 189.64 102.918 188.417 103.885C187.662 104.463 186.461 103.763 184.939 102.874C184.373 102.514 183.778 102.202 183.161 101.94C181.456 106.73 180.038 111.617 178.916 116.576C177.482 122.288 175.993 128.189 174.526 131.623C174.315 132.101 174.081 132.223 167.058 133.435C164.591 133.857 161.279 134.435 160.435 134.702Z" fill="black"/>
<path d="M170.225 44.43C168.203 52.4759 166.569 61.0996 161.579 67.9453C158.857 71.6793 150.589 92.8386 165.158 105.563C169.156 109.048 173.887 111.589 179 112.999C184.113 114.409 189.477 114.652 194.696 113.709C202.476 112.398 214.644 103.707 217.756 91.405C222.346 94.8723 228.869 93.4165 230.714 88.7934C231.825 86.1374 230.192 81.6255 227.013 80.5364C224.557 79.7029 224.257 79.614 221.868 80.2919C222.764 74.0792 224.429 68.0019 226.824 62.1998C223.49 53.4316 215.422 46.4082 206.587 41.2739C203.682 39.4944 200.549 38.1151 197.275 37.1732C187.806 34.7283 172.292 36.1508 170.225 44.43Z" fill="#FFEDE5"/>
<path d="M188.306 114.865C179.633 114.886 171.253 111.722 164.758 105.974C156.812 99.0287 155.756 89.8048 156.278 83.2925C156.901 75.5134 159.79 69.3234 161.09 67.5453C165.402 61.6443 167.18 54.2985 168.87 47.1973C169.114 46.1971 169.359 45.208 169.603 44.2301C169.943 43.0188 170.526 41.8896 171.317 40.9113C172.108 39.933 173.091 39.1262 174.204 38.5402C180.294 34.9284 190.696 34.8173 197.386 36.5398C200.715 37.4964 203.9 38.8982 206.854 40.7072C214.155 44.9413 223.635 52.0648 227.358 61.9443C227.413 62.0873 227.413 62.2459 227.358 62.3888C225.104 67.8704 223.512 73.6006 222.612 79.4585C224.357 79.0362 224.979 79.2029 227.213 79.9697C228.046 80.2924 228.804 80.7809 229.442 81.4056C230.08 82.0303 230.585 82.7781 230.925 83.6037C231.75 85.295 231.877 87.2424 231.281 89.0269C230.803 90.1474 230.073 91.1426 229.148 91.9348C228.223 92.7271 227.127 93.295 225.946 93.5944C224.636 93.9358 223.269 94.0044 221.931 93.7961C220.593 93.5877 219.312 93.1068 218.167 92.383C214.6 104.719 202.464 113.02 194.83 114.309C192.675 114.682 190.493 114.867 188.306 114.865ZM188.162 36.7065C183.339 36.7065 178.36 37.5622 174.893 39.6293C173.918 40.1358 173.057 40.8355 172.361 41.6857C171.666 42.5359 171.151 43.5189 170.848 44.5746L170.114 47.5196C168.369 54.7431 166.558 62.211 162.102 68.3121C160.913 69.9346 158.112 75.9913 157.523 83.4259C157.023 89.6715 158.023 98.4952 165.591 105.108C169.515 108.545 174.164 111.052 179.193 112.439C184.221 113.827 189.499 114.059 194.63 113.12C201.898 111.875 214.122 103.385 217.2 91.2495C217.226 91.153 217.275 91.0642 217.343 90.9909C217.411 90.9177 217.495 90.8622 217.59 90.8293C217.684 90.7964 217.785 90.7871 217.884 90.8022C217.982 90.8174 218.076 90.8565 218.156 90.9161C219.206 91.7197 220.425 92.2734 221.721 92.5353C223.017 92.7972 224.356 92.7603 225.635 92.4275C226.639 92.1766 227.572 91.6984 228.362 91.0298C229.152 90.3612 229.778 89.52 230.191 88.5712C230.661 87.1013 230.538 85.506 229.847 84.126C229.574 83.4516 229.167 82.8392 228.651 82.3256C228.136 81.8119 227.522 81.4075 226.846 81.1366C224.435 80.3142 224.29 80.2698 222.068 80.8921C221.97 80.9222 221.865 80.9266 221.765 80.9048C221.665 80.8831 221.571 80.836 221.495 80.768C221.418 80.6999 221.359 80.6133 221.326 80.5163C221.292 80.4194 221.283 80.3154 221.301 80.2142C222.193 74.039 223.839 67.9966 226.202 62.2222C222.546 52.7872 213.389 45.9304 206.309 41.8297C200.912 38.3376 194.588 36.5523 188.162 36.7065Z" fill="black"/>
<path d="M198.964 90.7161C198.072 90.7179 197.184 90.6097 196.319 90.3938C194.79 89.993 193.364 89.2727 192.134 88.2805C190.905 87.2882 189.899 86.0465 189.184 84.6373C187.673 81.635 187.299 78.187 188.133 74.9307C188.966 71.6744 190.95 68.8299 193.719 66.923C195.014 66.017 196.49 65.4009 198.045 65.1167C199.6 64.8325 201.199 64.8868 202.731 65.276C204.264 65.6651 205.694 66.38 206.925 67.3719C208.156 68.3637 209.159 69.6093 209.866 71.0238C211.428 74.0074 211.825 77.4658 210.977 80.7255C209.388 86.6821 204.343 90.7161 198.964 90.7161ZM200.075 66.1562C198.044 66.1706 196.063 66.7896 194.385 67.9343C191.875 69.6812 190.08 72.2749 189.329 75.2391C188.578 78.2033 188.921 81.339 190.296 84.0705C190.929 85.3305 191.823 86.4412 192.919 87.3284C194.015 88.2156 195.288 88.8591 196.652 89.2159C202.287 90.6494 208.166 86.7043 209.766 80.4254C210.563 77.445 210.218 74.2744 208.799 71.5349C207.999 69.9039 206.757 68.53 205.215 67.5694C203.673 66.6087 201.892 66.0999 200.075 66.1007V66.1562Z" fill="black"/>
<path d="M167.781 79.9919C166.889 79.9944 166.001 79.8862 165.136 79.6697C158.857 78.0694 155.134 71.1459 156.934 64.2114C158.735 57.2768 165.236 52.9538 171.515 54.5541C177.794 56.1544 181.516 63.0779 179.716 70.0013C178.16 75.9579 173.159 79.9919 167.781 79.9919ZM168.892 55.4321C164.058 55.4321 159.501 59.1105 158.135 64.5114C156.534 70.7903 159.824 77.0581 165.458 78.4917C171.092 79.9253 176.971 75.9801 178.56 69.7012C180.161 63.4224 176.871 57.1546 171.237 55.721C170.462 55.5306 169.667 55.4336 168.87 55.4321H168.892Z" fill="black"/>
<path d="M237.035 41.5672C248.239 38.6611 254.967 27.222 252.061 16.0173C249.155 4.81253 237.716 -1.91486 226.511 0.991227C215.306 3.89732 208.579 15.3364 211.485 26.5412C214.391 37.7459 225.83 44.4733 237.035 41.5672Z" fill="black"/>
<path d="M231.814 42.852C231.214 42.852 230.614 42.852 230.003 42.7742C224.419 42.2971 219.244 39.6514 215.588 35.4042C211.932 31.157 210.086 25.6465 210.445 20.054C210.804 14.4615 213.339 9.23214 217.508 5.48707C221.677 1.74201 227.147 -0.220692 232.746 0.0197495C238.345 0.260191 243.627 2.68463 247.459 6.77331C251.292 10.862 253.37 16.2895 253.248 21.8921C253.126 27.4948 250.814 32.8268 246.807 36.7449C242.8 40.663 237.418 42.8554 231.814 42.852ZM231.736 0.922398C227.782 0.9292 223.916 2.0873 220.609 4.25528C217.302 6.42325 214.698 9.50727 213.115 13.1307C211.532 16.7541 211.038 20.7601 211.694 24.6594C212.35 28.5587 214.128 32.1826 216.809 35.0885C219.491 37.9944 222.961 40.0566 226.795 41.0231C230.629 41.9896 234.662 41.8187 238.4 40.5312C242.139 39.2437 245.422 36.8954 247.848 33.773C250.274 30.6507 251.738 26.8894 252.062 22.9485C252.283 20.2842 251.976 17.6025 251.16 15.0567C250.344 12.5109 249.034 10.1509 247.305 8.11156C245.577 6.07222 243.463 4.39353 241.085 3.17142C238.707 1.9493 236.112 1.20773 233.448 0.989074C232.87 0.944622 232.303 0.922398 231.736 0.922398Z" fill="black"/>
<path d="M220.879 80.8143C218.978 71.1793 218.134 64.4559 220.212 54.4763C197.664 58.0547 179.66 52.876 162.424 45.2858C163.224 42.163 166.458 35.8286 168.814 33.5059C174.582 27.7938 180.727 23.3041 193.152 22.7596C201.864 22.3818 212.688 24.1265 220.234 28.4495C227.78 32.7725 232.881 39.7626 236.404 47.1306C239.349 53.8097 240.238 61.2143 238.96 68.401C237.849 74.5576 234.759 78.2138 229.903 83.0147C228.791 81.67 227.736 80.3587 225.946 80.0142C224.215 79.7771 222.453 80.0554 220.879 80.8143Z" fill="black"/>
<path d="M229.925 83.6258C229.842 83.6225 229.76 83.602 229.686 83.5657C229.611 83.5293 229.545 83.4779 229.491 83.4146L229.358 83.248C228.247 81.9922 227.391 80.9031 225.891 80.6253C224.264 80.3996 222.607 80.6667 221.134 81.3921C220.97 81.4588 220.787 81.4588 220.623 81.3921C220.546 81.3474 220.479 81.2865 220.427 81.2136C220.375 81.1408 220.34 81.0576 220.323 80.9698C218.6 72.2793 217.534 65.2892 219.478 55.2541C195.83 58.7881 177.249 52.5203 162.235 45.8858C162.101 45.8291 161.992 45.7257 161.929 45.5949C161.866 45.4641 161.852 45.3147 161.89 45.1746C162.735 41.9073 166.069 35.4617 168.436 33.1169C173.704 27.9048 179.938 22.7706 193.185 22.2038C200.964 21.8593 212.266 23.204 220.601 27.9715C227.269 31.8166 232.825 38.1955 237.004 46.8637C240.018 53.6568 240.924 61.1983 239.604 68.512C238.404 75.0909 234.87 79.0139 230.38 83.448C230.321 83.5079 230.25 83.5548 230.171 83.5854C230.093 83.6161 230.009 83.6298 229.925 83.6258ZM224.735 79.3028C225.186 79.3014 225.636 79.3423 226.08 79.4251C227.658 79.8293 229.039 80.7878 229.969 82.1255C234.837 77.258 237.359 73.8574 238.382 68.3009C239.624 61.2378 238.75 53.9649 235.87 47.3972C231.814 38.9068 226.457 32.7168 219.956 28.9939C211.855 24.3487 200.831 23.0484 193.196 23.3818C180.394 23.9375 174.304 28.9384 169.258 33.9392C167.158 36.0174 164.157 41.7184 163.168 44.9523C178.149 51.5201 196.619 57.6212 220.112 53.8428C220.209 53.8257 220.309 53.833 220.403 53.8638C220.497 53.8947 220.581 53.9482 220.649 54.0197C220.718 54.0911 220.767 54.1783 220.793 54.2734C220.82 54.3686 220.822 54.4688 220.801 54.5651C218.723 64.5669 219.689 71.4903 221.345 79.9585C222.428 79.5416 223.575 79.3196 224.735 79.3028Z" fill="black"/>
<path d="M185.695 100.04C184.535 100.107 183.38 99.857 182.352 99.3166C181.324 98.7762 180.462 97.9659 179.861 96.9727C179.784 96.8253 179.769 96.6535 179.819 96.4952C179.869 96.3368 179.98 96.2047 180.127 96.1281C180.275 96.0515 180.446 96.0365 180.605 96.0865C180.763 96.1366 180.895 96.2474 180.972 96.3948C181.486 97.214 182.218 97.8749 183.085 98.3044C183.951 98.7339 184.92 98.9154 185.884 98.8286C188.428 98.7509 190.853 97.7288 192.685 95.9614C192.743 95.9067 192.81 95.8638 192.885 95.8353C192.959 95.8068 193.038 95.7932 193.117 95.7953C193.197 95.7974 193.275 95.8151 193.348 95.8474C193.42 95.8797 193.486 95.926 193.541 95.9836C193.595 96.0413 193.638 96.1091 193.667 96.1833C193.695 96.2575 193.709 96.3366 193.707 96.4161C193.705 96.4955 193.687 96.5738 193.655 96.6464C193.622 96.7191 193.576 96.7846 193.518 96.8393C191.469 98.818 188.754 99.9595 185.906 100.04H185.695Z" fill="black"/>
<path d="M198.786 78.1471C198.903 77.7693 198.903 77.3651 198.788 76.9868C198.673 76.6086 198.447 76.2736 198.139 76.025C197.831 75.7765 197.456 75.6259 197.062 75.5926C196.668 75.5593 196.273 75.6449 195.928 75.8383C195.583 76.0318 195.304 76.3241 195.127 76.6777C194.95 77.0312 194.883 77.4298 194.935 77.8219C194.986 78.2139 195.154 78.5815 195.417 78.8772C195.679 79.1729 196.025 79.3831 196.408 79.4807C196.9 79.6176 197.426 79.5543 197.872 79.3044C198.318 79.0545 198.646 78.6385 198.786 78.1471Z" fill="black"/>
<path d="M170.948 68.7787C171.067 68.3989 171.069 67.9921 170.954 67.611C170.839 67.2299 170.613 66.892 170.304 66.641C169.995 66.3899 169.618 66.2373 169.222 66.2028C168.825 66.1683 168.428 66.2536 168.08 66.4476C167.732 66.6415 167.451 66.9353 167.272 67.2909C167.093 67.6465 167.025 68.0475 167.077 68.4422C167.129 68.8368 167.297 69.207 167.561 69.5047C167.826 69.8024 168.173 70.0141 168.559 70.1123C168.803 70.1833 169.059 70.2051 169.312 70.1763C169.565 70.1476 169.81 70.0689 170.032 69.9448C170.254 69.8208 170.45 69.6538 170.607 69.4536C170.764 69.2535 170.88 69.0241 170.948 68.7787Z" fill="black"/>
<path d="M177.049 83.9481C176.895 83.9483 176.748 83.8885 176.637 83.7814L174.526 81.8589C174.283 81.7146 174.088 81.5028 173.963 81.2493C173.839 80.9959 173.79 80.7116 173.825 80.4313C173.859 80.151 173.974 79.8866 174.156 79.6705C174.337 79.4543 174.578 79.2957 174.848 79.2139C176.269 78.3402 177.473 77.1548 178.368 75.7474C179.263 74.34 179.827 72.7475 180.016 71.0903C180.033 70.9299 180.112 70.7827 180.237 70.6807C180.362 70.5787 180.522 70.5302 180.683 70.5457C180.762 70.554 180.838 70.5779 180.908 70.616C180.978 70.6541 181.039 70.7057 181.089 70.7677C181.138 70.8297 181.175 70.901 181.197 70.9773C181.219 71.0537 181.225 71.1336 181.216 71.2125C181.008 73.0548 180.384 74.8255 179.39 76.3908C178.397 77.9561 177.06 79.2749 175.482 80.2475C175.204 80.4253 175.048 80.5475 175.026 80.6142C175.11 80.7455 175.215 80.862 175.337 80.9587L177.46 82.8924C177.572 83.0066 177.635 83.1602 177.635 83.3202C177.635 83.4802 177.572 83.6338 177.46 83.7481C177.408 83.8071 177.345 83.8553 177.274 83.8896C177.204 83.924 177.127 83.9439 177.049 83.9481Z" fill="black"/>
<path d="M190.084 70.8126C189.972 70.8126 189.861 70.7815 189.765 70.7226C189.669 70.6638 189.591 70.5795 189.54 70.4792C188.922 69.3515 188.048 68.3848 186.989 67.657C185.929 66.9293 184.713 66.4608 183.439 66.2896C182.127 66.1229 180.605 66.4785 180.227 67.4787C180.199 67.5525 180.156 67.62 180.102 67.6773C180.047 67.7346 179.982 67.7806 179.91 67.8126C179.837 67.8446 179.759 67.862 179.68 67.8638C179.601 67.8656 179.523 67.8518 179.449 67.8232C179.373 67.7973 179.304 67.7562 179.244 67.7025C179.185 67.6488 179.137 67.5835 179.104 67.5107C179.071 67.4379 179.053 67.3591 179.051 67.2791C179.049 67.199 179.063 67.1195 179.093 67.0452C179.716 65.3783 181.805 64.8226 183.594 65.0894C185.062 65.2872 186.463 65.828 187.683 66.6678C188.903 67.5077 189.909 68.623 190.618 69.9235C190.692 70.0666 190.707 70.2333 190.659 70.3874C190.611 70.5414 190.505 70.6703 190.362 70.7459C190.276 70.789 190.181 70.8118 190.084 70.8126Z" fill="black"/>
<path d="M220.268 80.5142C220.194 80.525 220.119 80.525 220.045 80.5142L211.01 76.9581C210.937 76.9298 210.869 76.8872 210.812 76.8327C210.754 76.7782 210.708 76.713 210.676 76.6407C210.644 76.5684 210.627 76.4905 210.625 76.4115C210.623 76.3324 210.637 76.2538 210.666 76.1802C210.725 76.0303 210.842 75.9099 210.989 75.8454C211.137 75.7809 211.304 75.7774 211.455 75.8356L220.49 79.3807C220.64 79.4402 220.76 79.5565 220.825 79.7043C220.889 79.8521 220.893 80.0194 220.834 80.1697C220.784 80.2765 220.704 80.3661 220.603 80.4274C220.502 80.4887 220.385 80.5189 220.268 80.5142Z" fill="black"/>
<path d="M219.434 87.4822C219.357 87.4981 219.278 87.4981 219.201 87.4822C219.053 87.4206 218.935 87.3035 218.873 87.1559C218.81 87.0083 218.808 86.8422 218.867 86.6932C219.771 84.4719 220.209 82.0893 220.156 79.692C220.153 79.5317 220.213 79.3767 220.324 79.2603C220.434 79.1439 220.585 79.0754 220.745 79.0696C220.825 79.0667 220.905 79.0796 220.979 79.1078C221.054 79.1359 221.122 79.1786 221.18 79.2335C221.238 79.2883 221.285 79.3542 221.317 79.4272C221.349 79.5002 221.366 79.5789 221.368 79.6586C221.43 82.2237 220.961 84.7738 219.99 87.1488C219.939 87.2518 219.859 87.3379 219.761 87.397C219.662 87.4561 219.549 87.4857 219.434 87.4822Z" fill="black"/>
<path d="M238.17 208.615C246.95 203.514 261.508 185.41 257.518 170.741C255.396 162.962 251.651 134.79 210.621 132.168C209.799 145.237 197.052 151.138 188.906 152.171C184.461 152.705 167.791 152.171 167.791 132.801C156.678 133.401 142.743 135.113 121.228 143.681C104.925 150.182 77.1309 154.472 77.1309 154.472C77.1309 154.472 49.026 118.521 38.9353 103.774C33.3788 95.6835 23.377 129.223 17.2093 115.065C16.2758 112.92 45.9921 172.364 48.4147 176.853C61.0392 200.358 119.316 185.488 130.596 185.488C129.485 201.858 136.486 211.537 142.176 216.505C143.932 254.289 134.686 280.461 134.686 280.461C134.686 280.461 186.384 299.664 239.904 283.85C243.983 282.539 229.625 249.444 238.17 208.615Z" fill="#048C44"/>
<path d="M194.663 290.585C185.441 290.573 176.23 289.905 167.103 288.584C155.998 287.073 145.061 284.509 134.441 280.927C134.293 280.872 134.172 280.761 134.106 280.617C134.039 280.474 134.032 280.309 134.086 280.161C134.175 279.894 143.221 253.789 141.543 216.694C136.686 212.382 128.996 202.814 129.918 186.011C127.562 186.1 123.639 186.666 118.805 187.378C97.6016 190.445 58.1391 196.157 47.8706 177.042C46.6259 174.731 38.38 158.339 30.423 142.481C25.0888 131.89 19.6211 120.999 17.543 116.921C17.1981 116.379 16.8971 115.81 16.6428 115.22C16.603 115.146 16.5785 115.065 16.571 114.981C16.5634 114.898 16.5729 114.813 16.5988 114.733C16.6248 114.653 16.6667 114.579 16.722 114.516C16.7773 114.453 16.8449 114.401 16.9207 114.365C17.4541 114.109 17.6652 114.509 18.032 115.22C18.1653 115.498 18.3542 115.854 18.5765 116.332C18.7793 116.735 19.0705 117.087 19.4284 117.363C19.7863 117.638 20.2016 117.829 20.6435 117.921C23.0217 118.176 26.1334 113.698 28.8783 109.764C31.6233 105.83 34.4349 101.829 36.9353 101.829C37.4447 101.858 37.9386 102.015 38.3717 102.285C38.8047 102.555 39.1629 102.929 39.4135 103.374C48.9041 117.243 74.7086 150.349 77.3646 153.761C80.643 153.238 105.914 149.06 120.983 143.07C142.432 134.524 156.656 132.746 167.736 132.134C167.9 132.133 168.059 132.192 168.181 132.301C168.241 132.358 168.289 132.427 168.322 132.504C168.354 132.58 168.371 132.663 168.37 132.746C168.37 139.125 170.226 144.003 173.859 147.193C178.616 151.416 185.517 151.86 188.84 151.471C195.797 150.638 209.177 145.515 210.033 132.079C210.037 132.001 210.057 131.924 210.091 131.853C210.125 131.782 210.174 131.719 210.233 131.668C210.292 131.613 210.362 131.57 210.439 131.544C210.515 131.517 210.596 131.506 210.677 131.512C227.18 132.568 239.649 137.891 247.717 147.315C254.385 155.094 256.496 163.885 257.641 168.619C257.819 169.352 257.974 169.997 258.119 170.541C262.208 185.566 247.572 203.647 238.715 208.959C233.159 235.631 237.537 259.39 239.827 272.17C241.271 280.138 241.938 283.772 240.016 284.339C225.273 288.573 210.001 290.676 194.663 290.585ZM135.419 279.983C145.804 283.416 156.479 285.897 167.314 287.395C185.095 289.951 212.166 291.307 239.704 283.172C240.582 282.917 239.56 277.327 238.66 272.393C236.315 259.479 231.925 235.453 237.549 208.448C237.567 208.365 237.602 208.287 237.652 208.218C237.701 208.149 237.765 208.091 237.837 208.048C246.728 202.88 260.708 184.833 256.919 170.852C256.763 170.297 256.607 169.652 256.418 168.897C253.996 158.895 248.317 135.391 211.166 132.768C210.887 135.615 210 138.368 208.566 140.843C207.132 143.318 205.184 145.457 202.854 147.115C198.76 150.106 193.978 152.017 188.951 152.671C187.984 152.794 179.272 153.649 173.026 148.104C169.236 144.77 167.258 139.78 167.136 133.335C156.245 133.979 142.276 135.835 121.395 144.148C105.214 150.593 77.4424 154.927 77.1646 154.972C77.059 154.988 76.951 154.975 76.8516 154.936C76.7521 154.897 76.6647 154.833 76.5978 154.75C76.3089 154.383 48.3595 118.61 38.38 104.018C38.2365 103.741 38.0264 103.503 37.7684 103.326C37.5105 103.15 37.2128 103.04 36.902 103.007C35.0127 103.007 32.2567 106.941 29.834 110.42C26.6112 115.031 23.5663 119.399 20.4879 119.088C20.2924 119.068 20.099 119.031 19.9101 118.977L21.9215 122.955L31.4677 141.936C39.0579 157.05 47.6705 174.164 48.9041 176.476C58.7725 194.834 97.6905 189.2 118.605 186.177C122.559 185.49 126.547 185.023 130.552 184.777C130.635 184.776 130.717 184.792 130.794 184.825C130.87 184.857 130.939 184.905 130.996 184.966C131.055 185.026 131.1 185.097 131.129 185.176C131.158 185.254 131.169 185.338 131.163 185.422C130.052 202.358 137.831 211.815 142.532 215.949C142.656 216.061 142.731 216.216 142.743 216.383C144.343 250.844 136.742 275.927 135.419 279.983Z" fill="black"/>
<path d="M21.4657 13.569L142.143 19.1922L126.229 136.124L4.94058 133.901L21.4657 13.569Z" fill="#F36430"/>
<path d="M126.24 136.724L4.94085 134.502C4.77146 134.489 4.61283 134.414 4.49633 134.29C4.44114 134.225 4.39986 134.148 4.37502 134.066C4.35019 133.984 4.34231 133.898 4.35186 133.813L20.8659 13.4913C20.8966 13.3562 20.9732 13.2358 21.0826 13.1508C21.192 13.0657 21.3274 13.0211 21.466 13.0245L142.143 18.5811C142.228 18.5833 142.311 18.6035 142.388 18.6405C142.465 18.6774 142.532 18.7302 142.587 18.7954C142.642 18.8605 142.682 18.9365 142.705 19.0184C142.728 19.1002 142.733 19.186 142.721 19.2701L126.84 136.202C126.819 136.346 126.747 136.478 126.637 136.574C126.527 136.67 126.386 136.723 126.24 136.724ZM5.64098 133.301L125.662 135.524L141.487 19.7591L22.0216 14.2025L5.64098 133.301Z" fill="black"/>
<path d="M156.245 152.06C152.5 148.304 148.233 144.803 144.299 135.668C141.787 129.845 133.341 117.021 130.241 115.443C125.028 112.809 121.895 110.431 116.994 109.764C112.904 109.219 104.858 110.264 104.625 111.698C103.903 116.143 114.627 113.32 115.482 113.642C118.65 114.754 121.761 116.009 124.573 119.588C120.194 119.754 112.56 120.699 110.626 121.944C108.692 123.188 103.258 129.812 102.658 130.979C101.602 133.012 102.658 135.024 105.236 132.901C105.369 132.79 110.515 129.167 112.382 126.867C113.137 125.944 120.817 125.233 124.328 125.911C120.705 124.722 113.849 125.522 112.337 126.889C111.982 127.211 106.303 133.401 105.947 134.035C104.458 136.646 106.992 137.624 109.003 136.124C111.282 134.413 113.682 131.679 114.271 131.334C117.505 129.678 120.828 130.623 123.595 130.956C120.883 130.434 117.738 129.845 114.416 131.157C113.827 131.379 107.748 136.235 109.159 138.624C109.915 139.914 112.804 139.236 116.327 135.291C118.025 135.6 119.706 136.001 121.361 136.491C122.573 136.78 126.707 145.97 131.363 148.648C132.308 149.182 135.508 157.15 141.242 167.93C142.487 170.263 148.199 173.908 154.467 165.196C156.779 162.04 159.79 155.605 156.245 152.06Z" fill="#FFEDE5"/>
<path d="M146.299 171.308H145.866C144.829 171.243 143.823 170.929 142.933 170.394C142.043 169.858 141.296 169.115 140.754 168.23C138.009 163.073 135.83 158.517 134.23 155.194C133.344 153.106 132.292 151.092 131.085 149.171C128.018 147.426 125.284 143.159 123.306 140.036C122.707 138.986 122.003 137.999 121.206 137.091C120.606 136.946 120.094 136.791 119.561 136.646C118.585 136.348 117.59 136.114 116.583 135.946C114.193 138.558 111.793 140.002 110.115 139.836C109.819 139.818 109.532 139.729 109.279 139.576C109.025 139.423 108.813 139.211 108.659 138.958C108.357 138.412 108.281 137.77 108.448 137.169C107.987 137.4 107.471 137.499 106.958 137.456C106.444 137.413 105.952 137.229 105.536 136.924C104.747 136.224 104.703 135.035 105.436 133.757C105.436 133.668 105.614 133.501 105.792 133.279L105.636 133.401C103.803 134.935 102.725 134.39 102.302 134.09C101.502 133.435 101.413 132.057 102.102 130.756C102.791 129.456 108.159 122.81 110.293 121.488C112.26 120.254 119.105 119.365 123.306 119.099C121.116 116.807 118.354 115.141 115.305 114.276C114.698 114.303 114.093 114.366 113.493 114.465C110.604 114.854 106.225 115.443 104.603 113.776C104.34 113.496 104.149 113.157 104.046 112.787C103.944 112.417 103.932 112.028 104.014 111.653C104.38 109.43 113.671 108.764 117.06 109.219C120.861 109.742 123.562 111.22 126.984 113.087C128.096 113.687 129.207 114.309 130.507 114.965C133.841 116.632 142.298 129.589 144.843 135.49C147.209 141.183 150.807 146.28 155.378 150.415L156.667 151.682C160.49 155.505 157.423 162.229 155 165.596C151.633 170.23 148.477 171.308 146.299 171.308ZM116.294 134.635H116.383C117.553 134.806 118.708 135.066 119.839 135.413C120.35 135.557 120.883 135.713 121.461 135.846C122.039 135.979 122.761 136.957 124.273 139.313C126.195 142.325 128.851 146.448 131.674 148.059C132.308 148.415 133.041 149.915 135.297 154.605C136.886 157.939 139.064 162.462 141.798 167.596C142.241 168.299 142.845 168.886 143.56 169.31C144.275 169.733 145.081 169.98 145.91 170.03C147.777 170.152 150.7 169.352 153.989 164.785C156.034 161.94 159.046 155.694 155.789 152.438L154.512 151.182C149.823 146.956 146.134 141.741 143.71 135.913C141.12 129.912 132.73 117.398 129.929 115.987C128.64 115.331 127.484 114.709 126.373 114.098C123.039 112.286 120.45 110.853 116.883 110.375C112.704 109.808 105.77 110.964 105.192 111.82C105.142 112.004 105.14 112.198 105.187 112.382C105.234 112.567 105.327 112.737 105.458 112.875C106.647 114.098 111.015 113.52 113.304 113.209C114.075 113.022 114.873 112.973 115.66 113.064C118.994 114.176 122.15 115.576 125.017 119.21C125.085 119.3 125.126 119.406 125.138 119.517C125.15 119.629 125.131 119.741 125.084 119.843C125.039 119.945 124.966 120.033 124.874 120.095C124.781 120.158 124.673 120.194 124.562 120.199C119.728 120.377 112.571 121.421 110.904 122.422C109.015 123.6 103.769 130.067 103.125 131.234C102.691 132.079 102.725 132.857 103.014 133.079C103.302 133.301 103.891 133.146 104.781 132.401L105.036 132.212C106.976 130.843 108.831 129.359 110.593 127.767C111.304 127 111.815 126.456 111.915 126.367C113.593 124.844 120.639 124 124.495 125.255C124.642 125.302 124.765 125.402 124.839 125.537C124.914 125.671 124.934 125.829 124.895 125.978C124.856 126.126 124.762 126.254 124.632 126.337C124.502 126.419 124.346 126.45 124.195 126.422C120.606 125.722 113.771 126.511 112.86 127.145C112.437 127.656 111.976 128.135 111.482 128.578C109.715 130.501 106.748 133.79 106.492 134.212C106.059 134.968 106.003 135.568 106.347 135.868C106.721 136.059 107.146 136.127 107.561 136.064C107.975 136 108.36 135.807 108.659 135.513C108.981 135.268 109.304 135.013 109.626 134.735C110.903 133.059 112.459 131.615 114.227 130.467C114.737 130.273 115.261 130.113 115.794 129.99C116.675 129.76 117.583 129.648 118.494 129.656C120.259 129.651 122.018 129.844 123.739 130.234C123.893 130.264 124.029 130.352 124.119 130.481C124.208 130.61 124.243 130.769 124.217 130.923C124.193 131.077 124.11 131.216 123.986 131.311C123.862 131.406 123.706 131.45 123.55 131.434C123.073 131.434 122.595 131.301 122.084 131.223C120.728 130.971 119.35 130.856 117.972 130.879C117.439 130.922 116.908 130.992 116.383 131.09C115.755 131.237 115.147 131.457 114.571 131.745C114.084 132.153 113.62 132.587 113.182 133.046C112.437 133.79 111.493 134.724 110.504 135.579C110.15 136.054 109.869 136.578 109.67 137.135C109.59 137.31 109.549 137.499 109.549 137.691C109.549 137.883 109.59 138.072 109.67 138.247C109.728 138.335 109.807 138.407 109.9 138.456C109.994 138.504 110.098 138.528 110.204 138.524C111.193 138.624 113.271 137.713 115.86 134.801C115.925 134.749 116 134.71 116.08 134.687C116.16 134.665 116.244 134.658 116.327 134.668L116.294 134.635Z" fill="black"/>
<path d="M0.906894 64.3447C-0.293317 58.1103 2.74055 46.5638 5.35212 44.2523C9.67511 40.3294 12.02 37.2066 16.6208 35.2618C20.4215 33.6504 28.4562 32.5391 29.0563 33.8505C30.9233 37.9401 19.888 38.0512 19.0545 38.5958C16.2985 40.5072 13.6313 42.552 11.8644 46.7416C16.1318 45.7415 23.7554 44.6635 25.9446 45.3192C28.1339 45.9748 35.1241 50.9535 36.0242 51.9203C37.58 53.6095 37.0466 55.8321 34.0461 54.4541C33.8794 54.3763 27.9561 52.2315 25.5557 50.5312C24.5777 49.8422 16.9875 51.1869 13.7758 52.7538C16.9542 50.6423 23.7776 49.5977 25.6001 50.5312C26.0336 50.7535 33.1459 55.2098 33.6571 55.721C35.7797 57.8436 33.5904 59.4661 31.2567 58.5437C28.6118 57.5102 25.5557 55.4654 24.9111 55.3209C21.355 54.5875 18.3989 56.4323 15.8207 57.4324C18.2989 56.21 21.1772 54.8542 24.7111 55.2098C25.3446 55.2098 32.4903 58.3326 31.7568 61.0219C31.379 62.4666 28.4229 62.5667 23.9776 59.6884C22.425 60.4337 20.915 61.2648 19.4546 62.1777C18.3433 62.7889 16.7986 72.7351 12.9757 76.558C12.2089 77.3248 11.5421 84.3927 10.8198 90.8717C9.9974 98.273 2.19601 71.0015 0.906894 64.3447Z" fill="#FFEDE5"/>
<path d="M10.2083 92.7497C9.5526 92.7497 8.31905 92.2385 4.65174 80.6587C2.61804 74.1575 0.828848 67.323 0.284307 64.4558C-0.949244 58.0769 2.0624 46.3526 4.87401 43.7966C5.98532 42.8409 6.87435 41.9296 7.77451 41.0628C10.575 38.3512 12.7865 36.2064 16.3205 34.7061C19.4655 33.3614 28.6004 31.5278 29.545 33.5948C29.727 33.937 29.8221 34.3186 29.8221 34.7061C29.8221 35.0936 29.727 35.4752 29.545 35.8174C28.4337 37.8622 24.0552 38.4512 21.1658 38.8402C20.5597 38.9004 19.9583 39.0006 19.3654 39.1402C16.6498 40.7785 14.4238 43.1158 12.9199 45.9081C17.0428 45.0524 23.8885 44.0966 26.1111 44.7968C28.5226 45.508 35.4794 50.5089 36.4573 51.5646C37.4353 52.6204 37.7576 54.0206 37.1464 54.8986C36.8685 55.2875 35.9684 56.0988 33.8124 55.0986L33.6457 55.0319C33.8067 55.1424 33.9591 55.265 34.1014 55.3987C35.1571 56.4433 35.435 57.6213 34.846 58.477C34.5295 58.8832 34.106 59.1931 33.623 59.3718C33.14 59.5504 32.6168 59.5908 32.1121 59.4883C32.2714 59.7525 32.3769 60.0456 32.4227 60.3507C32.4685 60.6559 32.4536 60.967 32.3789 61.2664C32.2991 61.5512 32.1511 61.8124 31.9479 62.0273C31.7446 62.2422 31.492 62.4044 31.212 62.4999C29.6339 63.1 26.9335 62.3443 23.944 60.4662C23.0181 60.8949 22.1199 61.3811 21.2547 61.922C20.799 62.1999 20.3212 62.4888 19.7877 62.7888C19.2607 63.8743 18.8438 65.0098 18.5431 66.1783C17.4318 69.7234 15.9315 74.5687 13.42 77.0803C12.8865 77.7693 12.242 83.6925 11.7197 88.4378C11.6308 89.3046 11.5307 90.1715 11.4418 91.0272C11.3863 91.5161 11.2418 92.7941 10.3305 92.8275L10.2083 92.7497ZM1.46229 64.2224C2.69584 70.668 8.13015 88.9824 10.086 91.3383C10.1304 91.1633 10.1601 90.9849 10.1749 90.8049C10.275 89.9492 10.3639 89.0824 10.4639 88.2156C11.3196 80.4364 11.7641 76.8691 12.5087 76.1356C14.8091 73.8241 16.2649 69.1455 17.3318 65.7338C18.1541 63.0667 18.5209 61.9776 19.121 61.6442C19.7211 61.3108 20.11 61.0774 20.5657 60.7996C21.5652 60.1631 22.613 59.6057 23.6996 59.1326C23.7867 59.086 23.8841 59.0615 23.9829 59.0615C24.0818 59.0615 24.1791 59.086 24.2663 59.1326C27.5447 61.2552 29.8229 61.5886 30.7119 61.233C31.0786 61.0885 31.1342 60.8885 31.1564 60.8218C31.1901 60.6395 31.1847 60.4522 31.1406 60.2721C31.0966 60.092 31.0148 59.9234 30.9008 59.7772C30.57 59.2876 30.1607 58.8558 29.6895 58.4992C28.5115 57.9435 27.3446 57.2879 26.4334 56.7767C25.8911 56.4423 25.3268 56.1453 24.7442 55.8876C24.0874 55.7466 23.4141 55.6979 22.7438 55.7432C22.27 55.7773 21.7986 55.8404 21.3325 55.9321C19.9617 56.269 18.6315 56.7534 17.3651 57.3768L16.0093 57.9658C15.8645 58.0176 15.7056 58.013 15.564 57.9529C15.4225 57.8927 15.3089 57.7814 15.2458 57.6412C15.1826 57.501 15.1747 57.3421 15.2236 57.1963C15.2724 57.0505 15.3744 56.9284 15.5092 56.8545C17.0654 56.0259 18.7092 55.3736 20.4101 54.9097C21.2883 54.6562 22.1966 54.5216 23.1106 54.5096C23.6544 54.471 24.2003 54.471 24.7442 54.5096C26.7478 55.1534 28.627 56.1343 30.3007 57.4101L31.412 57.9102C31.7813 58.111 32.2034 58.1931 32.621 58.1454C33.0386 58.0977 33.4313 57.9224 33.7458 57.6435C33.9902 57.2656 33.7458 56.6878 33.1568 56.0766C32.8011 55.7432 29.0672 53.3538 26.8557 51.9647C26.2606 51.6604 25.6853 51.3189 25.1331 50.9423H24.9998C23.7329 50.6534 17.2206 51.698 13.9756 53.2761C13.8391 53.345 13.6814 53.3593 13.5348 53.3159C13.3882 53.2725 13.2636 53.1748 13.1866 53.0427C13.1069 52.9093 13.0822 52.7502 13.1174 52.5989C13.1526 52.4476 13.2451 52.3159 13.3755 52.2314C16.7094 50.0088 23.7773 48.8975 25.7999 50.0088C25.9222 50.0088 26.5667 50.4644 27.4447 51.009C29.5479 52.0646 31.7113 52.996 33.9236 53.7984L34.2236 53.9095C35.2794 54.3985 35.9239 54.354 36.1128 54.1095C36.3018 53.865 36.1129 52.9982 35.5128 52.3537C34.6126 51.3868 27.8447 46.5526 25.6999 45.9081C23.8329 45.3524 16.6427 46.2415 11.9419 47.3417C11.8335 47.3657 11.7206 47.3597 11.6153 47.3243C11.5101 47.289 11.4165 47.2257 11.3445 47.1411C11.2725 47.0566 11.2249 46.954 11.2068 46.8445C11.1887 46.7349 11.2008 46.6225 11.2418 46.5193C13.0421 42.2519 15.7648 40.1071 18.6431 38.1067C19.3756 37.8125 20.1545 37.6507 20.9435 37.6288C23.2661 37.3066 27.6114 36.7287 28.4226 35.2173C28.5202 35.0484 28.5715 34.8567 28.5715 34.6617C28.5715 34.4666 28.5202 34.2749 28.4226 34.106C27.6336 33.4281 20.6435 34.106 16.7761 35.8063C13.4422 37.2177 11.3085 39.2847 8.5969 41.9074C7.68563 42.7853 6.741 43.6966 5.66303 44.6745C3.36262 46.7638 0.262067 58.0102 1.45117 64.2002L1.46229 64.2224Z" fill="black"/>
<path d="M65.7292 57.31L65.8404 83.3368L94.1454 70.0123L65.7292 57.31Z" fill="white"/>
<path d="M65.8401 83.9371C65.7269 83.9353 65.616 83.9047 65.5178 83.8482C65.432 83.7935 65.3614 83.7179 65.3128 83.6285C65.2642 83.5391 65.2392 83.4387 65.24 83.337L65.1178 57.299C65.1185 57.1979 65.1443 57.0986 65.1929 57.0099C65.2415 56.9212 65.3113 56.846 65.3961 56.7909C65.4809 56.7359 65.578 56.7027 65.6788 56.6944C65.7795 56.6861 65.8808 56.7029 65.9735 56.7434L94.3896 69.4567C94.496 69.5055 94.5862 69.5838 94.6494 69.6823C94.7126 69.7808 94.7462 69.8953 94.7462 70.0124C94.7462 70.1294 94.7126 70.244 94.6494 70.3425C94.5862 70.441 94.496 70.5193 94.3896 70.568L66.0957 83.9037C66.013 83.9292 65.9266 83.9405 65.8401 83.9371ZM66.3402 58.2325L66.4513 82.3701L92.6893 70.0235L66.3402 58.2325Z" fill="black"/>
<path d="M137.042 26.538L132.185 26.3268C132.105 26.3256 132.026 26.3079 131.953 26.2749C131.88 26.2418 131.814 26.1942 131.76 26.1349C131.706 26.0756 131.664 26.0058 131.638 25.9299C131.612 25.8539 131.602 25.7735 131.608 25.6934C131.61 25.6136 131.629 25.5352 131.663 25.4627C131.696 25.3902 131.744 25.3252 131.803 25.2713C131.862 25.2175 131.931 25.176 132.006 25.1493C132.081 25.1225 132.161 25.111 132.241 25.1155L137.086 25.3267C137.167 25.328 137.246 25.3456 137.319 25.3787C137.392 25.4117 137.458 25.4593 137.512 25.5186C137.566 25.5779 137.608 25.6477 137.634 25.7236C137.66 25.7996 137.67 25.88 137.664 25.9601C137.661 26.0389 137.643 26.1164 137.61 26.1881C137.577 26.2599 137.531 26.3244 137.473 26.3781C137.415 26.4317 137.347 26.4735 137.273 26.5009C137.199 26.5284 137.121 26.541 137.042 26.538ZM127.34 26.1268L122.495 25.9268C122.335 25.9181 122.184 25.8469 122.076 25.7284C121.968 25.6099 121.911 25.4536 121.917 25.2933C121.918 25.2136 121.936 25.1349 121.968 25.0619C122 24.9889 122.047 24.923 122.104 24.8682C122.162 24.8133 122.231 24.7706 122.305 24.7425C122.38 24.7143 122.46 24.7014 122.539 24.7043L127.396 24.9155C127.542 24.9354 127.677 25.0077 127.774 25.1191C127.871 25.2304 127.925 25.3733 127.925 25.5211C127.925 25.669 127.871 25.8119 127.774 25.9232C127.677 26.0346 127.542 26.1069 127.396 26.1268H127.34ZM117.638 25.7156L112.793 25.5156C112.632 25.507 112.48 25.4361 112.371 25.3179C112.261 25.1997 112.201 25.0435 112.204 24.8821C112.213 24.722 112.284 24.5716 112.403 24.4635C112.521 24.3554 112.677 24.2982 112.838 24.3043L117.694 24.5043C117.854 24.5129 118.005 24.5842 118.113 24.7027C118.221 24.8212 118.278 24.9775 118.272 25.1377C118.266 25.293 118.2 25.44 118.088 25.5478C117.977 25.6556 117.827 25.7157 117.672 25.7156H117.638ZM107.926 25.3044L103.08 25.1044C102.994 25.1161 102.906 25.1092 102.822 25.0842C102.739 25.0591 102.662 25.0165 102.596 24.9591C102.53 24.9017 102.478 24.831 102.442 24.7516C102.406 24.6722 102.387 24.586 102.387 24.4987C102.387 24.4115 102.406 24.3253 102.442 24.2459C102.478 24.1665 102.53 24.0958 102.596 24.0384C102.662 23.981 102.739 23.9384 102.822 23.9133C102.906 23.8882 102.994 23.8813 103.08 23.8931L107.937 24.0931C108.083 24.113 108.218 24.1853 108.315 24.2967C108.412 24.4081 108.466 24.5509 108.466 24.6988C108.466 24.8466 108.412 24.9895 108.315 25.1009C108.218 25.2122 108.083 25.2846 107.937 25.3044H107.926ZM98.2239 24.8933L93.3675 24.6932C93.221 24.6677 93.0889 24.5896 92.9958 24.4736C92.9028 24.3576 92.8552 24.2116 92.862 24.0631C92.8688 23.9146 92.9296 23.7736 93.0329 23.6666C93.1361 23.5596 93.2749 23.494 93.4231 23.4819L98.2795 23.6819C98.426 23.7018 98.5603 23.7742 98.6576 23.8855C98.7549 23.9969 98.8085 24.1397 98.8085 24.2876C98.8085 24.4355 98.7549 24.5783 98.6576 24.6897C98.5603 24.801 98.426 24.8734 98.2795 24.8933H98.2239ZM88.5222 24.4932L83.6658 24.282C83.5794 24.2938 83.4914 24.2869 83.4079 24.2618C83.3244 24.2368 83.2472 24.1941 83.1815 24.1367C83.1158 24.0794 83.0632 24.0086 83.0271 23.9292C82.991 23.8498 82.9723 23.7636 82.9723 23.6764C82.9723 23.5892 82.991 23.503 83.0271 23.4236C83.0632 23.3442 83.1158 23.2734 83.1815 23.216C83.2472 23.1587 83.3244 23.116 83.4079 23.0909C83.4914 23.0659 83.5794 23.059 83.6658 23.0707L88.5111 23.2707C88.6732 23.2707 88.8287 23.3351 88.9433 23.4498C89.0579 23.5644 89.1223 23.7199 89.1223 23.882C89.1223 24.0441 89.0579 24.1995 88.9433 24.3142C88.8287 24.4288 88.6732 24.4932 88.5111 24.4932H88.5222ZM78.8205 24.082L73.9641 23.8709C73.8776 23.8779 73.7905 23.8664 73.7088 23.8372C73.6271 23.808 73.5525 23.7617 73.4901 23.7014C73.4276 23.6411 73.3787 23.5682 73.3466 23.4876C73.3145 23.4069 73.3 23.3203 73.304 23.2336C73.3079 23.1469 73.3304 23.0621 73.3697 22.9847C73.409 22.9073 73.4644 22.8392 73.5321 22.7849C73.5998 22.7306 73.6783 22.6913 73.7624 22.6697C73.8464 22.6481 73.9341 22.6446 74.0197 22.6595L78.8649 22.8707C78.9442 22.872 79.0225 22.8894 79.0949 22.9217C79.1673 22.9541 79.2324 23.0007 79.2864 23.0588C79.3404 23.1169 79.382 23.1853 79.4089 23.2599C79.4358 23.3346 79.4473 23.4138 79.4428 23.493C79.4489 23.5745 79.4382 23.6565 79.4115 23.7337C79.3848 23.811 79.3425 23.882 79.2874 23.9423C79.2322 24.0027 79.1653 24.0512 79.0908 24.0847C79.0162 24.1183 78.9356 24.1363 78.8539 24.1376L78.8205 24.082ZM69.1188 23.6708L64.2735 23.4597C64.127 23.4398 63.9926 23.3674 63.8954 23.2561C63.7981 23.1447 63.7445 23.0019 63.7445 22.854C63.7445 22.7061 63.7981 22.5633 63.8954 22.4519C63.9926 22.3406 64.127 22.2682 64.2735 22.2483L69.1299 22.4595C69.2102 22.4608 69.2894 22.4785 69.3626 22.5115C69.4358 22.5445 69.5015 22.5921 69.5556 22.6515C69.6097 22.7108 69.6512 22.7805 69.6773 22.8565C69.7035 22.9324 69.7139 23.0129 69.7078 23.0929C69.7027 23.2408 69.6432 23.3816 69.5406 23.4883C69.4381 23.5949 69.2997 23.6599 69.1521 23.6708H69.1188ZM59.4171 23.2596L54.5718 23.0596C54.4915 23.0596 54.412 23.0438 54.3379 23.0131C54.2637 22.9824 54.1963 22.9373 54.1396 22.8806C54.0828 22.8238 54.0378 22.7564 54.0071 22.6823C53.9764 22.6081 53.9605 22.5287 53.9605 22.4484C53.9605 22.3681 53.9764 22.2886 54.0071 22.2145C54.0378 22.1403 54.0828 22.0729 54.1396 22.0162C54.1963 21.9594 54.2637 21.9144 54.3379 21.8837C54.412 21.853 54.4915 21.8372 54.5718 21.8372L59.4282 22.0483C59.5884 22.0569 59.7387 22.1282 59.8468 22.2467C59.9549 22.3652 60.0121 22.5215 60.0061 22.6818C60.001 22.8296 59.9414 22.9704 59.8389 23.0771C59.7363 23.1838 59.598 23.2488 59.4504 23.2596H59.4171ZM49.7042 22.8484L44.8478 22.6484C44.6877 22.6398 44.5373 22.5685 44.4292 22.45C44.3211 22.3315 44.2639 22.1753 44.2699 22.015C44.2786 21.8548 44.3498 21.7044 44.4683 21.5963C44.5868 21.4882 44.7431 21.431 44.9034 21.4371L49.7598 21.6371C49.9063 21.657 50.0407 21.7293 50.1379 21.8407C50.2352 21.9521 50.2888 22.0949 50.2888 22.2428C50.2888 22.3906 50.2352 22.5335 50.1379 22.6449C50.0407 22.7562 49.9063 22.8286 49.7598 22.8484H49.7042ZM40.0025 22.4373L35.1461 22.2372C34.9859 22.2286 34.8356 22.1573 34.7275 22.0388C34.6194 21.9203 34.5622 21.7641 34.5682 21.6038C34.5695 21.5235 34.5872 21.4443 34.6202 21.3711C34.6532 21.2979 34.7009 21.2322 34.7602 21.1781C34.8195 21.124 34.8893 21.0825 34.9652 21.0564C35.0411 21.0302 35.1216 21.0198 35.2017 21.0259L40.047 21.2259C40.1273 21.2288 40.2062 21.2475 40.2793 21.2809C40.3523 21.3143 40.4181 21.3617 40.4728 21.4206C40.5275 21.4794 40.5701 21.5484 40.5981 21.6237C40.6261 21.699 40.6389 21.7791 40.636 21.8594C40.6251 22.0128 40.5577 22.1568 40.4469 22.2636C40.336 22.3703 40.1896 22.4322 40.0359 22.4373H40.0025ZM30.3564 22.0261L25.5 21.826C25.4135 21.8331 25.3264 21.8216 25.2447 21.7924C25.163 21.7632 25.0884 21.7169 25.0259 21.6566C24.9635 21.5963 24.9146 21.5234 24.8825 21.4428C24.8504 21.3621 24.8359 21.2755 24.8399 21.1888C24.8438 21.1021 24.8662 21.0172 24.9056 20.9399C24.9449 20.8625 25.0003 20.7944 25.068 20.7401C25.1357 20.6858 25.2142 20.6465 25.2983 20.6249C25.3823 20.6033 25.47 20.5998 25.5555 20.6147L30.3564 20.8036C30.5029 20.8235 30.6372 20.8959 30.7345 21.0072C30.8318 21.1186 30.8854 21.2614 30.8854 21.4093C30.8854 21.5572 30.8318 21.7 30.7345 21.8114C30.6372 21.9228 30.5029 21.9951 30.3564 22.015V22.0261Z" fill="black"/>
<path d="M94.6344 128.189L89.778 128.123C89.6179 128.12 89.4652 128.054 89.353 127.94C89.2408 127.825 89.1779 127.672 89.1779 127.511C89.1808 127.351 89.2465 127.199 89.3608 127.086C89.4751 126.974 89.629 126.911 89.7891 126.911L94.6456 126.978C94.7248 126.978 94.8033 126.994 94.8762 127.025C94.9492 127.056 95.0151 127.101 95.0701 127.158C95.1251 127.215 95.168 127.283 95.1963 127.357C95.2245 127.431 95.2375 127.51 95.2345 127.589C95.2345 127.748 95.1713 127.901 95.0588 128.014C94.9462 128.126 94.7936 128.189 94.6344 128.189ZM84.9216 128.056L80.0652 127.989C79.905 127.986 79.7524 127.921 79.6402 127.806C79.5279 127.692 79.4651 127.538 79.4651 127.378C79.465 127.297 79.4813 127.217 79.5128 127.143C79.5443 127.069 79.5905 127.002 79.6486 126.946C79.7067 126.89 79.7755 126.846 79.8509 126.817C79.9263 126.788 80.0068 126.775 80.0874 126.778L84.9438 126.845C85.104 126.848 85.2567 126.913 85.3689 127.028C85.4811 127.142 85.544 127.296 85.5439 127.456C85.5425 127.536 85.5252 127.615 85.4932 127.689C85.4611 127.763 85.4149 127.829 85.3571 127.885C85.2993 127.941 85.2311 127.984 85.1564 128.014C85.0817 128.043 85.0019 128.057 84.9216 128.056ZM75.2088 127.923L70.3524 127.856C70.1922 127.853 70.0396 127.787 69.9273 127.673C69.8151 127.559 69.7523 127.405 69.7523 127.245C69.7522 127.164 69.7684 127.084 69.8 127.01C69.8315 126.935 69.8777 126.868 69.9358 126.812C69.9939 126.756 70.0627 126.713 70.1381 126.684C70.2135 126.655 70.294 126.642 70.3746 126.645L75.231 126.711C75.3912 126.714 75.5438 126.78 75.656 126.894C75.7683 127.008 75.8312 127.162 75.8311 127.323C75.8297 127.403 75.8124 127.482 75.7804 127.556C75.7483 127.629 75.7021 127.696 75.6443 127.751C75.5865 127.807 75.5183 127.851 75.4436 127.88C75.3688 127.91 75.289 127.924 75.2088 127.923ZM65.496 127.789L60.6395 127.723C60.493 127.703 60.3587 127.63 60.2614 127.519C60.1642 127.408 60.1105 127.265 60.1105 127.117C60.1105 126.969 60.1642 126.826 60.2614 126.715C60.3587 126.603 60.493 126.531 60.6395 126.511L65.496 126.578C65.6561 126.581 65.8088 126.647 65.921 126.761C66.0332 126.875 66.0961 127.029 66.0961 127.189C66.0932 127.347 66.0291 127.498 65.9171 127.61C65.8052 127.722 65.6542 127.786 65.496 127.789ZM55.7831 127.656L50.9267 127.589C50.846 127.589 50.7661 127.573 50.6918 127.542C50.6175 127.51 50.5503 127.464 50.4943 127.406C50.4383 127.348 50.3946 127.279 50.3658 127.203C50.3369 127.128 50.3236 127.048 50.3266 126.967C50.3295 126.81 50.394 126.66 50.5063 126.55C50.6185 126.44 50.7695 126.378 50.9267 126.378L55.7831 126.445C55.9433 126.447 56.0959 126.513 56.2082 126.627C56.3204 126.742 56.3833 126.896 56.3833 127.056C56.3804 127.214 56.3163 127.365 56.2043 127.477C56.0924 127.589 55.9414 127.653 55.7831 127.656ZM46.0703 127.523L41.2139 127.456C41.0518 127.456 40.8963 127.391 40.7817 127.277C40.6671 127.162 40.6027 127.007 40.6027 126.845C40.6027 126.683 40.6671 126.527 40.7817 126.412C40.8963 126.298 41.0518 126.233 41.2139 126.233L46.0703 126.311C46.2168 126.331 46.3512 126.403 46.4484 126.515C46.5457 126.626 46.5993 126.769 46.5993 126.917C46.5993 127.065 46.5457 127.208 46.4484 127.319C46.3512 127.43 46.2168 127.503 46.0703 127.523ZM36.3686 127.389L31.5122 127.323C31.351 127.317 31.1984 127.249 31.0864 127.133C30.9745 127.016 30.912 126.861 30.9121 126.7C30.915 126.54 30.9807 126.387 31.095 126.275C31.2093 126.163 31.3631 126.1 31.5233 126.1L36.3797 126.167C36.46 126.168 36.5392 126.185 36.6128 126.217C36.6864 126.25 36.7529 126.296 36.8087 126.354C36.8644 126.411 36.9082 126.48 36.9376 126.554C36.9669 126.629 36.9813 126.709 36.9798 126.789C36.9798 126.869 36.964 126.948 36.9331 127.021C36.9023 127.095 36.857 127.162 36.8001 127.217C36.7432 127.273 36.6758 127.317 36.6017 127.347C36.5276 127.376 36.4483 127.391 36.3686 127.389ZM26.6558 127.256L21.7993 127.189C21.6382 127.183 21.4856 127.115 21.3736 126.999C21.2617 126.883 21.1992 126.728 21.1993 126.567C21.2007 126.487 21.2179 126.407 21.25 126.334C21.2821 126.26 21.3283 126.194 21.3861 126.138C21.4439 126.082 21.5121 126.038 21.5868 126.009C21.6615 125.98 21.7413 125.965 21.8216 125.967L26.6669 126.033C26.7471 126.035 26.8264 126.052 26.9 126.084C26.9736 126.116 27.0401 126.162 27.0959 126.22C27.1516 126.278 27.1954 126.346 27.2247 126.421C27.2541 126.496 27.2685 126.575 27.267 126.656C27.267 126.735 27.2511 126.814 27.2203 126.888C27.1894 126.961 27.1442 127.028 27.0873 127.084C27.0304 127.14 26.9629 127.184 26.8888 127.213C26.8147 127.243 26.7355 127.257 26.6558 127.256ZM16.9429 127.122L12.0865 127.056C11.9254 127.05 11.7727 126.982 11.6608 126.866C11.5488 126.75 11.4863 126.595 11.4864 126.433C11.4879 126.353 11.5051 126.274 11.5372 126.2C11.5692 126.127 11.6155 126.06 11.6733 126.004C11.7311 125.949 11.7993 125.905 11.874 125.876C11.9487 125.846 12.0285 125.832 12.1087 125.833L16.9652 125.9C17.1253 125.906 17.2768 125.974 17.387 126.091C17.4971 126.207 17.5572 126.362 17.5542 126.522C17.5542 126.602 17.5383 126.681 17.5074 126.755C17.4766 126.828 17.4314 126.895 17.3745 126.951C17.3176 127.007 17.2501 127.051 17.176 127.08C17.1019 127.11 17.0227 127.124 16.9429 127.122Z" fill="black"/>
<path d="M196.352 187.555H196.263C194.385 187.333 164.147 160.539 155.823 152.493C155.711 152.379 155.648 152.226 155.648 152.066C155.648 151.906 155.711 151.752 155.823 151.638C155.879 151.581 155.945 151.536 156.019 151.505C156.092 151.474 156.171 151.458 156.251 151.458C156.33 151.458 156.409 151.474 156.483 151.505C156.556 151.536 156.623 151.581 156.679 151.638C166.936 161.562 194.207 185.377 196.452 186.366C199.208 186.288 224.891 166.629 234.581 159.206C234.644 159.158 234.717 159.123 234.794 159.103C234.87 159.084 234.95 159.079 235.029 159.091C235.108 159.102 235.183 159.129 235.251 159.17C235.319 159.21 235.379 159.264 235.426 159.328C235.476 159.39 235.512 159.462 235.534 159.538C235.555 159.615 235.561 159.695 235.551 159.774C235.54 159.853 235.514 159.929 235.474 159.998C235.433 160.066 235.379 160.126 235.315 160.173C213.822 176.598 198.964 187.555 196.352 187.555Z" fill="black"/>
<path d="M191.707 232.508C190.328 232.528 188.954 232.325 187.64 231.908C178.905 228.996 151.644 191.212 142.687 178.787L141.654 177.354C139.431 174.309 137.209 167.908 138.998 164.307C139.068 164.16 139.195 164.046 139.349 163.992C139.503 163.938 139.673 163.947 139.82 164.018C139.967 164.089 140.081 164.215 140.135 164.369C140.189 164.523 140.18 164.693 140.109 164.84C138.631 167.852 140.631 173.842 142.654 176.642L143.699 178.076C167.569 211.182 182.494 228.907 188.04 230.752C196.73 233.664 215.222 224.795 242.983 204.392C243.113 204.315 243.267 204.289 243.415 204.32C243.563 204.35 243.695 204.434 243.784 204.555C243.874 204.677 243.916 204.827 243.901 204.978C243.886 205.128 243.817 205.268 243.705 205.37C218.901 223.573 201.809 232.508 191.707 232.508Z" fill="black"/>
<path d="M146.432 176.387C146.384 176.39 146.336 176.374 146.299 176.343C146.262 176.312 146.238 176.268 146.232 176.22C146.228 176.194 146.228 176.167 146.234 176.141C146.24 176.114 146.251 176.09 146.266 176.068C146.282 176.046 146.302 176.028 146.324 176.014C146.347 176 146.373 175.991 146.399 175.987C151.444 175.286 155.289 171.364 159.012 167.096C159.031 167.077 159.053 167.061 159.078 167.051C159.103 167.04 159.13 167.034 159.157 167.034C159.184 167.034 159.211 167.04 159.235 167.051C159.26 167.061 159.283 167.077 159.301 167.096C159.338 167.135 159.358 167.187 159.358 167.241C159.358 167.294 159.338 167.346 159.301 167.385C155.478 171.753 151.622 175.731 146.432 176.442V176.387Z" fill="black"/>
<path d="M149.266 180.232C149.218 180.232 149.172 180.216 149.135 180.185C149.099 180.155 149.074 180.112 149.066 180.065C149.06 180.039 149.058 180.013 149.063 179.987C149.067 179.961 149.077 179.936 149.092 179.914C149.107 179.892 149.126 179.873 149.148 179.859C149.17 179.845 149.195 179.836 149.222 179.832C151.315 179.356 153.237 178.314 154.778 176.82C154.797 176.801 154.819 176.785 154.844 176.774C154.869 176.764 154.896 176.758 154.923 176.758C154.95 176.758 154.976 176.764 155.001 176.774C155.026 176.785 155.048 176.801 155.067 176.82C155.103 176.857 155.123 176.907 155.123 176.959C155.123 177.011 155.103 177.061 155.067 177.098C153.458 178.652 151.45 179.729 149.266 180.21V180.232Z" fill="black"/>
<path d="M195.786 282.205C176.915 282.068 158.12 279.813 139.753 275.482C139.727 275.477 139.702 275.466 139.679 275.451C139.657 275.436 139.638 275.416 139.623 275.393C139.609 275.37 139.599 275.345 139.595 275.318C139.59 275.291 139.591 275.264 139.598 275.238C139.603 275.211 139.613 275.186 139.629 275.164C139.644 275.142 139.664 275.124 139.687 275.11C139.71 275.096 139.736 275.088 139.763 275.085C139.79 275.082 139.817 275.085 139.842 275.093C152.467 278.116 196.652 287.229 234.881 277.249C234.934 277.235 234.991 277.243 235.038 277.27C235.086 277.296 235.121 277.341 235.137 277.393C235.145 277.445 235.135 277.497 235.109 277.542C235.082 277.586 235.041 277.62 234.992 277.638C222.168 280.804 208.995 282.339 195.786 282.205Z" fill="black"/>
<path d="M136.442 33.4726L22.3547 27.9939C22.3279 27.9941 22.3014 27.9886 22.2769 27.9777C22.2524 27.9669 22.2304 27.9509 22.2126 27.931C22.1947 27.911 22.1813 27.8874 22.1732 27.8619C22.1652 27.8363 22.1626 27.8094 22.1658 27.7827C22.1672 27.7565 22.1738 27.7307 22.1852 27.707C22.1966 27.6833 22.2125 27.662 22.2321 27.6445C22.2518 27.6269 22.2746 27.6134 22.2995 27.6047C22.3243 27.596 22.3506 27.5923 22.3769 27.5938L136.453 33.0281C136.507 33.0337 136.556 33.06 136.592 33.1014C136.627 33.1428 136.645 33.1961 136.642 33.2504C136.643 33.2781 136.639 33.3059 136.63 33.3321C136.621 33.3583 136.606 33.3824 136.588 33.403C136.569 33.4237 136.547 33.4404 136.522 33.4524C136.496 33.4643 136.469 33.4712 136.442 33.4726Z" fill="black"/>
<path d="M106.647 121.622L12.0862 119.777C12.0585 119.779 12.0307 119.774 12.0049 119.764C11.979 119.754 11.9557 119.738 11.9366 119.718C11.9175 119.698 11.9031 119.674 11.8944 119.648C11.8857 119.621 11.8829 119.593 11.8862 119.566C11.8891 119.515 11.9114 119.466 11.9486 119.431C11.9858 119.396 12.0351 119.377 12.0862 119.377L106.647 121.21C106.701 121.213 106.752 121.237 106.79 121.276C106.827 121.315 106.847 121.367 106.847 121.421C106.847 121.475 106.826 121.525 106.789 121.563C106.751 121.6 106.7 121.622 106.647 121.622Z" fill="black"/>
<path d="M130.229 186.7C130.156 186.714 130.081 186.714 130.007 186.7C129.933 186.671 129.866 186.629 129.809 186.574C129.751 186.52 129.705 186.455 129.673 186.382C129.641 186.31 129.624 186.232 129.622 186.153C129.62 186.074 129.634 185.995 129.663 185.922L134.886 172.475C134.902 172.386 134.937 172.301 134.99 172.227C135.043 172.153 135.111 172.092 135.191 172.048C135.27 172.003 135.358 171.978 135.449 171.972C135.54 171.966 135.63 171.981 135.715 172.014C135.799 172.048 135.875 172.1 135.936 172.167C135.998 172.234 136.044 172.313 136.071 172.4C136.098 172.486 136.106 172.578 136.093 172.668C136.08 172.758 136.047 172.844 135.997 172.919L130.774 186.355C130.725 186.458 130.648 186.546 130.552 186.607C130.455 186.668 130.344 186.7 130.229 186.7Z" fill="black"/>
</svg>
