<svg width="15" height="21" viewBox="0 0 15 21" fill="none" xmlns="http://www.w3.org/2000/svg">
<path d="M7.30435 0C4.58597 0 2.37599 2.23661 2.37599 4.98775C2.37599 7.68638 4.46146 9.87049 7.17984 9.965C7.26285 9.9545 7.34585 9.9545 7.4081 9.965H7.48073C8.75625 9.92193 9.96522 9.37852 10.852 8.44967C11.7388 7.52083 12.234 6.27936 12.2327 4.98775C12.2327 2.23661 10.0227 0 7.30435 0ZM12.5751 12.7571C9.68034 10.804 4.95949 10.804 2.04397 12.7571C0.726284 13.6496 0 14.8572 0 16.1488C0 17.4403 0.726285 18.6374 2.0336 19.5194C3.48617 20.5065 5.39526 21 7.30435 21C9.21344 21 11.1225 20.5065 12.5751 19.5194C13.8824 18.6269 14.6087 17.4298 14.6087 16.1278C14.5983 14.8362 13.8824 13.6391 12.5751 12.7571Z" fill="#F56737"/>
</svg>
