<svg width="53" height="82" viewBox="0 0 53 82" fill="none" xmlns="http://www.w3.org/2000/svg">
<g clip-path="url(#clip0_1211_3665)">
<path d="M0.229689 67.8055C0.304682 67.6467 0.399353 67.4979 0.51147 67.3624C0.594317 67.2625 0.685872 67.1701 0.785098 67.0863L1.19789 66.6708L1.30688 66.7502C3.42182 65.7238 7.78853 66.8124 12.2063 69.6743C17.54 73.1334 20.9721 77.8964 19.9831 80.4269L20.1338 80.5419L19.5402 81.1288C19.5123 81.1587 19.4822 81.1875 19.452 81.2163L19.4358 81.2324H19.43C19.2757 81.3725 19.1034 81.4917 18.9175 81.5868C16.8304 82.672 12.4161 81.5868 7.95084 78.6984C2.51274 75.1749 -0.946054 70.298 0.229689 67.8055Z" fill="#FFA412"/>
<path d="M12.8414 69.0427C7.40334 65.5191 2.04061 64.6836 0.864863 67.175C-0.310879 69.6664 3.14446 74.5398 8.58256 78.068C14.0207 81.5962 19.3822 82.4282 20.5579 79.9356C21.7337 77.4431 18.2819 72.5663 12.8414 69.0427Z" fill="#FFB93E"/>
<path d="M8.88992 77.3624C6.6138 75.8826 4.65193 74.1001 3.36719 72.3417C2.05231 70.5419 1.59778 68.9666 2.09173 67.9056C2.34103 67.3647 2.81179 66.9919 3.49011 66.7974C5.49722 66.222 9.05574 67.321 12.5493 69.5937C14.8255 71.0724 16.7862 72.8561 18.0721 74.6144C19.3869 76.4142 19.8415 77.9896 19.3475 79.0506C19.0971 79.5914 18.6263 79.9643 17.948 80.1576C17.5582 80.263 17.1554 80.3138 16.7514 80.3083C14.6874 80.3083 11.7632 79.2335 8.88992 77.3624ZM3.59677 67.1783C3.03557 67.3394 2.65063 67.6386 2.45119 68.0701C2.02913 68.9827 2.48133 70.4545 3.6907 72.1093C4.94761 73.8354 6.8712 75.5776 9.10789 77.031C11.8965 78.8434 14.7895 79.9079 16.7607 79.9079C17.1231 79.9131 17.4845 79.8682 17.8344 79.7744C18.3956 79.6133 18.7817 79.3141 18.9811 78.8826C19.402 77.97 18.951 76.4982 17.7416 74.8434C16.4847 73.1173 14.5599 71.3751 12.3232 69.9217C9.54039 68.1093 6.64162 67.0448 4.67045 67.0448C4.30611 67.0392 3.94276 67.0842 3.59094 67.1783H3.59677Z" fill="#FFA412"/>
<path d="M38.4053 1.46716C38.4585 1.35435 38.5255 1.24846 38.6047 1.15186C38.6633 1.08107 38.7281 1.01561 38.7984 0.956239L39.0917 0.661641L39.1694 0.718026C40.6768 -0.0115478 43.7704 0.761755 46.9068 2.78937C50.6961 5.24507 53.1299 8.62713 52.4272 10.4234L52.5339 10.5017L52.113 10.9194C52.0933 10.9401 52.0724 10.9608 52.0504 10.9804L52.0388 10.9919C51.9285 11.0909 51.8057 11.1752 51.6735 11.2428C50.1917 12.0126 47.0587 11.2428 43.8886 9.19214C40.0228 6.69846 37.5704 3.23586 38.4053 1.46716Z" fill="#FFA412"/>
<path d="M47.3577 2.34514C43.4977 -0.156583 39.691 -0.750371 38.8562 1.01948C38.0213 2.78933 40.4795 6.25079 44.3349 8.75251C48.1902 11.2542 52.0027 11.8469 52.8376 10.0782C53.6724 8.30948 51.2189 4.84687 47.3577 2.34514Z" fill="#FFB93E"/>
<path d="M44.5495 8.24733C42.9332 7.19785 41.5406 5.93203 40.6281 4.68001C39.6947 3.40268 39.3723 2.28415 39.7202 1.53041C39.8976 1.14606 40.2316 0.881398 40.7127 0.744459C42.1378 0.337094 44.662 1.11615 47.1445 2.72835C48.7609 3.77898 50.1523 5.0448 51.0648 6.29567C51.9982 7.573 52.3206 8.69152 51.9727 9.44526C51.7953 9.82961 51.4614 10.0931 50.9802 10.2312C50.7033 10.3063 50.4172 10.3423 50.1302 10.3382C48.6669 10.3428 46.5938 9.5799 44.5495 8.24733ZM40.7916 1.01834C40.3927 1.13341 40.119 1.34515 39.9799 1.65125C39.6807 2.29797 40.002 3.34399 40.86 4.51775C41.7528 5.73985 43.1187 6.98035 44.7061 8.01257C46.6854 9.29911 48.7423 10.0575 50.1419 10.0575C50.399 10.0613 50.6555 10.0291 50.9036 9.96195C51.3025 9.84687 51.5761 9.63514 51.7153 9.32904C52.0144 8.68232 51.6944 7.63628 50.8352 6.46137C49.9436 5.24042 48.5777 3.99992 46.9892 2.9677C45.0099 1.68116 42.9541 0.922816 41.5545 0.922816C41.2968 0.9201 41.0399 0.953414 40.7916 1.02178V1.01834Z" fill="#FFA412"/>
<path d="M46.9357 41.5569C46.8814 41.4405 46.8125 41.3315 46.7305 41.2324C46.6706 41.1595 46.6038 41.0924 46.531 41.0321L46.2284 40.7283L46.1495 40.7859C44.6039 40.0356 41.4141 40.8308 38.1861 42.9228C34.2855 45.4545 31.7809 48.9297 32.5045 50.7801L32.3885 50.8607L32.8221 51.2899C32.843 51.3118 32.8639 51.3325 32.8871 51.3532L32.8987 51.3647C33.0125 51.4662 33.1387 51.5532 33.2743 51.6236C34.8003 52.4165 38.0284 51.6236 41.2877 49.5132C45.2707 46.9412 47.7961 43.3785 46.9357 41.5569Z" fill="#FFA412"/>
<path d="M37.7211 42.4615C41.6947 39.8861 45.6127 39.275 46.4719 41.0967C47.3311 42.9183 44.8069 46.481 40.8332 49.0564C36.8596 51.6318 32.9416 52.2417 32.0812 50.42C31.2209 48.5984 33.7474 45.0357 37.7211 42.4615Z" fill="#FFB93E"/>
<path d="M34.8629 50.6929C34.5677 50.6969 34.2735 50.6601 33.9886 50.5835C33.4935 50.442 33.1491 50.1693 32.967 49.778C32.6076 49.0024 32.9404 47.8505 33.9016 46.5364C34.8397 45.251 36.2728 43.9483 37.9367 42.8666C40.4876 41.2072 43.0896 40.4052 44.5564 40.824C45.0515 40.9656 45.3959 41.2383 45.5779 41.6296C45.9362 42.4052 45.6046 43.5559 44.6433 44.8712C43.7041 46.1566 42.2709 47.4593 40.6082 48.541C38.5083 49.9046 36.3702 50.6929 34.8629 50.6929ZM43.6902 41.0013C42.2501 41.0013 40.1328 41.7815 38.0967 43.106C36.4618 44.1681 35.0554 45.4455 34.137 46.7021C33.2535 47.9115 32.923 48.9874 33.2314 49.6537C33.3775 49.969 33.6593 50.1877 34.0698 50.3051C34.3252 50.3737 34.589 50.4066 34.8536 50.4029C36.2948 50.4029 38.4109 49.6227 40.4482 48.2982C42.0831 47.236 43.4885 45.9587 44.4068 44.7021C45.2915 43.4926 45.6208 42.4167 45.3135 41.7504C45.1674 41.4351 44.8856 41.2164 44.4752 41.0991C44.2209 41.0308 43.9583 40.9979 43.6948 41.0013H43.6902Z" fill="#FFA412"/>
<path d="M7.24575 31.1393C7.27893 31.0689 7.32063 31.0029 7.36985 30.9425C7.40624 30.8975 7.447 30.8563 7.49158 30.8194L7.67479 30.6352L7.72348 30.6709C8.66268 30.2106 10.6037 30.6974 12.5679 31.9701C14.9403 33.5075 16.4638 35.6249 16.0244 36.7492L16.0916 36.7986L15.8273 37.0599L15.789 37.0978L15.7809 37.1059C15.7112 37.1686 15.6331 37.2216 15.549 37.2635C14.6214 37.7457 12.6595 37.2635 10.6791 35.9793C8.25804 34.4154 6.72281 32.2474 7.24575 31.1393Z" fill="#FFA412"/>
<path d="M12.8508 31.6894C10.4332 30.1232 8.05038 29.7515 7.52745 30.8597C7.00451 31.9678 8.54087 34.1358 10.9573 35.702C13.3737 37.2682 15.7588 37.6399 16.2817 36.5317C16.8047 35.4235 15.2672 33.2555 12.8508 31.6894Z" fill="#FFB93E"/>
<path d="M11.093 35.3877C10.0808 34.7306 9.20884 33.9378 8.63837 33.1564C8.05861 32.3509 7.85223 31.6604 8.07022 31.184C8.12999 31.061 8.21685 30.9528 8.32443 30.8676C8.432 30.7823 8.55753 30.7221 8.6917 30.6915C9.58336 30.4372 11.1638 30.9217 12.7187 31.9343C13.7298 32.5926 14.6017 33.3843 15.1733 34.1668C15.7531 34.9723 15.9595 35.6628 15.7415 36.138C15.6812 36.2607 15.5942 36.3686 15.4867 36.4537C15.3792 36.5389 15.2539 36.5993 15.12 36.6305C14.9466 36.6772 14.7675 36.6996 14.5878 36.6973C13.6706 36.6973 12.3685 36.2197 11.093 35.3877ZM8.74039 30.8607C8.63106 30.8849 8.52857 30.9332 8.44049 31.0019C8.35241 31.0706 8.28094 31.158 8.23135 31.2577C8.04351 31.6628 8.2441 32.3175 8.78212 33.0529C9.341 33.817 10.1956 34.5949 11.1904 35.2393C12.4299 36.0448 13.717 36.5201 14.5936 36.5201C14.7545 36.5225 14.9149 36.5023 15.0701 36.4602C15.1795 36.4362 15.2821 36.3881 15.3704 36.3196C15.4587 36.2512 15.5304 36.1639 15.5804 36.0644C15.7682 35.6582 15.5664 35.0034 15.0296 34.268C14.4707 33.504 13.615 32.7272 12.6213 32.0816C11.3818 31.2761 10.0947 30.802 9.21812 30.802C9.05651 30.7992 8.89533 30.819 8.73926 30.8607H8.74039Z" fill="#FFA412"/>
</g>
<defs>
<clipPath id="clip0_1211_3665">
<rect width="53" height="82" fill="white"/>
</clipPath>
</defs>
</svg>
