<svg width="29" height="18" viewBox="0 0 29 18" fill="none" xmlns="http://www.w3.org/2000/svg">
<path d="M21.1765 17.4C18.9725 17.4 16.3431 16.5622 16.3431 12.5667V4.83333C16.3431 0.837778 18.9725 0 21.1765 0C23.3805 0 26.0098 0.837778 26.0098 4.83333V12.5667C26.0098 16.5622 23.3805 17.4 21.1765 17.4ZM21.1765 1.93333C19.0885 1.93333 18.2765 2.74533 18.2765 4.83333V12.5667C18.2765 14.6547 19.0885 15.4667 21.1765 15.4667C23.2645 15.4667 24.0765 14.6547 24.0765 12.5667V4.83333C24.0765 2.74533 23.2645 1.93333 21.1765 1.93333ZM7.82357 17.4C5.61957 17.4 2.99023 16.5622 2.99023 12.5667V4.83333C2.99023 0.837778 5.61957 0 7.82357 0C10.0276 0 12.6569 0.837778 12.6569 4.83333V12.5667C12.6569 16.5622 10.0276 17.4 7.82357 17.4ZM7.82357 1.93333C5.73557 1.93333 4.92357 2.74533 4.92357 4.83333V12.5667C4.92357 14.6547 5.73557 15.4667 7.82357 15.4667C9.91157 15.4667 10.7236 14.6547 10.7236 12.5667V4.83333C10.7236 2.74533 9.91157 1.93333 7.82357 1.93333Z" fill="white"/>
<path d="M17.3098 9.66654H11.6902C11.1618 9.66654 10.7236 9.22832 10.7236 8.69988C10.7236 8.17143 11.1618 7.73321 11.6902 7.73321H17.3098C17.5662 7.73321 17.812 7.83505 17.9933 8.01634C18.1746 8.19762 18.2764 8.4435 18.2764 8.69988C18.2764 8.95625 18.1746 9.20213 17.9933 9.38341C17.812 9.5647 17.5662 9.66654 17.3098 9.66654ZM28.0333 12.8888C27.5049 12.8888 27.0667 12.4505 27.0667 11.9221V5.47765C27.0667 4.94921 27.5049 4.51099 28.0333 4.51099C28.5618 4.51099 29 4.94921 29 5.47765V11.9221C29 12.4505 28.5618 12.8888 28.0333 12.8888ZM0.966667 12.8888C0.438222 12.8888 0 12.4505 0 11.9221V5.47765C0 4.94921 0.438222 4.51099 0.966667 4.51099C1.49511 4.51099 1.93333 4.94921 1.93333 5.47765V11.9221C1.93333 12.4505 1.49511 12.8888 0.966667 12.8888Z" fill="white"/>
</svg>
