<svg width="117" height="110" viewBox="0 0 117 110" fill="none" xmlns="http://www.w3.org/2000/svg">
<g clip-path="url(#clip0_1209_1008)">
<path d="M4.424 58.8354V57.122L4.84534 58.8354L5.47732 57.3065L5.18765 59.2045C5.18765 59.2045 6.55699 58.3082 6.66232 58.2028L5.451 59.9689L7.9 59.2835L5.68799 60.5488L7.87368 61.0497H5.63532L6.636 62.3677L5.451 61.5505L6.60968 64.1865L4.81898 62.1304V63.2375L4.39764 62.0513L3.52867 65.0036L3.79198 62.1041L2.87033 63.1848L3.76566 61.5769L1.13231 63.1057L3.76566 61.2869L-0.0263672 61.6823L3.52867 60.9706L1.34299 60.417L3.13364 60.6015L2.58066 59.5471L3.7393 60.3116L2.60698 56.9639L4.31864 59.5999L4.10801 58.3609L4.424 58.8354Z" fill="#75CCF4"/>
<path d="M110.574 57.6493V54.8815L111.259 57.6493L112.286 55.1978L111.838 58.1765C111.838 58.1765 114.05 56.7267 114.235 56.5158C114.419 56.3049 112.286 59.389 112.286 59.389L116.21 58.2819L112.655 60.3643L116.183 61.1551H112.576L114.156 63.2639L112.26 61.9723L114.129 66.0581L111.233 62.7104V64.5292L110.548 62.6049L109.126 67.3761L109.574 62.7104L108.099 64.4238L109.521 61.7878L105.176 64.2129L109.574 61.2869L103.438 61.9459L109.179 60.7597L105.65 59.8899L108.52 60.2062L107.651 58.4928L109.547 59.7053L107.467 54.4333L110.232 58.8355L109.863 56.8057L110.574 57.6493Z" fill="#F1852D"/>
<path d="M105.966 71.0401V69.564L106.308 71.0401L106.861 69.7221L106.624 71.3564C106.624 71.3564 107.783 70.5656 107.888 70.4602C107.994 70.3548 106.861 71.9891 106.861 71.9891L108.942 71.4092L107.046 72.5163L108.915 72.9117H106.993L107.941 73.9924L106.914 73.3071L107.915 75.4686L106.361 73.7025V74.6514L105.992 73.6498L105.229 76.2858L105.466 73.8079L104.702 74.7305L105.439 73.3598L103.148 74.6514L105.492 73.0962L102.227 73.4389L105.281 72.8062L103.412 72.3581L104.913 72.5163L104.465 71.62L105.466 72.2527L104.36 69.6167L105.834 71.9627L105.65 70.9083L105.966 71.0401Z" fill="#75CCF4"/>
<path d="M95.2745 10.8602V8.22422L95.9592 10.8602L96.9862 8.40874L96.5386 11.4665C96.5386 11.4665 98.7242 10.0167 98.9086 9.80582C99.0929 9.59494 96.9598 12.6791 96.9598 12.6791L100.884 11.5983L97.3285 13.6544L100.857 14.4452H97.2495L98.8559 16.5803L96.9336 15.2623L98.8296 19.3481L95.9065 16.0004V17.7929L95.2482 15.8686L93.7999 20.6397L94.2475 15.974L92.7728 17.6874L94.1949 15.0514L89.8498 17.4766L94.2475 14.5506L88.1382 15.2096L93.8789 14.0234L90.3502 13.1535L93.1942 13.4699L92.3252 11.7828L94.2212 12.969L92.1408 7.69702L94.7742 12.2309L94.4318 10.2012L95.2745 10.8602Z" fill="#F1852D"/>
<path d="M72.7067 98.6915V96.4772L73.2334 98.6915L74.0761 96.7145L73.6811 99.166C73.6811 99.166 75.4454 98.0061 75.6034 97.848C75.7614 97.6898 74.0234 100.141 74.0234 100.141L77.1835 99.2714L74.3394 100.932L77.1571 101.538H74.2604L75.5508 103.252L73.9971 102.197L75.5244 105.466L73.2071 102.83V104.253L72.6541 102.725L71.5218 106.547L71.8641 102.804L70.6791 104.201L71.8378 102.145L68.3354 104.069L71.8641 101.723L66.9661 102.276L71.5744 101.327L68.7304 100.616L71.0214 100.853L70.3367 99.5086L71.8378 100.458L70.1788 96.3191L72.3908 99.8513L72.1274 98.217L72.7067 98.6915Z" fill="#FAB74D"/>
<path d="M41.0274 97.268V96.3191L41.2644 97.268L41.6068 96.4245L41.4488 97.4789C41.7306 97.2997 42.0031 97.1061 42.2651 96.899L41.6068 97.8743L42.9498 97.5053L41.7385 98.217L42.9498 98.4806H41.7121L42.2388 99.1923L41.5805 98.7442L42.2388 100.141L41.2381 99.0078V99.6141L41.0011 98.9551L40.5271 100.589V99.0078L40.0268 99.5877L40.5271 98.7178L39.0261 99.535L40.5271 98.5333L38.4468 98.7706L40.3955 98.3752L39.2104 98.0588H40.1848L40.0004 97.7162L40.6588 98.1379L39.9478 96.3454L40.8958 97.8743V97.1626L41.0274 97.268Z" fill="#FAB74D"/>
<path d="M40.9749 64.0284V63.4484L41.1592 64.1602L41.4225 63.5275L41.2909 64.3183C41.5006 64.1895 41.7029 64.0486 41.8965 63.8966L41.3962 64.6083L42.3969 64.3447L41.5015 64.8455L42.3969 65.0564H41.4752L41.8965 65.5836L41.3962 65.2673L41.8702 66.2953L41.1329 65.4518V65.8999L40.9749 65.4254L40.6062 66.6116V65.4518L40.2375 65.8736L40.6062 65.2146L39.5002 65.8472L40.6062 65.1091L39.0525 65.2673L40.5272 64.9773L39.6318 64.7401H40.3428L40.1322 64.3183L40.6062 64.6083L40.0795 63.3167L40.7642 64.4238V63.8966L40.9749 64.0284Z" fill="#FAB74D"/>
<path d="M39.6582 35.1377V34.4524L39.8162 35.1377L40.0795 34.5051V35.2959L40.6852 34.8741L40.1849 35.6122L41.1855 35.3222L40.2902 35.8494L41.1855 36.0603H40.2639L40.6589 36.5875L40.1849 36.2712L40.6589 37.2992L39.9215 36.4557V36.9038L39.7372 36.4293L39.3686 37.6419L39.5002 36.4557L39.1315 36.9038L39.4739 36.2448L38.3679 36.8511L39.5002 36.113L37.9465 36.2712L39.3949 35.9812L38.4996 35.7704H39.2369L38.9999 35.3222L39.4739 35.6386L38.9472 34.3206L39.6582 35.4277V34.9268V35.1377Z" fill="#FAB74D"/>
<path d="M66.1498 29.1804V28.4951L66.3078 29.1804L66.5711 28.5742V29.3386C66.7721 29.2091 66.9655 29.0683 67.1505 28.9168L66.6764 29.6549L67.6508 29.365L66.7554 29.8922L67.6508 30.103H66.7291L67.1505 30.6566L66.6501 30.3139L67.1505 31.342L66.4131 30.4984V30.9466L66.2551 30.4721L65.8864 31.6846V30.4984L65.5178 30.9466L65.8864 30.2876L64.7804 30.8938L65.8864 30.1558L64.3591 30.3139L65.8074 30.024L64.9121 29.8131H65.6231L65.4125 29.365L65.8864 29.6813L65.3597 28.3633L66.0708 29.4704V28.9696L66.1498 29.1804Z" fill="#FAB74D"/>
<path d="M66.7817 48.2649V47.6323L66.966 48.3176L67.2294 47.7114L67.0977 48.4758L67.7034 48.054L67.203 48.7921L68.2037 48.5022L67.3084 49.0294L68.2037 49.2402H67.282L67.7034 49.7938L67.203 49.4511L67.677 50.4792L66.9397 49.6356V50.1101L66.7817 49.6093L66.413 50.8218V49.6356L66.0443 50.0838L66.413 49.4248L65.307 50.031L66.413 49.293L64.8594 49.4775L66.3077 49.1612L65.4124 48.9503H66.1497L65.939 48.5022L66.413 48.8185L65.8863 47.5005L66.571 48.634V48.1068L66.7817 48.2649Z" fill="#00ADE9"/>
<path d="M24.7797 47.8433V47.1579L24.9377 47.8696L25.2011 47.237L25.0694 48.0014L25.6751 47.606L25.2011 48.3178L26.1754 48.0278L25.2801 48.555L26.1754 48.7659H25.2538L25.6751 49.3194L25.1748 49.0031L25.6488 50.0048L24.9114 49.1876V49.6358L24.7534 49.1349L24.3848 50.3475V49.1613L24.0161 49.6094L24.3848 48.9504L23.2788 49.583L24.3848 48.845L22.8311 49.0031L24.3058 48.7132L23.4104 48.4759H24.1214L23.9107 48.0542L24.3848 48.3441L23.8581 47.0261L24.5691 48.1596V47.6324L24.7797 47.8433Z" fill="#00ADE9"/>
<path d="M24.964 71.6726V70.9873L25.122 71.6726L25.4117 71.0663V71.8308L26.0174 71.409L25.517 72.1471L26.5177 71.8571L25.6224 72.3843L26.5177 72.5952H25.596L25.991 73.1488L25.517 72.8061L25.991 73.8341L25.2537 72.9906V73.4651L25.0694 72.9643L24.727 74.1768V72.9906L24.3583 73.4387L24.7007 72.7797L23.621 73.386L24.727 72.6479L23.1733 72.8325L24.6217 72.5161L23.7264 72.3053H24.4637L24.2267 71.8835L24.7007 72.1735L24.2003 70.8555L24.885 71.9889V71.4618L24.964 71.6726Z" fill="#00ADE9"/>
<path d="M85.0573 55.0923V54.3806L85.2153 55.0923L85.4786 54.4597V55.2505C85.6796 55.121 85.873 54.9802 86.0579 54.8287L85.584 55.5404L86.5846 55.2768L85.663 55.804L86.5583 55.9885H85.6366L86.0579 56.5157L85.5576 56.1994L86.0579 57.2274L85.3206 56.3839V56.8321L85.1626 56.3576L84.7939 57.5438V56.3839L84.4253 56.8057L84.7939 56.1731L83.6879 56.7793L84.8203 56.0413L83.2666 56.1994L84.7149 55.9095L83.8196 55.6722H84.5306L84.3199 55.2505L84.7939 55.5668L84.2673 54.2488L84.9783 55.3559V54.8287L85.0573 55.0923Z" fill="#00ADE9"/>
<path d="M20.6191 88.8594V87.4887L20.9615 88.8858L21.4882 87.6205L21.2512 89.1757C21.2512 89.1757 22.3572 88.4377 22.4625 88.3322C22.5678 88.2268 21.4618 89.782 21.4618 89.782L23.4632 89.2285L21.6462 90.2829L23.4369 90.6783H21.6198L22.4362 91.759L21.4618 91.1L22.4098 93.1561L20.9352 91.4691V92.4444L20.5928 91.4691L19.8555 93.8678L20.0925 91.5218L19.3552 92.3917L20.0662 91.1L17.8805 92.3126L20.0925 90.8364L17.0115 91.1791L19.9082 90.5728L18.1175 90.1511H19.5658L19.1182 89.3075L20.0662 89.9138L19.0128 87.2778L20.4085 89.5184L20.2505 88.4904L20.6191 88.8594Z" fill="#00ADE9"/>
<path d="M23.6739 14.6825V12.7319L24.1478 14.6825L24.8852 12.9428L24.5429 15.1043C24.5429 15.1043 26.0965 14.0762 26.2282 13.9444C26.3599 13.8126 24.8589 15.9478 24.8589 15.9478L27.6239 15.1833L25.1222 16.6595L27.6239 17.2131H24.9905L26.3072 18.6365L24.9379 17.7403L26.2809 20.6135L24.2269 18.2411V19.5327L23.7529 18.162L22.7522 21.5361L23.0418 18.2411L22.0148 19.4537L23.0155 17.6348L19.9608 19.3482L23.0682 17.2921L18.7495 17.7666L22.8049 16.9231L20.1715 16.3168L22.1992 16.5277L21.5672 15.3152L22.9102 16.185L21.4355 12.4946L23.3842 15.6315L23.1472 14.1817L23.6739 14.6825Z" fill="#F1852D"/>
<path d="M89.1125 23.0912V21.0878L89.5865 23.0912L90.3238 21.2987L89.9815 23.5129C89.9815 23.5129 91.5878 22.4586 91.7195 22.3268C91.8512 22.195 90.2975 24.3828 90.2975 24.3828L93.1415 23.6184L90.5082 25.0946L93.1415 25.6745H90.5082L91.6669 27.2033L90.2975 26.2544L91.6405 29.2067L89.5601 26.8079V28.0996L89.0598 26.7025L88.0328 30.1557L88.3488 26.7816L87.2955 28.0205L88.3225 26.1753L85.1625 27.9414L88.3752 25.8063L83.9248 26.2807L88.0855 25.4372L85.4521 24.8046L87.5325 25.0418L86.8741 23.9084L88.2435 24.7782L86.8741 20.9033L88.8755 24.0665L88.6385 22.6167L89.1125 23.0912Z" fill="#00ADE9"/>
<path d="M71.0742 40.3044C69.5276 40.0385 67.9377 40.3681 66.6238 41.227C64.896 42.0944 63.3496 43.2844 62.0681 44.7329C59.9052 47.3966 58.2293 50.4217 57.1174 53.6689C58.2858 50.7005 60.3237 48.1551 62.9635 46.3672C64.2802 45.4973 65.5969 44.5484 66.9135 43.7312C68.3602 43.2046 69.7462 42.5242 71.0478 41.7015C71.4428 41.3852 71.7589 40.4889 71.0742 40.3044Z" fill="#75CCF4"/>
<path d="M82.0289 26.5445C81.5345 26.1003 80.9155 25.8191 80.2561 25.739C79.5966 25.6588 78.9285 25.7836 78.3422 26.0964C76.9617 26.5195 75.6425 27.1222 74.4185 27.8888C72.0298 29.3884 69.8209 31.1573 67.8351 33.1608C65.9745 35.0786 64.2582 37.1315 62.7001 39.3027C61.1991 41.5433 60.0667 43.8629 58.8027 46.209C59.4347 45.26 59.9351 44.232 60.5934 43.283C61.3901 42.2048 62.2707 41.1912 63.2267 40.2516C66.9328 36.2929 71.5406 33.2904 76.6568 31.5001C78.0525 31.1311 84.6886 29.1805 82.0289 26.5445Z" fill="#F1852D"/>
<path d="M71.4164 11.1765C68.467 11.1765 66.1497 14.1552 64.4116 16.3167C62.6477 18.8399 61.4034 21.6895 60.7513 24.6992C58.9087 30.5551 58.0196 36.6697 58.1179 42.8084C58.783 36.8502 60.5701 31.072 63.3846 25.7799C64.5436 23.386 65.9562 21.1236 67.598 19.0318C69.2043 17.0548 71.6007 15.3941 72.417 12.8899C72.4814 12.7118 72.5058 12.5218 72.4887 12.3332C72.4715 12.1446 72.413 11.9621 72.3176 11.7986C72.2221 11.6351 72.0919 11.4946 71.9362 11.3871C71.7804 11.2796 71.603 11.2077 71.4164 11.1765Z" fill="#F1852D"/>
<path d="M83.4245 16.0004C81.9762 14.656 79.8958 15.605 78.4212 16.3958C76.5405 17.3894 74.8258 18.67 73.3387 20.1916C72.0797 21.4834 70.9508 22.8961 69.9681 24.4092C69.5204 25.1209 69.0991 25.859 68.6778 26.5707C68.2564 27.2824 67.6771 27.9414 67.3347 28.7059C68.2893 27.4119 69.4557 26.289 70.7845 25.3845C72.0977 24.4212 73.4697 23.5408 74.8925 22.7485C76.3672 21.905 77.8945 21.0879 79.4481 20.3761C81.0018 19.6644 82.6082 19.1899 83.5299 17.5556C83.6883 17.3218 83.7639 17.0417 83.7449 16.7598C83.7258 16.478 83.613 16.2106 83.4245 16.0004Z" fill="#00ADE9"/>
<path d="M103.017 32.2909C102.071 31.5117 100.975 30.9362 99.7965 30.6006C98.6184 30.2649 97.3837 30.1763 96.1698 30.3403C93.3385 30.4307 90.5277 30.8554 87.7958 31.6055C85.0832 32.4172 82.4411 33.4486 79.8957 34.6897C79.0267 35.0851 78.2104 35.5068 77.394 35.9549L77.1044 36.1658C76.6017 36.506 76.1262 36.885 75.6824 37.2993C76.1564 37.2993 76.6567 37.062 77.078 36.9039C78.2093 36.5232 79.361 36.2064 80.5277 35.9549C83.9904 35.1724 87.5151 34.6961 91.0611 34.5315C94.9016 34.6975 98.7481 34.3966 102.516 33.6353C103.069 33.4771 103.517 32.7654 103.017 32.2909Z" fill="#00ADE9"/>
<path d="M108.52 43.4675C105.013 41.7838 101.263 40.6629 97.4077 40.1462C93.3757 39.865 89.3245 40.0864 85.347 40.8052C81.5188 41.3376 77.8017 42.4859 74.3395 44.2056C70.9518 46.0608 67.6963 48.1482 64.5962 50.4529C68.4213 48.2369 72.5582 46.6106 76.8676 45.6291C83.323 44.3227 89.901 43.7217 96.486 43.8366C100.331 43.8366 104.149 44.1265 107.994 44.4956C108.678 44.6537 109.1 43.7311 108.52 43.4675Z" fill="#F1852D"/>
<path d="M52.2192 25.1737C51.6327 21.5259 50.5426 17.9773 48.9802 14.6298C47.4063 11.1729 45.3199 7.97364 42.7919 5.14019C41.6402 3.87733 40.3606 2.73772 38.9735 1.73975C37.5816 0.660253 35.8876 0.0428044 34.1282 -0.0263672C33.4698 -0.0263672 32.8642 0.922593 33.4435 1.39707C34.5758 2.39875 35.6555 3.42679 36.8405 4.37575C38.2274 5.50064 39.5138 6.74425 40.6852 8.0925C42.8855 10.7944 44.784 13.729 46.3469 16.844C49.8244 22.7938 52.0721 29.3824 52.9566 36.2185C53.1302 32.5209 52.8828 28.8154 52.2192 25.1737Z" fill="#00ADE9"/>
<path d="M57.3017 10.2276C57.0631 10.1538 56.8073 10.1575 56.5708 10.2379C56.3344 10.3184 56.1293 10.4716 55.9851 10.6757C54.6157 12.3363 55.0897 14.7615 55.1687 16.7385C55.1687 17.2129 55.3794 17.6083 55.4057 18.0828C55.432 18.5573 55.4057 19.2427 55.4057 19.8226C55.4057 20.8506 55.6164 21.8786 55.6954 22.933C56.0509 27.2311 56.0509 31.5513 55.6954 35.8494C55.6954 35.8494 55.8534 35.8494 55.8797 35.8494C56.8804 31.3682 57.6177 26.808 58.513 22.274C58.6974 21.246 58.829 20.1916 58.9607 19.1372C58.9607 18.6891 58.9607 18.241 58.9607 17.7929C58.9607 17.3447 59.1977 16.5012 59.1714 15.9213C59.2504 14.1025 59.2767 11.0711 57.3017 10.2276Z" fill="#75CCF4"/>
<path d="M63.1739 12.6265C63.3349 12.3652 63.4758 12.092 63.5953 11.8093C63.5953 11.5984 63.5952 11.3876 63.7269 11.1767C64.0429 10.0696 64.3853 8.98881 64.675 7.85533C65.1226 6.14193 65.544 3.1369 63.0423 2.89966C62.8024 2.8996 62.5676 2.96933 62.3666 3.10037C62.1656 3.2314 62.0069 3.4181 61.9099 3.63774C61.558 5.06285 61.6877 6.56449 62.2786 7.90805C62.9184 9.39633 63.224 11.007 63.1739 12.6265Z" fill="#FAB74D"/>
<path d="M52.3509 39.7244C52.3509 38.6963 52.1402 37.6683 51.9559 36.6666C51.4557 34.3255 50.6593 32.0578 49.5858 29.9185C48.5933 27.8071 47.403 25.7948 46.0308 23.9084C44.7568 21.9337 43.033 20.2895 41.0011 19.1109C40.4218 18.821 39.9741 19.6908 40.1848 20.139C42.0808 24.0929 45.2672 27.1771 47.2685 31.0783C48.2165 32.9235 49.0855 34.8214 49.9019 36.693C51.0401 38.4798 51.8847 40.4377 52.4035 42.4922H52.5615C52.5649 41.5654 52.4945 40.6399 52.3509 39.7244Z" fill="#F1852D"/>
<path d="M43.345 14.3926C42.555 13.3909 41.765 12.2838 40.3693 12.4419C40.0955 12.5051 39.8571 12.6725 39.7047 12.9088C39.5523 13.145 39.4978 13.4314 39.553 13.7072C39.9216 16.0005 43.3187 15.9214 44.5037 17.5821C44.4059 16.4351 44.0061 15.3345 43.345 14.3926Z" fill="#FAB74D"/>
<path d="M40.5273 33.0817C39.869 32.7654 39.3686 33.7407 39.79 34.2152C42.3344 36.8493 44.7427 39.6119 47.0053 42.4922C48.0928 44.008 49.095 45.5832 50.0074 47.2106C51.0721 48.8109 52.0224 50.4845 52.8514 52.219H53.0884C52.8429 48.2098 51.5546 44.3346 49.3512 40.9776C47.1478 37.6206 44.1059 34.8987 40.5273 33.0817Z" fill="#FAB74D"/>
<path d="M45.5041 32.9762C44.2511 29.2599 41.9789 25.9714 38.9471 23.4866C36.0241 20.8507 31.9424 17.1603 27.6764 18.2147C27.4991 18.2568 27.3332 18.3377 27.1907 18.4515C27.0483 18.5652 26.9326 18.7091 26.8521 18.8728C26.7716 19.0365 26.7282 19.2159 26.725 19.3984C26.7219 19.5808 26.759 19.7617 26.8337 19.9281C27.899 21.3559 29.4248 22.371 31.1524 22.8013C33.0141 23.6465 34.7797 24.6893 36.4191 25.9118C38.0254 26.9925 39.6318 28.0733 41.2118 29.1804C42.8377 30.1854 44.273 31.4705 45.4515 32.9762C45.4515 32.9762 45.5305 33.0817 45.5041 32.9762Z" fill="#75CCF4"/>
<path d="M56.4854 42.5712C56.4854 42.0703 55.6954 42.2812 55.5374 42.5712C55.0476 44.0241 54.7898 45.5454 54.7737 47.0787C54.7336 47.8992 54.7866 48.7217 54.9317 49.5302C55.1647 50.2811 55.2802 51.0636 55.2741 51.8499C55.2741 51.8848 55.2879 51.9184 55.3126 51.9431C55.3373 51.9678 55.3708 51.9817 55.4057 51.9817C55.4407 51.9817 55.4741 51.9678 55.4988 51.9431C55.5235 51.9184 55.5374 51.8848 55.5374 51.8499C55.7242 51.549 55.8245 51.2024 55.8271 50.8482C55.8271 49.8202 56.1167 48.8185 56.2484 47.7904C56.587 46.0723 56.6669 44.313 56.4854 42.5712Z" fill="#00ADE9"/>
<path d="M51.1922 52.9044L50.2442 50.9538C49.8187 50.236 49.3436 49.549 48.8222 48.8977C47.9532 47.6324 47.0579 46.2617 46.1889 45.2073C44.0562 42.6811 41.6244 40.4239 38.9472 38.4855C33.9965 34.7951 27.9661 30.7357 21.5407 30.8939C21.0404 30.8939 20.3031 31.7638 20.9351 32.1328C22.0589 32.7721 23.2196 33.3443 24.4111 33.8462C25.8331 34.5316 27.2024 35.2696 28.6508 35.9023C31.6047 37.273 34.4256 38.9143 37.0775 40.8052C39.6594 42.4811 42.131 44.3213 44.4772 46.3144L47.9005 49.3458C49.08 50.4291 50.1556 51.6205 51.1132 52.9044H51.1922Z" fill="#F1852D"/>
<path d="M36.0243 31.4738C34.993 30.2698 33.8165 29.1985 32.5219 28.2842C30.9362 27.0066 29.2741 25.827 27.5449 24.752C25.853 23.6816 24.0938 22.7219 22.2782 21.8788C20.555 20.8182 18.504 20.4245 16.5111 20.7717C15.9845 20.7717 15.3525 21.7733 15.9845 22.2215C17.4475 23.0649 19.0026 23.7371 20.6192 24.2248C22.4098 24.9365 24.1742 25.6746 25.8859 26.4391C27.5975 27.2035 29.3355 28.0207 31.1525 28.9169C32.814 29.698 34.3783 30.6712 35.8136 31.8165C35.8136 31.8165 36.1296 31.5792 36.0243 31.4738Z" fill="#00ADE9"/>
<path d="M49.5334 53.3525C48.8582 52.2921 47.9594 51.3923 46.9 50.7165C45.4656 49.7574 43.9799 48.8774 42.4497 48.0805C40.7687 47.319 38.9995 46.77 37.183 46.4462C35.8378 45.8563 34.3294 45.7538 32.9169 46.1562C32.4166 46.4198 31.9163 47.2897 32.5219 47.7378C33.1276 48.1859 35.1553 48.265 36.156 48.5286C37.7887 48.9504 39.395 49.3985 41.0276 49.873C42.4796 50.2895 43.8971 50.8183 45.2673 51.4546C45.952 51.7972 46.5577 52.1663 47.2424 52.4562C47.973 52.695 48.6717 53.0225 49.3227 53.4316C49.3227 53.4316 49.5334 53.3788 49.5334 53.3525Z" fill="#00ADE9"/>
<path d="M28.9404 45.6026C26.9654 45.2599 25.0431 44.7064 23.0417 44.3901C21.0404 44.0738 18.9864 43.8629 16.9587 43.6784C12.8728 43.1204 8.71705 43.9265 5.13499 45.9717C4.50299 46.4198 4.39765 47.8169 5.42466 47.8432C7.27574 47.7124 9.10057 47.3311 10.8494 46.7098C12.7752 46.1947 14.7388 45.8333 16.7217 45.629C18.7494 45.4445 20.7771 45.4445 22.8047 45.4181C24.8324 45.3918 26.8601 45.629 28.9141 45.6817L28.9404 45.6026Z" fill="#75CCF4"/>
<path d="M35.8399 42.8348C34.3254 41.921 32.7605 41.0938 31.1526 40.3569C29.4146 39.6716 27.7556 38.8017 25.8859 38.1691C24.0162 37.5364 22.7259 37.3519 21.0405 37.0883C19.3215 36.5816 17.4929 36.5816 15.7738 37.0883C15.2735 37.2465 14.9575 38.2481 15.6158 38.459C17.1188 38.8124 18.6395 39.0852 20.1715 39.2762C21.9359 39.5925 23.7265 39.9088 25.4382 40.3306C28.9142 41.1477 32.3376 42.1758 35.8136 42.9666C35.84 42.9139 35.8926 42.8611 35.8399 42.8348Z" fill="#00ADE9"/>
<path d="M40.0005 51.7972C38.8419 51.6127 37.7359 51.2437 36.6035 51.0328C35.4712 50.8219 33.6015 50.4529 32.0742 50.1893C29.2097 49.7189 26.3131 49.4721 23.4104 49.4512C18.1437 49.4512 10.5597 49.6884 7.18904 54.5123C6.71504 55.1976 6.76769 56.1993 7.74203 56.3575C10.2174 56.7792 13.0087 55.1976 15.2734 54.565C17.9746 53.8397 20.7187 53.2851 23.4894 52.9043C26.2808 52.4826 29.0721 52.1399 31.8898 51.8763C33.3908 51.8763 34.9182 51.6654 36.4455 51.6654C37.9729 51.6654 38.7892 51.8763 39.9742 51.8763C40.0269 51.8763 40.0532 51.7972 40.0005 51.7972Z" fill="#F1852D"/>
<path d="M39.474 54.3806C37.4538 53.7694 35.3329 53.5634 33.233 53.7743C30.4805 53.9452 27.8611 55.0199 25.7806 56.8321C25.1223 57.4384 25.0959 58.8091 26.3073 58.6246C28.542 58.104 30.7271 57.3896 32.838 56.4894C34.9872 55.6547 37.1969 54.985 39.4477 54.486C39.4477 54.486 39.474 54.407 39.474 54.3806Z" fill="#00ADE9"/>
<path d="M35.2605 58.9671C32.098 60.1374 29.0034 61.4839 25.9911 63.0002C22.7256 64.7294 19.6908 66.8638 16.9587 69.3529C14.3039 71.7586 12.0463 74.57 10.2701 77.6827C9.40214 79.2037 8.69604 80.8117 8.16337 82.4802C7.45454 84.1414 7.2441 85.9732 7.55771 87.7522C7.63558 87.9605 7.76385 88.1462 7.93108 88.2927C8.0983 88.4392 8.29923 88.5419 8.51584 88.5915C8.73246 88.6412 8.95802 88.6362 9.17225 88.5771C9.38649 88.5181 9.58273 88.4067 9.74339 88.253C10.8469 87.1214 11.6914 85.7633 12.2187 84.2727C12.798 82.8756 13.3774 81.4521 14.0357 80.0814C15.4833 77.2524 17.2504 74.5991 19.3024 72.1735C23.7686 66.9421 29.1162 62.5348 35.1025 59.1516C35.1025 59.1516 35.2868 58.9408 35.2605 58.9671Z" fill="#F1852D"/>
<path d="M48.6643 60.0216C43.6973 63.5794 39.3169 67.8931 35.6818 72.8062C33.8002 75.5585 32.2115 78.5005 30.9418 81.584C29.531 84.4296 28.8522 87.5826 28.9668 90.7573C28.9891 90.9174 29.0599 91.0669 29.1697 91.1855C29.2795 91.3042 29.423 91.3863 29.5808 91.4207C29.7387 91.4552 29.9033 91.4404 30.0525 91.3783C30.2016 91.3163 30.3282 91.2099 30.4151 91.0736C31.9787 88.6576 33.2515 86.0652 34.2072 83.3501C35.4055 80.4371 36.7502 77.5866 38.2362 74.8095C39.5792 72.3053 41.2119 69.9066 42.7392 67.5078C44.381 64.7957 46.3536 62.2987 48.6116 60.0743C48.6116 60.0743 48.7169 59.9689 48.6643 60.0216Z" fill="#00ADE9"/>
<path d="M34.8129 67.7451C31.6212 69.7685 28.655 72.128 25.9649 74.7832C23.065 77.7113 20.9775 81.3454 19.9082 85.3272C19.5132 87.067 21.6989 87.1197 22.3572 85.8544C24.0689 82.5858 25.7279 79.3699 27.6239 76.2594C29.6105 73.1533 32.0214 70.3406 34.7866 67.9033C34.7866 67.9033 34.8919 67.6661 34.8129 67.7451Z" fill="#75CCF4"/>
<path d="M26.8339 84.3783C25.5645 86.1477 24.5041 88.0583 23.6739 90.072C22.8501 92.4369 22.423 94.9219 22.4099 97.4264C22.4099 98.5863 23.9109 98.1645 24.1216 97.4264C25.1749 93.1298 25.7542 88.754 26.9919 84.5101C26.9392 84.3255 26.8603 84.3519 26.8339 84.3783Z" fill="#00ADE9"/>
<path d="M46.8209 57.781C40.5272 58.9936 32.3902 60.417 29.1511 66.6907C29.0699 66.8307 29.0352 66.9929 29.052 67.1539C29.0688 67.315 29.1362 67.4665 29.2446 67.5867C29.3529 67.7069 29.4966 67.7896 29.6549 67.8228C29.8133 67.856 29.978 67.838 30.1255 67.7714C31.5099 67.094 32.7804 66.2047 33.8912 65.1354C35.1025 64.1074 36.5245 63.1584 37.7095 62.2358C40.5521 60.4087 43.6133 58.9474 46.8209 57.8864C46.8209 57.8864 46.8999 57.781 46.8209 57.781Z" fill="#FAB74D"/>
<path d="M20.3822 63.0266C16.8671 63.6376 13.5095 64.9461 10.5071 66.8752C8.92073 67.9626 7.47844 69.2469 6.21474 70.6974C4.90434 71.9283 4.12101 73.6193 4.02905 75.4158C4.03109 75.5721 4.07396 75.7252 4.15337 75.8598C4.23279 75.9944 4.34601 76.1059 4.48178 76.1832C4.61755 76.2605 4.77113 76.3009 4.92731 76.3003C5.0835 76.2998 5.23684 76.2584 5.37209 76.1802C6.70766 75.5017 7.8493 74.495 8.69009 73.2543C9.76049 71.9108 10.9313 70.6507 12.1924 69.4848C14.5675 66.9702 17.3005 64.8207 20.3032 63.1057C20.3032 63.1057 20.4085 63.0266 20.3822 63.0266Z" fill="#00ADE9"/>
<path d="M55.985 58.5718C55.985 58.5718 55.985 58.5718 55.8533 58.5718C55.5637 60.6279 55.116 62.6312 54.958 64.7136C54.8 66.7961 54.4313 69.2739 54.326 71.5672C53.7733 76.205 53.7203 80.8889 54.168 85.538C54.326 86.4869 55.5637 85.8279 55.7217 85.2217C56.2011 82.9768 56.4569 80.6899 56.4854 78.3944C56.4854 76.1011 56.7487 73.8078 56.775 71.5145C56.7476 67.1891 56.4839 62.8684 55.985 58.5718Z" fill="#00ADE9"/>
<path d="M48.4009 68.9049C46.7683 72.1208 44.8459 75.0732 43.5029 78.3945C42.8685 80.0395 42.3321 81.7207 41.8966 83.4292C41.484 85.1559 41.2807 86.9259 41.2909 88.7012C41.2909 89.9138 42.8709 89.7029 43.2395 88.833C44.4347 85.6301 45.3941 82.3439 46.1099 79.0008C46.5839 77.261 46.7946 75.4685 47.1896 73.7288C47.5846 71.989 48.0849 70.5656 48.4799 68.9576C48.4799 68.8786 48.4273 68.8786 48.4009 68.9049Z" fill="#75CCF4"/>
<path d="M36.2613 85.248C35.9453 85.8016 35.6556 86.3815 35.366 86.9614C34.102 89.5974 32.3376 93.3142 33.3646 96.2665C33.4374 96.4334 33.5544 96.5773 33.7028 96.6826C33.8513 96.788 34.0257 96.8508 34.2071 96.8644C34.3886 96.8779 34.5703 96.8417 34.7327 96.7596C34.8952 96.6774 35.0322 96.5525 35.129 96.3983C37.104 93.7623 37.341 90.151 38.21 87.1196C38.6577 85.5907 39.0527 84.0618 39.4477 82.5066C39.6847 81.7158 40.1586 80.7405 40.3693 79.8706C39.079 81.6367 37.6043 83.4028 36.2613 85.248Z" fill="#FAB74D"/>
<path d="M50.4288 91.5745C50.4288 89.2812 50.2707 86.9879 50.1654 84.6946C50.1654 84.5364 49.9811 84.6946 49.9547 84.6946C48.1873 89.2845 47.4414 94.2052 47.769 99.1134C47.9797 100.431 49.6914 99.5088 49.9284 98.6917C50.4212 96.3536 50.5896 93.9586 50.4288 91.5745Z" fill="#00ADE9"/>
<path d="M52.9303 58.1763C51.5346 59.547 49.9282 60.5487 48.6379 62.0512C47.3359 63.4826 46.3649 65.1836 45.7939 67.0332C45.5832 67.7186 46.5049 67.9822 46.8472 67.455C47.8216 66.0315 48.5853 64.4763 49.4806 63.0001C50.3759 61.524 51.9559 59.916 53.0356 58.2554C53.0883 58.1763 53.0093 58.1763 52.9303 58.1763Z" fill="#FAB74D"/>
<path d="M18.8549 58.4399C16.6227 58.6386 14.4314 59.1625 12.3505 59.9952C9.74181 60.7543 7.41504 62.2673 5.6618 64.3446C5.16147 65.0299 5.4248 66.1107 6.39914 65.9789C8.68548 65.3415 10.7823 64.1563 12.5085 62.5257C14.4365 60.9278 16.5713 59.5978 18.8549 58.5717C18.8549 58.5717 18.9339 58.4399 18.8549 58.4399Z" fill="#FAB74D"/>
<path d="M66.729 77.0764C66.018 74.6513 65.2543 72.1735 64.3853 69.7747C63.5521 67.3907 62.5032 65.0879 61.2516 62.8948C60.652 61.8724 59.9553 60.9102 59.1713 60.0216C58.8289 59.6262 58.5393 59.178 58.1969 58.7826C57.8546 58.3872 57.3806 58.1236 57.1699 57.6492C57.23 57.9009 57.3472 58.1354 57.5123 58.3345C57.8458 58.8874 58.1279 59.4698 58.3549 60.0743C58.8026 61.155 59.1186 62.3149 59.4873 63.4484C60.251 65.9526 61.278 68.3513 62.1206 70.8555C62.9633 73.3597 63.569 75.4685 64.28 77.7618C64.991 80.0551 65.5703 82.4802 66.5183 84.7735C66.8079 85.4853 67.7033 85.0108 67.7297 84.3781C67.7616 81.9079 67.4243 79.4468 66.729 77.0764Z" fill="#00ADE9"/>
<path d="M77.2887 89.0703C76.4556 86.8257 75.5064 84.6261 74.4447 82.4803C73.4704 80.5033 72.4697 78.5 71.3374 76.6021C70.7463 75.6816 70.0952 74.801 69.3887 73.9661C70.126 76.3912 70.5211 78.9481 71.1794 81.3732C71.3901 82.164 71.627 82.9284 71.864 83.6929C72.575 85.8544 73.3914 88.0159 74.1551 90.1774C74.6921 92.2395 75.6318 94.1747 76.9201 95.8712C77.0095 95.9684 77.125 96.0377 77.2528 96.0707C77.3806 96.1037 77.5152 96.099 77.6404 96.0572C77.7656 96.0155 77.8761 95.9384 77.9585 95.8352C78.041 95.732 78.0919 95.6072 78.1051 95.4758C78.3997 93.3059 78.118 91.0967 77.2887 89.0703Z" fill="#00ADE9"/>
<path d="M61.9891 109.157C62.5421 109.895 63.2794 110.448 64.0694 109.499C64.3109 109.2 64.5144 108.873 64.6751 108.524C65.0202 106.194 65.0908 103.832 64.8858 101.486C64.8461 97.2695 64.5294 93.0604 63.9378 88.8857C63.1223 84.9594 61.9861 81.1067 60.5408 77.3665C60.8839 79.4136 60.9371 81.499 60.6988 83.561C60.6988 85.7226 60.6988 87.8841 60.6988 90.0719C60.6639 94.1202 60.8398 98.1675 61.2255 102.198C61.3835 103.832 61.4888 105.493 61.5941 107.153C61.627 107.837 61.7601 108.512 61.9891 109.157Z" fill="#F1852D"/>
<path d="M81.9499 85.2744C81.37 82.3639 80.2053 79.6018 78.5265 77.1556C76.8938 74.8359 75.2086 72.5162 73.4969 70.2229C71.6748 67.8366 69.6482 65.6139 67.4401 63.5802C65.3576 61.4967 62.8888 59.8402 60.1721 58.7036C62.4198 60.4882 64.3746 62.6139 65.9655 65.0036C67.8615 67.4288 69.5468 69.9857 71.3902 72.4635C72.9 74.5196 74.3746 76.602 75.8142 78.7108C77.4995 81.1096 78.8689 83.6928 80.6069 86.0652C81.1072 86.9087 82.1079 86.0125 81.9499 85.2744Z" fill="#00ADE9"/>
<path d="M93.2206 91.0473C92.5613 88.2822 91.5245 85.6212 90.1395 83.1393C87.9891 79.4472 85.3982 76.0305 82.4238 72.9644C79.5905 70.2158 76.3699 67.8979 72.8647 66.0845V66.2163C73.6548 67.0861 74.6291 67.7715 75.4981 68.6414C79.9777 73.8245 84.0205 79.3703 87.5852 85.2218C88.9685 87.6113 90.6016 89.8468 92.4569 91.8908C92.6939 92.2599 93.3259 91.4954 93.2206 91.0473Z" fill="#F1852D"/>
<path d="M106.335 55.7512C103.516 53.4109 100.126 51.8642 96.5122 51.27C89.1366 49.4847 81.4735 49.2335 73.997 50.532C70.3443 51.111 66.7957 52.221 63.4636 53.827C70.4753 51.7917 77.8747 51.4842 85.0308 52.9307C88.4278 53.4579 91.7985 54.0905 95.1692 54.855C98.573 55.8751 102.039 56.6764 105.545 57.2537C105.717 57.2485 105.885 57.1976 106.031 57.1061C106.178 57.0146 106.297 56.8859 106.377 56.7331C106.458 56.5803 106.496 56.4089 106.489 56.2364C106.481 56.0639 106.428 55.8964 106.335 55.7512Z" fill="#00ADE9"/>
<path d="M110.574 67.9559C110.416 65.7681 108.415 64.74 106.703 63.7384C104.514 62.5255 102.234 61.4855 99.883 60.6279C97.6646 59.8098 95.4057 59.1059 93.1153 58.5191C90.8243 57.9655 88.4806 57.3593 86.137 56.9111C90.3913 58.3794 94.5213 60.1864 98.4874 62.3149C100.357 63.261 102.168 64.3173 103.912 65.4781C104.465 66.0844 110.785 71.0401 110.574 67.9559Z" fill="#00ADE9"/>
<path d="M96.9863 67.165C92.5433 62.9675 87.2027 59.8392 81.3705 58.0181C78.5795 57.109 75.7286 56.3955 72.8385 55.883C71.3728 55.5847 69.8835 55.4171 68.3882 55.3821C67.413 55.2926 66.4296 55.3911 65.4915 55.6721V55.8039C66.7692 55.763 68.0393 56.0155 69.2045 56.542C70.5167 56.9141 71.8088 57.354 73.0755 57.86C75.7089 58.9407 78.3422 59.8106 80.9756 60.9704C86.2423 63.2901 91.2456 65.7943 96.4859 67.9822C96.9073 68.1667 97.4076 67.4814 96.9863 67.165Z" fill="#FAB74D"/>
<path d="M96.7757 76.7866C95.3064 74.1076 93.1409 71.8762 90.5083 70.3284C88.2164 68.5807 85.8055 66.9952 83.293 65.5836C78.1346 62.3871 72.4436 60.1459 66.4922 58.9673C69.0245 60.1802 71.4861 61.5355 73.8655 63.0267C76.4989 64.3974 78.9479 65.9527 81.5022 67.4025C83.9362 68.8129 86.2761 70.3803 88.5069 72.0945C89.7183 73.0171 90.9559 73.9134 92.1146 74.915C93.2122 76.0002 94.4855 76.8914 95.8804 77.551C96.3544 77.8937 96.9864 77.2874 96.7757 76.7866Z" fill="#F1852D"/>
<path d="M109.547 86.9615C109.356 85.5863 108.9 84.2614 108.204 83.0602C106.916 80.4904 105.276 78.1128 103.333 75.9957C100.673 72.7899 97.099 70.4725 93.0889 69.353C93.0889 69.353 93.0889 69.353 93.0889 69.4848C95.1231 71.1142 96.8988 73.0428 98.3556 75.2049C100.594 77.8409 102.938 80.4769 105.018 83.1129C105.755 84.1146 107.651 87.5677 109.152 87.4096C109.256 87.3837 109.349 87.327 109.419 87.247C109.49 87.1669 109.534 87.0674 109.547 86.9615Z" fill="#FAB74D"/>
<path d="M98.2238 87.1723C96.9568 85.4464 95.5849 83.8002 94.1158 82.243C92.6825 80.7285 91.1425 79.319 89.5075 78.0254C89.3231 78.0254 89.5075 78.0254 89.5075 78.0254C90.823 79.464 92.054 80.9778 93.1941 82.5593C94.3528 84.3254 95.4325 86.1442 96.4068 87.9894C98.3555 91.6271 100.094 95.3439 102.279 98.8234C102.753 99.5615 103.886 98.8234 103.833 98.0853C102.952 94.0181 101.017 90.2545 98.2238 87.1723Z" fill="#00ADE9"/>
<path d="M55.59 98.0854C55.4541 97.0976 55.2517 96.12 54.9843 95.1595C54.8 94.3687 54.7473 93.5515 54.5103 92.7871C54.5103 92.5498 54.1417 92.7871 54.1417 92.7871C54.0783 93.6782 53.9283 94.561 53.694 95.4231C53.4833 96.4511 53.4307 97.5055 53.299 98.5599C52.8786 100.37 52.979 102.262 53.5887 104.016C53.931 104.781 55.0896 104.254 55.3003 103.7C55.8963 101.888 55.9963 99.9493 55.59 98.0854Z" fill="#75CCF4"/>
<path d="M115.604 53.1153C115.314 50.1893 111.628 49.0822 109.231 48.4759C107.647 48.1063 106.035 47.8682 104.412 47.7642C102.965 47.5553 101.498 47.5111 100.041 47.6324C100.041 47.6324 99.8829 47.7905 100.041 47.8169C102.626 48.7257 105.143 49.818 107.572 51.0855C108.787 51.5945 109.966 52.1846 111.101 52.8517C112.125 53.6203 113.352 54.0696 114.63 54.1433C115.051 54.196 115.683 53.7479 115.604 53.1153Z" fill="#FAB74D"/>
<path d="M86.8742 37.352C85.8212 37.1542 84.7408 37.1542 83.6878 37.352C81.9863 37.8511 80.3892 38.6549 78.9741 39.7244C81.6075 39.039 84.2409 39.3553 86.7425 38.5645C87.1639 38.3009 87.4798 37.4838 86.8742 37.352Z" fill="#00ADE9"/>
</g>
<defs>
<clipPath id="clip0_1209_1008">
<rect width="116.21" height="110" fill="white"/>
</clipPath>
</defs>
</svg>
