<svg width="18" height="18" viewBox="0 0 18 18" fill="none" xmlns="http://www.w3.org/2000/svg">
<path d="M4.90914 17.1817H2.45458C2.02058 17.1817 1.60437 17.0093 1.29749 16.7024C0.990607 16.3955 0.818204 15.9793 0.818204 15.5453V9.81801C0.818204 9.38402 0.990607 8.9678 1.29749 8.66092C1.60437 8.35404 2.02058 8.18164 2.45458 8.18164H4.90914M10.6364 6.54526V3.27252C10.6364 2.62153 10.3778 1.9972 9.91752 1.53688C9.4572 1.07656 8.83287 0.817957 8.18188 0.817957L4.90914 8.18164V17.1817H14.1383C14.5329 17.1862 14.9159 17.0478 15.2166 16.7922C15.5173 16.5366 15.7155 16.181 15.7747 15.7908L16.9038 8.42709C16.9394 8.19257 16.9235 7.9531 16.8574 7.7253C16.7913 7.49749 16.6764 7.28678 16.5207 7.10778C16.3651 6.92878 16.1724 6.78576 15.9559 6.68862C15.7395 6.59149 15.5046 6.54258 15.2674 6.54526H10.6364Z" stroke="#F36430" stroke-width="1.61666" stroke-linecap="round" stroke-linejoin="round"/>
</svg>
