<svg width="307" height="131" viewBox="0 0 307 131" fill="none" xmlns="http://www.w3.org/2000/svg">
<g clip-path="url(#clip0_1169_1018)">
<path d="M209.79 128.077C209.79 128.077 263.232 101.725 272.42 87.982C281.609 74.2391 268.113 73.4609 268.113 73.4609C268.113 73.4609 291.964 50.2651 288.607 40.5021C285.25 30.739 272.897 39.6923 272.897 39.6923C272.897 39.6923 288.234 5.55612 281.003 2.1247C267.536 -4.26722 248.642 32.4619 248.642 32.4619C248.642 32.4619 252.702 16.5051 243.427 17.0248C229.443 17.8059 230.02 53.8975 230.02 53.8975C230.02 53.8975 228.441 40.0599 220.01 44.5537C204.874 52.6197 209.79 128.077 209.79 128.077Z" fill="#355389"/>
<path d="M216.955 38.9715C223.539 35.319 230.095 45.9952 230.095 45.9952C230.095 45.9952 229.431 17.8059 243.416 17.0248C252.69 16.5051 248.63 32.4619 248.63 32.4619C248.63 32.4619 267.525 -4.26722 280.992 2.1247L209.727 127.488C209.225 118.736 203.915 46.2077 216.955 38.9715Z" fill="#466EB6"/>
<path d="M211.172 128.398C211.172 128.398 254.878 133.828 266.195 128.99C277.512 124.151 269.402 118.176 269.402 118.176C269.402 118.176 293.704 113.401 295.579 105.946C297.454 98.4918 286.244 99.0862 286.244 99.0862C286.244 99.0862 309.543 83.9994 306.427 78.9198C300.624 69.4611 273.916 84.6915 273.916 84.6915C273.916 84.6915 282.933 76.39 276.937 72.9442C267.895 67.7497 253.592 90.4976 253.592 90.4976C253.592 90.4976 254.479 84.8896 247.395 84.2693C234.683 83.1552 211.172 128.398 211.172 128.398Z" fill="#355389"/>
<path d="M247.108 80.1978C254.192 80.818 253.592 90.5007 253.592 90.5007C253.592 90.5007 268.153 63.5374 277.196 68.7319C283.191 72.1777 276.099 83.4914 276.099 83.4914C276.099 83.4914 300.624 69.4642 306.427 78.9228L211.04 128.16C214.281 122.495 235.235 79.1554 247.108 80.1978Z" fill="#466EB6"/>
<path d="M96.9183 126.698C96.9183 126.698 43.4772 100.347 34.2855 86.6039C25.0939 72.8609 38.5928 72.0828 38.5928 72.0828C38.5928 72.0828 14.7422 48.8869 18.099 39.1239C21.4558 29.3609 33.9754 38.6903 33.9754 38.6903C33.9754 38.6903 18.4694 4.17795 25.7056 0.746531C39.1728 -5.64539 58.0643 31.0838 58.0643 31.0838C58.0643 31.0838 54.004 15.1269 63.2789 15.6467C77.263 16.4277 76.6859 52.5194 76.6859 52.5194C76.6859 52.5194 78.2652 38.6817 86.6958 43.1784C101.834 51.2416 96.9183 126.698 96.9183 126.698Z" fill="#355389"/>
<path d="M89.7539 37.5934C83.1696 33.9409 76.614 44.6171 76.614 44.6171C76.614 44.6171 77.2773 16.4277 63.2932 15.6467C54.0183 15.1269 58.0786 31.0838 58.0786 31.0838C58.0786 31.0838 39.1871 -5.64539 25.7198 0.746531L96.9728 126.101C97.4839 117.357 102.793 44.8382 89.7539 37.5934Z" fill="#466EB6"/>
<path d="M95.5372 127.026C95.5372 127.026 51.8304 132.453 40.5139 127.617C29.1974 122.782 37.3064 116.803 37.3064 116.803C37.3064 116.803 13.0051 112.031 11.1329 104.565C9.26065 97.0992 20.8586 97.8429 20.8586 97.8429C20.8586 97.8429 -2.83403 82.624 0.281529 77.5358C6.08479 68.0972 32.7924 83.316 32.7924 83.316C32.7924 83.316 23.776 75.0117 29.7716 71.5688C38.8139 66.3714 53.1197 89.1193 53.1197 89.1193C53.1197 89.1193 52.2295 83.5113 59.3135 82.8911C72.0255 81.7798 95.5372 127.026 95.5372 127.026Z" fill="#355389"/>
<path d="M58.5697 75.2989C51.4829 75.922 51.5949 82.8021 51.5949 82.8021C51.5949 82.8021 38.5555 62.159 29.5132 67.3535C23.5175 70.7993 30.6101 82.1129 30.6101 82.1129C30.6101 82.1129 6.08474 68.0972 0.281475 77.5444L95.6721 126.782C92.4273 121.116 70.4404 74.2594 58.5697 75.2989Z" fill="#466EB6"/>
</g>
<defs>
<clipPath id="clip0_1169_1018">
<rect width="306.339" height="130.838" fill="white" transform="scale(1.00124)"/>
</clipPath>
</defs>
</svg>
