<svg width="153" height="81" viewBox="0 0 153 81" fill="none" xmlns="http://www.w3.org/2000/svg">
<path d="M151.853 56.0559L145.911 66.1472C141.636 65.4312 127.928 63.1476 112.251 60.6401C110.755 65.5025 108.933 70.2936 107.46 75.1424L147.007 74.1618L148.205 74.1856C149.255 74.204 150.269 73.8097 151.031 73.0875C151.792 72.3653 152.24 71.373 152.277 70.3242L152.789 56.0729L151.853 56.0559Z" fill="#FFA68C"/>
<path d="M150.52 74.4229C149.606 74.3662 148.699 74.2391 147.805 74.0429C148.484 72.3768 149.006 70.5547 149.661 68.8819C150.174 67.6607 150.587 66.4 150.896 65.1121C151.198 63.8163 151.198 62.4684 150.896 61.1726C150.218 60.5958 149.987 59.5846 150.139 58.7024C150.341 57.8281 150.713 57.0023 151.236 56.2729C151.411 55.9407 151.668 55.6583 151.982 55.4517C152.143 55.3532 152.333 55.3149 152.52 55.3434C152.706 55.372 152.876 55.4657 153 55.6078L152.552 72.5159C152.546 72.7754 152.489 73.0312 152.383 73.2682C152.278 73.5053 152.126 73.7188 151.936 73.8964C151.747 74.074 151.524 74.212 151.281 74.3024C151.038 74.3928 150.779 74.4338 150.52 74.4229Z" fill="#FFA430"/>
<path d="M47.1164 77.4971L117.504 75.8887L121.579 61.2032L49.4814 54.1115L37.1982 59.398L47.1164 77.4971Z" fill="#24629F"/>
<path d="M119.798 67.6197L118.359 72.8011L116.089 75.9228L100.979 76.2621L79.331 71.5117L66.0061 77.0663L55.0021 77.3174L55.3889 77.1613L79.2394 67.2024L113.694 74.7895L119.123 67.3245C119.363 67.4297 119.591 67.5247 119.798 67.6197Z" fill="#2E2044"/>
<g style="mix-blend-mode:multiply" opacity="0.5">
<path d="M146.458 71.454C146.55 71.5394 146.619 71.6457 146.661 71.7638C146.703 71.882 146.716 72.0084 146.699 72.1326C146.692 72.2562 146.656 72.3764 146.593 72.4828C146.529 72.5892 146.441 72.6786 146.336 72.7434C146.331 72.3138 146.372 71.8851 146.458 71.4641V71.454Z" fill="#FFA68C"/>
</g>
<path d="M149.162 75.3765L149.02 74.613L137.88 71.1147L105.367 58.4379C104.501 60.2871 103.65 62.1432 102.832 64.0094C101.787 66.3846 100.752 68.7904 99.6797 71.1622C113.931 74.3009 126.777 76.123 130.924 76.7066C131.121 77.8196 131.317 78.919 131.368 79.1904L149.162 75.3765Z" fill="#FFAE96"/>
<g style="mix-blend-mode:multiply" opacity="0.5">
<path d="M121.274 64.5183C123.31 65.197 125.346 65.9197 127.381 66.6425C129.417 67.3652 131.433 68.1185 133.459 68.8548C135.484 69.5911 137.5 70.3647 139.512 71.1384L142.528 72.3056C143.546 72.7094 144.534 73.0996 145.531 73.5102C144.513 73.1709 143.496 72.8112 142.478 72.4617L139.424 71.3827C137.388 70.6599 135.372 69.9101 133.347 69.1737C131.321 68.4374 129.305 67.6638 127.293 66.8868C125.281 66.1097 123.272 65.3327 121.274 64.5183Z" fill="#FFA68C"/>
<path d="M130.815 75.4206C131.005 75.6513 131.131 75.8481 131.28 76.0416C131.429 76.235 131.569 76.425 131.725 76.6727C131.58 76.6583 131.441 76.6122 131.317 76.5377C131.192 76.4632 131.086 76.3621 131.005 76.2417C130.917 76.1264 130.854 75.9934 130.821 75.8518C130.789 75.7101 130.787 75.5631 130.815 75.4206Z" fill="#FFA68C"/>
</g>
<path d="M131.066 79.3024C130.815 78.4232 130.633 77.5259 130.52 76.6184C132.315 76.6965 134.209 76.5913 136.004 76.6524C137.327 76.7288 138.655 76.6982 139.974 76.5607C141.301 76.4244 142.579 75.9806 143.706 75.2645C143.895 74.8538 144.184 74.4976 144.548 74.2293C144.912 73.9611 145.338 73.7895 145.786 73.7308C146.678 73.6291 147.581 73.7052 148.443 73.9548C148.813 74.0094 149.164 74.1577 149.461 74.3857C149.608 74.5051 149.708 74.6734 149.743 74.8601C149.777 75.0469 149.743 75.2397 149.647 75.4037L133.53 80.5952C133.283 80.6753 133.023 80.7052 132.765 80.6833C132.507 80.6614 132.255 80.588 132.026 80.4676C131.796 80.3471 131.593 80.182 131.429 79.9819C131.264 79.7818 131.141 79.5508 131.066 79.3024Z" fill="#FFA430"/>
<path d="M25.9667 52.4692C25.9667 52.4692 20.0626 61.4306 21.2401 73.2829C21.9764 80.7105 33.089 81.2364 41.2834 80.5917C46.1406 80.2031 50.9052 79.0452 55.399 77.1612L79.2529 67.2057L113.704 74.7894L121.508 64.0874C121.508 64.0874 82.7681 47.2132 77.105 47.0029C71.4418 46.7925 50.4246 52.7712 50.4246 52.7712L25.9667 52.4692Z" fill="#24629F"/>
<g style="mix-blend-mode:multiply" opacity="0.5">
<g style="mix-blend-mode:multiply" opacity="0.5">
<path d="M26.7031 58.2343C26.8278 60.4274 27.0999 62.6095 27.5174 64.7661C27.9314 66.9225 28.79 68.9691 30.0385 70.7754C30.6676 71.6734 31.4257 72.4737 32.2882 73.1506C32.7243 73.476 33.1862 73.7654 33.6692 74.0159C34.154 74.2598 34.6607 74.4574 35.1826 74.6063C36.2333 74.8982 37.3232 75.0241 38.4129 74.9795C39.5037 74.9293 40.5868 74.7713 41.6465 74.5079C43.7669 73.9519 45.8408 73.2314 47.8492 72.3532C49.8851 71.5117 51.8633 70.5786 53.811 69.5708C55.7587 68.5631 57.6656 67.4705 59.5183 66.2964C61.371 65.1224 63.1761 63.8669 65.0593 62.7234C66.9304 61.54 68.9439 60.5983 71.0516 59.9207C73.1838 59.2803 75.4287 59.1055 77.6344 59.4083C79.8198 59.7236 81.966 60.2684 84.0372 61.0336C86.1172 61.7632 88.1633 62.5572 90.2399 63.2765C94.3841 64.731 98.5769 66.0363 102.818 67.1922C107.06 68.3482 111.333 69.3661 115.638 70.2461C111.317 69.4362 107.029 68.4726 102.774 67.3551C98.5192 66.2376 94.3162 64.9493 90.1653 63.4903C88.0819 62.7777 86.029 61.9905 83.9558 61.2746C81.899 60.5242 79.7687 59.9931 77.6004 59.69C75.4383 59.4028 73.2397 59.5833 71.1534 60.2193C69.0763 60.8993 67.0927 61.8375 65.2493 63.0119C63.3729 64.1418 61.5644 65.3871 59.6947 66.5611C57.8251 67.7351 55.9114 68.8142 53.9569 69.8219C52.0024 70.8297 49.9971 71.7526 47.9612 72.5873C45.9374 73.4614 43.8488 74.1772 41.7144 74.7284C40.6383 74.9888 39.5394 75.1434 38.4332 75.1899C37.3223 75.2307 36.2118 75.0978 35.1418 74.7963C34.6086 74.64 34.0907 74.4356 33.5946 74.1855C33.1026 73.9271 32.6328 73.6286 32.1898 73.2931C31.317 72.6094 30.5517 71.7984 29.9198 70.8874C28.6804 69.0526 27.8379 66.9793 27.4462 64.8001C27.0503 62.6308 26.802 60.4372 26.7031 58.2343Z" fill="#24629F"/>
<path d="M31.0259 57.0196C30.9105 57.8781 30.7476 58.7162 30.5678 59.5713C30.388 60.4263 30.1742 61.2678 29.9469 62.089C29.7195 62.9101 29.4583 63.7483 29.1732 64.5626L28.7321 65.7841C28.5692 66.1845 28.4166 66.5883 28.2401 66.9819C28.3453 66.5612 28.4674 66.1506 28.5794 65.7299L28.9187 64.4846L29.5974 61.9974L30.2964 59.5102C30.5475 58.6789 30.7748 57.8475 31.0259 57.0196Z" fill="#24629F"/>
<path d="M79.5957 48.4145C79.5816 48.686 79.5025 48.9502 79.3649 49.1847C79.2378 49.4254 79.0566 49.6333 78.8356 49.7921C78.8587 49.522 78.9383 49.2598 79.0692 49.0225C79.2002 48.7852 79.3795 48.578 79.5957 48.4145Z" fill="#24629F"/>
<path d="M80.3117 65.5804C80.2074 66.2473 79.8923 66.8633 79.4125 67.3381C79.397 67.3539 79.3785 67.3664 79.3581 67.375C79.3377 67.3835 79.3159 67.388 79.2937 67.388C79.2716 67.388 79.2497 67.3835 79.2293 67.375C79.2089 67.3664 79.1905 67.3539 79.175 67.3381C79.1528 67.317 79.1374 67.2899 79.1309 67.26C79.0494 66.9512 78.951 66.6492 78.8696 66.3337C78.775 66.0177 78.7158 65.6923 78.6931 65.3632C78.8458 65.6584 78.9849 65.9468 79.1173 66.2454C79.2555 66.5444 79.369 66.8543 79.4566 67.1718L79.1716 67.0971C79.6119 66.6398 79.9948 66.1305 80.3117 65.5804Z" fill="#24629F"/>
</g>
<path d="M113.249 60.4603C114.528 60.8743 115.77 61.3832 117.002 61.916C118.233 62.4487 119.445 63.0255 120.619 63.6838C119.336 63.2698 118.094 62.7609 116.866 62.2281C115.638 61.6954 114.423 61.1186 113.249 60.4603Z" fill="#24629F"/>
</g>
<path d="M52.5149 3.67229L52.1518 3.28886C52.1518 3.28886 47.2114 -1.46156 42.4678 2.44397C41.7449 3.03705 41.0719 3.68845 40.4556 4.39164C40.2918 4.17427 40.0602 4.01783 39.7974 3.94713C38.8642 3.68925 37.1371 6.51914 37.9922 8.30733C37.0082 10.7436 36.9743 13.2512 38.3621 15.2599C39.7974 17.8387 42.3694 19.688 43.2109 19.8169C43.7266 19.8984 44.7887 19.3792 45.9457 18.6734H45.9661C46.0713 18.609 46.1697 18.5411 46.2783 18.4766C47.0892 17.9711 47.924 17.3908 48.6535 16.8683L49.1726 16.4882L49.2778 16.4102C50.51 15.4796 51.685 14.4757 52.7965 13.4039C56.943 8.88078 52.5149 3.67229 52.5149 3.67229Z" fill="#FFAE96"/>
<path d="M46.5226 12.6099C46.5667 12.7682 46.5719 12.9348 46.5376 13.0955C46.5033 13.2562 46.4306 13.4063 46.3258 13.5328C45.9865 13.8721 45.7252 13.638 45.7252 13.638C45.555 13.526 45.4018 13.39 45.2705 13.2342C45.2331 13.1156 45.2136 12.9921 45.2128 12.8677C45.2128 12.8677 45.7591 11.6666 46.5226 12.6099Z" fill="#FFC0AD"/>
<path d="M45.6471 13.5837C45.7431 13.6208 45.8485 13.6253 45.9473 13.5965C46.046 13.5677 46.1325 13.5071 46.1934 13.4242C46.3058 13.2593 46.365 13.064 46.3631 12.8644C46.3631 12.7558 46.3631 12.654 46.3631 12.5251C46.3691 12.4488 46.3905 12.3746 46.4261 12.307C46.4617 12.2393 46.5106 12.1796 46.57 12.1314C46.7674 11.9726 47.0123 11.8842 47.2657 11.8804C47.0747 11.9968 46.9021 12.1409 46.7533 12.3079C46.7 12.3702 46.671 12.4498 46.6719 12.5318C46.6719 12.637 46.6719 12.766 46.6719 12.8712C46.6712 13.0066 46.6426 13.1404 46.5877 13.2642C46.5328 13.388 46.4529 13.4991 46.3529 13.5905C46.258 13.6824 46.1307 13.7333 45.9986 13.732C45.8665 13.7307 45.7402 13.6775 45.6471 13.5837Z" fill="#2E2044"/>
<path d="M45.1483 12.7694C45.1654 12.7626 45.1837 12.7596 45.2021 12.7607C45.2205 12.7617 45.2384 12.7668 45.2546 12.7755C45.2707 12.7843 45.2848 12.7965 45.2958 12.8112C45.3067 12.826 45.3143 12.843 45.318 12.861C45.3216 12.8792 45.321 12.898 45.3163 12.916C45.3116 12.9339 45.3028 12.9505 45.2907 12.9646C45.2786 12.9787 45.2635 12.9898 45.2465 12.9971C45.2294 13.0045 45.2109 13.0078 45.1924 13.0069C45.1347 12.9323 45.1076 12.9255 45.1042 12.9018C45.1008 12.878 45.1212 12.8644 45.1483 12.7694Z" fill="#2E2044"/>
<path d="M42.125 12.0295C41.8433 12.2954 41.4891 12.4719 41.1072 12.5364C40.7253 12.601 40.3327 12.5509 39.9793 12.3923C39.6259 12.2337 39.3275 11.9739 39.1218 11.6457C38.9161 11.3174 38.8124 10.9356 38.8238 10.5484C38.8352 10.1612 38.9612 9.78607 39.1858 9.47051C39.4105 9.15495 39.7237 8.91313 40.0858 8.77564C40.448 8.63815 40.8427 8.61116 41.2202 8.6981C41.5977 8.78505 41.9409 8.98201 42.2064 9.26407C42.5611 9.64219 42.7517 10.1454 42.7364 10.6636C42.7211 11.1818 42.5013 11.6729 42.125 12.0295Z" fill="#FFC0AD"/>
<path d="M48.6433 16.858C47.9239 17.3806 47.0892 17.9608 46.2681 18.4664C46.1595 18.5309 46.0611 18.5987 45.9559 18.6632H45.9355C45.6776 18.5623 45.4456 18.4045 45.2569 18.2017C45.0377 17.9705 44.8783 17.6891 44.7927 17.3821C44.7071 17.0752 44.6978 16.7519 44.7657 16.4406C44.8336 16.1292 44.9767 15.8392 45.1823 15.5958C45.388 15.3524 45.65 15.1629 45.9457 15.0439C46.2413 14.925 46.5615 14.8801 46.8785 14.9132C47.1954 14.9463 47.4995 15.0565 47.7641 15.234C48.0287 15.4115 48.246 15.6511 48.3968 15.9318C48.5477 16.2125 48.6277 16.5258 48.6297 16.8445L48.6433 16.858Z" fill="#FFC0AD"/>
<path d="M45.4504 7.82214C45.6084 7.77345 45.7742 7.75504 45.939 7.76786C46.2857 7.78927 46.6137 7.93225 46.8653 8.17165C46.9896 8.28999 47.0908 8.43034 47.1639 8.5856C47.178 8.6163 47.1859 8.64952 47.1871 8.68329C47.1882 8.71706 47.1826 8.75072 47.1706 8.78231C47.1586 8.81389 47.1404 8.84275 47.1171 8.86724C47.0939 8.89173 47.0659 8.91134 47.035 8.92492C46.9848 8.94567 46.9295 8.95029 46.8765 8.93813C46.8236 8.92597 46.7758 8.89765 46.7398 8.85707C46.6625 8.7608 46.5798 8.66902 46.4921 8.58221C46.4042 8.49592 46.3088 8.41759 46.2071 8.3481C46.1013 8.27707 45.9874 8.21896 45.8678 8.17504C45.7396 8.12957 45.6079 8.0944 45.4741 8.06986C45.4435 8.0633 45.4165 8.04518 45.3988 8.01928C45.3811 7.99338 45.3741 7.96168 45.3791 7.93073C45.38 7.90785 45.3871 7.88564 45.3996 7.8665C45.4122 7.84737 45.4297 7.83203 45.4504 7.82214Z" fill="#2E2044"/>
<path d="M50.5095 13.19C50.5667 13.0347 50.5955 12.8703 50.5944 12.7048C50.5925 12.5345 50.5616 12.3658 50.5027 12.206C50.4452 12.0421 50.3578 11.8902 50.2448 11.7581C50.1357 11.6204 50.0009 11.5051 49.8479 11.4188C49.7943 11.3919 49.733 11.385 49.6748 11.3994C49.6166 11.4138 49.5656 11.4484 49.5307 11.4972C49.4959 11.5459 49.4797 11.6055 49.4849 11.6652C49.4902 11.7249 49.5166 11.7807 49.5594 11.8226C49.6525 11.9059 49.7398 11.9955 49.8207 12.0906C49.9017 12.1824 49.9744 12.2812 50.0379 12.3858C50.1016 12.4927 50.1528 12.6066 50.1906 12.7252C50.2288 12.855 50.256 12.9878 50.272 13.1222C50.277 13.1534 50.294 13.1815 50.3193 13.2005C50.3446 13.2194 50.3763 13.2279 50.4077 13.224C50.4262 13.2262 50.4448 13.2243 50.4624 13.2184C50.48 13.2126 50.4961 13.2029 50.5095 13.19Z" fill="#2E2044"/>
<path d="M42.8479 13.8517C42.9158 13.9806 42.9497 14.0723 42.9904 14.1673C43.0284 14.2785 43.0601 14.3918 43.0854 14.5066C43.0174 14.4937 42.9539 14.4635 42.9011 14.4188C42.8482 14.3741 42.8079 14.3165 42.784 14.2516C42.76 14.1866 42.7533 14.1166 42.7646 14.0483C42.7758 13.98 42.8045 13.9158 42.8479 13.8619V13.8517Z" fill="#2E2044"/>
<path d="M45.3349 10.5028C44.9514 10.8625 44.4866 10.9948 44.2966 10.7912C44.1065 10.5876 44.2626 10.1329 44.6359 9.77325C45.0091 9.41358 45.4876 9.28125 45.6776 9.48144C45.8676 9.68164 45.7183 10.1397 45.3349 10.5028Z" fill="#2E2044"/>
<path d="M45.6878 9.48131C45.9299 9.68543 46.2233 9.81923 46.5361 9.86814C46.3833 9.98652 46.2035 10.0652 46.0129 10.0972C45.8222 10.1291 45.6266 10.1134 45.4435 10.0514L45.6878 9.48131Z" fill="#2E2044"/>
<path d="M48.3312 13.682C47.9478 14.0451 47.4829 14.174 47.2929 13.9738C47.1029 13.7736 47.259 13.3155 47.6322 12.9558C48.0055 12.5962 48.4805 12.4638 48.6705 12.664C48.8606 12.8642 48.718 13.3189 48.3312 13.682Z" fill="#2E2044"/>
<path d="M48.7011 12.6607C48.9436 12.8641 49.2368 12.9978 49.5493 13.0476C49.3967 13.1662 49.2169 13.2451 49.0262 13.277C48.8355 13.309 48.6398 13.2931 48.4568 13.2308L48.7011 12.6607Z" fill="#2E2044"/>
<path d="M43.4143 11.7956C43.463 12.3482 43.5699 12.8941 43.7333 13.4243C43.8174 13.6767 43.9313 13.9182 44.0726 14.1436C44.2219 14.3802 44.3862 14.6068 44.5646 14.8222C44.2733 14.733 44.011 14.5679 43.8046 14.3438C43.5905 14.1186 43.4294 13.8485 43.3329 13.5532C43.2371 13.2624 43.1957 12.9564 43.2108 12.6506C43.2155 12.3542 43.285 12.0624 43.4143 11.7956Z" fill="#2E2044"/>
<path d="M39.2749 5.51813C39.2527 5.42509 39.2649 5.32717 39.3092 5.24239C39.3534 5.15761 39.4268 5.09166 39.5158 5.05666C39.6146 5.01764 39.7223 5.00649 39.827 5.02444C39.9317 5.04239 40.0294 5.08875 40.1096 5.15845C40.2673 5.28727 40.3773 5.4653 40.4218 5.66403C40.455 5.84181 40.4653 6.02315 40.4523 6.20355C40.415 6.88857 40.1147 7.53276 39.6142 8.00192C39.82 7.41075 39.9522 6.79649 40.0078 6.173C40.0619 5.91204 40.0146 5.64027 39.8755 5.41294C39.8415 5.36687 39.7969 5.32959 39.7456 5.30421C39.6942 5.27883 39.6375 5.26609 39.5803 5.26704C39.5095 5.27173 39.442 5.29846 39.3872 5.3435C39.3325 5.38853 39.2932 5.44961 39.2749 5.51813Z" fill="#2E2044"/>
<path d="M38.7793 7.26554C38.7342 7.1834 38.7105 7.09119 38.7105 6.99746C38.7105 6.90374 38.7342 6.81154 38.7793 6.72941C38.8214 6.63814 38.8821 6.55668 38.9576 6.49031C39.0331 6.42395 39.1216 6.37413 39.2175 6.34408C39.3134 6.31403 39.4146 6.30442 39.5144 6.31585C39.6143 6.32728 39.7106 6.35951 39.7973 6.41045C39.8804 6.45394 39.9512 6.51787 40.0028 6.59623C40.0545 6.67458 40.0853 6.76478 40.0925 6.85835C39.9618 6.79307 39.8204 6.75171 39.6751 6.73621C39.5609 6.72395 39.4454 6.73549 39.3358 6.77013C39.2296 6.80253 39.1313 6.85685 39.0474 6.9296C38.9376 7.02362 38.8467 7.13763 38.7793 7.26554Z" fill="#2E2044"/>
<path d="M55.4873 6.08141C54.7595 4.73001 53.767 3.53902 52.569 2.57946C51.371 1.6199 49.9921 0.91143 48.5144 0.496287C45.5623 -0.314677 42.0674 -0.206104 39.4682 1.3785C37.6359 1.05954 35.8104 2.00284 34.3785 3.19723C32.9466 4.39162 31.7691 5.86425 30.2558 6.9297C28.1758 8.4159 25.5732 9.05042 23.0182 9.07078C20.4631 9.09114 17.9285 8.53467 15.4922 7.80514C13.1712 7.12651 10.8707 6.26125 8.45477 6.10856C6.03884 5.95587 3.4261 6.67523 1.9399 8.57879C0.243322 10.7572 -0.157073 13.9026 0.04991 16.6579C0.256892 19.4131 1.43093 22.1819 3.61952 23.8683C5.8081 25.5547 8.70926 25.9755 11.4713 26.135C13.0118 26.2232 15.4006 27.7942 17.6536 29.3313C18.2644 28.7206 18.8717 28.1641 19.4316 27.6823L19.7099 27.4617L19.8693 27.3327C20.7312 26.6134 21.4573 26.0909 21.8747 25.8024C22.0376 25.6871 22.1733 25.5921 22.2751 25.531C22.2762 25.5208 22.2762 25.5106 22.2751 25.5005C22.2877 25.4856 22.2991 25.4697 22.309 25.4529L22.3565 25.3851L22.421 25.3003C22.4473 25.2669 22.4757 25.2352 22.5058 25.2053C22.7842 24.8882 23.134 24.642 23.5264 24.4868C23.9187 24.3316 24.3423 24.272 24.7623 24.3129C26.4249 23.2949 28.1554 22.4195 29.6145 21.7306C31.1991 20.9774 33.2418 19.6676 34.0799 18.0525C34.9256 16.3265 35.8705 14.6509 36.9098 13.034L37.3373 12.3927C37.2297 11.0005 37.4626 9.60296 38.0159 8.3209C37.1609 6.53271 38.8982 3.7062 39.8313 3.96408C40.02 4.01411 40.1936 4.10965 40.3368 4.24232C40.6667 5.34144 40.7569 6.49851 40.6015 7.63548C41.1005 7.25309 41.5366 6.79516 41.8943 6.27822C42.3365 6.68987 42.7997 7.07834 43.2821 7.44207C44.4188 8.32768 45.5963 9.23365 46.9875 9.60351C47.8674 9.82714 48.7893 9.82791 49.6697 9.60574C50.55 9.38358 51.3612 8.94548 52.0297 8.33107C51.256 9.91228 50.479 11.5105 50.2279 13.2511C50.1295 13.9298 50.1804 14.7713 50.7708 15.1344C50.8081 15.1547 43.7198 19.8848 43.2075 19.8067C42.7555 19.6835 42.3307 19.4763 41.9554 19.196C41.4498 19.7898 41.2157 20.258 41.2225 20.6075C41.2428 21.6526 43.2584 21.8155 45.0567 22.5077C45.5059 21.455 46.0275 20.4346 46.6176 19.4538C47.6355 17.8455 49.2575 16.2779 51.0762 15.8334C52.4419 15.5244 53.6846 14.8156 54.6458 13.7975C55.4106 13.0152 55.9721 12.0576 56.2813 11.0083C56.7495 9.37278 56.2983 7.59136 55.4873 6.08141Z" fill="#2E2044"/>
<g style="mix-blend-mode:multiply" opacity="0.5">
<path d="M9.2996 6.34589C10.3175 9.09095 11.953 11.663 14.24 13.5054C15.3801 14.4235 16.68 15.123 18.0743 15.5685C19.4576 16.0385 20.9303 16.185 22.3792 15.9967C23.828 15.8085 25.2143 15.2905 26.4316 14.4827C27.6651 13.6946 28.8389 12.8168 29.9436 11.8564C31.0563 10.879 32.2292 9.97237 33.4555 9.14184C34.6963 8.30869 36.091 7.73187 37.5578 7.44526C37.5938 7.43962 37.6307 7.4462 37.6625 7.46397C37.6943 7.48173 37.7192 7.50967 37.7333 7.54329C37.7474 7.5769 37.7498 7.61425 37.7401 7.64938C37.7304 7.68452 37.7093 7.71539 37.68 7.73707C36.1824 8.81741 34.8018 10.0513 33.5607 11.4187C32.2916 12.7759 31.121 14.2112 29.8282 15.5719C28.5829 16.9673 27.1722 18.2058 25.6275 19.2602C24.0637 20.3192 22.2723 20.9946 20.3986 21.2317C18.5131 21.4008 16.6184 21.03 14.9356 20.1628C13.26 19.3154 11.7625 18.1543 10.5245 16.7425C9.27877 15.3445 8.29181 13.736 7.60982 11.9921C6.91248 10.2575 6.66277 8.37535 6.88368 6.51894C6.69487 8.36799 6.97374 10.2348 7.69465 11.948C8.40405 13.6601 9.40646 15.2355 10.6569 16.6034C11.8914 17.9921 13.3807 19.1313 15.0442 19.9592C16.6921 20.7894 18.542 21.1342 20.3783 20.9534C22.2037 20.7128 23.9471 20.0468 25.468 19.0091C26.9908 17.9671 28.3809 16.7433 29.6076 15.3649C30.8699 14.0076 32.0371 12.5621 33.3096 11.2015C34.5667 9.8126 35.9681 8.56141 37.49 7.46902L37.6087 7.76083C36.1814 8.04713 34.8265 8.6184 33.6251 9.44044C32.4062 10.2524 31.24 11.141 30.1336 12.1007C29.016 13.0684 27.8273 13.9509 26.5775 14.7406C25.321 15.5494 23.8968 16.0614 22.4129 16.2378C20.9289 16.4142 19.4243 16.2503 18.0132 15.7585C16.6011 15.2957 15.2897 14.5691 14.1484 13.6174C11.8648 11.7172 10.287 9.10113 9.2996 6.34589Z" fill="#2E2044"/>
<path d="M6.05578 24.6418C6.94702 23.8965 7.94132 23.284 9.00783 22.8231C10.0821 22.3649 11.215 22.0588 12.3738 21.9138C13.5355 21.7801 14.7098 21.803 15.8654 21.9816C17.0191 22.1377 18.149 22.382 19.2857 22.5618C20.4102 22.7753 21.5555 22.8596 22.6992 22.8129C23.2662 22.7838 23.8283 22.6928 24.3754 22.5415C24.9188 22.3829 25.4424 22.1632 25.9363 21.8866C26.9253 21.3122 27.7648 20.5124 28.3861 19.5521C29.0287 18.5939 29.4271 17.4931 29.5466 16.3456C29.4886 17.5128 29.1386 18.6469 28.5286 19.6437C27.9129 20.648 27.0703 21.494 26.0686 22.1139C25.052 22.7214 23.9022 23.0709 22.7196 23.1319C21.5521 23.1903 20.3818 23.1151 19.2314 22.9079C18.0845 22.7145 16.958 22.4634 15.8383 22.2972C15.2761 22.2117 14.7097 22.1563 14.1417 22.1309C13.57 22.1157 12.9979 22.1327 12.4281 22.1818C11.2867 22.2946 10.1664 22.5652 9.09943 22.986C8.01476 23.398 6.9909 23.955 6.05578 24.6418Z" fill="#2E2044"/>
<path d="M55.0903 5.49766C53.8443 5.09806 52.5499 4.86976 51.2424 4.81903C49.9394 4.72742 48.6297 4.72062 47.3165 4.62222C45.9911 4.55112 44.6843 4.27763 43.4415 3.81125C42.1738 3.34286 41.0686 2.51802 40.2588 1.43604L40.5642 1.30033C40.8251 2.52377 41.4052 3.65635 42.2455 4.58306C43.0858 5.50977 44.1564 6.1976 45.3485 6.57668C46.5501 6.95374 47.8287 7.01452 49.0606 6.75313C50.3113 6.50822 51.479 5.94886 52.4538 5.1278C51.5061 6.00315 50.3486 6.61921 49.0932 6.91641C47.8378 7.21362 46.527 7.18191 45.2874 6.82438C44.0369 6.45419 42.9107 5.75037 42.03 4.78848C41.1471 3.82655 40.5328 2.64934 40.2486 1.37497C40.2384 1.33133 40.2459 1.28543 40.2694 1.24729C40.2929 1.20915 40.3306 1.18186 40.3741 1.17139C40.4073 1.16472 40.4417 1.16792 40.473 1.18058C40.5044 1.19325 40.5313 1.21483 40.5506 1.24265C41.317 2.27732 42.3655 3.069 43.5705 3.52284C44.7824 3.97686 46.053 4.25565 47.3437 4.35077C48.6433 4.47971 49.9564 4.51703 51.2628 4.64258C52.5729 4.74297 53.8619 5.03094 55.0903 5.49766Z" fill="#2E2044"/>
<path d="M52.7727 8.03568C52.5589 9.17239 52.2468 10.2887 52.2909 11.4119C52.3033 11.9677 52.4184 12.5164 52.6302 13.0304C52.8484 13.5555 53.1991 14.015 53.6481 14.3639C53.1068 14.1086 52.6661 13.6799 52.3961 13.1458C52.1196 12.612 51.9665 12.0229 51.9482 11.4221C51.9368 10.8306 52.0123 10.2407 52.1721 9.67118C52.3285 9.11092 52.5294 8.56402 52.7727 8.03568Z" fill="#2E2044"/>
</g>
<path d="M98.6686 15.9249C98.5085 15.9122 98.3499 15.9635 98.2274 16.0674C97.576 16.4848 97.0467 17.0854 96.3952 17.5027C97.0093 16.668 97.5013 15.6534 98.1155 14.8187C98.2282 14.6882 98.3125 14.5357 98.3632 14.3708C98.3881 14.2934 98.3862 14.2098 98.3579 14.1335C98.3296 14.0572 98.2765 13.9926 98.2071 13.9501C98.0035 13.8585 97.7558 14.0383 97.5794 14.2046L95.1736 16.4407C96.0083 15.4227 96.8702 14.3233 97.1077 13.0475C97.1484 12.8168 97.1484 12.5351 96.955 12.4198C96.8752 12.384 96.7872 12.3708 96.7005 12.3816C96.6137 12.3924 96.5316 12.4267 96.463 12.4808C96.3199 12.5912 96.1971 12.7255 96.0999 12.8778C95.4213 13.8347 94.7427 14.7905 94.064 15.7451L95.1329 13.5158C95.2318 13.3414 95.2985 13.1505 95.3297 12.9525C95.3458 12.8581 95.3341 12.7611 95.2962 12.6731C95.2582 12.5852 95.1956 12.5102 95.1159 12.4571C95.0218 12.4203 94.9196 12.4088 94.8196 12.4237C94.7196 12.4386 94.6253 12.4793 94.5459 12.5419C94.3822 12.6706 94.2421 12.8267 94.1319 13.0034C93.5189 13.8698 92.9319 14.7543 92.3709 15.6568C92.2385 15.8706 92.0519 16.1149 91.8144 16.1013C91.5226 16.1013 91.4513 15.7213 91.4242 15.4227C91.4124 15.1702 91.339 14.9244 91.2104 14.7068C91.1408 14.6017 91.0432 14.5181 90.9288 14.4654C90.8143 14.4127 90.6874 14.3928 90.5623 14.4082C90.4173 14.4489 90.2854 14.5266 90.1795 14.6336C90.0737 14.7407 89.9974 14.8735 89.9583 15.0189C89.8867 15.3002 89.8604 15.5912 89.8803 15.8808C89.8737 16.9025 89.6806 17.9145 89.3103 18.8668L89.1372 19.2943C86.4939 21.8663 78.5607 29.4432 69.3687 36.9896C64.1568 34.0308 59.2401 30.7428 55.1955 27.9129C54.8561 28.4864 54.4863 29.0598 54.1334 29.6366C53.0363 31.8399 52.0296 34.0817 51.1135 36.3619C50.5909 37.6649 50.0955 38.978 49.6069 40.2979C52.6947 41.8893 55.9589 43.4095 59.1078 44.8651C60.0375 45.2961 61.6662 46.0595 63.434 46.901C65.6652 47.9509 68.1629 48.2973 70.5956 47.8943C73.0283 47.4913 75.2808 46.3579 77.0542 44.6446C77.95 43.7759 78.7745 42.948 79.3886 42.2863C86.0256 35.1607 91.7126 27.1291 93.4092 22.9657C93.5347 22.8028 93.6501 22.6264 93.7485 22.4839C94.2009 21.9319 94.6703 21.3901 95.1567 20.8585C95.7165 20.2478 96.3002 19.654 96.9007 19.0805C97.6846 18.334 98.543 17.557 98.8518 16.5492C98.9197 16.3219 98.9197 15.986 98.6686 15.9249Z" fill="#FFAE96"/>
<path d="M23.6119 29.6705C24.2657 30.8995 24.8327 32.1728 25.3085 33.481C29.5397 34.6754 33.8796 35.4558 38.2873 35.4558C43.2311 35.4558 47.968 34.5431 52.7116 33.2164L53.8754 32.877C54.0044 32.0152 54.0926 31.2823 54.1299 30.7292C54.1299 30.6342 54.225 29.847 54.3098 28.958C54.225 28.9104 54.1367 28.8663 54.0587 28.8188C54.079 28.5304 54.1028 28.2284 54.1231 27.9434L56.081 27.8993L55.9249 27.8145C54.2283 25.6089 48.7993 24.1464 45.5317 22.6636C43.6315 21.8086 41.3174 21.7271 41.2936 20.5938C41.2936 20.2545 41.4904 19.7964 41.9892 19.2026L42.1249 19.0431L38.9965 11.3644L37.758 11.7037L36.8893 13.0169C35.854 14.6378 34.9126 16.3168 34.0696 18.0456C33.2383 19.6607 31.2058 20.9806 29.6212 21.7373C27.2086 22.8978 23.9716 24.6181 21.6608 26.4674C22.1053 27.6312 23.0045 28.5847 23.6119 29.6705Z" fill="#FFAE96"/>
<g style="mix-blend-mode:multiply" opacity="0.5">
<path d="M33.2926 25.6157C33.6945 25.6433 34.0894 25.7338 34.4632 25.8838C34.8418 26.0223 35.1958 26.2205 35.5117 26.4708C34.7064 26.3999 33.9373 26.1036 33.2926 25.6157Z" fill="#FFAE96"/>
</g>
<path d="M41.9927 19.2163C41.4939 19.8101 41.2869 20.2614 41.2971 20.6075C40.3945 19.8 39.0746 18.4936 38.4265 17.3365C37.5666 16.0483 37.2048 14.4913 37.4085 12.956C37.5636 13.7844 37.892 14.5707 38.3722 15.2633C39.2715 16.8328 40.5081 18.183 41.9927 19.2163Z" fill="#2E2044"/>
<path d="M56.1015 27.7636C54.4864 26.2604 52.2299 25.2798 51.0694 24.6928L50.4247 24.3093C49.7461 23.7495 47.7102 23.6307 47.7102 23.6307L49.2032 24.2177C48.3483 26.104 47.0066 27.7288 45.3161 28.925C43.6255 30.1212 41.6469 30.8458 39.5836 31.0244C32.3833 31.6759 23.2048 25.256 23.2048 25.256L24.7861 24.3195C24.3661 24.2786 23.9425 24.3383 23.5502 24.4934C23.1578 24.6486 22.808 24.8949 22.5296 25.2119C22.4995 25.2419 22.4711 25.2736 22.4448 25.3069L22.3803 25.3917L22.3328 25.4596C22.3229 25.4764 22.3115 25.4923 22.2989 25.5071C22.3 25.5172 22.3 25.5275 22.2989 25.5376C22.1971 25.5987 22.0613 25.6937 21.8985 25.8091C21.4811 26.0975 20.755 26.6201 19.8931 27.3394L19.7336 27.4684L19.4554 27.6889C18.8955 28.1707 18.2882 28.7272 17.6774 29.338C16.3302 30.6693 15.1622 32.1704 14.2028 33.8034C11.4136 38.6963 8.15959 49.9582 8.15959 49.9582C8.15959 49.9582 19.7642 48.964 24.1413 47.3522L24.2533 47.1792L25.7293 53.1749C40.381 58.8788 50.6623 52.6795 50.6623 52.6795C51.1543 50.9015 52.1247 47.0808 53.1494 42.9853L59.1282 45.8932L65.7991 34.4481C63.1423 32.3002 59.2843 29.7519 56.1015 27.7636Z" fill="#FFA430"/>
<g style="mix-blend-mode:multiply" opacity="0.5">
<path d="M24.3143 47.0503C24.7079 45.8186 25.1694 44.6242 25.6308 43.4264C26.0923 42.2287 26.5741 41.0512 27.1204 39.867C26.4944 42.3711 25.5514 44.785 24.3143 47.0503Z" fill="#FFA430"/>
</g>
<g style="mix-blend-mode:screen" opacity="0.5">
<path d="M22.4823 26.1282C23.63 27.1614 24.8551 28.1052 26.1469 28.9513C28.7307 30.6327 31.5655 31.8926 34.5449 32.6838L35.6681 32.9587L36.8014 33.186L37.9449 33.3726L39.0985 33.5151C38.7117 33.5151 38.3249 33.4846 37.9347 33.4608L36.7776 33.3489L35.6273 33.169L34.4838 32.9383C31.441 32.2344 28.5614 30.9535 26.001 29.1651C24.7269 28.2763 23.5478 27.2587 22.4823 26.1282Z" fill="#FFA430"/>
<path d="M17.484 30.5021C18.3966 30.2689 19.3549 30.2842 20.2596 30.5462C21.1645 30.8082 22.0214 31.2137 22.7977 31.7473C24.3551 32.8128 25.6004 34.2379 26.9814 35.4798C27.6632 36.1024 28.4068 36.6539 29.2006 37.1255C29.9984 37.5869 30.8511 37.946 31.7387 38.1943C33.5117 38.7094 35.3947 38.7094 37.1677 38.1943C38.9423 37.6888 40.381 36.4503 41.9486 35.4289C42.7323 34.8907 43.5972 34.4817 44.5105 34.2176C45.4387 34.016 46.3943 33.9724 47.337 34.0886C48.2518 34.2049 49.1797 34.167 50.0821 33.9767C50.9642 33.7114 51.7573 33.2104 52.3758 32.5278C53.0021 31.8448 53.5091 31.0614 53.8756 30.2103C54.2458 29.3547 54.5708 28.4803 54.8494 27.5907C54.6058 28.492 54.3089 29.378 53.9604 30.2442C53.6108 31.1199 53.1152 31.9299 52.4946 32.6398C51.8671 33.3611 51.052 33.8943 50.1397 34.1802C49.2161 34.3954 48.2628 34.4528 47.32 34.3499C46.4077 34.2189 45.4784 34.2697 44.5857 34.4991C43.693 34.7285 42.8545 35.1322 42.1183 35.6868C41.3447 36.1958 40.6016 36.7624 39.8144 37.2782C39.028 37.8128 38.1686 38.2311 37.2627 38.5201C35.4264 39.0401 33.4803 39.0283 31.6504 38.4862C29.8281 37.9571 28.1639 36.9875 26.805 35.6631C25.4274 34.3906 24.216 32.9485 22.7027 31.8831C21.9514 31.3365 21.1174 30.9137 20.2324 30.631C19.3431 30.35 18.3958 30.3055 17.484 30.5021Z" fill="#FFA430"/>
<path d="M15.0241 32.314C15.9107 31.9205 16.8998 31.8206 17.8472 32.0289C18.7978 32.2231 19.6956 32.6188 20.4803 33.1894C22.0547 34.3397 23.1677 35.9616 24.2942 37.4953C24.848 38.269 25.4462 39.01 26.0858 39.7144C26.7176 40.4158 27.4576 41.0115 28.2778 41.4789C29.9234 42.395 31.8983 42.585 33.7543 42.3034C35.6104 42.0218 37.3816 41.2346 39.0884 40.3863C40.7951 39.538 42.5222 38.632 44.419 38.1977C45.3589 37.9771 46.3056 37.838 47.2319 37.6209C48.161 37.4264 49.0503 37.0753 49.8616 36.5825C51.4963 35.5643 52.6891 33.9695 53.2039 32.1138C52.7453 34.008 51.5816 35.6559 49.9499 36.7217C49.1314 37.2416 48.229 37.6158 47.2828 37.8278C46.3497 38.0654 45.3996 38.2181 44.4801 38.4522C42.6342 38.917 40.9342 39.8095 39.2241 40.6645C37.5139 41.5196 35.7393 42.3611 33.795 42.6393C31.8508 42.9176 29.8386 42.714 28.1183 41.7503C27.2755 41.2606 26.5151 40.6411 25.8652 39.9146C25.2182 39.1995 24.6208 38.4411 24.077 37.6446C22.9743 36.0905 21.8986 34.4754 20.3751 33.3217C19.6199 32.7426 18.7501 32.3309 17.8234 32.1138C16.892 31.8903 15.9143 31.9602 15.0241 32.314Z" fill="#FFA430"/>
<path d="M13.28 36.7861C13.5816 36.598 13.9038 36.4454 14.2403 36.3314C14.5821 36.23 14.9335 36.164 15.2888 36.1345C16.0035 36.0899 16.7204 36.1726 17.4061 36.3789C18.7905 36.7894 19.9781 37.6683 21.0164 38.6285C22.0547 39.5888 22.9743 40.6882 23.9787 41.6824C24.9411 42.6912 26.0945 43.4986 27.3718 44.0576C28.6772 44.5463 30.0855 44.6946 31.464 44.4885C32.8563 44.2846 34.2288 43.9622 35.5663 43.5249C36.9132 43.0792 38.2882 42.7233 39.6822 42.4594C41.0842 42.1924 42.529 42.254 43.9033 42.6392C42.5253 42.3198 41.0932 42.314 39.7127 42.6223C38.3323 42.9181 36.9722 43.3024 35.641 43.7725C34.296 44.2408 32.91 44.5816 31.5013 44.7905C30.0719 45.0192 28.6079 44.8814 27.2463 44.3901C25.9304 43.8018 24.7456 42.9561 23.7615 41.9029C22.7436 40.885 21.8444 39.8127 20.8366 38.8491C19.867 37.8329 18.6771 37.0528 17.3586 36.5689C16.6939 36.3424 15.9942 36.2356 15.2922 36.2533C14.9415 36.2708 14.5936 36.3242 14.2539 36.4128C13.9157 36.4985 13.5889 36.6238 13.28 36.7861Z" fill="#FFA430"/>
<path d="M10.5281 43.8269C10.8989 43.2355 11.3949 42.7327 11.9812 42.354C12.5675 41.9753 13.2297 41.7298 13.9212 41.6349C14.6247 41.5315 15.3426 41.5931 16.0182 41.8147C16.6809 42.0487 17.3044 42.3816 17.8675 42.8021C18.9838 43.6335 19.9373 44.6277 21.1045 45.3097C21.6806 45.6598 22.3251 45.882 22.9945 45.9612C23.6708 46.0535 24.3587 45.9212 24.9524 45.5845C24.3767 45.9855 23.6806 46.176 22.981 46.124C22.2786 46.0781 21.595 45.8777 20.979 45.537C19.7371 44.8584 18.7667 43.8608 17.6673 43.077C17.137 42.6673 16.5479 42.3401 15.9198 42.1065C15.2875 41.8966 14.6178 41.8238 13.9552 41.8928C13.2857 41.9627 12.6378 42.1694 12.0516 42.5001C11.4545 42.828 10.9349 43.2805 10.5281 43.8269Z" fill="#FFA430"/>
<path d="M24.8845 46.9962C25.8821 46.2836 27.1952 46.1513 28.3896 46.3651C29.5886 46.6241 30.7186 47.1353 31.7047 47.8649C32.7227 48.5435 33.6218 49.3511 34.5889 50.0568C35.5276 50.7906 36.5908 51.3492 37.7276 51.7059C38.8706 52.0205 40.0797 52.0016 41.2123 51.6516C42.3582 51.292 43.4821 50.866 44.5783 50.3758C45.6945 49.8768 46.8882 49.5738 48.1072 49.48C49.3152 49.4461 50.6012 49.7582 51.48 50.6133C50.528 49.8625 49.3194 49.5153 48.114 49.6463C46.9224 49.7711 45.7609 50.0993 44.6802 50.6167C43.5812 51.1389 42.4474 51.5845 41.287 51.9502C40.6946 52.1218 40.0842 52.2243 39.4683 52.2556C38.8461 52.2796 38.2241 52.204 37.6258 52.0317C36.4558 51.6528 35.363 51.0679 34.3989 50.3045C33.425 49.575 32.5157 48.781 31.5486 48.0752C30.6013 47.3384 29.5084 46.8111 28.3421 46.5279C27.1724 46.231 25.9331 46.3988 24.8845 46.9962Z" fill="#FFA430"/>
<path d="M26.1842 50.9695C26.6248 50.6566 27.1419 50.469 27.6806 50.4266C28.2199 50.3856 28.7622 50.4407 29.2822 50.5895C29.8029 50.7373 30.3042 50.9469 30.7751 51.2138C31.2428 51.4886 31.6958 51.7876 32.1324 52.1096C32.9548 52.7708 33.8349 53.3568 34.7621 53.8605C35.2318 54.0827 35.7278 54.2446 36.2381 54.3423C36.7505 54.4358 37.272 54.4699 37.7922 54.4441C38.8442 54.3924 39.8858 54.2112 40.8935 53.9046C41.9115 53.6196 42.9057 53.226 43.9474 52.9409C44.9698 52.6117 46.0223 52.3843 47.0894 52.2623C48.1606 52.1533 49.2425 52.2915 50.2519 52.6661C49.2335 52.3573 48.1596 52.2762 47.1064 52.4286C46.0574 52.576 45.0255 52.826 44.0254 53.1751C42.0234 53.8537 40.0011 54.6782 37.8159 54.7698C37.2713 54.7903 36.7261 54.7493 36.1906 54.6477C35.6545 54.5408 35.1345 54.3652 34.6433 54.1251C33.6997 53.6087 32.8107 52.9982 31.9899 52.303C31.5766 51.9734 31.145 51.6675 30.6971 51.3869C30.2475 51.1148 29.7682 50.8951 29.2686 50.732C28.769 50.5657 28.2443 50.4877 27.7179 50.5013C27.1743 50.5195 26.6453 50.6811 26.1842 50.9695Z" fill="#FFA430"/>
</g>
<path d="M94.865 8.68401L40.9342 20.5974C40.0185 20.7994 39.2206 21.3569 38.716 22.1473C38.2114 22.9376 38.0414 23.896 38.2434 24.8117L46.2784 61.1795C46.4804 62.0952 47.038 62.8931 47.8283 63.3977C48.6186 63.9023 49.577 64.0723 50.4927 63.8703L70.9093 59.3608L78.6491 63.3138L83.9899 56.4698L104.41 51.9569C104.863 51.8569 105.292 51.6685 105.673 51.4025C106.053 51.1366 106.378 50.7982 106.627 50.4068C106.877 50.0154 107.047 49.5787 107.127 49.1215C107.208 48.6644 107.198 48.1958 107.097 47.7426L99.0793 11.3748C98.8772 10.4591 98.3198 9.66123 97.5294 9.15662C96.7391 8.65201 95.7807 8.48201 94.865 8.68401Z" fill="#FD6E74"/>
<path d="M71.1535 30.2745C71.1535 30.2745 69.0192 25.3069 62.9352 27.8586C59.8814 29.1344 59.1553 31.6521 59.1756 33.8475C59.2245 36.1868 60.1482 38.4229 61.7646 40.1147C63.8548 42.3406 67.8723 45.7643 74.2447 47.9732C74.4833 48.0568 74.7401 48.0745 74.9879 48.0244C75.2358 47.9742 75.4655 47.858 75.6528 47.6882C77.7328 45.7846 84.3529 39.2053 84.7159 32.2867C84.7159 32.2867 85.0213 24.2754 76.9931 24.669C76.9931 24.669 71.0381 25.4664 71.1535 30.2745Z" fill="white"/>
<path d="M54.3778 43.6029C53.9265 43.8743 53.4752 44.1424 53.0206 44.3595C53.7433 44.3052 54.4457 44.0575 55.1616 43.9795L55.8403 44.3188C55.8008 44.4649 55.7222 44.5975 55.6129 44.7022C54.863 45.4453 53.7433 45.7202 52.6948 46.012L52.3555 46.1104C51.6769 46.3004 50.9983 46.521 50.3196 46.7551C49.641 46.9892 48.9793 47.2471 48.3143 47.522L48.0564 47.6407C44.7243 50.2263 39.5022 52.9951 33.9137 55.3296C22.5364 60.08 9.64923 63.0694 8.16642 59.1673C7.40636 57.1721 7.76943 53.7722 8.76702 49.9243C11.0574 49.7105 19.1467 48.9064 23.2897 47.6509L22.9504 48.187L24.4061 47.8477L45.5217 42.758C45.7117 42.5917 45.9153 42.4187 46.1053 42.2694C46.883 41.6021 47.5306 40.7968 48.0157 39.8941C48.1349 39.6297 48.2952 39.3857 48.4907 39.1714C48.5949 39.0631 48.725 38.9832 48.8687 38.9392C49.0124 38.8953 49.1649 38.8888 49.3118 38.9203C49.4314 38.963 49.5359 39.0397 49.6124 39.141C49.689 39.2423 49.7343 39.3637 49.7428 39.4904C49.7547 39.7422 49.7034 39.993 49.5935 40.2199C49.4849 40.4846 49.3763 40.8374 49.6206 40.9901C49.8649 41.1428 50.1058 40.9901 50.3264 40.8612C51.2425 40.3319 52.1779 39.8286 53.1325 39.3513C53.3117 39.2474 53.5084 39.1773 53.7128 39.1443C53.8123 39.1261 53.9148 39.1344 54.0101 39.1683C54.1054 39.2022 54.1901 39.2607 54.2557 39.3377C54.3012 39.4217 54.3212 39.5171 54.3134 39.6123C54.3055 39.7075 54.2702 39.7984 54.2116 39.8738C54.0882 40.0331 53.9391 40.1708 53.7705 40.281L51.7753 41.7366L54.9377 40.1826C55.0962 40.0947 55.2682 40.0339 55.4467 40.0027C55.5324 39.9874 55.6206 39.9957 55.7019 40.0268C55.7833 40.0579 55.8545 40.1106 55.9081 40.1792C56.0269 40.376 55.9081 40.6203 55.7487 40.8069C54.9479 41.8249 53.6687 42.361 52.4437 42.87L55.6231 42.0318C55.8573 41.9708 56.1592 41.93 56.3018 42.1065C56.3439 42.1762 56.3611 42.2581 56.3506 42.3388C56.3402 42.4196 56.3026 42.4944 56.2441 42.551C56.1204 42.6716 55.9739 42.7662 55.8131 42.8292C55.3245 43.0328 54.8529 43.3212 54.3778 43.6029Z" fill="#FFAE96"/>
<g style="mix-blend-mode:multiply" opacity="0.5">
<path d="M11.3322 56.9006C11.6715 57.1177 11.9803 57.3383 12.3026 57.5385C12.625 57.7387 12.9405 57.9219 13.2866 58.1493C12.8711 58.1653 12.4616 58.0462 12.1194 57.8099C11.7678 57.5973 11.4923 57.279 11.3322 56.9006Z" fill="#FFAE96"/>
<path d="M20.0221 48.8249C20.4553 48.5442 20.9396 48.3516 21.4472 48.2583C21.9532 48.1503 22.4753 48.1422 22.9843 48.2345C22.5015 48.3755 22.0109 48.4888 21.5151 48.5738C21.0224 48.6847 20.524 48.7685 20.0221 48.8249Z" fill="#FFAE96"/>
</g>
</svg>
