<svg width="360" height="361" viewBox="0 0 360 361" fill="none" xmlns="http://www.w3.org/2000/svg">
<path d="M155.436 129.187C163.253 133.643 172.053 136.089 181.048 136.306C190.043 136.522 198.951 134.503 206.973 130.428C226.275 167.599 227.577 213.289 233.148 254.79C235.948 275.592 240.422 296.134 246.528 316.215C211.086 326.409 173.079 328.526 137.338 319.551" fill="#F7F7F7"/>
<path d="M102.703 316.799C102.703 316.799 100.961 351.045 101.125 360.357L256.318 361C257.813 350.724 257.327 328.99 256.318 320.09" fill="#3B2645"/>
<path d="M137.794 320.187C135.837 328.15 131.023 335.117 124.267 339.763C117.511 344.41 109.283 346.413 101.148 345.391" stroke="black" stroke-width="0.93" stroke-miterlimit="10" stroke-linecap="round"/>
<path d="M220.741 320.314C222.87 327.606 227.313 334.009 233.398 338.556C239.483 343.104 246.881 345.55 254.478 345.526" stroke="black" stroke-width="0.93" stroke-miterlimit="10" stroke-linecap="round"/>
<path d="M183.998 317.995C184.043 324.727 184.095 343.544 184.14 350.312C184.14 351.868 184.14 355.653 175.913 354.546" stroke="black" stroke-width="0.93" stroke-miterlimit="10" stroke-linecap="round"/>
<path d="M158.181 91.7389L158.884 105.201C159.094 108.114 158.285 111.009 156.596 113.391C154.907 115.773 152.443 117.494 149.625 118.26L130.023 125.582C130.023 125.582 157.874 151.893 191.768 143.314C225.662 134.736 229.701 124.228 229.701 124.228L209.044 115.47C204.871 113.974 200.451 106.36 199.569 102.008L194.64 77.8203L158.181 91.7389Z" fill="#E09B7A"/>
<path d="M121.505 226.317C122.253 221.441 124.152 208.457 124.878 203.581" stroke="#3B2645" stroke-width="0.84" stroke-miterlimit="10"/>
<path d="M212.26 65.607C211.579 82.9211 195.665 104.147 176.825 103.406C157.986 102.666 143.358 80.2211 144.038 62.9295C144.719 45.6379 155.578 22.1163 179.495 22.8941C202.867 23.657 212.941 48.293 212.26 65.607Z" fill="#E09B7A"/>
<path d="M190.901 48.0911C189.497 47.926 188.078 48.2339 186.87 48.9661C185.733 49.7813 185.164 51.5165 186.01 52.6309C186.855 53.7452 188.545 53.7153 189.966 53.6256C192.27 53.482 194.583 53.5446 196.876 53.8125C199.18 54.0743 201.528 55.084 203.787 55.2485C205.694 55.3832 204.108 53.5059 203.263 52.773C201.654 51.4336 199.838 50.3651 197.886 49.6093C195.662 48.7066 193.299 48.1931 190.901 48.0911Z" fill="#49311A"/>
<path d="M167.036 48.0911C168.437 47.926 169.853 48.234 171.059 48.9661C172.196 49.7814 172.772 51.5165 171.927 52.6309C171.082 53.7453 169.392 53.7153 167.971 53.6256C165.664 53.4822 163.349 53.5448 161.053 53.8126C158.757 54.0743 156.408 55.084 154.15 55.2486C152.243 55.3832 153.828 53.5059 154.673 52.773C156.282 51.4336 158.098 50.3651 160.051 49.6093C162.275 48.7066 164.638 48.1931 167.036 48.0911Z" fill="#49311A"/>
<path d="M177.611 60.783C177.429 65.4359 176.448 70.0228 174.709 74.3425C176.096 75.0284 177.647 75.314 179.187 75.1674C180.728 75.0207 182.197 74.4476 183.429 73.5124" stroke="#CB7E55" stroke-width="0.98" stroke-linecap="round" stroke-linejoin="round"/>
<path d="M166.37 75.9281C166.123 76.9491 165.578 77.8738 164.805 78.5852C164.032 79.2966 163.066 79.7627 162.028 79.9246C160.99 80.0864 159.927 79.9368 158.974 79.4946C158.021 79.0523 157.221 78.3374 156.675 77.4402C156.128 76.543 155.86 75.5038 155.904 74.4542C155.949 73.4046 156.303 72.3918 156.923 71.5437C157.543 70.6957 158.401 70.0506 159.388 69.6901C160.374 69.3296 161.446 69.2699 162.466 69.5186C163.833 69.8516 165.013 70.7137 165.745 71.9155C166.477 73.1173 166.702 74.5605 166.37 75.9281Z" fill="#C87C60"/>
<path d="M201.498 74.178C201.249 75.1967 200.704 76.1189 199.932 76.8278C199.159 77.5367 198.193 78.0007 197.157 78.1609C196.121 78.3211 195.06 78.1705 194.11 77.728C193.159 77.2856 192.361 76.5711 191.816 75.6751C191.271 74.779 191.004 73.7416 191.049 72.6939C191.094 71.6462 191.449 70.6353 192.068 69.7891C192.687 68.9428 193.543 68.2992 194.528 67.9395C195.513 67.5798 196.583 67.5203 197.602 67.7685C198.278 67.9333 198.916 68.2299 199.478 68.6412C200.04 69.0526 200.516 69.5707 200.878 70.1659C201.24 70.7611 201.481 71.4218 201.587 72.1102C201.694 72.7987 201.663 73.5013 201.498 74.178Z" fill="#C87C60"/>
<path d="M168.576 63.5353C167.751 62.456 166.689 61.5814 165.471 60.9795C164.253 60.3775 162.912 60.0644 161.554 60.0644C160.195 60.0644 158.855 60.3775 157.637 60.9795C156.419 61.5814 155.356 62.456 154.531 63.5353" stroke="black" stroke-width="1.77" stroke-miterlimit="10" stroke-linecap="round"/>
<path d="M188.119 63.5353C188.944 62.4559 190.008 61.5814 191.226 60.9794C192.445 60.3775 193.786 60.0644 195.145 60.0644C196.504 60.0644 197.845 60.3775 199.063 60.9794C200.282 61.5814 201.345 62.4559 202.171 63.5353" stroke="black" stroke-width="1.77" stroke-miterlimit="10" stroke-linecap="round"/>
<path d="M143.201 62.2115C141.421 56.4078 139.649 50.5218 139.462 44.4562C139.275 38.3907 140.957 31.9064 145.25 27.5461L144.607 27.4414C144.308 27.3923 144.025 27.2733 143.781 27.094C143.537 26.9147 143.338 26.6803 143.202 26.4098C143.066 26.1393 142.995 25.8404 142.996 25.5374C142.997 25.2345 143.07 24.9361 143.208 24.6666C145 21.2303 147.509 18.2184 150.564 15.8341C153.619 13.4498 157.15 11.7486 160.918 10.8453L159.019 10.4639C158.676 10.3942 158.359 10.2324 158.102 9.99592C157.844 9.75945 157.656 9.45724 157.558 9.12184C157.459 8.78645 157.454 8.43054 157.543 8.09244C157.632 7.75434 157.811 7.44686 158.061 7.20305C163.498 2.0425 171.419 -0.335856 179.002 0.0380971C184.005 0.277427 189.068 1.67602 193.025 4.74243C196.981 7.80885 199.673 12.7226 199.352 17.7186C199.03 22.7146 195.291 27.5087 190.377 28.3463C189.001 30.1413 186.384 31.0239 184.125 31.0837C181.866 31.1435 179.638 30.6424 177.394 30.418C173.492 30.0207 169.551 30.4702 165.839 31.7358C162.126 33.0014 158.731 35.0534 155.885 37.7515C153.038 40.4497 150.808 43.7304 149.345 47.3697C147.883 51.0089 147.223 54.9209 147.412 58.8385C147.479 60.2221 147.613 61.7404 146.791 62.8473C146.566 63.1524 146.26 63.3886 145.908 63.5293C145.556 63.6699 145.172 63.7094 144.799 63.6433C144.425 63.5772 144.078 63.4082 143.796 63.1552C143.513 62.9022 143.307 62.5754 143.201 62.2115Z" fill="#49311A"/>
<path d="M212.485 64.8067C215.021 59.5361 216.386 53.7789 216.487 47.9306C216.587 42.0823 215.421 36.2815 213.068 30.9266L215.656 30.8294C215.922 28.4717 215.508 26.087 214.462 23.9576C213.415 21.8282 211.78 20.0432 209.751 18.814C207.722 17.5848 205.383 16.963 203.011 17.022C200.639 17.081 198.334 17.8185 196.368 19.1471C192.464 21.7947 188.567 28.1593 190.968 32.2205C192.464 34.711 195.104 36.1993 197.422 37.9494C201.46 41.0897 204.594 45.244 206.504 49.9894C208.414 54.7348 209.033 59.9016 208.296 64.9638C209.661 65.4522 211.161 65.396 212.485 64.8067Z" fill="#49311A"/>
<path d="M147.554 67.4469C147.367 72.2484 143.814 76.0104 139.634 75.8458C135.453 75.6813 132.2 71.6576 132.387 66.871C132.574 62.0844 136.126 58.3074 140.314 58.472C144.502 58.6365 147.748 62.6528 147.554 67.4469Z" fill="#E09B7A"/>
<path d="M142.236 66.7738C140.44 65.8913 138.692 64.9126 137.001 63.842" stroke="black" stroke-width="1.77" stroke-miterlimit="10" stroke-linecap="round"/>
<path d="M138.886 70.2665L139.222 65.2929" stroke="black" stroke-width="1.77" stroke-miterlimit="10" stroke-linecap="round"/>
<path d="M222.047 69.6891C222.235 64.889 218.992 60.8642 214.803 60.6996C210.614 60.535 207.065 64.2929 206.877 69.093C206.688 73.8932 209.931 77.9179 214.12 78.0825C218.309 78.2471 221.858 74.4893 222.047 69.6891Z" fill="#E09B7A"/>
<path d="M212.185 68.8305C214.04 68.0912 215.853 67.2497 217.615 66.31" stroke="black" stroke-width="1.77" stroke-miterlimit="10" stroke-linecap="round"/>
<path d="M215.252 72.57C215.252 70.9097 215.252 69.2493 215.304 67.589" stroke="black" stroke-width="1.77" stroke-miterlimit="10" stroke-linecap="round"/>
<path d="M186.309 78.6654C186.956 78.3915 187.638 78.2078 188.336 78.1195C188.686 78.0825 189.04 78.1352 189.364 78.2725C189.689 78.4099 189.973 78.6275 190.19 78.9048C190.369 79.2486 190.472 79.6271 190.492 80.0144C190.511 80.4016 190.446 80.7885 190.302 81.1485C189.652 83.5184 188.305 85.6386 186.437 87.2354C184.569 88.8321 182.265 89.832 179.822 90.1058C177.38 90.3796 174.912 89.9147 172.736 88.7713C170.561 87.6278 168.779 85.8583 167.619 83.6914C167.142 82.8786 166.885 81.9561 166.871 81.0139C166.954 76.6311 172.226 79.6377 174.5 79.9369C178.481 80.4599 182.53 80.024 186.309 78.6654Z" fill="#FBF3E7"/>
<g style="mix-blend-mode:color-burn">
<path d="M196.884 97.3033C195.788 100.235 194.011 102.865 191.701 104.977C187.812 108.649 183.048 110.586 178.396 110.362C173.744 110.137 169.257 107.781 165.847 103.758C164.448 102.112 163.723 100.018 162.721 98.0213C167.685 101.561 173.662 103.397 179.757 103.257C185.947 103.108 191.936 101.026 196.884 97.3033Z" fill="#D2D2D2"/>
</g>
<path d="M161.382 97.3033C166.309 101.23 172.413 103.387 178.713 103.428C185.013 103.468 191.144 101.39 196.121 97.5276" stroke="#CB7E55" stroke-width="0.98" stroke-linecap="round" stroke-linejoin="round"/>
<path d="M78.5692 337.179C83.4977 281.752 88.4262 255.426 93.3622 196.992C79.9004 200.447 66.7751 204.897 54.9212 212.204C43.6546 219.105 31.1028 223.645 18.0282 225.547C14.7151 226.033 11.2002 226.295 8.17124 224.911C4.49915 223.206 2.28541 219.354 1.14115 215.472C-1.85036 205.159 1.28327 193.693 7.70007 185.07C14.1169 176.447 23.4055 170.381 33.2177 165.946C43.187 161.459 53.7695 158.467 64.0752 154.765C73.7153 151.224 82.7322 146.175 90.7895 139.807C107.991 126.479 133.763 128.042 150.074 113.63C151.57 126.531 169.87 129.284 174.993 141.22C178.119 148.497 175.883 156.837 173.782 164.473C158.271 220.753 151.345 244.813 153.447 303.157C153.873 315.288 154.516 328.182 148.496 338.72C142.109 349.901 129.103 356.131 116.27 357.096C106.084 357.844 95.4189 353.087 85.4571 348.757C83.2377 347.796 81.3775 346.16 80.141 344.082C78.9044 342.003 78.3545 339.588 78.5692 337.179Z" fill="#048C44"/>
<path d="M158.652 106.435C155.197 105.807 151.652 107.699 149.453 110.437C147.254 113.174 146.177 116.629 145.37 120.047C143.198 129.258 142.649 138.777 143.747 148.176C146.74 148.272 149.708 147.61 152.377 146.251C155.046 144.893 157.327 142.882 159.011 140.405C160.395 138.318 161.382 135.865 163.371 134.332C165.361 132.799 168.861 132.836 169.795 135.177C170.546 134.386 171.007 133.364 171.102 132.277C171.197 131.19 170.921 130.104 170.319 129.194C169.16 127.257 167.283 125.881 165.592 124.392C162.999 122.209 160.897 119.502 159.422 116.45C158.041 113.295 157.769 109.764 158.652 106.435Z" fill="#048C44"/>
<path d="M169.982 135.349C169.369 133.704 167.365 132.881 165.637 133.203C163.915 133.624 162.405 134.659 161.389 136.112C160.305 137.496 159.505 139.104 158.502 140.517C156.788 142.942 154.534 144.936 151.917 146.34C149.301 147.744 146.394 148.521 143.425 148.61C141.661 137.95 142.636 127.017 146.26 116.839C147.239 114.019 148.458 111.192 150.567 109.083C152.677 106.974 155.848 105.702 158.704 106.547" stroke="#3B2645" stroke-width="0.84" stroke-linecap="round" stroke-linejoin="round"/>
<path d="M279.278 336.693C274.529 281.296 271.544 255.403 266.608 196.962C280.07 200.417 293.196 204.867 305.049 212.174C316.316 219.076 328.868 223.615 341.942 225.517C345.256 226.003 348.771 226.265 351.807 224.881C355.471 223.176 357.685 219.324 358.829 215.443C361.821 205.129 358.687 193.664 352.278 185.04C345.869 176.417 336.573 170.351 326.753 165.916C316.784 161.429 306.201 158.437 295.895 154.735C286.255 151.194 277.238 146.145 269.181 139.777C251.98 126.449 226.208 128.012 209.897 113.6C208.401 126.502 190.1 129.254 184.977 141.19C181.851 148.468 184.087 156.807 186.189 164.443C201.7 220.723 206.442 244.304 204.377 302.641C203.951 314.772 203.315 327.673 209.336 338.211C215.723 349.385 228.721 355.623 241.554 356.58C251.748 357.328 262.42 352.571 272.39 348.241C274.602 347.279 276.456 345.647 277.692 343.576C278.928 341.504 279.482 339.097 279.278 336.693Z" fill="#048C44"/>
<path d="M201.319 106.435C204.774 105.807 208.319 107.699 210.517 110.437C212.716 113.174 213.793 116.629 214.601 120.047C216.771 129.258 217.322 138.776 216.231 148.176C213.237 148.273 210.267 147.612 207.597 146.253C204.927 144.894 202.644 142.883 200.96 140.405C199.576 138.318 198.589 135.865 196.607 134.332C194.625 132.799 191.11 132.836 190.175 135.177C189.427 134.385 188.968 133.363 188.873 132.277C188.778 131.191 189.052 130.105 189.652 129.194C190.811 127.257 192.688 125.881 194.378 124.392C196.973 122.211 199.076 119.504 200.548 116.45C201.93 113.295 202.201 109.764 201.319 106.435Z" fill="#048C44"/>
<path d="M189.988 135.349C190.601 133.704 192.606 132.881 194.333 133.203C196.056 133.624 197.566 134.659 198.581 136.112C199.666 137.496 200.466 139.104 201.468 140.517C203.182 142.942 205.437 144.936 208.053 146.34C210.67 147.744 213.577 148.521 216.545 148.61C218.31 137.95 217.334 127.017 213.711 116.839C212.739 114.019 211.512 111.192 209.403 109.083C207.294 106.974 204.123 105.702 201.266 106.547" stroke="#3B2645" stroke-width="0.84" stroke-linecap="round" stroke-linejoin="round"/>
<path d="M45.2884 169.162C40.9565 168.686 36.5732 169.073 32.3913 170.299C28.2093 171.524 24.3112 173.566 20.9215 176.305C17.5319 179.044 14.7176 182.427 12.641 186.258C10.5644 190.09 9.26641 194.294 8.82182 198.63C8.31222 202.991 8.87182 207.411 10.4522 211.508C12.0579 215.612 14.9839 219.064 18.7687 221.321C16.869 222.63 14.057 223.378 12.0377 222.316C10.0379 221.146 8.37971 219.473 7.22883 217.462C5.22245 214.237 3.89684 210.637 3.3335 206.881C2.77017 203.125 2.98102 199.294 3.95312 195.623" stroke="#3B2645" stroke-width="0.84" stroke-linecap="round" stroke-linejoin="round"/>
<path d="M340.641 177.254C345.277 180.403 348.878 184.852 350.993 190.042C353.107 195.232 353.64 200.931 352.525 206.423C351.784 210.119 350.049 213.543 347.506 216.325C346.227 217.701 344.681 218.802 342.962 219.56C341.242 220.317 339.386 220.715 337.507 220.73" stroke="#3B2645" stroke-width="0.84" stroke-linecap="round" stroke-linejoin="round"/>
<path d="M342.369 223.759C344.812 223.034 347.086 221.827 349.056 220.211C351.027 218.594 352.654 216.599 353.842 214.344C355.03 212.089 355.755 209.619 355.974 207.08C356.194 204.54 355.904 201.983 355.12 199.557" stroke="#3B2645" stroke-width="0.84" stroke-linecap="round" stroke-linejoin="round"/>
<path d="M162.242 186.514C163.609 186.514 164.717 185.405 164.717 184.038C164.717 182.671 163.609 181.562 162.242 181.562C160.875 181.562 159.766 182.671 159.766 184.038C159.766 185.405 160.875 186.514 162.242 186.514Z" fill="#3B2645"/>
<path d="M154.673 227.2C156.041 227.2 157.149 226.091 157.149 224.724C157.149 223.357 156.041 222.249 154.673 222.249C153.306 222.249 152.198 223.357 152.198 224.724C152.198 226.091 153.306 227.2 154.673 227.2Z" fill="#3B2645"/>
<path d="M151.525 274.677C151.525 275.166 151.38 275.645 151.108 276.052C150.836 276.459 150.449 276.776 149.997 276.964C149.544 277.151 149.047 277.2 148.566 277.105C148.086 277.009 147.645 276.773 147.299 276.427C146.953 276.081 146.717 275.64 146.621 275.16C146.526 274.679 146.575 274.182 146.762 273.729C146.95 273.277 147.267 272.89 147.674 272.618C148.081 272.346 148.56 272.201 149.049 272.201C149.706 272.201 150.336 272.462 150.8 272.926C151.264 273.39 151.525 274.02 151.525 274.677Z" fill="#3B2645"/>
<path d="M146.574 318.152C147.941 318.152 149.049 317.044 149.049 315.677C149.049 314.31 147.941 313.201 146.574 313.201C145.207 313.201 144.098 314.31 144.098 315.677C144.098 317.044 145.207 318.152 146.574 318.152Z" fill="#3B2645"/>
<path d="M196.069 182.101L200.279 181.226" stroke="#3B2645" stroke-width="0.84" stroke-linecap="round" stroke-linejoin="round"/>
<path d="M204.49 221.396L209.044 220.648" stroke="#3B2645" stroke-width="0.84" stroke-linecap="round" stroke-linejoin="round"/>
<path d="M210.966 270.062L215.872 269.374" stroke="#3B2645" stroke-width="0.84" stroke-linecap="round" stroke-linejoin="round"/>
<path d="M210.966 318.324L215.872 317.988" stroke="#3B2645" stroke-width="0.84" stroke-linecap="round" stroke-linejoin="round"/>
<path d="M192.636 22.8417C189.854 25.8708 185.471 26.8655 181.358 26.9029C177.244 26.9403 173.131 26.155 169.033 26.4242C165.2 26.6492 161.467 27.7361 158.112 29.604C154.757 31.4718 151.867 34.0726 149.656 37.2124C147.446 40.3523 145.972 43.9504 145.345 47.7388C144.719 51.5272 144.954 55.4082 146.035 59.0927" stroke="#5A3D25" stroke-width="0.93" stroke-miterlimit="10"/>
<path d="M193.915 17.1876C188.298 19.3864 182.061 18.9078 176.04 19.1621C168.442 19.4837 160.761 21.0917 154.24 25.0032C147.718 28.9148 142.468 35.2869 141.077 42.766" stroke="#5A3D25" stroke-width="0.93" stroke-miterlimit="10"/>
<path d="M195.582 13.3658C193.883 10.8265 191.698 8.64821 189.154 6.95623C186.609 5.26425 183.755 4.09193 180.756 3.5067C177.757 2.92147 174.672 2.93487 171.678 3.54612C168.685 4.15737 165.841 5.3544 163.311 7.06841" stroke="#5A3D25" stroke-width="0.93" stroke-miterlimit="10"/>
<path d="M191.821 14.4577C184.14 12.2091 176.032 11.8404 168.179 13.3829C160.327 14.9253 152.96 18.3337 146.701 23.3204" stroke="#5A3D25" stroke-width="0.93" stroke-miterlimit="10"/>
<path d="M195.134 27.06C194.663 28.8026 195.463 30.6723 196.629 32.0186C197.911 33.2883 199.311 34.4328 200.81 35.4365C204.183 38.0977 206.844 41.5521 208.558 45.4919C210.271 49.4316 210.983 53.7341 210.63 58.0158" stroke="#5A3D25" stroke-width="0.93" stroke-miterlimit="10"/>
<path d="M198.23 21.6675C202.186 26.4092 206.965 30.4704 210.48 35.5487C213.995 40.6269 216.127 47.2459 213.95 53.0272" stroke="#5A3D25" stroke-width="0.93" stroke-miterlimit="10"/>
<path d="M212.881 27.733C212.192 25.6822 210.864 23.9064 209.091 22.6665C207.318 21.4267 205.194 20.7882 203.031 20.8448" stroke="#5A3D25" stroke-width="0.93" stroke-miterlimit="10"/>
<path d="M95.202 192.729C92.9936 200.821 91.7781 209.151 91.5823 217.537" stroke="#3B2645" stroke-width="0.84" stroke-linecap="round" stroke-linejoin="round"/>
<path d="M90.6848 249.188C91.7094 254.423 94.5065 259.21 97.9018 263.346C101.297 267.482 105.313 271.057 109.195 274.751C110.833 276.307 112.598 278.416 111.895 280.57C111.341 282.26 109.359 283.158 107.594 282.993C105.825 282.701 104.171 281.924 102.815 280.75C96.8954 276.294 92.5072 270.107 90.2585 263.047" stroke="#3B2645" stroke-width="0.84" stroke-linecap="round" stroke-linejoin="round"/>
<path d="M89.3161 280.413C90.7826 282.871 92.7725 284.975 95.1444 286.577C97.5164 288.179 100.212 289.238 103.04 289.68" stroke="#3B2645" stroke-width="0.84" stroke-linecap="round" stroke-linejoin="round"/>
<path d="M265.135 244.992C258.952 252.049 250.623 256.881 241.427 258.746C240.136 258.92 238.876 259.28 237.688 259.816C237.094 260.094 236.583 260.521 236.204 261.056C235.825 261.591 235.592 262.215 235.527 262.867C235.474 265.403 238.772 266.644 241.27 266.173C243.768 265.702 246.109 264.281 248.637 264.475" stroke="#3B2645" stroke-width="0.84" stroke-linecap="round" stroke-linejoin="round"/>
<path d="M263.744 235.434C258.293 240.3 251.651 243.637 244.494 245.104" stroke="#3B2645" stroke-width="0.84" stroke-linecap="round" stroke-linejoin="round"/>
<path d="M261.456 201L256.864 203.76" stroke="#3B2645" stroke-width="0.84" stroke-linecap="round" stroke-linejoin="round"/>
<path d="M275.254 316.716C274.838 322.918 272.181 328.757 267.777 333.144C263.374 337.531 257.525 340.167 251.322 340.56" stroke="#3B2645" stroke-width="0.84" stroke-linecap="round" stroke-linejoin="round"/>
<path d="M84.7765 329.281C85.9883 331.855 87.7581 334.127 89.9572 335.932C92.1564 337.736 94.7297 339.028 97.4905 339.715" stroke="#3B2645" stroke-width="0.84" stroke-linecap="round" stroke-linejoin="round"/>
<path d="M87.05 315.752C87.3926 317.753 88.294 319.617 89.6504 321.128C91.0068 322.64 92.7628 323.737 94.7157 324.293" stroke="#3B2645" stroke-width="0.84" stroke-linecap="round" stroke-linejoin="round"/>
<path d="M149.423 240.168C144.395 240.075 139.458 238.809 135.005 236.472C130.551 234.135 126.705 230.791 123.771 226.706" stroke="#3B2645" stroke-width="0.84" stroke-linecap="round" stroke-linejoin="round"/>
<path d="M32.3054 221.912C24.0787 221.635 16.4577 216.018 13.1895 208.45C9.92128 200.881 10.9459 191.824 15.2163 184.823C19.4867 177.823 26.8832 172.917 34.878 171.032C55.8186 166.111 78.0157 169.035 98.6348 162.969C102.673 161.78 104.932 157.891 106.63 154.032C108.327 150.173 109.322 145.969 111.708 142.492C114.093 139.014 116.876 135.761 117.855 131.587C118.281 129.41 118.464 127.193 118.401 124.976C118.401 123.652 118.401 122.328 118.401 121.004C118.745 120.549 119.202 120.191 119.727 119.966C120.251 119.742 120.826 119.659 121.393 119.725C122.551 119.971 123.599 120.582 124.384 121.468C126.493 123.712 127.189 126.913 127.054 129.957C126.92 133.001 126.082 135.94 125.506 138.969C124.93 141.998 124.646 145.124 125.611 148.011C125.888 148.849 126.478 148.886 127.294 149.208C128.126 149.49 128.995 149.646 129.874 149.672L135.273 150.09C137.487 150.153 139.678 150.552 141.772 151.272C143.829 152.095 145.699 153.673 146.305 155.804C146.91 157.936 145.893 160.554 143.807 161.272C144.638 161.67 145.326 162.314 145.778 163.117C146.231 163.919 146.425 164.842 146.335 165.759C146.23 166.651 145.848 167.487 145.243 168.15C144.638 168.813 143.84 169.269 142.962 169.454C144.041 170.012 144.928 170.88 145.51 171.946C146.093 173.012 146.343 174.228 146.23 175.437C145.953 177.86 143.747 178.646 141.376 179.177C142.565 179.311 144.016 182.37 143.896 183.559C143.799 184.148 143.571 184.707 143.229 185.196C142.888 185.686 142.441 186.092 141.922 186.386C140.884 186.972 139.776 187.422 138.624 187.725C135.271 188.813 132.044 190.257 128.999 192.033C120.854 196.797 110.481 188.204 101.148 189.528C86.6911 191.584 74.052 199.587 61.2034 206.527C51.5408 211.868 43.4338 222.263 32.3054 221.912Z" fill="#E09B7A"/>
<path d="M118.499 127.519C118.846 127.729 119.263 127.794 119.658 127.699C120.053 127.603 120.394 127.356 120.608 127.01C121.004 126.29 121.161 125.462 121.056 124.647C120.998 123.142 120.695 121.656 120.159 120.249" stroke="#CB7E55" stroke-width="0.98" stroke-linecap="round" stroke-linejoin="round"/>
<path d="M132.357 169.544H141.054C142.112 169.607 143.173 169.483 144.188 169.177C144.698 169.019 145.155 168.728 145.514 168.333C145.873 167.939 146.12 167.455 146.23 166.933C146.473 165.815 146.473 164.657 146.23 163.538C146.098 162.974 145.816 162.457 145.415 162.039C145.013 161.622 144.507 161.321 143.949 161.167" stroke="#CB7E55" stroke-width="0.98" stroke-linecap="round" stroke-linejoin="round"/>
<path d="M135.139 178.803C136.659 179.143 138.21 179.328 139.768 179.356C141.338 179.385 142.88 178.942 144.196 178.085C144.846 177.651 145.38 177.064 145.749 176.375C146.118 175.687 146.311 174.917 146.312 174.136C146.237 172.258 144.816 170.703 143.403 169.499" stroke="#CB7E55" stroke-width="0.98" stroke-linecap="round" stroke-linejoin="round"/>
<path d="M121.52 147.877C127.925 149.318 134.422 150.317 140.965 150.868C142.063 151.063 143.097 151.523 143.977 152.209C144.857 152.894 145.556 153.785 146.013 154.802C146.409 155.804 146.222 159.881 145.183 160.591C144.275 161.108 143.234 161.345 142.191 161.272C139.14 161.272 136.089 160.569 133.052 160.898" stroke="#CB7E55" stroke-width="0.98" stroke-linecap="round" stroke-linejoin="round"/>
<path d="M330.141 221.912C338.367 221.635 345.996 216.018 349.257 208.45C352.517 200.881 351.5 191.824 347.23 184.823C342.959 177.823 335.57 172.917 327.568 171.032C306.627 166.111 284.43 169.035 263.819 162.969C259.773 161.78 257.522 157.891 255.824 154.032C254.126 150.173 253.124 145.97 250.746 142.492C248.368 139.014 245.571 135.761 244.598 131.587C244.169 129.411 243.986 127.193 244.052 124.976C244.052 123.652 244.052 122.328 244.052 121.004C243.707 120.55 243.25 120.194 242.726 119.969C242.201 119.745 241.628 119.661 241.061 119.725C239.903 119.972 238.855 120.583 238.069 121.468C235.96 123.712 235.272 126.913 235.399 129.957C235.527 133.001 236.379 135.94 236.955 138.969C237.531 141.998 237.815 145.124 236.843 148.011C236.566 148.849 235.983 148.886 235.168 149.208C234.335 149.49 233.466 149.646 232.587 149.672L227.188 150.09C224.972 150.154 222.778 150.552 220.681 151.272C218.632 152.095 216.762 153.673 216.194 155.804C215.625 157.936 216.598 160.554 218.692 161.272C217.861 161.67 217.172 162.314 216.72 163.117C216.268 163.919 216.074 164.842 216.164 165.759C216.266 166.65 216.646 167.487 217.25 168.15C217.854 168.813 218.651 169.269 219.529 169.454C218.45 170.012 217.563 170.88 216.981 171.946C216.398 173.012 216.148 174.228 216.261 175.437C216.538 177.86 218.752 178.646 221.115 179.177C219.933 179.311 218.482 182.37 218.602 183.559C218.699 184.147 218.926 184.706 219.266 185.195C219.607 185.684 220.052 186.091 220.569 186.386C221.609 186.972 222.72 187.422 223.875 187.725C227.226 188.812 230.45 190.256 233.492 192.033C241.644 196.797 252.01 188.204 261.351 189.528C275.807 191.584 288.446 199.587 301.295 206.527C310.95 211.868 319.02 222.263 330.141 221.912Z" fill="#E09B7A"/>
<path d="M243.955 127.519C243.608 127.729 243.191 127.794 242.796 127.699C242.401 127.603 242.06 127.356 241.846 127.01C241.45 126.29 241.293 125.462 241.398 124.647C241.453 123.142 241.754 121.657 242.288 120.249" stroke="#CB7E55" stroke-width="0.98" stroke-linecap="round" stroke-linejoin="round"/>
<path d="M230.097 169.544H221.399C220.339 169.607 219.276 169.483 218.258 169.177C217.751 169.016 217.295 168.723 216.936 168.329C216.578 167.935 216.329 167.454 216.216 166.933C215.977 165.814 215.977 164.657 216.216 163.538C216.349 162.973 216.631 162.454 217.034 162.037C217.437 161.62 217.945 161.319 218.505 161.167" stroke="#CB7E55" stroke-width="0.98" stroke-linecap="round" stroke-linejoin="round"/>
<path d="M227.293 178.803C225.772 179.143 224.221 179.329 222.663 179.356C221.096 179.384 219.556 178.941 218.243 178.085C217.592 177.652 217.057 177.065 216.687 176.376C216.316 175.687 216.121 174.918 216.119 174.136C216.194 172.258 217.615 170.703 219.036 169.499" stroke="#CB7E55" stroke-width="0.98" stroke-linecap="round" stroke-linejoin="round"/>
<path d="M240.934 147.877C234.528 149.318 228.031 150.317 221.489 150.868C220.391 151.063 219.358 151.523 218.48 152.209C217.601 152.895 216.903 153.785 216.448 154.802C216.052 155.804 216.231 159.881 217.278 160.591C218.186 161.109 219.227 161.346 220.27 161.272C223.321 161.272 226.372 160.569 229.401 160.898" stroke="#CB7E55" stroke-width="0.98" stroke-linecap="round" stroke-linejoin="round"/>
<path d="M141.743 179.236C143.029 180.635 144.413 182.452 143.777 184.24C143.306 185.586 141.877 186.297 140.583 186.872L132.678 190.403C129.642 191.756 126.523 193.132 123.203 193.312C115.881 193.701 108.993 188.234 101.746 189.49" stroke="#CB7E55" stroke-width="0.98" stroke-linecap="round" stroke-linejoin="round"/>
</svg>
