<svg width="79" height="129" viewBox="0 0 79 129" fill="none" xmlns="http://www.w3.org/2000/svg">
<path d="M8.58712 119.475C8.58712 119.475 8.24209 117.774 12.1559 112.541C13.0001 111.412 15.5756 107.161 15.5756 107.161C16.5942 106.908 19.7638 108.599 20.6004 109.112L20.8658 109.278C20.8658 109.278 22.2218 115.159 19.3391 114.492C19.2494 114.471 19.1596 114.454 19.0699 114.44C16.2821 114.006 13.5915 116.772 12.372 118.527C11.5733 119.669 9.11664 119.523 8.58712 119.475Z" fill="#233862"/>
<path d="M29.2471 108.047C29.2471 108.047 28.9021 106.346 32.8172 101.113C33.6614 99.9844 36.2369 95.7332 36.2369 95.7332C37.2479 95.4804 40.425 97.1701 41.2603 97.6831C41.4284 97.7868 41.5257 97.85 41.5257 97.85C41.5257 97.85 42.8817 103.73 40.0003 103.064C39.9093 103.043 39.8197 103.025 39.7299 103.011C36.9434 102.576 34.2528 105.343 33.0321 107.099C32.2334 108.241 29.7766 108.093 29.2471 108.047Z" fill="#233862"/>
<path d="M73.3444 78.9351C72.5431 75.4951 63.64 64.7684 59.0791 67.2529C54.5183 69.7375 56.8865 83.2305 61.6382 99.1424C61.7115 99.3851 61.7848 99.6265 61.8606 99.8653C52.2789 98.2932 40.8748 97.8155 40.8748 97.8155L39.6742 103.356C48.3081 105.742 65.0819 114.033 72.116 117.605C74.8052 118.824 77.9646 118.824 78.6079 116.457C80.7613 108.535 73.3444 78.9351 73.3444 78.9351Z" fill="#ED7D2B"/>
<path d="M56.3433 128.503C56.3433 128.503 35.9628 119.307 23.5363 115.592C21.9958 115.132 20.5816 114.758 19.3406 114.493L20.6474 109.16C20.6474 109.16 21.8656 109.139 23.8408 109.141C31.5788 109.164 50.9534 109.596 54.4161 113.394C58.7596 118.166 56.3433 128.503 56.3433 128.503Z" fill="#FFB27D"/>
<path d="M71.7434 2.44413C72.4132 3.98464 72.9478 6.00538 72.4941 7.07198C71.981 8.28013 72.1225 9.15338 72.1225 9.15338L71.0269 9.42129L69.7176 9.74103C69.7176 9.74103 69.6481 9.62855 69.5432 9.43646C69.4383 9.24437 69.2993 8.97519 69.1641 8.66051C69.1368 8.4804 69.0661 8.3096 68.9583 8.16279C68.8504 8.01597 68.7086 7.89751 68.5449 7.81759C67.9875 7.55346 67.4075 6.88115 67.295 6.23032C67.1825 5.57949 66.5203 4.36502 66.7099 4.23865C67.1686 3.92776 67.8561 5.81708 68.2605 5.90175C68.627 5.97757 68.7433 5.71849 68.766 5.66794V5.65784C69.3979 4.1148 68.2277 0.223706 69.1578 0.00254997C69.5015 -0.0783301 71.4591 1.78698 71.7434 2.44413Z" fill="#FFB27D"/>
<path d="M1.21846 33.5475C2.35584 34.7822 3.98985 36.0889 5.14745 36.1053C6.46049 36.123 7.20357 36.6108 7.20357 36.6108L7.89105 35.7173L8.71125 34.6495C8.71125 34.6495 8.63667 34.5395 8.50398 34.3664C8.37129 34.1932 7.44369 33.4122 7.42726 32.7955C7.41083 32.1788 7.03297 31.3713 6.48198 31.0099C5.93098 30.6484 5.09187 29.549 4.89599 29.6703C4.42714 29.9635 5.87667 31.3574 5.79074 31.7605C5.71239 32.127 5.42801 32.1283 5.37366 32.1257H5.36354C3.69413 32.084 0.605526 29.4352 0.0317832 30.1985C-0.181791 30.4778 0.733183 33.0217 1.21846 33.5475Z" fill="#FFB27D"/>
<path d="M50.5262 81.5045C45.499 82.8075 46.7603 88.852 47.5109 105.443C47.5969 107.319 47.7713 109.133 48.0164 110.861C40.6488 109.382 29.3218 109.16 23.8384 109.144C23.8384 109.144 22.9284 111.166 22.9676 112.789C23.051 116.235 24.8114 118.515 24.8114 118.515C37.2379 122.23 56.3408 128.498 56.3408 128.498V128.483C57.6146 128.814 58.8139 128.177 59.7668 126.353C63.5669 119.075 70.0689 70.6451 70.0689 70.6451C70.1321 67.118 55.5522 80.2003 50.5262 81.5045Z" fill="#F99746"/>
<path d="M42.3194 44.3298C42.3194 44.3298 44.0887 39.8485 40.6512 33.4615L45.5369 34.5458L48.8568 35.2826C49.3371 36.3374 49.759 37.4179 50.1206 38.5191C50.3101 39.0726 51.0115 41.2917 51.2175 41.978C52.384 42.0272 50.7019 43.7952 48.3109 44.1428C45.6393 44.5231 42.3194 44.3298 42.3194 44.3298Z" fill="#FFB27D"/>
<path d="M48.8569 35.2752C49.3371 36.33 49.759 37.4105 50.1206 38.5117C47.2696 39.3622 42.183 36.5895 42.183 36.5895C43.3305 35.5406 44.4679 34.891 45.5345 34.5384L48.8569 35.2752Z" fill="#ED975D"/>
<path d="M51.0506 33.6044C51.0506 33.6044 45.3903 39.865 41.546 36.2797C37.7016 32.6945 34.3818 31.0883 37.8331 26.9394C41.2844 22.7905 43.4656 23.3933 45.0365 24.2779C46.6073 25.1625 52.4243 31.8832 51.0506 33.6044Z" fill="#FFB27D"/>
<path d="M41.2289 35.8919C41.2289 35.8919 41.809 35.2486 40.9698 34.4133C40.1307 33.5779 39.1753 32.371 40.1029 32.0008C41.0305 31.6305 41.5436 32.2004 41.5739 31.6065C41.6043 31.0125 40.4366 29.5301 42.5849 27.6573C44.7333 25.7844 46.2562 25.8412 46.931 24.5623C47.6058 23.2834 46.4141 21.6696 46.4141 21.6696C46.4141 21.6696 46.5645 22.4645 46.2599 22.9965C46.2599 22.9965 46.1121 19.2571 42.8213 19.2242C39.5305 19.1914 38.3311 21.8781 37.2279 22.8664C34.7964 25.0489 33.2685 26.511 33.7665 28.8515C34.2644 31.192 38.3097 35.5784 41.2289 35.8919Z" fill="#2B478B"/>
<path d="M47.5133 32.3003L49.6137 30.3238C49.6137 30.3238 50.468 31.6343 49.8665 32.203C49.2649 32.7717 47.5133 32.3003 47.5133 32.3003Z" fill="white"/>
<path d="M75.7052 20.4601C74.808 14.8996 72.1048 8.79439 72.1048 8.79439L69.1603 8.66043C69.1603 8.66043 69.4876 16.1873 69.413 21.4521C69.3789 23.9796 68.2757 26.267 67.9724 26.6714C67.0599 27.901 53.6009 40.8532 53.146 41.2665L53.1346 41.2766C51.7015 41.5205 51.8608 43.8736 50.3885 44.2692C47.9343 44.9276 43.8587 43.7283 41.6774 44.5358C41.6774 44.5358 24.196 44.556 21.5358 43.2822C18.8756 42.0083 8.50142 34.3601 8.50142 34.3601L6.58938 36.5994C6.58938 36.5994 13.7094 50.3061 19.3533 52.7755C22.4254 54.1176 29.1739 55.7326 34.6864 56.9269C35.7563 57.1603 36.745 57.6739 37.551 58.4152C38.3571 59.1564 38.9517 60.0986 39.2738 61.1453C44.4552 77.866 41.848 91.9732 41.848 91.9732C41.848 91.9732 46.8184 92.5306 53.0057 90.8119C61.0508 88.5763 66.9272 84.9569 66.9272 84.9569C69.1944 82.2082 67.8548 72.1298 67.8548 72.1298C67.8548 72.1298 69.4193 73.8207 69.9438 76.6439C70.3229 78.6786 70.5251 79.8033 70.6502 80.5173C70.6773 80.6715 70.7433 80.8162 70.842 80.9377C70.9406 81.0591 71.0687 81.1534 71.214 81.2115C71.3594 81.2696 71.5171 81.2896 71.6723 81.2697C71.8276 81.2497 71.9751 81.1904 72.101 81.0974C73.2637 80.2368 74.9229 78.8959 75.4411 77.9127C77.252 74.4753 73.2244 60.473 67.6614 50.7092C67.1727 49.8535 66.9244 48.8815 66.9429 47.8962C66.9614 46.9109 67.2459 45.9489 67.7663 45.1121C71.1886 39.6223 76.4496 30.9151 76.514 29.1673C76.5456 28.2157 76.2221 23.6536 75.7052 20.4601Z" fill="#2B478B"/>
<path d="M50.0068 45.5329C50.0068 45.5329 54.7004 52.1916 51.2592 58.6279C47.818 65.0642 34.2972 64.1745 31.7975 72.2145L33.314 77.2202L38.968 74.1544C38.968 74.1544 39.4406 69.8071 45.0011 67.9203C55.8618 64.2327 58.4765 57.8634 56.1967 52.1651C54.2707 47.3489 51.4816 45.0287 51.4816 45.0287L50.0068 45.5329Z" fill="#F99746"/>
<path d="M42.7568 41.8683L48.1997 43.6666L48.4677 44.6991L41.6801 44.5373C41.6801 44.5373 42.0402 42.9779 42.7568 41.8683Z" fill="#F99746"/>
<path d="M50.7196 40.3717L50.9016 43.1861C50.9016 43.1861 51.6143 43.7699 51.6055 43.6916C51.5967 43.6132 53.1359 41.2778 53.1359 41.2778C52.3568 40.9096 51.5487 40.6066 50.7196 40.3717Z" fill="#F99746"/>
<path d="M48.1997 43.6665L50.9737 42.73C51.0333 42.7098 51.0967 42.7032 51.1592 42.7106C51.2217 42.718 51.2817 42.7392 51.335 42.7727C51.3883 42.8063 51.4334 42.8513 51.4671 42.9044C51.5008 42.9576 51.5222 43.0176 51.5297 43.0801L51.7585 44.9441C51.7701 45.0408 51.7483 45.1387 51.6965 45.2212C51.6448 45.3038 51.5663 45.3661 51.4741 45.3978L50.2521 45.811C50.1868 45.8334 50.1171 45.8394 50.049 45.8284C49.9809 45.8173 49.9165 45.7897 49.8616 45.7478L48.0797 44.4057C48.0182 44.3593 47.9705 44.297 47.9418 44.2255C47.913 44.154 47.9044 44.076 47.9168 43.9999C47.9291 43.9238 47.962 43.8526 48.0118 43.7938C48.0617 43.735 48.1267 43.691 48.1997 43.6665Z" fill="#ED7D2B"/>
<path d="M69.0188 8.26736L68.7737 10.604C68.7737 10.604 71.7232 10.6495 71.7232 10.604C71.7232 10.5585 71.8129 9.44643 71.8129 9.44643L72.3046 10.7392L73.399 10.3816L72.1454 8.26736C72.1454 8.26736 70.8993 8.85753 69.0188 8.26736Z" fill="#233862"/>
<path d="M8.50418 34.3614L6.58327 36.5995L7.14691 38.7846L7.92917 38.2475L7.54372 36.6059L8.88962 37.7116L10.6323 35.4091L8.50418 34.3614Z" fill="#233862"/>
<path d="M8.08547 36.4151C8.08547 36.3679 8.10426 36.3225 8.13768 36.2891C8.17109 36.2557 8.21642 36.2369 8.26368 36.2369C8.31106 36.2369 8.3565 36.2557 8.39012 36.289C8.42374 36.3224 8.44279 36.3677 8.44313 36.4151C8.44279 36.4625 8.42374 36.5078 8.39012 36.5412C8.3565 36.5746 8.31106 36.5933 8.26368 36.5933C8.21642 36.5933 8.17109 36.5745 8.13768 36.5411C8.10426 36.5077 8.08547 36.4624 8.08547 36.4151Z" fill="#EBF3FA"/>
<path d="M71.1823 9.74118C71.1823 9.70386 71.1971 9.66805 71.2233 9.64154C71.2496 9.61503 71.2853 9.59997 71.3226 9.59964C71.3601 9.59964 71.3962 9.61455 71.4227 9.64109C71.4492 9.66763 71.4642 9.70364 71.4642 9.74118C71.4638 9.7785 71.4488 9.81416 71.4223 9.84043C71.3958 9.8667 71.3599 9.88145 71.3226 9.88145C71.2854 9.88145 71.2498 9.86666 71.2234 9.84036C71.1971 9.81405 71.1823 9.77838 71.1823 9.74118Z" fill="#EBF3FA"/>
<path d="M66.5444 64.1469C66.5444 64.0464 66.5844 63.9499 66.6555 63.8788C66.7266 63.8077 66.823 63.7678 66.9235 63.7678C67.0241 63.7678 67.1205 63.8077 67.1916 63.8788C67.2627 63.9499 67.3026 64.0464 67.3026 64.1469C67.3026 64.2475 67.2627 64.3439 67.1916 64.415C67.1205 64.4861 67.0241 64.526 66.9235 64.526C66.823 64.526 66.7266 64.4861 66.6555 64.415C66.5844 64.3439 66.5444 64.2475 66.5444 64.1469Z" fill="#EBF3FA"/>
<path d="M63.5263 57.8622C63.5263 57.7617 63.5662 57.6652 63.6373 57.5941C63.7084 57.523 63.8049 57.4831 63.9054 57.4831C64.006 57.4831 64.1024 57.523 64.1735 57.5941C64.2446 57.6652 64.2846 57.7617 64.2846 57.8622C64.2846 57.9628 64.2446 58.0592 64.1735 58.1303C64.1024 58.2014 64.006 58.2413 63.9054 58.2413C63.8049 58.2413 63.7084 58.2014 63.6373 58.1303C63.5662 58.0592 63.5263 57.9628 63.5263 57.8622Z" fill="#EBF3FA"/>
<path d="M59.3701 53.1066C59.3701 53.006 59.41 52.9096 59.4811 52.8385C59.5522 52.7674 59.6486 52.7275 59.7492 52.7275C59.8497 52.7275 59.9462 52.7674 60.0173 52.8385C60.0884 52.9096 60.1283 53.006 60.1283 53.1066C60.1283 53.2071 60.0884 53.3036 60.0173 53.3747C59.9462 53.4458 59.8497 53.4857 59.7492 53.4857C59.6486 53.4857 59.5522 53.4458 59.4811 53.3747C59.41 53.3036 59.3701 53.2071 59.3701 53.1066Z" fill="#EBF3FA"/>
</svg>
